<svg width="840" height="460" viewBox="0 0 840 460" xmlns="http://www.w3.org/2000/svg">
  
    <style>
      @keyframes fadeInUp {
        from { opacity: 0; transform: translateY(12px); }
        to   { opacity: 1; transform: translateY(0); }
      }
      @keyframes growBar {
        from { transform: scaleY(0); }
        to   { transform: scaleY(1); }
      }
      .cpd-header  { animation: fadeInUp 0.5s ease both; }
      .cpd-stats   { animation: fadeInUp 0.5s ease 0.15s both; }
      .cpd-chart   { animation: fadeInUp 0.5s ease 0.3s both; }
      .cpd-legend  { animation: fadeInUp 0.5s ease 0.45s both; }
    </style>

  <!-- Background -->
  <rect width="840" height="460" rx="12" fill="#ffffff" stroke="#d0d7de" stroke-width="1"/>

  <!-- Header -->
  <g class="cpd-header">
    <a href="https://github.com/mpge/code-per-day" target="_blank">
      <text x="24" y="44" fill="#1f2328" font-size="18" font-family="'Segoe UI', sans-serif" font-weight="700">Code Per Day</text>
    </a>
    <text x="816" y="44" fill="#8b949e" font-size="13" font-family="'Segoe UI', sans-serif" text-anchor="end" font-weight="500">@mpge</text>
  </g>

  <!-- Stats Cards -->
  <g class="cpd-stats">
    
    <rect x="24" y="60" width="190" height="68" rx="8" fill="#ffffff" stroke="#d0d7de" stroke-width="1"/>
    <text x="119" y="78" fill="#8b949e" font-size="11" font-family="'Segoe UI', sans-serif" text-anchor="middle" font-weight="500">Today</text>
    <text x="119" y="100" fill="#1a7f37" font-size="16" font-family="'Segoe UI Mono', 'Cascadia Code', monospace" text-anchor="middle" font-weight="700">+30,323</text>
    <text x="119" y="118" fill="#cf222e" font-size="14" font-family="'Segoe UI Mono', 'Cascadia Code', monospace" text-anchor="middle" font-weight="600">-878</text>
    <rect x="222" y="60" width="190" height="68" rx="8" fill="#ffffff" stroke="#d0d7de" stroke-width="1"/>
    <text x="317" y="78" fill="#8b949e" font-size="11" font-family="'Segoe UI', sans-serif" text-anchor="middle" font-weight="500">30d Avg</text>
    <text x="317" y="100" fill="#1a7f37" font-size="16" font-family="'Segoe UI Mono', 'Cascadia Code', monospace" text-anchor="middle" font-weight="700">+213,566</text>
    <text x="317" y="118" fill="#cf222e" font-size="14" font-family="'Segoe UI Mono', 'Cascadia Code', monospace" text-anchor="middle" font-weight="600">-56,458</text>
    <rect x="420" y="60" width="190" height="68" rx="8" fill="#ffffff" stroke="#d0d7de" stroke-width="1"/>
    <text x="515" y="78" fill="#8b949e" font-size="11" font-family="'Segoe UI', sans-serif" text-anchor="middle" font-weight="500">Year Avg</text>
    <text x="515" y="100" fill="#1a7f37" font-size="16" font-family="'Segoe UI Mono', 'Cascadia Code', monospace" text-anchor="middle" font-weight="700">+21,338</text>
    <text x="515" y="118" fill="#cf222e" font-size="14" font-family="'Segoe UI Mono', 'Cascadia Code', monospace" text-anchor="middle" font-weight="600">-6,299</text>
        <rect x="618" y="60" width="190" height="68" rx="8" fill="#ffffff" stroke="#d0d7de" stroke-width="1"/>
        <text x="713" y="78" fill="#8b949e" font-size="11" font-family="'Segoe UI', sans-serif" text-anchor="middle" font-weight="500">Streak</text>
        <text x="713" y="104" fill="#0969da" font-size="20" font-family="'Segoe UI Mono', 'Cascadia Code', monospace" text-anchor="middle" font-weight="700">151</text>
        <text x="713" y="120" fill="#8b949e" font-size="11" font-family="'Segoe UI', sans-serif" text-anchor="middle">days</text>
  </g>

  <!-- Chart -->
  <g class="cpd-chart">
    <line x1="72" y1="148" x2="808" y2="148" stroke="#eaeef2" stroke-width="1" stroke-dasharray="4,4"/><line x1="72" y1="213.5" x2="808" y2="213.5" stroke="#eaeef2" stroke-width="1" stroke-dasharray="4,4"/><line x1="72" y1="279" x2="808" y2="279" stroke="#eaeef2" stroke-width="1" stroke-dasharray="4,4"/><line x1="72" y1="344.5" x2="808" y2="344.5" stroke="#eaeef2" stroke-width="1" stroke-dasharray="4,4"/><line x1="72" y1="410" x2="808" y2="410" stroke="#eaeef2" stroke-width="1" stroke-dasharray="4,4"/><line x1="72" y1="279" x2="808" y2="279" stroke="#d0d7de" stroke-width="1.5"/><text x="64" y="162" fill="#8b949e" font-size="10" font-family="'Segoe UI', sans-serif" text-anchor="end">+44,916</text><text x="64" y="406" fill="#8b949e" font-size="10" font-family="'Segoe UI', sans-serif" text-anchor="end">-44,916</text><text x="64" y="283" fill="#8b949e" font-size="10" font-family="'Segoe UI', sans-serif" text-anchor="end">0</text><path d="M 72 279 L 72 279 L 96.53333333333333 261.6781102502449 L 121.06666666666666 277.4483034998664 L 145.60000000000002 279 L 170.13333333333333 274.9645115326387 L 194.66666666666669 279 L 219.20000000000002 279 L 243.73333333333335 230.23470478226022 L 268.26666666666665 158 L 292.8 158 L 317.33333333333337 208.79920295663015 L 341.8666666666667 158 L 366.40000000000003 158 L 390.93333333333334 261.53533262089235 L 415.4666666666667 279 L 440 158 L 464.53333333333336 263.3267877816368 L 489.0666666666667 278.8706919583222 L 513.6 279 L 538.1333333333334 278.85722237064743 L 562.6666666666667 279 L 587.2 268.44792501558464 L 611.7333333333333 240.0863612075875 L 636.2666666666667 276.45963576453823 L 660.8000000000001 266.49214088520796 L 685.3333333333334 278.98653041232524 L 709.8666666666667 210.7576810045418 L 734.4000000000001 158 L 758.9333333333334 273.01142131979697 L 783.4666666666667 204.66403954047556 L 808 197.3123385875857 L 808 279 Z" fill="#1a7f37" opacity="0.15"/><path d="M 72 279 L 72 279 L 96.53333333333333 261.6781102502449 L 121.06666666666666 277.4483034998664 L 145.60000000000002 279 L 170.13333333333333 274.9645115326387 L 194.66666666666669 279 L 219.20000000000002 279 L 243.73333333333335 230.23470478226022 L 268.26666666666665 158 L 292.8 158 L 317.33333333333337 208.79920295663015 L 341.8666666666667 158 L 366.40000000000003 158 L 390.93333333333334 261.53533262089235 L 415.4666666666667 279 L 440 158 L 464.53333333333336 263.3267877816368 L 489.0666666666667 278.8706919583222 L 513.6 279 L 538.1333333333334 278.85722237064743 L 562.6666666666667 279 L 587.2 268.44792501558464 L 611.7333333333333 240.0863612075875 L 636.2666666666667 276.45963576453823 L 660.8000000000001 266.49214088520796 L 685.3333333333334 278.98653041232524 L 709.8666666666667 210.7576810045418 L 734.4000000000001 158 L 758.9333333333334 273.01142131979697 L 783.4666666666667 204.66403954047556 L 808 197.3123385875857" fill="none" stroke="#1a7f37" stroke-width="2"/><path d="M 72 279 L 72 279 L 96.53333333333333 279.4579659809422 L 121.06666666666666 279 L 145.60000000000002 279 L 170.13333333333333 280.5328390773889 L 194.66666666666669 279 L 219.20000000000002 279 L 243.73333333333335 279.10775670139816 L 268.26666666666665 400 L 292.8 298.0082821266364 L 317.33333333333337 327.11875500935076 L 341.8666666666667 290.3117597292724 L 366.40000000000003 309.68102680559264 L 390.93333333333334 282.67989135274735 L 415.4666666666667 279 L 440 279.2397586606109 L 464.53333333333336 279.6088253628996 L 489.0666666666667 292.10321489001694 L 513.6 279 L 538.1333333333334 279.1212262890729 L 562.6666666666667 279 L 587.2 279.28016742363525 L 611.7333333333333 281.22248196633717 L 636.2666666666667 279.3232701041945 L 660.8000000000001 279.16702288716715 L 685.3333333333334 279 L 709.8666666666667 280.4870424792947 L 734.4000000000001 292.28370736485886 L 758.9333333333334 279.2235951554012 L 783.4666666666667 282.34584557841305 L 808 281.36525959568974 L 808 279 Z" fill="#cf222e" opacity="0.15"/><path d="M 72 279 L 72 279 L 96.53333333333333 279.4579659809422 L 121.06666666666666 279 L 145.60000000000002 279 L 170.13333333333333 280.5328390773889 L 194.66666666666669 279 L 219.20000000000002 279 L 243.73333333333335 279.10775670139816 L 268.26666666666665 400 L 292.8 298.0082821266364 L 317.33333333333337 327.11875500935076 L 341.8666666666667 290.3117597292724 L 366.40000000000003 309.68102680559264 L 390.93333333333334 282.67989135274735 L 415.4666666666667 279 L 440 279.2397586606109 L 464.53333333333336 279.6088253628996 L 489.0666666666667 292.10321489001694 L 513.6 279 L 538.1333333333334 279.1212262890729 L 562.6666666666667 279 L 587.2 279.28016742363525 L 611.7333333333333 281.22248196633717 L 636.2666666666667 279.3232701041945 L 660.8000000000001 279.16702288716715 L 685.3333333333334 279 L 709.8666666666667 280.4870424792947 L 734.4000000000001 292.28370736485886 L 758.9333333333334 279.2235951554012 L 783.4666666666667 282.34584557841305 L 808 281.36525959568974" fill="none" stroke="#cf222e" stroke-width="2"/><text x="72" y="426" fill="#8b949e" font-size="10" font-family="'Segoe UI', sans-serif" text-anchor="middle">Mar 28</text><text x="194.66666666666669" y="426" fill="#8b949e" font-size="10" font-family="'Segoe UI', sans-serif" text-anchor="middle">Apr 2</text><text x="317.33333333333337" y="426" fill="#8b949e" font-size="10" font-family="'Segoe UI', sans-serif" text-anchor="middle">Apr 7</text><text x="440" y="426" fill="#8b949e" font-size="10" font-family="'Segoe UI', sans-serif" text-anchor="middle">Apr 12</text><text x="562.6666666666667" y="426" fill="#8b949e" font-size="10" font-family="'Segoe UI', sans-serif" text-anchor="middle">Apr 17</text><text x="685.3333333333334" y="426" fill="#8b949e" font-size="10" font-family="'Segoe UI', sans-serif" text-anchor="middle">Apr 22</text><text x="808" y="426" fill="#8b949e" font-size="10" font-family="'Segoe UI', sans-serif" text-anchor="middle">Apr 27</text>
  </g>

  <!-- Legend -->
  <g class="cpd-legend">
    <circle cx="30" cy="442" r="5" fill="#1a7f37"/>
    <text x="40" y="446" fill="#656d76" font-size="11" font-family="'Segoe UI', sans-serif">Additions</text>
    <circle cx="124" cy="442" r="5" fill="#cf222e"/>
    <text x="134" y="446" fill="#656d76" font-size="11" font-family="'Segoe UI', sans-serif">Deletions</text>
    <text x="816" y="446" fill="#8b949e" font-size="10" font-family="'Segoe UI', sans-serif" text-anchor="end">Last 31 days · +6,620,533 / -1,750,201 lines</text>
  </g>

  <!-- Get your own -->
  <a href="https://github.com/mpge/code-per-day" target="_blank">
    <text x="420" y="452" fill="#8b949e" font-size="10" font-family="'Segoe UI', sans-serif" text-anchor="middle" opacity="0.6">Get your own — github.com/mpge/code-per-day</text>
  </a>
</svg>