<svg width="840" height="460" viewBox="0 0 840 460" xmlns="http://www.w3.org/2000/svg">
  
    <style>
      @keyframes fadeInUp {
        from { opacity: 0; transform: translateY(12px); }
        to   { opacity: 1; transform: translateY(0); }
      }
      @keyframes growBar {
        from { transform: scaleY(0); }
        to   { transform: scaleY(1); }
      }
      .cpd-header  { animation: fadeInUp 0.5s ease both; }
      .cpd-stats   { animation: fadeInUp 0.5s ease 0.15s both; }
      .cpd-chart   { animation: fadeInUp 0.5s ease 0.3s both; }
      .cpd-legend  { animation: fadeInUp 0.5s ease 0.45s both; }
    </style>

  <rect width="840" height="460" rx="12" fill="#1a1b26" stroke="#414868" stroke-width="1"/>

  <g class="cpd-header">
    <a href="https://github.com/mpge/code-per-day" target="_blank">
      <text x="24" y="44" fill="#c0caf5" font-size="18" font-family="'Segoe UI', sans-serif" font-weight="700">Code Per Day</text>
    </a>
    <text x="816" y="44" fill="#565f89" font-size="13" font-family="'Segoe UI', sans-serif" text-anchor="end" font-weight="500">@mpge</text>
  </g>

  <g class="cpd-stats">
    
    <rect x="24" y="60" width="190" height="68" rx="8" fill="#16161e" stroke="#414868" stroke-width="1"/>
    <text x="119" y="78" fill="#565f89" font-size="11" font-family="'Segoe UI', sans-serif" text-anchor="middle" font-weight="500">Today</text>
    <text x="119" y="100" fill="#9ece6a" font-size="16" font-family="'Segoe UI Mono', 'Cascadia Code', monospace" text-anchor="middle" font-weight="700">+0</text>
    <text x="119" y="118" fill="#f7768e" font-size="14" font-family="'Segoe UI Mono', 'Cascadia Code', monospace" text-anchor="middle" font-weight="600">+0</text>
    <rect x="222" y="60" width="190" height="68" rx="8" fill="#16161e" stroke="#414868" stroke-width="1"/>
    <text x="317" y="78" fill="#565f89" font-size="11" font-family="'Segoe UI', sans-serif" text-anchor="middle" font-weight="500">30d Avg</text>
    <text x="317" y="100" fill="#9ece6a" font-size="16" font-family="'Segoe UI Mono', 'Cascadia Code', monospace" text-anchor="middle" font-weight="700">+8,450</text>
    <text x="317" y="118" fill="#f7768e" font-size="14" font-family="'Segoe UI Mono', 'Cascadia Code', monospace" text-anchor="middle" font-weight="600">-898</text>
    <rect x="420" y="60" width="190" height="68" rx="8" fill="#16161e" stroke="#414868" stroke-width="1"/>
    <text x="515" y="78" fill="#565f89" font-size="11" font-family="'Segoe UI', sans-serif" text-anchor="middle" font-weight="500">Year Avg</text>
    <text x="515" y="100" fill="#9ece6a" font-size="16" font-family="'Segoe UI Mono', 'Cascadia Code', monospace" text-anchor="middle" font-weight="700">+26,147</text>
    <text x="515" y="118" fill="#f7768e" font-size="14" font-family="'Segoe UI Mono', 'Cascadia Code', monospace" text-anchor="middle" font-weight="600">-7,145</text>
    <rect x="618" y="60" width="190" height="68" rx="8" fill="#16161e" stroke="#414868" stroke-width="1"/>
    <text x="713" y="78" fill="#565f89" font-size="11" font-family="'Segoe UI', sans-serif" text-anchor="middle" font-weight="500">Streak</text>
    <text x="713" y="104" fill="#7aa2f7" font-size="20" font-family="'Segoe UI Mono', 'Cascadia Code', monospace" text-anchor="middle" font-weight="700">220</text>
    <text x="713" y="120" fill="#565f89" font-size="11" font-family="'Segoe UI', sans-serif" text-anchor="middle">days</text>
  </g>

  <g class="cpd-chart">
    <line x1="72" y1="148" x2="808" y2="148" stroke="#292e42" stroke-width="1" stroke-dasharray="4,4"/><line x1="72" y1="213.5" x2="808" y2="213.5" stroke="#292e42" stroke-width="1" stroke-dasharray="4,4"/><line x1="72" y1="279" x2="808" y2="279" stroke="#292e42" stroke-width="1" stroke-dasharray="4,4"/><line x1="72" y1="344.5" x2="808" y2="344.5" stroke="#292e42" stroke-width="1" stroke-dasharray="4,4"/><line x1="72" y1="410" x2="808" y2="410" stroke="#292e42" stroke-width="1" stroke-dasharray="4,4"/><line x1="72" y1="279" x2="808" y2="279" stroke="#414868" stroke-width="1.5"/><text x="64" y="162" fill="#565f89" font-size="10" font-family="'Segoe UI', sans-serif" text-anchor="end">+11,015</text><text x="64" y="406" fill="#565f89" font-size="10" font-family="'Segoe UI', sans-serif" text-anchor="end">-11,015</text><text x="64" y="283" fill="#565f89" font-size="10" font-family="'Segoe UI', sans-serif" text-anchor="end">0</text><path d="M 72 279 L 72 276.89087607807534 L 96.53333333333333 279 L 121.06666666666666 259.05120290512934 L 145.60000000000002 279 L 170.13333333333333 232.35760326827054 L 194.66666666666669 279 L 219.20000000000002 278.1761234679982 L 243.73333333333335 274.62796187017705 L 268.26666666666665 227.76586472991374 L 292.8 271.11275533363596 L 317.33333333333337 279 L 341.8666666666667 263.30240581025873 L 366.40000000000003 224.93172945982752 L 390.93333333333334 217.79146618247844 L 415.4666666666667 245.2650022696323 L 440 158 L 464.53333333333336 185.06709033136633 L 489.0666666666667 158 L 513.6 199.23776668179755 L 538.1333333333334 202.58819791193827 L 562.6666666666667 258.82051747616885 L 587.2 263.41225601452567 L 611.7333333333333 229.33672265093054 L 636.2666666666667 158 L 660.8000000000001 244.04566500226963 L 685.3333333333334 251.20789832047208 L 709.8666666666667 275.37494325919204 L 734.4000000000001 279 L 758.9333333333334 276.1658647299138 L 783.4666666666667 271.4093508851566 L 808 279 L 808 279 Z" fill="#9ece6a" opacity="0.15"/><path d="M 72 279 L 72 276.89087607807534 L 96.53333333333333 279 L 121.06666666666666 259.05120290512934 L 145.60000000000002 279 L 170.13333333333333 232.35760326827054 L 194.66666666666669 279 L 219.20000000000002 278.1761234679982 L 243.73333333333335 274.62796187017705 L 268.26666666666665 227.76586472991374 L 292.8 271.11275533363596 L 317.33333333333337 279 L 341.8666666666667 263.30240581025873 L 366.40000000000003 224.93172945982752 L 390.93333333333334 217.79146618247844 L 415.4666666666667 245.2650022696323 L 440 158 L 464.53333333333336 185.06709033136633 L 489.0666666666667 158 L 513.6 199.23776668179755 L 538.1333333333334 202.58819791193827 L 562.6666666666667 258.82051747616885 L 587.2 263.41225601452567 L 611.7333333333333 229.33672265093054 L 636.2666666666667 158 L 660.8000000000001 244.04566500226963 L 685.3333333333334 251.20789832047208 L 709.8666666666667 275.37494325919204 L 734.4000000000001 279 L 758.9333333333334 276.1658647299138 L 783.4666666666667 271.4093508851566 L 808 279" fill="none" stroke="#9ece6a" stroke-width="2"/><path d="M 72 279 L 72 279.65910122560143 L 96.53333333333333 279 L 121.06666666666666 279.1208352246936 L 145.60000000000002 279 L 170.13333333333333 279.9007716749887 L 194.66666666666669 279 L 219.20000000000002 279.9776668179755 L 243.73333333333335 281.3068542896051 L 268.26666666666665 328.8390376758965 L 292.8 279.32955061280074 L 317.33333333333337 279 L 341.8666666666667 282.8886972310486 L 366.40000000000003 284.6902405810259 L 390.93333333333334 289.64448479346345 L 415.4666666666667 280.2193372673627 L 440 340.9994552882433 L 464.53333333333336 288.82060826146164 L 489.0666666666667 308.4728098048116 L 513.6 291.3911030413073 L 538.1333333333334 279.746981389015 L 562.6666666666667 280.84548343168404 L 587.2 279.9447117566954 L 611.7333333333333 282.1307308216069 L 636.2666666666667 369.8900590104403 L 660.8000000000001 286.250113481616 L 685.3333333333334 286.5906491148434 L 709.8666666666667 279 L 734.4000000000001 279 L 758.9333333333334 280.669723104857 L 783.4666666666667 280.5818429414435 L 808 279 L 808 279 Z" fill="#f7768e" opacity="0.15"/><path d="M 72 279 L 72 279.65910122560143 L 96.53333333333333 279 L 121.06666666666666 279.1208352246936 L 145.60000000000002 279 L 170.13333333333333 279.9007716749887 L 194.66666666666669 279 L 219.20000000000002 279.9776668179755 L 243.73333333333335 281.3068542896051 L 268.26666666666665 328.8390376758965 L 292.8 279.32955061280074 L 317.33333333333337 279 L 341.8666666666667 282.8886972310486 L 366.40000000000003 284.6902405810259 L 390.93333333333334 289.64448479346345 L 415.4666666666667 280.2193372673627 L 440 340.9994552882433 L 464.53333333333336 288.82060826146164 L 489.0666666666667 308.4728098048116 L 513.6 291.3911030413073 L 538.1333333333334 279.746981389015 L 562.6666666666667 280.84548343168404 L 587.2 279.9447117566954 L 611.7333333333333 282.1307308216069 L 636.2666666666667 369.8900590104403 L 660.8000000000001 286.250113481616 L 685.3333333333334 286.5906491148434 L 709.8666666666667 279 L 734.4000000000001 279 L 758.9333333333334 280.669723104857 L 783.4666666666667 280.5818429414435 L 808 279" fill="none" stroke="#f7768e" stroke-width="2"/><text x="72" y="426" fill="#565f89" font-size="10" font-family="'Segoe UI', sans-serif" text-anchor="middle">Jun 6</text><text x="194.66666666666669" y="426" fill="#565f89" font-size="10" font-family="'Segoe UI', sans-serif" text-anchor="middle">Jun 11</text><text x="317.33333333333337" y="426" fill="#565f89" font-size="10" font-family="'Segoe UI', sans-serif" text-anchor="middle">Jun 16</text><text x="440" y="426" fill="#565f89" font-size="10" font-family="'Segoe UI', sans-serif" text-anchor="middle">Jun 21</text><text x="562.6666666666667" y="426" fill="#565f89" font-size="10" font-family="'Segoe UI', sans-serif" text-anchor="middle">Jun 26</text><text x="685.3333333333334" y="426" fill="#565f89" font-size="10" font-family="'Segoe UI', sans-serif" text-anchor="middle">Jul 1</text><text x="808" y="426" fill="#565f89" font-size="10" font-family="'Segoe UI', sans-serif" text-anchor="middle">Jul 6</text>
  </g>

  <g class="cpd-legend">
    
    <circle cx="30" cy="442" r="5" fill="#9ece6a"/>
    <text x="40" y="446" fill="#a9b1d6" font-size="11" font-family="'Segoe UI', sans-serif">Additions</text>
    <circle cx="124" cy="442" r="5" fill="#f7768e"/>
    <text x="134" y="446" fill="#a9b1d6" font-size="11" font-family="'Segoe UI', sans-serif">Deletions</text>
    <text x="816" y="446" fill="#565f89" font-size="10" font-family="'Segoe UI', sans-serif" text-anchor="end">Last 31 days · +261,954 / -27,848 lines</text>
  </g>

  <a href="https://github.com/mpge/code-per-day" target="_blank">
    <text x="420" y="452" fill="#565f89" font-size="10" font-family="'Segoe UI', sans-serif" text-anchor="middle" opacity="0.6">Get your own - github.com/mpge/code-per-day</text>
  </a>
</svg>