<svg width="840" height="460" viewBox="0 0 840 460" xmlns="http://www.w3.org/2000/svg">
  
    <style>
      @keyframes fadeInUp {
        from { opacity: 0; transform: translateY(12px); }
        to   { opacity: 1; transform: translateY(0); }
      }
      @keyframes growBar {
        from { transform: scaleY(0); }
        to   { transform: scaleY(1); }
      }
      .cpd-header  { animation: fadeInUp 0.5s ease both; }
      .cpd-stats   { animation: fadeInUp 0.5s ease 0.15s both; }
      .cpd-chart   { animation: fadeInUp 0.5s ease 0.3s both; }
      .cpd-legend  { animation: fadeInUp 0.5s ease 0.45s both; }
    </style>

  <rect width="840" height="460" rx="12" fill="transparent" />

  <g class="cpd-header">
    <a href="https://github.com/mpge/code-per-day" target="_blank">
      <text x="24" y="44" fill="#e6edf3" font-size="18" font-family="'Segoe UI', sans-serif" font-weight="700">Code Per Day</text>
    </a>
    <text x="816" y="44" fill="#6e7681" font-size="13" font-family="'Segoe UI', sans-serif" text-anchor="end" font-weight="500">@mpge</text>
  </g>

  <g class="cpd-stats">
    
    <rect x="24" y="60" width="190" height="68" rx="8" fill="rgba(13,17,23,0.6)" stroke="#30363d" stroke-width="1"/>
    <text x="119" y="78" fill="#6e7681" font-size="11" font-family="'Segoe UI', sans-serif" text-anchor="middle" font-weight="500">Today</text>
    <text x="119" y="100" fill="#3fb950" font-size="16" font-family="'Segoe UI Mono', 'Cascadia Code', monospace" text-anchor="middle" font-weight="700">+4,224</text>
    <text x="119" y="118" fill="#f85149" font-size="14" font-family="'Segoe UI Mono', 'Cascadia Code', monospace" text-anchor="middle" font-weight="600">-1,361</text>
    <rect x="222" y="60" width="190" height="68" rx="8" fill="rgba(13,17,23,0.6)" stroke="#30363d" stroke-width="1"/>
    <text x="317" y="78" fill="#6e7681" font-size="11" font-family="'Segoe UI', sans-serif" text-anchor="middle" font-weight="500">30d Avg</text>
    <text x="317" y="100" fill="#3fb950" font-size="16" font-family="'Segoe UI Mono', 'Cascadia Code', monospace" text-anchor="middle" font-weight="700">+37,623</text>
    <text x="317" y="118" fill="#f85149" font-size="14" font-family="'Segoe UI Mono', 'Cascadia Code', monospace" text-anchor="middle" font-weight="600">-5,156</text>
    <rect x="420" y="60" width="190" height="68" rx="8" fill="rgba(13,17,23,0.6)" stroke="#30363d" stroke-width="1"/>
    <text x="515" y="78" fill="#6e7681" font-size="11" font-family="'Segoe UI', sans-serif" text-anchor="middle" font-weight="500">Year Avg</text>
    <text x="515" y="100" fill="#3fb950" font-size="16" font-family="'Segoe UI Mono', 'Cascadia Code', monospace" text-anchor="middle" font-weight="700">+25,003</text>
    <text x="515" y="118" fill="#f85149" font-size="14" font-family="'Segoe UI Mono', 'Cascadia Code', monospace" text-anchor="middle" font-weight="600">-6,784</text>
    <rect x="618" y="60" width="190" height="68" rx="8" fill="rgba(13,17,23,0.6)" stroke="#30363d" stroke-width="1"/>
    <text x="713" y="78" fill="#6e7681" font-size="11" font-family="'Segoe UI', sans-serif" text-anchor="middle" font-weight="500">Streak</text>
    <text x="713" y="104" fill="#58a6ff" font-size="20" font-family="'Segoe UI Mono', 'Cascadia Code', monospace" text-anchor="middle" font-weight="700">180</text>
    <text x="713" y="120" fill="#6e7681" font-size="11" font-family="'Segoe UI', sans-serif" text-anchor="middle">days</text>
  </g>

  <g class="cpd-chart">
    <line x1="72" y1="148" x2="808" y2="148" stroke="rgba(33,38,45,0.6)" stroke-width="1" stroke-dasharray="4,4"/><line x1="72" y1="213.5" x2="808" y2="213.5" stroke="rgba(33,38,45,0.6)" stroke-width="1" stroke-dasharray="4,4"/><line x1="72" y1="279" x2="808" y2="279" stroke="rgba(33,38,45,0.6)" stroke-width="1" stroke-dasharray="4,4"/><line x1="72" y1="344.5" x2="808" y2="344.5" stroke="rgba(33,38,45,0.6)" stroke-width="1" stroke-dasharray="4,4"/><line x1="72" y1="410" x2="808" y2="410" stroke="rgba(33,38,45,0.6)" stroke-width="1" stroke-dasharray="4,4"/><line x1="72" y1="279" x2="808" y2="279" stroke="#30363d" stroke-width="1.5"/><text x="64" y="162" fill="#6e7681" font-size="10" font-family="'Segoe UI', sans-serif" text-anchor="end">+29,808</text><text x="64" y="406" fill="#6e7681" font-size="10" font-family="'Segoe UI', sans-serif" text-anchor="end">-29,808</text><text x="64" y="283" fill="#6e7681" font-size="10" font-family="'Segoe UI', sans-serif" text-anchor="end">0</text><path d="M 72 279 L 72 166.9873188405797 L 96.53333333333333 158 L 121.06666666666666 232.7969001610306 L 145.60000000000002 268.66904857756305 L 170.13333333333333 222.6039653784219 L 194.66666666666669 243.99654455179817 L 219.20000000000002 158 L 243.73333333333335 254.19759796027913 L 268.26666666666665 265.32417471819645 L 292.8 187.76694176060118 L 317.33333333333337 246.13986178207193 L 341.8666666666667 204.14626945786367 L 366.40000000000003 158 L 390.93333333333334 273.71071524422973 L 415.4666666666667 230.46279522275898 L 440 217.79367954911433 L 464.53333333333336 265.12120907139024 L 489.0666666666667 243.63120638754697 L 513.6 262.5191894793344 L 538.1333333333334 259.4381709608159 L 562.6666666666667 277.0840042941492 L 587.2 158 L 611.7333333333333 158 L 636.2666666666667 158 L 660.8000000000001 189.51650563607086 L 685.3333333333334 276.5968867418143 L 709.8666666666667 259.79539049919487 L 734.4000000000001 227.42642914653783 L 758.9333333333334 225.28717122920023 L 783.4666666666667 259.82786500268384 L 808 261.85346215781 L 808 279 Z" fill="#3fb950" opacity="0.15"/><path d="M 72 279 L 72 166.9873188405797 L 96.53333333333333 158 L 121.06666666666666 232.7969001610306 L 145.60000000000002 268.66904857756305 L 170.13333333333333 222.6039653784219 L 194.66666666666669 243.99654455179817 L 219.20000000000002 158 L 243.73333333333335 254.19759796027913 L 268.26666666666665 265.32417471819645 L 292.8 187.76694176060118 L 317.33333333333337 246.13986178207193 L 341.8666666666667 204.14626945786367 L 366.40000000000003 158 L 390.93333333333334 273.71071524422973 L 415.4666666666667 230.46279522275898 L 440 217.79367954911433 L 464.53333333333336 265.12120907139024 L 489.0666666666667 243.63120638754697 L 513.6 262.5191894793344 L 538.1333333333334 259.4381709608159 L 562.6666666666667 277.0840042941492 L 587.2 158 L 611.7333333333333 158 L 636.2666666666667 158 L 660.8000000000001 189.51650563607086 L 685.3333333333334 276.5968867418143 L 709.8666666666667 259.79539049919487 L 734.4000000000001 227.42642914653783 L 758.9333333333334 225.28717122920023 L 783.4666666666667 259.82786500268384 L 808 261.85346215781" fill="none" stroke="#3fb950" stroke-width="2"/><path d="M 72 279 L 72 284.0416666666667 L 96.53333333333333 282.5924919484702 L 121.06666666666666 300.44940955448203 L 145.60000000000002 281.1960882984434 L 170.13333333333333 297.90827965646804 L 194.66666666666669 285.5070786366076 L 219.20000000000002 312.11993424584006 L 243.73333333333335 290.5690418679549 L 268.26666666666665 284.17562399355876 L 292.8 286.50161030595814 L 317.33333333333337 282.162204777241 L 341.8666666666667 297.8514492753623 L 366.40000000000003 400 L 390.93333333333334 281.0946054750403 L 415.4666666666667 283.40841384863126 L 440 290.22805958132045 L 464.53333333333336 279.389694041868 L 489.0666666666667 292.4931561996779 L 513.6 282.9212962962963 L 538.1333333333334 281.151435856146 L 562.6666666666667 279.39375335480406 L 587.2 284.2933440687064 L 611.7333333333333 289.72876409017715 L 636.2666666666667 400 L 660.8000000000001 314.36067498658076 L 685.3333333333334 280.5912506709608 L 709.8666666666667 293.78401771336553 L 734.4000000000001 301.0867216854536 L 758.9333333333334 295.0018115942029 L 783.4666666666667 282.47071256038646 L 808 284.5247249060655 L 808 279 Z" fill="#f85149" opacity="0.15"/><path d="M 72 279 L 72 284.0416666666667 L 96.53333333333333 282.5924919484702 L 121.06666666666666 300.44940955448203 L 145.60000000000002 281.1960882984434 L 170.13333333333333 297.90827965646804 L 194.66666666666669 285.5070786366076 L 219.20000000000002 312.11993424584006 L 243.73333333333335 290.5690418679549 L 268.26666666666665 284.17562399355876 L 292.8 286.50161030595814 L 317.33333333333337 282.162204777241 L 341.8666666666667 297.8514492753623 L 366.40000000000003 400 L 390.93333333333334 281.0946054750403 L 415.4666666666667 283.40841384863126 L 440 290.22805958132045 L 464.53333333333336 279.389694041868 L 489.0666666666667 292.4931561996779 L 513.6 282.9212962962963 L 538.1333333333334 281.151435856146 L 562.6666666666667 279.39375335480406 L 587.2 284.2933440687064 L 611.7333333333333 289.72876409017715 L 636.2666666666667 400 L 660.8000000000001 314.36067498658076 L 685.3333333333334 280.5912506709608 L 709.8666666666667 293.78401771336553 L 734.4000000000001 301.0867216854536 L 758.9333333333334 295.0018115942029 L 783.4666666666667 282.47071256038646 L 808 284.5247249060655" fill="none" stroke="#f85149" stroke-width="2"/><text x="72" y="426" fill="#6e7681" font-size="10" font-family="'Segoe UI', sans-serif" text-anchor="middle">Apr 26</text><text x="194.66666666666669" y="426" fill="#6e7681" font-size="10" font-family="'Segoe UI', sans-serif" text-anchor="middle">May 1</text><text x="317.33333333333337" y="426" fill="#6e7681" font-size="10" font-family="'Segoe UI', sans-serif" text-anchor="middle">May 6</text><text x="440" y="426" fill="#6e7681" font-size="10" font-family="'Segoe UI', sans-serif" text-anchor="middle">May 11</text><text x="562.6666666666667" y="426" fill="#6e7681" font-size="10" font-family="'Segoe UI', sans-serif" text-anchor="middle">May 16</text><text x="685.3333333333334" y="426" fill="#6e7681" font-size="10" font-family="'Segoe UI', sans-serif" text-anchor="middle">May 21</text><text x="808" y="426" fill="#6e7681" font-size="10" font-family="'Segoe UI', sans-serif" text-anchor="middle">May 26</text>
  </g>

  <g class="cpd-legend">
    
    <circle cx="30" cy="442" r="5" fill="#3fb950"/>
    <text x="40" y="446" fill="#8b949e" font-size="11" font-family="'Segoe UI', sans-serif">Additions</text>
    <circle cx="124" cy="442" r="5" fill="#f85149"/>
    <text x="134" y="446" fill="#8b949e" font-size="11" font-family="'Segoe UI', sans-serif">Deletions</text>
    <text x="816" y="446" fill="#6e7681" font-size="10" font-family="'Segoe UI', sans-serif" text-anchor="end">Last 31 days · +1,166,327 / -159,837 lines</text>
  </g>

  <a href="https://github.com/mpge/code-per-day" target="_blank">
    <text x="420" y="452" fill="#6e7681" font-size="10" font-family="'Segoe UI', sans-serif" text-anchor="middle" opacity="0.6">Get your own - github.com/mpge/code-per-day</text>
  </a>
</svg>