<svg width="840" height="460" viewBox="0 0 840 460" xmlns="http://www.w3.org/2000/svg">
  
    <style>
      @keyframes fadeInUp {
        from { opacity: 0; transform: translateY(12px); }
        to   { opacity: 1; transform: translateY(0); }
      }
      @keyframes growBar {
        from { transform: scaleY(0); }
        to   { transform: scaleY(1); }
      }
      .cpd-header  { animation: fadeInUp 0.5s ease both; }
      .cpd-stats   { animation: fadeInUp 0.5s ease 0.15s both; }
      .cpd-chart   { animation: fadeInUp 0.5s ease 0.3s both; }
      .cpd-legend  { animation: fadeInUp 0.5s ease 0.45s both; }
    </style>

  <!-- Background -->
  <rect width="840" height="460" rx="12" fill="#1a1b26" stroke="#414868" stroke-width="1"/>

  <!-- Header -->
  <g class="cpd-header">
    <a href="https://github.com/mpge/code-per-day" target="_blank">
      <text x="24" y="44" fill="#c0caf5" font-size="18" font-family="'Segoe UI', sans-serif" font-weight="700">Code Per Day</text>
    </a>
    <text x="816" y="44" fill="#565f89" font-size="13" font-family="'Segoe UI', sans-serif" text-anchor="end" font-weight="500">@mpge</text>
  </g>

  <!-- Stats Cards -->
  <g class="cpd-stats">
    
    <rect x="24" y="60" width="190" height="68" rx="8" fill="#16161e" stroke="#414868" stroke-width="1"/>
    <text x="119" y="78" fill="#565f89" font-size="11" font-family="'Segoe UI', sans-serif" text-anchor="middle" font-weight="500">Today</text>
    <text x="119" y="100" fill="#9ece6a" font-size="16" font-family="'Segoe UI Mono', 'Cascadia Code', monospace" text-anchor="middle" font-weight="700">+10,431</text>
    <text x="119" y="118" fill="#f7768e" font-size="14" font-family="'Segoe UI Mono', 'Cascadia Code', monospace" text-anchor="middle" font-weight="600">-3,738</text>
    <rect x="222" y="60" width="190" height="68" rx="8" fill="#16161e" stroke="#414868" stroke-width="1"/>
    <text x="317" y="78" fill="#565f89" font-size="11" font-family="'Segoe UI', sans-serif" text-anchor="middle" font-weight="500">30d Avg</text>
    <text x="317" y="100" fill="#9ece6a" font-size="16" font-family="'Segoe UI Mono', 'Cascadia Code', monospace" text-anchor="middle" font-weight="700">+215,824</text>
    <text x="317" y="118" fill="#f7768e" font-size="14" font-family="'Segoe UI Mono', 'Cascadia Code', monospace" text-anchor="middle" font-weight="600">-56,977</text>
    <rect x="420" y="60" width="190" height="68" rx="8" fill="#16161e" stroke="#414868" stroke-width="1"/>
    <text x="515" y="78" fill="#565f89" font-size="11" font-family="'Segoe UI', sans-serif" text-anchor="middle" font-weight="500">Year Avg</text>
    <text x="515" y="100" fill="#9ece6a" font-size="16" font-family="'Segoe UI Mono', 'Cascadia Code', monospace" text-anchor="middle" font-weight="700">+22,271</text>
    <text x="515" y="118" fill="#f7768e" font-size="14" font-family="'Segoe UI Mono', 'Cascadia Code', monospace" text-anchor="middle" font-weight="600">-6,410</text>
        <rect x="618" y="60" width="190" height="68" rx="8" fill="#16161e" stroke="#414868" stroke-width="1"/>
        <text x="713" y="78" fill="#565f89" font-size="11" font-family="'Segoe UI', sans-serif" text-anchor="middle" font-weight="500">Streak</text>
        <text x="713" y="104" fill="#7aa2f7" font-size="20" font-family="'Segoe UI Mono', 'Cascadia Code', monospace" text-anchor="middle" font-weight="700">154</text>
        <text x="713" y="120" fill="#565f89" font-size="11" font-family="'Segoe UI', sans-serif" text-anchor="middle">days</text>
  </g>

  <!-- Chart -->
  <g class="cpd-chart">
    <line x1="72" y1="148" x2="808" y2="148" stroke="#292e42" stroke-width="1" stroke-dasharray="4,4"/><line x1="72" y1="213.5" x2="808" y2="213.5" stroke="#292e42" stroke-width="1" stroke-dasharray="4,4"/><line x1="72" y1="279" x2="808" y2="279" stroke="#292e42" stroke-width="1" stroke-dasharray="4,4"/><line x1="72" y1="344.5" x2="808" y2="344.5" stroke="#292e42" stroke-width="1" stroke-dasharray="4,4"/><line x1="72" y1="410" x2="808" y2="410" stroke="#292e42" stroke-width="1" stroke-dasharray="4,4"/><line x1="72" y1="279" x2="808" y2="279" stroke="#414868" stroke-width="1.5"/><text x="64" y="162" fill="#565f89" font-size="10" font-family="'Segoe UI', sans-serif" text-anchor="end">+43,783</text><text x="64" y="406" fill="#565f89" font-size="10" font-family="'Segoe UI', sans-serif" text-anchor="end">-43,783</text><text x="64" y="283" fill="#565f89" font-size="10" font-family="'Segoe UI', sans-serif" text-anchor="end">0</text><path d="M 72 279 L 72 279 L 96.53333333333333 274.86008268049244 L 121.06666666666666 279 L 145.60000000000002 279 L 170.13333333333333 228.97277482127765 L 194.66666666666669 158 L 219.20000000000002 158 L 243.73333333333335 173.4431628714341 L 268.26666666666665 158 L 292.8 158 L 317.33333333333337 243.90466619464175 L 341.8666666666667 260.94244341411047 L 366.40000000000003 158 L 390.93333333333334 257.2253614416554 L 415.4666666666667 278.86734577347374 L 440 279 L 464.53333333333336 278.85352762487724 L 489.0666666666667 279 L 513.6 264.7645433158989 L 538.1333333333334 239.06555055615195 L 562.6666666666667 259.5468104058653 L 587.2 266.16846721330194 L 611.7333333333333 278.9861818514035 L 636.2666666666667 207.32249960030148 L 660.8000000000001 158 L 685.3333333333334 272.85645113400176 L 709.8666666666667 202.74040152570632 L 734.4000000000001 165.61103624694516 L 758.9333333333334 247.54436653495648 L 783.4666666666667 271.966562364388 L 808 250.17257839800837 L 808 279 Z" fill="#9ece6a" opacity="0.15"/><path d="M 72 279 L 72 279 L 96.53333333333333 274.86008268049244 L 121.06666666666666 279 L 145.60000000000002 279 L 170.13333333333333 228.97277482127765 L 194.66666666666669 158 L 219.20000000000002 158 L 243.73333333333335 173.4431628714341 L 268.26666666666665 158 L 292.8 158 L 317.33333333333337 243.90466619464175 L 341.8666666666667 260.94244341411047 L 366.40000000000003 158 L 390.93333333333334 257.2253614416554 L 415.4666666666667 278.86734577347374 L 440 279 L 464.53333333333336 278.85352762487724 L 489.0666666666667 279 L 513.6 264.7645433158989 L 538.1333333333334 239.06555055615195 L 562.6666666666667 259.5468104058653 L 587.2 266.16846721330194 L 611.7333333333333 278.9861818514035 L 636.2666666666667 207.32249960030148 L 660.8000000000001 158 L 685.3333333333334 272.85645113400176 L 709.8666666666667 202.74040152570632 L 734.4000000000001 165.61103624694516 L 758.9333333333334 247.54436653495648 L 783.4666666666667 271.966562364388 L 808 250.17257839800837" fill="none" stroke="#9ece6a" stroke-width="2"/><path d="M 72 279 L 72 279 L 96.53333333333333 280.57250531028023 L 121.06666666666666 279 L 145.60000000000002 279 L 170.13333333333333 279.1105451887719 L 194.66666666666669 400 L 219.20000000000002 298.5029349290821 L 243.73333333333335 328.7674439851084 L 268.26666666666665 290.60448119132997 L 292.8 313.1778087385515 L 317.33333333333337 284.73453166754217 L 341.8666666666667 284.6184592193317 L 366.40000000000003 281.5867574172624 L 390.93333333333334 279.81250713747346 L 415.4666666666667 292.44229495466277 L 440 279 L 464.53333333333336 279.1243633373684 L 489.0666666666667 279 L 513.6 279.3150537879999 L 538.1333333333334 281.2799945184204 L 562.6666666666667 284.5134412899984 L 587.2 279.17134504259644 L 611.7333333333333 279 L 636.2666666666667 280.5255236050522 L 660.8000000000001 292.6385126647329 L 685.3333333333334 279.2293812667017 L 709.8666666666667 282.4324281113674 L 734.4000000000001 281.44581230157826 L 758.9333333333334 293.6030194367677 L 783.4666666666667 280.4951236781399 L 808 289.33044789073386 L 808 279 Z" fill="#f7768e" opacity="0.15"/><path d="M 72 279 L 72 279 L 96.53333333333333 280.57250531028023 L 121.06666666666666 279 L 145.60000000000002 279 L 170.13333333333333 279.1105451887719 L 194.66666666666669 400 L 219.20000000000002 298.5029349290821 L 243.73333333333335 328.7674439851084 L 268.26666666666665 290.60448119132997 L 292.8 313.1778087385515 L 317.33333333333337 284.73453166754217 L 341.8666666666667 284.6184592193317 L 366.40000000000003 281.5867574172624 L 390.93333333333334 279.81250713747346 L 415.4666666666667 292.44229495466277 L 440 279 L 464.53333333333336 279.1243633373684 L 489.0666666666667 279 L 513.6 279.3150537879999 L 538.1333333333334 281.2799945184204 L 562.6666666666667 284.5134412899984 L 587.2 279.17134504259644 L 611.7333333333333 279 L 636.2666666666667 280.5255236050522 L 660.8000000000001 292.6385126647329 L 685.3333333333334 279.2293812667017 L 709.8666666666667 282.4324281113674 L 734.4000000000001 281.44581230157826 L 758.9333333333334 293.6030194367677 L 783.4666666666667 280.4951236781399 L 808 289.33044789073386" fill="none" stroke="#f7768e" stroke-width="2"/><text x="72" y="426" fill="#565f89" font-size="10" font-family="'Segoe UI', sans-serif" text-anchor="middle">Mar 31</text><text x="194.66666666666669" y="426" fill="#565f89" font-size="10" font-family="'Segoe UI', sans-serif" text-anchor="middle">Apr 5</text><text x="317.33333333333337" y="426" fill="#565f89" font-size="10" font-family="'Segoe UI', sans-serif" text-anchor="middle">Apr 10</text><text x="440" y="426" fill="#565f89" font-size="10" font-family="'Segoe UI', sans-serif" text-anchor="middle">Apr 15</text><text x="562.6666666666667" y="426" fill="#565f89" font-size="10" font-family="'Segoe UI', sans-serif" text-anchor="middle">Apr 20</text><text x="685.3333333333334" y="426" fill="#565f89" font-size="10" font-family="'Segoe UI', sans-serif" text-anchor="middle">Apr 25</text><text x="808" y="426" fill="#565f89" font-size="10" font-family="'Segoe UI', sans-serif" text-anchor="middle">Apr 30</text>
  </g>

  <!-- Legend -->
  <g class="cpd-legend">
    <circle cx="30" cy="442" r="5" fill="#9ece6a"/>
    <text x="40" y="446" fill="#a9b1d6" font-size="11" font-family="'Segoe UI', sans-serif">Additions</text>
    <circle cx="124" cy="442" r="5" fill="#f7768e"/>
    <text x="134" y="446" fill="#a9b1d6" font-size="11" font-family="'Segoe UI', sans-serif">Deletions</text>
    <text x="816" y="446" fill="#565f89" font-size="10" font-family="'Segoe UI', sans-serif" text-anchor="end">Last 31 days · +6,690,546 / -1,766,276 lines</text>
  </g>

  <!-- Get your own -->
  <a href="https://github.com/mpge/code-per-day" target="_blank">
    <text x="420" y="452" fill="#565f89" font-size="10" font-family="'Segoe UI', sans-serif" text-anchor="middle" opacity="0.6">Get your own — github.com/mpge/code-per-day</text>
  </a>
</svg>