<svg width="840" height="460" viewBox="0 0 840 460" xmlns="http://www.w3.org/2000/svg">
  
    <style>
      @keyframes fadeInUp {
        from { opacity: 0; transform: translateY(12px); }
        to   { opacity: 1; transform: translateY(0); }
      }
      @keyframes growBar {
        from { transform: scaleY(0); }
        to   { transform: scaleY(1); }
      }
      .cpd-header  { animation: fadeInUp 0.5s ease both; }
      .cpd-stats   { animation: fadeInUp 0.5s ease 0.15s both; }
      .cpd-chart   { animation: fadeInUp 0.5s ease 0.3s both; }
      .cpd-legend  { animation: fadeInUp 0.5s ease 0.45s both; }
    </style>

  <!-- Background -->
  <rect width="840" height="460" rx="12" fill="#1a1028" stroke="#3d2660" stroke-width="1"/>

  <!-- Header -->
  <g class="cpd-header">
    <a href="https://github.com/mpge/code-per-day" target="_blank">
      <text x="24" y="44" fill="#f0d0ff" font-size="18" font-family="'Segoe UI', sans-serif" font-weight="700">Code Per Day</text>
    </a>
    <text x="816" y="44" fill="#7a5a8e" font-size="13" font-family="'Segoe UI', sans-serif" text-anchor="end" font-weight="500">@mpge</text>
  </g>

  <!-- Stats Cards -->
  <g class="cpd-stats">
    
    <rect x="24" y="60" width="190" height="68" rx="8" fill="#160e22" stroke="#3d2660" stroke-width="1"/>
    <text x="119" y="78" fill="#7a5a8e" font-size="11" font-family="'Segoe UI', sans-serif" text-anchor="middle" font-weight="500">Today</text>
    <text x="119" y="100" fill="#ffb86c" font-size="16" font-family="'Segoe UI Mono', 'Cascadia Code', monospace" text-anchor="middle" font-weight="700">+41,029</text>
    <text x="119" y="118" fill="#ff79c6" font-size="14" font-family="'Segoe UI Mono', 'Cascadia Code', monospace" text-anchor="middle" font-weight="600">-885</text>
    <rect x="222" y="60" width="190" height="68" rx="8" fill="#160e22" stroke="#3d2660" stroke-width="1"/>
    <text x="317" y="78" fill="#7a5a8e" font-size="11" font-family="'Segoe UI', sans-serif" text-anchor="middle" font-weight="500">30d Avg</text>
    <text x="317" y="100" fill="#ffb86c" font-size="16" font-family="'Segoe UI Mono', 'Cascadia Code', monospace" text-anchor="middle" font-weight="700">+215,239</text>
    <text x="317" y="118" fill="#ff79c6" font-size="14" font-family="'Segoe UI Mono', 'Cascadia Code', monospace" text-anchor="middle" font-weight="600">-56,673</text>
    <rect x="420" y="60" width="190" height="68" rx="8" fill="#160e22" stroke="#3d2660" stroke-width="1"/>
    <text x="515" y="78" fill="#7a5a8e" font-size="11" font-family="'Segoe UI', sans-serif" text-anchor="middle" font-weight="500">Year Avg</text>
    <text x="515" y="100" fill="#ffb86c" font-size="16" font-family="'Segoe UI Mono', 'Cascadia Code', monospace" text-anchor="middle" font-weight="700">+22,166</text>
    <text x="515" y="118" fill="#ff79c6" font-size="14" font-family="'Segoe UI Mono', 'Cascadia Code', monospace" text-anchor="middle" font-weight="600">-6,381</text>
        <rect x="618" y="60" width="190" height="68" rx="8" fill="#160e22" stroke="#3d2660" stroke-width="1"/>
        <text x="713" y="78" fill="#7a5a8e" font-size="11" font-family="'Segoe UI', sans-serif" text-anchor="middle" font-weight="500">Streak</text>
        <text x="713" y="104" fill="#ff79c6" font-size="20" font-family="'Segoe UI Mono', 'Cascadia Code', monospace" text-anchor="middle" font-weight="700">151</text>
        <text x="713" y="120" fill="#7a5a8e" font-size="11" font-family="'Segoe UI', sans-serif" text-anchor="middle">days</text>
  </g>

  <!-- Chart -->
  <g class="cpd-chart">
    <line x1="72" y1="148" x2="808" y2="148" stroke="#2d1c44" stroke-width="1" stroke-dasharray="4,4"/><line x1="72" y1="213.5" x2="808" y2="213.5" stroke="#2d1c44" stroke-width="1" stroke-dasharray="4,4"/><line x1="72" y1="279" x2="808" y2="279" stroke="#2d1c44" stroke-width="1" stroke-dasharray="4,4"/><line x1="72" y1="344.5" x2="808" y2="344.5" stroke="#2d1c44" stroke-width="1" stroke-dasharray="4,4"/><line x1="72" y1="410" x2="808" y2="410" stroke="#2d1c44" stroke-width="1" stroke-dasharray="4,4"/><line x1="72" y1="279" x2="808" y2="279" stroke="#3d2660" stroke-width="1.5"/><text x="64" y="162" fill="#7a5a8e" font-size="10" font-family="'Segoe UI', sans-serif" text-anchor="end">+44,391</text><text x="64" y="406" fill="#7a5a8e" font-size="10" font-family="'Segoe UI', sans-serif" text-anchor="end">-44,391</text><text x="64" y="283" fill="#7a5a8e" font-size="10" font-family="'Segoe UI', sans-serif" text-anchor="end">0</text><path d="M 72 279 L 72 279 L 96.53333333333333 256.14707936293394 L 121.06666666666666 277.4299520173008 L 145.60000000000002 279 L 170.13333333333333 274.916784933883 L 194.66666666666669 279 L 219.20000000000002 279 L 243.73333333333335 229.65797121038048 L 268.26666666666665 158 L 292.8 158 L 317.33333333333337 174.88891892500732 L 341.8666666666667 158 L 366.40000000000003 158 L 390.93333333333334 244.38534838142868 L 415.4666666666667 261.189768196256 L 440 158 L 464.53333333333336 257.52359712554346 L 489.0666666666667 278.8691626681084 L 513.6 279 L 538.1333333333334 278.8555337793697 L 562.6666666666667 279 L 587.2 264.9595188213827 L 611.7333333333333 239.61251154513303 L 636.2666666666667 259.81325043364643 L 660.8000000000001 266.3442139172355 L 685.3333333333334 278.9863711112613 L 709.8666666666667 208.30422833457231 L 734.4000000000001 158 L 758.9333333333334 272.9405960667703 L 783.4666666666667 203.78488882881663 L 808 167.16406478790748 L 808 279 Z" fill="#ffb86c" opacity="0.15"/><path d="M 72 279 L 72 279 L 96.53333333333333 256.14707936293394 L 121.06666666666666 277.4299520173008 L 145.60000000000002 279 L 170.13333333333333 274.916784933883 L 194.66666666666669 279 L 219.20000000000002 279 L 243.73333333333335 229.65797121038048 L 268.26666666666665 158 L 292.8 158 L 317.33333333333337 174.88891892500732 L 341.8666666666667 158 L 366.40000000000003 158 L 390.93333333333334 244.38534838142868 L 415.4666666666667 261.189768196256 L 440 158 L 464.53333333333336 257.52359712554346 L 489.0666666666667 278.8691626681084 L 513.6 279 L 538.1333333333334 278.8555337793697 L 562.6666666666667 279 L 587.2 264.9595188213827 L 611.7333333333333 239.61251154513303 L 636.2666666666667 259.81325043364643 L 660.8000000000001 266.3442139172355 L 685.3333333333334 278.9863711112613 L 709.8666666666667 208.30422833457231 L 734.4000000000001 158 L 758.9333333333334 272.9405960667703 L 783.4666666666667 203.78488882881663 L 808 167.16406478790748" fill="none" stroke="#ffb86c" stroke-width="2"/><path d="M 72 279 L 72 279 L 96.53333333333333 279.4633822171161 L 121.06666666666666 279 L 145.60000000000002 279 L 170.13333333333333 280.550967538465 L 194.66666666666669 279 L 219.20000000000002 279 L 243.73333333333335 279.10903110990967 L 268.26666666666665 400 L 292.8 298.2358135658129 L 317.33333333333337 328.0858056813318 L 341.8666666666667 290.4455407627672 L 366.40000000000003 312.64700051812304 L 390.93333333333334 284.65598882656394 L 415.4666666666667 284.5415061611588 L 440 281.55132797188617 L 464.53333333333336 279.80137865783604 L 489.0666666666667 292.2581829650154 L 513.6 279 L 538.1333333333334 279.1226599986484 L 562.6666666666667 279 L 587.2 279.31073866324255 L 611.7333333333333 281.24876664188685 L 636.2666666666667 284.4379266067446 L 660.8000000000001 279.16899822036 L 685.3333333333334 279 L 709.8666666666667 280.5046293167534 L 734.4000000000001 292.45171318510506 L 758.9333333333334 279.22623955306256 L 783.4666666666667 282.38541596269516 L 808 281.41231330675134 L 808 279 Z" fill="#ff79c6" opacity="0.15"/><path d="M 72 279 L 72 279 L 96.53333333333333 279.4633822171161 L 121.06666666666666 279 L 145.60000000000002 279 L 170.13333333333333 280.550967538465 L 194.66666666666669 279 L 219.20000000000002 279 L 243.73333333333335 279.10903110990967 L 268.26666666666665 400 L 292.8 298.2358135658129 L 317.33333333333337 328.0858056813318 L 341.8666666666667 290.4455407627672 L 366.40000000000003 312.64700051812304 L 390.93333333333334 284.65598882656394 L 415.4666666666667 284.5415061611588 L 440 281.55132797188617 L 464.53333333333336 279.80137865783604 L 489.0666666666667 292.2581829650154 L 513.6 279 L 538.1333333333334 279.1226599986484 L 562.6666666666667 279 L 587.2 279.31073866324255 L 611.7333333333333 281.24876664188685 L 636.2666666666667 284.4379266067446 L 660.8000000000001 279.16899822036 L 685.3333333333334 279 L 709.8666666666667 280.5046293167534 L 734.4000000000001 292.45171318510506 L 758.9333333333334 279.22623955306256 L 783.4666666666667 282.38541596269516 L 808 281.41231330675134" fill="none" stroke="#ff79c6" stroke-width="2"/><text x="72" y="426" fill="#7a5a8e" font-size="10" font-family="'Segoe UI', sans-serif" text-anchor="middle">Mar 28</text><text x="194.66666666666669" y="426" fill="#7a5a8e" font-size="10" font-family="'Segoe UI', sans-serif" text-anchor="middle">Apr 2</text><text x="317.33333333333337" y="426" fill="#7a5a8e" font-size="10" font-family="'Segoe UI', sans-serif" text-anchor="middle">Apr 7</text><text x="440" y="426" fill="#7a5a8e" font-size="10" font-family="'Segoe UI', sans-serif" text-anchor="middle">Apr 12</text><text x="562.6666666666667" y="426" fill="#7a5a8e" font-size="10" font-family="'Segoe UI', sans-serif" text-anchor="middle">Apr 17</text><text x="685.3333333333334" y="426" fill="#7a5a8e" font-size="10" font-family="'Segoe UI', sans-serif" text-anchor="middle">Apr 22</text><text x="808" y="426" fill="#7a5a8e" font-size="10" font-family="'Segoe UI', sans-serif" text-anchor="middle">Apr 27</text>
  </g>

  <!-- Legend -->
  <g class="cpd-legend">
    <circle cx="30" cy="442" r="5" fill="#ffb86c"/>
    <text x="40" y="446" fill="#c4a0d8" font-size="11" font-family="'Segoe UI', sans-serif">Additions</text>
    <circle cx="124" cy="442" r="5" fill="#ff79c6"/>
    <text x="134" y="446" fill="#c4a0d8" font-size="11" font-family="'Segoe UI', sans-serif">Deletions</text>
    <text x="816" y="446" fill="#7a5a8e" font-size="10" font-family="'Segoe UI', sans-serif" text-anchor="end">Last 31 days · +6,672,395 / -1,756,860 lines</text>
  </g>

  <!-- Get your own -->
  <a href="https://github.com/mpge/code-per-day" target="_blank">
    <text x="420" y="452" fill="#7a5a8e" font-size="10" font-family="'Segoe UI', sans-serif" text-anchor="middle" opacity="0.6">Get your own — github.com/mpge/code-per-day</text>
  </a>
</svg>