<svg width="840" height="460" viewBox="0 0 840 460" xmlns="http://www.w3.org/2000/svg">
  
    <style>
      @keyframes fadeInUp {
        from { opacity: 0; transform: translateY(12px); }
        to   { opacity: 1; transform: translateY(0); }
      }
      @keyframes growBar {
        from { transform: scaleY(0); }
        to   { transform: scaleY(1); }
      }
      .cpd-header  { animation: fadeInUp 0.5s ease both; }
      .cpd-stats   { animation: fadeInUp 0.5s ease 0.15s both; }
      .cpd-chart   { animation: fadeInUp 0.5s ease 0.3s both; }
      .cpd-legend  { animation: fadeInUp 0.5s ease 0.45s both; }
    </style>

  <rect width="840" height="460" rx="12" fill="#141321" stroke="#2d2b55" stroke-width="1"/>

  <g class="cpd-header">
    <a href="https://github.com/mpge/code-per-day" target="_blank">
      <text x="24" y="44" fill="#ff7edb" font-size="18" font-family="'Segoe UI', sans-serif" font-weight="700">Code Per Day</text>
    </a>
    <text x="816" y="44" fill="#544d8a" font-size="13" font-family="'Segoe UI', sans-serif" text-anchor="end" font-weight="500">@mpge</text>
  </g>

  <g class="cpd-stats">
    
    <rect x="24" y="60" width="190" height="68" rx="8" fill="#0f0e1a" stroke="#2d2b55" stroke-width="1"/>
    <text x="119" y="78" fill="#544d8a" font-size="11" font-family="'Segoe UI', sans-serif" text-anchor="middle" font-weight="500">Today</text>
    <text x="119" y="100" fill="#fad000" font-size="16" font-family="'Segoe UI Mono', 'Cascadia Code', monospace" text-anchor="middle" font-weight="700">+1,915</text>
    <text x="119" y="118" fill="#ff628c" font-size="14" font-family="'Segoe UI Mono', 'Cascadia Code', monospace" text-anchor="middle" font-weight="600">-431</text>
    <rect x="222" y="60" width="190" height="68" rx="8" fill="#0f0e1a" stroke="#2d2b55" stroke-width="1"/>
    <text x="317" y="78" fill="#544d8a" font-size="11" font-family="'Segoe UI', sans-serif" text-anchor="middle" font-weight="500">30d Avg</text>
    <text x="317" y="100" fill="#fad000" font-size="16" font-family="'Segoe UI Mono', 'Cascadia Code', monospace" text-anchor="middle" font-weight="700">+5,428</text>
    <text x="317" y="118" fill="#ff628c" font-size="14" font-family="'Segoe UI Mono', 'Cascadia Code', monospace" text-anchor="middle" font-weight="600">-460</text>
    <rect x="420" y="60" width="190" height="68" rx="8" fill="#0f0e1a" stroke="#2d2b55" stroke-width="1"/>
    <text x="515" y="78" fill="#544d8a" font-size="11" font-family="'Segoe UI', sans-serif" text-anchor="middle" font-weight="500">Year Avg</text>
    <text x="515" y="100" fill="#fad000" font-size="16" font-family="'Segoe UI Mono', 'Cascadia Code', monospace" text-anchor="middle" font-weight="700">+26,003</text>
    <text x="515" y="118" fill="#ff628c" font-size="14" font-family="'Segoe UI Mono', 'Cascadia Code', monospace" text-anchor="middle" font-weight="600">-7,075</text>
    <rect x="618" y="60" width="190" height="68" rx="8" fill="#0f0e1a" stroke="#2d2b55" stroke-width="1"/>
    <text x="713" y="78" fill="#544d8a" font-size="11" font-family="'Segoe UI', sans-serif" text-anchor="middle" font-weight="500">Streak</text>
    <text x="713" y="104" fill="#ff7edb" font-size="20" font-family="'Segoe UI Mono', 'Cascadia Code', monospace" text-anchor="middle" font-weight="700">237</text>
    <text x="713" y="120" fill="#544d8a" font-size="11" font-family="'Segoe UI', sans-serif" text-anchor="middle">days</text>
  </g>

  <g class="cpd-chart">
    <line x1="72" y1="148" x2="808" y2="148" stroke="#252340" stroke-width="1" stroke-dasharray="4,4"/><line x1="72" y1="213.5" x2="808" y2="213.5" stroke="#252340" stroke-width="1" stroke-dasharray="4,4"/><line x1="72" y1="279" x2="808" y2="279" stroke="#252340" stroke-width="1" stroke-dasharray="4,4"/><line x1="72" y1="344.5" x2="808" y2="344.5" stroke="#252340" stroke-width="1" stroke-dasharray="4,4"/><line x1="72" y1="410" x2="808" y2="410" stroke="#252340" stroke-width="1" stroke-dasharray="4,4"/><line x1="72" y1="279" x2="808" y2="279" stroke="#2d2b55" stroke-width="1.5"/><text x="64" y="162" fill="#544d8a" font-size="10" font-family="'Segoe UI', sans-serif" text-anchor="end">+4,386</text><text x="64" y="406" fill="#544d8a" font-size="10" font-family="'Segoe UI', sans-serif" text-anchor="end">-4,386</text><text x="64" y="283" fill="#544d8a" font-size="10" font-family="'Segoe UI', sans-serif" text-anchor="end">0</text><path d="M 72 279 L 72 158 L 96.53333333333333 158 L 121.06666666666666 158 L 145.60000000000002 158 L 170.13333333333333 228.32124943000457 L 194.66666666666669 239.88052895576834 L 219.20000000000002 279 L 243.73333333333335 158 L 268.26666666666665 191.2156862745098 L 292.8 209.20291837665297 L 317.33333333333337 269.89603283173733 L 341.8666666666667 279 L 366.40000000000003 279 L 390.93333333333334 259.936844505244 L 415.4666666666667 279 L 440 242.1703146374829 L 464.53333333333336 264.51641586867305 L 489.0666666666667 279 L 513.6 279 L 538.1333333333334 238.25284997720019 L 562.6666666666667 275.19288645690835 L 587.2 279 L 611.7333333333333 278.83447332421343 L 636.2666666666667 222.30711354309165 L 660.8000000000001 276.93091655266755 L 685.3333333333334 279 L 709.8666666666667 279 L 734.4000000000001 276.98609211126313 L 758.9333333333334 272.6548107615139 L 783.4666666666667 261.86798905608754 L 808 226.16940264477884 L 808 279 Z" fill="#fad000" opacity="0.15"/><path d="M 72 279 L 72 158 L 96.53333333333333 158 L 121.06666666666666 158 L 145.60000000000002 158 L 170.13333333333333 228.32124943000457 L 194.66666666666669 239.88052895576834 L 219.20000000000002 279 L 243.73333333333335 158 L 268.26666666666665 191.2156862745098 L 292.8 209.20291837665297 L 317.33333333333337 269.89603283173733 L 341.8666666666667 279 L 366.40000000000003 279 L 390.93333333333334 259.936844505244 L 415.4666666666667 279 L 440 242.1703146374829 L 464.53333333333336 264.51641586867305 L 489.0666666666667 279 L 513.6 279 L 538.1333333333334 238.25284997720019 L 562.6666666666667 275.19288645690835 L 587.2 279 L 611.7333333333333 278.83447332421343 L 636.2666666666667 222.30711354309165 L 660.8000000000001 276.93091655266755 L 685.3333333333334 279 L 709.8666666666667 279 L 734.4000000000001 276.98609211126313 L 758.9333333333334 272.6548107615139 L 783.4666666666667 261.86798905608754 L 808 226.16940264477884" fill="none" stroke="#fad000" stroke-width="2"/><path d="M 72 279 L 72 291.63520291837665 L 96.53333333333333 284.3796169630643 L 121.06666666666666 310.1190150478796 L 145.60000000000002 280.8759689922481 L 170.13333333333333 283.63474692202465 L 194.66666666666669 281.2621979024168 L 219.20000000000002 279 L 243.73333333333335 400 L 268.26666666666665 297.2079343365253 L 292.8 298.063155494756 L 317.33333333333337 279 L 341.8666666666667 279 L 366.40000000000003 279 L 390.93333333333334 282.97264021887827 L 415.4666666666667 279 L 440 280.0483356133151 L 464.53333333333336 293.09735522115824 L 489.0666666666667 279 L 513.6 279 L 538.1333333333334 306.891244870041 L 562.6666666666667 279.7448700410397 L 587.2 279 L 611.7333333333333 279 L 636.2666666666667 283.1657546739626 L 660.8000000000001 279.19311445508436 L 685.3333333333334 279 L 709.8666666666667 279 L 734.4000000000001 279.13793889648883 L 758.9333333333334 280.1310989512084 L 783.4666666666667 283.4140446876425 L 808 290.89033287733696 L 808 279 Z" fill="#ff628c" opacity="0.15"/><path d="M 72 279 L 72 291.63520291837665 L 96.53333333333333 284.3796169630643 L 121.06666666666666 310.1190150478796 L 145.60000000000002 280.8759689922481 L 170.13333333333333 283.63474692202465 L 194.66666666666669 281.2621979024168 L 219.20000000000002 279 L 243.73333333333335 400 L 268.26666666666665 297.2079343365253 L 292.8 298.063155494756 L 317.33333333333337 279 L 341.8666666666667 279 L 366.40000000000003 279 L 390.93333333333334 282.97264021887827 L 415.4666666666667 279 L 440 280.0483356133151 L 464.53333333333336 293.09735522115824 L 489.0666666666667 279 L 513.6 279 L 538.1333333333334 306.891244870041 L 562.6666666666667 279.7448700410397 L 587.2 279 L 611.7333333333333 279 L 636.2666666666667 283.1657546739626 L 660.8000000000001 279.19311445508436 L 685.3333333333334 279 L 709.8666666666667 279 L 734.4000000000001 279.13793889648883 L 758.9333333333334 280.1310989512084 L 783.4666666666667 283.4140446876425 L 808 290.89033287733696" fill="none" stroke="#ff628c" stroke-width="2"/><text x="72" y="426" fill="#544d8a" font-size="10" font-family="'Segoe UI', sans-serif" text-anchor="middle">Jun 22</text><text x="194.66666666666669" y="426" fill="#544d8a" font-size="10" font-family="'Segoe UI', sans-serif" text-anchor="middle">Jun 27</text><text x="317.33333333333337" y="426" fill="#544d8a" font-size="10" font-family="'Segoe UI', sans-serif" text-anchor="middle">Jul 2</text><text x="440" y="426" fill="#544d8a" font-size="10" font-family="'Segoe UI', sans-serif" text-anchor="middle">Jul 7</text><text x="562.6666666666667" y="426" fill="#544d8a" font-size="10" font-family="'Segoe UI', sans-serif" text-anchor="middle">Jul 12</text><text x="685.3333333333334" y="426" fill="#544d8a" font-size="10" font-family="'Segoe UI', sans-serif" text-anchor="middle">Jul 17</text><text x="808" y="426" fill="#544d8a" font-size="10" font-family="'Segoe UI', sans-serif" text-anchor="middle">Jul 22</text>
  </g>

  <g class="cpd-legend">
    
    <circle cx="30" cy="442" r="5" fill="#fad000"/>
    <text x="40" y="446" fill="#a599e9" font-size="11" font-family="'Segoe UI', sans-serif">Additions</text>
    <circle cx="124" cy="442" r="5" fill="#ff628c"/>
    <text x="134" y="446" fill="#a599e9" font-size="11" font-family="'Segoe UI', sans-serif">Deletions</text>
    <text x="816" y="446" fill="#544d8a" font-size="10" font-family="'Segoe UI', sans-serif" text-anchor="end">Last 31 days · +168,273 / -14,250 lines</text>
  </g>

  <a href="https://github.com/mpge/code-per-day" target="_blank">
    <text x="420" y="452" fill="#544d8a" font-size="10" font-family="'Segoe UI', sans-serif" text-anchor="middle" opacity="0.6">Get your own - github.com/mpge/code-per-day</text>
  </a>
</svg>