<svg width="840" height="460" viewBox="0 0 840 460" xmlns="http://www.w3.org/2000/svg">
  
    <style>
      @keyframes fadeInUp {
        from { opacity: 0; transform: translateY(12px); }
        to   { opacity: 1; transform: translateY(0); }
      }
      @keyframes growBar {
        from { transform: scaleY(0); }
        to   { transform: scaleY(1); }
      }
      .cpd-header  { animation: fadeInUp 0.5s ease both; }
      .cpd-stats   { animation: fadeInUp 0.5s ease 0.15s both; }
      .cpd-chart   { animation: fadeInUp 0.5s ease 0.3s both; }
      .cpd-legend  { animation: fadeInUp 0.5s ease 0.45s both; }
    </style>

  <rect width="840" height="460" rx="12" fill="transparent" />

  <g class="cpd-header">
    <a href="https://github.com/mpge/code-per-day" target="_blank">
      <text x="24" y="44" fill="#e6edf3" font-size="18" font-family="'Segoe UI', sans-serif" font-weight="700">Code Per Day</text>
    </a>
    <text x="816" y="44" fill="#6e7681" font-size="13" font-family="'Segoe UI', sans-serif" text-anchor="end" font-weight="500">@mpge</text>
  </g>

  <g class="cpd-stats">
    
    <rect x="24" y="60" width="190" height="68" rx="8" fill="rgba(13,17,23,0.6)" stroke="#30363d" stroke-width="1"/>
    <text x="119" y="78" fill="#6e7681" font-size="11" font-family="'Segoe UI', sans-serif" text-anchor="middle" font-weight="500">Today</text>
    <text x="119" y="100" fill="#3fb950" font-size="16" font-family="'Segoe UI Mono', 'Cascadia Code', monospace" text-anchor="middle" font-weight="700">+235</text>
    <text x="119" y="118" fill="#f85149" font-size="14" font-family="'Segoe UI Mono', 'Cascadia Code', monospace" text-anchor="middle" font-weight="600">-92</text>
    <rect x="222" y="60" width="190" height="68" rx="8" fill="rgba(13,17,23,0.6)" stroke="#30363d" stroke-width="1"/>
    <text x="317" y="78" fill="#6e7681" font-size="11" font-family="'Segoe UI', sans-serif" text-anchor="middle" font-weight="500">30d Avg</text>
    <text x="317" y="100" fill="#3fb950" font-size="16" font-family="'Segoe UI Mono', 'Cascadia Code', monospace" text-anchor="middle" font-weight="700">+32,264</text>
    <text x="317" y="118" fill="#f85149" font-size="14" font-family="'Segoe UI Mono', 'Cascadia Code', monospace" text-anchor="middle" font-weight="600">-2,817</text>
    <rect x="420" y="60" width="190" height="68" rx="8" fill="rgba(13,17,23,0.6)" stroke="#30363d" stroke-width="1"/>
    <text x="515" y="78" fill="#6e7681" font-size="11" font-family="'Segoe UI', sans-serif" text-anchor="middle" font-weight="500">Year Avg</text>
    <text x="515" y="100" fill="#3fb950" font-size="16" font-family="'Segoe UI Mono', 'Cascadia Code', monospace" text-anchor="middle" font-weight="700">+24,350</text>
    <text x="515" y="118" fill="#f85149" font-size="14" font-family="'Segoe UI Mono', 'Cascadia Code', monospace" text-anchor="middle" font-weight="600">-6,593</text>
    <rect x="618" y="60" width="190" height="68" rx="8" fill="rgba(13,17,23,0.6)" stroke="#30363d" stroke-width="1"/>
    <text x="713" y="78" fill="#6e7681" font-size="11" font-family="'Segoe UI', sans-serif" text-anchor="middle" font-weight="500">Streak</text>
    <text x="713" y="104" fill="#58a6ff" font-size="20" font-family="'Segoe UI Mono', 'Cascadia Code', monospace" text-anchor="middle" font-weight="700">169</text>
    <text x="713" y="120" fill="#6e7681" font-size="11" font-family="'Segoe UI', sans-serif" text-anchor="middle">days</text>
  </g>

  <g class="cpd-chart">
    <line x1="72" y1="148" x2="808" y2="148" stroke="rgba(33,38,45,0.6)" stroke-width="1" stroke-dasharray="4,4"/><line x1="72" y1="213.5" x2="808" y2="213.5" stroke="rgba(33,38,45,0.6)" stroke-width="1" stroke-dasharray="4,4"/><line x1="72" y1="279" x2="808" y2="279" stroke="rgba(33,38,45,0.6)" stroke-width="1" stroke-dasharray="4,4"/><line x1="72" y1="344.5" x2="808" y2="344.5" stroke="rgba(33,38,45,0.6)" stroke-width="1" stroke-dasharray="4,4"/><line x1="72" y1="410" x2="808" y2="410" stroke="rgba(33,38,45,0.6)" stroke-width="1" stroke-dasharray="4,4"/><line x1="72" y1="279" x2="808" y2="279" stroke="#30363d" stroke-width="1.5"/><text x="64" y="162" fill="#6e7681" font-size="10" font-family="'Segoe UI', sans-serif" text-anchor="end">+20,455</text><text x="64" y="406" fill="#6e7681" font-size="10" font-family="'Segoe UI', sans-serif" text-anchor="end">-20,455</text><text x="64" y="283" fill="#6e7681" font-size="10" font-family="'Segoe UI', sans-serif" text-anchor="end">0</text><path d="M 72 279 L 72 279 L 96.53333333333333 278.6864825226106 L 121.06666666666666 279 L 145.60000000000002 248.52965045221217 L 170.13333333333333 193.5221217306282 L 194.66666666666669 237.36132974822783 L 219.20000000000002 251.534685895869 L 243.73333333333335 278.9704228794916 L 268.26666666666665 158 L 292.8 158 L 317.33333333333337 265.85001222195064 L 341.8666666666667 158 L 366.40000000000003 158 L 390.93333333333334 211.67064287460278 L 415.4666666666667 263.94524566120754 L 440 196.81701295526767 L 464.53333333333336 227.9912979711562 L 489.0666666666667 158 L 513.6 242.85675873869468 L 538.1333333333334 259.07093620141774 L 562.6666666666667 158 L 587.2 231.11464189684673 L 611.7333333333333 169.91957956489856 L 636.2666666666667 158 L 660.8000000000001 271.29220239550233 L 685.3333333333334 208.26927401613295 L 709.8666666666667 189.807235394769 L 734.4000000000001 258.7751649963334 L 758.9333333333334 227.4589098020044 L 783.4666666666667 254.98337814715228 L 808 277.60987533610364 L 808 279 Z" fill="#3fb950" opacity="0.15"/><path d="M 72 279 L 72 279 L 96.53333333333333 278.6864825226106 L 121.06666666666666 279 L 145.60000000000002 248.52965045221217 L 170.13333333333333 193.5221217306282 L 194.66666666666669 237.36132974822783 L 219.20000000000002 251.534685895869 L 243.73333333333335 278.9704228794916 L 268.26666666666665 158 L 292.8 158 L 317.33333333333337 265.85001222195064 L 341.8666666666667 158 L 366.40000000000003 158 L 390.93333333333334 211.67064287460278 L 415.4666666666667 263.94524566120754 L 440 196.81701295526767 L 464.53333333333336 227.9912979711562 L 489.0666666666667 158 L 513.6 242.85675873869468 L 538.1333333333334 259.07093620141774 L 562.6666666666667 158 L 587.2 231.11464189684673 L 611.7333333333333 169.91957956489856 L 636.2666666666667 158 L 660.8000000000001 271.29220239550233 L 685.3333333333334 208.26927401613295 L 709.8666666666667 189.807235394769 L 734.4000000000001 258.7751649963334 L 758.9333333333334 227.4589098020044 L 783.4666666666667 254.98337814715228 L 808 277.60987533610364" fill="none" stroke="#3fb950" stroke-width="2"/><path d="M 72 279 L 72 279 L 96.53333333333333 279.2661940845759 L 121.06666666666666 279 L 145.60000000000002 279.67435834759226 L 170.13333333333333 283.88022488389146 L 194.66666666666669 290.80127108286484 L 219.20000000000002 279.3667562943046 L 243.73333333333335 279 L 268.26666666666665 282.265314104131 L 292.8 308.1926179418235 L 317.33333333333337 279.49098020044 L 341.8666666666667 286.3469567342948 L 366.40000000000003 284.2351503299927 L 390.93333333333334 310.25710095331215 L 415.4666666666667 282.20024443901247 L 440 306.5540454656563 L 464.53333333333336 288.48242483500366 L 489.0666666666667 327.2639452456612 L 513.6 295.8589586898069 L 538.1333333333334 286.54216572965043 L 562.6666666666667 289.9317037399169 L 587.2 283.60811537521386 L 611.7333333333333 306.4712295282327 L 636.2666666666667 400 L 660.8000000000001 282.0523588364703 L 685.3333333333334 285.4241505744317 L 709.8666666666667 295.3620630652652 L 734.4000000000001 279.5678807137619 L 758.9333333333334 298.6628697140064 L 783.4666666666667 284.7142996822293 L 808 279.54421901735515 L 808 279 Z" fill="#f85149" opacity="0.15"/><path d="M 72 279 L 72 279 L 96.53333333333333 279.2661940845759 L 121.06666666666666 279 L 145.60000000000002 279.67435834759226 L 170.13333333333333 283.88022488389146 L 194.66666666666669 290.80127108286484 L 219.20000000000002 279.3667562943046 L 243.73333333333335 279 L 268.26666666666665 282.265314104131 L 292.8 308.1926179418235 L 317.33333333333337 279.49098020044 L 341.8666666666667 286.3469567342948 L 366.40000000000003 284.2351503299927 L 390.93333333333334 310.25710095331215 L 415.4666666666667 282.20024443901247 L 440 306.5540454656563 L 464.53333333333336 288.48242483500366 L 489.0666666666667 327.2639452456612 L 513.6 295.8589586898069 L 538.1333333333334 286.54216572965043 L 562.6666666666667 289.9317037399169 L 587.2 283.60811537521386 L 611.7333333333333 306.4712295282327 L 636.2666666666667 400 L 660.8000000000001 282.0523588364703 L 685.3333333333334 285.4241505744317 L 709.8666666666667 295.3620630652652 L 734.4000000000001 279.5678807137619 L 758.9333333333334 298.6628697140064 L 783.4666666666667 284.7142996822293 L 808 279.54421901735515" fill="none" stroke="#f85149" stroke-width="2"/><text x="72" y="426" fill="#6e7681" font-size="10" font-family="'Segoe UI', sans-serif" text-anchor="middle">Apr 15</text><text x="194.66666666666669" y="426" fill="#6e7681" font-size="10" font-family="'Segoe UI', sans-serif" text-anchor="middle">Apr 20</text><text x="317.33333333333337" y="426" fill="#6e7681" font-size="10" font-family="'Segoe UI', sans-serif" text-anchor="middle">Apr 25</text><text x="440" y="426" fill="#6e7681" font-size="10" font-family="'Segoe UI', sans-serif" text-anchor="middle">Apr 30</text><text x="562.6666666666667" y="426" fill="#6e7681" font-size="10" font-family="'Segoe UI', sans-serif" text-anchor="middle">May 5</text><text x="685.3333333333334" y="426" fill="#6e7681" font-size="10" font-family="'Segoe UI', sans-serif" text-anchor="middle">May 10</text><text x="808" y="426" fill="#6e7681" font-size="10" font-family="'Segoe UI', sans-serif" text-anchor="middle">May 15</text>
  </g>

  <g class="cpd-legend">
    
    <circle cx="30" cy="442" r="5" fill="#3fb950"/>
    <text x="40" y="446" fill="#8b949e" font-size="11" font-family="'Segoe UI', sans-serif">Additions</text>
    <circle cx="124" cy="442" r="5" fill="#f85149"/>
    <text x="134" y="446" fill="#8b949e" font-size="11" font-family="'Segoe UI', sans-serif">Deletions</text>
    <text x="816" y="446" fill="#6e7681" font-size="10" font-family="'Segoe UI', sans-serif" text-anchor="end">Last 31 days · +1,000,173 / -87,320 lines</text>
  </g>

  <a href="https://github.com/mpge/code-per-day" target="_blank">
    <text x="420" y="452" fill="#6e7681" font-size="10" font-family="'Segoe UI', sans-serif" text-anchor="middle" opacity="0.6">Get your own - github.com/mpge/code-per-day</text>
  </a>
</svg>