<svg width="840" height="460" viewBox="0 0 840 460" xmlns="http://www.w3.org/2000/svg">
  
    <style>
      @keyframes fadeInUp {
        from { opacity: 0; transform: translateY(12px); }
        to   { opacity: 1; transform: translateY(0); }
      }
      @keyframes growBar {
        from { transform: scaleY(0); }
        to   { transform: scaleY(1); }
      }
      .cpd-header  { animation: fadeInUp 0.5s ease both; }
      .cpd-stats   { animation: fadeInUp 0.5s ease 0.15s both; }
      .cpd-chart   { animation: fadeInUp 0.5s ease 0.3s both; }
      .cpd-legend  { animation: fadeInUp 0.5s ease 0.45s both; }
    </style>

  <!-- Background -->
  <rect width="840" height="460" rx="12" fill="#1a1028" stroke="#3d2660" stroke-width="1"/>

  <!-- Header -->
  <g class="cpd-header">
    <a href="https://github.com/mpge/code-per-day" target="_blank">
      <text x="24" y="44" fill="#f0d0ff" font-size="18" font-family="'Segoe UI', sans-serif" font-weight="700">Code Per Day</text>
    </a>
    <text x="816" y="44" fill="#7a5a8e" font-size="13" font-family="'Segoe UI', sans-serif" text-anchor="end" font-weight="500">@mpge</text>
  </g>

  <!-- Stats Cards -->
  <g class="cpd-stats">
    
    <rect x="24" y="60" width="190" height="68" rx="8" fill="#160e22" stroke="#3d2660" stroke-width="1"/>
    <text x="119" y="78" fill="#7a5a8e" font-size="11" font-family="'Segoe UI', sans-serif" text-anchor="middle" font-weight="500">Today</text>
    <text x="119" y="100" fill="#ffb86c" font-size="16" font-family="'Segoe UI Mono', 'Cascadia Code', monospace" text-anchor="middle" font-weight="700">+122,522</text>
    <text x="119" y="118" fill="#ff79c6" font-size="14" font-family="'Segoe UI Mono', 'Cascadia Code', monospace" text-anchor="middle" font-weight="600">-8,761</text>
    <rect x="222" y="60" width="190" height="68" rx="8" fill="#160e22" stroke="#3d2660" stroke-width="1"/>
    <text x="317" y="78" fill="#7a5a8e" font-size="11" font-family="'Segoe UI', sans-serif" text-anchor="middle" font-weight="500">30d Avg</text>
    <text x="317" y="100" fill="#ffb86c" font-size="16" font-family="'Segoe UI Mono', 'Cascadia Code', monospace" text-anchor="middle" font-weight="700">+86,513</text>
    <text x="317" y="118" fill="#ff79c6" font-size="14" font-family="'Segoe UI Mono', 'Cascadia Code', monospace" text-anchor="middle" font-weight="600">-72,574</text>
    <rect x="420" y="60" width="190" height="68" rx="8" fill="#160e22" stroke="#3d2660" stroke-width="1"/>
    <text x="515" y="78" fill="#7a5a8e" font-size="11" font-family="'Segoe UI', sans-serif" text-anchor="middle" font-weight="500">Year Avg</text>
    <text x="515" y="100" fill="#ffb86c" font-size="16" font-family="'Segoe UI Mono', 'Cascadia Code', monospace" text-anchor="middle" font-weight="700">+8,804</text>
    <text x="515" y="118" fill="#ff79c6" font-size="14" font-family="'Segoe UI Mono', 'Cascadia Code', monospace" text-anchor="middle" font-weight="600">-6,251</text>
        <rect x="618" y="60" width="190" height="68" rx="8" fill="#160e22" stroke="#3d2660" stroke-width="1"/>
        <text x="713" y="78" fill="#7a5a8e" font-size="11" font-family="'Segoe UI', sans-serif" text-anchor="middle" font-weight="500">Streak</text>
        <text x="713" y="104" fill="#ff79c6" font-size="20" font-family="'Segoe UI Mono', 'Cascadia Code', monospace" text-anchor="middle" font-weight="700">133</text>
        <text x="713" y="120" fill="#7a5a8e" font-size="11" font-family="'Segoe UI', sans-serif" text-anchor="middle">days</text>
  </g>

  <!-- Chart -->
  <g class="cpd-chart">
    <line x1="72" y1="148" x2="808" y2="148" stroke="#2d1c44" stroke-width="1" stroke-dasharray="4,4"/><line x1="72" y1="213.5" x2="808" y2="213.5" stroke="#2d1c44" stroke-width="1" stroke-dasharray="4,4"/><line x1="72" y1="279" x2="808" y2="279" stroke="#2d1c44" stroke-width="1" stroke-dasharray="4,4"/><line x1="72" y1="344.5" x2="808" y2="344.5" stroke="#2d1c44" stroke-width="1" stroke-dasharray="4,4"/><line x1="72" y1="410" x2="808" y2="410" stroke="#2d1c44" stroke-width="1" stroke-dasharray="4,4"/><line x1="72" y1="279" x2="808" y2="279" stroke="#3d2660" stroke-width="1.5"/><text x="64" y="162" fill="#7a5a8e" font-size="10" font-family="'Segoe UI', sans-serif" text-anchor="end">+51,561</text><text x="64" y="406" fill="#7a5a8e" font-size="10" font-family="'Segoe UI', sans-serif" text-anchor="end">-51,561</text><text x="64" y="283" fill="#7a5a8e" font-size="10" font-family="'Segoe UI', sans-serif" text-anchor="end">0</text><path d="M 72 279 L 72 279 L 96.53333333333333 229.78896840635363 L 121.06666666666666 221.03799383254784 L 145.60000000000002 279 L 170.13333333333333 279 L 194.66666666666669 246.767595663389 L 219.20000000000002 279 L 243.73333333333335 256.21789724791995 L 268.26666666666665 158 L 292.8 279 L 317.33333333333337 273.8536102868447 L 341.8666666666667 255.56315820096586 L 366.40000000000003 264.0090572331801 L 390.93333333333334 277.5051298462016 L 415.4666666666667 275.4001086092201 L 440 279 L 464.53333333333336 279 L 489.0666666666667 279 L 513.6 279 L 538.1333333333334 259.3249743022827 L 562.6666666666667 277.6482806772561 L 587.2 279 L 611.7333333333333 275.48459106689165 L 636.2666666666667 279 L 660.8000000000001 279 L 685.3333333333334 236.51940420084946 L 709.8666666666667 158 L 734.4000000000001 158 L 758.9333333333334 191.14763096138554 L 783.4666666666667 158 L 808 158 L 808 279 Z" fill="#ffb86c" opacity="0.15"/><path d="M 72 279 L 72 279 L 96.53333333333333 229.78896840635363 L 121.06666666666666 221.03799383254784 L 145.60000000000002 279 L 170.13333333333333 279 L 194.66666666666669 246.767595663389 L 219.20000000000002 279 L 243.73333333333335 256.21789724791995 L 268.26666666666665 158 L 292.8 279 L 317.33333333333337 273.8536102868447 L 341.8666666666667 255.56315820096586 L 366.40000000000003 264.0090572331801 L 390.93333333333334 277.5051298462016 L 415.4666666666667 275.4001086092201 L 440 279 L 464.53333333333336 279 L 489.0666666666667 279 L 513.6 279 L 538.1333333333334 259.3249743022827 L 562.6666666666667 277.6482806772561 L 587.2 279 L 611.7333333333333 275.48459106689165 L 636.2666666666667 279 L 660.8000000000001 279 L 685.3333333333334 236.51940420084946 L 709.8666666666667 158 L 734.4000000000001 158 L 758.9333333333334 191.14763096138554 L 783.4666666666667 158 L 808 158" fill="none" stroke="#ffb86c" stroke-width="2"/><path d="M 72 279 L 72 279 L 96.53333333333333 284.49135974864726 L 121.06666666666666 280.4103876961269 L 145.60000000000002 279 L 170.13333333333333 279 L 194.66666666666669 279.3191559512034 L 219.20000000000002 279 L 243.73333333333335 279.07978898780084 L 268.26666666666665 400 L 292.8 279 L 317.33333333333337 279.0023467349353 L 341.8666666666667 281.285719827001 L 366.40000000000003 279.46700025212857 L 390.93333333333334 279.0610151083183 L 415.4666666666667 279.1736583852136 L 440 279 L 464.53333333333336 279 L 489.0666666666667 279 L 513.6 279 L 538.1333333333334 279.3989449390043 L 562.6666666666667 279 L 587.2 279 L 611.7333333333333 280.3352921781967 L 636.2666666666667 279 L 660.8000000000001 279 L 685.3333333333334 279.0938693974128 L 709.8666666666667 400 L 734.4000000000001 295.5609084385485 L 758.9333333333334 320.80708287271386 L 783.4666666666667 288.85393999340585 L 808 299.5597447683327 L 808 279 Z" fill="#ff79c6" opacity="0.15"/><path d="M 72 279 L 72 279 L 96.53333333333333 284.49135974864726 L 121.06666666666666 280.4103876961269 L 145.60000000000002 279 L 170.13333333333333 279 L 194.66666666666669 279.3191559512034 L 219.20000000000002 279 L 243.73333333333335 279.07978898780084 L 268.26666666666665 400 L 292.8 279 L 317.33333333333337 279.0023467349353 L 341.8666666666667 281.285719827001 L 366.40000000000003 279.46700025212857 L 390.93333333333334 279.0610151083183 L 415.4666666666667 279.1736583852136 L 440 279 L 464.53333333333336 279 L 489.0666666666667 279 L 513.6 279 L 538.1333333333334 279.3989449390043 L 562.6666666666667 279 L 587.2 279 L 611.7333333333333 280.3352921781967 L 636.2666666666667 279 L 660.8000000000001 279 L 685.3333333333334 279.0938693974128 L 709.8666666666667 400 L 734.4000000000001 295.5609084385485 L 758.9333333333334 320.80708287271386 L 783.4666666666667 288.85393999340585 L 808 299.5597447683327" fill="none" stroke="#ff79c6" stroke-width="2"/><text x="72" y="426" fill="#7a5a8e" font-size="10" font-family="'Segoe UI', sans-serif" text-anchor="middle">Mar 10</text><text x="194.66666666666669" y="426" fill="#7a5a8e" font-size="10" font-family="'Segoe UI', sans-serif" text-anchor="middle">Mar 15</text><text x="317.33333333333337" y="426" fill="#7a5a8e" font-size="10" font-family="'Segoe UI', sans-serif" text-anchor="middle">Mar 20</text><text x="440" y="426" fill="#7a5a8e" font-size="10" font-family="'Segoe UI', sans-serif" text-anchor="middle">Mar 25</text><text x="562.6666666666667" y="426" fill="#7a5a8e" font-size="10" font-family="'Segoe UI', sans-serif" text-anchor="middle">Mar 30</text><text x="685.3333333333334" y="426" fill="#7a5a8e" font-size="10" font-family="'Segoe UI', sans-serif" text-anchor="middle">Apr 4</text><text x="808" y="426" fill="#7a5a8e" font-size="10" font-family="'Segoe UI', sans-serif" text-anchor="middle">Apr 9</text>
  </g>

  <!-- Legend -->
  <g class="cpd-legend">
    <circle cx="30" cy="442" r="5" fill="#ffb86c"/>
    <text x="40" y="446" fill="#c4a0d8" font-size="11" font-family="'Segoe UI', sans-serif">Additions</text>
    <circle cx="124" cy="442" r="5" fill="#ff79c6"/>
    <text x="134" y="446" fill="#c4a0d8" font-size="11" font-family="'Segoe UI', sans-serif">Deletions</text>
    <text x="816" y="446" fill="#7a5a8e" font-size="10" font-family="'Segoe UI', sans-serif" text-anchor="end">Last 31 days · +2,681,888 / -2,249,788 lines</text>
  </g>

  <!-- Get your own -->
  <a href="https://github.com/mpge/code-per-day" target="_blank">
    <text x="420" y="452" fill="#7a5a8e" font-size="10" font-family="'Segoe UI', sans-serif" text-anchor="middle" opacity="0.6">Get your own — github.com/mpge/code-per-day</text>
  </a>
</svg>