<svg width="840" height="460" viewBox="0 0 840 460" xmlns="http://www.w3.org/2000/svg">
  
    <style>
      @keyframes fadeInUp {
        from { opacity: 0; transform: translateY(12px); }
        to   { opacity: 1; transform: translateY(0); }
      }
      @keyframes growBar {
        from { transform: scaleY(0); }
        to   { transform: scaleY(1); }
      }
      .cpd-header  { animation: fadeInUp 0.5s ease both; }
      .cpd-stats   { animation: fadeInUp 0.5s ease 0.15s both; }
      .cpd-chart   { animation: fadeInUp 0.5s ease 0.3s both; }
      .cpd-legend  { animation: fadeInUp 0.5s ease 0.45s both; }
    </style>

  <!-- Background -->
  <rect width="840" height="460" rx="12" fill="#0d1117" stroke="#30363d" stroke-width="1"/>

  <!-- Header -->
  <g class="cpd-header">
    <a href="https://github.com/mpge/code-per-day" target="_blank">
      <text x="24" y="44" fill="#e6edf3" font-size="18" font-family="'Segoe UI', sans-serif" font-weight="700">Code Per Day</text>
    </a>
    <text x="816" y="44" fill="#6e7681" font-size="13" font-family="'Segoe UI', sans-serif" text-anchor="end" font-weight="500">@mpge</text>
  </g>

  <!-- Stats Cards -->
  <g class="cpd-stats">
    
    <rect x="24" y="60" width="190" height="68" rx="8" fill="#0d1117" stroke="#30363d" stroke-width="1"/>
    <text x="119" y="78" fill="#6e7681" font-size="11" font-family="'Segoe UI', sans-serif" text-anchor="middle" font-weight="500">Today</text>
    <text x="119" y="100" fill="#3fb950" font-size="16" font-family="'Segoe UI Mono', 'Cascadia Code', monospace" text-anchor="middle" font-weight="700">+651</text>
    <text x="119" y="118" fill="#f85149" font-size="14" font-family="'Segoe UI Mono', 'Cascadia Code', monospace" text-anchor="middle" font-weight="600">-49</text>
    <rect x="222" y="60" width="190" height="68" rx="8" fill="#0d1117" stroke="#30363d" stroke-width="1"/>
    <text x="317" y="78" fill="#6e7681" font-size="11" font-family="'Segoe UI', sans-serif" text-anchor="middle" font-weight="500">30d Avg</text>
    <text x="317" y="100" fill="#3fb950" font-size="16" font-family="'Segoe UI Mono', 'Cascadia Code', monospace" text-anchor="middle" font-weight="700">+215,356</text>
    <text x="317" y="118" fill="#f85149" font-size="14" font-family="'Segoe UI Mono', 'Cascadia Code', monospace" text-anchor="middle" font-weight="600">-56,839</text>
    <rect x="420" y="60" width="190" height="68" rx="8" fill="#0d1117" stroke="#30363d" stroke-width="1"/>
    <text x="515" y="78" fill="#6e7681" font-size="11" font-family="'Segoe UI', sans-serif" text-anchor="middle" font-weight="500">Year Avg</text>
    <text x="515" y="100" fill="#3fb950" font-size="16" font-family="'Segoe UI Mono', 'Cascadia Code', monospace" text-anchor="middle" font-weight="700">+22,199</text>
    <text x="515" y="118" fill="#f85149" font-size="14" font-family="'Segoe UI Mono', 'Cascadia Code', monospace" text-anchor="middle" font-weight="600">-6,396</text>
        <rect x="618" y="60" width="190" height="68" rx="8" fill="#0d1117" stroke="#30363d" stroke-width="1"/>
        <text x="713" y="78" fill="#6e7681" font-size="11" font-family="'Segoe UI', sans-serif" text-anchor="middle" font-weight="500">Streak</text>
        <text x="713" y="104" fill="#58a6ff" font-size="20" font-family="'Segoe UI Mono', 'Cascadia Code', monospace" text-anchor="middle" font-weight="700">153</text>
        <text x="713" y="120" fill="#6e7681" font-size="11" font-family="'Segoe UI', sans-serif" text-anchor="middle">days</text>
  </g>

  <!-- Chart -->
  <g class="cpd-chart">
    <line x1="72" y1="148" x2="808" y2="148" stroke="#21262d" stroke-width="1" stroke-dasharray="4,4"/><line x1="72" y1="213.5" x2="808" y2="213.5" stroke="#21262d" stroke-width="1" stroke-dasharray="4,4"/><line x1="72" y1="279" x2="808" y2="279" stroke="#21262d" stroke-width="1" stroke-dasharray="4,4"/><line x1="72" y1="344.5" x2="808" y2="344.5" stroke="#21262d" stroke-width="1" stroke-dasharray="4,4"/><line x1="72" y1="410" x2="808" y2="410" stroke="#21262d" stroke-width="1" stroke-dasharray="4,4"/><line x1="72" y1="279" x2="808" y2="279" stroke="#30363d" stroke-width="1.5"/><text x="64" y="162" fill="#6e7681" font-size="10" font-family="'Segoe UI', sans-serif" text-anchor="end">+44,156</text><text x="64" y="406" fill="#6e7681" font-size="10" font-family="'Segoe UI', sans-serif" text-anchor="end">-44,156</text><text x="64" y="283" fill="#6e7681" font-size="10" font-family="'Segoe UI', sans-serif" text-anchor="end">0</text><path d="M 72 279 L 72 277.4215961590724 L 96.53333333333333 279 L 121.06666666666666 274.89505389980974 L 145.60000000000002 279 L 170.13333333333333 279 L 194.66666666666669 229.39537095751427 L 219.20000000000002 158 L 243.73333333333335 158 L 268.26666666666665 174.33483558293324 L 292.8 158 L 317.33333333333337 158 L 341.8666666666667 244.20112781954887 L 366.40000000000003 261.0949814294773 L 390.93333333333334 158 L 415.4666666666667 257.40929884953346 L 440 278.86846634658934 L 464.53333333333336 279 L 489.0666666666667 278.8547649243591 L 513.6 279 L 538.1333333333334 264.88479481837123 L 562.6666666666667 239.40288975450676 L 587.2 259.7111377842196 L 611.7333333333333 266.2768593169671 L 636.2666666666667 278.98629857776973 L 660.8000000000001 207.9279826071202 L 685.3333333333334 158 L 709.8666666666667 272.90834767641996 L 734.4000000000001 203.3845909955612 L 758.9333333333334 166.56886946281367 L 783.4666666666667 247.81008243500315 L 808 277.21607482561825 L 808 279 Z" fill="#3fb950" opacity="0.15"/><path d="M 72 279 L 72 277.4215961590724 L 96.53333333333333 279 L 121.06666666666666 274.89505389980974 L 145.60000000000002 279 L 170.13333333333333 279 L 194.66666666666669 229.39537095751427 L 219.20000000000002 158 L 243.73333333333335 158 L 268.26666666666665 174.33483558293324 L 292.8 158 L 317.33333333333337 158 L 341.8666666666667 244.20112781954887 L 366.40000000000003 261.0949814294773 L 390.93333333333334 158 L 415.4666666666667 257.40929884953346 L 440 278.86846634658934 L 464.53333333333336 279 L 489.0666666666667 278.8547649243591 L 513.6 279 L 538.1333333333334 264.88479481837123 L 562.6666666666667 239.40288975450676 L 587.2 259.7111377842196 L 611.7333333333333 266.2768593169671 L 636.2666666666667 278.98629857776973 L 660.8000000000001 207.9279826071202 L 685.3333333333334 158 L 709.8666666666667 272.90834767641996 L 734.4000000000001 203.3845909955612 L 758.9333333333334 166.56886946281367 L 783.4666666666667 247.81008243500315 L 808 277.21607482561825" fill="none" stroke="#3fb950" stroke-width="2"/><path d="M 72 279 L 72 279 L 96.53333333333333 279 L 121.06666666666666 280.5592218498052 L 145.60000000000002 279 L 170.13333333333333 279 L 194.66666666666669 279.1096113778422 L 219.20000000000002 400 L 243.73333333333335 298.3381873358094 L 268.26666666666665 328.34704230455657 L 292.8 290.5064543889845 L 317.33333333333337 312.8260712021016 L 341.8666666666667 284.68609022556393 L 366.40000000000003 284.5709982788296 L 390.93333333333334 281.5649062415074 L 415.4666666666667 279.8056436271401 L 440 292.328743545611 L 464.53333333333336 279 L 489.0666666666667 279.1233128000725 L 513.6 279 L 538.1333333333334 279.31239242685024 L 562.6666666666667 281.2607346679953 L 587.2 284.4668674698795 L 611.7333333333333 279.1698976356554 L 636.2666666666667 279 L 660.8000000000001 280.5126370142223 L 685.3333333333334 292.5233037412809 L 709.8666666666667 279.22744360902254 L 734.4000000000001 282.4034332820002 L 758.9333333333334 281.4251517347586 L 783.4666666666667 293.47966301295406 L 808 279.1342739378567 L 808 279 Z" fill="#f85149" opacity="0.15"/><path d="M 72 279 L 72 279 L 96.53333333333333 279 L 121.06666666666666 280.5592218498052 L 145.60000000000002 279 L 170.13333333333333 279 L 194.66666666666669 279.1096113778422 L 219.20000000000002 400 L 243.73333333333335 298.3381873358094 L 268.26666666666665 328.34704230455657 L 292.8 290.5064543889845 L 317.33333333333337 312.8260712021016 L 341.8666666666667 284.68609022556393 L 366.40000000000003 284.5709982788296 L 390.93333333333334 281.5649062415074 L 415.4666666666667 279.8056436271401 L 440 292.328743545611 L 464.53333333333336 279 L 489.0666666666667 279.1233128000725 L 513.6 279 L 538.1333333333334 279.31239242685024 L 562.6666666666667 281.2607346679953 L 587.2 284.4668674698795 L 611.7333333333333 279.1698976356554 L 636.2666666666667 279 L 660.8000000000001 280.5126370142223 L 685.3333333333334 292.5233037412809 L 709.8666666666667 279.22744360902254 L 734.4000000000001 282.4034332820002 L 758.9333333333334 281.4251517347586 L 783.4666666666667 293.47966301295406 L 808 279.1342739378567" fill="none" stroke="#f85149" stroke-width="2"/><text x="72" y="426" fill="#6e7681" font-size="10" font-family="'Segoe UI', sans-serif" text-anchor="middle">Mar 30</text><text x="194.66666666666669" y="426" fill="#6e7681" font-size="10" font-family="'Segoe UI', sans-serif" text-anchor="middle">Apr 4</text><text x="317.33333333333337" y="426" fill="#6e7681" font-size="10" font-family="'Segoe UI', sans-serif" text-anchor="middle">Apr 9</text><text x="440" y="426" fill="#6e7681" font-size="10" font-family="'Segoe UI', sans-serif" text-anchor="middle">Apr 14</text><text x="562.6666666666667" y="426" fill="#6e7681" font-size="10" font-family="'Segoe UI', sans-serif" text-anchor="middle">Apr 19</text><text x="685.3333333333334" y="426" fill="#6e7681" font-size="10" font-family="'Segoe UI', sans-serif" text-anchor="middle">Apr 24</text><text x="808" y="426" fill="#6e7681" font-size="10" font-family="'Segoe UI', sans-serif" text-anchor="middle">Apr 29</text>
  </g>

  <!-- Legend -->
  <g class="cpd-legend">
    <circle cx="30" cy="442" r="5" fill="#3fb950"/>
    <text x="40" y="446" fill="#8b949e" font-size="11" font-family="'Segoe UI', sans-serif">Additions</text>
    <circle cx="124" cy="442" r="5" fill="#f85149"/>
    <text x="134" y="446" fill="#8b949e" font-size="11" font-family="'Segoe UI', sans-serif">Deletions</text>
    <text x="816" y="446" fill="#6e7681" font-size="10" font-family="'Segoe UI', sans-serif" text-anchor="end">Last 31 days · +6,676,044 / -1,762,023 lines</text>
  </g>

  <!-- Get your own -->
  <a href="https://github.com/mpge/code-per-day" target="_blank">
    <text x="420" y="452" fill="#6e7681" font-size="10" font-family="'Segoe UI', sans-serif" text-anchor="middle" opacity="0.6">Get your own — github.com/mpge/code-per-day</text>
  </a>
</svg>