<svg width="840" height="460" viewBox="0 0 840 460" xmlns="http://www.w3.org/2000/svg">
  
    <style>
      @keyframes fadeInUp {
        from { opacity: 0; transform: translateY(12px); }
        to   { opacity: 1; transform: translateY(0); }
      }
      @keyframes growBar {
        from { transform: scaleY(0); }
        to   { transform: scaleY(1); }
      }
      .cpd-header  { animation: fadeInUp 0.5s ease both; }
      .cpd-stats   { animation: fadeInUp 0.5s ease 0.15s both; }
      .cpd-chart   { animation: fadeInUp 0.5s ease 0.3s both; }
      .cpd-legend  { animation: fadeInUp 0.5s ease 0.45s both; }
    </style>

  <rect width="840" height="460" rx="12" fill="#141321" stroke="#2d2b55" stroke-width="1"/>

  <g class="cpd-header">
    <a href="https://github.com/mpge/code-per-day" target="_blank">
      <text x="24" y="44" fill="#ff7edb" font-size="18" font-family="'Segoe UI', sans-serif" font-weight="700">Code Per Day</text>
    </a>
    <text x="816" y="44" fill="#544d8a" font-size="13" font-family="'Segoe UI', sans-serif" text-anchor="end" font-weight="500">@mpge</text>
  </g>

  <g class="cpd-stats">
    
    <rect x="24" y="60" width="190" height="68" rx="8" fill="#0f0e1a" stroke="#2d2b55" stroke-width="1"/>
    <text x="119" y="78" fill="#544d8a" font-size="11" font-family="'Segoe UI', sans-serif" text-anchor="middle" font-weight="500">Today</text>
    <text x="119" y="100" fill="#fad000" font-size="16" font-family="'Segoe UI Mono', 'Cascadia Code', monospace" text-anchor="middle" font-weight="700">+4,731</text>
    <text x="119" y="118" fill="#ff628c" font-size="14" font-family="'Segoe UI Mono', 'Cascadia Code', monospace" text-anchor="middle" font-weight="600">-3,642</text>
    <rect x="222" y="60" width="190" height="68" rx="8" fill="#0f0e1a" stroke="#2d2b55" stroke-width="1"/>
    <text x="317" y="78" fill="#544d8a" font-size="11" font-family="'Segoe UI', sans-serif" text-anchor="middle" font-weight="500">30d Avg</text>
    <text x="317" y="100" fill="#fad000" font-size="16" font-family="'Segoe UI Mono', 'Cascadia Code', monospace" text-anchor="middle" font-weight="700">+40,205</text>
    <text x="317" y="118" fill="#ff628c" font-size="14" font-family="'Segoe UI Mono', 'Cascadia Code', monospace" text-anchor="middle" font-weight="600">-4,962</text>
    <rect x="420" y="60" width="190" height="68" rx="8" fill="#0f0e1a" stroke="#2d2b55" stroke-width="1"/>
    <text x="515" y="78" fill="#544d8a" font-size="11" font-family="'Segoe UI', sans-serif" text-anchor="middle" font-weight="500">Year Avg</text>
    <text x="515" y="100" fill="#fad000" font-size="16" font-family="'Segoe UI Mono', 'Cascadia Code', monospace" text-anchor="middle" font-weight="700">+24,971</text>
    <text x="515" y="118" fill="#ff628c" font-size="14" font-family="'Segoe UI Mono', 'Cascadia Code', monospace" text-anchor="middle" font-weight="600">-6,761</text>
    <rect x="618" y="60" width="190" height="68" rx="8" fill="#0f0e1a" stroke="#2d2b55" stroke-width="1"/>
    <text x="713" y="78" fill="#544d8a" font-size="11" font-family="'Segoe UI', sans-serif" text-anchor="middle" font-weight="500">Streak</text>
    <text x="713" y="104" fill="#ff7edb" font-size="20" font-family="'Segoe UI Mono', 'Cascadia Code', monospace" text-anchor="middle" font-weight="700">176</text>
    <text x="713" y="120" fill="#544d8a" font-size="11" font-family="'Segoe UI', sans-serif" text-anchor="middle">days</text>
  </g>

  <g class="cpd-chart">
    <line x1="72" y1="148" x2="808" y2="148" stroke="#252340" stroke-width="1" stroke-dasharray="4,4"/><line x1="72" y1="213.5" x2="808" y2="213.5" stroke="#252340" stroke-width="1" stroke-dasharray="4,4"/><line x1="72" y1="279" x2="808" y2="279" stroke="#252340" stroke-width="1" stroke-dasharray="4,4"/><line x1="72" y1="344.5" x2="808" y2="344.5" stroke="#252340" stroke-width="1" stroke-dasharray="4,4"/><line x1="72" y1="410" x2="808" y2="410" stroke="#252340" stroke-width="1" stroke-dasharray="4,4"/><line x1="72" y1="279" x2="808" y2="279" stroke="#2d2b55" stroke-width="1.5"/><text x="64" y="162" fill="#544d8a" font-size="10" font-family="'Segoe UI', sans-serif" text-anchor="end">+32,870</text><text x="64" y="406" fill="#544d8a" font-size="10" font-family="'Segoe UI', sans-serif" text-anchor="end">-32,870</text><text x="64" y="283" fill="#544d8a" font-size="10" font-family="'Segoe UI', sans-serif" text-anchor="end">0</text><path d="M 72 279 L 72 278.9815941588074 L 96.53333333333333 183.52522056586554 L 121.06666666666666 158 L 145.60000000000002 270.81676300578033 L 170.13333333333333 177.42184362640705 L 194.66666666666669 158 L 219.20000000000002 237.10094310921812 L 243.73333333333335 269.6314268329784 L 268.26666666666665 227.85752966230604 L 292.8 247.25728627928203 L 317.33333333333337 158 L 341.8666666666667 256.5080620626711 L 366.40000000000003 266.5981442044417 L 390.93333333333334 196.2657438393672 L 415.4666666666667 249.20094310921814 L 440 211.1192576817767 L 464.53333333333336 158 L 489.0666666666667 274.2034377852145 L 513.6 234.98427137207182 L 538.1333333333334 223.49534529966536 L 562.6666666666667 266.41408579251595 L 587.2 246.92598113781565 L 611.7333333333333 264.0544569516276 L 636.2666666666667 261.26045025859446 L 660.8000000000001 277.2624885914207 L 685.3333333333334 158 L 709.8666666666667 158 L 734.4000000000001 158 L 758.9333333333334 197.85232735016734 L 783.4666666666667 276.8207484027989 L 808 261.58439306358383 L 808 279 Z" fill="#fad000" opacity="0.15"/><path d="M 72 279 L 72 278.9815941588074 L 96.53333333333333 183.52522056586554 L 121.06666666666666 158 L 145.60000000000002 270.81676300578033 L 170.13333333333333 177.42184362640705 L 194.66666666666669 158 L 219.20000000000002 237.10094310921812 L 243.73333333333335 269.6314268329784 L 268.26666666666665 227.85752966230604 L 292.8 247.25728627928203 L 317.33333333333337 158 L 341.8666666666667 256.5080620626711 L 366.40000000000003 266.5981442044417 L 390.93333333333334 196.2657438393672 L 415.4666666666667 249.20094310921814 L 440 211.1192576817767 L 464.53333333333336 158 L 489.0666666666667 274.2034377852145 L 513.6 234.98427137207182 L 538.1333333333334 223.49534529966536 L 562.6666666666667 266.41408579251595 L 587.2 246.92598113781565 L 611.7333333333333 264.0544569516276 L 636.2666666666667 261.26045025859446 L 660.8000000000001 277.2624885914207 L 685.3333333333334 158 L 709.8666666666667 158 L 734.4000000000001 158 L 758.9333333333334 197.85232735016734 L 783.4666666666667 276.8207484027989 L 808 261.58439306358383" fill="none" stroke="#fad000" stroke-width="2"/><path d="M 72 279 L 72 279 L 96.53333333333333 281.0320048676605 L 121.06666666666666 297.16656525707333 L 145.60000000000002 279.3055369637968 L 170.13333333333333 283.5720109522361 L 194.66666666666669 282.2578338910861 L 219.20000000000002 298.4512929723152 L 243.73333333333335 280.9915120170368 L 268.26666666666665 296.14688165500456 L 292.8 284.9009126863401 L 317.33333333333337 309.03465165804687 L 341.8666666666667 289.4913294797688 L 366.40000000000003 283.6934895041071 L 390.93333333333334 285.8027989047764 L 415.4666666666667 281.86763005780347 L 440 296.0953452996653 L 464.53333333333336 400 L 489.0666666666667 280.89948281107394 L 513.6 282.9977487070277 L 538.1333333333334 289.1821113477335 L 562.6666666666667 279.3533921508975 L 587.2 291.2362032248251 L 611.7333333333333 282.55600851840586 L 636.2666666666667 280.9510191664131 L 660.8000000000001 279.35707331913596 L 685.3333333333334 283.80024338302405 L 709.8666666666667 288.7293276543961 L 734.4000000000001 400 L 758.9333333333334 311.06665652570734 L 783.4666666666667 280.443017949498 L 808 292.4068147246729 L 808 279 Z" fill="#ff628c" opacity="0.15"/><path d="M 72 279 L 72 279 L 96.53333333333333 281.0320048676605 L 121.06666666666666 297.16656525707333 L 145.60000000000002 279.3055369637968 L 170.13333333333333 283.5720109522361 L 194.66666666666669 282.2578338910861 L 219.20000000000002 298.4512929723152 L 243.73333333333335 280.9915120170368 L 268.26666666666665 296.14688165500456 L 292.8 284.9009126863401 L 317.33333333333337 309.03465165804687 L 341.8666666666667 289.4913294797688 L 366.40000000000003 283.6934895041071 L 390.93333333333334 285.8027989047764 L 415.4666666666667 281.86763005780347 L 440 296.0953452996653 L 464.53333333333336 400 L 489.0666666666667 280.89948281107394 L 513.6 282.9977487070277 L 538.1333333333334 289.1821113477335 L 562.6666666666667 279.3533921508975 L 587.2 291.2362032248251 L 611.7333333333333 282.55600851840586 L 636.2666666666667 280.9510191664131 L 660.8000000000001 279.35707331913596 L 685.3333333333334 283.80024338302405 L 709.8666666666667 288.7293276543961 L 734.4000000000001 400 L 758.9333333333334 311.06665652570734 L 783.4666666666667 280.443017949498 L 808 292.4068147246729" fill="none" stroke="#ff628c" stroke-width="2"/><text x="72" y="426" fill="#544d8a" font-size="10" font-family="'Segoe UI', sans-serif" text-anchor="middle">Apr 22</text><text x="194.66666666666669" y="426" fill="#544d8a" font-size="10" font-family="'Segoe UI', sans-serif" text-anchor="middle">Apr 27</text><text x="317.33333333333337" y="426" fill="#544d8a" font-size="10" font-family="'Segoe UI', sans-serif" text-anchor="middle">May 2</text><text x="440" y="426" fill="#544d8a" font-size="10" font-family="'Segoe UI', sans-serif" text-anchor="middle">May 7</text><text x="562.6666666666667" y="426" fill="#544d8a" font-size="10" font-family="'Segoe UI', sans-serif" text-anchor="middle">May 12</text><text x="685.3333333333334" y="426" fill="#544d8a" font-size="10" font-family="'Segoe UI', sans-serif" text-anchor="middle">May 17</text><text x="808" y="426" fill="#544d8a" font-size="10" font-family="'Segoe UI', sans-serif" text-anchor="middle">May 22</text>
  </g>

  <g class="cpd-legend">
    
    <circle cx="30" cy="442" r="5" fill="#fad000"/>
    <text x="40" y="446" fill="#a599e9" font-size="11" font-family="'Segoe UI', sans-serif">Additions</text>
    <circle cx="124" cy="442" r="5" fill="#ff628c"/>
    <text x="134" y="446" fill="#a599e9" font-size="11" font-family="'Segoe UI', sans-serif">Deletions</text>
    <text x="816" y="446" fill="#544d8a" font-size="10" font-family="'Segoe UI', sans-serif" text-anchor="end">Last 31 days · +1,246,352 / -153,808 lines</text>
  </g>

  <a href="https://github.com/mpge/code-per-day" target="_blank">
    <text x="420" y="452" fill="#544d8a" font-size="10" font-family="'Segoe UI', sans-serif" text-anchor="middle" opacity="0.6">Get your own - github.com/mpge/code-per-day</text>
  </a>
</svg>