<svg width="840" height="460" viewBox="0 0 840 460" xmlns="http://www.w3.org/2000/svg">
  
    <style>
      @keyframes fadeInUp {
        from { opacity: 0; transform: translateY(12px); }
        to   { opacity: 1; transform: translateY(0); }
      }
      @keyframes growBar {
        from { transform: scaleY(0); }
        to   { transform: scaleY(1); }
      }
      .cpd-header  { animation: fadeInUp 0.5s ease both; }
      .cpd-stats   { animation: fadeInUp 0.5s ease 0.15s both; }
      .cpd-chart   { animation: fadeInUp 0.5s ease 0.3s both; }
      .cpd-legend  { animation: fadeInUp 0.5s ease 0.45s both; }
    </style>

  <rect width="840" height="460" rx="12" fill="#1a1b26" stroke="#414868" stroke-width="1"/>

  <g class="cpd-header">
    <a href="https://github.com/mpge/code-per-day" target="_blank">
      <text x="24" y="44" fill="#c0caf5" font-size="18" font-family="'Segoe UI', sans-serif" font-weight="700">Code Per Day</text>
    </a>
    <text x="816" y="44" fill="#565f89" font-size="13" font-family="'Segoe UI', sans-serif" text-anchor="end" font-weight="500">@mpge</text>
  </g>

  <g class="cpd-stats">
    
    <rect x="24" y="60" width="190" height="68" rx="8" fill="#16161e" stroke="#414868" stroke-width="1"/>
    <text x="119" y="78" fill="#565f89" font-size="11" font-family="'Segoe UI', sans-serif" text-anchor="middle" font-weight="500">Today</text>
    <text x="119" y="100" fill="#9ece6a" font-size="16" font-family="'Segoe UI Mono', 'Cascadia Code', monospace" text-anchor="middle" font-weight="700">+1,392</text>
    <text x="119" y="118" fill="#f7768e" font-size="14" font-family="'Segoe UI Mono', 'Cascadia Code', monospace" text-anchor="middle" font-weight="600">-54</text>
    <rect x="222" y="60" width="190" height="68" rx="8" fill="#16161e" stroke="#414868" stroke-width="1"/>
    <text x="317" y="78" fill="#565f89" font-size="11" font-family="'Segoe UI', sans-serif" text-anchor="middle" font-weight="500">30d Avg</text>
    <text x="317" y="100" fill="#9ece6a" font-size="16" font-family="'Segoe UI Mono', 'Cascadia Code', monospace" text-anchor="middle" font-weight="700">+19,817</text>
    <text x="317" y="118" fill="#f7768e" font-size="14" font-family="'Segoe UI Mono', 'Cascadia Code', monospace" text-anchor="middle" font-weight="600">-7,722</text>
    <rect x="420" y="60" width="190" height="68" rx="8" fill="#16161e" stroke="#414868" stroke-width="1"/>
    <text x="515" y="78" fill="#565f89" font-size="11" font-family="'Segoe UI', sans-serif" text-anchor="middle" font-weight="500">Year Avg</text>
    <text x="515" y="100" fill="#9ece6a" font-size="16" font-family="'Segoe UI Mono', 'Cascadia Code', monospace" text-anchor="middle" font-weight="700">+25,445</text>
    <text x="515" y="118" fill="#f7768e" font-size="14" font-family="'Segoe UI Mono', 'Cascadia Code', monospace" text-anchor="middle" font-weight="600">-7,069</text>
    <rect x="618" y="60" width="190" height="68" rx="8" fill="#16161e" stroke="#414868" stroke-width="1"/>
    <text x="713" y="78" fill="#565f89" font-size="11" font-family="'Segoe UI', sans-serif" text-anchor="middle" font-weight="500">Streak</text>
    <text x="713" y="104" fill="#7aa2f7" font-size="20" font-family="'Segoe UI Mono', 'Cascadia Code', monospace" text-anchor="middle" font-weight="700">189</text>
    <text x="713" y="120" fill="#565f89" font-size="11" font-family="'Segoe UI', sans-serif" text-anchor="middle">days</text>
  </g>

  <g class="cpd-chart">
    <line x1="72" y1="148" x2="808" y2="148" stroke="#292e42" stroke-width="1" stroke-dasharray="4,4"/><line x1="72" y1="213.5" x2="808" y2="213.5" stroke="#292e42" stroke-width="1" stroke-dasharray="4,4"/><line x1="72" y1="279" x2="808" y2="279" stroke="#292e42" stroke-width="1" stroke-dasharray="4,4"/><line x1="72" y1="344.5" x2="808" y2="344.5" stroke="#292e42" stroke-width="1" stroke-dasharray="4,4"/><line x1="72" y1="410" x2="808" y2="410" stroke="#292e42" stroke-width="1" stroke-dasharray="4,4"/><line x1="72" y1="279" x2="808" y2="279" stroke="#414868" stroke-width="1.5"/><text x="64" y="162" fill="#565f89" font-size="10" font-family="'Segoe UI', sans-serif" text-anchor="end">+35,739</text><text x="64" y="406" fill="#565f89" font-size="10" font-family="'Segoe UI', sans-serif" text-anchor="end">-35,739</text><text x="64" y="283" fill="#565f89" font-size="10" font-family="'Segoe UI', sans-serif" text-anchor="end">0</text><path d="M 72 279 L 72 251.5931055709449 L 96.53333333333333 216.56848261003387 L 121.06666666666666 158 L 145.60000000000002 274.58848876577406 L 170.13333333333333 238.5176977531548 L 194.66666666666669 227.95106186518927 L 219.20000000000002 267.4244382887042 L 243.73333333333335 249.50076946752847 L 268.26666666666665 265.2542320714066 L 292.8 262.6845183133272 L 317.33333333333337 277.40196983687287 L 341.8666666666667 158 L 366.40000000000003 158 L 390.93333333333334 158 L 415.4666666666667 204.36657433056325 L 440 276.99569098184054 L 464.53333333333336 262.9824561403509 L 489.0666666666667 235.98522622345337 L 513.6 234.20098491843646 L 538.1333333333334 263.009541397353 L 562.6666666666667 264.6989843028624 L 587.2 267.2890120036934 L 611.7333333333333 208.06032625423205 L 636.2666666666667 239.55032317636196 L 660.8000000000001 249.36195752539243 L 685.3333333333334 158 L 709.8666666666667 216.3755001538935 L 734.4000000000001 158 L 758.9333333333334 211.74730686365035 L 783.4666666666667 256.9526008002462 L 808 274.2871652816251 L 808 279 Z" fill="#9ece6a" opacity="0.15"/><path d="M 72 279 L 72 251.5931055709449 L 96.53333333333333 216.56848261003387 L 121.06666666666666 158 L 145.60000000000002 274.58848876577406 L 170.13333333333333 238.5176977531548 L 194.66666666666669 227.95106186518927 L 219.20000000000002 267.4244382887042 L 243.73333333333335 249.50076946752847 L 268.26666666666665 265.2542320714066 L 292.8 262.6845183133272 L 317.33333333333337 277.40196983687287 L 341.8666666666667 158 L 366.40000000000003 158 L 390.93333333333334 158 L 415.4666666666667 204.36657433056325 L 440 276.99569098184054 L 464.53333333333336 262.9824561403509 L 489.0666666666667 235.98522622345337 L 513.6 234.20098491843646 L 538.1333333333334 263.009541397353 L 562.6666666666667 264.6989843028624 L 587.2 267.2890120036934 L 611.7333333333333 208.06032625423205 L 636.2666666666667 239.55032317636196 L 660.8000000000001 249.36195752539243 L 685.3333333333334 158 L 709.8666666666667 216.3755001538935 L 734.4000000000001 158 L 758.9333333333334 211.74730686365035 L 783.4666666666667 256.9526008002462 L 808 274.2871652816251" fill="none" stroke="#9ece6a" stroke-width="2"/><path d="M 72 279 L 72 281.6374269005848 L 96.53333333333333 294.7229916897507 L 121.06666666666666 400 L 145.60000000000002 280.746999076639 L 170.13333333333333 282.6768236380425 L 194.66666666666669 288.36472760849495 L 219.20000000000002 279.3250230840259 L 243.73333333333335 290.2539242843952 L 268.26666666666665 282.27054478301017 L 292.8 280.7943982763927 L 317.33333333333337 279.3284087411511 L 341.8666666666667 283.4148968913512 L 366.40000000000003 287.9482917820868 L 390.93333333333334 400 L 415.4666666666667 308.492459218221 L 440 280.32717759310555 L 464.53333333333336 291.33056325023085 L 489.0666666666667 297.4213604185903 L 513.6 292.34626038781164 L 538.1333333333334 281.89473684210526 L 562.6666666666667 283.6078793474915 L 587.2 284.6337334564481 L 611.7333333333333 294.62142197599263 L 636.2666666666667 296.62911665127734 L 660.8000000000001 281.42074484456754 L 685.3333333333334 324.8891966759003 L 709.8666666666667 400 L 734.4000000000001 382.33702677747 L 758.9333333333334 297.4281317328409 L 783.4666666666667 282.4093567251462 L 808 279.1828254847645 L 808 279 Z" fill="#f7768e" opacity="0.15"/><path d="M 72 279 L 72 281.6374269005848 L 96.53333333333333 294.7229916897507 L 121.06666666666666 400 L 145.60000000000002 280.746999076639 L 170.13333333333333 282.6768236380425 L 194.66666666666669 288.36472760849495 L 219.20000000000002 279.3250230840259 L 243.73333333333335 290.2539242843952 L 268.26666666666665 282.27054478301017 L 292.8 280.7943982763927 L 317.33333333333337 279.3284087411511 L 341.8666666666667 283.4148968913512 L 366.40000000000003 287.9482917820868 L 390.93333333333334 400 L 415.4666666666667 308.492459218221 L 440 280.32717759310555 L 464.53333333333336 291.33056325023085 L 489.0666666666667 297.4213604185903 L 513.6 292.34626038781164 L 538.1333333333334 281.89473684210526 L 562.6666666666667 283.6078793474915 L 587.2 284.6337334564481 L 611.7333333333333 294.62142197599263 L 636.2666666666667 296.62911665127734 L 660.8000000000001 281.42074484456754 L 685.3333333333334 324.8891966759003 L 709.8666666666667 400 L 734.4000000000001 382.33702677747 L 758.9333333333334 297.4281317328409 L 783.4666666666667 282.4093567251462 L 808 279.1828254847645" fill="none" stroke="#f7768e" stroke-width="2"/><text x="72" y="426" fill="#565f89" font-size="10" font-family="'Segoe UI', sans-serif" text-anchor="middle">May 6</text><text x="194.66666666666669" y="426" fill="#565f89" font-size="10" font-family="'Segoe UI', sans-serif" text-anchor="middle">May 11</text><text x="317.33333333333337" y="426" fill="#565f89" font-size="10" font-family="'Segoe UI', sans-serif" text-anchor="middle">May 16</text><text x="440" y="426" fill="#565f89" font-size="10" font-family="'Segoe UI', sans-serif" text-anchor="middle">May 21</text><text x="562.6666666666667" y="426" fill="#565f89" font-size="10" font-family="'Segoe UI', sans-serif" text-anchor="middle">May 26</text><text x="685.3333333333334" y="426" fill="#565f89" font-size="10" font-family="'Segoe UI', sans-serif" text-anchor="middle">May 31</text><text x="808" y="426" fill="#565f89" font-size="10" font-family="'Segoe UI', sans-serif" text-anchor="middle">Jun 5</text>
  </g>

  <g class="cpd-legend">
    
    <circle cx="30" cy="442" r="5" fill="#9ece6a"/>
    <text x="40" y="446" fill="#a9b1d6" font-size="11" font-family="'Segoe UI', sans-serif">Additions</text>
    <circle cx="124" cy="442" r="5" fill="#f7768e"/>
    <text x="134" y="446" fill="#a9b1d6" font-size="11" font-family="'Segoe UI', sans-serif">Deletions</text>
    <text x="816" y="446" fill="#565f89" font-size="10" font-family="'Segoe UI', sans-serif" text-anchor="end">Last 31 days · +614,332 / -239,393 lines</text>
  </g>

  <a href="https://github.com/mpge/code-per-day" target="_blank">
    <text x="420" y="452" fill="#565f89" font-size="10" font-family="'Segoe UI', sans-serif" text-anchor="middle" opacity="0.6">Get your own - github.com/mpge/code-per-day</text>
  </a>
</svg>