<svg width="840" height="460" viewBox="0 0 840 460" xmlns="http://www.w3.org/2000/svg">
  
    <style>
      @keyframes fadeInUp {
        from { opacity: 0; transform: translateY(12px); }
        to   { opacity: 1; transform: translateY(0); }
      }
      @keyframes growBar {
        from { transform: scaleY(0); }
        to   { transform: scaleY(1); }
      }
      .cpd-header  { animation: fadeInUp 0.5s ease both; }
      .cpd-stats   { animation: fadeInUp 0.5s ease 0.15s both; }
      .cpd-chart   { animation: fadeInUp 0.5s ease 0.3s both; }
      .cpd-legend  { animation: fadeInUp 0.5s ease 0.45s both; }
    </style>

  <rect width="840" height="460" rx="12" fill="#0d1117" stroke="#30363d" stroke-width="1"/>

  <g class="cpd-header">
    <a href="https://github.com/mpge/code-per-day" target="_blank">
      <text x="24" y="44" fill="#f0f6fc" font-size="18" font-family="'Segoe UI', sans-serif" font-weight="700">Code Per Day</text>
    </a>
    <text x="816" y="44" fill="#484f58" font-size="13" font-family="'Segoe UI', sans-serif" text-anchor="end" font-weight="500">@mpge</text>
  </g>

  <g class="cpd-stats">
    
    <rect x="24" y="60" width="190" height="68" rx="8" fill="#010409" stroke="#30363d" stroke-width="1"/>
    <text x="119" y="78" fill="#484f58" font-size="11" font-family="'Segoe UI', sans-serif" text-anchor="middle" font-weight="500">Today</text>
    <text x="119" y="100" fill="#3fb950" font-size="16" font-family="'Segoe UI Mono', 'Cascadia Code', monospace" text-anchor="middle" font-weight="700">+3,182</text>
    <text x="119" y="118" fill="#f85149" font-size="14" font-family="'Segoe UI Mono', 'Cascadia Code', monospace" text-anchor="middle" font-weight="600">-660</text>
    <rect x="222" y="60" width="190" height="68" rx="8" fill="#010409" stroke="#30363d" stroke-width="1"/>
    <text x="317" y="78" fill="#484f58" font-size="11" font-family="'Segoe UI', sans-serif" text-anchor="middle" font-weight="500">30d Avg</text>
    <text x="317" y="100" fill="#3fb950" font-size="16" font-family="'Segoe UI Mono', 'Cascadia Code', monospace" text-anchor="middle" font-weight="700">+13,075</text>
    <text x="317" y="118" fill="#f85149" font-size="14" font-family="'Segoe UI Mono', 'Cascadia Code', monospace" text-anchor="middle" font-weight="600">-4,017</text>
    <rect x="420" y="60" width="190" height="68" rx="8" fill="#010409" stroke="#30363d" stroke-width="1"/>
    <text x="515" y="78" fill="#484f58" font-size="11" font-family="'Segoe UI', sans-serif" text-anchor="middle" font-weight="500">Year Avg</text>
    <text x="515" y="100" fill="#3fb950" font-size="16" font-family="'Segoe UI Mono', 'Cascadia Code', monospace" text-anchor="middle" font-weight="700">+26,136</text>
    <text x="515" y="118" fill="#f85149" font-size="14" font-family="'Segoe UI Mono', 'Cascadia Code', monospace" text-anchor="middle" font-weight="600">-7,143</text>
    <rect x="618" y="60" width="190" height="68" rx="8" fill="#010409" stroke="#30363d" stroke-width="1"/>
    <text x="713" y="78" fill="#484f58" font-size="11" font-family="'Segoe UI', sans-serif" text-anchor="middle" font-weight="500">Streak</text>
    <text x="713" y="104" fill="#2f81f7" font-size="20" font-family="'Segoe UI Mono', 'Cascadia Code', monospace" text-anchor="middle" font-weight="700">215</text>
    <text x="713" y="120" fill="#484f58" font-size="11" font-family="'Segoe UI', sans-serif" text-anchor="middle">days</text>
  </g>

  <g class="cpd-chart">
    <line x1="72" y1="148" x2="808" y2="148" stroke="#21262d" stroke-width="1" stroke-dasharray="4,4"/><line x1="72" y1="213.5" x2="808" y2="213.5" stroke="#21262d" stroke-width="1" stroke-dasharray="4,4"/><line x1="72" y1="279" x2="808" y2="279" stroke="#21262d" stroke-width="1" stroke-dasharray="4,4"/><line x1="72" y1="344.5" x2="808" y2="344.5" stroke="#21262d" stroke-width="1" stroke-dasharray="4,4"/><line x1="72" y1="410" x2="808" y2="410" stroke="#21262d" stroke-width="1" stroke-dasharray="4,4"/><line x1="72" y1="279" x2="808" y2="279" stroke="#30363d" stroke-width="1.5"/><text x="64" y="162" fill="#484f58" font-size="10" font-family="'Segoe UI', sans-serif" text-anchor="end">+17,622</text><text x="64" y="406" fill="#484f58" font-size="10" font-family="'Segoe UI', sans-serif" text-anchor="end">-17,622</text><text x="64" y="283" fill="#484f58" font-size="10" font-family="'Segoe UI', sans-serif" text-anchor="end">0</text><path d="M 72 279 L 72 158 L 96.53333333333333 158 L 121.06666666666666 158 L 145.60000000000002 158 L 170.13333333333333 234.28589263420724 L 194.66666666666669 181.750936329588 L 219.20000000000002 277.6816479400749 L 243.73333333333335 279 L 268.26666666666665 266.53058676654183 L 292.8 279 L 317.33333333333337 249.84519350811485 L 341.8666666666667 279 L 366.40000000000003 278.48501872659176 L 390.93333333333334 276.26716604244695 L 415.4666666666667 246.97503121098626 L 440 274.06991260923843 L 464.53333333333336 279 L 489.0666666666667 269.18789013732834 L 513.6 245.20349563046193 L 538.1333333333334 240.74032459425717 L 562.6666666666667 257.9132334581773 L 587.2 158 L 611.7333333333333 220.2852684144819 L 636.2666666666667 158 L 660.8000000000001 229.14294631710362 L 685.3333333333334 231.23720349563047 L 709.8666666666667 266.3863920099875 L 734.4000000000001 269.2565543071161 L 758.9333333333334 247.9569288389513 L 783.4666666666667 158 L 808 257.1510611735331 L 808 279 Z" fill="#3fb950" opacity="0.15"/><path d="M 72 279 L 72 158 L 96.53333333333333 158 L 121.06666666666666 158 L 145.60000000000002 158 L 170.13333333333333 234.28589263420724 L 194.66666666666669 181.750936329588 L 219.20000000000002 277.6816479400749 L 243.73333333333335 279 L 268.26666666666665 266.53058676654183 L 292.8 279 L 317.33333333333337 249.84519350811485 L 341.8666666666667 279 L 366.40000000000003 278.48501872659176 L 390.93333333333334 276.26716604244695 L 415.4666666666667 246.97503121098626 L 440 274.06991260923843 L 464.53333333333336 279 L 489.0666666666667 269.18789013732834 L 513.6 245.20349563046193 L 538.1333333333334 240.74032459425717 L 562.6666666666667 257.9132334581773 L 587.2 158 L 611.7333333333333 220.2852684144819 L 636.2666666666667 158 L 660.8000000000001 229.14294631710362 L 685.3333333333334 231.23720349563047 L 709.8666666666667 266.3863920099875 L 734.4000000000001 269.2565543071161 L 758.9333333333334 247.9569288389513 L 783.4666666666667 158 L 808 257.1510611735331" fill="none" stroke="#3fb950" stroke-width="2"/><path d="M 72 279 L 72 372.0674157303371 L 96.53333333333333 400 L 121.06666666666666 400 L 145.60000000000002 316.3739076154807 L 170.13333333333333 285.914481897628 L 194.66666666666669 292.856429463171 L 219.20000000000002 279.41198501872657 L 243.73333333333335 279 L 268.26666666666665 279.07553058676655 L 292.8 279 L 317.33333333333337 279.56304619225966 L 341.8666666666667 279 L 366.40000000000003 279.6111111111111 L 390.93333333333334 280.44194756554305 L 415.4666666666667 310.1529338327091 L 440 279.2059925093633 L 464.53333333333336 279 L 489.0666666666667 281.43071161048687 L 513.6 282.55680399500625 L 538.1333333333334 285.65355805243445 L 562.6666666666667 279.7621722846442 L 587.2 317.75405742821476 L 611.7333333333333 285.1385767790262 L 636.2666666666667 297.42259675405745 L 660.8000000000001 286.74531835205994 L 685.3333333333334 279.4669163545568 L 709.8666666666667 280.15355805243445 L 734.4000000000001 279.5905118601748 L 758.9333333333334 280.9569288389513 L 783.4666666666667 335.812734082397 L 808 283.53183520599254 L 808 279 Z" fill="#f85149" opacity="0.15"/><path d="M 72 279 L 72 372.0674157303371 L 96.53333333333333 400 L 121.06666666666666 400 L 145.60000000000002 316.3739076154807 L 170.13333333333333 285.914481897628 L 194.66666666666669 292.856429463171 L 219.20000000000002 279.41198501872657 L 243.73333333333335 279 L 268.26666666666665 279.07553058676655 L 292.8 279 L 317.33333333333337 279.56304619225966 L 341.8666666666667 279 L 366.40000000000003 279.6111111111111 L 390.93333333333334 280.44194756554305 L 415.4666666666667 310.1529338327091 L 440 279.2059925093633 L 464.53333333333336 279 L 489.0666666666667 281.43071161048687 L 513.6 282.55680399500625 L 538.1333333333334 285.65355805243445 L 562.6666666666667 279.7621722846442 L 587.2 317.75405742821476 L 611.7333333333333 285.1385767790262 L 636.2666666666667 297.42259675405745 L 660.8000000000001 286.74531835205994 L 685.3333333333334 279.4669163545568 L 709.8666666666667 280.15355805243445 L 734.4000000000001 279.5905118601748 L 758.9333333333334 280.9569288389513 L 783.4666666666667 335.812734082397 L 808 283.53183520599254" fill="none" stroke="#f85149" stroke-width="2"/><text x="72" y="426" fill="#484f58" font-size="10" font-family="'Segoe UI', sans-serif" text-anchor="middle">May 31</text><text x="194.66666666666669" y="426" fill="#484f58" font-size="10" font-family="'Segoe UI', sans-serif" text-anchor="middle">Jun 5</text><text x="317.33333333333337" y="426" fill="#484f58" font-size="10" font-family="'Segoe UI', sans-serif" text-anchor="middle">Jun 10</text><text x="440" y="426" fill="#484f58" font-size="10" font-family="'Segoe UI', sans-serif" text-anchor="middle">Jun 15</text><text x="562.6666666666667" y="426" fill="#484f58" font-size="10" font-family="'Segoe UI', sans-serif" text-anchor="middle">Jun 20</text><text x="685.3333333333334" y="426" fill="#484f58" font-size="10" font-family="'Segoe UI', sans-serif" text-anchor="middle">Jun 25</text><text x="808" y="426" fill="#484f58" font-size="10" font-family="'Segoe UI', sans-serif" text-anchor="middle">Jun 30</text>
  </g>

  <g class="cpd-legend">
    
    <circle cx="30" cy="442" r="5" fill="#3fb950"/>
    <text x="40" y="446" fill="#7d8590" font-size="11" font-family="'Segoe UI', sans-serif">Additions</text>
    <circle cx="124" cy="442" r="5" fill="#f85149"/>
    <text x="134" y="446" fill="#7d8590" font-size="11" font-family="'Segoe UI', sans-serif">Deletions</text>
    <text x="816" y="446" fill="#484f58" font-size="10" font-family="'Segoe UI', sans-serif" text-anchor="end">Last 31 days · +405,327 / -124,526 lines</text>
  </g>

  <a href="https://github.com/mpge/code-per-day" target="_blank">
    <text x="420" y="452" fill="#484f58" font-size="10" font-family="'Segoe UI', sans-serif" text-anchor="middle" opacity="0.6">Get your own - github.com/mpge/code-per-day</text>
  </a>
</svg>