<svg width="840" height="460" viewBox="0 0 840 460" xmlns="http://www.w3.org/2000/svg">
  
    <style>
      @keyframes fadeInUp {
        from { opacity: 0; transform: translateY(12px); }
        to   { opacity: 1; transform: translateY(0); }
      }
      @keyframes growBar {
        from { transform: scaleY(0); }
        to   { transform: scaleY(1); }
      }
      .cpd-header  { animation: fadeInUp 0.5s ease both; }
      .cpd-stats   { animation: fadeInUp 0.5s ease 0.15s both; }
      .cpd-chart   { animation: fadeInUp 0.5s ease 0.3s both; }
      .cpd-legend  { animation: fadeInUp 0.5s ease 0.45s both; }
    </style>

  <rect width="840" height="460" rx="12" fill="#2e3440" stroke="#4c566a" stroke-width="1"/>

  <g class="cpd-header">
    <a href="https://github.com/mpge/code-per-day" target="_blank">
      <text x="24" y="44" fill="#eceff4" font-size="18" font-family="'Segoe UI', sans-serif" font-weight="700">Code Per Day</text>
    </a>
    <text x="816" y="44" fill="#81a1c1" font-size="13" font-family="'Segoe UI', sans-serif" text-anchor="end" font-weight="500">@mpge</text>
  </g>

  <g class="cpd-stats">
    
    <rect x="24" y="60" width="190" height="68" rx="8" fill="#2e3440" stroke="#4c566a" stroke-width="1"/>
    <text x="119" y="78" fill="#81a1c1" font-size="11" font-family="'Segoe UI', sans-serif" text-anchor="middle" font-weight="500">Today</text>
    <text x="119" y="100" fill="#a3be8c" font-size="16" font-family="'Segoe UI Mono', 'Cascadia Code', monospace" text-anchor="middle" font-weight="700">+7,566</text>
    <text x="119" y="118" fill="#bf616a" font-size="14" font-family="'Segoe UI Mono', 'Cascadia Code', monospace" text-anchor="middle" font-weight="600">-2,048</text>
    <rect x="222" y="60" width="190" height="68" rx="8" fill="#2e3440" stroke="#4c566a" stroke-width="1"/>
    <text x="317" y="78" fill="#81a1c1" font-size="11" font-family="'Segoe UI', sans-serif" text-anchor="middle" font-weight="500">30d Avg</text>
    <text x="317" y="100" fill="#a3be8c" font-size="16" font-family="'Segoe UI Mono', 'Cascadia Code', monospace" text-anchor="middle" font-weight="700">+40,022</text>
    <text x="317" y="118" fill="#bf616a" font-size="14" font-family="'Segoe UI Mono', 'Cascadia Code', monospace" text-anchor="middle" font-weight="600">-5,185</text>
    <rect x="420" y="60" width="190" height="68" rx="8" fill="#2e3440" stroke="#4c566a" stroke-width="1"/>
    <text x="515" y="78" fill="#81a1c1" font-size="11" font-family="'Segoe UI', sans-serif" text-anchor="middle" font-weight="500">Year Avg</text>
    <text x="515" y="100" fill="#a3be8c" font-size="16" font-family="'Segoe UI Mono', 'Cascadia Code', monospace" text-anchor="middle" font-weight="700">+24,988</text>
    <text x="515" y="118" fill="#bf616a" font-size="14" font-family="'Segoe UI Mono', 'Cascadia Code', monospace" text-anchor="middle" font-weight="600">-6,781</text>
    <rect x="618" y="60" width="190" height="68" rx="8" fill="#2e3440" stroke="#4c566a" stroke-width="1"/>
    <text x="713" y="78" fill="#81a1c1" font-size="11" font-family="'Segoe UI', sans-serif" text-anchor="middle" font-weight="500">Streak</text>
    <text x="713" y="104" fill="#88c0d0" font-size="20" font-family="'Segoe UI Mono', 'Cascadia Code', monospace" text-anchor="middle" font-weight="700">178</text>
    <text x="713" y="120" fill="#81a1c1" font-size="11" font-family="'Segoe UI', sans-serif" text-anchor="middle">days</text>
  </g>

  <g class="cpd-chart">
    <line x1="72" y1="148" x2="808" y2="148" stroke="#434c5e" stroke-width="1" stroke-dasharray="4,4"/><line x1="72" y1="213.5" x2="808" y2="213.5" stroke="#434c5e" stroke-width="1" stroke-dasharray="4,4"/><line x1="72" y1="279" x2="808" y2="279" stroke="#434c5e" stroke-width="1" stroke-dasharray="4,4"/><line x1="72" y1="344.5" x2="808" y2="344.5" stroke="#434c5e" stroke-width="1" stroke-dasharray="4,4"/><line x1="72" y1="410" x2="808" y2="410" stroke="#434c5e" stroke-width="1" stroke-dasharray="4,4"/><line x1="72" y1="279" x2="808" y2="279" stroke="#4c566a" stroke-width="1.5"/><text x="64" y="162" fill="#81a1c1" font-size="10" font-family="'Segoe UI', sans-serif" text-anchor="end">+29,808</text><text x="64" y="406" fill="#81a1c1" font-size="10" font-family="'Segoe UI', sans-serif" text-anchor="end">-29,808</text><text x="64" y="283" fill="#81a1c1" font-size="10" font-family="'Segoe UI', sans-serif" text-anchor="end">0</text><path d="M 72 279 L 72 158 L 96.53333333333333 269.97614734299515 L 121.06666666666666 166.9873188405797 L 145.60000000000002 158 L 170.13333333333333 232.7969001610306 L 194.66666666666669 268.66904857756305 L 219.20000000000002 222.6039653784219 L 243.73333333333335 243.99654455179817 L 268.26666666666665 158 L 292.8 254.19759796027913 L 317.33333333333337 265.32417471819645 L 341.8666666666667 187.76694176060118 L 366.40000000000003 246.13986178207193 L 390.93333333333334 204.14626945786367 L 415.4666666666667 158 L 440 273.71071524422973 L 464.53333333333336 230.46279522275898 L 489.0666666666667 217.79367954911433 L 513.6 265.12120907139024 L 538.1333333333334 243.63120638754697 L 562.6666666666667 262.5191894793344 L 587.2 259.4381709608159 L 611.7333333333333 277.0840042941492 L 636.2666666666667 158 L 660.8000000000001 158 L 685.3333333333334 158 L 709.8666666666667 189.51650563607086 L 734.4000000000001 276.5968867418143 L 758.9333333333334 259.79539049919487 L 783.4666666666667 227.42642914653783 L 808 248.2872383252818 L 808 279 Z" fill="#a3be8c" opacity="0.15"/><path d="M 72 279 L 72 158 L 96.53333333333333 269.97614734299515 L 121.06666666666666 166.9873188405797 L 145.60000000000002 158 L 170.13333333333333 232.7969001610306 L 194.66666666666669 268.66904857756305 L 219.20000000000002 222.6039653784219 L 243.73333333333335 243.99654455179817 L 268.26666666666665 158 L 292.8 254.19759796027913 L 317.33333333333337 265.32417471819645 L 341.8666666666667 187.76694176060118 L 366.40000000000003 246.13986178207193 L 390.93333333333334 204.14626945786367 L 415.4666666666667 158 L 440 273.71071524422973 L 464.53333333333336 230.46279522275898 L 489.0666666666667 217.79367954911433 L 513.6 265.12120907139024 L 538.1333333333334 243.63120638754697 L 562.6666666666667 262.5191894793344 L 587.2 259.4381709608159 L 611.7333333333333 277.0840042941492 L 636.2666666666667 158 L 660.8000000000001 158 L 685.3333333333334 158 L 709.8666666666667 189.51650563607086 L 734.4000000000001 276.5968867418143 L 758.9333333333334 259.79539049919487 L 783.4666666666667 227.42642914653783 L 808 248.2872383252818" fill="none" stroke="#a3be8c" stroke-width="2"/><path d="M 72 279 L 72 299.03270933977456 L 96.53333333333333 279.33692297369834 L 121.06666666666666 284.0416666666667 L 145.60000000000002 282.5924919484702 L 170.13333333333333 300.44940955448203 L 194.66666666666669 281.1960882984434 L 219.20000000000002 297.90827965646804 L 243.73333333333335 285.5070786366076 L 268.26666666666665 312.11993424584006 L 292.8 290.5690418679549 L 317.33333333333337 284.17562399355876 L 341.8666666666667 286.50161030595814 L 366.40000000000003 282.162204777241 L 390.93333333333334 297.8514492753623 L 415.4666666666667 400 L 440 281.0946054750403 L 464.53333333333336 283.40841384863126 L 489.0666666666667 290.22805958132045 L 513.6 279.389694041868 L 538.1333333333334 292.4931561996779 L 562.6666666666667 282.9212962962963 L 587.2 281.151435856146 L 611.7333333333333 279.39375335480406 L 636.2666666666667 284.2933440687064 L 660.8000000000001 289.72876409017715 L 685.3333333333334 400 L 709.8666666666667 314.36067498658076 L 734.4000000000001 280.5912506709608 L 758.9333333333334 293.78401771336553 L 783.4666666666667 301.0867216854536 L 808 287.313472893183 L 808 279 Z" fill="#bf616a" opacity="0.15"/><path d="M 72 279 L 72 299.03270933977456 L 96.53333333333333 279.33692297369834 L 121.06666666666666 284.0416666666667 L 145.60000000000002 282.5924919484702 L 170.13333333333333 300.44940955448203 L 194.66666666666669 281.1960882984434 L 219.20000000000002 297.90827965646804 L 243.73333333333335 285.5070786366076 L 268.26666666666665 312.11993424584006 L 292.8 290.5690418679549 L 317.33333333333337 284.17562399355876 L 341.8666666666667 286.50161030595814 L 366.40000000000003 282.162204777241 L 390.93333333333334 297.8514492753623 L 415.4666666666667 400 L 440 281.0946054750403 L 464.53333333333336 283.40841384863126 L 489.0666666666667 290.22805958132045 L 513.6 279.389694041868 L 538.1333333333334 292.4931561996779 L 562.6666666666667 282.9212962962963 L 587.2 281.151435856146 L 611.7333333333333 279.39375335480406 L 636.2666666666667 284.2933440687064 L 660.8000000000001 289.72876409017715 L 685.3333333333334 400 L 709.8666666666667 314.36067498658076 L 734.4000000000001 280.5912506709608 L 758.9333333333334 293.78401771336553 L 783.4666666666667 301.0867216854536 L 808 287.313472893183" fill="none" stroke="#bf616a" stroke-width="2"/><text x="72" y="426" fill="#81a1c1" font-size="10" font-family="'Segoe UI', sans-serif" text-anchor="middle">Apr 24</text><text x="194.66666666666669" y="426" fill="#81a1c1" font-size="10" font-family="'Segoe UI', sans-serif" text-anchor="middle">Apr 29</text><text x="317.33333333333337" y="426" fill="#81a1c1" font-size="10" font-family="'Segoe UI', sans-serif" text-anchor="middle">May 4</text><text x="440" y="426" fill="#81a1c1" font-size="10" font-family="'Segoe UI', sans-serif" text-anchor="middle">May 9</text><text x="562.6666666666667" y="426" fill="#81a1c1" font-size="10" font-family="'Segoe UI', sans-serif" text-anchor="middle">May 14</text><text x="685.3333333333334" y="426" fill="#81a1c1" font-size="10" font-family="'Segoe UI', sans-serif" text-anchor="middle">May 19</text><text x="808" y="426" fill="#81a1c1" font-size="10" font-family="'Segoe UI', sans-serif" text-anchor="middle">May 24</text>
  </g>

  <g class="cpd-legend">
    
    <circle cx="30" cy="442" r="5" fill="#a3be8c"/>
    <text x="40" y="446" fill="#d8dee9" font-size="11" font-family="'Segoe UI', sans-serif">Additions</text>
    <circle cx="124" cy="442" r="5" fill="#bf616a"/>
    <text x="134" y="446" fill="#d8dee9" font-size="11" font-family="'Segoe UI', sans-serif">Deletions</text>
    <text x="816" y="446" fill="#81a1c1" font-size="10" font-family="'Segoe UI', sans-serif" text-anchor="end">Last 31 days · +1,240,682 / -160,745 lines</text>
  </g>

  <a href="https://github.com/mpge/code-per-day" target="_blank">
    <text x="420" y="452" fill="#81a1c1" font-size="10" font-family="'Segoe UI', sans-serif" text-anchor="middle" opacity="0.6">Get your own - github.com/mpge/code-per-day</text>
  </a>
</svg>