<svg width="840" height="460" viewBox="0 0 840 460" xmlns="http://www.w3.org/2000/svg">
  
    <style>
      @keyframes fadeInUp {
        from { opacity: 0; transform: translateY(12px); }
        to   { opacity: 1; transform: translateY(0); }
      }
      @keyframes growBar {
        from { transform: scaleY(0); }
        to   { transform: scaleY(1); }
      }
      .cpd-header  { animation: fadeInUp 0.5s ease both; }
      .cpd-stats   { animation: fadeInUp 0.5s ease 0.15s both; }
      .cpd-chart   { animation: fadeInUp 0.5s ease 0.3s both; }
      .cpd-legend  { animation: fadeInUp 0.5s ease 0.45s both; }
    </style>

  <!-- Background -->
  <rect width="840" height="460" rx="12" fill="#020024" stroke="#1a1a5e" stroke-width="1"/>

  <!-- Header -->
  <g class="cpd-header">
    <a href="https://github.com/mpge/code-per-day" target="_blank">
      <text x="24" y="44" fill="#e0e0ff" font-size="18" font-family="'Segoe UI', sans-serif" font-weight="700">Code Per Day</text>
    </a>
    <text x="816" y="44" fill="#6060a0" font-size="13" font-family="'Segoe UI', sans-serif" text-anchor="end" font-weight="500">@mpge</text>
  </g>

  <!-- Stats Cards -->
  <g class="cpd-stats">
    
    <rect x="24" y="60" width="190" height="68" rx="8" fill="#010018" stroke="#1a1a5e" stroke-width="1"/>
    <text x="119" y="78" fill="#6060a0" font-size="11" font-family="'Segoe UI', sans-serif" text-anchor="middle" font-weight="500">Today</text>
    <text x="119" y="100" fill="#00d4aa" font-size="16" font-family="'Segoe UI Mono', 'Cascadia Code', monospace" text-anchor="middle" font-weight="700">+1,941</text>
    <text x="119" y="118" fill="#ff4477" font-size="14" font-family="'Segoe UI Mono', 'Cascadia Code', monospace" text-anchor="middle" font-weight="600">-1,000</text>
    <rect x="222" y="60" width="190" height="68" rx="8" fill="#010018" stroke="#1a1a5e" stroke-width="1"/>
    <text x="317" y="78" fill="#6060a0" font-size="11" font-family="'Segoe UI', sans-serif" text-anchor="middle" font-weight="500">30d Avg</text>
    <text x="317" y="100" fill="#00d4aa" font-size="16" font-family="'Segoe UI Mono', 'Cascadia Code', monospace" text-anchor="middle" font-weight="700">+235,593</text>
    <text x="317" y="118" fill="#ff4477" font-size="14" font-family="'Segoe UI Mono', 'Cascadia Code', monospace" text-anchor="middle" font-weight="600">-57,427</text>
    <rect x="420" y="60" width="190" height="68" rx="8" fill="#010018" stroke="#1a1a5e" stroke-width="1"/>
    <text x="515" y="78" fill="#6060a0" font-size="11" font-family="'Segoe UI', sans-serif" text-anchor="middle" font-weight="500">Year Avg</text>
    <text x="515" y="100" fill="#00d4aa" font-size="16" font-family="'Segoe UI Mono', 'Cascadia Code', monospace" text-anchor="middle" font-weight="700">+23,950</text>
    <text x="515" y="118" fill="#ff4477" font-size="14" font-family="'Segoe UI Mono', 'Cascadia Code', monospace" text-anchor="middle" font-weight="600">-6,450</text>
        <rect x="618" y="60" width="190" height="68" rx="8" fill="#010018" stroke="#1a1a5e" stroke-width="1"/>
        <text x="713" y="78" fill="#6060a0" font-size="11" font-family="'Segoe UI', sans-serif" text-anchor="middle" font-weight="500">Streak</text>
        <text x="713" y="104" fill="#4488ff" font-size="20" font-family="'Segoe UI Mono', 'Cascadia Code', monospace" text-anchor="middle" font-weight="700">158</text>
        <text x="713" y="120" fill="#6060a0" font-size="11" font-family="'Segoe UI', sans-serif" text-anchor="middle">days</text>
  </g>

  <!-- Chart -->
  <g class="cpd-chart">
    <line x1="72" y1="148" x2="808" y2="148" stroke="#101050" stroke-width="1" stroke-dasharray="4,4"/><line x1="72" y1="213.5" x2="808" y2="213.5" stroke="#101050" stroke-width="1" stroke-dasharray="4,4"/><line x1="72" y1="279" x2="808" y2="279" stroke="#101050" stroke-width="1" stroke-dasharray="4,4"/><line x1="72" y1="344.5" x2="808" y2="344.5" stroke="#101050" stroke-width="1" stroke-dasharray="4,4"/><line x1="72" y1="410" x2="808" y2="410" stroke="#101050" stroke-width="1" stroke-dasharray="4,4"/><line x1="72" y1="279" x2="808" y2="279" stroke="#1a1a5e" stroke-width="1.5"/><text x="64" y="162" fill="#6060a0" font-size="10" font-family="'Segoe UI', sans-serif" text-anchor="end">+34,625</text><text x="64" y="406" fill="#6060a0" font-size="10" font-family="'Segoe UI', sans-serif" text-anchor="end">-34,625</text><text x="64" y="283" fill="#6060a0" font-size="10" font-family="'Segoe UI', sans-serif" text-anchor="end">0</text><path d="M 72 279 L 72 215.74102527075812 L 96.53333333333333 158 L 121.06666666666666 158 L 145.60000000000002 158 L 170.13333333333333 158 L 194.66666666666669 158 L 219.20000000000002 234.62226714801443 L 243.73333333333335 256.16638267148016 L 268.26666666666665 158 L 292.8 251.46616606498196 L 317.33333333333337 278.83225992779785 L 341.8666666666667 279 L 366.40000000000003 278.8147870036101 L 390.93333333333334 279 L 415.4666666666667 260.99939350180506 L 440 228.50324909747292 L 464.53333333333336 254.40161732851985 L 489.0666666666667 262.77464259927797 L 513.6 278.9825270758123 L 538.1333333333334 188.3644476534296 L 562.6666666666667 158 L 587.2 271.2315379061372 L 611.7333333333333 182.5704259927798 L 636.2666666666667 158 L 660.8000000000001 239.22463537906137 L 685.3333333333334 270.10628158844764 L 709.8666666666667 230.44973285198557 L 734.4000000000001 248.86619494584838 L 758.9333333333334 158 L 783.4666666666667 257.64808664259925 L 808 272.2170108303249 L 808 279 Z" fill="#00d4aa" opacity="0.15"/><path d="M 72 279 L 72 215.74102527075812 L 96.53333333333333 158 L 121.06666666666666 158 L 145.60000000000002 158 L 170.13333333333333 158 L 194.66666666666669 158 L 219.20000000000002 234.62226714801443 L 243.73333333333335 256.16638267148016 L 268.26666666666665 158 L 292.8 251.46616606498196 L 317.33333333333337 278.83225992779785 L 341.8666666666667 279 L 366.40000000000003 278.8147870036101 L 390.93333333333334 279 L 415.4666666666667 260.99939350180506 L 440 228.50324909747292 L 464.53333333333336 254.40161732851985 L 489.0666666666667 262.77464259927797 L 513.6 278.9825270758123 L 538.1333333333334 188.3644476534296 L 562.6666666666667 158 L 587.2 271.2315379061372 L 611.7333333333333 182.5704259927798 L 636.2666666666667 158 L 660.8000000000001 239.22463537906137 L 685.3333333333334 270.10628158844764 L 709.8666666666667 230.44973285198557 L 734.4000000000001 248.86619494584838 L 758.9333333333334 158 L 783.4666666666667 257.64808664259925 L 808 272.2170108303249" fill="none" stroke="#00d4aa" stroke-width="2"/><path d="M 72 279 L 72 279.13978339350183 L 96.53333333333333 400 L 121.06666666666666 303.66128519855596 L 145.60000000000002 341.93048375451264 L 170.13333333333333 293.673761732852 L 194.66666666666669 322.21753068592056 L 219.20000000000002 286.25126353790614 L 243.73333333333335 286.10449097472923 L 268.26666666666665 282.2709314079422 L 292.8 280.02740794223826 L 317.33333333333337 295.9976606498195 L 341.8666666666667 279 L 366.40000000000003 279.15725631768953 L 390.93333333333334 279 L 415.4666666666667 279.39838267148014 L 440 281.88303249097476 L 464.53333333333336 285.97169675090254 L 489.0666666666667 279.2166642599278 L 513.6 279 L 538.1333333333334 280.9290108303249 L 562.6666666666667 296.2457761732852 L 587.2 279.2900505415162 L 611.7333333333333 283.34027436823106 L 636.2666666666667 282.09270758122744 L 660.8000000000001 297.46538628158845 L 685.3333333333334 280.8905703971119 L 709.8666666666667 295.2777761732852 L 734.4000000000001 284.60181949458484 L 758.9333333333334 307.5123176895307 L 783.4666666666667 288.9595667870036 L 808 282.4945848375451 L 808 279 Z" fill="#ff4477" opacity="0.15"/><path d="M 72 279 L 72 279.13978339350183 L 96.53333333333333 400 L 121.06666666666666 303.66128519855596 L 145.60000000000002 341.93048375451264 L 170.13333333333333 293.673761732852 L 194.66666666666669 322.21753068592056 L 219.20000000000002 286.25126353790614 L 243.73333333333335 286.10449097472923 L 268.26666666666665 282.2709314079422 L 292.8 280.02740794223826 L 317.33333333333337 295.9976606498195 L 341.8666666666667 279 L 366.40000000000003 279.15725631768953 L 390.93333333333334 279 L 415.4666666666667 279.39838267148014 L 440 281.88303249097476 L 464.53333333333336 285.97169675090254 L 489.0666666666667 279.2166642599278 L 513.6 279 L 538.1333333333334 280.9290108303249 L 562.6666666666667 296.2457761732852 L 587.2 279.2900505415162 L 611.7333333333333 283.34027436823106 L 636.2666666666667 282.09270758122744 L 660.8000000000001 297.46538628158845 L 685.3333333333334 280.8905703971119 L 709.8666666666667 295.2777761732852 L 734.4000000000001 284.60181949458484 L 758.9333333333334 307.5123176895307 L 783.4666666666667 288.9595667870036 L 808 282.4945848375451" fill="none" stroke="#ff4477" stroke-width="2"/><text x="72" y="426" fill="#6060a0" font-size="10" font-family="'Segoe UI', sans-serif" text-anchor="middle">Apr 4</text><text x="194.66666666666669" y="426" fill="#6060a0" font-size="10" font-family="'Segoe UI', sans-serif" text-anchor="middle">Apr 9</text><text x="317.33333333333337" y="426" fill="#6060a0" font-size="10" font-family="'Segoe UI', sans-serif" text-anchor="middle">Apr 14</text><text x="440" y="426" fill="#6060a0" font-size="10" font-family="'Segoe UI', sans-serif" text-anchor="middle">Apr 19</text><text x="562.6666666666667" y="426" fill="#6060a0" font-size="10" font-family="'Segoe UI', sans-serif" text-anchor="middle">Apr 24</text><text x="685.3333333333334" y="426" fill="#6060a0" font-size="10" font-family="'Segoe UI', sans-serif" text-anchor="middle">Apr 29</text><text x="808" y="426" fill="#6060a0" font-size="10" font-family="'Segoe UI', sans-serif" text-anchor="middle">May 4</text>
  </g>

  <!-- Legend -->
  <g class="cpd-legend">
    <circle cx="30" cy="442" r="5" fill="#00d4aa"/>
    <text x="40" y="446" fill="#a0a0d0" font-size="11" font-family="'Segoe UI', sans-serif">Additions</text>
    <circle cx="124" cy="442" r="5" fill="#ff4477"/>
    <text x="134" y="446" fill="#a0a0d0" font-size="11" font-family="'Segoe UI', sans-serif">Deletions</text>
    <text x="816" y="446" fill="#6060a0" font-size="10" font-family="'Segoe UI', sans-serif" text-anchor="end">Last 31 days · +7,303,388 / -1,780,239 lines</text>
  </g>

  <!-- Get your own -->
  <a href="https://github.com/mpge/code-per-day" target="_blank">
    <text x="420" y="452" fill="#6060a0" font-size="10" font-family="'Segoe UI', sans-serif" text-anchor="middle" opacity="0.6">Get your own — github.com/mpge/code-per-day</text>
  </a>
</svg>