<svg width="840" height="460" viewBox="0 0 840 460" xmlns="http://www.w3.org/2000/svg">
  
    <style>
      @keyframes fadeInUp {
        from { opacity: 0; transform: translateY(12px); }
        to   { opacity: 1; transform: translateY(0); }
      }
      @keyframes growBar {
        from { transform: scaleY(0); }
        to   { transform: scaleY(1); }
      }
      .cpd-header  { animation: fadeInUp 0.5s ease both; }
      .cpd-stats   { animation: fadeInUp 0.5s ease 0.15s both; }
      .cpd-chart   { animation: fadeInUp 0.5s ease 0.3s both; }
      .cpd-legend  { animation: fadeInUp 0.5s ease 0.45s both; }
    </style>

  <rect width="840" height="460" rx="12" fill="#ffffff" stroke="#d0d7de" stroke-width="1"/>

  <g class="cpd-header">
    <a href="https://github.com/mpge/code-per-day" target="_blank">
      <text x="24" y="44" fill="#1f2328" font-size="18" font-family="'Segoe UI', sans-serif" font-weight="700">Code Per Day</text>
    </a>
    <text x="816" y="44" fill="#8b949e" font-size="13" font-family="'Segoe UI', sans-serif" text-anchor="end" font-weight="500">@mpge</text>
  </g>

  <g class="cpd-stats">
    
    <rect x="24" y="60" width="190" height="68" rx="8" fill="#ffffff" stroke="#d0d7de" stroke-width="1"/>
    <text x="119" y="78" fill="#8b949e" font-size="11" font-family="'Segoe UI', sans-serif" text-anchor="middle" font-weight="500">Today</text>
    <text x="119" y="100" fill="#1a7f37" font-size="16" font-family="'Segoe UI Mono', 'Cascadia Code', monospace" text-anchor="middle" font-weight="700">+3,769</text>
    <text x="119" y="118" fill="#cf222e" font-size="14" font-family="'Segoe UI Mono', 'Cascadia Code', monospace" text-anchor="middle" font-weight="600">-910</text>
    <rect x="222" y="60" width="190" height="68" rx="8" fill="#ffffff" stroke="#d0d7de" stroke-width="1"/>
    <text x="317" y="78" fill="#8b949e" font-size="11" font-family="'Segoe UI', sans-serif" text-anchor="middle" font-weight="500">30d Avg</text>
    <text x="317" y="100" fill="#1a7f37" font-size="16" font-family="'Segoe UI Mono', 'Cascadia Code', monospace" text-anchor="middle" font-weight="700">+32,248</text>
    <text x="317" y="118" fill="#cf222e" font-size="14" font-family="'Segoe UI Mono', 'Cascadia Code', monospace" text-anchor="middle" font-weight="600">-2,969</text>
    <rect x="420" y="60" width="190" height="68" rx="8" fill="#ffffff" stroke="#d0d7de" stroke-width="1"/>
    <text x="515" y="78" fill="#8b949e" font-size="11" font-family="'Segoe UI', sans-serif" text-anchor="middle" font-weight="500">Year Avg</text>
    <text x="515" y="100" fill="#1a7f37" font-size="16" font-family="'Segoe UI Mono', 'Cascadia Code', monospace" text-anchor="middle" font-weight="700">+24,349</text>
    <text x="515" y="118" fill="#cf222e" font-size="14" font-family="'Segoe UI Mono', 'Cascadia Code', monospace" text-anchor="middle" font-weight="600">-6,593</text>
    <rect x="618" y="60" width="190" height="68" rx="8" fill="#ffffff" stroke="#d0d7de" stroke-width="1"/>
    <text x="713" y="78" fill="#8b949e" font-size="11" font-family="'Segoe UI', sans-serif" text-anchor="middle" font-weight="500">Streak</text>
    <text x="713" y="104" fill="#0969da" font-size="20" font-family="'Segoe UI Mono', 'Cascadia Code', monospace" text-anchor="middle" font-weight="700">168</text>
    <text x="713" y="120" fill="#8b949e" font-size="11" font-family="'Segoe UI', sans-serif" text-anchor="middle">days</text>
  </g>

  <g class="cpd-chart">
    <line x1="72" y1="148" x2="808" y2="148" stroke="#eaeef2" stroke-width="1" stroke-dasharray="4,4"/><line x1="72" y1="213.5" x2="808" y2="213.5" stroke="#eaeef2" stroke-width="1" stroke-dasharray="4,4"/><line x1="72" y1="279" x2="808" y2="279" stroke="#eaeef2" stroke-width="1" stroke-dasharray="4,4"/><line x1="72" y1="344.5" x2="808" y2="344.5" stroke="#eaeef2" stroke-width="1" stroke-dasharray="4,4"/><line x1="72" y1="410" x2="808" y2="410" stroke="#eaeef2" stroke-width="1" stroke-dasharray="4,4"/><line x1="72" y1="279" x2="808" y2="279" stroke="#d0d7de" stroke-width="1.5"/><text x="64" y="162" fill="#8b949e" font-size="10" font-family="'Segoe UI', sans-serif" text-anchor="end">+20,418</text><text x="64" y="406" fill="#8b949e" font-size="10" font-family="'Segoe UI', sans-serif" text-anchor="end">-20,418</text><text x="64" y="283" fill="#8b949e" font-size="10" font-family="'Segoe UI', sans-serif" text-anchor="end">0</text><path d="M 72 279 L 72 278.7155451072583 L 96.53333333333333 279 L 121.06666666666666 278.6859143892644 L 145.60000000000002 279 L 170.13333333333333 248.47443432265646 L 194.66666666666669 193.3672249975512 L 219.20000000000002 237.28587520814966 L 243.73333333333335 251.48491527083945 L 268.26666666666665 278.97036928200606 L 292.8 158 L 317.33333333333337 158 L 341.8666666666667 265.8261827799001 L 366.40000000000003 158 L 390.93333333333334 158 L 415.4666666666667 211.54863355862474 L 440 263.9179645410912 L 464.53333333333336 196.66808698207464 L 489.0666666666667 227.89886374767363 L 513.6 158 L 538.1333333333334 242.7912626114213 L 562.6666666666667 259.03482221569203 L 587.2 158 L 611.7333333333333 231.02786756783232 L 636.2666666666667 169.72191203839748 L 660.8000000000001 158 L 685.3333333333334 271.27823489078264 L 709.8666666666667 208.14110098932315 L 734.4000000000001 189.64560681751396 L 758.9333333333334 258.73851503575276 L 783.4666666666667 227.36551082378293 L 808 256.6643647761779 L 808 279 Z" fill="#1a7f37" opacity="0.15"/><path d="M 72 279 L 72 278.7155451072583 L 96.53333333333333 279 L 121.06666666666666 278.6859143892644 L 145.60000000000002 279 L 170.13333333333333 248.47443432265646 L 194.66666666666669 193.3672249975512 L 219.20000000000002 237.28587520814966 L 243.73333333333335 251.48491527083945 L 268.26666666666665 278.97036928200606 L 292.8 158 L 317.33333333333337 158 L 341.8666666666667 265.8261827799001 L 366.40000000000003 158 L 390.93333333333334 158 L 415.4666666666667 211.54863355862474 L 440 263.9179645410912 L 464.53333333333336 196.66808698207464 L 489.0666666666667 227.89886374767363 L 513.6 158 L 538.1333333333334 242.7912626114213 L 562.6666666666667 259.03482221569203 L 587.2 158 L 611.7333333333333 231.02786756783232 L 636.2666666666667 169.72191203839748 L 660.8000000000001 158 L 685.3333333333334 271.27823489078264 L 709.8666666666667 208.14110098932315 L 734.4000000000001 189.64560681751396 L 758.9333333333334 258.73851503575276 L 783.4666666666667 227.36551082378293 L 808 256.6643647761779" fill="none" stroke="#1a7f37" stroke-width="2"/><path d="M 72 279 L 72 307.8247624644921 L 96.53333333333333 279 L 121.06666666666666 279.26667646194534 L 145.60000000000002 279 L 170.13333333333333 279.6755803702615 L 194.66666666666669 283.88906846899795 L 219.20000000000002 290.82265647957684 L 243.73333333333335 279.3674209031247 L 268.26666666666665 279 L 292.8 282.2712312665295 L 317.33333333333337 308.24551866000587 L 341.8666666666667 279.4918699186992 L 366.40000000000003 286.36027034969146 L 390.93333333333334 284.24463708492505 L 415.4666666666667 310.31374277598195 L 440 282.2060436869429 L 464.53333333333336 306.6039768831423 L 489.0666666666667 288.49960818885296 L 513.6 327.35140562248995 L 538.1333333333334 295.88950925653836 L 562.6666666666667 286.5558330884514 L 587.2 289.9515133705554 L 611.7333333333333 283.6164658634538 L 636.2666666666667 306.52101087275935 L 660.8000000000001 400 L 685.3333333333334 282.05789009697327 L 709.8666666666667 285.43579194828095 L 734.4000000000001 295.39171319424037 L 758.9333333333334 279.5689097854834 L 783.4666666666667 298.69850132236263 L 808 284.3927906748947 L 808 279 Z" fill="#cf222e" opacity="0.15"/><path d="M 72 279 L 72 307.8247624644921 L 96.53333333333333 279 L 121.06666666666666 279.26667646194534 L 145.60000000000002 279 L 170.13333333333333 279.6755803702615 L 194.66666666666669 283.88906846899795 L 219.20000000000002 290.82265647957684 L 243.73333333333335 279.3674209031247 L 268.26666666666665 279 L 292.8 282.2712312665295 L 317.33333333333337 308.24551866000587 L 341.8666666666667 279.4918699186992 L 366.40000000000003 286.36027034969146 L 390.93333333333334 284.24463708492505 L 415.4666666666667 310.31374277598195 L 440 282.2060436869429 L 464.53333333333336 306.6039768831423 L 489.0666666666667 288.49960818885296 L 513.6 327.35140562248995 L 538.1333333333334 295.88950925653836 L 562.6666666666667 286.5558330884514 L 587.2 289.9515133705554 L 611.7333333333333 283.6164658634538 L 636.2666666666667 306.52101087275935 L 660.8000000000001 400 L 685.3333333333334 282.05789009697327 L 709.8666666666667 285.43579194828095 L 734.4000000000001 295.39171319424037 L 758.9333333333334 279.5689097854834 L 783.4666666666667 298.69850132236263 L 808 284.3927906748947" fill="none" stroke="#cf222e" stroke-width="2"/><text x="72" y="426" fill="#8b949e" font-size="10" font-family="'Segoe UI', sans-serif" text-anchor="middle">Apr 14</text><text x="194.66666666666669" y="426" fill="#8b949e" font-size="10" font-family="'Segoe UI', sans-serif" text-anchor="middle">Apr 19</text><text x="317.33333333333337" y="426" fill="#8b949e" font-size="10" font-family="'Segoe UI', sans-serif" text-anchor="middle">Apr 24</text><text x="440" y="426" fill="#8b949e" font-size="10" font-family="'Segoe UI', sans-serif" text-anchor="middle">Apr 29</text><text x="562.6666666666667" y="426" fill="#8b949e" font-size="10" font-family="'Segoe UI', sans-serif" text-anchor="middle">May 4</text><text x="685.3333333333334" y="426" fill="#8b949e" font-size="10" font-family="'Segoe UI', sans-serif" text-anchor="middle">May 9</text><text x="808" y="426" fill="#8b949e" font-size="10" font-family="'Segoe UI', sans-serif" text-anchor="middle">May 14</text>
  </g>

  <g class="cpd-legend">
    
    <circle cx="30" cy="442" r="5" fill="#1a7f37"/>
    <text x="40" y="446" fill="#656d76" font-size="11" font-family="'Segoe UI', sans-serif">Additions</text>
    <circle cx="124" cy="442" r="5" fill="#cf222e"/>
    <text x="134" y="446" fill="#656d76" font-size="11" font-family="'Segoe UI', sans-serif">Deletions</text>
    <text x="816" y="446" fill="#8b949e" font-size="10" font-family="'Segoe UI', sans-serif" text-anchor="end">Last 31 days · +999,695 / -92,036 lines</text>
  </g>

  <a href="https://github.com/mpge/code-per-day" target="_blank">
    <text x="420" y="452" fill="#8b949e" font-size="10" font-family="'Segoe UI', sans-serif" text-anchor="middle" opacity="0.6">Get your own - github.com/mpge/code-per-day</text>
  </a>
</svg>