<svg width="840" height="460" viewBox="0 0 840 460" xmlns="http://www.w3.org/2000/svg">
  
    <style>
      @keyframes fadeInUp {
        from { opacity: 0; transform: translateY(12px); }
        to   { opacity: 1; transform: translateY(0); }
      }
      @keyframes growBar {
        from { transform: scaleY(0); }
        to   { transform: scaleY(1); }
      }
      .cpd-header  { animation: fadeInUp 0.5s ease both; }
      .cpd-stats   { animation: fadeInUp 0.5s ease 0.15s both; }
      .cpd-chart   { animation: fadeInUp 0.5s ease 0.3s both; }
      .cpd-legend  { animation: fadeInUp 0.5s ease 0.45s both; }
    </style>

  <rect width="840" height="460" rx="12" fill="#0d1117" stroke="#30363d" stroke-width="1"/>

  <g class="cpd-header">
    <a href="https://github.com/mpge/code-per-day" target="_blank">
      <text x="24" y="44" fill="#f0f6fc" font-size="18" font-family="'Segoe UI', sans-serif" font-weight="700">Code Per Day</text>
    </a>
    <text x="816" y="44" fill="#484f58" font-size="13" font-family="'Segoe UI', sans-serif" text-anchor="end" font-weight="500">@mpge</text>
  </g>

  <g class="cpd-stats">
    
    <rect x="24" y="60" width="190" height="68" rx="8" fill="#010409" stroke="#30363d" stroke-width="1"/>
    <text x="119" y="78" fill="#484f58" font-size="11" font-family="'Segoe UI', sans-serif" text-anchor="middle" font-weight="500">Today</text>
    <text x="119" y="100" fill="#3fb950" font-size="16" font-family="'Segoe UI Mono', 'Cascadia Code', monospace" text-anchor="middle" font-weight="700">+68,890</text>
    <text x="119" y="118" fill="#f85149" font-size="14" font-family="'Segoe UI Mono', 'Cascadia Code', monospace" text-anchor="middle" font-weight="600">-8,274</text>
    <rect x="222" y="60" width="190" height="68" rx="8" fill="#010409" stroke="#30363d" stroke-width="1"/>
    <text x="317" y="78" fill="#484f58" font-size="11" font-family="'Segoe UI', sans-serif" text-anchor="middle" font-weight="500">30d Avg</text>
    <text x="317" y="100" fill="#3fb950" font-size="16" font-family="'Segoe UI Mono', 'Cascadia Code', monospace" text-anchor="middle" font-weight="700">+13,255</text>
    <text x="317" y="118" fill="#f85149" font-size="14" font-family="'Segoe UI Mono', 'Cascadia Code', monospace" text-anchor="middle" font-weight="600">-4,019</text>
    <rect x="420" y="60" width="190" height="68" rx="8" fill="#010409" stroke="#30363d" stroke-width="1"/>
    <text x="515" y="78" fill="#484f58" font-size="11" font-family="'Segoe UI', sans-serif" text-anchor="middle" font-weight="500">Year Avg</text>
    <text x="515" y="100" fill="#3fb950" font-size="16" font-family="'Segoe UI Mono', 'Cascadia Code', monospace" text-anchor="middle" font-weight="700">+26,128</text>
    <text x="515" y="118" fill="#f85149" font-size="14" font-family="'Segoe UI Mono', 'Cascadia Code', monospace" text-anchor="middle" font-weight="600">-7,141</text>
    <rect x="618" y="60" width="190" height="68" rx="8" fill="#010409" stroke="#30363d" stroke-width="1"/>
    <text x="713" y="78" fill="#484f58" font-size="11" font-family="'Segoe UI', sans-serif" text-anchor="middle" font-weight="500">Streak</text>
    <text x="713" y="104" fill="#2f81f7" font-size="20" font-family="'Segoe UI Mono', 'Cascadia Code', monospace" text-anchor="middle" font-weight="700">214</text>
    <text x="713" y="120" fill="#484f58" font-size="11" font-family="'Segoe UI', sans-serif" text-anchor="middle">days</text>
  </g>

  <g class="cpd-chart">
    <line x1="72" y1="148" x2="808" y2="148" stroke="#21262d" stroke-width="1" stroke-dasharray="4,4"/><line x1="72" y1="213.5" x2="808" y2="213.5" stroke="#21262d" stroke-width="1" stroke-dasharray="4,4"/><line x1="72" y1="279" x2="808" y2="279" stroke="#21262d" stroke-width="1" stroke-dasharray="4,4"/><line x1="72" y1="344.5" x2="808" y2="344.5" stroke="#21262d" stroke-width="1" stroke-dasharray="4,4"/><line x1="72" y1="410" x2="808" y2="410" stroke="#21262d" stroke-width="1" stroke-dasharray="4,4"/><line x1="72" y1="279" x2="808" y2="279" stroke="#30363d" stroke-width="1.5"/><text x="64" y="162" fill="#484f58" font-size="10" font-family="'Segoe UI', sans-serif" text-anchor="end">+20,154</text><text x="64" y="406" fill="#484f58" font-size="10" font-family="'Segoe UI', sans-serif" text-anchor="end">-20,154</text><text x="64" y="283" fill="#484f58" font-size="10" font-family="'Segoe UI', sans-serif" text-anchor="end">0</text><path d="M 72 279 L 72 226.4429889848169 L 96.53333333333333 158 L 121.06666666666666 167.94824848665277 L 145.60000000000002 158 L 170.13333333333333 159.7410935794383 L 194.66666666666669 239.90344348516425 L 219.20000000000002 193.96859184281035 L 243.73333333333335 277.84727597499256 L 268.26666666666665 279 L 292.8 268.09715193013795 L 317.33333333333337 279 L 341.8666666666667 253.5079884886375 L 366.40000000000003 279 L 390.93333333333334 278.54971717773145 L 415.4666666666667 276.610499156495 L 440 250.99841222586087 L 464.53333333333336 274.6892924481493 L 489.0666666666667 279 L 513.6 270.4206112930436 L 538.1333333333334 249.44943931725712 L 562.6666666666667 245.54698819092982 L 587.2 260.5624193708445 L 611.7333333333333 158 L 636.2666666666667 227.66175449042373 L 660.8000000000001 158 L 685.3333333333334 235.4066190334425 L 709.8666666666667 237.23776917733454 L 734.4000000000001 267.97107273990275 L 758.9333333333334 270.48064900267934 L 783.4666666666667 251.85695147365288 L 808 158 L 808 279 Z" fill="#3fb950" opacity="0.15"/><path d="M 72 279 L 72 226.4429889848169 L 96.53333333333333 158 L 121.06666666666666 167.94824848665277 L 145.60000000000002 158 L 170.13333333333333 159.7410935794383 L 194.66666666666669 239.90344348516425 L 219.20000000000002 193.96859184281035 L 243.73333333333335 277.84727597499256 L 268.26666666666665 279 L 292.8 268.09715193013795 L 317.33333333333337 279 L 341.8666666666667 253.5079884886375 L 366.40000000000003 279 L 390.93333333333334 278.54971717773145 L 415.4666666666667 276.610499156495 L 440 250.99841222586087 L 464.53333333333336 274.6892924481493 L 489.0666666666667 279 L 513.6 270.4206112930436 L 538.1333333333334 249.44943931725712 L 562.6666666666667 245.54698819092982 L 587.2 260.5624193708445 L 611.7333333333333 158 L 636.2666666666667 227.66175449042373 L 660.8000000000001 158 L 685.3333333333334 235.4066190334425 L 709.8666666666667 237.23776917733454 L 734.4000000000001 267.97107273990275 L 758.9333333333334 270.48064900267934 L 783.4666666666667 251.85695147365288 L 808 158" fill="none" stroke="#3fb950" stroke-width="2"/><path d="M 72 279 L 72 283.29269623896 L 96.53333333333333 360.37511164036914 L 121.06666666666666 400 L 145.60000000000002 400 L 170.13333333333333 311.6785253547683 L 194.66666666666669 285.0457973603255 L 219.20000000000002 291.1156098045053 L 243.73333333333335 279.3602262578148 L 268.26666666666665 279 L 292.8 279.0660414805994 L 317.33333333333337 279 L 341.8666666666667 279.4923092190136 L 366.40000000000003 279 L 390.93333333333334 279.53433561575866 L 415.4666666666667 280.2607919023519 L 440 306.2391088617644 L 464.53333333333336 279.1801131289074 L 489.0666666666667 279 L 513.6 281.1253349211075 L 538.1333333333334 282.10995335913464 L 562.6666666666667 284.8176540637094 L 587.2 279.6664185769574 L 611.7333333333333 312.88528331844793 L 636.2666666666667 284.3673712414409 L 660.8000000000001 295.1081174952863 L 685.3333333333334 285.7722536469187 L 709.8666666666667 279.40825642552346 L 734.4000000000001 280.0086335218815 L 758.9333333333334 279.51632430286793 L 783.4666666666667 280.7110747246204 L 808 328.67520095266445 L 808 279 Z" fill="#f85149" opacity="0.15"/><path d="M 72 279 L 72 283.29269623896 L 96.53333333333333 360.37511164036914 L 121.06666666666666 400 L 145.60000000000002 400 L 170.13333333333333 311.6785253547683 L 194.66666666666669 285.0457973603255 L 219.20000000000002 291.1156098045053 L 243.73333333333335 279.3602262578148 L 268.26666666666665 279 L 292.8 279.0660414805994 L 317.33333333333337 279 L 341.8666666666667 279.4923092190136 L 366.40000000000003 279 L 390.93333333333334 279.53433561575866 L 415.4666666666667 280.2607919023519 L 440 306.2391088617644 L 464.53333333333336 279.1801131289074 L 489.0666666666667 279 L 513.6 281.1253349211075 L 538.1333333333334 282.10995335913464 L 562.6666666666667 284.8176540637094 L 587.2 279.6664185769574 L 611.7333333333333 312.88528331844793 L 636.2666666666667 284.3673712414409 L 660.8000000000001 295.1081174952863 L 685.3333333333334 285.7722536469187 L 709.8666666666667 279.40825642552346 L 734.4000000000001 280.0086335218815 L 758.9333333333334 279.51632430286793 L 783.4666666666667 280.7110747246204 L 808 328.67520095266445" fill="none" stroke="#f85149" stroke-width="2"/><text x="72" y="426" fill="#484f58" font-size="10" font-family="'Segoe UI', sans-serif" text-anchor="middle">May 30</text><text x="194.66666666666669" y="426" fill="#484f58" font-size="10" font-family="'Segoe UI', sans-serif" text-anchor="middle">Jun 4</text><text x="317.33333333333337" y="426" fill="#484f58" font-size="10" font-family="'Segoe UI', sans-serif" text-anchor="middle">Jun 9</text><text x="440" y="426" fill="#484f58" font-size="10" font-family="'Segoe UI', sans-serif" text-anchor="middle">Jun 14</text><text x="562.6666666666667" y="426" fill="#484f58" font-size="10" font-family="'Segoe UI', sans-serif" text-anchor="middle">Jun 19</text><text x="685.3333333333334" y="426" fill="#484f58" font-size="10" font-family="'Segoe UI', sans-serif" text-anchor="middle">Jun 24</text><text x="808" y="426" fill="#484f58" font-size="10" font-family="'Segoe UI', sans-serif" text-anchor="middle">Jun 29</text>
  </g>

  <g class="cpd-legend">
    
    <circle cx="30" cy="442" r="5" fill="#3fb950"/>
    <text x="40" y="446" fill="#7d8590" font-size="11" font-family="'Segoe UI', sans-serif">Additions</text>
    <circle cx="124" cy="442" r="5" fill="#f85149"/>
    <text x="134" y="446" fill="#7d8590" font-size="11" font-family="'Segoe UI', sans-serif">Deletions</text>
    <text x="816" y="446" fill="#484f58" font-size="10" font-family="'Segoe UI', sans-serif" text-anchor="end">Last 31 days · +410,899 / -124,581 lines</text>
  </g>

  <a href="https://github.com/mpge/code-per-day" target="_blank">
    <text x="420" y="452" fill="#484f58" font-size="10" font-family="'Segoe UI', sans-serif" text-anchor="middle" opacity="0.6">Get your own - github.com/mpge/code-per-day</text>
  </a>
</svg>