<svg width="840" height="460" viewBox="0 0 840 460" xmlns="http://www.w3.org/2000/svg">
  
    <style>
      @keyframes fadeInUp {
        from { opacity: 0; transform: translateY(12px); }
        to   { opacity: 1; transform: translateY(0); }
      }
      @keyframes growBar {
        from { transform: scaleY(0); }
        to   { transform: scaleY(1); }
      }
      .cpd-header  { animation: fadeInUp 0.5s ease both; }
      .cpd-stats   { animation: fadeInUp 0.5s ease 0.15s both; }
      .cpd-chart   { animation: fadeInUp 0.5s ease 0.3s both; }
      .cpd-legend  { animation: fadeInUp 0.5s ease 0.45s both; }
    </style>

  <!-- Background -->
  <rect width="840" height="460" rx="12" fill="#0b1a0b" stroke="#1e3a1e" stroke-width="1"/>

  <!-- Header -->
  <g class="cpd-header">
    <a href="https://github.com/mpge/code-per-day" target="_blank">
      <text x="24" y="44" fill="#c8e6c8" font-size="18" font-family="'Segoe UI', sans-serif" font-weight="700">Code Per Day</text>
    </a>
    <text x="816" y="44" fill="#5a7a5a" font-size="13" font-family="'Segoe UI', sans-serif" text-anchor="end" font-weight="500">@mpge</text>
  </g>

  <!-- Stats Cards -->
  <g class="cpd-stats">
    
    <rect x="24" y="60" width="190" height="68" rx="8" fill="#091409" stroke="#1e3a1e" stroke-width="1"/>
    <text x="119" y="78" fill="#5a7a5a" font-size="11" font-family="'Segoe UI', sans-serif" text-anchor="middle" font-weight="500">Today</text>
    <text x="119" y="100" fill="#66ff66" font-size="16" font-family="'Segoe UI Mono', 'Cascadia Code', monospace" text-anchor="middle" font-weight="700">+0</text>
    <text x="119" y="118" fill="#ff8a65" font-size="14" font-family="'Segoe UI Mono', 'Cascadia Code', monospace" text-anchor="middle" font-weight="600">+0</text>
    <rect x="222" y="60" width="190" height="68" rx="8" fill="#091409" stroke="#1e3a1e" stroke-width="1"/>
    <text x="317" y="78" fill="#5a7a5a" font-size="11" font-family="'Segoe UI', sans-serif" text-anchor="middle" font-weight="500">30d Avg</text>
    <text x="317" y="100" fill="#66ff66" font-size="16" font-family="'Segoe UI Mono', 'Cascadia Code', monospace" text-anchor="middle" font-weight="700">+210,525</text>
    <text x="317" y="118" fill="#ff8a65" font-size="14" font-family="'Segoe UI Mono', 'Cascadia Code', monospace" text-anchor="middle" font-weight="600">-56,532</text>
    <rect x="420" y="60" width="190" height="68" rx="8" fill="#091409" stroke="#1e3a1e" stroke-width="1"/>
    <text x="515" y="78" fill="#5a7a5a" font-size="11" font-family="'Segoe UI', sans-serif" text-anchor="middle" font-weight="500">Year Avg</text>
    <text x="515" y="100" fill="#66ff66" font-size="16" font-family="'Segoe UI Mono', 'Cascadia Code', monospace" text-anchor="middle" font-weight="700">+21,691</text>
    <text x="515" y="118" fill="#ff8a65" font-size="14" font-family="'Segoe UI Mono', 'Cascadia Code', monospace" text-anchor="middle" font-weight="600">-6,363</text>
        <rect x="618" y="60" width="190" height="68" rx="8" fill="#091409" stroke="#1e3a1e" stroke-width="1"/>
        <text x="713" y="78" fill="#5a7a5a" font-size="11" font-family="'Segoe UI', sans-serif" text-anchor="middle" font-weight="500">Streak</text>
        <text x="713" y="104" fill="#66ff66" font-size="20" font-family="'Segoe UI Mono', 'Cascadia Code', monospace" text-anchor="middle" font-weight="700">145</text>
        <text x="713" y="120" fill="#5a7a5a" font-size="11" font-family="'Segoe UI', sans-serif" text-anchor="middle">days</text>
  </g>

  <!-- Chart -->
  <g class="cpd-chart">
    <line x1="72" y1="148" x2="808" y2="148" stroke="#1a2e1a" stroke-width="1" stroke-dasharray="4,4"/><line x1="72" y1="213.5" x2="808" y2="213.5" stroke="#1a2e1a" stroke-width="1" stroke-dasharray="4,4"/><line x1="72" y1="279" x2="808" y2="279" stroke="#1a2e1a" stroke-width="1" stroke-dasharray="4,4"/><line x1="72" y1="344.5" x2="808" y2="344.5" stroke="#1a2e1a" stroke-width="1" stroke-dasharray="4,4"/><line x1="72" y1="410" x2="808" y2="410" stroke="#1a2e1a" stroke-width="1" stroke-dasharray="4,4"/><line x1="72" y1="279" x2="808" y2="279" stroke="#1e3a1e" stroke-width="1.5"/><text x="64" y="162" fill="#5a7a5a" font-size="10" font-family="'Segoe UI', sans-serif" text-anchor="end">+35,684</text><text x="64" y="406" fill="#5a7a5a" font-size="10" font-family="'Segoe UI', sans-serif" text-anchor="end">-35,684</text><text x="64" y="283" fill="#5a7a5a" font-size="10" font-family="'Segoe UI', sans-serif" text-anchor="end">0</text><path d="M 72 279 L 72 257.3390875462392 L 96.53333333333333 226.45838471023427 L 121.06666666666666 273.38810110974106 L 145.60000000000002 225.7191738594328 L 170.13333333333333 279 L 194.66666666666669 278.80332922318127 L 219.20000000000002 279 L 243.73333333333335 250.57090012330457 L 268.26666666666665 277.04685573366214 L 292.8 279 L 317.33333333333337 273.9204685573366 L 341.8666666666667 279 L 366.40000000000003 279 L 390.93333333333334 217.61837237977807 L 415.4666666666667 158 L 440 158 L 464.53333333333336 158 L 489.0666666666667 158 L 513.6 158 L 538.1333333333334 235.9392725030826 L 562.6666666666667 256.84401972872996 L 587.2 158 L 611.7333333333333 252.28329223181257 L 636.2666666666667 278.83723797780516 L 660.8000000000001 279 L 685.3333333333334 278.8202836004932 L 709.8666666666667 279 L 734.4000000000001 261.5336004932183 L 758.9333333333334 230.00184956843404 L 783.4666666666667 255.13162762022193 L 808 279 L 808 279 Z" fill="#66ff66" opacity="0.15"/><path d="M 72 279 L 72 257.3390875462392 L 96.53333333333333 226.45838471023427 L 121.06666666666666 273.38810110974106 L 145.60000000000002 225.7191738594328 L 170.13333333333333 279 L 194.66666666666669 278.80332922318127 L 219.20000000000002 279 L 243.73333333333335 250.57090012330457 L 268.26666666666665 277.04685573366214 L 292.8 279 L 317.33333333333337 273.9204685573366 L 341.8666666666667 279 L 366.40000000000003 279 L 390.93333333333334 217.61837237977807 L 415.4666666666667 158 L 440 158 L 464.53333333333336 158 L 489.0666666666667 158 L 513.6 158 L 538.1333333333334 235.9392725030826 L 562.6666666666667 256.84401972872996 L 587.2 158 L 611.7333333333333 252.28329223181257 L 636.2666666666667 278.83723797780516 L 660.8000000000001 279 L 685.3333333333334 278.8202836004932 L 709.8666666666667 279 L 734.4000000000001 261.5336004932183 L 758.9333333333334 230.00184956843404 L 783.4666666666667 255.13162762022193 L 808 279" fill="none" stroke="#66ff66" stroke-width="2"/><path d="M 72 279 L 72 279.67478421701605 L 96.53333333333333 279.14919852034524 L 121.06666666666666 279.38995067817507 L 145.60000000000002 289.0878545006165 L 170.13333333333333 279 L 194.66666666666669 279.1254623921085 L 219.20000000000002 279 L 243.73333333333335 279.57644882860666 L 268.26666666666665 279 L 292.8 279 L 317.33333333333337 280.9294081381011 L 341.8666666666667 279 L 366.40000000000003 279 L 390.93333333333334 279.1356350184957 L 415.4666666666667 400 L 440 302.9294081381011 L 464.53333333333336 340.0628853267571 L 489.0666666666667 293.23828606658446 L 513.6 320.9349568434032 L 538.1333333333334 286.03606658446364 L 562.6666666666667 285.89364981504315 L 587.2 282.173859432799 L 611.7333333333333 279.9969173859433 L 636.2666666666667 295.4932182490752 L 660.8000000000001 279 L 685.3333333333334 279.15258939580764 L 709.8666666666667 279 L 734.4000000000001 279.3865598027127 L 758.9333333333334 281.7974722564735 L 783.4666666666667 285.76479654747226 L 808 279 L 808 279 Z" fill="#ff8a65" opacity="0.15"/><path d="M 72 279 L 72 279.67478421701605 L 96.53333333333333 279.14919852034524 L 121.06666666666666 279.38995067817507 L 145.60000000000002 289.0878545006165 L 170.13333333333333 279 L 194.66666666666669 279.1254623921085 L 219.20000000000002 279 L 243.73333333333335 279.57644882860666 L 268.26666666666665 279 L 292.8 279 L 317.33333333333337 280.9294081381011 L 341.8666666666667 279 L 366.40000000000003 279 L 390.93333333333334 279.1356350184957 L 415.4666666666667 400 L 440 302.9294081381011 L 464.53333333333336 340.0628853267571 L 489.0666666666667 293.23828606658446 L 513.6 320.9349568434032 L 538.1333333333334 286.03606658446364 L 562.6666666666667 285.89364981504315 L 587.2 282.173859432799 L 611.7333333333333 279.9969173859433 L 636.2666666666667 295.4932182490752 L 660.8000000000001 279 L 685.3333333333334 279.15258939580764 L 709.8666666666667 279 L 734.4000000000001 279.3865598027127 L 758.9333333333334 281.7974722564735 L 783.4666666666667 285.76479654747226 L 808 279" fill="none" stroke="#ff8a65" stroke-width="2"/><text x="72" y="426" fill="#5a7a5a" font-size="10" font-family="'Segoe UI', sans-serif" text-anchor="middle">Mar 22</text><text x="194.66666666666669" y="426" fill="#5a7a5a" font-size="10" font-family="'Segoe UI', sans-serif" text-anchor="middle">Mar 27</text><text x="317.33333333333337" y="426" fill="#5a7a5a" font-size="10" font-family="'Segoe UI', sans-serif" text-anchor="middle">Apr 1</text><text x="440" y="426" fill="#5a7a5a" font-size="10" font-family="'Segoe UI', sans-serif" text-anchor="middle">Apr 6</text><text x="562.6666666666667" y="426" fill="#5a7a5a" font-size="10" font-family="'Segoe UI', sans-serif" text-anchor="middle">Apr 11</text><text x="685.3333333333334" y="426" fill="#5a7a5a" font-size="10" font-family="'Segoe UI', sans-serif" text-anchor="middle">Apr 16</text><text x="808" y="426" fill="#5a7a5a" font-size="10" font-family="'Segoe UI', sans-serif" text-anchor="middle">Apr 21</text>
  </g>

  <!-- Legend -->
  <g class="cpd-legend">
    <circle cx="30" cy="442" r="5" fill="#66ff66"/>
    <text x="40" y="446" fill="#8ab88a" font-size="11" font-family="'Segoe UI', sans-serif">Additions</text>
    <circle cx="124" cy="442" r="5" fill="#ff8a65"/>
    <text x="134" y="446" fill="#8ab88a" font-size="11" font-family="'Segoe UI', sans-serif">Deletions</text>
    <text x="816" y="446" fill="#5a7a5a" font-size="10" font-family="'Segoe UI', sans-serif" text-anchor="end">Last 31 days · +6,526,282 / -1,752,494 lines</text>
  </g>

  <!-- Get your own -->
  <a href="https://github.com/mpge/code-per-day" target="_blank">
    <text x="420" y="452" fill="#5a7a5a" font-size="10" font-family="'Segoe UI', sans-serif" text-anchor="middle" opacity="0.6">Get your own — github.com/mpge/code-per-day</text>
  </a>
</svg>