<svg width="840" height="460" viewBox="0 0 840 460" xmlns="http://www.w3.org/2000/svg">
  
    <style>
      @keyframes fadeInUp {
        from { opacity: 0; transform: translateY(12px); }
        to   { opacity: 1; transform: translateY(0); }
      }
      @keyframes growBar {
        from { transform: scaleY(0); }
        to   { transform: scaleY(1); }
      }
      .cpd-header  { animation: fadeInUp 0.5s ease both; }
      .cpd-stats   { animation: fadeInUp 0.5s ease 0.15s both; }
      .cpd-chart   { animation: fadeInUp 0.5s ease 0.3s both; }
      .cpd-legend  { animation: fadeInUp 0.5s ease 0.45s both; }
    </style>

  <rect width="840" height="460" rx="12" fill="#1a1b26" stroke="#414868" stroke-width="1"/>

  <g class="cpd-header">
    <a href="https://github.com/mpge/code-per-day" target="_blank">
      <text x="24" y="44" fill="#c0caf5" font-size="18" font-family="'Segoe UI', sans-serif" font-weight="700">Code Per Day</text>
    </a>
    <text x="816" y="44" fill="#565f89" font-size="13" font-family="'Segoe UI', sans-serif" text-anchor="end" font-weight="500">@mpge</text>
  </g>

  <g class="cpd-stats">
    
    <rect x="24" y="60" width="190" height="68" rx="8" fill="#16161e" stroke="#414868" stroke-width="1"/>
    <text x="119" y="78" fill="#565f89" font-size="11" font-family="'Segoe UI', sans-serif" text-anchor="middle" font-weight="500">Today</text>
    <text x="119" y="100" fill="#9ece6a" font-size="16" font-family="'Segoe UI Mono', 'Cascadia Code', monospace" text-anchor="middle" font-weight="700">+1,883</text>
    <text x="119" y="118" fill="#f7768e" font-size="14" font-family="'Segoe UI Mono', 'Cascadia Code', monospace" text-anchor="middle" font-weight="600">-1,852</text>
    <rect x="222" y="60" width="190" height="68" rx="8" fill="#16161e" stroke="#414868" stroke-width="1"/>
    <text x="317" y="78" fill="#565f89" font-size="11" font-family="'Segoe UI', sans-serif" text-anchor="middle" font-weight="500">30d Avg</text>
    <text x="317" y="100" fill="#9ece6a" font-size="16" font-family="'Segoe UI Mono', 'Cascadia Code', monospace" text-anchor="middle" font-weight="700">+8,548</text>
    <text x="317" y="118" fill="#f7768e" font-size="14" font-family="'Segoe UI Mono', 'Cascadia Code', monospace" text-anchor="middle" font-weight="600">-972</text>
    <rect x="420" y="60" width="190" height="68" rx="8" fill="#16161e" stroke="#414868" stroke-width="1"/>
    <text x="515" y="78" fill="#565f89" font-size="11" font-family="'Segoe UI', sans-serif" text-anchor="middle" font-weight="500">Year Avg</text>
    <text x="515" y="100" fill="#9ece6a" font-size="16" font-family="'Segoe UI Mono', 'Cascadia Code', monospace" text-anchor="middle" font-weight="700">+26,156</text>
    <text x="515" y="118" fill="#f7768e" font-size="14" font-family="'Segoe UI Mono', 'Cascadia Code', monospace" text-anchor="middle" font-weight="600">-7,152</text>
    <rect x="618" y="60" width="190" height="68" rx="8" fill="#16161e" stroke="#414868" stroke-width="1"/>
    <text x="713" y="78" fill="#565f89" font-size="11" font-family="'Segoe UI', sans-serif" text-anchor="middle" font-weight="500">Streak</text>
    <text x="713" y="104" fill="#7aa2f7" font-size="20" font-family="'Segoe UI Mono', 'Cascadia Code', monospace" text-anchor="middle" font-weight="700">223</text>
    <text x="713" y="120" fill="#565f89" font-size="11" font-family="'Segoe UI', sans-serif" text-anchor="middle">days</text>
  </g>

  <g class="cpd-chart">
    <line x1="72" y1="148" x2="808" y2="148" stroke="#292e42" stroke-width="1" stroke-dasharray="4,4"/><line x1="72" y1="213.5" x2="808" y2="213.5" stroke="#292e42" stroke-width="1" stroke-dasharray="4,4"/><line x1="72" y1="279" x2="808" y2="279" stroke="#292e42" stroke-width="1" stroke-dasharray="4,4"/><line x1="72" y1="344.5" x2="808" y2="344.5" stroke="#292e42" stroke-width="1" stroke-dasharray="4,4"/><line x1="72" y1="410" x2="808" y2="410" stroke="#292e42" stroke-width="1" stroke-dasharray="4,4"/><line x1="72" y1="279" x2="808" y2="279" stroke="#414868" stroke-width="1.5"/><text x="64" y="162" fill="#565f89" font-size="10" font-family="'Segoe UI', sans-serif" text-anchor="end">+10,916</text><text x="64" y="406" fill="#565f89" font-size="10" font-family="'Segoe UI', sans-serif" text-anchor="end">-10,916</text><text x="64" y="283" fill="#565f89" font-size="10" font-family="'Segoe UI', sans-serif" text-anchor="end">0</text><path d="M 72 279 L 72 258.8702821546354 L 96.53333333333333 279 L 121.06666666666666 231.93459142543057 L 145.60000000000002 279 L 170.13333333333333 278.1686515207036 L 194.66666666666669 274.5883107365335 L 219.20000000000002 227.3012092341517 L 243.73333333333335 271.04122389153537 L 268.26666666666665 279 L 292.8 263.16004030780505 L 317.33333333333337 224.44137046537193 L 341.8666666666667 217.2363503114694 L 366.40000000000003 244.9590509344082 L 390.93333333333334 158 L 415.4666666666667 184.2151887138146 L 440 158 L 464.53333333333336 198.51438255771345 L 489.0666666666667 201.89519970685234 L 513.6 258.6375045804324 L 538.1333333333334 263.2708867717113 L 562.6666666666667 228.88631366801025 L 587.2 158 L 611.7333333333333 243.72865518504946 L 636.2666666666667 250.95584463173324 L 660.8000000000001 275.3420666910956 L 685.3333333333334 279 L 709.8666666666667 276.14016123122025 L 734.4000000000001 271.3405093440821 L 758.9333333333334 279 L 783.4666666666667 264.20199706852327 L 808 258.1276108464639 L 808 279 Z" fill="#9ece6a" opacity="0.15"/><path d="M 72 279 L 72 258.8702821546354 L 96.53333333333333 279 L 121.06666666666666 231.93459142543057 L 145.60000000000002 279 L 170.13333333333333 278.1686515207036 L 194.66666666666669 274.5883107365335 L 219.20000000000002 227.3012092341517 L 243.73333333333335 271.04122389153537 L 268.26666666666665 279 L 292.8 263.16004030780505 L 317.33333333333337 224.44137046537193 L 341.8666666666667 217.2363503114694 L 366.40000000000003 244.9590509344082 L 390.93333333333334 158 L 415.4666666666667 184.2151887138146 L 440 158 L 464.53333333333336 198.51438255771345 L 489.0666666666667 201.89519970685234 L 513.6 258.6375045804324 L 538.1333333333334 263.2708867717113 L 562.6666666666667 228.88631366801025 L 587.2 158 L 611.7333333333333 243.72865518504946 L 636.2666666666667 250.95584463173324 L 660.8000000000001 275.3420666910956 L 685.3333333333334 279 L 709.8666666666667 276.14016123122025 L 734.4000000000001 271.3405093440821 L 758.9333333333334 279 L 783.4666666666667 264.20199706852327 L 808 258.1276108464639" fill="none" stroke="#9ece6a" stroke-width="2"/><path d="M 72 279 L 72 279.1219311102968 L 96.53333333333333 279 L 121.06666666666666 279.9089410040308 L 145.60000000000002 279 L 170.13333333333333 279.9865335287651 L 194.66666666666669 281.32777574203004 L 219.20000000000002 329.29104067423964 L 243.73333333333335 279.33253939171857 L 268.26666666666665 279 L 292.8 282.92396482227923 L 317.33333333333337 284.74184683034076 L 341.8666666666667 289.7410223525101 L 366.40000000000003 280.23039574935876 L 390.93333333333334 341.5617442286552 L 415.4666666666667 288.90967387321365 L 440 308.7401062660315 L 464.53333333333336 291.50348112861855 L 489.0666666666667 279.7537559545621 L 513.6 280.86222059362404 L 538.1333333333334 279.95327958959325 L 562.6666666666667 282.15912422132646 L 587.2 370.71436423598385 L 611.7333333333333 286.3158666178087 L 636.2666666666667 286.6594906559179 L 660.8000000000001 279 L 685.3333333333334 279 L 709.8666666666667 280.6848662513741 L 734.4000000000001 280.5961890802492 L 758.9333333333334 279 L 783.4666666666667 284.2873763283254 L 808 299.5287651154269 L 808 279 Z" fill="#f7768e" opacity="0.15"/><path d="M 72 279 L 72 279.1219311102968 L 96.53333333333333 279 L 121.06666666666666 279.9089410040308 L 145.60000000000002 279 L 170.13333333333333 279.9865335287651 L 194.66666666666669 281.32777574203004 L 219.20000000000002 329.29104067423964 L 243.73333333333335 279.33253939171857 L 268.26666666666665 279 L 292.8 282.92396482227923 L 317.33333333333337 284.74184683034076 L 341.8666666666667 289.7410223525101 L 366.40000000000003 280.23039574935876 L 390.93333333333334 341.5617442286552 L 415.4666666666667 288.90967387321365 L 440 308.7401062660315 L 464.53333333333336 291.50348112861855 L 489.0666666666667 279.7537559545621 L 513.6 280.86222059362404 L 538.1333333333334 279.95327958959325 L 562.6666666666667 282.15912422132646 L 587.2 370.71436423598385 L 611.7333333333333 286.3158666178087 L 636.2666666666667 286.6594906559179 L 660.8000000000001 279 L 685.3333333333334 279 L 709.8666666666667 280.6848662513741 L 734.4000000000001 280.5961890802492 L 758.9333333333334 279 L 783.4666666666667 284.2873763283254 L 808 299.5287651154269" fill="none" stroke="#f7768e" stroke-width="2"/><text x="72" y="426" fill="#565f89" font-size="10" font-family="'Segoe UI', sans-serif" text-anchor="middle">Jun 8</text><text x="194.66666666666669" y="426" fill="#565f89" font-size="10" font-family="'Segoe UI', sans-serif" text-anchor="middle">Jun 13</text><text x="317.33333333333337" y="426" fill="#565f89" font-size="10" font-family="'Segoe UI', sans-serif" text-anchor="middle">Jun 18</text><text x="440" y="426" fill="#565f89" font-size="10" font-family="'Segoe UI', sans-serif" text-anchor="middle">Jun 23</text><text x="562.6666666666667" y="426" fill="#565f89" font-size="10" font-family="'Segoe UI', sans-serif" text-anchor="middle">Jun 28</text><text x="685.3333333333334" y="426" fill="#565f89" font-size="10" font-family="'Segoe UI', sans-serif" text-anchor="middle">Jul 3</text><text x="808" y="426" fill="#565f89" font-size="10" font-family="'Segoe UI', sans-serif" text-anchor="middle">Jul 8</text>
  </g>

  <g class="cpd-legend">
    
    <circle cx="30" cy="442" r="5" fill="#9ece6a"/>
    <text x="40" y="446" fill="#a9b1d6" font-size="11" font-family="'Segoe UI', sans-serif">Additions</text>
    <circle cx="124" cy="442" r="5" fill="#f7768e"/>
    <text x="134" y="446" fill="#a9b1d6" font-size="11" font-family="'Segoe UI', sans-serif">Deletions</text>
    <text x="816" y="446" fill="#565f89" font-size="10" font-family="'Segoe UI', sans-serif" text-anchor="end">Last 31 days · +264,980 / -30,117 lines</text>
  </g>

  <a href="https://github.com/mpge/code-per-day" target="_blank">
    <text x="420" y="452" fill="#565f89" font-size="10" font-family="'Segoe UI', sans-serif" text-anchor="middle" opacity="0.6">Get your own - github.com/mpge/code-per-day</text>
  </a>
</svg>