<svg width="840" height="460" viewBox="0 0 840 460" xmlns="http://www.w3.org/2000/svg">
  
    <style>
      @keyframes fadeInUp {
        from { opacity: 0; transform: translateY(12px); }
        to   { opacity: 1; transform: translateY(0); }
      }
      @keyframes growBar {
        from { transform: scaleY(0); }
        to   { transform: scaleY(1); }
      }
      .cpd-header  { animation: fadeInUp 0.5s ease both; }
      .cpd-stats   { animation: fadeInUp 0.5s ease 0.15s both; }
      .cpd-chart   { animation: fadeInUp 0.5s ease 0.3s both; }
      .cpd-legend  { animation: fadeInUp 0.5s ease 0.45s both; }
    </style>

  <rect width="840" height="460" rx="12" fill="transparent" />

  <g class="cpd-header">
    <a href="https://github.com/mpge/code-per-day" target="_blank">
      <text x="24" y="44" fill="#e6edf3" font-size="18" font-family="'Segoe UI', sans-serif" font-weight="700">Code Per Day</text>
    </a>
    <text x="816" y="44" fill="#6e7681" font-size="13" font-family="'Segoe UI', sans-serif" text-anchor="end" font-weight="500">@mpge</text>
  </g>

  <g class="cpd-stats">
    
    <rect x="24" y="60" width="190" height="68" rx="8" fill="rgba(13,17,23,0.6)" stroke="#30363d" stroke-width="1"/>
    <text x="119" y="78" fill="#6e7681" font-size="11" font-family="'Segoe UI', sans-serif" text-anchor="middle" font-weight="500">Today</text>
    <text x="119" y="100" fill="#3fb950" font-size="16" font-family="'Segoe UI Mono', 'Cascadia Code', monospace" text-anchor="middle" font-weight="700">+0</text>
    <text x="119" y="118" fill="#f85149" font-size="14" font-family="'Segoe UI Mono', 'Cascadia Code', monospace" text-anchor="middle" font-weight="600">+0</text>
    <rect x="222" y="60" width="190" height="68" rx="8" fill="rgba(13,17,23,0.6)" stroke="#30363d" stroke-width="1"/>
    <text x="317" y="78" fill="#6e7681" font-size="11" font-family="'Segoe UI', sans-serif" text-anchor="middle" font-weight="500">30d Avg</text>
    <text x="317" y="100" fill="#3fb950" font-size="16" font-family="'Segoe UI Mono', 'Cascadia Code', monospace" text-anchor="middle" font-weight="700">+8,763</text>
    <text x="317" y="118" fill="#f85149" font-size="14" font-family="'Segoe UI Mono', 'Cascadia Code', monospace" text-anchor="middle" font-weight="600">-1,162</text>
    <rect x="420" y="60" width="190" height="68" rx="8" fill="rgba(13,17,23,0.6)" stroke="#30363d" stroke-width="1"/>
    <text x="515" y="78" fill="#6e7681" font-size="11" font-family="'Segoe UI', sans-serif" text-anchor="middle" font-weight="500">Year Avg</text>
    <text x="515" y="100" fill="#3fb950" font-size="16" font-family="'Segoe UI Mono', 'Cascadia Code', monospace" text-anchor="middle" font-weight="700">+26,139</text>
    <text x="515" y="118" fill="#f85149" font-size="14" font-family="'Segoe UI Mono', 'Cascadia Code', monospace" text-anchor="middle" font-weight="600">-7,171</text>
    <rect x="618" y="60" width="190" height="68" rx="8" fill="rgba(13,17,23,0.6)" stroke="#30363d" stroke-width="1"/>
    <text x="713" y="78" fill="#6e7681" font-size="11" font-family="'Segoe UI', sans-serif" text-anchor="middle" font-weight="500">Streak</text>
    <text x="713" y="104" fill="#58a6ff" font-size="20" font-family="'Segoe UI Mono', 'Cascadia Code', monospace" text-anchor="middle" font-weight="700">229</text>
    <text x="713" y="120" fill="#6e7681" font-size="11" font-family="'Segoe UI', sans-serif" text-anchor="middle">days</text>
  </g>

  <g class="cpd-chart">
    <line x1="72" y1="148" x2="808" y2="148" stroke="rgba(33,38,45,0.6)" stroke-width="1" stroke-dasharray="4,4"/><line x1="72" y1="213.5" x2="808" y2="213.5" stroke="rgba(33,38,45,0.6)" stroke-width="1" stroke-dasharray="4,4"/><line x1="72" y1="279" x2="808" y2="279" stroke="rgba(33,38,45,0.6)" stroke-width="1" stroke-dasharray="4,4"/><line x1="72" y1="344.5" x2="808" y2="344.5" stroke="rgba(33,38,45,0.6)" stroke-width="1" stroke-dasharray="4,4"/><line x1="72" y1="410" x2="808" y2="410" stroke="rgba(33,38,45,0.6)" stroke-width="1" stroke-dasharray="4,4"/><line x1="72" y1="279" x2="808" y2="279" stroke="#30363d" stroke-width="1.5"/><text x="64" y="162" fill="#6e7681" font-size="10" font-family="'Segoe UI', sans-serif" text-anchor="end">+13,399</text><text x="64" y="406" fill="#6e7681" font-size="10" font-family="'Segoe UI', sans-serif" text-anchor="end">-13,399</text><text x="64" y="283" fill="#6e7681" font-size="10" font-family="'Segoe UI', sans-serif" text-anchor="end">0</text><path d="M 72 279 L 72 272.51608328979773 L 96.53333333333333 279 L 121.06666666666666 266.09538025225766 L 145.60000000000002 234.55175759385028 L 170.13333333333333 228.6819165609374 L 194.66666666666669 251.26725875065304 L 219.20000000000002 158 L 243.73333333333335 201.77998358086424 L 268.26666666666665 158 L 292.8 213.42936040002985 L 317.33333333333337 216.18367042316592 L 341.8666666666667 262.41092618852156 L 366.40000000000003 266.18568549891785 L 390.93333333333334 238.17299798492425 L 415.4666666666667 158 L 440 250.26487051272483 L 464.53333333333336 256.15277259496975 L 489.0666666666667 276.01992686021345 L 513.6 279 L 538.1333333333334 276.67012463616686 L 562.6666666666667 272.7599074557803 L 587.2 279 L 611.7333333333333 266.9442495708635 L 636.2666666666667 261.9955220538846 L 660.8000000000001 279 L 685.3333333333334 279 L 709.8666666666667 182.40950817225166 L 734.4000000000001 219.98552130756028 L 758.9333333333334 273.3649526084036 L 783.4666666666667 278.9458168520039 L 808 279 L 808 279 Z" fill="#3fb950" opacity="0.15"/><path d="M 72 279 L 72 272.51608328979773 L 96.53333333333333 279 L 121.06666666666666 266.09538025225766 L 145.60000000000002 234.55175759385028 L 170.13333333333333 228.6819165609374 L 194.66666666666669 251.26725875065304 L 219.20000000000002 158 L 243.73333333333335 201.77998358086424 L 268.26666666666665 158 L 292.8 213.42936040002985 L 317.33333333333337 216.18367042316592 L 341.8666666666667 262.41092618852156 L 366.40000000000003 266.18568549891785 L 390.93333333333334 238.17299798492425 L 415.4666666666667 158 L 440 250.26487051272483 L 464.53333333333336 256.15277259496975 L 489.0666666666667 276.01992686021345 L 513.6 279 L 538.1333333333334 276.67012463616686 L 562.6666666666667 272.7599074557803 L 587.2 279 L 611.7333333333333 266.9442495708635 L 636.2666666666667 261.9955220538846 L 660.8000000000001 279 L 685.3333333333334 279 L 709.8666666666667 182.40950817225166 L 734.4000000000001 219.98552130756028 L 758.9333333333334 273.3649526084036 L 783.4666666666667 278.9458168520039 L 808 279" fill="none" stroke="#3fb950" stroke-width="2"/><path d="M 72 279 L 72 279.2709157399806 L 96.53333333333333 279 L 121.06666666666666 282.196805731771 L 145.60000000000002 283.6778117769983 L 170.13333333333333 287.7505784013732 L 194.66666666666669 280.0023882379282 L 219.20000000000002 329.968281215016 L 243.73333333333335 287.07328905142174 L 268.26666666666665 303.2288976789313 L 292.8 289.18643182327037 L 317.33333333333337 279.61407567728935 L 341.8666666666667 280.51712814389134 L 366.40000000000003 279.77662512127773 L 390.93333333333334 281.57369952981566 L 415.4666666666667 353.71856108664826 L 440 284.9601462795731 L 464.53333333333336 285.2400925442197 L 489.0666666666667 279 L 513.6 279 L 538.1333333333334 280.372639749235 L 562.6666666666667 280.30039555190683 L 587.2 279 L 611.7333333333333 283.30756026569145 L 636.2666666666667 295.72453168146876 L 660.8000000000001 279 L 685.3333333333334 279 L 709.8666666666667 320.386894544369 L 734.4000000000001 333.02962907679677 L 758.9333333333334 281.47436375848946 L 783.4666666666667 279 L 808 279 L 808 279 Z" fill="#f85149" opacity="0.15"/><path d="M 72 279 L 72 279.2709157399806 L 96.53333333333333 279 L 121.06666666666666 282.196805731771 L 145.60000000000002 283.6778117769983 L 170.13333333333333 287.7505784013732 L 194.66666666666669 280.0023882379282 L 219.20000000000002 329.968281215016 L 243.73333333333335 287.07328905142174 L 268.26666666666665 303.2288976789313 L 292.8 289.18643182327037 L 317.33333333333337 279.61407567728935 L 341.8666666666667 280.51712814389134 L 366.40000000000003 279.77662512127773 L 390.93333333333334 281.57369952981566 L 415.4666666666667 353.71856108664826 L 440 284.9601462795731 L 464.53333333333336 285.2400925442197 L 489.0666666666667 279 L 513.6 279 L 538.1333333333334 280.372639749235 L 562.6666666666667 280.30039555190683 L 587.2 279 L 611.7333333333333 283.30756026569145 L 636.2666666666667 295.72453168146876 L 660.8000000000001 279 L 685.3333333333334 279 L 709.8666666666667 320.386894544369 L 734.4000000000001 333.02962907679677 L 758.9333333333334 281.47436375848946 L 783.4666666666667 279 L 808 279" fill="none" stroke="#f85149" stroke-width="2"/><text x="72" y="426" fill="#6e7681" font-size="10" font-family="'Segoe UI', sans-serif" text-anchor="middle">Jun 15</text><text x="194.66666666666669" y="426" fill="#6e7681" font-size="10" font-family="'Segoe UI', sans-serif" text-anchor="middle">Jun 20</text><text x="317.33333333333337" y="426" fill="#6e7681" font-size="10" font-family="'Segoe UI', sans-serif" text-anchor="middle">Jun 25</text><text x="440" y="426" fill="#6e7681" font-size="10" font-family="'Segoe UI', sans-serif" text-anchor="middle">Jun 30</text><text x="562.6666666666667" y="426" fill="#6e7681" font-size="10" font-family="'Segoe UI', sans-serif" text-anchor="middle">Jul 5</text><text x="685.3333333333334" y="426" fill="#6e7681" font-size="10" font-family="'Segoe UI', sans-serif" text-anchor="middle">Jul 10</text><text x="808" y="426" fill="#6e7681" font-size="10" font-family="'Segoe UI', sans-serif" text-anchor="middle">Jul 15</text>
  </g>

  <g class="cpd-legend">
    
    <circle cx="30" cy="442" r="5" fill="#3fb950"/>
    <text x="40" y="446" fill="#8b949e" font-size="11" font-family="'Segoe UI', sans-serif">Additions</text>
    <circle cx="124" cy="442" r="5" fill="#f85149"/>
    <text x="134" y="446" fill="#8b949e" font-size="11" font-family="'Segoe UI', sans-serif">Deletions</text>
    <text x="816" y="446" fill="#6e7681" font-size="10" font-family="'Segoe UI', sans-serif" text-anchor="end">Last 31 days · +271,642 / -36,028 lines</text>
  </g>

  <a href="https://github.com/mpge/code-per-day" target="_blank">
    <text x="420" y="452" fill="#6e7681" font-size="10" font-family="'Segoe UI', sans-serif" text-anchor="middle" opacity="0.6">Get your own - github.com/mpge/code-per-day</text>
  </a>
</svg>