<svg width="840" height="460" viewBox="0 0 840 460" xmlns="http://www.w3.org/2000/svg">
  
    <style>
      @keyframes fadeInUp {
        from { opacity: 0; transform: translateY(12px); }
        to   { opacity: 1; transform: translateY(0); }
      }
      @keyframes growBar {
        from { transform: scaleY(0); }
        to   { transform: scaleY(1); }
      }
      .cpd-header  { animation: fadeInUp 0.5s ease both; }
      .cpd-stats   { animation: fadeInUp 0.5s ease 0.15s both; }
      .cpd-chart   { animation: fadeInUp 0.5s ease 0.3s both; }
      .cpd-legend  { animation: fadeInUp 0.5s ease 0.45s both; }
    </style>

  <rect width="840" height="460" rx="12" fill="#0d1117" stroke="#30363d" stroke-width="1"/>

  <g class="cpd-header">
    <a href="https://github.com/mpge/code-per-day" target="_blank">
      <text x="24" y="44" fill="#e6edf3" font-size="18" font-family="'Segoe UI', sans-serif" font-weight="700">Code Per Day</text>
    </a>
    <text x="816" y="44" fill="#6e7681" font-size="13" font-family="'Segoe UI', sans-serif" text-anchor="end" font-weight="500">@mpge</text>
  </g>

  <g class="cpd-stats">
    
    <rect x="24" y="60" width="190" height="68" rx="8" fill="#0d1117" stroke="#30363d" stroke-width="1"/>
    <text x="119" y="78" fill="#6e7681" font-size="11" font-family="'Segoe UI', sans-serif" text-anchor="middle" font-weight="500">Today</text>
    <text x="119" y="100" fill="#3fb950" font-size="16" font-family="'Segoe UI Mono', 'Cascadia Code', monospace" text-anchor="middle" font-weight="700">+691</text>
    <text x="119" y="118" fill="#f85149" font-size="14" font-family="'Segoe UI Mono', 'Cascadia Code', monospace" text-anchor="middle" font-weight="600">-144</text>
    <rect x="222" y="60" width="190" height="68" rx="8" fill="#0d1117" stroke="#30363d" stroke-width="1"/>
    <text x="317" y="78" fill="#6e7681" font-size="11" font-family="'Segoe UI', sans-serif" text-anchor="middle" font-weight="500">30d Avg</text>
    <text x="317" y="100" fill="#3fb950" font-size="16" font-family="'Segoe UI Mono', 'Cascadia Code', monospace" text-anchor="middle" font-weight="700">+8,907</text>
    <text x="317" y="118" fill="#f85149" font-size="14" font-family="'Segoe UI Mono', 'Cascadia Code', monospace" text-anchor="middle" font-weight="600">-963</text>
    <rect x="420" y="60" width="190" height="68" rx="8" fill="#0d1117" stroke="#30363d" stroke-width="1"/>
    <text x="515" y="78" fill="#6e7681" font-size="11" font-family="'Segoe UI', sans-serif" text-anchor="middle" font-weight="500">Year Avg</text>
    <text x="515" y="100" fill="#3fb950" font-size="16" font-family="'Segoe UI Mono', 'Cascadia Code', monospace" text-anchor="middle" font-weight="700">+26,147</text>
    <text x="515" y="118" fill="#f85149" font-size="14" font-family="'Segoe UI Mono', 'Cascadia Code', monospace" text-anchor="middle" font-weight="600">-7,145</text>
    <rect x="618" y="60" width="190" height="68" rx="8" fill="#0d1117" stroke="#30363d" stroke-width="1"/>
    <text x="713" y="78" fill="#6e7681" font-size="11" font-family="'Segoe UI', sans-serif" text-anchor="middle" font-weight="500">Streak</text>
    <text x="713" y="104" fill="#58a6ff" font-size="20" font-family="'Segoe UI Mono', 'Cascadia Code', monospace" text-anchor="middle" font-weight="700">220</text>
    <text x="713" y="120" fill="#6e7681" font-size="11" font-family="'Segoe UI', sans-serif" text-anchor="middle">days</text>
  </g>

  <g class="cpd-chart">
    <line x1="72" y1="148" x2="808" y2="148" stroke="#21262d" stroke-width="1" stroke-dasharray="4,4"/><line x1="72" y1="213.5" x2="808" y2="213.5" stroke="#21262d" stroke-width="1" stroke-dasharray="4,4"/><line x1="72" y1="279" x2="808" y2="279" stroke="#21262d" stroke-width="1" stroke-dasharray="4,4"/><line x1="72" y1="344.5" x2="808" y2="344.5" stroke="#21262d" stroke-width="1" stroke-dasharray="4,4"/><line x1="72" y1="410" x2="808" y2="410" stroke="#21262d" stroke-width="1" stroke-dasharray="4,4"/><line x1="72" y1="279" x2="808" y2="279" stroke="#30363d" stroke-width="1.5"/><text x="64" y="162" fill="#6e7681" font-size="10" font-family="'Segoe UI', sans-serif" text-anchor="end">+11,055</text><text x="64" y="406" fill="#6e7681" font-size="10" font-family="'Segoe UI', sans-serif" text-anchor="end">-11,055</text><text x="64" y="283" fill="#6e7681" font-size="10" font-family="'Segoe UI', sans-serif" text-anchor="end">0</text><path d="M 72 279 L 72 158 L 96.53333333333333 276.89850746268655 L 121.06666666666666 279 L 145.60000000000002 259.1233830845771 L 170.13333333333333 279 L 194.66666666666669 232.52636815920397 L 219.20000000000002 279 L 243.73333333333335 278.17910447761193 L 268.26666666666665 274.64378109452736 L 292.8 227.95124378109452 L 317.33333333333337 271.1412935323383 L 341.8666666666667 279 L 366.40000000000003 263.3592039800995 L 390.93333333333334 225.1273631840796 L 415.4666666666667 218.0129353233831 L 440 245.38706467661692 L 464.53333333333336 158 L 489.0666666666667 185.40696517412937 L 513.6 158 L 538.1333333333334 199.52636815920397 L 562.6666666666667 202.8646766169154 L 587.2 258.89353233830843 L 611.7333333333333 263.4686567164179 L 636.2666666666667 229.51641791044776 L 660.8000000000001 158 L 685.3333333333334 244.1721393034826 L 709.8666666666667 251.30845771144277 L 734.4000000000001 275.3880597014925 L 758.9333333333334 279 L 783.4666666666667 276.1761194029851 L 808 271.43681592039803 L 808 279 Z" fill="#3fb950" opacity="0.15"/><path d="M 72 279 L 72 158 L 96.53333333333333 276.89850746268655 L 121.06666666666666 279 L 145.60000000000002 259.1233830845771 L 170.13333333333333 279 L 194.66666666666669 232.52636815920397 L 219.20000000000002 279 L 243.73333333333335 278.17910447761193 L 268.26666666666665 274.64378109452736 L 292.8 227.95124378109452 L 317.33333333333337 271.1412935323383 L 341.8666666666667 279 L 366.40000000000003 263.3592039800995 L 390.93333333333334 225.1273631840796 L 415.4666666666667 218.0129353233831 L 440 245.38706467661692 L 464.53333333333336 158 L 489.0666666666667 185.40696517412937 L 513.6 158 L 538.1333333333334 199.52636815920397 L 562.6666666666667 202.8646766169154 L 587.2 258.89353233830843 L 611.7333333333333 263.4686567164179 L 636.2666666666667 229.51641791044776 L 660.8000000000001 158 L 685.3333333333334 244.1721393034826 L 709.8666666666667 251.30845771144277 L 734.4000000000001 275.3880597014925 L 758.9333333333334 279 L 783.4666666666667 276.1761194029851 L 808 271.43681592039803" fill="none" stroke="#3fb950" stroke-width="2"/><path d="M 72 279 L 72 301.0875621890547 L 96.53333333333333 279.65671641791045 L 121.06666666666666 279 L 145.60000000000002 279.12039800995024 L 170.13333333333333 279 L 194.66666666666669 279.8975124378109 L 219.20000000000002 279 L 243.73333333333335 279.9741293532338 L 268.26666666666665 281.2985074626866 L 292.8 328.65870646766166 L 317.33333333333337 279.32835820895525 L 341.8666666666667 279 L 366.40000000000003 282.87462686567164 L 390.93333333333334 284.66965174129353 L 415.4666666666667 289.6059701492537 L 440 280.21492537313435 L 464.53333333333336 340.77512437810947 L 489.0666666666667 288.78507462686565 L 513.6 308.3661691542288 L 538.1333333333334 291.3462686567164 L 562.6666666666667 279.74427860696517 L 587.2 280.8388059701493 L 611.7333333333333 279.9412935323383 L 636.2666666666667 282.1194029850746 L 660.8000000000001 369.56119402985075 L 685.3333333333334 286.2238805970149 L 709.8666666666667 286.56318407960197 L 734.4000000000001 279 L 758.9333333333334 279 L 783.4666666666667 280.6636815920398 L 808 280.57611940298506 L 808 279 Z" fill="#f85149" opacity="0.15"/><path d="M 72 279 L 72 301.0875621890547 L 96.53333333333333 279.65671641791045 L 121.06666666666666 279 L 145.60000000000002 279.12039800995024 L 170.13333333333333 279 L 194.66666666666669 279.8975124378109 L 219.20000000000002 279 L 243.73333333333335 279.9741293532338 L 268.26666666666665 281.2985074626866 L 292.8 328.65870646766166 L 317.33333333333337 279.32835820895525 L 341.8666666666667 279 L 366.40000000000003 282.87462686567164 L 390.93333333333334 284.66965174129353 L 415.4666666666667 289.6059701492537 L 440 280.21492537313435 L 464.53333333333336 340.77512437810947 L 489.0666666666667 288.78507462686565 L 513.6 308.3661691542288 L 538.1333333333334 291.3462686567164 L 562.6666666666667 279.74427860696517 L 587.2 280.8388059701493 L 611.7333333333333 279.9412935323383 L 636.2666666666667 282.1194029850746 L 660.8000000000001 369.56119402985075 L 685.3333333333334 286.2238805970149 L 709.8666666666667 286.56318407960197 L 734.4000000000001 279 L 758.9333333333334 279 L 783.4666666666667 280.6636815920398 L 808 280.57611940298506" fill="none" stroke="#f85149" stroke-width="2"/><text x="72" y="426" fill="#6e7681" font-size="10" font-family="'Segoe UI', sans-serif" text-anchor="middle">Jun 5</text><text x="194.66666666666669" y="426" fill="#6e7681" font-size="10" font-family="'Segoe UI', sans-serif" text-anchor="middle">Jun 10</text><text x="317.33333333333337" y="426" fill="#6e7681" font-size="10" font-family="'Segoe UI', sans-serif" text-anchor="middle">Jun 15</text><text x="440" y="426" fill="#6e7681" font-size="10" font-family="'Segoe UI', sans-serif" text-anchor="middle">Jun 20</text><text x="562.6666666666667" y="426" fill="#6e7681" font-size="10" font-family="'Segoe UI', sans-serif" text-anchor="middle">Jun 25</text><text x="685.3333333333334" y="426" fill="#6e7681" font-size="10" font-family="'Segoe UI', sans-serif" text-anchor="middle">Jun 30</text><text x="808" y="426" fill="#6e7681" font-size="10" font-family="'Segoe UI', sans-serif" text-anchor="middle">Jul 5</text>
  </g>

  <g class="cpd-legend">
    
    <circle cx="30" cy="442" r="5" fill="#3fb950"/>
    <text x="40" y="446" fill="#8b949e" font-size="11" font-family="'Segoe UI', sans-serif">Additions</text>
    <circle cx="124" cy="442" r="5" fill="#f85149"/>
    <text x="134" y="446" fill="#8b949e" font-size="11" font-family="'Segoe UI', sans-serif">Deletions</text>
    <text x="816" y="446" fill="#6e7681" font-size="10" font-family="'Segoe UI', sans-serif" text-anchor="end">Last 31 days · +276,117 / -29,866 lines</text>
  </g>

  <a href="https://github.com/mpge/code-per-day" target="_blank">
    <text x="420" y="452" fill="#6e7681" font-size="10" font-family="'Segoe UI', sans-serif" text-anchor="middle" opacity="0.6">Get your own - github.com/mpge/code-per-day</text>
  </a>
</svg>