<svg width="840" height="460" viewBox="0 0 840 460" xmlns="http://www.w3.org/2000/svg">
  
    <style>
      @keyframes fadeInUp {
        from { opacity: 0; transform: translateY(12px); }
        to   { opacity: 1; transform: translateY(0); }
      }
      @keyframes growBar {
        from { transform: scaleY(0); }
        to   { transform: scaleY(1); }
      }
      .cpd-header  { animation: fadeInUp 0.5s ease both; }
      .cpd-stats   { animation: fadeInUp 0.5s ease 0.15s both; }
      .cpd-chart   { animation: fadeInUp 0.5s ease 0.3s both; }
      .cpd-legend  { animation: fadeInUp 0.5s ease 0.45s both; }
    </style>

  <rect width="840" height="460" rx="12" fill="#0d1117" stroke="#30363d" stroke-width="1"/>

  <g class="cpd-header">
    <a href="https://github.com/mpge/code-per-day" target="_blank">
      <text x="24" y="44" fill="#e6edf3" font-size="18" font-family="'Segoe UI', sans-serif" font-weight="700">Code Per Day</text>
    </a>
    <text x="816" y="44" fill="#6e7681" font-size="13" font-family="'Segoe UI', sans-serif" text-anchor="end" font-weight="500">@mpge</text>
  </g>

  <g class="cpd-stats">
    
    <rect x="24" y="60" width="190" height="68" rx="8" fill="#0d1117" stroke="#30363d" stroke-width="1"/>
    <text x="119" y="78" fill="#6e7681" font-size="11" font-family="'Segoe UI', sans-serif" text-anchor="middle" font-weight="500">Today</text>
    <text x="119" y="100" fill="#3fb950" font-size="16" font-family="'Segoe UI Mono', 'Cascadia Code', monospace" text-anchor="middle" font-weight="700">+0</text>
    <text x="119" y="118" fill="#f85149" font-size="14" font-family="'Segoe UI Mono', 'Cascadia Code', monospace" text-anchor="middle" font-weight="600">+0</text>
    <rect x="222" y="60" width="190" height="68" rx="8" fill="#0d1117" stroke="#30363d" stroke-width="1"/>
    <text x="317" y="78" fill="#6e7681" font-size="11" font-family="'Segoe UI', sans-serif" text-anchor="middle" font-weight="500">30d Avg</text>
    <text x="317" y="100" fill="#3fb950" font-size="16" font-family="'Segoe UI Mono', 'Cascadia Code', monospace" text-anchor="middle" font-weight="700">+16,614</text>
    <text x="317" y="118" fill="#f85149" font-size="14" font-family="'Segoe UI Mono', 'Cascadia Code', monospace" text-anchor="middle" font-weight="600">-6,203</text>
    <rect x="420" y="60" width="190" height="68" rx="8" fill="#0d1117" stroke="#30363d" stroke-width="1"/>
    <text x="515" y="78" fill="#6e7681" font-size="11" font-family="'Segoe UI', sans-serif" text-anchor="middle" font-weight="500">Year Avg</text>
    <text x="515" y="100" fill="#3fb950" font-size="16" font-family="'Segoe UI Mono', 'Cascadia Code', monospace" text-anchor="middle" font-weight="700">+25,496</text>
    <text x="515" y="118" fill="#f85149" font-size="14" font-family="'Segoe UI Mono', 'Cascadia Code', monospace" text-anchor="middle" font-weight="600">-7,075</text>
    <rect x="618" y="60" width="190" height="68" rx="8" fill="#0d1117" stroke="#30363d" stroke-width="1"/>
    <text x="713" y="78" fill="#6e7681" font-size="11" font-family="'Segoe UI', sans-serif" text-anchor="middle" font-weight="500">Streak</text>
    <text x="713" y="104" fill="#58a6ff" font-size="20" font-family="'Segoe UI Mono', 'Cascadia Code', monospace" text-anchor="middle" font-weight="700">197</text>
    <text x="713" y="120" fill="#6e7681" font-size="11" font-family="'Segoe UI', sans-serif" text-anchor="middle">days</text>
  </g>

  <g class="cpd-chart">
    <line x1="72" y1="148" x2="808" y2="148" stroke="#21262d" stroke-width="1" stroke-dasharray="4,4"/><line x1="72" y1="213.5" x2="808" y2="213.5" stroke="#21262d" stroke-width="1" stroke-dasharray="4,4"/><line x1="72" y1="279" x2="808" y2="279" stroke="#21262d" stroke-width="1" stroke-dasharray="4,4"/><line x1="72" y1="344.5" x2="808" y2="344.5" stroke="#21262d" stroke-width="1" stroke-dasharray="4,4"/><line x1="72" y1="410" x2="808" y2="410" stroke="#21262d" stroke-width="1" stroke-dasharray="4,4"/><line x1="72" y1="279" x2="808" y2="279" stroke="#30363d" stroke-width="1.5"/><text x="64" y="162" fill="#6e7681" font-size="10" font-family="'Segoe UI', sans-serif" text-anchor="end">+32,436</text><text x="64" y="406" fill="#6e7681" font-size="10" font-family="'Segoe UI', sans-serif" text-anchor="end">-32,436</text><text x="64" y="283" fill="#6e7681" font-size="10" font-family="'Segoe UI', sans-serif" text-anchor="end">0</text><path d="M 72 279 L 72 263.8544826735726 L 96.53333333333333 261.02309162658776 L 121.06666666666666 277.23924035022816 L 145.60000000000002 158 L 170.13333333333333 158 L 194.66666666666669 158 L 219.20000000000002 196.7665556788753 L 243.73333333333335 276.79158959181154 L 268.26666666666665 261.35136884942654 L 292.8 231.6049759526452 L 317.33333333333337 229.63904303859908 L 341.8666666666667 261.381212233321 L 366.40000000000003 263.2426933037366 L 390.93333333333334 266.0964668886422 L 415.4666666666667 200.83644715747934 L 440 235.53311135775064 L 464.53333333333336 246.34387717351092 L 489.0666666666667 158 L 513.6 209.99836601307192 L 538.1333333333334 158 L 562.6666666666667 204.89887779010974 L 587.2 254.70748550992724 L 611.7333333333333 226.16601923788383 L 636.2666666666667 278.2837587865335 L 660.8000000000001 279 L 685.3333333333334 272.2255518559625 L 709.8666666666667 279 L 734.4000000000001 263.1606239980269 L 758.9333333333334 279 L 783.4666666666667 278.7202182759896 L 808 279 L 808 279 Z" fill="#3fb950" opacity="0.15"/><path d="M 72 279 L 72 263.8544826735726 L 96.53333333333333 261.02309162658776 L 121.06666666666666 277.23924035022816 L 145.60000000000002 158 L 170.13333333333333 158 L 194.66666666666669 158 L 219.20000000000002 196.7665556788753 L 243.73333333333335 276.79158959181154 L 268.26666666666665 261.35136884942654 L 292.8 231.6049759526452 L 317.33333333333337 229.63904303859908 L 341.8666666666667 261.381212233321 L 366.40000000000003 263.2426933037366 L 390.93333333333334 266.0964668886422 L 415.4666666666667 200.83644715747934 L 440 235.53311135775064 L 464.53333333333336 246.34387717351092 L 489.0666666666667 158 L 513.6 209.99836601307192 L 538.1333333333334 158 L 562.6666666666667 204.89887779010974 L 587.2 254.70748550992724 L 611.7333333333333 226.16601923788383 L 636.2666666666667 278.2837587865335 L 660.8000000000001 279 L 685.3333333333334 272.2255518559625 L 709.8666666666667 279 L 734.4000000000001 263.1606239980269 L 758.9333333333334 279 L 783.4666666666667 278.7202182759896 L 808 279" fill="none" stroke="#3fb950" stroke-width="2"/><path d="M 72 279 L 72 282.60358860525344 L 96.53333333333333 280.97712418300654 L 121.06666666666666 279.36185102972007 L 145.60000000000002 283.8644715747934 L 170.13333333333333 288.85950795412504 L 194.66666666666669 400 L 219.20000000000002 311.4957146380565 L 243.73333333333335 280.46232581082745 L 268.26666666666665 292.58620051794304 L 292.8 299.29723147120484 L 317.33333333333337 293.70532741398443 L 341.8666666666667 282.1895116537181 L 366.40000000000003 284.0771056850413 L 390.93333333333334 285.20742385004314 L 415.4666666666667 296.2121716611173 L 440 298.42431249229253 L 464.53333333333336 281.66725243556544 L 489.0666666666667 329.56215316315206 L 513.6 400 L 538.1333333333334 392.8599704032556 L 562.6666666666667 299.3046923171784 L 587.2 282.7565359477124 L 611.7333333333333 286.52799358737207 L 636.2666666666667 279.2238253792083 L 660.8000000000001 279 L 685.3333333333334 279.0410346528549 L 709.8666666666667 279 L 734.4000000000001 279.305894684918 L 758.9333333333334 279 L 783.4666666666667 279.3320076458256 L 808 279 L 808 279 Z" fill="#f85149" opacity="0.15"/><path d="M 72 279 L 72 282.60358860525344 L 96.53333333333333 280.97712418300654 L 121.06666666666666 279.36185102972007 L 145.60000000000002 283.8644715747934 L 170.13333333333333 288.85950795412504 L 194.66666666666669 400 L 219.20000000000002 311.4957146380565 L 243.73333333333335 280.46232581082745 L 268.26666666666665 292.58620051794304 L 292.8 299.29723147120484 L 317.33333333333337 293.70532741398443 L 341.8666666666667 282.1895116537181 L 366.40000000000003 284.0771056850413 L 390.93333333333334 285.20742385004314 L 415.4666666666667 296.2121716611173 L 440 298.42431249229253 L 464.53333333333336 281.66725243556544 L 489.0666666666667 329.56215316315206 L 513.6 400 L 538.1333333333334 392.8599704032556 L 562.6666666666667 299.3046923171784 L 587.2 282.7565359477124 L 611.7333333333333 286.52799358737207 L 636.2666666666667 279.2238253792083 L 660.8000000000001 279 L 685.3333333333334 279.0410346528549 L 709.8666666666667 279 L 734.4000000000001 279.305894684918 L 758.9333333333334 279 L 783.4666666666667 279.3320076458256 L 808 279" fill="none" stroke="#f85149" stroke-width="2"/><text x="72" y="426" fill="#6e7681" font-size="10" font-family="'Segoe UI', sans-serif" text-anchor="middle">May 14</text><text x="194.66666666666669" y="426" fill="#6e7681" font-size="10" font-family="'Segoe UI', sans-serif" text-anchor="middle">May 19</text><text x="317.33333333333337" y="426" fill="#6e7681" font-size="10" font-family="'Segoe UI', sans-serif" text-anchor="middle">May 24</text><text x="440" y="426" fill="#6e7681" font-size="10" font-family="'Segoe UI', sans-serif" text-anchor="middle">May 29</text><text x="562.6666666666667" y="426" fill="#6e7681" font-size="10" font-family="'Segoe UI', sans-serif" text-anchor="middle">Jun 3</text><text x="685.3333333333334" y="426" fill="#6e7681" font-size="10" font-family="'Segoe UI', sans-serif" text-anchor="middle">Jun 8</text><text x="808" y="426" fill="#6e7681" font-size="10" font-family="'Segoe UI', sans-serif" text-anchor="middle">Jun 13</text>
  </g>

  <g class="cpd-legend">
    
    <circle cx="30" cy="442" r="5" fill="#3fb950"/>
    <text x="40" y="446" fill="#8b949e" font-size="11" font-family="'Segoe UI', sans-serif">Additions</text>
    <circle cx="124" cy="442" r="5" fill="#f85149"/>
    <text x="134" y="446" fill="#8b949e" font-size="11" font-family="'Segoe UI', sans-serif">Deletions</text>
    <text x="816" y="446" fill="#6e7681" font-size="10" font-family="'Segoe UI', sans-serif" text-anchor="end">Last 31 days · +515,023 / -192,293 lines</text>
  </g>

  <a href="https://github.com/mpge/code-per-day" target="_blank">
    <text x="420" y="452" fill="#6e7681" font-size="10" font-family="'Segoe UI', sans-serif" text-anchor="middle" opacity="0.6">Get your own - github.com/mpge/code-per-day</text>
  </a>
</svg>