<svg width="840" height="460" viewBox="0 0 840 460" xmlns="http://www.w3.org/2000/svg">
  
    <style>
      @keyframes fadeInUp {
        from { opacity: 0; transform: translateY(12px); }
        to   { opacity: 1; transform: translateY(0); }
      }
      @keyframes growBar {
        from { transform: scaleY(0); }
        to   { transform: scaleY(1); }
      }
      .cpd-header  { animation: fadeInUp 0.5s ease both; }
      .cpd-stats   { animation: fadeInUp 0.5s ease 0.15s both; }
      .cpd-chart   { animation: fadeInUp 0.5s ease 0.3s both; }
      .cpd-legend  { animation: fadeInUp 0.5s ease 0.45s both; }
    </style>

  <!-- Background -->
  <rect width="840" height="460" rx="12" fill="transparent" />

  <!-- Header -->
  <g class="cpd-header">
    <a href="https://github.com/mpge/code-per-day" target="_blank">
      <text x="24" y="44" fill="#e6edf3" font-size="18" font-family="'Segoe UI', sans-serif" font-weight="700">Code Per Day</text>
    </a>
    <text x="816" y="44" fill="#6e7681" font-size="13" font-family="'Segoe UI', sans-serif" text-anchor="end" font-weight="500">@mpge</text>
  </g>

  <!-- Stats Cards -->
  <g class="cpd-stats">
    
    <rect x="24" y="60" width="190" height="68" rx="8" fill="rgba(13,17,23,0.6)" stroke="#30363d" stroke-width="1"/>
    <text x="119" y="78" fill="#6e7681" font-size="11" font-family="'Segoe UI', sans-serif" text-anchor="middle" font-weight="500">Today</text>
    <text x="119" y="100" fill="#3fb950" font-size="16" font-family="'Segoe UI Mono', 'Cascadia Code', monospace" text-anchor="middle" font-weight="700">+0</text>
    <text x="119" y="118" fill="#f85149" font-size="14" font-family="'Segoe UI Mono', 'Cascadia Code', monospace" text-anchor="middle" font-weight="600">+0</text>
    <rect x="222" y="60" width="190" height="68" rx="8" fill="rgba(13,17,23,0.6)" stroke="#30363d" stroke-width="1"/>
    <text x="317" y="78" fill="#6e7681" font-size="11" font-family="'Segoe UI', sans-serif" text-anchor="middle" font-weight="500">30d Avg</text>
    <text x="317" y="100" fill="#3fb950" font-size="16" font-family="'Segoe UI Mono', 'Cascadia Code', monospace" text-anchor="middle" font-weight="700">+225,495</text>
    <text x="317" y="118" fill="#f85149" font-size="14" font-family="'Segoe UI Mono', 'Cascadia Code', monospace" text-anchor="middle" font-weight="600">-72,641</text>
    <rect x="420" y="60" width="190" height="68" rx="8" fill="rgba(13,17,23,0.6)" stroke="#30363d" stroke-width="1"/>
    <text x="515" y="78" fill="#6e7681" font-size="11" font-family="'Segoe UI', sans-serif" text-anchor="middle" font-weight="500">Year Avg</text>
    <text x="515" y="100" fill="#3fb950" font-size="16" font-family="'Segoe UI Mono', 'Cascadia Code', monospace" text-anchor="middle" font-weight="700">+20,700</text>
    <text x="515" y="118" fill="#f85149" font-size="14" font-family="'Segoe UI Mono', 'Cascadia Code', monospace" text-anchor="middle" font-weight="600">-6,265</text>
        <rect x="618" y="60" width="190" height="68" rx="8" fill="rgba(13,17,23,0.6)" stroke="#30363d" stroke-width="1"/>
        <text x="713" y="78" fill="#6e7681" font-size="11" font-family="'Segoe UI', sans-serif" text-anchor="middle" font-weight="500">Streak</text>
        <text x="713" y="104" fill="#58a6ff" font-size="20" font-family="'Segoe UI Mono', 'Cascadia Code', monospace" text-anchor="middle" font-weight="700">137</text>
        <text x="713" y="120" fill="#6e7681" font-size="11" font-family="'Segoe UI', sans-serif" text-anchor="middle">days</text>
  </g>

  <!-- Chart -->
  <g class="cpd-chart">
    <line x1="72" y1="148" x2="808" y2="148" stroke="rgba(33,38,45,0.6)" stroke-width="1" stroke-dasharray="4,4"/><line x1="72" y1="213.5" x2="808" y2="213.5" stroke="rgba(33,38,45,0.6)" stroke-width="1" stroke-dasharray="4,4"/><line x1="72" y1="279" x2="808" y2="279" stroke="rgba(33,38,45,0.6)" stroke-width="1" stroke-dasharray="4,4"/><line x1="72" y1="344.5" x2="808" y2="344.5" stroke="rgba(33,38,45,0.6)" stroke-width="1" stroke-dasharray="4,4"/><line x1="72" y1="410" x2="808" y2="410" stroke="rgba(33,38,45,0.6)" stroke-width="1" stroke-dasharray="4,4"/><line x1="72" y1="279" x2="808" y2="279" stroke="#30363d" stroke-width="1.5"/><text x="64" y="162" fill="#6e7681" font-size="10" font-family="'Segoe UI', sans-serif" text-anchor="end">+44,402</text><text x="64" y="406" fill="#6e7681" font-size="10" font-family="'Segoe UI', sans-serif" text-anchor="end">-44,402</text><text x="64" y="283" fill="#6e7681" font-size="10" font-family="'Segoe UI', sans-serif" text-anchor="end">0</text><path d="M 72 279 L 72 279 L 96.53333333333333 241.57071753524616 L 121.06666666666666 279 L 145.60000000000002 252.54470519345975 L 170.13333333333333 158 L 194.66666666666669 279 L 219.20000000000002 273.02385027701456 L 243.73333333333335 251.78440160353136 L 268.26666666666665 261.5920454033602 L 292.8 277.26410972478715 L 317.33333333333337 274.8196928066303 L 341.8666666666667 279 L 366.40000000000003 279 L 390.93333333333334 279 L 415.4666666666667 279 L 440 256.1527408675285 L 464.53333333333336 277.43034097563174 L 489.0666666666667 279 L 513.6 274.91779649565336 L 538.1333333333334 279 L 562.6666666666667 279 L 587.2 229.67019503625963 L 611.7333333333333 158 L 636.2666666666667 158 L 660.8000000000001 176.98306382595376 L 685.3333333333334 158 L 709.8666666666667 158 L 734.4000000000001 261.6138462231431 L 758.9333333333334 279 L 783.4666666666667 158 L 808 279 L 808 279 Z" fill="#3fb950" opacity="0.15"/><path d="M 72 279 L 72 279 L 96.53333333333333 241.57071753524616 L 121.06666666666666 279 L 145.60000000000002 252.54470519345975 L 170.13333333333333 158 L 194.66666666666669 279 L 219.20000000000002 273.02385027701456 L 243.73333333333335 251.78440160353136 L 268.26666666666665 261.5920454033602 L 292.8 277.26410972478715 L 317.33333333333337 274.8196928066303 L 341.8666666666667 279 L 366.40000000000003 279 L 390.93333333333334 279 L 415.4666666666667 279 L 440 256.1527408675285 L 464.53333333333336 277.43034097563174 L 489.0666666666667 279 L 513.6 274.91779649565336 L 538.1333333333334 279 L 562.6666666666667 279 L 587.2 229.67019503625963 L 611.7333333333333 158 L 636.2666666666667 158 L 660.8000000000001 176.98306382595376 L 685.3333333333334 158 L 709.8666666666667 158 L 734.4000000000001 261.6138462231431 L 758.9333333333334 279 L 783.4666666666667 158 L 808 279" fill="none" stroke="#3fb950" stroke-width="2"/><path d="M 72 279 L 72 279 L 96.53333333333333 279.37061393630916 L 121.06666666666666 279 L 145.60000000000002 279.0926534840773 L 170.13333333333333 400 L 194.66666666666669 279 L 219.20000000000002 279.0027251024729 L 243.73333333333335 281.65424980856716 L 268.26666666666665 279.54229539209945 L 292.8 279.0708526642944 L 317.33333333333337 279.20165758299174 L 341.8666666666667 279 L 366.40000000000003 279 L 390.93333333333334 279 L 415.4666666666667 279 L 440 279.46326742038644 L 464.53333333333336 279 L 489.0666666666667 279 L 513.6 280.5505833070582 L 538.1333333333334 279 L 562.6666666666667 279 L 587.2 279.10900409891445 L 611.7333333333333 400 L 636.2666666666667 298.2310481509842 L 660.8000000000001 327.5477005540291 L 685.3333333333334 290.44270528354576 L 709.8666666666667 312.63866492500335 L 734.4000000000001 282.7088644655646 L 758.9333333333334 279 L 783.4666666666667 279.24253412008466 L 808 279 L 808 279 Z" fill="#f85149" opacity="0.15"/><path d="M 72 279 L 72 279 L 96.53333333333333 279.37061393630916 L 121.06666666666666 279 L 145.60000000000002 279.0926534840773 L 170.13333333333333 400 L 194.66666666666669 279 L 219.20000000000002 279.0027251024729 L 243.73333333333335 281.65424980856716 L 268.26666666666665 279.54229539209945 L 292.8 279.0708526642944 L 317.33333333333337 279.20165758299174 L 341.8666666666667 279 L 366.40000000000003 279 L 390.93333333333334 279 L 415.4666666666667 279 L 440 279.46326742038644 L 464.53333333333336 279 L 489.0666666666667 279 L 513.6 280.5505833070582 L 538.1333333333334 279 L 562.6666666666667 279 L 587.2 279.10900409891445 L 611.7333333333333 400 L 636.2666666666667 298.2310481509842 L 660.8000000000001 327.5477005540291 L 685.3333333333334 290.44270528354576 L 709.8666666666667 312.63866492500335 L 734.4000000000001 282.7088644655646 L 758.9333333333334 279 L 783.4666666666667 279.24253412008466 L 808 279" fill="none" stroke="#f85149" stroke-width="2"/><text x="72" y="426" fill="#6e7681" font-size="10" font-family="'Segoe UI', sans-serif" text-anchor="middle">Mar 14</text><text x="194.66666666666669" y="426" fill="#6e7681" font-size="10" font-family="'Segoe UI', sans-serif" text-anchor="middle">Mar 19</text><text x="317.33333333333337" y="426" fill="#6e7681" font-size="10" font-family="'Segoe UI', sans-serif" text-anchor="middle">Mar 24</text><text x="440" y="426" fill="#6e7681" font-size="10" font-family="'Segoe UI', sans-serif" text-anchor="middle">Mar 29</text><text x="562.6666666666667" y="426" fill="#6e7681" font-size="10" font-family="'Segoe UI', sans-serif" text-anchor="middle">Apr 3</text><text x="685.3333333333334" y="426" fill="#6e7681" font-size="10" font-family="'Segoe UI', sans-serif" text-anchor="middle">Apr 8</text><text x="808" y="426" fill="#6e7681" font-size="10" font-family="'Segoe UI', sans-serif" text-anchor="middle">Apr 13</text>
  </g>

  <!-- Legend -->
  <g class="cpd-legend">
    <circle cx="30" cy="442" r="5" fill="#3fb950"/>
    <text x="40" y="446" fill="#8b949e" font-size="11" font-family="'Segoe UI', sans-serif">Additions</text>
    <circle cx="124" cy="442" r="5" fill="#f85149"/>
    <text x="134" y="446" fill="#8b949e" font-size="11" font-family="'Segoe UI', sans-serif">Deletions</text>
    <text x="816" y="446" fill="#6e7681" font-size="10" font-family="'Segoe UI', sans-serif" text-anchor="end">Last 31 days · +6,990,340 / -2,251,880 lines</text>
  </g>

  <!-- Get your own -->
  <a href="https://github.com/mpge/code-per-day" target="_blank">
    <text x="420" y="452" fill="#6e7681" font-size="10" font-family="'Segoe UI', sans-serif" text-anchor="middle" opacity="0.6">Get your own — github.com/mpge/code-per-day</text>
  </a>
</svg>