<svg width="840" height="460" viewBox="0 0 840 460" xmlns="http://www.w3.org/2000/svg">
  
    <style>
      @keyframes fadeInUp {
        from { opacity: 0; transform: translateY(12px); }
        to   { opacity: 1; transform: translateY(0); }
      }
      @keyframes growBar {
        from { transform: scaleY(0); }
        to   { transform: scaleY(1); }
      }
      .cpd-header  { animation: fadeInUp 0.5s ease both; }
      .cpd-stats   { animation: fadeInUp 0.5s ease 0.15s both; }
      .cpd-chart   { animation: fadeInUp 0.5s ease 0.3s both; }
      .cpd-legend  { animation: fadeInUp 0.5s ease 0.45s both; }
    </style>

  <rect width="840" height="460" rx="12" fill="#1a1b26" stroke="#414868" stroke-width="1"/>

  <g class="cpd-header">
    <a href="https://github.com/mpge/code-per-day" target="_blank">
      <text x="24" y="44" fill="#c0caf5" font-size="18" font-family="'Segoe UI', sans-serif" font-weight="700">Code Per Day</text>
    </a>
    <text x="816" y="44" fill="#565f89" font-size="13" font-family="'Segoe UI', sans-serif" text-anchor="end" font-weight="500">@mpge</text>
  </g>

  <g class="cpd-stats">
    
    <rect x="24" y="60" width="190" height="68" rx="8" fill="#16161e" stroke="#414868" stroke-width="1"/>
    <text x="119" y="78" fill="#565f89" font-size="11" font-family="'Segoe UI', sans-serif" text-anchor="middle" font-weight="500">Today</text>
    <text x="119" y="100" fill="#9ece6a" font-size="16" font-family="'Segoe UI Mono', 'Cascadia Code', monospace" text-anchor="middle" font-weight="700">+4,574</text>
    <text x="119" y="118" fill="#f7768e" font-size="14" font-family="'Segoe UI Mono', 'Cascadia Code', monospace" text-anchor="middle" font-weight="600">-431</text>
    <rect x="222" y="60" width="190" height="68" rx="8" fill="#16161e" stroke="#414868" stroke-width="1"/>
    <text x="317" y="78" fill="#565f89" font-size="11" font-family="'Segoe UI', sans-serif" text-anchor="middle" font-weight="500">30d Avg</text>
    <text x="317" y="100" fill="#9ece6a" font-size="16" font-family="'Segoe UI Mono', 'Cascadia Code', monospace" text-anchor="middle" font-weight="700">+179,912</text>
    <text x="317" y="118" fill="#f7768e" font-size="14" font-family="'Segoe UI Mono', 'Cascadia Code', monospace" text-anchor="middle" font-weight="600">-2,871</text>
    <rect x="420" y="60" width="190" height="68" rx="8" fill="#16161e" stroke="#414868" stroke-width="1"/>
    <text x="515" y="78" fill="#565f89" font-size="11" font-family="'Segoe UI', sans-serif" text-anchor="middle" font-weight="500">Year Avg</text>
    <text x="515" y="100" fill="#9ece6a" font-size="16" font-family="'Segoe UI Mono', 'Cascadia Code', monospace" text-anchor="middle" font-weight="700">+23,581</text>
    <text x="515" y="118" fill="#f7768e" font-size="14" font-family="'Segoe UI Mono', 'Cascadia Code', monospace" text-anchor="middle" font-weight="600">-6,415</text>
    <rect x="618" y="60" width="190" height="68" rx="8" fill="#16161e" stroke="#414868" stroke-width="1"/>
    <text x="713" y="78" fill="#565f89" font-size="11" font-family="'Segoe UI', sans-serif" text-anchor="middle" font-weight="500">Streak</text>
    <text x="713" y="104" fill="#7aa2f7" font-size="20" font-family="'Segoe UI Mono', 'Cascadia Code', monospace" text-anchor="middle" font-weight="700">160</text>
    <text x="713" y="120" fill="#565f89" font-size="11" font-family="'Segoe UI', sans-serif" text-anchor="middle">days</text>
  </g>

  <g class="cpd-chart">
    <line x1="72" y1="148" x2="808" y2="148" stroke="#292e42" stroke-width="1" stroke-dasharray="4,4"/><line x1="72" y1="213.5" x2="808" y2="213.5" stroke="#292e42" stroke-width="1" stroke-dasharray="4,4"/><line x1="72" y1="279" x2="808" y2="279" stroke="#292e42" stroke-width="1" stroke-dasharray="4,4"/><line x1="72" y1="344.5" x2="808" y2="344.5" stroke="#292e42" stroke-width="1" stroke-dasharray="4,4"/><line x1="72" y1="410" x2="808" y2="410" stroke="#292e42" stroke-width="1" stroke-dasharray="4,4"/><line x1="72" y1="279" x2="808" y2="279" stroke="#414868" stroke-width="1.5"/><text x="64" y="162" fill="#565f89" font-size="10" font-family="'Segoe UI', sans-serif" text-anchor="end">+29,919</text><text x="64" y="406" fill="#565f89" font-size="10" font-family="'Segoe UI', sans-serif" text-anchor="end">-29,919</text><text x="64" y="283" fill="#565f89" font-size="10" font-family="'Segoe UI', sans-serif" text-anchor="end">0</text><path d="M 72 279 L 72 158 L 96.53333333333333 158 L 121.06666666666666 158 L 145.60000000000002 158 L 170.13333333333333 227.64203349042415 L 194.66666666666669 252.57485210067182 L 219.20000000000002 158 L 243.73333333333335 247.1353320632374 L 268.26666666666665 278.84227414017846 L 292.8 279 L 317.33333333333337 278.7856546007554 L 341.8666666666667 279 L 366.40000000000003 258.1680537451118 L 390.93333333333334 221.87897322771482 L 415.4666666666667 250.53250442862395 L 440 260.22253417560745 L 464.53333333333336 278.9797787359203 L 489.0666666666667 174.10825896587454 L 513.6 158 L 538.1333333333334 270.00962599017345 L 562.6666666666667 174.12443597713826 L 587.2 158 L 611.7333333333333 232.96831444901233 L 636.2666666666667 268.70737658344194 L 660.8000000000001 222.81319562819613 L 685.3333333333334 244.21538153013137 L 709.8666666666667 158 L 734.4000000000001 254.28961529462885 L 758.9333333333334 265.3749122631104 L 783.4666666666667 188.10541796183026 L 808 260.50158761990707 L 808 279 Z" fill="#9ece6a" opacity="0.15"/><path d="M 72 279 L 72 158 L 96.53333333333333 158 L 121.06666666666666 158 L 145.60000000000002 158 L 170.13333333333333 227.64203349042415 L 194.66666666666669 252.57485210067182 L 219.20000000000002 158 L 243.73333333333335 247.1353320632374 L 268.26666666666665 278.84227414017846 L 292.8 279 L 317.33333333333337 278.7856546007554 L 341.8666666666667 279 L 366.40000000000003 258.1680537451118 L 390.93333333333334 221.87897322771482 L 415.4666666666667 250.53250442862395 L 440 260.22253417560745 L 464.53333333333336 278.9797787359203 L 489.0666666666667 174.10825896587454 L 513.6 158 L 538.1333333333334 270.00962599017345 L 562.6666666666667 174.12443597713826 L 587.2 158 L 611.7333333333333 232.96831444901233 L 636.2666666666667 268.70737658344194 L 660.8000000000001 222.81319562819613 L 685.3333333333334 244.21538153013137 L 709.8666666666667 158 L 734.4000000000001 254.28961529462885 L 758.9333333333334 265.3749122631104 L 783.4666666666667 188.10541796183026 L 808 260.50158761990707" fill="none" stroke="#9ece6a" stroke-width="2"/><path d="M 72 279 L 72 307.5402921220629 L 96.53333333333333 351.7965506868545 L 121.06666666666666 295.2862060897757 L 145.60000000000002 329.015274574685 L 170.13333333333333 287.39182459306795 L 194.66666666666669 287.22196597479865 L 219.20000000000002 282.78542063571643 L 243.73333333333335 280.1890103278853 L 268.26666666666665 298.63484742137103 L 292.8 279 L 317.33333333333337 279.1819913767171 L 341.8666666666667 279 L 366.40000000000003 279.46104482101674 L 390.93333333333334 282.3365085731475 L 415.4666666666667 287.068284367793 L 440 279.2507436745881 L 464.53333333333336 279 L 489.0666666666667 281.23242755439685 L 513.6 298.9583876466459 L 538.1333333333334 279.3356729837227 L 562.6666666666667 283.9299441826264 L 587.2 282.5791637421037 L 611.7333333333333 300.36983187940774 L 636.2666666666667 281.1879407734216 L 660.8000000000001 297.8381296166316 L 685.3333333333334 285.482937263946 L 709.8666666666667 311.9566161970654 L 734.4000000000001 290.5261205254186 L 758.9333333333334 284.15642234031884 L 783.4666666666667 286.47377920385037 L 808 280.74307296366857 L 808 279 Z" fill="#f7768e" opacity="0.15"/><path d="M 72 279 L 72 307.5402921220629 L 96.53333333333333 351.7965506868545 L 121.06666666666666 295.2862060897757 L 145.60000000000002 329.015274574685 L 170.13333333333333 287.39182459306795 L 194.66666666666669 287.22196597479865 L 219.20000000000002 282.78542063571643 L 243.73333333333335 280.1890103278853 L 268.26666666666665 298.63484742137103 L 292.8 279 L 317.33333333333337 279.1819913767171 L 341.8666666666667 279 L 366.40000000000003 279.46104482101674 L 390.93333333333334 282.3365085731475 L 415.4666666666667 287.068284367793 L 440 279.2507436745881 L 464.53333333333336 279 L 489.0666666666667 281.23242755439685 L 513.6 298.9583876466459 L 538.1333333333334 279.3356729837227 L 562.6666666666667 283.9299441826264 L 587.2 282.5791637421037 L 611.7333333333333 300.36983187940774 L 636.2666666666667 281.1879407734216 L 660.8000000000001 297.8381296166316 L 685.3333333333334 285.482937263946 L 709.8666666666667 311.9566161970654 L 734.4000000000001 290.5261205254186 L 758.9333333333334 284.15642234031884 L 783.4666666666667 286.47377920385037 L 808 280.74307296366857" fill="none" stroke="#f7768e" stroke-width="2"/><text x="72" y="426" fill="#565f89" font-size="10" font-family="'Segoe UI', sans-serif" text-anchor="middle">Apr 6</text><text x="194.66666666666669" y="426" fill="#565f89" font-size="10" font-family="'Segoe UI', sans-serif" text-anchor="middle">Apr 11</text><text x="317.33333333333337" y="426" fill="#565f89" font-size="10" font-family="'Segoe UI', sans-serif" text-anchor="middle">Apr 16</text><text x="440" y="426" fill="#565f89" font-size="10" font-family="'Segoe UI', sans-serif" text-anchor="middle">Apr 21</text><text x="562.6666666666667" y="426" fill="#565f89" font-size="10" font-family="'Segoe UI', sans-serif" text-anchor="middle">Apr 26</text><text x="685.3333333333334" y="426" fill="#565f89" font-size="10" font-family="'Segoe UI', sans-serif" text-anchor="middle">May 1</text><text x="808" y="426" fill="#565f89" font-size="10" font-family="'Segoe UI', sans-serif" text-anchor="middle">May 6</text>
  </g>

  <g class="cpd-legend">
    
    <circle cx="30" cy="442" r="5" fill="#9ece6a"/>
    <text x="40" y="446" fill="#a9b1d6" font-size="11" font-family="'Segoe UI', sans-serif">Additions</text>
    <circle cx="124" cy="442" r="5" fill="#f7768e"/>
    <text x="134" y="446" fill="#a9b1d6" font-size="11" font-family="'Segoe UI', sans-serif">Deletions</text>
    <text x="816" y="446" fill="#565f89" font-size="10" font-family="'Segoe UI', sans-serif" text-anchor="end">Last 31 days · +5,577,276 / -88,998 lines</text>
  </g>

  <a href="https://github.com/mpge/code-per-day" target="_blank">
    <text x="420" y="452" fill="#565f89" font-size="10" font-family="'Segoe UI', sans-serif" text-anchor="middle" opacity="0.6">Get your own - github.com/mpge/code-per-day</text>
  </a>
</svg>