<svg width="840" height="460" viewBox="0 0 840 460" xmlns="http://www.w3.org/2000/svg">
  
    <style>
      @keyframes fadeInUp {
        from { opacity: 0; transform: translateY(12px); }
        to   { opacity: 1; transform: translateY(0); }
      }
      @keyframes growBar {
        from { transform: scaleY(0); }
        to   { transform: scaleY(1); }
      }
      .cpd-header  { animation: fadeInUp 0.5s ease both; }
      .cpd-stats   { animation: fadeInUp 0.5s ease 0.15s both; }
      .cpd-chart   { animation: fadeInUp 0.5s ease 0.3s both; }
      .cpd-legend  { animation: fadeInUp 0.5s ease 0.45s both; }
    </style>

  <rect width="840" height="460" rx="12" fill="#2e3440" stroke="#4c566a" stroke-width="1"/>

  <g class="cpd-header">
    <a href="https://github.com/mpge/code-per-day" target="_blank">
      <text x="24" y="44" fill="#eceff4" font-size="18" font-family="'Segoe UI', sans-serif" font-weight="700">Code Per Day</text>
    </a>
    <text x="816" y="44" fill="#81a1c1" font-size="13" font-family="'Segoe UI', sans-serif" text-anchor="end" font-weight="500">@mpge</text>
  </g>

  <g class="cpd-stats">
    
    <rect x="24" y="60" width="190" height="68" rx="8" fill="#2e3440" stroke="#4c566a" stroke-width="1"/>
    <text x="119" y="78" fill="#81a1c1" font-size="11" font-family="'Segoe UI', sans-serif" text-anchor="middle" font-weight="500">Today</text>
    <text x="119" y="100" fill="#a3be8c" font-size="16" font-family="'Segoe UI Mono', 'Cascadia Code', monospace" text-anchor="middle" font-weight="700">+0</text>
    <text x="119" y="118" fill="#bf616a" font-size="14" font-family="'Segoe UI Mono', 'Cascadia Code', monospace" text-anchor="middle" font-weight="600">+0</text>
    <rect x="222" y="60" width="190" height="68" rx="8" fill="#2e3440" stroke="#4c566a" stroke-width="1"/>
    <text x="317" y="78" fill="#81a1c1" font-size="11" font-family="'Segoe UI', sans-serif" text-anchor="middle" font-weight="500">30d Avg</text>
    <text x="317" y="100" fill="#a3be8c" font-size="16" font-family="'Segoe UI Mono', 'Cascadia Code', monospace" text-anchor="middle" font-weight="700">+11,128</text>
    <text x="317" y="118" fill="#bf616a" font-size="14" font-family="'Segoe UI Mono', 'Cascadia Code', monospace" text-anchor="middle" font-weight="600">-1,703</text>
    <rect x="420" y="60" width="190" height="68" rx="8" fill="#2e3440" stroke="#4c566a" stroke-width="1"/>
    <text x="515" y="78" fill="#81a1c1" font-size="11" font-family="'Segoe UI', sans-serif" text-anchor="middle" font-weight="500">Year Avg</text>
    <text x="515" y="100" fill="#a3be8c" font-size="16" font-family="'Segoe UI Mono', 'Cascadia Code', monospace" text-anchor="middle" font-weight="700">+25,989</text>
    <text x="515" y="118" fill="#bf616a" font-size="14" font-family="'Segoe UI Mono', 'Cascadia Code', monospace" text-anchor="middle" font-weight="600">-7,070</text>
    <rect x="618" y="60" width="190" height="68" rx="8" fill="#2e3440" stroke="#4c566a" stroke-width="1"/>
    <text x="713" y="78" fill="#81a1c1" font-size="11" font-family="'Segoe UI', sans-serif" text-anchor="middle" font-weight="500">Streak</text>
    <text x="713" y="104" fill="#88c0d0" font-size="20" font-family="'Segoe UI Mono', 'Cascadia Code', monospace" text-anchor="middle" font-weight="700">217</text>
    <text x="713" y="120" fill="#81a1c1" font-size="11" font-family="'Segoe UI', sans-serif" text-anchor="middle">days</text>
  </g>

  <g class="cpd-chart">
    <line x1="72" y1="148" x2="808" y2="148" stroke="#434c5e" stroke-width="1" stroke-dasharray="4,4"/><line x1="72" y1="213.5" x2="808" y2="213.5" stroke="#434c5e" stroke-width="1" stroke-dasharray="4,4"/><line x1="72" y1="279" x2="808" y2="279" stroke="#434c5e" stroke-width="1" stroke-dasharray="4,4"/><line x1="72" y1="344.5" x2="808" y2="344.5" stroke="#434c5e" stroke-width="1" stroke-dasharray="4,4"/><line x1="72" y1="410" x2="808" y2="410" stroke="#434c5e" stroke-width="1" stroke-dasharray="4,4"/><line x1="72" y1="279" x2="808" y2="279" stroke="#4c566a" stroke-width="1.5"/><text x="64" y="162" fill="#81a1c1" font-size="10" font-family="'Segoe UI', sans-serif" text-anchor="end">+13,683</text><text x="64" y="406" fill="#81a1c1" font-size="10" font-family="'Segoe UI', sans-serif" text-anchor="end">-13,683</text><text x="64" y="283" fill="#81a1c1" font-size="10" font-family="'Segoe UI', sans-serif" text-anchor="end">0</text><path d="M 72 279 L 72 158 L 96.53333333333333 158 L 121.06666666666666 221.41379814368196 L 145.60000000000002 158 L 170.13333333333333 277.302126726595 L 194.66666666666669 279 L 219.20000000000002 262.94094862237813 L 243.73333333333335 279 L 268.26666666666665 241.45224000584668 L 292.8 279 L 317.33333333333337 278.3367682525762 L 341.8666666666667 275.480450193671 L 366.40000000000003 237.75582840020462 L 390.93333333333334 272.65066140466274 L 415.4666666666667 279 L 440 269.93583278520794 L 464.53333333333336 235.47431118906673 L 489.0666666666667 229.7263027113937 L 513.6 251.84287071548636 L 538.1333333333334 158 L 562.6666666666667 203.38273770371995 L 587.2 158 L 611.7333333333333 214.7903237594095 L 636.2666666666667 217.487466198933 L 660.8000000000001 262.75524373309946 L 685.3333333333334 266.4516553387415 L 709.8666666666667 239.0203902652927 L 734.4000000000001 158 L 758.9333333333334 250.86128772929914 L 783.4666666666667 256.6269823869035 L 808 279 L 808 279 Z" fill="#a3be8c" opacity="0.15"/><path d="M 72 279 L 72 158 L 96.53333333333333 158 L 121.06666666666666 221.41379814368196 L 145.60000000000002 158 L 170.13333333333333 277.302126726595 L 194.66666666666669 279 L 219.20000000000002 262.94094862237813 L 243.73333333333335 279 L 268.26666666666665 241.45224000584668 L 292.8 279 L 317.33333333333337 278.3367682525762 L 341.8666666666667 275.480450193671 L 366.40000000000003 237.75582840020462 L 390.93333333333334 272.65066140466274 L 415.4666666666667 279 L 440 269.93583278520794 L 464.53333333333336 235.47431118906673 L 489.0666666666667 229.7263027113937 L 513.6 251.84287071548636 L 538.1333333333334 158 L 562.6666666666667 203.38273770371995 L 587.2 158 L 611.7333333333333 214.7903237594095 L 636.2666666666667 217.487466198933 L 660.8000000000001 262.75524373309946 L 685.3333333333334 266.4516553387415 L 709.8666666666667 239.0203902652927 L 734.4000000000001 158 L 758.9333333333334 250.86128772929914 L 783.4666666666667 256.6269823869035 L 808 279" fill="none" stroke="#a3be8c" stroke-width="2"/><path d="M 72 279 L 72 400 L 96.53333333333333 327.13293868303737 L 121.06666666666666 287.90499159541037 L 145.60000000000002 288.84235913176934 L 170.13333333333333 279.53058539793903 L 194.66666666666669 279 L 219.20000000000002 279.0972739896222 L 243.73333333333335 279 L 268.26666666666665 279.72513337718334 L 292.8 279 L 317.33333333333337 279.7870350069429 L 341.8666666666667 280.8570488927867 L 366.40000000000003 319.12109917415773 L 390.93333333333334 279.2652926989695 L 415.4666666666667 279 L 440 281.20192940144705 L 464.53333333333336 283.5807206022071 L 489.0666666666667 287.56895417671564 L 513.6 279.9815829861872 L 538.1333333333334 328.91039976613314 L 562.6666666666667 283.0501352042681 L 587.2 284.79222392750125 L 611.7333333333333 288.97500548125413 L 636.2666666666667 279.60133011766425 L 660.8000000000001 280.48563911422934 L 685.3333333333334 279.76050573704595 L 709.8666666666667 281.5202806402105 L 734.4000000000001 352.16772637579476 L 758.9333333333334 284.83643937732955 L 783.4666666666667 285.1105751662647 L 808 279 L 808 279 Z" fill="#bf616a" opacity="0.15"/><path d="M 72 279 L 72 400 L 96.53333333333333 327.13293868303737 L 121.06666666666666 287.90499159541037 L 145.60000000000002 288.84235913176934 L 170.13333333333333 279.53058539793903 L 194.66666666666669 279 L 219.20000000000002 279.0972739896222 L 243.73333333333335 279 L 268.26666666666665 279.72513337718334 L 292.8 279 L 317.33333333333337 279.7870350069429 L 341.8666666666667 280.8570488927867 L 366.40000000000003 319.12109917415773 L 390.93333333333334 279.2652926989695 L 415.4666666666667 279 L 440 281.20192940144705 L 464.53333333333336 283.5807206022071 L 489.0666666666667 287.56895417671564 L 513.6 279.9815829861872 L 538.1333333333334 328.91039976613314 L 562.6666666666667 283.0501352042681 L 587.2 284.79222392750125 L 611.7333333333333 288.97500548125413 L 636.2666666666667 279.60133011766425 L 660.8000000000001 280.48563911422934 L 685.3333333333334 279.76050573704595 L 709.8666666666667 281.5202806402105 L 734.4000000000001 352.16772637579476 L 758.9333333333334 284.83643937732955 L 783.4666666666667 285.1105751662647 L 808 279" fill="none" stroke="#bf616a" stroke-width="2"/><text x="72" y="426" fill="#81a1c1" font-size="10" font-family="'Segoe UI', sans-serif" text-anchor="middle">Jun 2</text><text x="194.66666666666669" y="426" fill="#81a1c1" font-size="10" font-family="'Segoe UI', sans-serif" text-anchor="middle">Jun 7</text><text x="317.33333333333337" y="426" fill="#81a1c1" font-size="10" font-family="'Segoe UI', sans-serif" text-anchor="middle">Jun 12</text><text x="440" y="426" fill="#81a1c1" font-size="10" font-family="'Segoe UI', sans-serif" text-anchor="middle">Jun 17</text><text x="562.6666666666667" y="426" fill="#81a1c1" font-size="10" font-family="'Segoe UI', sans-serif" text-anchor="middle">Jun 22</text><text x="685.3333333333334" y="426" fill="#81a1c1" font-size="10" font-family="'Segoe UI', sans-serif" text-anchor="middle">Jun 27</text><text x="808" y="426" fill="#81a1c1" font-size="10" font-family="'Segoe UI', sans-serif" text-anchor="middle">Jul 2</text>
  </g>

  <g class="cpd-legend">
    
    <circle cx="30" cy="442" r="5" fill="#a3be8c"/>
    <text x="40" y="446" fill="#d8dee9" font-size="11" font-family="'Segoe UI', sans-serif">Additions</text>
    <circle cx="124" cy="442" r="5" fill="#bf616a"/>
    <text x="134" y="446" fill="#d8dee9" font-size="11" font-family="'Segoe UI', sans-serif">Deletions</text>
    <text x="816" y="446" fill="#81a1c1" font-size="10" font-family="'Segoe UI', sans-serif" text-anchor="end">Last 31 days · +344,983 / -52,785 lines</text>
  </g>

  <a href="https://github.com/mpge/code-per-day" target="_blank">
    <text x="420" y="452" fill="#81a1c1" font-size="10" font-family="'Segoe UI', sans-serif" text-anchor="middle" opacity="0.6">Get your own - github.com/mpge/code-per-day</text>
  </a>
</svg>