<svg width="840" height="460" viewBox="0 0 840 460" xmlns="http://www.w3.org/2000/svg">
  
    <style>
      @keyframes fadeInUp {
        from { opacity: 0; transform: translateY(12px); }
        to   { opacity: 1; transform: translateY(0); }
      }
      @keyframes growBar {
        from { transform: scaleY(0); }
        to   { transform: scaleY(1); }
      }
      .cpd-header  { animation: fadeInUp 0.5s ease both; }
      .cpd-stats   { animation: fadeInUp 0.5s ease 0.15s both; }
      .cpd-chart   { animation: fadeInUp 0.5s ease 0.3s both; }
      .cpd-legend  { animation: fadeInUp 0.5s ease 0.45s both; }
    </style>

  <rect width="840" height="460" rx="12" fill="#141321" stroke="#2d2b55" stroke-width="1"/>

  <g class="cpd-header">
    <a href="https://github.com/mpge/code-per-day" target="_blank">
      <text x="24" y="44" fill="#ff7edb" font-size="18" font-family="'Segoe UI', sans-serif" font-weight="700">Code Per Day</text>
    </a>
    <text x="816" y="44" fill="#544d8a" font-size="13" font-family="'Segoe UI', sans-serif" text-anchor="end" font-weight="500">@mpge</text>
  </g>

  <g class="cpd-stats">
    
    <rect x="24" y="60" width="190" height="68" rx="8" fill="#0f0e1a" stroke="#2d2b55" stroke-width="1"/>
    <text x="119" y="78" fill="#544d8a" font-size="11" font-family="'Segoe UI', sans-serif" text-anchor="middle" font-weight="500">Today</text>
    <text x="119" y="100" fill="#fad000" font-size="16" font-family="'Segoe UI Mono', 'Cascadia Code', monospace" text-anchor="middle" font-weight="700">+32,227</text>
    <text x="119" y="118" fill="#ff628c" font-size="14" font-family="'Segoe UI Mono', 'Cascadia Code', monospace" text-anchor="middle" font-weight="600">-1,919</text>
    <rect x="222" y="60" width="190" height="68" rx="8" fill="#0f0e1a" stroke="#2d2b55" stroke-width="1"/>
    <text x="317" y="78" fill="#544d8a" font-size="11" font-family="'Segoe UI', sans-serif" text-anchor="middle" font-weight="500">30d Avg</text>
    <text x="317" y="100" fill="#fad000" font-size="16" font-family="'Segoe UI Mono', 'Cascadia Code', monospace" text-anchor="middle" font-weight="700">+11,365</text>
    <text x="317" y="118" fill="#ff628c" font-size="14" font-family="'Segoe UI Mono', 'Cascadia Code', monospace" text-anchor="middle" font-weight="600">-4,240</text>
    <rect x="420" y="60" width="190" height="68" rx="8" fill="#0f0e1a" stroke="#2d2b55" stroke-width="1"/>
    <text x="515" y="78" fill="#544d8a" font-size="11" font-family="'Segoe UI', sans-serif" text-anchor="middle" font-weight="500">Year Avg</text>
    <text x="515" y="100" fill="#fad000" font-size="16" font-family="'Segoe UI Mono', 'Cascadia Code', monospace" text-anchor="middle" font-weight="700">+25,838</text>
    <text x="515" y="118" fill="#ff628c" font-size="14" font-family="'Segoe UI Mono', 'Cascadia Code', monospace" text-anchor="middle" font-weight="600">-7,112</text>
    <rect x="618" y="60" width="190" height="68" rx="8" fill="#0f0e1a" stroke="#2d2b55" stroke-width="1"/>
    <text x="713" y="78" fill="#544d8a" font-size="11" font-family="'Segoe UI', sans-serif" text-anchor="middle" font-weight="500">Streak</text>
    <text x="713" y="104" fill="#ff7edb" font-size="20" font-family="'Segoe UI Mono', 'Cascadia Code', monospace" text-anchor="middle" font-weight="700">208</text>
    <text x="713" y="120" fill="#544d8a" font-size="11" font-family="'Segoe UI', sans-serif" text-anchor="middle">days</text>
  </g>

  <g class="cpd-chart">
    <line x1="72" y1="148" x2="808" y2="148" stroke="#252340" stroke-width="1" stroke-dasharray="4,4"/><line x1="72" y1="213.5" x2="808" y2="213.5" stroke="#252340" stroke-width="1" stroke-dasharray="4,4"/><line x1="72" y1="279" x2="808" y2="279" stroke="#252340" stroke-width="1" stroke-dasharray="4,4"/><line x1="72" y1="344.5" x2="808" y2="344.5" stroke="#252340" stroke-width="1" stroke-dasharray="4,4"/><line x1="72" y1="410" x2="808" y2="410" stroke="#252340" stroke-width="1" stroke-dasharray="4,4"/><line x1="72" y1="279" x2="808" y2="279" stroke="#2d2b55" stroke-width="1.5"/><text x="64" y="162" fill="#544d8a" font-size="10" font-family="'Segoe UI', sans-serif" text-anchor="end">+21,120</text><text x="64" y="406" fill="#544d8a" font-size="10" font-family="'Segoe UI', sans-serif" text-anchor="end">-21,120</text><text x="64" y="283" fill="#544d8a" font-size="10" font-family="'Segoe UI', sans-serif" text-anchor="end">0</text><path d="M 72 279 L 72 203.19166666666666 L 96.53333333333333 251.94114583333334 L 121.06666666666666 254.8 L 145.60000000000002 259.1828125 L 170.13333333333333 158.95677083333334 L 194.66666666666669 212.24374999999998 L 219.20000000000002 228.846875 L 243.73333333333335 158 L 268.26666666666665 173.02760416666666 L 292.8 158 L 317.33333333333337 165.19583333333333 L 341.8666666666667 241.69166666666666 L 366.40000000000003 197.8578125 L 390.93333333333334 277.9 L 415.4666666666667 279 L 440 268.59583333333336 L 464.53333333333336 279 L 489.0666666666667 254.67395833333333 L 513.6 279 L 538.1333333333334 278.5703125 L 562.6666666666667 276.71979166666665 L 587.2 252.27916666666667 L 611.7333333333333 274.88645833333334 L 636.2666666666667 279 L 660.8000000000001 270.8130208333333 L 685.3333333333334 250.80104166666666 L 709.8666666666667 247.07708333333332 L 734.4000000000001 261.4057291666667 L 758.9333333333334 158 L 783.4666666666667 230.00989583333333 L 808 158 L 808 279 Z" fill="#fad000" opacity="0.15"/><path d="M 72 279 L 72 203.19166666666666 L 96.53333333333333 251.94114583333334 L 121.06666666666666 254.8 L 145.60000000000002 259.1828125 L 170.13333333333333 158.95677083333334 L 194.66666666666669 212.24374999999998 L 219.20000000000002 228.846875 L 243.73333333333335 158 L 268.26666666666665 173.02760416666666 L 292.8 158 L 317.33333333333337 165.19583333333333 L 341.8666666666667 241.69166666666666 L 366.40000000000003 197.8578125 L 390.93333333333334 277.9 L 415.4666666666667 279 L 440 268.59583333333336 L 464.53333333333336 279 L 489.0666666666667 254.67395833333333 L 513.6 279 L 538.1333333333334 278.5703125 L 562.6666666666667 276.71979166666665 L 587.2 252.27916666666667 L 611.7333333333333 274.88645833333334 L 636.2666666666667 279 L 660.8000000000001 270.8130208333333 L 685.3333333333334 250.80104166666666 L 709.8666666666667 247.07708333333332 L 734.4000000000001 261.4057291666667 L 758.9333333333334 158 L 783.4666666666667 230.00989583333333 L 808 158" fill="none" stroke="#fad000" stroke-width="2"/><path d="M 72 279 L 72 301.584375 L 96.53333333333333 283.8984375 L 121.06666666666666 286.7973958333333 L 145.60000000000002 288.53333333333336 L 170.13333333333333 305.434375 L 194.66666666666669 308.83177083333334 L 219.20000000000002 283.0963541666667 L 243.73333333333335 356.653125 L 268.26666666666665 400 L 292.8 400 L 317.33333333333337 310.18385416666666 L 341.8666666666667 284.76927083333334 L 366.40000000000003 290.56145833333335 L 390.93333333333334 279.34375 L 415.4666666666667 279 L 440 279.0630208333333 L 464.53333333333336 279 L 489.0666666666667 279.46979166666665 L 513.6 279 L 538.1333333333334 279.50989583333336 L 562.6666666666667 280.203125 L 587.2 304.99322916666665 L 611.7333333333333 279.171875 L 636.2666666666667 279 L 660.8000000000001 281.028125 L 685.3333333333334 281.96770833333335 L 709.8666666666667 284.5515625 L 734.4000000000001 279.6359375 L 758.9333333333334 311.3354166666667 L 783.4666666666667 284.121875 L 808 289.99427083333336 L 808 279 Z" fill="#ff628c" opacity="0.15"/><path d="M 72 279 L 72 301.584375 L 96.53333333333333 283.8984375 L 121.06666666666666 286.7973958333333 L 145.60000000000002 288.53333333333336 L 170.13333333333333 305.434375 L 194.66666666666669 308.83177083333334 L 219.20000000000002 283.0963541666667 L 243.73333333333335 356.653125 L 268.26666666666665 400 L 292.8 400 L 317.33333333333337 310.18385416666666 L 341.8666666666667 284.76927083333334 L 366.40000000000003 290.56145833333335 L 390.93333333333334 279.34375 L 415.4666666666667 279 L 440 279.0630208333333 L 464.53333333333336 279 L 489.0666666666667 279.46979166666665 L 513.6 279 L 538.1333333333334 279.50989583333336 L 562.6666666666667 280.203125 L 587.2 304.99322916666665 L 611.7333333333333 279.171875 L 636.2666666666667 279 L 660.8000000000001 281.028125 L 685.3333333333334 281.96770833333335 L 709.8666666666667 284.5515625 L 734.4000000000001 279.6359375 L 758.9333333333334 311.3354166666667 L 783.4666666666667 284.121875 L 808 289.99427083333336" fill="none" stroke="#ff628c" stroke-width="2"/><text x="72" y="426" fill="#544d8a" font-size="10" font-family="'Segoe UI', sans-serif" text-anchor="middle">May 24</text><text x="194.66666666666669" y="426" fill="#544d8a" font-size="10" font-family="'Segoe UI', sans-serif" text-anchor="middle">May 29</text><text x="317.33333333333337" y="426" fill="#544d8a" font-size="10" font-family="'Segoe UI', sans-serif" text-anchor="middle">Jun 3</text><text x="440" y="426" fill="#544d8a" font-size="10" font-family="'Segoe UI', sans-serif" text-anchor="middle">Jun 8</text><text x="562.6666666666667" y="426" fill="#544d8a" font-size="10" font-family="'Segoe UI', sans-serif" text-anchor="middle">Jun 13</text><text x="685.3333333333334" y="426" fill="#544d8a" font-size="10" font-family="'Segoe UI', sans-serif" text-anchor="middle">Jun 18</text><text x="808" y="426" fill="#544d8a" font-size="10" font-family="'Segoe UI', sans-serif" text-anchor="middle">Jun 23</text>
  </g>

  <g class="cpd-legend">
    
    <circle cx="30" cy="442" r="5" fill="#fad000"/>
    <text x="40" y="446" fill="#a599e9" font-size="11" font-family="'Segoe UI', sans-serif">Additions</text>
    <circle cx="124" cy="442" r="5" fill="#ff628c"/>
    <text x="134" y="446" fill="#a599e9" font-size="11" font-family="'Segoe UI', sans-serif">Deletions</text>
    <text x="816" y="446" fill="#544d8a" font-size="10" font-family="'Segoe UI', sans-serif" text-anchor="end">Last 31 days · +352,308 / -131,451 lines</text>
  </g>

  <a href="https://github.com/mpge/code-per-day" target="_blank">
    <text x="420" y="452" fill="#544d8a" font-size="10" font-family="'Segoe UI', sans-serif" text-anchor="middle" opacity="0.6">Get your own - github.com/mpge/code-per-day</text>
  </a>
</svg>