<svg width="840" height="460" viewBox="0 0 840 460" xmlns="http://www.w3.org/2000/svg">
  
    <style>
      @keyframes fadeInUp {
        from { opacity: 0; transform: translateY(12px); }
        to   { opacity: 1; transform: translateY(0); }
      }
      @keyframes growBar {
        from { transform: scaleY(0); }
        to   { transform: scaleY(1); }
      }
      .cpd-header  { animation: fadeInUp 0.5s ease both; }
      .cpd-stats   { animation: fadeInUp 0.5s ease 0.15s both; }
      .cpd-chart   { animation: fadeInUp 0.5s ease 0.3s both; }
      .cpd-legend  { animation: fadeInUp 0.5s ease 0.45s both; }
    </style>

  <rect width="840" height="460" rx="12" fill="#0b1a0b" stroke="#1e3a1e" stroke-width="1"/>

  <g class="cpd-header">
    <a href="https://github.com/mpge/code-per-day" target="_blank">
      <text x="24" y="44" fill="#c8e6c8" font-size="18" font-family="'Segoe UI', sans-serif" font-weight="700">Code Per Day</text>
    </a>
    <text x="816" y="44" fill="#5a7a5a" font-size="13" font-family="'Segoe UI', sans-serif" text-anchor="end" font-weight="500">@mpge</text>
  </g>

  <g class="cpd-stats">
    
    <rect x="24" y="60" width="190" height="68" rx="8" fill="#091409" stroke="#1e3a1e" stroke-width="1"/>
    <text x="119" y="78" fill="#5a7a5a" font-size="11" font-family="'Segoe UI', sans-serif" text-anchor="middle" font-weight="500">Today</text>
    <text x="119" y="100" fill="#66ff66" font-size="16" font-family="'Segoe UI Mono', 'Cascadia Code', monospace" text-anchor="middle" font-weight="700">+729</text>
    <text x="119" y="118" fill="#ff8a65" font-size="14" font-family="'Segoe UI Mono', 'Cascadia Code', monospace" text-anchor="middle" font-weight="600">-189</text>
    <rect x="222" y="60" width="190" height="68" rx="8" fill="#091409" stroke="#1e3a1e" stroke-width="1"/>
    <text x="317" y="78" fill="#5a7a5a" font-size="11" font-family="'Segoe UI', sans-serif" text-anchor="middle" font-weight="500">30d Avg</text>
    <text x="317" y="100" fill="#66ff66" font-size="16" font-family="'Segoe UI Mono', 'Cascadia Code', monospace" text-anchor="middle" font-weight="700">+36,147</text>
    <text x="317" y="118" fill="#ff8a65" font-size="14" font-family="'Segoe UI Mono', 'Cascadia Code', monospace" text-anchor="middle" font-weight="600">-5,276</text>
    <rect x="420" y="60" width="190" height="68" rx="8" fill="#091409" stroke="#1e3a1e" stroke-width="1"/>
    <text x="515" y="78" fill="#5a7a5a" font-size="11" font-family="'Segoe UI', sans-serif" text-anchor="middle" font-weight="500">Year Avg</text>
    <text x="515" y="100" fill="#66ff66" font-size="16" font-family="'Segoe UI Mono', 'Cascadia Code', monospace" text-anchor="middle" font-weight="700">+25,103</text>
    <text x="515" y="118" fill="#ff8a65" font-size="14" font-family="'Segoe UI Mono', 'Cascadia Code', monospace" text-anchor="middle" font-weight="600">-6,816</text>
    <rect x="618" y="60" width="190" height="68" rx="8" fill="#091409" stroke="#1e3a1e" stroke-width="1"/>
    <text x="713" y="78" fill="#5a7a5a" font-size="11" font-family="'Segoe UI', sans-serif" text-anchor="middle" font-weight="500">Streak</text>
    <text x="713" y="104" fill="#66ff66" font-size="20" font-family="'Segoe UI Mono', 'Cascadia Code', monospace" text-anchor="middle" font-weight="700">183</text>
    <text x="713" y="120" fill="#5a7a5a" font-size="11" font-family="'Segoe UI', sans-serif" text-anchor="middle">days</text>
  </g>

  <g class="cpd-chart">
    <line x1="72" y1="148" x2="808" y2="148" stroke="#1a2e1a" stroke-width="1" stroke-dasharray="4,4"/><line x1="72" y1="213.5" x2="808" y2="213.5" stroke="#1a2e1a" stroke-width="1" stroke-dasharray="4,4"/><line x1="72" y1="279" x2="808" y2="279" stroke="#1a2e1a" stroke-width="1" stroke-dasharray="4,4"/><line x1="72" y1="344.5" x2="808" y2="344.5" stroke="#1a2e1a" stroke-width="1" stroke-dasharray="4,4"/><line x1="72" y1="410" x2="808" y2="410" stroke="#1a2e1a" stroke-width="1" stroke-dasharray="4,4"/><line x1="72" y1="279" x2="808" y2="279" stroke="#1e3a1e" stroke-width="1.5"/><text x="64" y="162" fill="#5a7a5a" font-size="10" font-family="'Segoe UI', sans-serif" text-anchor="end">+27,937</text><text x="64" y="406" fill="#5a7a5a" font-size="10" font-family="'Segoe UI', sans-serif" text-anchor="end">-27,937</text><text x="64" y="283" fill="#5a7a5a" font-size="10" font-family="'Segoe UI', sans-serif" text-anchor="end">0</text><path d="M 72 279 L 72 218.82700361527722 L 96.53333333333333 241.65228907899916 L 121.06666666666666 158 L 145.60000000000002 252.53652861796184 L 170.13333333333333 264.40827576332464 L 194.66666666666669 181.65687081647994 L 219.20000000000002 243.93914879908365 L 243.73333333333335 199.1331567455346 L 268.26666666666665 158 L 292.8 273.3564806528976 L 317.33333333333337 227.21215592225366 L 341.8666666666667 213.694562766224 L 366.40000000000003 264.19171707771056 L 390.93333333333334 241.26248344489386 L 415.4666666666667 261.41543472813834 L 440 258.12807388051687 L 464.53333333333336 276.95568600780325 L 489.0666666666667 158 L 513.6 158 L 538.1333333333334 158 L 562.6666666666667 183.52360668647316 L 587.2 276.4359451623295 L 611.7333333333333 258.5092171671976 L 636.2666666666667 223.9724379854673 L 660.8000000000001 221.68990943909512 L 685.3333333333334 258.54386655689586 L 709.8666666666667 260.70512223932417 L 734.4000000000001 264.01847012921934 L 758.9333333333334 188.24891720657195 L 783.4666666666667 228.53316390449942 L 808 275.842574363747 L 808 279 Z" fill="#66ff66" opacity="0.15"/><path d="M 72 279 L 72 218.82700361527722 L 96.53333333333333 241.65228907899916 L 121.06666666666666 158 L 145.60000000000002 252.53652861796184 L 170.13333333333333 264.40827576332464 L 194.66666666666669 181.65687081647994 L 219.20000000000002 243.93914879908365 L 243.73333333333335 199.1331567455346 L 268.26666666666665 158 L 292.8 273.3564806528976 L 317.33333333333337 227.21215592225366 L 341.8666666666667 213.694562766224 L 366.40000000000003 264.19171707771056 L 390.93333333333334 241.26248344489386 L 415.4666666666667 261.41543472813834 L 440 258.12807388051687 L 464.53333333333336 276.95568600780325 L 489.0666666666667 158 L 513.6 158 L 538.1333333333334 158 L 562.6666666666667 183.52360668647316 L 587.2 276.4359451623295 L 611.7333333333333 258.5092171671976 L 636.2666666666667 223.9724379854673 L 660.8000000000001 221.68990943909512 L 685.3333333333334 258.54386655689586 L 709.8666666666667 260.70512223932417 L 734.4000000000001 264.01847012921934 L 758.9333333333334 188.24891720657195 L 783.4666666666667 228.53316390449942 L 808 275.842574363747" fill="none" stroke="#66ff66" stroke-width="2"/><path d="M 72 279 L 72 299.17460715180584 L 96.53333333333333 285.94287146078676 L 121.06666666666666 314.33804631850234 L 145.60000000000002 291.3438450800014 L 170.13333333333333 284.52224648315854 L 194.66666666666669 287.00400902029565 L 219.20000000000002 282.37398432186706 L 243.73333333333335 299.1139707198339 L 268.26666666666665 400 L 292.8 281.2348856355371 L 317.33333333333337 283.70365465153736 L 341.8666666666667 290.9800264881698 L 366.40000000000003 279.415792676379 L 390.93333333333334 293.3968214196227 L 415.4666666666667 283.18391380606363 L 440 281.295522067509 L 464.53333333333336 279.4201238500913 L 489.0666666666667 284.6478505208147 L 513.6 290.4472921215592 L 538.1333333333334 400 L 562.6666666666667 316.7288542076816 L 587.2 280.69782009521424 L 611.7333333333333 294.77413466012814 L 636.2666666666667 302.56591616852205 L 660.8000000000001 296.07348677381253 L 685.3333333333334 282.7031535240004 L 709.8666666666667 284.89472742241475 L 734.4000000000001 286.2070730572359 L 758.9333333333334 298.98403550846547 L 783.4666666666667 301.5524215198482 L 808 279.8185918316211 L 808 279 Z" fill="#ff8a65" opacity="0.15"/><path d="M 72 279 L 72 299.17460715180584 L 96.53333333333333 285.94287146078676 L 121.06666666666666 314.33804631850234 L 145.60000000000002 291.3438450800014 L 170.13333333333333 284.52224648315854 L 194.66666666666669 287.00400902029565 L 219.20000000000002 282.37398432186706 L 243.73333333333335 299.1139707198339 L 268.26666666666665 400 L 292.8 281.2348856355371 L 317.33333333333337 283.70365465153736 L 341.8666666666667 290.9800264881698 L 366.40000000000003 279.415792676379 L 390.93333333333334 293.3968214196227 L 415.4666666666667 283.18391380606363 L 440 281.295522067509 L 464.53333333333336 279.4201238500913 L 489.0666666666667 284.6478505208147 L 513.6 290.4472921215592 L 538.1333333333334 400 L 562.6666666666667 316.7288542076816 L 587.2 280.69782009521424 L 611.7333333333333 294.77413466012814 L 636.2666666666667 302.56591616852205 L 660.8000000000001 296.07348677381253 L 685.3333333333334 282.7031535240004 L 709.8666666666667 284.89472742241475 L 734.4000000000001 286.2070730572359 L 758.9333333333334 298.98403550846547 L 783.4666666666667 301.5524215198482 L 808 279.8185918316211" fill="none" stroke="#ff8a65" stroke-width="2"/><text x="72" y="426" fill="#5a7a5a" font-size="10" font-family="'Segoe UI', sans-serif" text-anchor="middle">Apr 30</text><text x="194.66666666666669" y="426" fill="#5a7a5a" font-size="10" font-family="'Segoe UI', sans-serif" text-anchor="middle">May 5</text><text x="317.33333333333337" y="426" fill="#5a7a5a" font-size="10" font-family="'Segoe UI', sans-serif" text-anchor="middle">May 10</text><text x="440" y="426" fill="#5a7a5a" font-size="10" font-family="'Segoe UI', sans-serif" text-anchor="middle">May 15</text><text x="562.6666666666667" y="426" fill="#5a7a5a" font-size="10" font-family="'Segoe UI', sans-serif" text-anchor="middle">May 20</text><text x="685.3333333333334" y="426" fill="#5a7a5a" font-size="10" font-family="'Segoe UI', sans-serif" text-anchor="middle">May 25</text><text x="808" y="426" fill="#5a7a5a" font-size="10" font-family="'Segoe UI', sans-serif" text-anchor="middle">May 30</text>
  </g>

  <g class="cpd-legend">
    
    <circle cx="30" cy="442" r="5" fill="#66ff66"/>
    <text x="40" y="446" fill="#8ab88a" font-size="11" font-family="'Segoe UI', sans-serif">Additions</text>
    <circle cx="124" cy="442" r="5" fill="#ff8a65"/>
    <text x="134" y="446" fill="#8ab88a" font-size="11" font-family="'Segoe UI', sans-serif">Deletions</text>
    <text x="816" y="446" fill="#5a7a5a" font-size="10" font-family="'Segoe UI', sans-serif" text-anchor="end">Last 31 days · +1,120,570 / -163,559 lines</text>
  </g>

  <a href="https://github.com/mpge/code-per-day" target="_blank">
    <text x="420" y="452" fill="#5a7a5a" font-size="10" font-family="'Segoe UI', sans-serif" text-anchor="middle" opacity="0.6">Get your own - github.com/mpge/code-per-day</text>
  </a>
</svg>