<svg width="840" height="460" viewBox="0 0 840 460" xmlns="http://www.w3.org/2000/svg">
  
    <style>
      @keyframes fadeInUp {
        from { opacity: 0; transform: translateY(12px); }
        to   { opacity: 1; transform: translateY(0); }
      }
      @keyframes growBar {
        from { transform: scaleY(0); }
        to   { transform: scaleY(1); }
      }
      .cpd-header  { animation: fadeInUp 0.5s ease both; }
      .cpd-stats   { animation: fadeInUp 0.5s ease 0.15s both; }
      .cpd-chart   { animation: fadeInUp 0.5s ease 0.3s both; }
      .cpd-legend  { animation: fadeInUp 0.5s ease 0.45s both; }
    </style>

  <rect width="840" height="460" rx="12" fill="#1a1028" stroke="#3d2660" stroke-width="1"/>

  <g class="cpd-header">
    <a href="https://github.com/mpge/code-per-day" target="_blank">
      <text x="24" y="44" fill="#f0d0ff" font-size="18" font-family="'Segoe UI', sans-serif" font-weight="700">Code Per Day</text>
    </a>
    <text x="816" y="44" fill="#7a5a8e" font-size="13" font-family="'Segoe UI', sans-serif" text-anchor="end" font-weight="500">@mpge</text>
  </g>

  <g class="cpd-stats">
    
    <rect x="24" y="60" width="190" height="68" rx="8" fill="#160e22" stroke="#3d2660" stroke-width="1"/>
    <text x="119" y="78" fill="#7a5a8e" font-size="11" font-family="'Segoe UI', sans-serif" text-anchor="middle" font-weight="500">Today</text>
    <text x="119" y="100" fill="#ffb86c" font-size="16" font-family="'Segoe UI Mono', 'Cascadia Code', monospace" text-anchor="middle" font-weight="700">+2,273</text>
    <text x="119" y="118" fill="#ff79c6" font-size="14" font-family="'Segoe UI Mono', 'Cascadia Code', monospace" text-anchor="middle" font-weight="600">-218</text>
    <rect x="222" y="60" width="190" height="68" rx="8" fill="#160e22" stroke="#3d2660" stroke-width="1"/>
    <text x="317" y="78" fill="#7a5a8e" font-size="11" font-family="'Segoe UI', sans-serif" text-anchor="middle" font-weight="500">30d Avg</text>
    <text x="317" y="100" fill="#ffb86c" font-size="16" font-family="'Segoe UI Mono', 'Cascadia Code', monospace" text-anchor="middle" font-weight="700">+180,233</text>
    <text x="317" y="118" fill="#ff79c6" font-size="14" font-family="'Segoe UI Mono', 'Cascadia Code', monospace" text-anchor="middle" font-weight="600">-2,871</text>
    <rect x="420" y="60" width="190" height="68" rx="8" fill="#160e22" stroke="#3d2660" stroke-width="1"/>
    <text x="515" y="78" fill="#7a5a8e" font-size="11" font-family="'Segoe UI', sans-serif" text-anchor="middle" font-weight="500">Year Avg</text>
    <text x="515" y="100" fill="#ffb86c" font-size="16" font-family="'Segoe UI Mono', 'Cascadia Code', monospace" text-anchor="middle" font-weight="700">+24,021</text>
    <text x="515" y="118" fill="#ff79c6" font-size="14" font-family="'Segoe UI Mono', 'Cascadia Code', monospace" text-anchor="middle" font-weight="600">-6,456</text>
    <rect x="618" y="60" width="190" height="68" rx="8" fill="#160e22" stroke="#3d2660" stroke-width="1"/>
    <text x="713" y="78" fill="#7a5a8e" font-size="11" font-family="'Segoe UI', sans-serif" text-anchor="middle" font-weight="500">Streak</text>
    <text x="713" y="104" fill="#ff79c6" font-size="20" font-family="'Segoe UI Mono', 'Cascadia Code', monospace" text-anchor="middle" font-weight="700">159</text>
    <text x="713" y="120" fill="#7a5a8e" font-size="11" font-family="'Segoe UI', sans-serif" text-anchor="middle">days</text>
  </g>

  <g class="cpd-chart">
    <line x1="72" y1="148" x2="808" y2="148" stroke="#2d1c44" stroke-width="1" stroke-dasharray="4,4"/><line x1="72" y1="213.5" x2="808" y2="213.5" stroke="#2d1c44" stroke-width="1" stroke-dasharray="4,4"/><line x1="72" y1="279" x2="808" y2="279" stroke="#2d1c44" stroke-width="1" stroke-dasharray="4,4"/><line x1="72" y1="344.5" x2="808" y2="344.5" stroke="#2d1c44" stroke-width="1" stroke-dasharray="4,4"/><line x1="72" y1="410" x2="808" y2="410" stroke="#2d1c44" stroke-width="1" stroke-dasharray="4,4"/><line x1="72" y1="279" x2="808" y2="279" stroke="#3d2660" stroke-width="1.5"/><text x="64" y="162" fill="#7a5a8e" font-size="10" font-family="'Segoe UI', sans-serif" text-anchor="end">+29,885</text><text x="64" y="406" fill="#7a5a8e" font-size="10" font-family="'Segoe UI', sans-serif" text-anchor="end">-29,885</text><text x="64" y="283" fill="#7a5a8e" font-size="10" font-family="'Segoe UI', sans-serif" text-anchor="end">0</text><path d="M 72 279 L 72 158 L 96.53333333333333 158 L 121.06666666666666 158 L 145.60000000000002 158 L 170.13333333333333 227.58360381462273 L 194.66666666666669 252.54478835536221 L 219.20000000000002 158 L 243.73333333333335 247.0990798059227 L 268.26666666666665 278.805655010875 L 292.8 279 L 317.33333333333337 278.78541074117453 L 341.8666666666667 279 L 366.40000000000003 258.14435335452566 L 390.93333333333334 220.4940605655011 L 415.4666666666667 250.50011711560984 L 440 260.2011711560984 L 464.53333333333336 278.9797557302995 L 489.0666666666667 173.98892420946964 L 513.6 158 L 538.1333333333334 269.9993976911494 L 562.6666666666667 167.27592437677765 L 587.2 158 L 611.7333333333333 232.91594445373934 L 636.2666666666667 268.695666722436 L 660.8000000000001 222.74927221013888 L 685.3333333333334 244.08673247448553 L 709.8666666666667 158 L 734.4000000000001 254.2615024259662 L 758.9333333333334 265.35941107579055 L 783.4666666666667 188.00200769616865 L 808 269.79695499414424 L 808 279 Z" fill="#ffb86c" opacity="0.15"/><path d="M 72 279 L 72 158 L 96.53333333333333 158 L 121.06666666666666 158 L 145.60000000000002 158 L 170.13333333333333 227.58360381462273 L 194.66666666666669 252.54478835536221 L 219.20000000000002 158 L 243.73333333333335 247.0990798059227 L 268.26666666666665 278.805655010875 L 292.8 279 L 317.33333333333337 278.78541074117453 L 341.8666666666667 279 L 366.40000000000003 258.14435335452566 L 390.93333333333334 220.4940605655011 L 415.4666666666667 250.50011711560984 L 440 260.2011711560984 L 464.53333333333336 278.9797557302995 L 489.0666666666667 173.98892420946964 L 513.6 158 L 538.1333333333334 269.9993976911494 L 562.6666666666667 167.27592437677765 L 587.2 158 L 611.7333333333333 232.91594445373934 L 636.2666666666667 268.695666722436 L 660.8000000000001 222.74927221013888 L 685.3333333333334 244.08673247448553 L 709.8666666666667 158 L 734.4000000000001 254.2615024259662 L 758.9333333333334 265.35941107579055 L 783.4666666666667 188.00200769616865 L 808 269.79695499414424" fill="none" stroke="#ffb86c" stroke-width="2"/><path d="M 72 279 L 72 307.57276225531206 L 96.53333333333333 351.91176175338796 L 121.06666666666666 296.0011376944956 L 145.60000000000002 329.07217667726286 L 170.13333333333333 287.40137192571524 L 194.66666666666669 287.23132006023087 L 219.20000000000002 282.78972728793707 L 243.73333333333335 280.1903630583905 L 268.26666666666665 298.69362556466456 L 292.8 279 L 317.33333333333337 279.1821984273047 L 341.8666666666667 279 L 366.40000000000003 279.46156934917184 L 390.93333333333334 282.3403045005856 L 415.4666666666667 287.0774636105069 L 440 279.2510289442864 L 464.53333333333336 279 L 489.0666666666667 281.23496737493724 L 513.6 298.9810941944119 L 538.1333333333334 279.33605487702863 L 562.6666666666667 284.02867659360885 L 587.2 282.5832357369918 L 611.7333333333333 300.3941442195081 L 636.2666666666667 281.19042998159614 L 660.8000000000001 297.8595616530032 L 685.3333333333334 285.49031286598625 L 709.8666666666667 312.03459929730633 L 734.4000000000001 290.53923372929563 L 758.9333333333334 284.16228877363227 L 783.4666666666667 286.4822820813117 L 808 279.8826501589426 L 808 279 Z" fill="#ff79c6" opacity="0.15"/><path d="M 72 279 L 72 307.57276225531206 L 96.53333333333333 351.91176175338796 L 121.06666666666666 296.0011376944956 L 145.60000000000002 329.07217667726286 L 170.13333333333333 287.40137192571524 L 194.66666666666669 287.23132006023087 L 219.20000000000002 282.78972728793707 L 243.73333333333335 280.1903630583905 L 268.26666666666665 298.69362556466456 L 292.8 279 L 317.33333333333337 279.1821984273047 L 341.8666666666667 279 L 366.40000000000003 279.46156934917184 L 390.93333333333334 282.3403045005856 L 415.4666666666667 287.0774636105069 L 440 279.2510289442864 L 464.53333333333336 279 L 489.0666666666667 281.23496737493724 L 513.6 298.9810941944119 L 538.1333333333334 279.33605487702863 L 562.6666666666667 284.02867659360885 L 587.2 282.5832357369918 L 611.7333333333333 300.3941442195081 L 636.2666666666667 281.19042998159614 L 660.8000000000001 297.8595616530032 L 685.3333333333334 285.49031286598625 L 709.8666666666667 312.03459929730633 L 734.4000000000001 290.53923372929563 L 758.9333333333334 284.16228877363227 L 783.4666666666667 286.4822820813117 L 808 279.8826501589426" fill="none" stroke="#ff79c6" stroke-width="2"/><text x="72" y="426" fill="#7a5a8e" font-size="10" font-family="'Segoe UI', sans-serif" text-anchor="middle">Apr 6</text><text x="194.66666666666669" y="426" fill="#7a5a8e" font-size="10" font-family="'Segoe UI', sans-serif" text-anchor="middle">Apr 11</text><text x="317.33333333333337" y="426" fill="#7a5a8e" font-size="10" font-family="'Segoe UI', sans-serif" text-anchor="middle">Apr 16</text><text x="440" y="426" fill="#7a5a8e" font-size="10" font-family="'Segoe UI', sans-serif" text-anchor="middle">Apr 21</text><text x="562.6666666666667" y="426" fill="#7a5a8e" font-size="10" font-family="'Segoe UI', sans-serif" text-anchor="middle">Apr 26</text><text x="685.3333333333334" y="426" fill="#7a5a8e" font-size="10" font-family="'Segoe UI', sans-serif" text-anchor="middle">May 1</text><text x="808" y="426" fill="#7a5a8e" font-size="10" font-family="'Segoe UI', sans-serif" text-anchor="middle">May 6</text>
  </g>

  <g class="cpd-legend">
    
    <circle cx="30" cy="442" r="5" fill="#ffb86c"/>
    <text x="40" y="446" fill="#c4a0d8" font-size="11" font-family="'Segoe UI', sans-serif">Additions</text>
    <circle cx="124" cy="442" r="5" fill="#ff79c6"/>
    <text x="134" y="446" fill="#c4a0d8" font-size="11" font-family="'Segoe UI', sans-serif">Deletions</text>
    <text x="816" y="446" fill="#7a5a8e" font-size="10" font-family="'Segoe UI', sans-serif" text-anchor="end">Last 31 days · +5,587,224 / -89,007 lines</text>
  </g>

  <a href="https://github.com/mpge/code-per-day" target="_blank">
    <text x="420" y="452" fill="#7a5a8e" font-size="10" font-family="'Segoe UI', sans-serif" text-anchor="middle" opacity="0.6">Get your own - github.com/mpge/code-per-day</text>
  </a>
</svg>