<svg width="840" height="460" viewBox="0 0 840 460" xmlns="http://www.w3.org/2000/svg">
  
    <style>
      @keyframes fadeInUp {
        from { opacity: 0; transform: translateY(12px); }
        to   { opacity: 1; transform: translateY(0); }
      }
      @keyframes growBar {
        from { transform: scaleY(0); }
        to   { transform: scaleY(1); }
      }
      .cpd-header  { animation: fadeInUp 0.5s ease both; }
      .cpd-stats   { animation: fadeInUp 0.5s ease 0.15s both; }
      .cpd-chart   { animation: fadeInUp 0.5s ease 0.3s both; }
      .cpd-legend  { animation: fadeInUp 0.5s ease 0.45s both; }
    </style>

  <rect width="840" height="460" rx="12" fill="#282a36" stroke="#44475a" stroke-width="1"/>

  <g class="cpd-header">
    <a href="https://github.com/mpge/code-per-day" target="_blank">
      <text x="24" y="44" fill="#f8f8f2" font-size="18" font-family="'Segoe UI', sans-serif" font-weight="700">Code Per Day</text>
    </a>
    <text x="816" y="44" fill="#6272a4" font-size="13" font-family="'Segoe UI', sans-serif" text-anchor="end" font-weight="500">@mpge</text>
  </g>

  <g class="cpd-stats">
    
    <rect x="24" y="60" width="190" height="68" rx="8" fill="#21222c" stroke="#44475a" stroke-width="1"/>
    <text x="119" y="78" fill="#6272a4" font-size="11" font-family="'Segoe UI', sans-serif" text-anchor="middle" font-weight="500">Today</text>
    <text x="119" y="100" fill="#50fa7b" font-size="16" font-family="'Segoe UI Mono', 'Cascadia Code', monospace" text-anchor="middle" font-weight="700">+0</text>
    <text x="119" y="118" fill="#ff5555" font-size="14" font-family="'Segoe UI Mono', 'Cascadia Code', monospace" text-anchor="middle" font-weight="600">+0</text>
    <rect x="222" y="60" width="190" height="68" rx="8" fill="#21222c" stroke="#44475a" stroke-width="1"/>
    <text x="317" y="78" fill="#6272a4" font-size="11" font-family="'Segoe UI', sans-serif" text-anchor="middle" font-weight="500">30d Avg</text>
    <text x="317" y="100" fill="#50fa7b" font-size="16" font-family="'Segoe UI Mono', 'Cascadia Code', monospace" text-anchor="middle" font-weight="700">+20,287</text>
    <text x="317" y="118" fill="#ff5555" font-size="14" font-family="'Segoe UI Mono', 'Cascadia Code', monospace" text-anchor="middle" font-weight="600">-7,748</text>
    <rect x="420" y="60" width="190" height="68" rx="8" fill="#21222c" stroke="#44475a" stroke-width="1"/>
    <text x="515" y="78" fill="#6272a4" font-size="11" font-family="'Segoe UI', sans-serif" text-anchor="middle" font-weight="500">Year Avg</text>
    <text x="515" y="100" fill="#50fa7b" font-size="16" font-family="'Segoe UI Mono', 'Cascadia Code', monospace" text-anchor="middle" font-weight="700">+25,423</text>
    <text x="515" y="118" fill="#ff5555" font-size="14" font-family="'Segoe UI Mono', 'Cascadia Code', monospace" text-anchor="middle" font-weight="600">-7,066</text>
    <rect x="618" y="60" width="190" height="68" rx="8" fill="#21222c" stroke="#44475a" stroke-width="1"/>
    <text x="713" y="78" fill="#6272a4" font-size="11" font-family="'Segoe UI', sans-serif" text-anchor="middle" font-weight="500">Streak</text>
    <text x="713" y="104" fill="#8be9fd" font-size="20" font-family="'Segoe UI Mono', 'Cascadia Code', monospace" text-anchor="middle" font-weight="700">188</text>
    <text x="713" y="120" fill="#6272a4" font-size="11" font-family="'Segoe UI', sans-serif" text-anchor="middle">days</text>
  </g>

  <g class="cpd-chart">
    <line x1="72" y1="148" x2="808" y2="148" stroke="#383a4a" stroke-width="1" stroke-dasharray="4,4"/><line x1="72" y1="213.5" x2="808" y2="213.5" stroke="#383a4a" stroke-width="1" stroke-dasharray="4,4"/><line x1="72" y1="279" x2="808" y2="279" stroke="#383a4a" stroke-width="1" stroke-dasharray="4,4"/><line x1="72" y1="344.5" x2="808" y2="344.5" stroke="#383a4a" stroke-width="1" stroke-dasharray="4,4"/><line x1="72" y1="410" x2="808" y2="410" stroke="#383a4a" stroke-width="1" stroke-dasharray="4,4"/><line x1="72" y1="279" x2="808" y2="279" stroke="#44475a" stroke-width="1.5"/><text x="64" y="162" fill="#6272a4" font-size="10" font-family="'Segoe UI', sans-serif" text-anchor="end">+43,747</text><text x="64" y="406" fill="#6272a4" font-size="10" font-family="'Segoe UI', sans-serif" text-anchor="end">-43,747</text><text x="64" y="283" fill="#6272a4" font-size="10" font-family="'Segoe UI', sans-serif" text-anchor="end">0</text><path d="M 72 279 L 72 216.8363087754589 L 96.53333333333333 256.6100075433744 L 121.06666666666666 227.99673120442543 L 145.60000000000002 158 L 170.13333333333333 275.39602715614785 L 194.66666666666669 245.9280864973598 L 219.20000000000002 237.2957002765904 L 243.73333333333335 269.5433744028162 L 268.26666666666665 254.90067890369625 L 292.8 267.77042997234093 L 317.33333333333337 265.67110887603724 L 341.8666666666667 277.6944933366859 L 366.40000000000003 173.67714357555946 L 390.93333333333334 158 L 415.4666666666667 158 L 440 218.02841337691729 L 464.53333333333336 277.362584862962 L 489.0666666666667 265.91450842343477 L 513.6 243.85919034448077 L 538.1333333333334 242.40155896404326 L 562.6666666666667 265.93663565501635 L 587.2 267.31682172491827 L 611.7333333333333 269.43273824490825 L 636.2666666666667 221.0460145838572 L 660.8000000000001 246.7716872014081 L 685.3333333333334 254.7872768418406 L 709.8666666666667 163.656273573045 L 734.4000000000001 227.8390746794066 L 758.9333333333334 158 L 783.4666666666667 224.05808398290168 L 808 279 L 808 279 Z" fill="#50fa7b" opacity="0.15"/><path d="M 72 279 L 72 216.8363087754589 L 96.53333333333333 256.6100075433744 L 121.06666666666666 227.99673120442543 L 145.60000000000002 158 L 170.13333333333333 275.39602715614785 L 194.66666666666669 245.9280864973598 L 219.20000000000002 237.2957002765904 L 243.73333333333335 269.5433744028162 L 268.26666666666665 254.90067890369625 L 292.8 267.77042997234093 L 317.33333333333337 265.67110887603724 L 341.8666666666667 277.6944933366859 L 366.40000000000003 173.67714357555946 L 390.93333333333334 158 L 415.4666666666667 158 L 440 218.02841337691729 L 464.53333333333336 277.362584862962 L 489.0666666666667 265.91450842343477 L 513.6 243.85919034448077 L 538.1333333333334 242.40155896404326 L 562.6666666666667 265.93663565501635 L 587.2 267.31682172491827 L 611.7333333333333 269.43273824490825 L 636.2666666666667 221.0460145838572 L 660.8000000000001 246.7716872014081 L 685.3333333333334 254.7872768418406 L 709.8666666666667 163.656273573045 L 734.4000000000001 227.8390746794066 L 758.9333333333334 158 L 783.4666666666667 224.05808398290168 L 808 279" fill="none" stroke="#50fa7b" stroke-width="2"/><path d="M 72 279 L 72 284.11139049534825 L 96.53333333333333 281.1546391752577 L 121.06666666666666 291.8448579331154 L 145.60000000000002 378.8353029922052 L 170.13333333333333 280.42720643701284 L 194.66666666666669 282.00377168720144 L 219.20000000000002 286.6504903193362 L 243.73333333333335 279.2655267789791 L 268.26666666666665 288.1938647221524 L 292.8 281.6718632134775 L 317.33333333333337 280.4659290922806 L 341.8666666666667 279.2682926829268 L 366.40000000000003 282.60673874779985 L 390.93333333333334 286.3102841337692 L 415.4666666666667 400 L 440 303.09378928840835 L 464.53333333333336 280.0842343474981 L 489.0666666666667 289.07342217752074 L 513.6 294.04928337943176 L 538.1333333333334 289.9031933618305 L 562.6666666666667 281.36484787528286 L 587.2 282.7643952728187 L 611.7333333333333 283.6024641689716 L 636.2666666666667 291.76188081468445 L 660.8000000000001 293.4020618556701 L 685.3333333333334 280.977621322605 L 709.8666666666667 316.4890621071159 L 734.4000000000001 400 L 758.9333333333334 363.42092029167713 L 783.4666666666667 294.0548151873271 L 808 279 L 808 279 Z" fill="#ff5555" opacity="0.15"/><path d="M 72 279 L 72 284.11139049534825 L 96.53333333333333 281.1546391752577 L 121.06666666666666 291.8448579331154 L 145.60000000000002 378.8353029922052 L 170.13333333333333 280.42720643701284 L 194.66666666666669 282.00377168720144 L 219.20000000000002 286.6504903193362 L 243.73333333333335 279.2655267789791 L 268.26666666666665 288.1938647221524 L 292.8 281.6718632134775 L 317.33333333333337 280.4659290922806 L 341.8666666666667 279.2682926829268 L 366.40000000000003 282.60673874779985 L 390.93333333333334 286.3102841337692 L 415.4666666666667 400 L 440 303.09378928840835 L 464.53333333333336 280.0842343474981 L 489.0666666666667 289.07342217752074 L 513.6 294.04928337943176 L 538.1333333333334 289.9031933618305 L 562.6666666666667 281.36484787528286 L 587.2 282.7643952728187 L 611.7333333333333 283.6024641689716 L 636.2666666666667 291.76188081468445 L 660.8000000000001 293.4020618556701 L 685.3333333333334 280.977621322605 L 709.8666666666667 316.4890621071159 L 734.4000000000001 400 L 758.9333333333334 363.42092029167713 L 783.4666666666667 294.0548151873271 L 808 279" fill="none" stroke="#ff5555" stroke-width="2"/><text x="72" y="426" fill="#6272a4" font-size="10" font-family="'Segoe UI', sans-serif" text-anchor="middle">May 5</text><text x="194.66666666666669" y="426" fill="#6272a4" font-size="10" font-family="'Segoe UI', sans-serif" text-anchor="middle">May 10</text><text x="317.33333333333337" y="426" fill="#6272a4" font-size="10" font-family="'Segoe UI', sans-serif" text-anchor="middle">May 15</text><text x="440" y="426" fill="#6272a4" font-size="10" font-family="'Segoe UI', sans-serif" text-anchor="middle">May 20</text><text x="562.6666666666667" y="426" fill="#6272a4" font-size="10" font-family="'Segoe UI', sans-serif" text-anchor="middle">May 25</text><text x="685.3333333333334" y="426" fill="#6272a4" font-size="10" font-family="'Segoe UI', sans-serif" text-anchor="middle">May 30</text><text x="808" y="426" fill="#6272a4" font-size="10" font-family="'Segoe UI', sans-serif" text-anchor="middle">Jun 4</text>
  </g>

  <g class="cpd-legend">
    
    <circle cx="30" cy="442" r="5" fill="#50fa7b"/>
    <text x="40" y="446" fill="#bd93f9" font-size="11" font-family="'Segoe UI', sans-serif">Additions</text>
    <circle cx="124" cy="442" r="5" fill="#ff5555"/>
    <text x="134" y="446" fill="#bd93f9" font-size="11" font-family="'Segoe UI', sans-serif">Deletions</text>
    <text x="816" y="446" fill="#6272a4" font-size="10" font-family="'Segoe UI', sans-serif" text-anchor="end">Last 31 days · +628,903 / -240,180 lines</text>
  </g>

  <a href="https://github.com/mpge/code-per-day" target="_blank">
    <text x="420" y="452" fill="#6272a4" font-size="10" font-family="'Segoe UI', sans-serif" text-anchor="middle" opacity="0.6">Get your own - github.com/mpge/code-per-day</text>
  </a>
</svg>