<svg width="840" height="460" viewBox="0 0 840 460" xmlns="http://www.w3.org/2000/svg">
  
    <style>
      @keyframes fadeInUp {
        from { opacity: 0; transform: translateY(12px); }
        to   { opacity: 1; transform: translateY(0); }
      }
      @keyframes growBar {
        from { transform: scaleY(0); }
        to   { transform: scaleY(1); }
      }
      .cpd-header  { animation: fadeInUp 0.5s ease both; }
      .cpd-stats   { animation: fadeInUp 0.5s ease 0.15s both; }
      .cpd-chart   { animation: fadeInUp 0.5s ease 0.3s both; }
      .cpd-legend  { animation: fadeInUp 0.5s ease 0.45s both; }
    </style>

  <rect width="840" height="460" rx="12" fill="#020024" stroke="#1a1a5e" stroke-width="1"/>

  <g class="cpd-header">
    <a href="https://github.com/mpge/code-per-day" target="_blank">
      <text x="24" y="44" fill="#e0e0ff" font-size="18" font-family="'Segoe UI', sans-serif" font-weight="700">Code Per Day</text>
    </a>
    <text x="816" y="44" fill="#6060a0" font-size="13" font-family="'Segoe UI', sans-serif" text-anchor="end" font-weight="500">@mpge</text>
  </g>

  <g class="cpd-stats">
    
    <rect x="24" y="60" width="190" height="68" rx="8" fill="#010018" stroke="#1a1a5e" stroke-width="1"/>
    <text x="119" y="78" fill="#6060a0" font-size="11" font-family="'Segoe UI', sans-serif" text-anchor="middle" font-weight="500">Today</text>
    <text x="119" y="100" fill="#00d4aa" font-size="16" font-family="'Segoe UI Mono', 'Cascadia Code', monospace" text-anchor="middle" font-weight="700">+0</text>
    <text x="119" y="118" fill="#ff4477" font-size="14" font-family="'Segoe UI Mono', 'Cascadia Code', monospace" text-anchor="middle" font-weight="600">+0</text>
    <rect x="222" y="60" width="190" height="68" rx="8" fill="#010018" stroke="#1a1a5e" stroke-width="1"/>
    <text x="317" y="78" fill="#6060a0" font-size="11" font-family="'Segoe UI', sans-serif" text-anchor="middle" font-weight="500">30d Avg</text>
    <text x="317" y="100" fill="#00d4aa" font-size="16" font-family="'Segoe UI Mono', 'Cascadia Code', monospace" text-anchor="middle" font-weight="700">+6,071</text>
    <text x="317" y="118" fill="#ff4477" font-size="14" font-family="'Segoe UI Mono', 'Cascadia Code', monospace" text-anchor="middle" font-weight="600">-931</text>
    <rect x="420" y="60" width="190" height="68" rx="8" fill="#010018" stroke="#1a1a5e" stroke-width="1"/>
    <text x="515" y="78" fill="#6060a0" font-size="11" font-family="'Segoe UI', sans-serif" text-anchor="middle" font-weight="500">Year Avg</text>
    <text x="515" y="100" fill="#00d4aa" font-size="16" font-family="'Segoe UI Mono', 'Cascadia Code', monospace" text-anchor="middle" font-weight="700">+26,169</text>
    <text x="515" y="118" fill="#ff4477" font-size="14" font-family="'Segoe UI Mono', 'Cascadia Code', monospace" text-anchor="middle" font-weight="600">-7,175</text>
    <rect x="618" y="60" width="190" height="68" rx="8" fill="#010018" stroke="#1a1a5e" stroke-width="1"/>
    <text x="713" y="78" fill="#6060a0" font-size="11" font-family="'Segoe UI', sans-serif" text-anchor="middle" font-weight="500">Streak</text>
    <text x="713" y="104" fill="#4488ff" font-size="20" font-family="'Segoe UI Mono', 'Cascadia Code', monospace" text-anchor="middle" font-weight="700">237</text>
    <text x="713" y="120" fill="#6060a0" font-size="11" font-family="'Segoe UI', sans-serif" text-anchor="middle">days</text>
  </g>

  <g class="cpd-chart">
    <line x1="72" y1="148" x2="808" y2="148" stroke="#101050" stroke-width="1" stroke-dasharray="4,4"/><line x1="72" y1="213.5" x2="808" y2="213.5" stroke="#101050" stroke-width="1" stroke-dasharray="4,4"/><line x1="72" y1="279" x2="808" y2="279" stroke="#101050" stroke-width="1" stroke-dasharray="4,4"/><line x1="72" y1="344.5" x2="808" y2="344.5" stroke="#101050" stroke-width="1" stroke-dasharray="4,4"/><line x1="72" y1="410" x2="808" y2="410" stroke="#101050" stroke-width="1" stroke-dasharray="4,4"/><line x1="72" y1="279" x2="808" y2="279" stroke="#1a1a5e" stroke-width="1.5"/><text x="64" y="162" fill="#6060a0" font-size="10" font-family="'Segoe UI', sans-serif" text-anchor="end">+8,136</text><text x="64" y="406" fill="#6060a0" font-size="10" font-family="'Segoe UI', sans-serif" text-anchor="end">-8,136</text><text x="64" y="283" fill="#6060a0" font-size="10" font-family="'Segoe UI', sans-serif" text-anchor="end">0</text><path d="M 72 279 L 72 158 L 96.53333333333333 171.01315142576203 L 121.06666666666666 175.54916420845626 L 145.60000000000002 251.67981809242872 L 170.13333333333333 257.8963864306785 L 194.66666666666669 211.76290560471978 L 219.20000000000002 158 L 243.73333333333335 231.6767453294002 L 268.26666666666665 241.37340216322517 L 292.8 274.09218289085544 L 317.33333333333337 279 L 341.8666666666667 275.16297935103245 L 366.40000000000003 268.72332841691247 L 390.93333333333334 279 L 415.4666666666667 259.1456489675516 L 440 250.9956981317601 L 464.53333333333336 279 L 489.0666666666667 279 L 513.6 158 L 538.1333333333334 181.81034906588002 L 562.6666666666667 269.7197640117994 L 587.2 278.9107669616519 L 611.7333333333333 228.3453785644051 L 636.2666666666667 273.06600294985253 L 660.8000000000001 279 L 685.3333333333334 279 L 709.8666666666667 277.914331366765 L 734.4000000000001 275.5794001966568 L 758.9333333333334 214.15732546706 L 783.4666666666667 240.36209439528022 L 808 279 L 808 279 Z" fill="#00d4aa" opacity="0.15"/><path d="M 72 279 L 72 158 L 96.53333333333333 171.01315142576203 L 121.06666666666666 175.54916420845626 L 145.60000000000002 251.67981809242872 L 170.13333333333333 257.8963864306785 L 194.66666666666669 211.76290560471978 L 219.20000000000002 158 L 243.73333333333335 231.6767453294002 L 268.26666666666665 241.37340216322517 L 292.8 274.09218289085544 L 317.33333333333337 279 L 341.8666666666667 275.16297935103245 L 366.40000000000003 268.72332841691247 L 390.93333333333334 279 L 415.4666666666667 259.1456489675516 L 440 250.9956981317601 L 464.53333333333336 279 L 489.0666666666667 279 L 513.6 158 L 538.1333333333334 181.81034906588002 L 562.6666666666667 269.7197640117994 L 587.2 278.9107669616519 L 611.7333333333333 228.3453785644051 L 636.2666666666667 273.06600294985253 L 660.8000000000001 279 L 685.3333333333334 279 L 709.8666666666667 277.914331366765 L 734.4000000000001 275.5794001966568 L 758.9333333333334 214.15732546706 L 783.4666666666667 240.36209439528022 L 808 279" fill="none" stroke="#00d4aa" stroke-width="2"/><path d="M 72 279 L 72 318.90204031465095 L 96.53333333333333 295.77581120943955 L 121.06666666666666 280.0113077679449 L 145.60000000000002 281.4985250737463 L 170.13333333333333 280.27900688298917 L 194.66666666666669 283.23856932153393 L 219.20000000000002 400 L 243.73333333333335 288.81563421828906 L 268.26666666666665 289.27667158308753 L 292.8 279 L 317.33333333333337 279 L 341.8666666666667 281.2605703048181 L 366.40000000000003 281.14159292035396 L 390.93333333333334 279 L 415.4666666666667 286.09402654867256 L 440 306.5432645034415 L 464.53333333333336 279 L 489.0666666666667 279 L 513.6 347.1591691248771 L 538.1333333333334 367.9802114060964 L 562.6666666666667 283.07497541789576 L 587.2 279 L 611.7333333333333 284.16064405113076 L 636.2666666666667 282.53957718780725 L 660.8000000000001 279 L 685.3333333333334 279 L 709.8666666666667 279.0743608652901 L 734.4000000000001 279.6097590953786 L 758.9333333333334 282.76265978367746 L 783.4666666666667 286.1535152409046 L 808 279 L 808 279 Z" fill="#ff4477" opacity="0.15"/><path d="M 72 279 L 72 318.90204031465095 L 96.53333333333333 295.77581120943955 L 121.06666666666666 280.0113077679449 L 145.60000000000002 281.4985250737463 L 170.13333333333333 280.27900688298917 L 194.66666666666669 283.23856932153393 L 219.20000000000002 400 L 243.73333333333335 288.81563421828906 L 268.26666666666665 289.27667158308753 L 292.8 279 L 317.33333333333337 279 L 341.8666666666667 281.2605703048181 L 366.40000000000003 281.14159292035396 L 390.93333333333334 279 L 415.4666666666667 286.09402654867256 L 440 306.5432645034415 L 464.53333333333336 279 L 489.0666666666667 279 L 513.6 347.1591691248771 L 538.1333333333334 367.9802114060964 L 562.6666666666667 283.07497541789576 L 587.2 279 L 611.7333333333333 284.16064405113076 L 636.2666666666667 282.53957718780725 L 660.8000000000001 279 L 685.3333333333334 279 L 709.8666666666667 279.0743608652901 L 734.4000000000001 279.6097590953786 L 758.9333333333334 282.76265978367746 L 783.4666666666667 286.1535152409046 L 808 279" fill="none" stroke="#ff4477" stroke-width="2"/><text x="72" y="426" fill="#6060a0" font-size="10" font-family="'Segoe UI', sans-serif" text-anchor="middle">Jun 23</text><text x="194.66666666666669" y="426" fill="#6060a0" font-size="10" font-family="'Segoe UI', sans-serif" text-anchor="middle">Jun 28</text><text x="317.33333333333337" y="426" fill="#6060a0" font-size="10" font-family="'Segoe UI', sans-serif" text-anchor="middle">Jul 3</text><text x="440" y="426" fill="#6060a0" font-size="10" font-family="'Segoe UI', sans-serif" text-anchor="middle">Jul 8</text><text x="562.6666666666667" y="426" fill="#6060a0" font-size="10" font-family="'Segoe UI', sans-serif" text-anchor="middle">Jul 13</text><text x="685.3333333333334" y="426" fill="#6060a0" font-size="10" font-family="'Segoe UI', sans-serif" text-anchor="middle">Jul 18</text><text x="808" y="426" fill="#6060a0" font-size="10" font-family="'Segoe UI', sans-serif" text-anchor="middle">Jul 23</text>
  </g>

  <g class="cpd-legend">
    
    <circle cx="30" cy="442" r="5" fill="#00d4aa"/>
    <text x="40" y="446" fill="#a0a0d0" font-size="11" font-family="'Segoe UI', sans-serif">Additions</text>
    <circle cx="124" cy="442" r="5" fill="#ff4477"/>
    <text x="134" y="446" fill="#a0a0d0" font-size="11" font-family="'Segoe UI', sans-serif">Deletions</text>
    <text x="816" y="446" fill="#6060a0" font-size="10" font-family="'Segoe UI', sans-serif" text-anchor="end">Last 31 days · +188,197 / -28,873 lines</text>
  </g>

  <a href="https://github.com/mpge/code-per-day" target="_blank">
    <text x="420" y="452" fill="#6060a0" font-size="10" font-family="'Segoe UI', sans-serif" text-anchor="middle" opacity="0.6">Get your own - github.com/mpge/code-per-day</text>
  </a>
</svg>