<svg width="840" height="460" viewBox="0 0 840 460" xmlns="http://www.w3.org/2000/svg">
  
    <style>
      @keyframes fadeInUp {
        from { opacity: 0; transform: translateY(12px); }
        to   { opacity: 1; transform: translateY(0); }
      }
      @keyframes growBar {
        from { transform: scaleY(0); }
        to   { transform: scaleY(1); }
      }
      .cpd-header  { animation: fadeInUp 0.5s ease both; }
      .cpd-stats   { animation: fadeInUp 0.5s ease 0.15s both; }
      .cpd-chart   { animation: fadeInUp 0.5s ease 0.3s both; }
      .cpd-legend  { animation: fadeInUp 0.5s ease 0.45s both; }
    </style>

  <rect width="840" height="460" rx="12" fill="#ffffff" stroke="#d0d7de" stroke-width="1"/>

  <g class="cpd-header">
    <a href="https://github.com/mpge/code-per-day" target="_blank">
      <text x="24" y="44" fill="#1f2328" font-size="18" font-family="'Segoe UI', sans-serif" font-weight="700">Code Per Day</text>
    </a>
    <text x="816" y="44" fill="#8b949e" font-size="13" font-family="'Segoe UI', sans-serif" text-anchor="end" font-weight="500">@mpge</text>
  </g>

  <g class="cpd-stats">
    
    <rect x="24" y="60" width="190" height="68" rx="8" fill="#ffffff" stroke="#d0d7de" stroke-width="1"/>
    <text x="119" y="78" fill="#8b949e" font-size="11" font-family="'Segoe UI', sans-serif" text-anchor="middle" font-weight="500">Today</text>
    <text x="119" y="100" fill="#1a7f37" font-size="16" font-family="'Segoe UI Mono', 'Cascadia Code', monospace" text-anchor="middle" font-weight="700">+8,691</text>
    <text x="119" y="118" fill="#cf222e" font-size="14" font-family="'Segoe UI Mono', 'Cascadia Code', monospace" text-anchor="middle" font-weight="600">-3,320</text>
    <rect x="222" y="60" width="190" height="68" rx="8" fill="#ffffff" stroke="#d0d7de" stroke-width="1"/>
    <text x="317" y="78" fill="#8b949e" font-size="11" font-family="'Segoe UI', sans-serif" text-anchor="middle" font-weight="500">30d Avg</text>
    <text x="317" y="100" fill="#1a7f37" font-size="16" font-family="'Segoe UI Mono', 'Cascadia Code', monospace" text-anchor="middle" font-weight="700">+32,380</text>
    <text x="317" y="118" fill="#cf222e" font-size="14" font-family="'Segoe UI Mono', 'Cascadia Code', monospace" text-anchor="middle" font-weight="600">-2,949</text>
    <rect x="420" y="60" width="190" height="68" rx="8" fill="#ffffff" stroke="#d0d7de" stroke-width="1"/>
    <text x="515" y="78" fill="#8b949e" font-size="11" font-family="'Segoe UI', sans-serif" text-anchor="middle" font-weight="500">Year Avg</text>
    <text x="515" y="100" fill="#1a7f37" font-size="16" font-family="'Segoe UI Mono', 'Cascadia Code', monospace" text-anchor="middle" font-weight="700">+24,339</text>
    <text x="515" y="118" fill="#cf222e" font-size="14" font-family="'Segoe UI Mono', 'Cascadia Code', monospace" text-anchor="middle" font-weight="600">-6,591</text>
    <rect x="618" y="60" width="190" height="68" rx="8" fill="#ffffff" stroke="#d0d7de" stroke-width="1"/>
    <text x="713" y="78" fill="#8b949e" font-size="11" font-family="'Segoe UI', sans-serif" text-anchor="middle" font-weight="500">Streak</text>
    <text x="713" y="104" fill="#0969da" font-size="20" font-family="'Segoe UI Mono', 'Cascadia Code', monospace" text-anchor="middle" font-weight="700">167</text>
    <text x="713" y="120" fill="#8b949e" font-size="11" font-family="'Segoe UI', sans-serif" text-anchor="middle">days</text>
  </g>

  <g class="cpd-chart">
    <line x1="72" y1="148" x2="808" y2="148" stroke="#eaeef2" stroke-width="1" stroke-dasharray="4,4"/><line x1="72" y1="213.5" x2="808" y2="213.5" stroke="#eaeef2" stroke-width="1" stroke-dasharray="4,4"/><line x1="72" y1="279" x2="808" y2="279" stroke="#eaeef2" stroke-width="1" stroke-dasharray="4,4"/><line x1="72" y1="344.5" x2="808" y2="344.5" stroke="#eaeef2" stroke-width="1" stroke-dasharray="4,4"/><line x1="72" y1="410" x2="808" y2="410" stroke="#eaeef2" stroke-width="1" stroke-dasharray="4,4"/><line x1="72" y1="279" x2="808" y2="279" stroke="#d0d7de" stroke-width="1.5"/><text x="64" y="162" fill="#8b949e" font-size="10" font-family="'Segoe UI', sans-serif" text-anchor="end">+20,400</text><text x="64" y="406" fill="#8b949e" font-size="10" font-family="'Segoe UI', sans-serif" text-anchor="end">-20,400</text><text x="64" y="283" fill="#8b949e" font-size="10" font-family="'Segoe UI', sans-serif" text-anchor="end">0</text><path d="M 72 279 L 72 232.2667156862745 L 96.53333333333333 278.71529411764703 L 121.06666666666666 279 L 145.60000000000002 278.68563725490196 L 170.13333333333333 279 L 194.66666666666669 248.4475 L 219.20000000000002 193.29166666666666 L 243.73333333333335 237.24906862745098 L 268.26666666666665 251.46063725490197 L 292.8 278.97034313725493 L 317.33333333333337 158 L 341.8666666666667 158 L 366.40000000000003 265.8145588235294 L 390.93333333333334 158 L 415.4666666666667 158 L 440 211.48911764705883 L 464.53333333333336 263.90465686274507 L 489.0666666666667 196.5954411764706 L 513.6 227.85377450980394 L 538.1333333333334 158 L 562.6666666666667 242.7593137254902 L 587.2 259.0172058823529 L 611.7333333333333 158 L 636.2666666666667 230.9855392156863 L 660.8000000000001 169.62549019607843 L 685.3333333333334 158 L 709.8666666666667 271.27142156862743 L 734.4000000000001 208.07857843137253 L 758.9333333333334 189.56676470588235 L 783.4666666666667 258.72063725490193 L 808 227.45044117647058 L 808 279 Z" fill="#1a7f37" opacity="0.15"/><path d="M 72 279 L 72 232.2667156862745 L 96.53333333333333 278.71529411764703 L 121.06666666666666 279 L 145.60000000000002 278.68563725490196 L 170.13333333333333 279 L 194.66666666666669 248.4475 L 219.20000000000002 193.29166666666666 L 243.73333333333335 237.24906862745098 L 268.26666666666665 251.46063725490197 L 292.8 278.97034313725493 L 317.33333333333337 158 L 341.8666666666667 158 L 366.40000000000003 265.8145588235294 L 390.93333333333334 158 L 415.4666666666667 158 L 440 211.48911764705883 L 464.53333333333336 263.90465686274507 L 489.0666666666667 196.5954411764706 L 513.6 227.85377450980394 L 538.1333333333334 158 L 562.6666666666667 242.7593137254902 L 587.2 259.0172058823529 L 611.7333333333333 158 L 636.2666666666667 230.9855392156863 L 660.8000000000001 169.62549019607843 L 685.3333333333334 158 L 709.8666666666667 271.27142156862743 L 734.4000000000001 208.07857843137253 L 758.9333333333334 189.56676470588235 L 783.4666666666667 258.72063725490193 L 808 227.45044117647058" fill="none" stroke="#1a7f37" stroke-width="2"/><path d="M 72 279 L 72 280.74382352941177 L 96.53333333333333 307.8501960784314 L 121.06666666666666 279 L 145.60000000000002 279.26691176470587 L 170.13333333333333 279 L 194.66666666666669 279.67617647058825 L 219.20000000000002 283.89338235294116 L 243.73333333333335 290.8330882352941 L 268.26666666666665 279.3677450980392 L 292.8 279 L 317.33333333333337 282.2741176470588 L 341.8666666666667 308.27132352941175 L 366.40000000000003 279.49230392156863 L 390.93333333333334 286.36676470588236 L 415.4666666666667 284.24926470588235 L 440 310.34137254901964 L 464.53333333333336 282.2088725490196 L 489.0666666666667 306.62833333333333 L 513.6 288.5079901960784 L 538.1333333333334 327.39406862745096 L 562.6666666666667 295.90441176470586 L 587.2 286.5625 L 611.7333333333333 289.9611764705882 L 636.2666666666667 283.6205392156863 L 660.8000000000001 306.5452941176471 L 685.3333333333334 400 L 709.8666666666667 282.0605882352941 L 734.4000000000001 285.4414705882353 L 758.9333333333334 295.4061764705882 L 783.4666666666667 279.5694117647059 L 808 298.6921568627451 L 808 279 Z" fill="#cf222e" opacity="0.15"/><path d="M 72 279 L 72 280.74382352941177 L 96.53333333333333 307.8501960784314 L 121.06666666666666 279 L 145.60000000000002 279.26691176470587 L 170.13333333333333 279 L 194.66666666666669 279.67617647058825 L 219.20000000000002 283.89338235294116 L 243.73333333333335 290.8330882352941 L 268.26666666666665 279.3677450980392 L 292.8 279 L 317.33333333333337 282.2741176470588 L 341.8666666666667 308.27132352941175 L 366.40000000000003 279.49230392156863 L 390.93333333333334 286.36676470588236 L 415.4666666666667 284.24926470588235 L 440 310.34137254901964 L 464.53333333333336 282.2088725490196 L 489.0666666666667 306.62833333333333 L 513.6 288.5079901960784 L 538.1333333333334 327.39406862745096 L 562.6666666666667 295.90441176470586 L 587.2 286.5625 L 611.7333333333333 289.9611764705882 L 636.2666666666667 283.6205392156863 L 660.8000000000001 306.5452941176471 L 685.3333333333334 400 L 709.8666666666667 282.0605882352941 L 734.4000000000001 285.4414705882353 L 758.9333333333334 295.4061764705882 L 783.4666666666667 279.5694117647059 L 808 298.6921568627451" fill="none" stroke="#cf222e" stroke-width="2"/><text x="72" y="426" fill="#8b949e" font-size="10" font-family="'Segoe UI', sans-serif" text-anchor="middle">Apr 13</text><text x="194.66666666666669" y="426" fill="#8b949e" font-size="10" font-family="'Segoe UI', sans-serif" text-anchor="middle">Apr 18</text><text x="317.33333333333337" y="426" fill="#8b949e" font-size="10" font-family="'Segoe UI', sans-serif" text-anchor="middle">Apr 23</text><text x="440" y="426" fill="#8b949e" font-size="10" font-family="'Segoe UI', sans-serif" text-anchor="middle">Apr 28</text><text x="562.6666666666667" y="426" fill="#8b949e" font-size="10" font-family="'Segoe UI', sans-serif" text-anchor="middle">May 3</text><text x="685.3333333333334" y="426" fill="#8b949e" font-size="10" font-family="'Segoe UI', sans-serif" text-anchor="middle">May 8</text><text x="808" y="426" fill="#8b949e" font-size="10" font-family="'Segoe UI', sans-serif" text-anchor="middle">May 13</text>
  </g>

  <g class="cpd-legend">
    
    <circle cx="30" cy="442" r="5" fill="#1a7f37"/>
    <text x="40" y="446" fill="#656d76" font-size="11" font-family="'Segoe UI', sans-serif">Additions</text>
    <circle cx="124" cy="442" r="5" fill="#cf222e"/>
    <text x="134" y="446" fill="#656d76" font-size="11" font-family="'Segoe UI', sans-serif">Deletions</text>
    <text x="816" y="446" fill="#8b949e" font-size="10" font-family="'Segoe UI', sans-serif" text-anchor="end">Last 31 days · +1,003,783 / -91,416 lines</text>
  </g>

  <a href="https://github.com/mpge/code-per-day" target="_blank">
    <text x="420" y="452" fill="#8b949e" font-size="10" font-family="'Segoe UI', sans-serif" text-anchor="middle" opacity="0.6">Get your own - github.com/mpge/code-per-day</text>
  </a>
</svg>