<svg width="840" height="460" viewBox="0 0 840 460" xmlns="http://www.w3.org/2000/svg">
  
    <style>
      @keyframes fadeInUp {
        from { opacity: 0; transform: translateY(12px); }
        to   { opacity: 1; transform: translateY(0); }
      }
      @keyframes growBar {
        from { transform: scaleY(0); }
        to   { transform: scaleY(1); }
      }
      .cpd-header  { animation: fadeInUp 0.5s ease both; }
      .cpd-stats   { animation: fadeInUp 0.5s ease 0.15s both; }
      .cpd-chart   { animation: fadeInUp 0.5s ease 0.3s both; }
      .cpd-legend  { animation: fadeInUp 0.5s ease 0.45s both; }
    </style>

  <rect width="840" height="460" rx="12" fill="#282a36" stroke="#44475a" stroke-width="1"/>

  <g class="cpd-header">
    <a href="https://github.com/mpge/code-per-day" target="_blank">
      <text x="24" y="44" fill="#f8f8f2" font-size="18" font-family="'Segoe UI', sans-serif" font-weight="700">Code Per Day</text>
    </a>
    <text x="816" y="44" fill="#6272a4" font-size="13" font-family="'Segoe UI', sans-serif" text-anchor="end" font-weight="500">@mpge</text>
  </g>

  <g class="cpd-stats">
    
    <rect x="24" y="60" width="190" height="68" rx="8" fill="#21222c" stroke="#44475a" stroke-width="1"/>
    <text x="119" y="78" fill="#6272a4" font-size="11" font-family="'Segoe UI', sans-serif" text-anchor="middle" font-weight="500">Today</text>
    <text x="119" y="100" fill="#50fa7b" font-size="16" font-family="'Segoe UI Mono', 'Cascadia Code', monospace" text-anchor="middle" font-weight="700">+1,419</text>
    <text x="119" y="118" fill="#ff5555" font-size="14" font-family="'Segoe UI Mono', 'Cascadia Code', monospace" text-anchor="middle" font-weight="600">-86</text>
    <rect x="222" y="60" width="190" height="68" rx="8" fill="#21222c" stroke="#44475a" stroke-width="1"/>
    <text x="317" y="78" fill="#6272a4" font-size="11" font-family="'Segoe UI', sans-serif" text-anchor="middle" font-weight="500">30d Avg</text>
    <text x="317" y="100" fill="#50fa7b" font-size="16" font-family="'Segoe UI Mono', 'Cascadia Code', monospace" text-anchor="middle" font-weight="700">+11,938</text>
    <text x="317" y="118" fill="#ff5555" font-size="14" font-family="'Segoe UI Mono', 'Cascadia Code', monospace" text-anchor="middle" font-weight="600">-4,059</text>
    <rect x="420" y="60" width="190" height="68" rx="8" fill="#21222c" stroke="#44475a" stroke-width="1"/>
    <text x="515" y="78" fill="#6272a4" font-size="11" font-family="'Segoe UI', sans-serif" text-anchor="middle" font-weight="500">Year Avg</text>
    <text x="515" y="100" fill="#50fa7b" font-size="16" font-family="'Segoe UI Mono', 'Cascadia Code', monospace" text-anchor="middle" font-weight="700">+25,927</text>
    <text x="515" y="118" fill="#ff5555" font-size="14" font-family="'Segoe UI Mono', 'Cascadia Code', monospace" text-anchor="middle" font-weight="600">-7,118</text>
    <rect x="618" y="60" width="190" height="68" rx="8" fill="#21222c" stroke="#44475a" stroke-width="1"/>
    <text x="713" y="78" fill="#6272a4" font-size="11" font-family="'Segoe UI', sans-serif" text-anchor="middle" font-weight="500">Streak</text>
    <text x="713" y="104" fill="#8be9fd" font-size="20" font-family="'Segoe UI Mono', 'Cascadia Code', monospace" text-anchor="middle" font-weight="700">212</text>
    <text x="713" y="120" fill="#6272a4" font-size="11" font-family="'Segoe UI', sans-serif" text-anchor="middle">days</text>
  </g>

  <g class="cpd-chart">
    <line x1="72" y1="148" x2="808" y2="148" stroke="#383a4a" stroke-width="1" stroke-dasharray="4,4"/><line x1="72" y1="213.5" x2="808" y2="213.5" stroke="#383a4a" stroke-width="1" stroke-dasharray="4,4"/><line x1="72" y1="279" x2="808" y2="279" stroke="#383a4a" stroke-width="1" stroke-dasharray="4,4"/><line x1="72" y1="344.5" x2="808" y2="344.5" stroke="#383a4a" stroke-width="1" stroke-dasharray="4,4"/><line x1="72" y1="410" x2="808" y2="410" stroke="#383a4a" stroke-width="1" stroke-dasharray="4,4"/><line x1="72" y1="279" x2="808" y2="279" stroke="#44475a" stroke-width="1.5"/><text x="64" y="162" fill="#6272a4" font-size="10" font-family="'Segoe UI', sans-serif" text-anchor="end">+20,781</text><text x="64" y="406" fill="#6272a4" font-size="10" font-family="'Segoe UI', sans-serif" text-anchor="end">-20,781</text><text x="64" y="283" fill="#6272a4" font-size="10" font-family="'Segoe UI', sans-serif" text-anchor="end">0</text><path d="M 72 279 L 72 158 L 96.53333333333333 211.1547567489534 L 121.06666666666666 228.02872816515085 L 145.60000000000002 158 L 170.13333333333333 171.29887878350416 L 194.66666666666669 158 L 219.20000000000002 163.33934844328954 L 243.73333333333335 241.08305663827537 L 268.26666666666665 196.53414176411144 L 292.8 277.8820557239786 L 317.33333333333337 279 L 341.8666666666667 268.4261103892979 L 366.40000000000003 279 L 390.93333333333334 254.2771281459025 L 415.4666666666667 279 L 440 278.5633030171792 L 464.53333333333336 276.6825946778307 L 489.0666666666667 251.84327029498098 L 513.6 274.8193542177951 L 538.1333333333334 279 L 562.6666666666667 270.6794668206535 L 587.2 250.34103267407727 L 611.7333333333333 246.55632548962996 L 636.2666666666667 261.11871421009573 L 660.8000000000001 158 L 685.3333333333334 229.21072133198595 L 709.8666666666667 158 L 734.4000000000001 236.7219094365045 L 758.9333333333334 238.49781049997594 L 783.4666666666667 268.3038352341081 L 808 270.7376930850296 L 808 279 Z" fill="#50fa7b" opacity="0.15"/><path d="M 72 279 L 72 158 L 96.53333333333333 211.1547567489534 L 121.06666666666666 228.02872816515085 L 145.60000000000002 158 L 170.13333333333333 171.29887878350416 L 194.66666666666669 158 L 219.20000000000002 163.33934844328954 L 243.73333333333335 241.08305663827537 L 268.26666666666665 196.53414176411144 L 292.8 277.8820557239786 L 317.33333333333337 279 L 341.8666666666667 268.4261103892979 L 366.40000000000003 279 L 390.93333333333334 254.2771281459025 L 415.4666666666667 279 L 440 278.5633030171792 L 464.53333333333336 276.6825946778307 L 489.0666666666667 251.84327029498098 L 513.6 274.8193542177951 L 538.1333333333334 279 L 562.6666666666667 270.6794668206535 L 587.2 250.34103267407727 L 611.7333333333333 246.55632548962996 L 636.2666666666667 261.11871421009573 L 660.8000000000001 158 L 685.3333333333334 229.21072133198595 L 709.8666666666667 158 L 734.4000000000001 236.7219094365045 L 758.9333333333334 238.49781049997594 L 783.4666666666667 268.3038352341081 L 808 270.7376930850296" fill="none" stroke="#50fa7b" stroke-width="2"/><path d="M 72 279 L 72 305.86559838313843 L 96.53333333333333 309.31841586064195 L 121.06666666666666 283.1631779028921 L 145.60000000000002 357.9198787353833 L 170.13333333333333 400 L 194.66666666666669 400 L 219.20000000000002 310.6925556999182 L 243.73333333333335 284.86338482267456 L 268.26666666666665 290.75006015109955 L 292.8 279.3493575862567 L 317.33333333333337 279 L 341.8666666666667 279.06404889081375 L 366.40000000000003 279 L 390.93333333333334 279.47745536788415 L 415.4666666666667 279 L 440 279.5182137529474 L 464.53333333333336 280.22275155189834 L 489.0666666666667 305.4172561474424 L 513.6 279.17467879312835 L 538.1333333333334 279 L 562.6666666666667 281.0612097589144 L 587.2 282.01612049468264 L 611.7333333333333 284.6421250180453 L 636.2666666666667 279.64631153457486 L 660.8000000000001 311.8629036138781 L 685.3333333333334 284.2054280352245 L 709.8666666666667 294.6221067321111 L 734.4000000000001 285.56792262162554 L 758.9333333333334 279.39593859775755 L 783.4666666666667 279.9782012415187 L 808 279.50074587363457 L 808 279 Z" fill="#ff5555" opacity="0.15"/><path d="M 72 279 L 72 305.86559838313843 L 96.53333333333333 309.31841586064195 L 121.06666666666666 283.1631779028921 L 145.60000000000002 357.9198787353833 L 170.13333333333333 400 L 194.66666666666669 400 L 219.20000000000002 310.6925556999182 L 243.73333333333335 284.86338482267456 L 268.26666666666665 290.75006015109955 L 292.8 279.3493575862567 L 317.33333333333337 279 L 341.8666666666667 279.06404889081375 L 366.40000000000003 279 L 390.93333333333334 279.47745536788415 L 415.4666666666667 279 L 440 279.5182137529474 L 464.53333333333336 280.22275155189834 L 489.0666666666667 305.4172561474424 L 513.6 279.17467879312835 L 538.1333333333334 279 L 562.6666666666667 281.0612097589144 L 587.2 282.01612049468264 L 611.7333333333333 284.6421250180453 L 636.2666666666667 279.64631153457486 L 660.8000000000001 311.8629036138781 L 685.3333333333334 284.2054280352245 L 709.8666666666667 294.6221067321111 L 734.4000000000001 285.56792262162554 L 758.9333333333334 279.39593859775755 L 783.4666666666667 279.9782012415187 L 808 279.50074587363457" fill="none" stroke="#ff5555" stroke-width="2"/><text x="72" y="426" fill="#6272a4" font-size="10" font-family="'Segoe UI', sans-serif" text-anchor="middle">May 28</text><text x="194.66666666666669" y="426" fill="#6272a4" font-size="10" font-family="'Segoe UI', sans-serif" text-anchor="middle">Jun 2</text><text x="317.33333333333337" y="426" fill="#6272a4" font-size="10" font-family="'Segoe UI', sans-serif" text-anchor="middle">Jun 7</text><text x="440" y="426" fill="#6272a4" font-size="10" font-family="'Segoe UI', sans-serif" text-anchor="middle">Jun 12</text><text x="562.6666666666667" y="426" fill="#6272a4" font-size="10" font-family="'Segoe UI', sans-serif" text-anchor="middle">Jun 17</text><text x="685.3333333333334" y="426" fill="#6272a4" font-size="10" font-family="'Segoe UI', sans-serif" text-anchor="middle">Jun 22</text><text x="808" y="426" fill="#6272a4" font-size="10" font-family="'Segoe UI', sans-serif" text-anchor="middle">Jun 27</text>
  </g>

  <g class="cpd-legend">
    
    <circle cx="30" cy="442" r="5" fill="#50fa7b"/>
    <text x="40" y="446" fill="#bd93f9" font-size="11" font-family="'Segoe UI', sans-serif">Additions</text>
    <circle cx="124" cy="442" r="5" fill="#ff5555"/>
    <text x="134" y="446" fill="#bd93f9" font-size="11" font-family="'Segoe UI', sans-serif">Deletions</text>
    <text x="816" y="446" fill="#6272a4" font-size="10" font-family="'Segoe UI', sans-serif" text-anchor="end">Last 31 days · +370,093 / -125,843 lines</text>
  </g>

  <a href="https://github.com/mpge/code-per-day" target="_blank">
    <text x="420" y="452" fill="#6272a4" font-size="10" font-family="'Segoe UI', sans-serif" text-anchor="middle" opacity="0.6">Get your own - github.com/mpge/code-per-day</text>
  </a>
</svg>