<svg width="840" height="460" viewBox="0 0 840 460" xmlns="http://www.w3.org/2000/svg">
  
    <style>
      @keyframes fadeInUp {
        from { opacity: 0; transform: translateY(12px); }
        to   { opacity: 1; transform: translateY(0); }
      }
      @keyframes growBar {
        from { transform: scaleY(0); }
        to   { transform: scaleY(1); }
      }
      .cpd-header  { animation: fadeInUp 0.5s ease both; }
      .cpd-stats   { animation: fadeInUp 0.5s ease 0.15s both; }
      .cpd-chart   { animation: fadeInUp 0.5s ease 0.3s both; }
      .cpd-legend  { animation: fadeInUp 0.5s ease 0.45s both; }
    </style>

  <rect width="840" height="460" rx="12" fill="#0b1929" stroke="#1d3461" stroke-width="1"/>

  <g class="cpd-header">
    <a href="https://github.com/mpge/code-per-day" target="_blank">
      <text x="24" y="44" fill="#ccd6f6" font-size="18" font-family="'Segoe UI', sans-serif" font-weight="700">Code Per Day</text>
    </a>
    <text x="816" y="44" fill="#495670" font-size="13" font-family="'Segoe UI', sans-serif" text-anchor="end" font-weight="500">@mpge</text>
  </g>

  <g class="cpd-stats">
    
    <rect x="24" y="60" width="190" height="68" rx="8" fill="#0a1628" stroke="#1d3461" stroke-width="1"/>
    <text x="119" y="78" fill="#495670" font-size="11" font-family="'Segoe UI', sans-serif" text-anchor="middle" font-weight="500">Today</text>
    <text x="119" y="100" fill="#64ffda" font-size="16" font-family="'Segoe UI Mono', 'Cascadia Code', monospace" text-anchor="middle" font-weight="700">+2,598</text>
    <text x="119" y="118" fill="#ff6b6b" font-size="14" font-family="'Segoe UI Mono', 'Cascadia Code', monospace" text-anchor="middle" font-weight="600">-481</text>
    <rect x="222" y="60" width="190" height="68" rx="8" fill="#0a1628" stroke="#1d3461" stroke-width="1"/>
    <text x="317" y="78" fill="#495670" font-size="11" font-family="'Segoe UI', sans-serif" text-anchor="middle" font-weight="500">30d Avg</text>
    <text x="317" y="100" fill="#64ffda" font-size="16" font-family="'Segoe UI Mono', 'Cascadia Code', monospace" text-anchor="middle" font-weight="700">+6,347</text>
    <text x="317" y="118" fill="#ff6b6b" font-size="14" font-family="'Segoe UI Mono', 'Cascadia Code', monospace" text-anchor="middle" font-weight="600">-960</text>
    <rect x="420" y="60" width="190" height="68" rx="8" fill="#0a1628" stroke="#1d3461" stroke-width="1"/>
    <text x="515" y="78" fill="#495670" font-size="11" font-family="'Segoe UI', sans-serif" text-anchor="middle" font-weight="500">Year Avg</text>
    <text x="515" y="100" fill="#64ffda" font-size="16" font-family="'Segoe UI Mono', 'Cascadia Code', monospace" text-anchor="middle" font-weight="700">+26,169</text>
    <text x="515" y="118" fill="#ff6b6b" font-size="14" font-family="'Segoe UI Mono', 'Cascadia Code', monospace" text-anchor="middle" font-weight="600">-7,175</text>
    <rect x="618" y="60" width="190" height="68" rx="8" fill="#0a1628" stroke="#1d3461" stroke-width="1"/>
    <text x="713" y="78" fill="#495670" font-size="11" font-family="'Segoe UI', sans-serif" text-anchor="middle" font-weight="500">Streak</text>
    <text x="713" y="104" fill="#64ffda" font-size="20" font-family="'Segoe UI Mono', 'Cascadia Code', monospace" text-anchor="middle" font-weight="700">237</text>
    <text x="713" y="120" fill="#495670" font-size="11" font-family="'Segoe UI', sans-serif" text-anchor="middle">days</text>
  </g>

  <g class="cpd-chart">
    <line x1="72" y1="148" x2="808" y2="148" stroke="#152a4a" stroke-width="1" stroke-dasharray="4,4"/><line x1="72" y1="213.5" x2="808" y2="213.5" stroke="#152a4a" stroke-width="1" stroke-dasharray="4,4"/><line x1="72" y1="279" x2="808" y2="279" stroke="#152a4a" stroke-width="1" stroke-dasharray="4,4"/><line x1="72" y1="344.5" x2="808" y2="344.5" stroke="#152a4a" stroke-width="1" stroke-dasharray="4,4"/><line x1="72" y1="410" x2="808" y2="410" stroke="#152a4a" stroke-width="1" stroke-dasharray="4,4"/><line x1="72" y1="279" x2="808" y2="279" stroke="#1d3461" stroke-width="1.5"/><text x="64" y="162" fill="#495670" font-size="10" font-family="'Segoe UI', sans-serif" text-anchor="end">+10,513</text><text x="64" y="406" fill="#495670" font-size="10" font-family="'Segoe UI', sans-serif" text-anchor="end">-10,513</text><text x="64" y="283" fill="#495670" font-size="10" font-family="'Segoe UI', sans-serif" text-anchor="end">0</text><path d="M 72 279 L 72 180.58175592124036 L 96.53333333333333 158 L 121.06666666666666 195.42908779606202 L 145.60000000000002 198.93950347189195 L 170.13333333333333 257.8569390278703 L 194.66666666666669 262.6679349376962 L 219.20000000000002 226.9652810805669 L 243.73333333333335 158 L 268.26666666666665 242.37658137543994 L 292.8 249.88081423000096 L 317.33333333333337 275.2018453343479 L 341.8666666666667 279 L 366.40000000000003 276.0305336250357 L 390.93333333333334 271.0468943213165 L 415.4666666666667 279 L 440 263.6347379434985 L 464.53333333333336 257.3274992865976 L 489.0666666666667 279 L 513.6 279 L 538.1333333333334 158 L 562.6666666666667 203.78502806049653 L 587.2 271.8180348140398 L 611.7333333333333 278.9309426424427 L 636.2666666666667 239.7984400266337 L 660.8000000000001 274.4076857224389 L 685.3333333333334 279 L 709.8666666666667 279 L 734.4000000000001 278.1598021497194 L 758.9333333333334 276.35280129363645 L 783.4666666666667 228.8183201750214 L 808 249.09816417768477 L 808 279 Z" fill="#64ffda" opacity="0.15"/><path d="M 72 279 L 72 180.58175592124036 L 96.53333333333333 158 L 121.06666666666666 195.42908779606202 L 145.60000000000002 198.93950347189195 L 170.13333333333333 257.8569390278703 L 194.66666666666669 262.6679349376962 L 219.20000000000002 226.9652810805669 L 243.73333333333335 158 L 268.26666666666665 242.37658137543994 L 292.8 249.88081423000096 L 317.33333333333337 275.2018453343479 L 341.8666666666667 279 L 366.40000000000003 276.0305336250357 L 390.93333333333334 271.0468943213165 L 415.4666666666667 279 L 440 263.6347379434985 L 464.53333333333336 257.3274992865976 L 489.0666666666667 279 L 513.6 279 L 538.1333333333334 158 L 562.6666666666667 203.78502806049653 L 587.2 271.8180348140398 L 611.7333333333333 278.9309426424427 L 636.2666666666667 239.7984400266337 L 660.8000000000001 274.4076857224389 L 685.3333333333334 279 L 709.8666666666667 279 L 734.4000000000001 278.1598021497194 L 758.9333333333334 276.35280129363645 L 783.4666666666667 228.8183201750214 L 808 249.09816417768477" fill="none" stroke="#64ffda" stroke-width="2"/><path d="M 72 279 L 72 289.2895462760392 L 96.53333333333333 309.88014838771045 L 121.06666666666666 291.9827832207743 L 145.60000000000002 279.78265005231617 L 170.13333333333333 280.9336060116047 L 194.66666666666669 279.9898221249881 L 219.20000000000002 282.28022448397223 L 243.73333333333335 374.2300960715305 L 268.26666666666665 286.5963093313041 L 292.8 286.9531056786835 L 317.33333333333337 279 L 341.8666666666667 279 L 366.40000000000003 280.74945305811855 L 390.93333333333334 280.65737658137544 L 415.4666666666667 279 L 440 284.4900599258061 L 464.53333333333336 300.315704366023 L 489.0666666666667 279 L 513.6 279 L 538.1333333333334 331.74831161419195 L 562.6666666666667 347.86169504423094 L 587.2 282.1536193284505 L 611.7333333333333 279 L 636.2666666666667 282.9938171787311 L 660.8000000000001 281.73927518310666 L 685.3333333333334 279 L 709.8666666666667 279 L 734.4000000000001 279.05754779796445 L 758.9333333333334 279.47189194330826 L 783.4666666666667 281.9119185769999 L 808 284.5360981641777 L 808 279 Z" fill="#ff6b6b" opacity="0.15"/><path d="M 72 279 L 72 289.2895462760392 L 96.53333333333333 309.88014838771045 L 121.06666666666666 291.9827832207743 L 145.60000000000002 279.78265005231617 L 170.13333333333333 280.9336060116047 L 194.66666666666669 279.9898221249881 L 219.20000000000002 282.28022448397223 L 243.73333333333335 374.2300960715305 L 268.26666666666665 286.5963093313041 L 292.8 286.9531056786835 L 317.33333333333337 279 L 341.8666666666667 279 L 366.40000000000003 280.74945305811855 L 390.93333333333334 280.65737658137544 L 415.4666666666667 279 L 440 284.4900599258061 L 464.53333333333336 300.315704366023 L 489.0666666666667 279 L 513.6 279 L 538.1333333333334 331.74831161419195 L 562.6666666666667 347.86169504423094 L 587.2 282.1536193284505 L 611.7333333333333 279 L 636.2666666666667 282.9938171787311 L 660.8000000000001 281.73927518310666 L 685.3333333333334 279 L 709.8666666666667 279 L 734.4000000000001 279.05754779796445 L 758.9333333333334 279.47189194330826 L 783.4666666666667 281.9119185769999 L 808 284.5360981641777" fill="none" stroke="#ff6b6b" stroke-width="2"/><text x="72" y="426" fill="#495670" font-size="10" font-family="'Segoe UI', sans-serif" text-anchor="middle">Jun 22</text><text x="194.66666666666669" y="426" fill="#495670" font-size="10" font-family="'Segoe UI', sans-serif" text-anchor="middle">Jun 27</text><text x="317.33333333333337" y="426" fill="#495670" font-size="10" font-family="'Segoe UI', sans-serif" text-anchor="middle">Jul 2</text><text x="440" y="426" fill="#495670" font-size="10" font-family="'Segoe UI', sans-serif" text-anchor="middle">Jul 7</text><text x="562.6666666666667" y="426" fill="#495670" font-size="10" font-family="'Segoe UI', sans-serif" text-anchor="middle">Jul 12</text><text x="685.3333333333334" y="426" fill="#495670" font-size="10" font-family="'Segoe UI', sans-serif" text-anchor="middle">Jul 17</text><text x="808" y="426" fill="#495670" font-size="10" font-family="'Segoe UI', sans-serif" text-anchor="middle">Jul 22</text>
  </g>

  <g class="cpd-legend">
    
    <circle cx="30" cy="442" r="5" fill="#64ffda"/>
    <text x="40" y="446" fill="#8892b0" font-size="11" font-family="'Segoe UI', sans-serif">Additions</text>
    <circle cx="124" cy="442" r="5" fill="#ff6b6b"/>
    <text x="134" y="446" fill="#8892b0" font-size="11" font-family="'Segoe UI', sans-serif">Deletions</text>
    <text x="816" y="446" fill="#495670" font-size="10" font-family="'Segoe UI', sans-serif" text-anchor="end">Last 31 days · +196,748 / -29,767 lines</text>
  </g>

  <a href="https://github.com/mpge/code-per-day" target="_blank">
    <text x="420" y="452" fill="#495670" font-size="10" font-family="'Segoe UI', sans-serif" text-anchor="middle" opacity="0.6">Get your own - github.com/mpge/code-per-day</text>
  </a>
</svg>