<svg width="840" height="460" viewBox="0 0 840 460" xmlns="http://www.w3.org/2000/svg">
  
    <style>
      @keyframes fadeInUp {
        from { opacity: 0; transform: translateY(12px); }
        to   { opacity: 1; transform: translateY(0); }
      }
      @keyframes growBar {
        from { transform: scaleY(0); }
        to   { transform: scaleY(1); }
      }
      .cpd-header  { animation: fadeInUp 0.5s ease both; }
      .cpd-stats   { animation: fadeInUp 0.5s ease 0.15s both; }
      .cpd-chart   { animation: fadeInUp 0.5s ease 0.3s both; }
      .cpd-legend  { animation: fadeInUp 0.5s ease 0.45s both; }
    </style>

  <rect width="840" height="460" rx="12" fill="#0b1929" stroke="#1d3461" stroke-width="1"/>

  <g class="cpd-header">
    <a href="https://github.com/mpge/code-per-day" target="_blank">
      <text x="24" y="44" fill="#ccd6f6" font-size="18" font-family="'Segoe UI', sans-serif" font-weight="700">Code Per Day</text>
    </a>
    <text x="816" y="44" fill="#495670" font-size="13" font-family="'Segoe UI', sans-serif" text-anchor="end" font-weight="500">@mpge</text>
  </g>

  <g class="cpd-stats">
    
    <rect x="24" y="60" width="190" height="68" rx="8" fill="#0a1628" stroke="#1d3461" stroke-width="1"/>
    <text x="119" y="78" fill="#495670" font-size="11" font-family="'Segoe UI', sans-serif" text-anchor="middle" font-weight="500">Today</text>
    <text x="119" y="100" fill="#64ffda" font-size="16" font-family="'Segoe UI Mono', 'Cascadia Code', monospace" text-anchor="middle" font-weight="700">+0</text>
    <text x="119" y="118" fill="#ff6b6b" font-size="14" font-family="'Segoe UI Mono', 'Cascadia Code', monospace" text-anchor="middle" font-weight="600">+0</text>
    <rect x="222" y="60" width="190" height="68" rx="8" fill="#0a1628" stroke="#1d3461" stroke-width="1"/>
    <text x="317" y="78" fill="#495670" font-size="11" font-family="'Segoe UI', sans-serif" text-anchor="middle" font-weight="500">30d Avg</text>
    <text x="317" y="100" fill="#64ffda" font-size="16" font-family="'Segoe UI Mono', 'Cascadia Code', monospace" text-anchor="middle" font-weight="700">+8,906</text>
    <text x="317" y="118" fill="#ff6b6b" font-size="14" font-family="'Segoe UI Mono', 'Cascadia Code', monospace" text-anchor="middle" font-weight="600">-1,306</text>
    <rect x="420" y="60" width="190" height="68" rx="8" fill="#0a1628" stroke="#1d3461" stroke-width="1"/>
    <text x="515" y="78" fill="#495670" font-size="11" font-family="'Segoe UI', sans-serif" text-anchor="middle" font-weight="500">Year Avg</text>
    <text x="515" y="100" fill="#64ffda" font-size="16" font-family="'Segoe UI Mono', 'Cascadia Code', monospace" text-anchor="middle" font-weight="700">+26,137</text>
    <text x="515" y="118" fill="#ff6b6b" font-size="14" font-family="'Segoe UI Mono', 'Cascadia Code', monospace" text-anchor="middle" font-weight="600">-7,171</text>
    <rect x="618" y="60" width="190" height="68" rx="8" fill="#0a1628" stroke="#1d3461" stroke-width="1"/>
    <text x="713" y="78" fill="#495670" font-size="11" font-family="'Segoe UI', sans-serif" text-anchor="middle" font-weight="500">Streak</text>
    <text x="713" y="104" fill="#64ffda" font-size="20" font-family="'Segoe UI Mono', 'Cascadia Code', monospace" text-anchor="middle" font-weight="700">227</text>
    <text x="713" y="120" fill="#495670" font-size="11" font-family="'Segoe UI', sans-serif" text-anchor="middle">days</text>
  </g>

  <g class="cpd-chart">
    <line x1="72" y1="148" x2="808" y2="148" stroke="#152a4a" stroke-width="1" stroke-dasharray="4,4"/><line x1="72" y1="213.5" x2="808" y2="213.5" stroke="#152a4a" stroke-width="1" stroke-dasharray="4,4"/><line x1="72" y1="279" x2="808" y2="279" stroke="#152a4a" stroke-width="1" stroke-dasharray="4,4"/><line x1="72" y1="344.5" x2="808" y2="344.5" stroke="#152a4a" stroke-width="1" stroke-dasharray="4,4"/><line x1="72" y1="410" x2="808" y2="410" stroke="#152a4a" stroke-width="1" stroke-dasharray="4,4"/><line x1="72" y1="279" x2="808" y2="279" stroke="#1d3461" stroke-width="1.5"/><text x="64" y="162" fill="#495670" font-size="10" font-family="'Segoe UI', sans-serif" text-anchor="end">+11,708</text><text x="64" y="406" fill="#495670" font-size="10" font-family="'Segoe UI', sans-serif" text-anchor="end">-11,708</text><text x="64" y="283" fill="#495670" font-size="10" font-family="'Segoe UI', sans-serif" text-anchor="end">0</text><path d="M 72 279 L 72 274.88674410659377 L 96.53333333333333 230.79842842500852 L 121.06666666666666 271.5796036897848 L 145.60000000000002 279 L 170.13333333333333 264.2315510761872 L 194.66666666666669 228.13204646395627 L 219.20000000000002 221.41441749231296 L 243.73333333333335 247.26178681243593 L 268.26666666666665 158 L 292.8 190.62700717458148 L 317.33333333333337 158 L 341.8666666666667 203.95891697984285 L 366.40000000000003 207.11103518961394 L 390.93333333333334 260.01494704475573 L 415.4666666666667 264.3348992142125 L 440 232.27630679877007 L 464.53333333333336 158 L 489.0666666666667 246.1146224803553 L 513.6 252.85292107960368 L 538.1333333333334 275.5895114451657 L 562.6666666666667 279 L 587.2 276.33361803894775 L 611.7333333333333 271.858643662453 L 636.2666666666667 279 L 660.8000000000001 265.2030235736249 L 685.3333333333334 259.5395456098394 L 709.8666666666667 279 L 734.4000000000001 279 L 758.9333333333334 168.45883156815853 L 783.4666666666667 211.4619918004783 L 808 279 L 808 279 Z" fill="#64ffda" opacity="0.15"/><path d="M 72 279 L 72 274.88674410659377 L 96.53333333333333 230.79842842500852 L 121.06666666666666 271.5796036897848 L 145.60000000000002 279 L 170.13333333333333 264.2315510761872 L 194.66666666666669 228.13204646395627 L 219.20000000000002 221.41441749231296 L 243.73333333333335 247.26178681243593 L 268.26666666666665 158 L 292.8 190.62700717458148 L 317.33333333333337 158 L 341.8666666666667 203.95891697984285 L 366.40000000000003 207.11103518961394 L 390.93333333333334 260.01494704475573 L 415.4666666666667 264.3348992142125 L 440 232.27630679877007 L 464.53333333333336 158 L 489.0666666666667 246.1146224803553 L 513.6 252.85292107960368 L 538.1333333333334 275.5895114451657 L 562.6666666666667 279 L 587.2 276.33361803894775 L 611.7333333333333 271.858643662453 L 636.2666666666667 279 L 660.8000000000001 265.2030235736249 L 685.3333333333334 259.5395456098394 L 709.8666666666667 279 L 734.4000000000001 279 L 758.9333333333334 168.45883156815853 L 783.4666666666667 211.4619918004783 L 808 279" fill="none" stroke="#64ffda" stroke-width="2"/><path d="M 72 279 L 72 281.17031089853094 L 96.53333333333333 325.88905022207035 L 121.06666666666666 279.31004441407583 L 145.60000000000002 279 L 170.13333333333333 282.658524086095 L 194.66666666666669 284.3534335497096 L 219.20000000000002 289.01443457464984 L 243.73333333333335 280.14716433208065 L 268.26666666666665 337.32968910146906 L 292.8 288.2393235394602 L 317.33333333333337 306.7283054321831 L 341.8666666666667 290.6576699692518 L 366.40000000000003 279.7027673385719 L 390.93333333333334 280.73624871882475 L 415.4666666666667 279.88879398701744 L 440 281.9454219337205 L 464.53333333333336 364.51024940211823 L 489.0666666666667 285.8209771096686 L 513.6 286.141356337547 L 538.1333333333334 279 L 562.6666666666667 279 L 587.2 280.5708916979843 L 611.7333333333333 280.48821318756404 L 636.2666666666667 279 L 660.8000000000001 283.92970618380593 L 685.3333333333334 298.1400751622822 L 709.8666666666667 279 L 734.4000000000001 279 L 758.9333333333334 326.36445165698666 L 783.4666666666667 340.8331909805261 L 808 279 L 808 279 Z" fill="#ff6b6b" opacity="0.15"/><path d="M 72 279 L 72 281.17031089853094 L 96.53333333333333 325.88905022207035 L 121.06666666666666 279.31004441407583 L 145.60000000000002 279 L 170.13333333333333 282.658524086095 L 194.66666666666669 284.3534335497096 L 219.20000000000002 289.01443457464984 L 243.73333333333335 280.14716433208065 L 268.26666666666665 337.32968910146906 L 292.8 288.2393235394602 L 317.33333333333337 306.7283054321831 L 341.8666666666667 290.6576699692518 L 366.40000000000003 279.7027673385719 L 390.93333333333334 280.73624871882475 L 415.4666666666667 279.88879398701744 L 440 281.9454219337205 L 464.53333333333336 364.51024940211823 L 489.0666666666667 285.8209771096686 L 513.6 286.141356337547 L 538.1333333333334 279 L 562.6666666666667 279 L 587.2 280.5708916979843 L 611.7333333333333 280.48821318756404 L 636.2666666666667 279 L 660.8000000000001 283.92970618380593 L 685.3333333333334 298.1400751622822 L 709.8666666666667 279 L 734.4000000000001 279 L 758.9333333333334 326.36445165698666 L 783.4666666666667 340.8331909805261 L 808 279" fill="none" stroke="#ff6b6b" stroke-width="2"/><text x="72" y="426" fill="#495670" font-size="10" font-family="'Segoe UI', sans-serif" text-anchor="middle">Jun 13</text><text x="194.66666666666669" y="426" fill="#495670" font-size="10" font-family="'Segoe UI', sans-serif" text-anchor="middle">Jun 18</text><text x="317.33333333333337" y="426" fill="#495670" font-size="10" font-family="'Segoe UI', sans-serif" text-anchor="middle">Jun 23</text><text x="440" y="426" fill="#495670" font-size="10" font-family="'Segoe UI', sans-serif" text-anchor="middle">Jun 28</text><text x="562.6666666666667" y="426" fill="#495670" font-size="10" font-family="'Segoe UI', sans-serif" text-anchor="middle">Jul 3</text><text x="685.3333333333334" y="426" fill="#495670" font-size="10" font-family="'Segoe UI', sans-serif" text-anchor="middle">Jul 8</text><text x="808" y="426" fill="#495670" font-size="10" font-family="'Segoe UI', sans-serif" text-anchor="middle">Jul 13</text>
  </g>

  <g class="cpd-legend">
    
    <circle cx="30" cy="442" r="5" fill="#64ffda"/>
    <text x="40" y="446" fill="#8892b0" font-size="11" font-family="'Segoe UI', sans-serif">Additions</text>
    <circle cx="124" cy="442" r="5" fill="#ff6b6b"/>
    <text x="134" y="446" fill="#8892b0" font-size="11" font-family="'Segoe UI', sans-serif">Deletions</text>
    <text x="816" y="446" fill="#495670" font-size="10" font-family="'Segoe UI', sans-serif" text-anchor="end">Last 31 days · +276,074 / -40,501 lines</text>
  </g>

  <a href="https://github.com/mpge/code-per-day" target="_blank">
    <text x="420" y="452" fill="#495670" font-size="10" font-family="'Segoe UI', sans-serif" text-anchor="middle" opacity="0.6">Get your own - github.com/mpge/code-per-day</text>
  </a>
</svg>