<svg width="840" height="460" viewBox="0 0 840 460" xmlns="http://www.w3.org/2000/svg">
  
    <style>
      @keyframes fadeInUp {
        from { opacity: 0; transform: translateY(12px); }
        to   { opacity: 1; transform: translateY(0); }
      }
      @keyframes growBar {
        from { transform: scaleY(0); }
        to   { transform: scaleY(1); }
      }
      .cpd-header  { animation: fadeInUp 0.5s ease both; }
      .cpd-stats   { animation: fadeInUp 0.5s ease 0.15s both; }
      .cpd-chart   { animation: fadeInUp 0.5s ease 0.3s both; }
      .cpd-legend  { animation: fadeInUp 0.5s ease 0.45s both; }
    </style>

  <!-- Background -->
  <rect width="840" height="460" rx="12" fill="#0d1117" stroke="#30363d" stroke-width="1"/>

  <!-- Header -->
  <g class="cpd-header">
    <a href="https://github.com/mpge/code-per-day" target="_blank">
      <text x="24" y="44" fill="#f0f6fc" font-size="18" font-family="'Segoe UI', sans-serif" font-weight="700">Code Per Day</text>
    </a>
    <text x="816" y="44" fill="#484f58" font-size="13" font-family="'Segoe UI', sans-serif" text-anchor="end" font-weight="500">@mpge</text>
  </g>

  <!-- Stats Cards -->
  <g class="cpd-stats">
    
    <rect x="24" y="60" width="190" height="68" rx="8" fill="#010409" stroke="#30363d" stroke-width="1"/>
    <text x="119" y="78" fill="#484f58" font-size="11" font-family="'Segoe UI', sans-serif" text-anchor="middle" font-weight="500">Today</text>
    <text x="119" y="100" fill="#3fb950" font-size="16" font-family="'Segoe UI Mono', 'Cascadia Code', monospace" text-anchor="middle" font-weight="700">+0</text>
    <text x="119" y="118" fill="#f85149" font-size="14" font-family="'Segoe UI Mono', 'Cascadia Code', monospace" text-anchor="middle" font-weight="600">+0</text>
    <rect x="222" y="60" width="190" height="68" rx="8" fill="#010409" stroke="#30363d" stroke-width="1"/>
    <text x="317" y="78" fill="#484f58" font-size="11" font-family="'Segoe UI', sans-serif" text-anchor="middle" font-weight="500">30d Avg</text>
    <text x="317" y="100" fill="#3fb950" font-size="16" font-family="'Segoe UI Mono', 'Cascadia Code', monospace" text-anchor="middle" font-weight="700">+215,335</text>
    <text x="317" y="118" fill="#f85149" font-size="14" font-family="'Segoe UI Mono', 'Cascadia Code', monospace" text-anchor="middle" font-weight="600">-56,838</text>
    <rect x="420" y="60" width="190" height="68" rx="8" fill="#010409" stroke="#30363d" stroke-width="1"/>
    <text x="515" y="78" fill="#484f58" font-size="11" font-family="'Segoe UI', sans-serif" text-anchor="middle" font-weight="500">Year Avg</text>
    <text x="515" y="100" fill="#3fb950" font-size="16" font-family="'Segoe UI Mono', 'Cascadia Code', monospace" text-anchor="middle" font-weight="700">+22,197</text>
    <text x="515" y="118" fill="#f85149" font-size="14" font-family="'Segoe UI Mono', 'Cascadia Code', monospace" text-anchor="middle" font-weight="600">-6,396</text>
        <rect x="618" y="60" width="190" height="68" rx="8" fill="#010409" stroke="#30363d" stroke-width="1"/>
        <text x="713" y="78" fill="#484f58" font-size="11" font-family="'Segoe UI', sans-serif" text-anchor="middle" font-weight="500">Streak</text>
        <text x="713" y="104" fill="#2f81f7" font-size="20" font-family="'Segoe UI Mono', 'Cascadia Code', monospace" text-anchor="middle" font-weight="700">152</text>
        <text x="713" y="120" fill="#484f58" font-size="11" font-family="'Segoe UI', sans-serif" text-anchor="middle">days</text>
  </g>

  <!-- Chart -->
  <g class="cpd-chart">
    <line x1="72" y1="148" x2="808" y2="148" stroke="#21262d" stroke-width="1" stroke-dasharray="4,4"/><line x1="72" y1="213.5" x2="808" y2="213.5" stroke="#21262d" stroke-width="1" stroke-dasharray="4,4"/><line x1="72" y1="279" x2="808" y2="279" stroke="#21262d" stroke-width="1" stroke-dasharray="4,4"/><line x1="72" y1="344.5" x2="808" y2="344.5" stroke="#21262d" stroke-width="1" stroke-dasharray="4,4"/><line x1="72" y1="410" x2="808" y2="410" stroke="#21262d" stroke-width="1" stroke-dasharray="4,4"/><line x1="72" y1="279" x2="808" y2="279" stroke="#30363d" stroke-width="1.5"/><text x="64" y="162" fill="#484f58" font-size="10" font-family="'Segoe UI', sans-serif" text-anchor="end">+44,018</text><text x="64" y="406" fill="#484f58" font-size="10" font-family="'Segoe UI', sans-serif" text-anchor="end">-44,018</text><text x="64" y="283" fill="#484f58" font-size="10" font-family="'Segoe UI', sans-serif" text-anchor="end">0</text><path d="M 72 279 L 72 277.4166477350175 L 96.53333333333333 279 L 121.06666666666666 274.88218456086145 L 145.60000000000002 279 L 170.13333333333333 279 L 194.66666666666669 229.23985642237267 L 219.20000000000002 158 L 243.73333333333335 158 L 268.26666666666665 174.00670180380752 L 292.8 158 L 317.33333333333337 158 L 341.8666666666667 244.09203053296378 L 366.40000000000003 261.03884774410466 L 390.93333333333334 158 L 415.4666666666667 257.3416102503521 L 440 278.8680539779181 L 464.53333333333336 279 L 489.0666666666667 278.8543096006179 L 513.6 279 L 538.1333333333334 264.8405425053387 L 562.6666666666667 239.27874960243537 L 587.2 259.65066563678494 L 611.7333333333333 266.23697123903855 L 636.2666666666667 278.9862556226998 L 660.8000000000001 207.70516606842654 L 685.3333333333334 158 L 709.8666666666667 272.88924985233314 L 734.4000000000001 203.14753055568178 L 758.9333333333334 166.2163887500568 L 783.4666666666667 247.71229951383526 L 808 279 L 808 279 Z" fill="#3fb950" opacity="0.15"/><path d="M 72 279 L 72 277.4166477350175 L 96.53333333333333 279 L 121.06666666666666 274.88218456086145 L 145.60000000000002 279 L 170.13333333333333 279 L 194.66666666666669 229.23985642237267 L 219.20000000000002 158 L 243.73333333333335 158 L 268.26666666666665 174.00670180380752 L 292.8 158 L 317.33333333333337 158 L 341.8666666666667 244.09203053296378 L 366.40000000000003 261.03884774410466 L 390.93333333333334 158 L 415.4666666666667 257.3416102503521 L 440 278.8680539779181 L 464.53333333333336 279 L 489.0666666666667 278.8543096006179 L 513.6 279 L 538.1333333333334 264.8405425053387 L 562.6666666666667 239.27874960243537 L 587.2 259.65066563678494 L 611.7333333333333 266.23697123903855 L 636.2666666666667 278.9862556226998 L 660.8000000000001 207.70516606842654 L 685.3333333333334 158 L 709.8666666666667 272.88924985233314 L 734.4000000000001 203.14753055568178 L 758.9333333333334 166.2163887500568 L 783.4666666666667 247.71229951383526 L 808 279" fill="none" stroke="#3fb950" stroke-width="2"/><path d="M 72 279 L 72 279 L 96.53333333333333 279 L 121.06666666666666 280.5641101367622 L 145.60000000000002 279 L 170.13333333333333 279 L 194.66666666666669 279.10995501840154 L 219.20000000000002 400 L 243.73333333333335 298.3988141214958 L 268.26666666666665 328.50174928438366 L 292.8 290.5425280567041 L 317.33333333333337 312.93211867872236 L 341.8666666666667 284.70391657958106 L 366.40000000000003 284.58846381025944 L 390.93333333333334 281.57294743059657 L 415.4666666666667 279.80816938525146 L 440 292.3705302376301 L 464.53333333333336 279 L 489.0666666666667 279.12369939570175 L 513.6 279 L 538.1333333333334 279.31337180244446 L 562.6666666666667 281.26782225453223 L 587.2 284.48400654277793 L 611.7333333333333 279.1704302785224 L 636.2666666666667 279 L 660.8000000000001 280.51737925394156 L 685.3333333333334 292.5657003952928 L 709.8666666666667 279.22815666318326 L 734.4000000000001 282.41410332136854 L 758.9333333333334 281.43275478213457 L 783.4666666666667 293.52505793084646 L 808 279 L 808 279 Z" fill="#f85149" opacity="0.15"/><path d="M 72 279 L 72 279 L 96.53333333333333 279 L 121.06666666666666 280.5641101367622 L 145.60000000000002 279 L 170.13333333333333 279 L 194.66666666666669 279.10995501840154 L 219.20000000000002 400 L 243.73333333333335 298.3988141214958 L 268.26666666666665 328.50174928438366 L 292.8 290.5425280567041 L 317.33333333333337 312.93211867872236 L 341.8666666666667 284.70391657958106 L 366.40000000000003 284.58846381025944 L 390.93333333333334 281.57294743059657 L 415.4666666666667 279.80816938525146 L 440 292.3705302376301 L 464.53333333333336 279 L 489.0666666666667 279.12369939570175 L 513.6 279 L 538.1333333333334 279.31337180244446 L 562.6666666666667 281.26782225453223 L 587.2 284.48400654277793 L 611.7333333333333 279.1704302785224 L 636.2666666666667 279 L 660.8000000000001 280.51737925394156 L 685.3333333333334 292.5657003952928 L 709.8666666666667 279.22815666318326 L 734.4000000000001 282.41410332136854 L 758.9333333333334 281.43275478213457 L 783.4666666666667 293.52505793084646 L 808 279" fill="none" stroke="#f85149" stroke-width="2"/><text x="72" y="426" fill="#484f58" font-size="10" font-family="'Segoe UI', sans-serif" text-anchor="middle">Mar 30</text><text x="194.66666666666669" y="426" fill="#484f58" font-size="10" font-family="'Segoe UI', sans-serif" text-anchor="middle">Apr 4</text><text x="317.33333333333337" y="426" fill="#484f58" font-size="10" font-family="'Segoe UI', sans-serif" text-anchor="middle">Apr 9</text><text x="440" y="426" fill="#484f58" font-size="10" font-family="'Segoe UI', sans-serif" text-anchor="middle">Apr 14</text><text x="562.6666666666667" y="426" fill="#484f58" font-size="10" font-family="'Segoe UI', sans-serif" text-anchor="middle">Apr 19</text><text x="685.3333333333334" y="426" fill="#484f58" font-size="10" font-family="'Segoe UI', sans-serif" text-anchor="middle">Apr 24</text><text x="808" y="426" fill="#484f58" font-size="10" font-family="'Segoe UI', sans-serif" text-anchor="middle">Apr 29</text>
  </g>

  <!-- Legend -->
  <g class="cpd-legend">
    <circle cx="30" cy="442" r="5" fill="#3fb950"/>
    <text x="40" y="446" fill="#7d8590" font-size="11" font-family="'Segoe UI', sans-serif">Additions</text>
    <circle cx="124" cy="442" r="5" fill="#f85149"/>
    <text x="134" y="446" fill="#7d8590" font-size="11" font-family="'Segoe UI', sans-serif">Deletions</text>
    <text x="816" y="446" fill="#484f58" font-size="10" font-family="'Segoe UI', sans-serif" text-anchor="end">Last 31 days · +6,675,393 / -1,761,974 lines</text>
  </g>

  <!-- Get your own -->
  <a href="https://github.com/mpge/code-per-day" target="_blank">
    <text x="420" y="452" fill="#484f58" font-size="10" font-family="'Segoe UI', sans-serif" text-anchor="middle" opacity="0.6">Get your own — github.com/mpge/code-per-day</text>
  </a>
</svg>