<svg width="840" height="460" viewBox="0 0 840 460" xmlns="http://www.w3.org/2000/svg">
  
    <style>
      @keyframes fadeInUp {
        from { opacity: 0; transform: translateY(12px); }
        to   { opacity: 1; transform: translateY(0); }
      }
      @keyframes growBar {
        from { transform: scaleY(0); }
        to   { transform: scaleY(1); }
      }
      .cpd-header  { animation: fadeInUp 0.5s ease both; }
      .cpd-stats   { animation: fadeInUp 0.5s ease 0.15s both; }
      .cpd-chart   { animation: fadeInUp 0.5s ease 0.3s both; }
      .cpd-legend  { animation: fadeInUp 0.5s ease 0.45s both; }
    </style>

  <rect width="840" height="460" rx="12" fill="transparent" />

  <g class="cpd-header">
    <a href="https://github.com/mpge/code-per-day" target="_blank">
      <text x="24" y="44" fill="#e6edf3" font-size="18" font-family="'Segoe UI', sans-serif" font-weight="700">Code Per Day</text>
    </a>
    <text x="816" y="44" fill="#6e7681" font-size="13" font-family="'Segoe UI', sans-serif" text-anchor="end" font-weight="500">@mpge</text>
  </g>

  <g class="cpd-stats">
    
    <rect x="24" y="60" width="190" height="68" rx="8" fill="rgba(13,17,23,0.6)" stroke="#30363d" stroke-width="1"/>
    <text x="119" y="78" fill="#6e7681" font-size="11" font-family="'Segoe UI', sans-serif" text-anchor="middle" font-weight="500">Today</text>
    <text x="119" y="100" fill="#3fb950" font-size="16" font-family="'Segoe UI Mono', 'Cascadia Code', monospace" text-anchor="middle" font-weight="700">+0</text>
    <text x="119" y="118" fill="#f85149" font-size="14" font-family="'Segoe UI Mono', 'Cascadia Code', monospace" text-anchor="middle" font-weight="600">+0</text>
    <rect x="222" y="60" width="190" height="68" rx="8" fill="rgba(13,17,23,0.6)" stroke="#30363d" stroke-width="1"/>
    <text x="317" y="78" fill="#6e7681" font-size="11" font-family="'Segoe UI', sans-serif" text-anchor="middle" font-weight="500">30d Avg</text>
    <text x="317" y="100" fill="#3fb950" font-size="16" font-family="'Segoe UI Mono', 'Cascadia Code', monospace" text-anchor="middle" font-weight="700">+19,379</text>
    <text x="317" y="118" fill="#f85149" font-size="14" font-family="'Segoe UI Mono', 'Cascadia Code', monospace" text-anchor="middle" font-weight="600">-7,613</text>
    <rect x="420" y="60" width="190" height="68" rx="8" fill="rgba(13,17,23,0.6)" stroke="#30363d" stroke-width="1"/>
    <text x="515" y="78" fill="#6e7681" font-size="11" font-family="'Segoe UI', sans-serif" text-anchor="middle" font-weight="500">Year Avg</text>
    <text x="515" y="100" fill="#3fb950" font-size="16" font-family="'Segoe UI Mono', 'Cascadia Code', monospace" text-anchor="middle" font-weight="700">+25,480</text>
    <text x="515" y="118" fill="#f85149" font-size="14" font-family="'Segoe UI Mono', 'Cascadia Code', monospace" text-anchor="middle" font-weight="600">-7,075</text>
    <rect x="618" y="60" width="190" height="68" rx="8" fill="rgba(13,17,23,0.6)" stroke="#30363d" stroke-width="1"/>
    <text x="713" y="78" fill="#6e7681" font-size="11" font-family="'Segoe UI', sans-serif" text-anchor="middle" font-weight="500">Streak</text>
    <text x="713" y="104" fill="#58a6ff" font-size="20" font-family="'Segoe UI Mono', 'Cascadia Code', monospace" text-anchor="middle" font-weight="700">191</text>
    <text x="713" y="120" fill="#6e7681" font-size="11" font-family="'Segoe UI', sans-serif" text-anchor="middle">days</text>
  </g>

  <g class="cpd-chart">
    <line x1="72" y1="148" x2="808" y2="148" stroke="rgba(33,38,45,0.6)" stroke-width="1" stroke-dasharray="4,4"/><line x1="72" y1="213.5" x2="808" y2="213.5" stroke="rgba(33,38,45,0.6)" stroke-width="1" stroke-dasharray="4,4"/><line x1="72" y1="279" x2="808" y2="279" stroke="rgba(33,38,45,0.6)" stroke-width="1" stroke-dasharray="4,4"/><line x1="72" y1="344.5" x2="808" y2="344.5" stroke="rgba(33,38,45,0.6)" stroke-width="1" stroke-dasharray="4,4"/><line x1="72" y1="410" x2="808" y2="410" stroke="rgba(33,38,45,0.6)" stroke-width="1" stroke-dasharray="4,4"/><line x1="72" y1="279" x2="808" y2="279" stroke="#30363d" stroke-width="1.5"/><text x="64" y="162" fill="#6e7681" font-size="10" font-family="'Segoe UI', sans-serif" text-anchor="end">+35,739</text><text x="64" y="406" fill="#6e7681" font-size="10" font-family="'Segoe UI', sans-serif" text-anchor="end">-35,739</text><text x="64" y="283" fill="#6e7681" font-size="10" font-family="'Segoe UI', sans-serif" text-anchor="end">0</text><path d="M 72 279 L 72 158 L 96.53333333333333 274.58848876577406 L 121.06666666666666 238.5176977531548 L 145.60000000000002 227.95106186518927 L 170.13333333333333 267.4244382887042 L 194.66666666666669 249.50076946752847 L 219.20000000000002 265.2542320714066 L 243.73333333333335 262.6845183133272 L 268.26666666666665 277.40196983687287 L 292.8 158 L 317.33333333333337 158 L 341.8666666666667 158 L 366.40000000000003 204.36657433056325 L 390.93333333333334 276.99569098184054 L 415.4666666666667 262.9824561403509 L 440 235.98522622345337 L 464.53333333333336 234.20098491843646 L 489.0666666666667 263.009541397353 L 513.6 264.6989843028624 L 538.1333333333334 267.2890120036934 L 562.6666666666667 208.06032625423205 L 587.2 239.55032317636196 L 611.7333333333333 249.36195752539243 L 636.2666666666667 158 L 660.8000000000001 216.3755001538935 L 685.3333333333334 158 L 709.8666666666667 211.74730686365035 L 734.4000000000001 256.9526008002462 L 758.9333333333334 231.04893813481073 L 783.4666666666667 278.3499538319483 L 808 279 L 808 279 Z" fill="#3fb950" opacity="0.15"/><path d="M 72 279 L 72 158 L 96.53333333333333 274.58848876577406 L 121.06666666666666 238.5176977531548 L 145.60000000000002 227.95106186518927 L 170.13333333333333 267.4244382887042 L 194.66666666666669 249.50076946752847 L 219.20000000000002 265.2542320714066 L 243.73333333333335 262.6845183133272 L 268.26666666666665 277.40196983687287 L 292.8 158 L 317.33333333333337 158 L 341.8666666666667 158 L 366.40000000000003 204.36657433056325 L 390.93333333333334 276.99569098184054 L 415.4666666666667 262.9824561403509 L 440 235.98522622345337 L 464.53333333333336 234.20098491843646 L 489.0666666666667 263.009541397353 L 513.6 264.6989843028624 L 538.1333333333334 267.2890120036934 L 562.6666666666667 208.06032625423205 L 587.2 239.55032317636196 L 611.7333333333333 249.36195752539243 L 636.2666666666667 158 L 660.8000000000001 216.3755001538935 L 685.3333333333334 158 L 709.8666666666667 211.74730686365035 L 734.4000000000001 256.9526008002462 L 758.9333333333334 231.04893813481073 L 783.4666666666667 278.3499538319483 L 808 279" fill="none" stroke="#3fb950" stroke-width="2"/><path d="M 72 279 L 72 400 L 96.53333333333333 280.746999076639 L 121.06666666666666 282.6768236380425 L 145.60000000000002 288.36472760849495 L 170.13333333333333 279.3250230840259 L 194.66666666666669 290.2539242843952 L 219.20000000000002 282.27054478301017 L 243.73333333333335 280.7943982763927 L 268.26666666666665 279.3284087411511 L 292.8 283.4148968913512 L 317.33333333333337 287.9482917820868 L 341.8666666666667 400 L 366.40000000000003 308.492459218221 L 390.93333333333334 280.32717759310555 L 415.4666666666667 291.33056325023085 L 440 297.4213604185903 L 464.53333333333336 292.34626038781164 L 489.0666666666667 281.89473684210526 L 513.6 283.6078793474915 L 538.1333333333334 284.6337334564481 L 562.6666666666667 294.62142197599263 L 587.2 296.62911665127734 L 611.7333333333333 281.42074484456754 L 636.2666666666667 324.8891966759003 L 660.8000000000001 400 L 685.3333333333334 382.33702677747 L 709.8666666666667 297.4281317328409 L 734.4000000000001 282.4093567251462 L 758.9333333333334 285.8322560787935 L 783.4666666666667 279.20313942751613 L 808 279 L 808 279 Z" fill="#f85149" opacity="0.15"/><path d="M 72 279 L 72 400 L 96.53333333333333 280.746999076639 L 121.06666666666666 282.6768236380425 L 145.60000000000002 288.36472760849495 L 170.13333333333333 279.3250230840259 L 194.66666666666669 290.2539242843952 L 219.20000000000002 282.27054478301017 L 243.73333333333335 280.7943982763927 L 268.26666666666665 279.3284087411511 L 292.8 283.4148968913512 L 317.33333333333337 287.9482917820868 L 341.8666666666667 400 L 366.40000000000003 308.492459218221 L 390.93333333333334 280.32717759310555 L 415.4666666666667 291.33056325023085 L 440 297.4213604185903 L 464.53333333333336 292.34626038781164 L 489.0666666666667 281.89473684210526 L 513.6 283.6078793474915 L 538.1333333333334 284.6337334564481 L 562.6666666666667 294.62142197599263 L 587.2 296.62911665127734 L 611.7333333333333 281.42074484456754 L 636.2666666666667 324.8891966759003 L 660.8000000000001 400 L 685.3333333333334 382.33702677747 L 709.8666666666667 297.4281317328409 L 734.4000000000001 282.4093567251462 L 758.9333333333334 285.8322560787935 L 783.4666666666667 279.20313942751613 L 808 279" fill="none" stroke="#f85149" stroke-width="2"/><text x="72" y="426" fill="#6e7681" font-size="10" font-family="'Segoe UI', sans-serif" text-anchor="middle">May 8</text><text x="194.66666666666669" y="426" fill="#6e7681" font-size="10" font-family="'Segoe UI', sans-serif" text-anchor="middle">May 13</text><text x="317.33333333333337" y="426" fill="#6e7681" font-size="10" font-family="'Segoe UI', sans-serif" text-anchor="middle">May 18</text><text x="440" y="426" fill="#6e7681" font-size="10" font-family="'Segoe UI', sans-serif" text-anchor="middle">May 23</text><text x="562.6666666666667" y="426" fill="#6e7681" font-size="10" font-family="'Segoe UI', sans-serif" text-anchor="middle">May 28</text><text x="685.3333333333334" y="426" fill="#6e7681" font-size="10" font-family="'Segoe UI', sans-serif" text-anchor="middle">Jun 2</text><text x="808" y="426" fill="#6e7681" font-size="10" font-family="'Segoe UI', sans-serif" text-anchor="middle">Jun 7</text>
  </g>

  <g class="cpd-legend">
    
    <circle cx="30" cy="442" r="5" fill="#3fb950"/>
    <text x="40" y="446" fill="#8b949e" font-size="11" font-family="'Segoe UI', sans-serif">Additions</text>
    <circle cx="124" cy="442" r="5" fill="#f85149"/>
    <text x="134" y="446" fill="#8b949e" font-size="11" font-family="'Segoe UI', sans-serif">Deletions</text>
    <text x="816" y="446" fill="#6e7681" font-size="10" font-family="'Segoe UI', sans-serif" text-anchor="end">Last 31 days · +600,760 / -235,994 lines</text>
  </g>

  <a href="https://github.com/mpge/code-per-day" target="_blank">
    <text x="420" y="452" fill="#6e7681" font-size="10" font-family="'Segoe UI', sans-serif" text-anchor="middle" opacity="0.6">Get your own - github.com/mpge/code-per-day</text>
  </a>
</svg>