<svg width="840" height="460" viewBox="0 0 840 460" xmlns="http://www.w3.org/2000/svg">
  
    <style>
      @keyframes fadeInUp {
        from { opacity: 0; transform: translateY(12px); }
        to   { opacity: 1; transform: translateY(0); }
      }
      @keyframes growBar {
        from { transform: scaleY(0); }
        to   { transform: scaleY(1); }
      }
      .cpd-header  { animation: fadeInUp 0.5s ease both; }
      .cpd-stats   { animation: fadeInUp 0.5s ease 0.15s both; }
      .cpd-chart   { animation: fadeInUp 0.5s ease 0.3s both; }
      .cpd-legend  { animation: fadeInUp 0.5s ease 0.45s both; }
    </style>

  <rect width="840" height="460" rx="12" fill="transparent" />

  <g class="cpd-header">
    <a href="https://github.com/mpge/code-per-day" target="_blank">
      <text x="24" y="44" fill="#e6edf3" font-size="18" font-family="'Segoe UI', sans-serif" font-weight="700">Code Per Day</text>
    </a>
    <text x="816" y="44" fill="#6e7681" font-size="13" font-family="'Segoe UI', sans-serif" text-anchor="end" font-weight="500">@mpge</text>
  </g>

  <g class="cpd-stats">
    
    <rect x="24" y="60" width="190" height="68" rx="8" fill="rgba(13,17,23,0.6)" stroke="#30363d" stroke-width="1"/>
    <text x="119" y="78" fill="#6e7681" font-size="11" font-family="'Segoe UI', sans-serif" text-anchor="middle" font-weight="500">Today</text>
    <text x="119" y="100" fill="#3fb950" font-size="16" font-family="'Segoe UI Mono', 'Cascadia Code', monospace" text-anchor="middle" font-weight="700">+11,642</text>
    <text x="119" y="118" fill="#f85149" font-size="14" font-family="'Segoe UI Mono', 'Cascadia Code', monospace" text-anchor="middle" font-weight="600">-3,837</text>
    <rect x="222" y="60" width="190" height="68" rx="8" fill="rgba(13,17,23,0.6)" stroke="#30363d" stroke-width="1"/>
    <text x="317" y="78" fill="#6e7681" font-size="11" font-family="'Segoe UI', sans-serif" text-anchor="middle" font-weight="500">30d Avg</text>
    <text x="317" y="100" fill="#3fb950" font-size="16" font-family="'Segoe UI Mono', 'Cascadia Code', monospace" text-anchor="middle" font-weight="700">+35,897</text>
    <text x="317" y="118" fill="#f85149" font-size="14" font-family="'Segoe UI Mono', 'Cascadia Code', monospace" text-anchor="middle" font-weight="600">-5,265</text>
    <rect x="420" y="60" width="190" height="68" rx="8" fill="rgba(13,17,23,0.6)" stroke="#30363d" stroke-width="1"/>
    <text x="515" y="78" fill="#6e7681" font-size="11" font-family="'Segoe UI', sans-serif" text-anchor="middle" font-weight="500">Year Avg</text>
    <text x="515" y="100" fill="#3fb950" font-size="16" font-family="'Segoe UI Mono', 'Cascadia Code', monospace" text-anchor="middle" font-weight="700">+25,044</text>
    <text x="515" y="118" fill="#f85149" font-size="14" font-family="'Segoe UI Mono', 'Cascadia Code', monospace" text-anchor="middle" font-weight="600">-6,799</text>
    <rect x="618" y="60" width="190" height="68" rx="8" fill="rgba(13,17,23,0.6)" stroke="#30363d" stroke-width="1"/>
    <text x="713" y="78" fill="#6e7681" font-size="11" font-family="'Segoe UI', sans-serif" text-anchor="middle" font-weight="500">Streak</text>
    <text x="713" y="104" fill="#58a6ff" font-size="20" font-family="'Segoe UI Mono', 'Cascadia Code', monospace" text-anchor="middle" font-weight="700">182</text>
    <text x="713" y="120" fill="#6e7681" font-size="11" font-family="'Segoe UI', sans-serif" text-anchor="middle">days</text>
  </g>

  <g class="cpd-chart">
    <line x1="72" y1="148" x2="808" y2="148" stroke="rgba(33,38,45,0.6)" stroke-width="1" stroke-dasharray="4,4"/><line x1="72" y1="213.5" x2="808" y2="213.5" stroke="rgba(33,38,45,0.6)" stroke-width="1" stroke-dasharray="4,4"/><line x1="72" y1="279" x2="808" y2="279" stroke="rgba(33,38,45,0.6)" stroke-width="1" stroke-dasharray="4,4"/><line x1="72" y1="344.5" x2="808" y2="344.5" stroke="rgba(33,38,45,0.6)" stroke-width="1" stroke-dasharray="4,4"/><line x1="72" y1="410" x2="808" y2="410" stroke="rgba(33,38,45,0.6)" stroke-width="1" stroke-dasharray="4,4"/><line x1="72" y1="279" x2="808" y2="279" stroke="#30363d" stroke-width="1.5"/><text x="64" y="162" fill="#6e7681" font-size="10" font-family="'Segoe UI', sans-serif" text-anchor="end">+27,064</text><text x="64" y="406" fill="#6e7681" font-size="10" font-family="'Segoe UI', sans-serif" text-anchor="end">-27,064</text><text x="64" y="283" fill="#6e7681" font-size="10" font-family="'Segoe UI', sans-serif" text-anchor="end">0</text><path d="M 72 279 L 72 228.1124002364765 L 96.53333333333333 267.62160065031037 L 121.06666666666666 216.88601093703812 L 145.60000000000002 240.44756872598285 L 170.13333333333333 158 L 194.66666666666669 251.68289979308307 L 219.20000000000002 263.93759237363287 L 243.73333333333335 178.51688590008868 L 268.26666666666665 242.80819538870824 L 292.8 196.55690215784807 L 317.33333333333337 158 L 341.8666666666667 273.17443836831217 L 366.40000000000003 225.5416420336979 L 390.93333333333334 211.58801359739874 L 415.4666666666667 263.7140481820869 L 440 240.0451891812001 L 464.53333333333336 260.84821164646763 L 489.0666666666667 257.4548108187999 L 513.6 276.8897428318061 L 538.1333333333334 158 L 562.6666666666667 158 L 587.2 158 L 611.7333333333333 180.44383683121492 L 636.2666666666667 276.3532367720958 L 660.8000000000001 257.8482485959208 L 685.3333333333334 222.19742092817026 L 709.8666666666667 219.84126514927578 L 734.4000000000001 257.88401566656813 L 758.9333333333334 260.11498669819684 L 783.4666666666667 263.53521282885015 L 808 226.94997044043748 L 808 279 Z" fill="#3fb950" opacity="0.15"/><path d="M 72 279 L 72 228.1124002364765 L 96.53333333333333 267.62160065031037 L 121.06666666666666 216.88601093703812 L 145.60000000000002 240.44756872598285 L 170.13333333333333 158 L 194.66666666666669 251.68289979308307 L 219.20000000000002 263.93759237363287 L 243.73333333333335 178.51688590008868 L 268.26666666666665 242.80819538870824 L 292.8 196.55690215784807 L 317.33333333333337 158 L 341.8666666666667 273.17443836831217 L 366.40000000000003 225.5416420336979 L 390.93333333333334 211.58801359739874 L 415.4666666666667 263.7140481820869 L 440 240.0451891812001 L 464.53333333333336 260.84821164646763 L 489.0666666666667 257.4548108187999 L 513.6 276.8897428318061 L 538.1333333333334 158 L 562.6666666666667 158 L 587.2 158 L 611.7333333333333 180.44383683121492 L 636.2666666666667 276.3532367720958 L 660.8000000000001 257.8482485959208 L 685.3333333333334 222.19742092817026 L 709.8666666666667 219.84126514927578 L 734.4000000000001 257.88401566656813 L 758.9333333333334 260.11498669819684 L 783.4666666666667 263.53521282885015 L 808 226.94997044043748" fill="none" stroke="#3fb950" stroke-width="2"/><path d="M 72 279 L 72 302.6241501625776 L 96.53333333333333 281.4187481525273 L 121.06666666666666 299.8253768844221 L 145.60000000000002 286.1668267809636 L 170.13333333333333 315.4779411764706 L 194.66666666666669 291.74201891812004 L 219.20000000000002 284.7003768844221 L 243.73333333333335 287.2621933195389 L 268.26666666666665 282.4828185042861 L 292.8 299.76278451078923 L 317.33333333333337 400 L 341.8666666666667 281.30697605675437 L 366.40000000000003 283.85537984037836 L 390.93333333333334 291.3664646763228 L 415.4666666666667 279.42920484776823 L 440 293.86121785397575 L 464.53333333333336 283.31887378066807 L 489.0666666666667 281.36956843038723 L 513.6 279.4336757315992 L 538.1333333333334 284.8300325155188 L 562.6666666666667 290.8165459651197 L 587.2 400 L 611.7333333333333 317.94586905113806 L 636.2666666666667 280.75258646172034 L 660.8000000000001 295.2829589122081 L 685.3333333333334 303.32607892403195 L 709.8666666666667 296.6242240614839 L 734.4000000000001 282.822605675436 L 758.9333333333334 285.0848728938812 L 783.4666666666667 286.4395506946497 L 808 296.1547812592374 L 808 279 Z" fill="#f85149" opacity="0.15"/><path d="M 72 279 L 72 302.6241501625776 L 96.53333333333333 281.4187481525273 L 121.06666666666666 299.8253768844221 L 145.60000000000002 286.1668267809636 L 170.13333333333333 315.4779411764706 L 194.66666666666669 291.74201891812004 L 219.20000000000002 284.7003768844221 L 243.73333333333335 287.2621933195389 L 268.26666666666665 282.4828185042861 L 292.8 299.76278451078923 L 317.33333333333337 400 L 341.8666666666667 281.30697605675437 L 366.40000000000003 283.85537984037836 L 390.93333333333334 291.3664646763228 L 415.4666666666667 279.42920484776823 L 440 293.86121785397575 L 464.53333333333336 283.31887378066807 L 489.0666666666667 281.36956843038723 L 513.6 279.4336757315992 L 538.1333333333334 284.8300325155188 L 562.6666666666667 290.8165459651197 L 587.2 400 L 611.7333333333333 317.94586905113806 L 636.2666666666667 280.75258646172034 L 660.8000000000001 295.2829589122081 L 685.3333333333334 303.32607892403195 L 709.8666666666667 296.6242240614839 L 734.4000000000001 282.822605675436 L 758.9333333333334 285.0848728938812 L 783.4666666666667 286.4395506946497 L 808 296.1547812592374" fill="none" stroke="#f85149" stroke-width="2"/><text x="72" y="426" fill="#6e7681" font-size="10" font-family="'Segoe UI', sans-serif" text-anchor="middle">Apr 28</text><text x="194.66666666666669" y="426" fill="#6e7681" font-size="10" font-family="'Segoe UI', sans-serif" text-anchor="middle">May 3</text><text x="317.33333333333337" y="426" fill="#6e7681" font-size="10" font-family="'Segoe UI', sans-serif" text-anchor="middle">May 8</text><text x="440" y="426" fill="#6e7681" font-size="10" font-family="'Segoe UI', sans-serif" text-anchor="middle">May 13</text><text x="562.6666666666667" y="426" fill="#6e7681" font-size="10" font-family="'Segoe UI', sans-serif" text-anchor="middle">May 18</text><text x="685.3333333333334" y="426" fill="#6e7681" font-size="10" font-family="'Segoe UI', sans-serif" text-anchor="middle">May 23</text><text x="808" y="426" fill="#6e7681" font-size="10" font-family="'Segoe UI', sans-serif" text-anchor="middle">May 28</text>
  </g>

  <g class="cpd-legend">
    
    <circle cx="30" cy="442" r="5" fill="#3fb950"/>
    <text x="40" y="446" fill="#8b949e" font-size="11" font-family="'Segoe UI', sans-serif">Additions</text>
    <circle cx="124" cy="442" r="5" fill="#f85149"/>
    <text x="134" y="446" fill="#8b949e" font-size="11" font-family="'Segoe UI', sans-serif">Deletions</text>
    <text x="816" y="446" fill="#6e7681" font-size="10" font-family="'Segoe UI', sans-serif" text-anchor="end">Last 31 days · +1,112,805 / -163,211 lines</text>
  </g>

  <a href="https://github.com/mpge/code-per-day" target="_blank">
    <text x="420" y="452" fill="#6e7681" font-size="10" font-family="'Segoe UI', sans-serif" text-anchor="middle" opacity="0.6">Get your own - github.com/mpge/code-per-day</text>
  </a>
</svg>