<svg width="840" height="460" viewBox="0 0 840 460" xmlns="http://www.w3.org/2000/svg">
  
    <style>
      @keyframes fadeInUp {
        from { opacity: 0; transform: translateY(12px); }
        to   { opacity: 1; transform: translateY(0); }
      }
      @keyframes growBar {
        from { transform: scaleY(0); }
        to   { transform: scaleY(1); }
      }
      .cpd-header  { animation: fadeInUp 0.5s ease both; }
      .cpd-stats   { animation: fadeInUp 0.5s ease 0.15s both; }
      .cpd-chart   { animation: fadeInUp 0.5s ease 0.3s both; }
      .cpd-legend  { animation: fadeInUp 0.5s ease 0.45s both; }
    </style>

  <!-- Background -->
  <rect width="840" height="460" rx="12" fill="#1a1028" stroke="#3d2660" stroke-width="1"/>

  <!-- Header -->
  <g class="cpd-header">
    <a href="https://github.com/mpge/code-per-day" target="_blank">
      <text x="24" y="44" fill="#f0d0ff" font-size="18" font-family="'Segoe UI', sans-serif" font-weight="700">Code Per Day</text>
    </a>
    <text x="816" y="44" fill="#7a5a8e" font-size="13" font-family="'Segoe UI', sans-serif" text-anchor="end" font-weight="500">@mpge</text>
  </g>

  <!-- Stats Cards -->
  <g class="cpd-stats">
    
    <rect x="24" y="60" width="190" height="68" rx="8" fill="#160e22" stroke="#3d2660" stroke-width="1"/>
    <text x="119" y="78" fill="#7a5a8e" font-size="11" font-family="'Segoe UI', sans-serif" text-anchor="middle" font-weight="500">Today</text>
    <text x="119" y="100" fill="#ffb86c" font-size="16" font-family="'Segoe UI Mono', 'Cascadia Code', monospace" text-anchor="middle" font-weight="700">+48</text>
    <text x="119" y="118" fill="#ff79c6" font-size="14" font-family="'Segoe UI Mono', 'Cascadia Code', monospace" text-anchor="middle" font-weight="600">-4,864</text>
    <rect x="222" y="60" width="190" height="68" rx="8" fill="#160e22" stroke="#3d2660" stroke-width="1"/>
    <text x="317" y="78" fill="#7a5a8e" font-size="11" font-family="'Segoe UI', sans-serif" text-anchor="middle" font-weight="500">30d Avg</text>
    <text x="317" y="100" fill="#ffb86c" font-size="16" font-family="'Segoe UI Mono', 'Cascadia Code', monospace" text-anchor="middle" font-weight="700">+225,683</text>
    <text x="317" y="118" fill="#ff79c6" font-size="14" font-family="'Segoe UI Mono', 'Cascadia Code', monospace" text-anchor="middle" font-weight="600">-72,805</text>
    <rect x="420" y="60" width="190" height="68" rx="8" fill="#160e22" stroke="#3d2660" stroke-width="1"/>
    <text x="515" y="78" fill="#7a5a8e" font-size="11" font-family="'Segoe UI', sans-serif" text-anchor="middle" font-weight="500">Year Avg</text>
    <text x="515" y="100" fill="#ffb86c" font-size="16" font-family="'Segoe UI Mono', 'Cascadia Code', monospace" text-anchor="middle" font-weight="700">+20,716</text>
    <text x="515" y="118" fill="#ff79c6" font-size="14" font-family="'Segoe UI Mono', 'Cascadia Code', monospace" text-anchor="middle" font-weight="600">-6,279</text>
        <rect x="618" y="60" width="190" height="68" rx="8" fill="#160e22" stroke="#3d2660" stroke-width="1"/>
        <text x="713" y="78" fill="#7a5a8e" font-size="11" font-family="'Segoe UI', sans-serif" text-anchor="middle" font-weight="500">Streak</text>
        <text x="713" y="104" fill="#ff79c6" font-size="20" font-family="'Segoe UI Mono', 'Cascadia Code', monospace" text-anchor="middle" font-weight="700">138</text>
        <text x="713" y="120" fill="#7a5a8e" font-size="11" font-family="'Segoe UI', sans-serif" text-anchor="middle">days</text>
  </g>

  <!-- Chart -->
  <g class="cpd-chart">
    <line x1="72" y1="148" x2="808" y2="148" stroke="#2d1c44" stroke-width="1" stroke-dasharray="4,4"/><line x1="72" y1="213.5" x2="808" y2="213.5" stroke="#2d1c44" stroke-width="1" stroke-dasharray="4,4"/><line x1="72" y1="279" x2="808" y2="279" stroke="#2d1c44" stroke-width="1" stroke-dasharray="4,4"/><line x1="72" y1="344.5" x2="808" y2="344.5" stroke="#2d1c44" stroke-width="1" stroke-dasharray="4,4"/><line x1="72" y1="410" x2="808" y2="410" stroke="#2d1c44" stroke-width="1" stroke-dasharray="4,4"/><line x1="72" y1="279" x2="808" y2="279" stroke="#3d2660" stroke-width="1.5"/><text x="64" y="162" fill="#7a5a8e" font-size="10" font-family="'Segoe UI', sans-serif" text-anchor="end">+44,202</text><text x="64" y="406" fill="#7a5a8e" font-size="10" font-family="'Segoe UI', sans-serif" text-anchor="end">-44,202</text><text x="64" y="283" fill="#7a5a8e" font-size="10" font-family="'Segoe UI', sans-serif" text-anchor="end">0</text><path d="M 72 279 L 72 241.40136192932445 L 96.53333333333333 279 L 121.06666666666666 252.42500339351162 L 145.60000000000002 158 L 170.13333333333333 279 L 194.66666666666669 272.99681009909057 L 219.20000000000002 251.66125967150808 L 243.73333333333335 261.51327994208407 L 268.26666666666665 277.25625537306 L 292.8 274.8007782453283 L 317.33333333333337 279 L 341.8666666666667 279 L 366.40000000000003 279 L 390.93333333333334 279 L 415.4666666666667 256.04936428215916 L 440 277.42323876747656 L 464.53333333333336 279 L 489.0666666666667 274.899325822361 L 513.6 279 L 538.1333333333334 279 L 562.6666666666667 229.44699334871726 L 587.2 158 L 611.7333333333333 158 L 636.2666666666667 176.52146961675942 L 660.8000000000001 158 L 685.3333333333334 158 L 709.8666666666667 261.5351794036469 L 734.4000000000001 279 L 758.9333333333334 158 L 783.4666666666667 263.14478982851455 L 808 278.868603230623 L 808 279 Z" fill="#ffb86c" opacity="0.15"/><path d="M 72 279 L 72 241.40136192932445 L 96.53333333333333 279 L 121.06666666666666 252.42500339351162 L 145.60000000000002 158 L 170.13333333333333 279 L 194.66666666666669 272.99681009909057 L 219.20000000000002 251.66125967150808 L 243.73333333333335 261.51327994208407 L 268.26666666666665 277.25625537306 L 292.8 274.8007782453283 L 317.33333333333337 279 L 341.8666666666667 279 L 366.40000000000003 279 L 390.93333333333334 279 L 415.4666666666667 256.04936428215916 L 440 277.42323876747656 L 464.53333333333336 279 L 489.0666666666667 274.899325822361 L 513.6 279 L 538.1333333333334 279 L 562.6666666666667 229.44699334871726 L 587.2 158 L 611.7333333333333 158 L 636.2666666666667 176.52146961675942 L 660.8000000000001 158 L 685.3333333333334 158 L 709.8666666666667 261.5351794036469 L 734.4000000000001 279 L 758.9333333333334 158 L 783.4666666666667 263.14478982851455 L 808 278.868603230623" fill="none" stroke="#ffb86c" stroke-width="2"/><path d="M 72 279 L 72 279.37229084656803 L 96.53333333333333 279 L 121.06666666666666 279.093072711642 L 145.60000000000002 400 L 170.13333333333333 279 L 194.66666666666669 279.00273743269537 L 219.20000000000002 281.66625944527397 L 243.73333333333335 279.54474910637526 L 268.26666666666665 279.0711732500792 L 292.8 279.2025700194561 L 317.33333333333337 279 L 341.8666666666667 279 L 366.40000000000003 279 L 390.93333333333334 279 L 415.4666666666667 279.46536355821 L 440 279 L 464.53333333333336 279 L 489.0666666666667 280.55759920365597 L 513.6 279 L 538.1333333333334 279 L 562.6666666666667 279.10949730781414 L 587.2 400 L 611.7333333333333 298.3180625311072 L 636.2666666666667 327.7673634677164 L 660.8000000000001 290.49447988778786 L 685.3333333333334 312.7908691914393 L 709.8666666666667 282.72564589837566 L 734.4000000000001 279 L 758.9333333333334 279.2436315098864 L 783.4666666666667 279.6131849237591 L 808 292.3148726301977 L 808 279 Z" fill="#ff79c6" opacity="0.15"/><path d="M 72 279 L 72 279.37229084656803 L 96.53333333333333 279 L 121.06666666666666 279.093072711642 L 145.60000000000002 400 L 170.13333333333333 279 L 194.66666666666669 279.00273743269537 L 219.20000000000002 281.66625944527397 L 243.73333333333335 279.54474910637526 L 268.26666666666665 279.0711732500792 L 292.8 279.2025700194561 L 317.33333333333337 279 L 341.8666666666667 279 L 366.40000000000003 279 L 390.93333333333334 279 L 415.4666666666667 279.46536355821 L 440 279 L 464.53333333333336 279 L 489.0666666666667 280.55759920365597 L 513.6 279 L 538.1333333333334 279 L 562.6666666666667 279.10949730781414 L 587.2 400 L 611.7333333333333 298.3180625311072 L 636.2666666666667 327.7673634677164 L 660.8000000000001 290.49447988778786 L 685.3333333333334 312.7908691914393 L 709.8666666666667 282.72564589837566 L 734.4000000000001 279 L 758.9333333333334 279.2436315098864 L 783.4666666666667 279.6131849237591 L 808 292.3148726301977" fill="none" stroke="#ff79c6" stroke-width="2"/><text x="72" y="426" fill="#7a5a8e" font-size="10" font-family="'Segoe UI', sans-serif" text-anchor="middle">Mar 15</text><text x="194.66666666666669" y="426" fill="#7a5a8e" font-size="10" font-family="'Segoe UI', sans-serif" text-anchor="middle">Mar 20</text><text x="317.33333333333337" y="426" fill="#7a5a8e" font-size="10" font-family="'Segoe UI', sans-serif" text-anchor="middle">Mar 25</text><text x="440" y="426" fill="#7a5a8e" font-size="10" font-family="'Segoe UI', sans-serif" text-anchor="middle">Mar 30</text><text x="562.6666666666667" y="426" fill="#7a5a8e" font-size="10" font-family="'Segoe UI', sans-serif" text-anchor="middle">Apr 4</text><text x="685.3333333333334" y="426" fill="#7a5a8e" font-size="10" font-family="'Segoe UI', sans-serif" text-anchor="middle">Apr 9</text><text x="808" y="426" fill="#7a5a8e" font-size="10" font-family="'Segoe UI', sans-serif" text-anchor="middle">Apr 14</text>
  </g>

  <!-- Legend -->
  <g class="cpd-legend">
    <circle cx="30" cy="442" r="5" fill="#ffb86c"/>
    <text x="40" y="446" fill="#c4a0d8" font-size="11" font-family="'Segoe UI', sans-serif">Additions</text>
    <circle cx="124" cy="442" r="5" fill="#ff79c6"/>
    <text x="134" y="446" fill="#c4a0d8" font-size="11" font-family="'Segoe UI', sans-serif">Deletions</text>
    <text x="816" y="446" fill="#7a5a8e" font-size="10" font-family="'Segoe UI', sans-serif" text-anchor="end">Last 31 days · +6,996,180 / -2,256,968 lines</text>
  </g>

  <!-- Get your own -->
  <a href="https://github.com/mpge/code-per-day" target="_blank">
    <text x="420" y="452" fill="#7a5a8e" font-size="10" font-family="'Segoe UI', sans-serif" text-anchor="middle" opacity="0.6">Get your own — github.com/mpge/code-per-day</text>
  </a>
</svg>