<svg width="840" height="460" viewBox="0 0 840 460" xmlns="http://www.w3.org/2000/svg">
  
    <style>
      @keyframes fadeInUp {
        from { opacity: 0; transform: translateY(12px); }
        to   { opacity: 1; transform: translateY(0); }
      }
      @keyframes growBar {
        from { transform: scaleY(0); }
        to   { transform: scaleY(1); }
      }
      .cpd-header  { animation: fadeInUp 0.5s ease both; }
      .cpd-stats   { animation: fadeInUp 0.5s ease 0.15s both; }
      .cpd-chart   { animation: fadeInUp 0.5s ease 0.3s both; }
      .cpd-legend  { animation: fadeInUp 0.5s ease 0.45s both; }
    </style>

  <rect width="840" height="460" rx="12" fill="#1a1028" stroke="#3d2660" stroke-width="1"/>

  <g class="cpd-header">
    <a href="https://github.com/mpge/code-per-day" target="_blank">
      <text x="24" y="44" fill="#f0d0ff" font-size="18" font-family="'Segoe UI', sans-serif" font-weight="700">Code Per Day</text>
    </a>
    <text x="816" y="44" fill="#7a5a8e" font-size="13" font-family="'Segoe UI', sans-serif" text-anchor="end" font-weight="500">@mpge</text>
  </g>

  <g class="cpd-stats">
    
    <rect x="24" y="60" width="190" height="68" rx="8" fill="#160e22" stroke="#3d2660" stroke-width="1"/>
    <text x="119" y="78" fill="#7a5a8e" font-size="11" font-family="'Segoe UI', sans-serif" text-anchor="middle" font-weight="500">Today</text>
    <text x="119" y="100" fill="#ffb86c" font-size="16" font-family="'Segoe UI Mono', 'Cascadia Code', monospace" text-anchor="middle" font-weight="700">+753</text>
    <text x="119" y="118" fill="#ff79c6" font-size="14" font-family="'Segoe UI Mono', 'Cascadia Code', monospace" text-anchor="middle" font-weight="600">-3</text>
    <rect x="222" y="60" width="190" height="68" rx="8" fill="#160e22" stroke="#3d2660" stroke-width="1"/>
    <text x="317" y="78" fill="#7a5a8e" font-size="11" font-family="'Segoe UI', sans-serif" text-anchor="middle" font-weight="500">30d Avg</text>
    <text x="317" y="100" fill="#ffb86c" font-size="16" font-family="'Segoe UI Mono', 'Cascadia Code', monospace" text-anchor="middle" font-weight="700">+12,997</text>
    <text x="317" y="118" fill="#ff79c6" font-size="14" font-family="'Segoe UI Mono', 'Cascadia Code', monospace" text-anchor="middle" font-weight="600">-3,996</text>
    <rect x="420" y="60" width="190" height="68" rx="8" fill="#160e22" stroke="#3d2660" stroke-width="1"/>
    <text x="515" y="78" fill="#7a5a8e" font-size="11" font-family="'Segoe UI', sans-serif" text-anchor="middle" font-weight="500">Year Avg</text>
    <text x="515" y="100" fill="#ffb86c" font-size="16" font-family="'Segoe UI Mono', 'Cascadia Code', monospace" text-anchor="middle" font-weight="700">+26,130</text>
    <text x="515" y="118" fill="#ff79c6" font-size="14" font-family="'Segoe UI Mono', 'Cascadia Code', monospace" text-anchor="middle" font-weight="600">-7,141</text>
    <rect x="618" y="60" width="190" height="68" rx="8" fill="#160e22" stroke="#3d2660" stroke-width="1"/>
    <text x="713" y="78" fill="#7a5a8e" font-size="11" font-family="'Segoe UI', sans-serif" text-anchor="middle" font-weight="500">Streak</text>
    <text x="713" y="104" fill="#ff79c6" font-size="20" font-family="'Segoe UI Mono', 'Cascadia Code', monospace" text-anchor="middle" font-weight="700">215</text>
    <text x="713" y="120" fill="#7a5a8e" font-size="11" font-family="'Segoe UI', sans-serif" text-anchor="middle">days</text>
  </g>

  <g class="cpd-chart">
    <line x1="72" y1="148" x2="808" y2="148" stroke="#2d1c44" stroke-width="1" stroke-dasharray="4,4"/><line x1="72" y1="213.5" x2="808" y2="213.5" stroke="#2d1c44" stroke-width="1" stroke-dasharray="4,4"/><line x1="72" y1="279" x2="808" y2="279" stroke="#2d1c44" stroke-width="1" stroke-dasharray="4,4"/><line x1="72" y1="344.5" x2="808" y2="344.5" stroke="#2d1c44" stroke-width="1" stroke-dasharray="4,4"/><line x1="72" y1="410" x2="808" y2="410" stroke="#2d1c44" stroke-width="1" stroke-dasharray="4,4"/><line x1="72" y1="279" x2="808" y2="279" stroke="#3d2660" stroke-width="1.5"/><text x="64" y="162" fill="#7a5a8e" font-size="10" font-family="'Segoe UI', sans-serif" text-anchor="end">+17,725</text><text x="64" y="406" fill="#7a5a8e" font-size="10" font-family="'Segoe UI', sans-serif" text-anchor="end">-17,725</text><text x="64" y="283" fill="#7a5a8e" font-size="10" font-family="'Segoe UI', sans-serif" text-anchor="end">0</text><path d="M 72 279 L 72 158 L 96.53333333333333 158 L 121.06666666666666 158 L 145.60000000000002 158 L 170.13333333333333 234.5457263751763 L 194.66666666666669 182.31605077574048 L 219.20000000000002 277.6893088857546 L 243.73333333333335 279 L 268.26666666666665 266.60304654442876 L 292.8 279 L 317.33333333333337 250.01461212976022 L 341.8666666666667 279 L 366.40000000000003 278.4880112834979 L 390.93333333333334 276.28304654442877 L 415.4666666666667 247.16112834978844 L 440 274.09856135401975 L 464.53333333333336 279 L 489.0666666666667 269.2449083215797 L 513.6 245.39988716502114 L 538.1333333333334 240.96265162200282 L 562.6666666666667 258.0357686882934 L 587.2 158 L 611.7333333333333 220.6264598025388 L 636.2666666666667 158 L 660.8000000000001 229.43266572637518 L 685.3333333333334 231.51475317348377 L 709.8666666666667 266.4596897038082 L 734.4000000000001 269.31317348377996 L 758.9333333333334 248.13732016925246 L 783.4666666666667 158 L 808 273.85963328631874 L 808 279 Z" fill="#ffb86c" opacity="0.15"/><path d="M 72 279 L 72 158 L 96.53333333333333 158 L 121.06666666666666 158 L 145.60000000000002 158 L 170.13333333333333 234.5457263751763 L 194.66666666666669 182.31605077574048 L 219.20000000000002 277.6893088857546 L 243.73333333333335 279 L 268.26666666666665 266.60304654442876 L 292.8 279 L 317.33333333333337 250.01461212976022 L 341.8666666666667 279 L 366.40000000000003 278.4880112834979 L 390.93333333333334 276.28304654442877 L 415.4666666666667 247.16112834978844 L 440 274.09856135401975 L 464.53333333333336 279 L 489.0666666666667 269.2449083215797 L 513.6 245.39988716502114 L 538.1333333333334 240.96265162200282 L 562.6666666666667 258.0357686882934 L 587.2 158 L 611.7333333333333 220.6264598025388 L 636.2666666666667 158 L 660.8000000000001 229.43266572637518 L 685.3333333333334 231.51475317348377 L 709.8666666666667 266.4596897038082 L 734.4000000000001 269.31317348377996 L 758.9333333333334 248.13732016925246 L 783.4666666666667 158 L 808 273.85963328631874" fill="none" stroke="#ffb86c" stroke-width="2"/><path d="M 72 279 L 72 371.52660084626234 L 96.53333333333333 400 L 121.06666666666666 400 L 145.60000000000002 316.15672778561355 L 170.13333333333333 285.8743018335684 L 194.66666666666669 292.77590973201694 L 219.20000000000002 279.4095909732017 L 243.73333333333335 279 L 268.26666666666665 279.07509167842034 L 292.8 279 L 317.33333333333337 279.55977433004233 L 341.8666666666667 279 L 366.40000000000003 279.6075599435825 L 390.93333333333334 280.43356840620595 L 415.4666666666667 309.97190409026797 L 440 279.20479548660086 L 464.53333333333336 279 L 489.0666666666667 281.41658674189 L 513.6 282.5361354019746 L 538.1333333333334 285.61489421720734 L 562.6666666666667 279.75774330042316 L 587.2 317.52885754583923 L 611.7333333333333 285.1029055007052 L 636.2666666666667 297.3155430183357 L 660.8000000000001 286.70031029619184 L 685.3333333333334 279.4642031029619 L 709.8666666666667 280.1468547249647 L 734.4000000000001 279.58708039492245 L 758.9333333333334 280.94555712270807 L 783.4666666666667 335.4825952045134 L 808 279.0204795486601 L 808 279 Z" fill="#ff79c6" opacity="0.15"/><path d="M 72 279 L 72 371.52660084626234 L 96.53333333333333 400 L 121.06666666666666 400 L 145.60000000000002 316.15672778561355 L 170.13333333333333 285.8743018335684 L 194.66666666666669 292.77590973201694 L 219.20000000000002 279.4095909732017 L 243.73333333333335 279 L 268.26666666666665 279.07509167842034 L 292.8 279 L 317.33333333333337 279.55977433004233 L 341.8666666666667 279 L 366.40000000000003 279.6075599435825 L 390.93333333333334 280.43356840620595 L 415.4666666666667 309.97190409026797 L 440 279.20479548660086 L 464.53333333333336 279 L 489.0666666666667 281.41658674189 L 513.6 282.5361354019746 L 538.1333333333334 285.61489421720734 L 562.6666666666667 279.75774330042316 L 587.2 317.52885754583923 L 611.7333333333333 285.1029055007052 L 636.2666666666667 297.3155430183357 L 660.8000000000001 286.70031029619184 L 685.3333333333334 279.4642031029619 L 709.8666666666667 280.1468547249647 L 734.4000000000001 279.58708039492245 L 758.9333333333334 280.94555712270807 L 783.4666666666667 335.4825952045134 L 808 279.0204795486601" fill="none" stroke="#ff79c6" stroke-width="2"/><text x="72" y="426" fill="#7a5a8e" font-size="10" font-family="'Segoe UI', sans-serif" text-anchor="middle">May 31</text><text x="194.66666666666669" y="426" fill="#7a5a8e" font-size="10" font-family="'Segoe UI', sans-serif" text-anchor="middle">Jun 5</text><text x="317.33333333333337" y="426" fill="#7a5a8e" font-size="10" font-family="'Segoe UI', sans-serif" text-anchor="middle">Jun 10</text><text x="440" y="426" fill="#7a5a8e" font-size="10" font-family="'Segoe UI', sans-serif" text-anchor="middle">Jun 15</text><text x="562.6666666666667" y="426" fill="#7a5a8e" font-size="10" font-family="'Segoe UI', sans-serif" text-anchor="middle">Jun 20</text><text x="685.3333333333334" y="426" fill="#7a5a8e" font-size="10" font-family="'Segoe UI', sans-serif" text-anchor="middle">Jun 25</text><text x="808" y="426" fill="#7a5a8e" font-size="10" font-family="'Segoe UI', sans-serif" text-anchor="middle">Jun 30</text>
  </g>

  <g class="cpd-legend">
    
    <circle cx="30" cy="442" r="5" fill="#ffb86c"/>
    <text x="40" y="446" fill="#c4a0d8" font-size="11" font-family="'Segoe UI', sans-serif">Additions</text>
    <circle cx="124" cy="442" r="5" fill="#ff79c6"/>
    <text x="134" y="446" fill="#c4a0d8" font-size="11" font-family="'Segoe UI', sans-serif">Deletions</text>
    <text x="816" y="446" fill="#7a5a8e" font-size="10" font-family="'Segoe UI', sans-serif" text-anchor="end">Last 31 days · +402,898 / -123,869 lines</text>
  </g>

  <a href="https://github.com/mpge/code-per-day" target="_blank">
    <text x="420" y="452" fill="#7a5a8e" font-size="10" font-family="'Segoe UI', sans-serif" text-anchor="middle" opacity="0.6">Get your own - github.com/mpge/code-per-day</text>
  </a>
</svg>