<svg width="840" height="460" viewBox="0 0 840 460" xmlns="http://www.w3.org/2000/svg">
  
    <style>
      @keyframes fadeInUp {
        from { opacity: 0; transform: translateY(12px); }
        to   { opacity: 1; transform: translateY(0); }
      }
      @keyframes growBar {
        from { transform: scaleY(0); }
        to   { transform: scaleY(1); }
      }
      .cpd-header  { animation: fadeInUp 0.5s ease both; }
      .cpd-stats   { animation: fadeInUp 0.5s ease 0.15s both; }
      .cpd-chart   { animation: fadeInUp 0.5s ease 0.3s both; }
      .cpd-legend  { animation: fadeInUp 0.5s ease 0.45s both; }
    </style>

  <rect width="840" height="460" rx="12" fill="#1a1028" stroke="#3d2660" stroke-width="1"/>

  <g class="cpd-header">
    <a href="https://github.com/mpge/code-per-day" target="_blank">
      <text x="24" y="44" fill="#f0d0ff" font-size="18" font-family="'Segoe UI', sans-serif" font-weight="700">Code Per Day</text>
    </a>
    <text x="816" y="44" fill="#7a5a8e" font-size="13" font-family="'Segoe UI', sans-serif" text-anchor="end" font-weight="500">@mpge</text>
  </g>

  <g class="cpd-stats">
    
    <rect x="24" y="60" width="190" height="68" rx="8" fill="#160e22" stroke="#3d2660" stroke-width="1"/>
    <text x="119" y="78" fill="#7a5a8e" font-size="11" font-family="'Segoe UI', sans-serif" text-anchor="middle" font-weight="500">Today</text>
    <text x="119" y="100" fill="#ffb86c" font-size="16" font-family="'Segoe UI Mono', 'Cascadia Code', monospace" text-anchor="middle" font-weight="700">+6</text>
    <text x="119" y="118" fill="#ff79c6" font-size="14" font-family="'Segoe UI Mono', 'Cascadia Code', monospace" text-anchor="middle" font-weight="600">+0</text>
    <rect x="222" y="60" width="190" height="68" rx="8" fill="#160e22" stroke="#3d2660" stroke-width="1"/>
    <text x="317" y="78" fill="#7a5a8e" font-size="11" font-family="'Segoe UI', sans-serif" text-anchor="middle" font-weight="500">30d Avg</text>
    <text x="317" y="100" fill="#ffb86c" font-size="16" font-family="'Segoe UI Mono', 'Cascadia Code', monospace" text-anchor="middle" font-weight="700">+8,178</text>
    <text x="317" y="118" fill="#ff79c6" font-size="14" font-family="'Segoe UI Mono', 'Cascadia Code', monospace" text-anchor="middle" font-weight="600">-823</text>
    <rect x="420" y="60" width="190" height="68" rx="8" fill="#160e22" stroke="#3d2660" stroke-width="1"/>
    <text x="515" y="78" fill="#7a5a8e" font-size="11" font-family="'Segoe UI', sans-serif" text-anchor="middle" font-weight="500">Year Avg</text>
    <text x="515" y="100" fill="#ffb86c" font-size="16" font-family="'Segoe UI Mono', 'Cascadia Code', monospace" text-anchor="middle" font-weight="700">+25,989</text>
    <text x="515" y="118" fill="#ff79c6" font-size="14" font-family="'Segoe UI Mono', 'Cascadia Code', monospace" text-anchor="middle" font-weight="600">-7,073</text>
    <rect x="618" y="60" width="190" height="68" rx="8" fill="#160e22" stroke="#3d2660" stroke-width="1"/>
    <text x="713" y="78" fill="#7a5a8e" font-size="11" font-family="'Segoe UI', sans-serif" text-anchor="middle" font-weight="500">Streak</text>
    <text x="713" y="104" fill="#ff79c6" font-size="20" font-family="'Segoe UI Mono', 'Cascadia Code', monospace" text-anchor="middle" font-weight="700">229</text>
    <text x="713" y="120" fill="#7a5a8e" font-size="11" font-family="'Segoe UI', sans-serif" text-anchor="middle">days</text>
  </g>

  <g class="cpd-chart">
    <line x1="72" y1="148" x2="808" y2="148" stroke="#2d1c44" stroke-width="1" stroke-dasharray="4,4"/><line x1="72" y1="213.5" x2="808" y2="213.5" stroke="#2d1c44" stroke-width="1" stroke-dasharray="4,4"/><line x1="72" y1="279" x2="808" y2="279" stroke="#2d1c44" stroke-width="1" stroke-dasharray="4,4"/><line x1="72" y1="344.5" x2="808" y2="344.5" stroke="#2d1c44" stroke-width="1" stroke-dasharray="4,4"/><line x1="72" y1="410" x2="808" y2="410" stroke="#2d1c44" stroke-width="1" stroke-dasharray="4,4"/><line x1="72" y1="279" x2="808" y2="279" stroke="#3d2660" stroke-width="1.5"/><text x="64" y="162" fill="#7a5a8e" font-size="10" font-family="'Segoe UI', sans-serif" text-anchor="end">+11,287</text><text x="64" y="406" fill="#7a5a8e" font-size="10" font-family="'Segoe UI', sans-serif" text-anchor="end">-11,287</text><text x="64" y="283" fill="#7a5a8e" font-size="10" font-family="'Segoe UI', sans-serif" text-anchor="end">0</text><path d="M 72 279 L 72 229.0005315850093 L 96.53333333333333 271.30282626029947 L 121.06666666666666 279 L 145.60000000000002 268.0116948702047 L 170.13333333333333 226.23469478160717 L 194.66666666666669 219.26650128466378 L 219.20000000000002 246.0779658013644 L 243.73333333333335 158 L 268.26666666666665 187.33073447328786 L 292.8 158 L 317.33333333333337 201.15991849029857 L 341.8666666666667 204.42960928501816 L 366.40000000000003 259.3068131478692 L 390.93333333333334 263.7986178789758 L 415.4666666666667 279 L 440 158 L 464.53333333333336 244.88801275804022 L 489.0666666666667 251.87764685035881 L 513.6 275.4623017630903 L 538.1333333333334 279 L 562.6666666666667 279 L 587.2 271.5922742978648 L 611.7333333333333 279 L 636.2666666666667 264.68840258704705 L 660.8000000000001 273.37184371400724 L 685.3333333333334 279 L 709.8666666666667 279 L 734.4000000000001 263.1661203154071 L 758.9333333333334 277.52059891911045 L 783.4666666666667 279 L 808 278.9356782138744 L 808 279 Z" fill="#ffb86c" opacity="0.15"/><path d="M 72 279 L 72 229.0005315850093 L 96.53333333333333 271.30282626029947 L 121.06666666666666 279 L 145.60000000000002 268.0116948702047 L 170.13333333333333 226.23469478160717 L 194.66666666666669 219.26650128466378 L 219.20000000000002 246.0779658013644 L 243.73333333333335 158 L 268.26666666666665 187.33073447328786 L 292.8 158 L 317.33333333333337 201.15991849029857 L 341.8666666666667 204.42960928501816 L 366.40000000000003 259.3068131478692 L 390.93333333333334 263.7986178789758 L 415.4666666666667 279 L 440 158 L 464.53333333333336 244.88801275804022 L 489.0666666666667 251.87764685035881 L 513.6 275.4623017630903 L 538.1333333333334 279 L 562.6666666666667 279 L 587.2 271.5922742978648 L 611.7333333333333 279 L 636.2666666666667 264.68840258704705 L 660.8000000000001 273.37184371400724 L 685.3333333333334 279 L 709.8666666666667 279 L 734.4000000000001 263.1661203154071 L 758.9333333333334 277.52059891911045 L 783.4666666666667 279 L 808 278.9356782138744" fill="none" stroke="#ffb86c" stroke-width="2"/><path d="M 72 279 L 72 327.63799060866484 L 96.53333333333333 279.32160893062814 L 121.06666666666666 279 L 145.60000000000002 281.66935412421367 L 170.13333333333333 284.5531142021795 L 194.66666666666669 289.3879684592894 L 219.20000000000002 280.1899530433242 L 243.73333333333335 339.5053601488438 L 268.26666666666665 283.9098963409232 L 292.8 281.090458049083 L 317.33333333333337 291.09249579161866 L 341.8666666666667 279.72898024275713 L 366.40000000000003 280.8010100115177 L 390.93333333333334 279.87906441038365 L 415.4666666666667 279 L 440 367.6997430672455 L 464.53333333333336 286.0753964738194 L 489.0666666666667 286.4077257021352 L 513.6 279 L 538.1333333333334 279 L 562.6666666666667 279 L 587.2 280.54372286701516 L 611.7333333333333 279 L 636.2666666666667 279.407371312129 L 660.8000000000001 284.47807211836624 L 685.3333333333334 279 L 709.8666666666667 279 L 734.4000000000001 289.83822096216886 L 758.9333333333334 279.28944803756536 L 783.4666666666667 279 L 808 279 L 808 279 Z" fill="#ff79c6" opacity="0.15"/><path d="M 72 279 L 72 327.63799060866484 L 96.53333333333333 279.32160893062814 L 121.06666666666666 279 L 145.60000000000002 281.66935412421367 L 170.13333333333333 284.5531142021795 L 194.66666666666669 289.3879684592894 L 219.20000000000002 280.1899530433242 L 243.73333333333335 339.5053601488438 L 268.26666666666665 283.9098963409232 L 292.8 281.090458049083 L 317.33333333333337 291.09249579161866 L 341.8666666666667 279.72898024275713 L 366.40000000000003 280.8010100115177 L 390.93333333333334 279.87906441038365 L 415.4666666666667 279 L 440 367.6997430672455 L 464.53333333333336 286.0753964738194 L 489.0666666666667 286.4077257021352 L 513.6 279 L 538.1333333333334 279 L 562.6666666666667 279 L 587.2 280.54372286701516 L 611.7333333333333 279 L 636.2666666666667 279.407371312129 L 660.8000000000001 284.47807211836624 L 685.3333333333334 279 L 709.8666666666667 279 L 734.4000000000001 289.83822096216886 L 758.9333333333334 279.28944803756536 L 783.4666666666667 279 L 808 279" fill="none" stroke="#ff79c6" stroke-width="2"/><text x="72" y="426" fill="#7a5a8e" font-size="10" font-family="'Segoe UI', sans-serif" text-anchor="middle">Jun 14</text><text x="194.66666666666669" y="426" fill="#7a5a8e" font-size="10" font-family="'Segoe UI', sans-serif" text-anchor="middle">Jun 19</text><text x="317.33333333333337" y="426" fill="#7a5a8e" font-size="10" font-family="'Segoe UI', sans-serif" text-anchor="middle">Jun 24</text><text x="440" y="426" fill="#7a5a8e" font-size="10" font-family="'Segoe UI', sans-serif" text-anchor="middle">Jun 29</text><text x="562.6666666666667" y="426" fill="#7a5a8e" font-size="10" font-family="'Segoe UI', sans-serif" text-anchor="middle">Jul 4</text><text x="685.3333333333334" y="426" fill="#7a5a8e" font-size="10" font-family="'Segoe UI', sans-serif" text-anchor="middle">Jul 9</text><text x="808" y="426" fill="#7a5a8e" font-size="10" font-family="'Segoe UI', sans-serif" text-anchor="middle">Jul 14</text>
  </g>

  <g class="cpd-legend">
    
    <circle cx="30" cy="442" r="5" fill="#ffb86c"/>
    <text x="40" y="446" fill="#c4a0d8" font-size="11" font-family="'Segoe UI', sans-serif">Additions</text>
    <circle cx="124" cy="442" r="5" fill="#ff79c6"/>
    <text x="134" y="446" fill="#c4a0d8" font-size="11" font-family="'Segoe UI', sans-serif">Deletions</text>
    <text x="816" y="446" fill="#7a5a8e" font-size="10" font-family="'Segoe UI', sans-serif" text-anchor="end">Last 31 days · +253,524 / -25,513 lines</text>
  </g>

  <a href="https://github.com/mpge/code-per-day" target="_blank">
    <text x="420" y="452" fill="#7a5a8e" font-size="10" font-family="'Segoe UI', sans-serif" text-anchor="middle" opacity="0.6">Get your own - github.com/mpge/code-per-day</text>
  </a>
</svg>