<svg width="840" height="460" viewBox="0 0 840 460" xmlns="http://www.w3.org/2000/svg">
  
    <style>
      @keyframes fadeInUp {
        from { opacity: 0; transform: translateY(12px); }
        to   { opacity: 1; transform: translateY(0); }
      }
      @keyframes growBar {
        from { transform: scaleY(0); }
        to   { transform: scaleY(1); }
      }
      .cpd-header  { animation: fadeInUp 0.5s ease both; }
      .cpd-stats   { animation: fadeInUp 0.5s ease 0.15s both; }
      .cpd-chart   { animation: fadeInUp 0.5s ease 0.3s both; }
      .cpd-legend  { animation: fadeInUp 0.5s ease 0.45s both; }
    </style>

  <rect width="840" height="460" rx="12" fill="#1a1b26" stroke="#414868" stroke-width="1"/>

  <g class="cpd-header">
    <a href="https://github.com/mpge/code-per-day" target="_blank">
      <text x="24" y="44" fill="#c0caf5" font-size="18" font-family="'Segoe UI', sans-serif" font-weight="700">Code Per Day</text>
    </a>
    <text x="816" y="44" fill="#565f89" font-size="13" font-family="'Segoe UI', sans-serif" text-anchor="end" font-weight="500">@mpge</text>
  </g>

  <g class="cpd-stats">
    
    <rect x="24" y="60" width="190" height="68" rx="8" fill="#16161e" stroke="#414868" stroke-width="1"/>
    <text x="119" y="78" fill="#565f89" font-size="11" font-family="'Segoe UI', sans-serif" text-anchor="middle" font-weight="500">Today</text>
    <text x="119" y="100" fill="#9ece6a" font-size="16" font-family="'Segoe UI Mono', 'Cascadia Code', monospace" text-anchor="middle" font-weight="700">+0</text>
    <text x="119" y="118" fill="#f7768e" font-size="14" font-family="'Segoe UI Mono', 'Cascadia Code', monospace" text-anchor="middle" font-weight="600">+0</text>
    <rect x="222" y="60" width="190" height="68" rx="8" fill="#16161e" stroke="#414868" stroke-width="1"/>
    <text x="317" y="78" fill="#565f89" font-size="11" font-family="'Segoe UI', sans-serif" text-anchor="middle" font-weight="500">30d Avg</text>
    <text x="317" y="100" fill="#9ece6a" font-size="16" font-family="'Segoe UI Mono', 'Cascadia Code', monospace" text-anchor="middle" font-weight="700">+37,025</text>
    <text x="317" y="118" fill="#f7768e" font-size="14" font-family="'Segoe UI Mono', 'Cascadia Code', monospace" text-anchor="middle" font-weight="600">-5,528</text>
    <rect x="420" y="60" width="190" height="68" rx="8" fill="#16161e" stroke="#414868" stroke-width="1"/>
    <text x="515" y="78" fill="#565f89" font-size="11" font-family="'Segoe UI', sans-serif" text-anchor="middle" font-weight="500">Year Avg</text>
    <text x="515" y="100" fill="#9ece6a" font-size="16" font-family="'Segoe UI Mono', 'Cascadia Code', monospace" text-anchor="middle" font-weight="700">+25,232</text>
    <text x="515" y="118" fill="#f7768e" font-size="14" font-family="'Segoe UI Mono', 'Cascadia Code', monospace" text-anchor="middle" font-weight="600">-6,855</text>
    <rect x="618" y="60" width="190" height="68" rx="8" fill="#16161e" stroke="#414868" stroke-width="1"/>
    <text x="713" y="78" fill="#565f89" font-size="11" font-family="'Segoe UI', sans-serif" text-anchor="middle" font-weight="500">Streak</text>
    <text x="713" y="104" fill="#7aa2f7" font-size="20" font-family="'Segoe UI Mono', 'Cascadia Code', monospace" text-anchor="middle" font-weight="700">185</text>
    <text x="713" y="120" fill="#565f89" font-size="11" font-family="'Segoe UI', sans-serif" text-anchor="middle">days</text>
  </g>

  <g class="cpd-chart">
    <line x1="72" y1="148" x2="808" y2="148" stroke="#292e42" stroke-width="1" stroke-dasharray="4,4"/><line x1="72" y1="213.5" x2="808" y2="213.5" stroke="#292e42" stroke-width="1" stroke-dasharray="4,4"/><line x1="72" y1="279" x2="808" y2="279" stroke="#292e42" stroke-width="1" stroke-dasharray="4,4"/><line x1="72" y1="344.5" x2="808" y2="344.5" stroke="#292e42" stroke-width="1" stroke-dasharray="4,4"/><line x1="72" y1="410" x2="808" y2="410" stroke="#292e42" stroke-width="1" stroke-dasharray="4,4"/><line x1="72" y1="279" x2="808" y2="279" stroke="#414868" stroke-width="1.5"/><text x="64" y="162" fill="#565f89" font-size="10" font-family="'Segoe UI', sans-serif" text-anchor="end">+31,039</text><text x="64" y="406" fill="#565f89" font-size="10" font-family="'Segoe UI', sans-serif" text-anchor="end">-31,039</text><text x="64" y="283" fill="#565f89" font-size="10" font-family="'Segoe UI', sans-serif" text-anchor="end">0</text><path d="M 72 279 L 72 158 L 96.53333333333333 255.18125583942782 L 121.06666666666666 265.8665549792197 L 145.60000000000002 191.3852250394665 L 170.13333333333333 247.44308772834177 L 194.66666666666669 207.1149521569638 L 219.20000000000002 158 L 243.73333333333335 273.92048712909565 L 268.26666666666665 232.3877702245562 L 292.8 220.22110892747833 L 317.33333333333337 265.67163890589256 L 341.8666666666667 245.03392506201874 L 366.40000000000003 263.1728148458391 L 390.93333333333334 260.2139888527337 L 415.4666666666667 277.1599922677921 L 440 158 L 464.53333333333336 158 L 489.0666666666667 158 L 513.6 193.0654015915461 L 538.1333333333334 276.69219369180706 L 562.6666666666667 260.55704114178934 L 587.2 229.47182576758271 L 611.7333333333333 227.41741035471503 L 636.2666666666667 260.5882277135217 L 660.8000000000001 262.5334901253262 L 685.3333333333334 265.5157060472309 L 709.8666666666667 197.31847031154354 L 734.4000000000001 233.57675827185153 L 758.9333333333334 244.87409388189053 L 783.4666666666667 158 L 808 279 L 808 279 Z" fill="#9ece6a" opacity="0.15"/><path d="M 72 279 L 72 158 L 96.53333333333333 255.18125583942782 L 121.06666666666666 265.8665549792197 L 145.60000000000002 191.3852250394665 L 170.13333333333333 247.44308772834177 L 194.66666666666669 207.1149521569638 L 219.20000000000002 158 L 243.73333333333335 273.92048712909565 L 268.26666666666665 232.3877702245562 L 292.8 220.22110892747833 L 317.33333333333337 265.67163890589256 L 341.8666666666667 245.03392506201874 L 366.40000000000003 263.1728148458391 L 390.93333333333334 260.2139888527337 L 415.4666666666667 277.1599922677921 L 440 158 L 464.53333333333336 158 L 489.0666666666667 158 L 513.6 193.0654015915461 L 538.1333333333334 276.69219369180706 L 562.6666666666667 260.55704114178934 L 587.2 229.47182576758271 L 611.7333333333333 227.41741035471503 L 636.2666666666667 260.5882277135217 L 660.8000000000001 262.5334901253262 L 685.3333333333334 265.5157060472309 L 709.8666666666667 197.31847031154354 L 734.4000000000001 233.57675827185153 L 758.9333333333334 244.87409388189053 L 783.4666666666667 158 L 808 279" fill="none" stroke="#9ece6a" stroke-width="2"/><path d="M 72 279 L 72 310.8064048455169 L 96.53333333333333 290.11021617964496 L 121.06666666666666 283.97035986984116 L 145.60000000000002 286.2040980701698 L 170.13333333333333 282.0367924224363 L 194.66666666666669 297.10380489062146 L 219.20000000000002 400 L 243.73333333333335 281.0115338767357 L 268.26666666666665 283.2335771126647 L 292.8 289.78275717645545 L 317.33333333333337 279.37423886078807 L 341.8666666666667 291.9580205547859 L 366.40000000000003 282.76577853667965 L 390.93333333333334 281.0661103772673 L 415.4666666666667 279.3781371822546 L 440 284.0834111923709 L 464.53333333333336 289.30326363607077 L 489.0666666666667 400 L 513.6 312.95827829504816 L 538.1333333333334 280.5281420148845 L 562.6666666666667 293.1976867811463 L 587.2 300.21076709945555 L 611.7333333333333 294.3671832211089 L 636.2666666666667 282.33306485389346 L 660.8000000000001 284.3056155159638 L 685.3333333333334 285.48680692032605 L 709.8666666666667 296.9868552466252 L 734.4000000000001 299.2985598762847 L 758.9333333333334 281.7872998485776 L 783.4666666666667 331.8378491575115 L 808 279 L 808 279 Z" fill="#f7768e" opacity="0.15"/><path d="M 72 279 L 72 310.8064048455169 L 96.53333333333333 290.11021617964496 L 121.06666666666666 283.97035986984116 L 145.60000000000002 286.2040980701698 L 170.13333333333333 282.0367924224363 L 194.66666666666669 297.10380489062146 L 219.20000000000002 400 L 243.73333333333335 281.0115338767357 L 268.26666666666665 283.2335771126647 L 292.8 289.78275717645545 L 317.33333333333337 279.37423886078807 L 341.8666666666667 291.9580205547859 L 366.40000000000003 282.76577853667965 L 390.93333333333334 281.0661103772673 L 415.4666666666667 279.3781371822546 L 440 284.0834111923709 L 464.53333333333336 289.30326363607077 L 489.0666666666667 400 L 513.6 312.95827829504816 L 538.1333333333334 280.5281420148845 L 562.6666666666667 293.1976867811463 L 587.2 300.21076709945555 L 611.7333333333333 294.3671832211089 L 636.2666666666667 282.33306485389346 L 660.8000000000001 284.3056155159638 L 685.3333333333334 285.48680692032605 L 709.8666666666667 296.9868552466252 L 734.4000000000001 299.2985598762847 L 758.9333333333334 281.7872998485776 L 783.4666666666667 331.8378491575115 L 808 279" fill="none" stroke="#f7768e" stroke-width="2"/><text x="72" y="426" fill="#565f89" font-size="10" font-family="'Segoe UI', sans-serif" text-anchor="middle">May 2</text><text x="194.66666666666669" y="426" fill="#565f89" font-size="10" font-family="'Segoe UI', sans-serif" text-anchor="middle">May 7</text><text x="317.33333333333337" y="426" fill="#565f89" font-size="10" font-family="'Segoe UI', sans-serif" text-anchor="middle">May 12</text><text x="440" y="426" fill="#565f89" font-size="10" font-family="'Segoe UI', sans-serif" text-anchor="middle">May 17</text><text x="562.6666666666667" y="426" fill="#565f89" font-size="10" font-family="'Segoe UI', sans-serif" text-anchor="middle">May 22</text><text x="685.3333333333334" y="426" fill="#565f89" font-size="10" font-family="'Segoe UI', sans-serif" text-anchor="middle">May 27</text><text x="808" y="426" fill="#565f89" font-size="10" font-family="'Segoe UI', sans-serif" text-anchor="middle">Jun 1</text>
  </g>

  <g class="cpd-legend">
    
    <circle cx="30" cy="442" r="5" fill="#9ece6a"/>
    <text x="40" y="446" fill="#a9b1d6" font-size="11" font-family="'Segoe UI', sans-serif">Additions</text>
    <circle cx="124" cy="442" r="5" fill="#f7768e"/>
    <text x="134" y="446" fill="#a9b1d6" font-size="11" font-family="'Segoe UI', sans-serif">Deletions</text>
    <text x="816" y="446" fill="#565f89" font-size="10" font-family="'Segoe UI', sans-serif" text-anchor="end">Last 31 days · +1,147,781 / -171,378 lines</text>
  </g>

  <a href="https://github.com/mpge/code-per-day" target="_blank">
    <text x="420" y="452" fill="#565f89" font-size="10" font-family="'Segoe UI', sans-serif" text-anchor="middle" opacity="0.6">Get your own - github.com/mpge/code-per-day</text>
  </a>
</svg>