<svg width="840" height="460" viewBox="0 0 840 460" xmlns="http://www.w3.org/2000/svg">
  
    <style>
      @keyframes fadeInUp {
        from { opacity: 0; transform: translateY(12px); }
        to   { opacity: 1; transform: translateY(0); }
      }
      @keyframes growBar {
        from { transform: scaleY(0); }
        to   { transform: scaleY(1); }
      }
      .cpd-header  { animation: fadeInUp 0.5s ease both; }
      .cpd-stats   { animation: fadeInUp 0.5s ease 0.15s both; }
      .cpd-chart   { animation: fadeInUp 0.5s ease 0.3s both; }
      .cpd-legend  { animation: fadeInUp 0.5s ease 0.45s both; }
    </style>

  <rect width="840" height="460" rx="12" fill="#0b1a0b" stroke="#1e3a1e" stroke-width="1"/>

  <g class="cpd-header">
    <a href="https://github.com/mpge/code-per-day" target="_blank">
      <text x="24" y="44" fill="#c8e6c8" font-size="18" font-family="'Segoe UI', sans-serif" font-weight="700">Code Per Day</text>
    </a>
    <text x="816" y="44" fill="#5a7a5a" font-size="13" font-family="'Segoe UI', sans-serif" text-anchor="end" font-weight="500">@mpge</text>
  </g>

  <g class="cpd-stats">
    
    <rect x="24" y="60" width="190" height="68" rx="8" fill="#091409" stroke="#1e3a1e" stroke-width="1"/>
    <text x="119" y="78" fill="#5a7a5a" font-size="11" font-family="'Segoe UI', sans-serif" text-anchor="middle" font-weight="500">Today</text>
    <text x="119" y="100" fill="#66ff66" font-size="16" font-family="'Segoe UI Mono', 'Cascadia Code', monospace" text-anchor="middle" font-weight="700">+40,629</text>
    <text x="119" y="118" fill="#ff8a65" font-size="14" font-family="'Segoe UI Mono', 'Cascadia Code', monospace" text-anchor="middle" font-weight="600">-13,540</text>
    <rect x="222" y="60" width="190" height="68" rx="8" fill="#091409" stroke="#1e3a1e" stroke-width="1"/>
    <text x="317" y="78" fill="#5a7a5a" font-size="11" font-family="'Segoe UI', sans-serif" text-anchor="middle" font-weight="500">30d Avg</text>
    <text x="317" y="100" fill="#66ff66" font-size="16" font-family="'Segoe UI Mono', 'Cascadia Code', monospace" text-anchor="middle" font-weight="700">+37,269</text>
    <text x="317" y="118" fill="#ff8a65" font-size="14" font-family="'Segoe UI Mono', 'Cascadia Code', monospace" text-anchor="middle" font-weight="600">-5,580</text>
    <rect x="420" y="60" width="190" height="68" rx="8" fill="#091409" stroke="#1e3a1e" stroke-width="1"/>
    <text x="515" y="78" fill="#5a7a5a" font-size="11" font-family="'Segoe UI', sans-serif" text-anchor="middle" font-weight="500">Year Avg</text>
    <text x="515" y="100" fill="#66ff66" font-size="16" font-family="'Segoe UI Mono', 'Cascadia Code', monospace" text-anchor="middle" font-weight="700">+25,229</text>
    <text x="515" y="118" fill="#ff8a65" font-size="14" font-family="'Segoe UI Mono', 'Cascadia Code', monospace" text-anchor="middle" font-weight="600">-6,855</text>
    <rect x="618" y="60" width="190" height="68" rx="8" fill="#091409" stroke="#1e3a1e" stroke-width="1"/>
    <text x="713" y="78" fill="#5a7a5a" font-size="11" font-family="'Segoe UI', sans-serif" text-anchor="middle" font-weight="500">Streak</text>
    <text x="713" y="104" fill="#66ff66" font-size="20" font-family="'Segoe UI Mono', 'Cascadia Code', monospace" text-anchor="middle" font-weight="700">185</text>
    <text x="713" y="120" fill="#5a7a5a" font-size="11" font-family="'Segoe UI', sans-serif" text-anchor="middle">days</text>
  </g>

  <g class="cpd-chart">
    <line x1="72" y1="148" x2="808" y2="148" stroke="#1a2e1a" stroke-width="1" stroke-dasharray="4,4"/><line x1="72" y1="213.5" x2="808" y2="213.5" stroke="#1a2e1a" stroke-width="1" stroke-dasharray="4,4"/><line x1="72" y1="279" x2="808" y2="279" stroke="#1a2e1a" stroke-width="1" stroke-dasharray="4,4"/><line x1="72" y1="344.5" x2="808" y2="344.5" stroke="#1a2e1a" stroke-width="1" stroke-dasharray="4,4"/><line x1="72" y1="410" x2="808" y2="410" stroke="#1a2e1a" stroke-width="1" stroke-dasharray="4,4"/><line x1="72" y1="279" x2="808" y2="279" stroke="#1e3a1e" stroke-width="1.5"/><text x="64" y="162" fill="#5a7a5a" font-size="10" font-family="'Segoe UI', sans-serif" text-anchor="end">+29,721</text><text x="64" y="406" fill="#5a7a5a" font-size="10" font-family="'Segoe UI', sans-serif" text-anchor="end">-29,721</text><text x="64" y="283" fill="#5a7a5a" font-size="10" font-family="'Segoe UI', sans-serif" text-anchor="end">0</text><path d="M 72 279 L 72 243.8940816257865 L 96.53333333333333 158 L 121.06666666666666 254.1249957942196 L 145.60000000000002 265.284142525487 L 170.13333333333333 187.49988223814813 L 194.66666666666669 246.04367282392923 L 219.20000000000002 203.92715588304566 L 243.73333333333335 158 L 268.26666666666665 273.69523232731063 L 292.8 230.3207159920595 L 317.33333333333337 217.61451498940144 L 341.8666666666667 265.08058275293564 L 366.40000000000003 243.52767403519397 L 390.93333333333334 262.47094646882675 L 415.4666666666667 259.3809091214966 L 440 277.0783957471148 L 464.53333333333336 158 L 489.0666666666667 158 L 513.6 158 L 538.1333333333334 189.25456747754112 L 562.6666666666667 276.5898522929915 L 587.2 259.739174321187 L 611.7333333333333 227.2754617946906 L 636.2666666666667 225.12994179199893 L 660.8000000000001 259.7717438847953 L 685.3333333333334 261.80327041485816 L 709.8666666666667 264.9177349348945 L 734.4000000000001 193.69624171461257 L 758.9333333333334 231.562430604623 L 783.4666666666667 243.36075502170183 L 808 158 L 808 279 Z" fill="#66ff66" opacity="0.15"/><path d="M 72 279 L 72 243.8940816257865 L 96.53333333333333 158 L 121.06666666666666 254.1249957942196 L 145.60000000000002 265.284142525487 L 170.13333333333333 187.49988223814813 L 194.66666666666669 246.04367282392923 L 219.20000000000002 203.92715588304566 L 243.73333333333335 158 L 268.26666666666665 273.69523232731063 L 292.8 230.3207159920595 L 317.33333333333337 217.61451498940144 L 341.8666666666667 265.08058275293564 L 366.40000000000003 243.52767403519397 L 390.93333333333334 262.47094646882675 L 415.4666666666667 259.3809091214966 L 440 277.0783957471148 L 464.53333333333336 158 L 489.0666666666667 158 L 513.6 158 L 538.1333333333334 189.25456747754112 L 562.6666666666667 276.5898522929915 L 587.2 259.739174321187 L 611.7333333333333 227.2754617946906 L 636.2666666666667 225.12994179199893 L 660.8000000000001 259.7717438847953 L 685.3333333333334 261.80327041485816 L 709.8666666666667 264.9177349348945 L 734.4000000000001 193.69624171461257 L 758.9333333333334 231.562430604623 L 783.4666666666667 243.36075502170183 L 808 158" fill="none" stroke="#66ff66" stroke-width="2"/><path d="M 72 279 L 72 285.5261263079977 L 96.53333333333333 312.2168836849366 L 121.06666666666666 290.6029070354295 L 145.60000000000002 284.19077420006056 L 170.13333333333333 286.52356919349955 L 194.66666666666669 282.1714612563507 L 219.20000000000002 297.90663167457353 L 243.73333333333335 400 L 268.26666666666665 281.1007368527304 L 292.8 283.4213182598163 L 317.33333333333337 290.26092661754313 L 341.8666666666667 279.3908347632987 L 366.40000000000003 292.5326536792167 L 390.93333333333334 282.93277480569293 L 415.4666666666667 281.15773358904477 L 440 279.3949059587497 L 464.53333333333336 284.30883886814036 L 489.0666666666667 289.76016957706673 L 513.6 400 L 538.1333333333334 314.464183573904 L 562.6666666666667 280.59590861680294 L 587.2 293.8272938326436 L 611.7333333333333 301.15137444904275 L 636.2666666666667 295.04865246795197 L 660.8000000000001 282.48087211062887 L 685.3333333333334 284.54089700884896 L 709.8666666666667 285.7744692305104 L 734.4000000000001 297.7844958110427 L 758.9333333333334 300.1987147135022 L 783.4666666666667 281.91090474748495 L 808 334.12398640691765 L 808 279 Z" fill="#ff8a65" opacity="0.15"/><path d="M 72 279 L 72 285.5261263079977 L 96.53333333333333 312.2168836849366 L 121.06666666666666 290.6029070354295 L 145.60000000000002 284.19077420006056 L 170.13333333333333 286.52356919349955 L 194.66666666666669 282.1714612563507 L 219.20000000000002 297.90663167457353 L 243.73333333333335 400 L 268.26666666666665 281.1007368527304 L 292.8 283.4213182598163 L 317.33333333333337 290.26092661754313 L 341.8666666666667 279.3908347632987 L 366.40000000000003 292.5326536792167 L 390.93333333333334 282.93277480569293 L 415.4666666666667 281.15773358904477 L 440 279.3949059587497 L 464.53333333333336 284.30883886814036 L 489.0666666666667 289.76016957706673 L 513.6 400 L 538.1333333333334 314.464183573904 L 562.6666666666667 280.59590861680294 L 587.2 293.8272938326436 L 611.7333333333333 301.15137444904275 L 636.2666666666667 295.04865246795197 L 660.8000000000001 282.48087211062887 L 685.3333333333334 284.54089700884896 L 709.8666666666667 285.7744692305104 L 734.4000000000001 297.7844958110427 L 758.9333333333334 300.1987147135022 L 783.4666666666667 281.91090474748495 L 808 334.12398640691765" fill="none" stroke="#ff8a65" stroke-width="2"/><text x="72" y="426" fill="#5a7a5a" font-size="10" font-family="'Segoe UI', sans-serif" text-anchor="middle">May 1</text><text x="194.66666666666669" y="426" fill="#5a7a5a" font-size="10" font-family="'Segoe UI', sans-serif" text-anchor="middle">May 6</text><text x="317.33333333333337" y="426" fill="#5a7a5a" font-size="10" font-family="'Segoe UI', sans-serif" text-anchor="middle">May 11</text><text x="440" y="426" fill="#5a7a5a" font-size="10" font-family="'Segoe UI', sans-serif" text-anchor="middle">May 16</text><text x="562.6666666666667" y="426" fill="#5a7a5a" font-size="10" font-family="'Segoe UI', sans-serif" text-anchor="middle">May 21</text><text x="685.3333333333334" y="426" fill="#5a7a5a" font-size="10" font-family="'Segoe UI', sans-serif" text-anchor="middle">May 26</text><text x="808" y="426" fill="#5a7a5a" font-size="10" font-family="'Segoe UI', sans-serif" text-anchor="middle">May 31</text>
  </g>

  <g class="cpd-legend">
    
    <circle cx="30" cy="442" r="5" fill="#66ff66"/>
    <text x="40" y="446" fill="#8ab88a" font-size="11" font-family="'Segoe UI', sans-serif">Additions</text>
    <circle cx="124" cy="442" r="5" fill="#ff8a65"/>
    <text x="134" y="446" fill="#8ab88a" font-size="11" font-family="'Segoe UI', sans-serif">Deletions</text>
    <text x="816" y="446" fill="#5a7a5a" font-size="10" font-family="'Segoe UI', sans-serif" text-anchor="end">Last 31 days · +1,155,331 / -172,967 lines</text>
  </g>

  <a href="https://github.com/mpge/code-per-day" target="_blank">
    <text x="420" y="452" fill="#5a7a5a" font-size="10" font-family="'Segoe UI', sans-serif" text-anchor="middle" opacity="0.6">Get your own - github.com/mpge/code-per-day</text>
  </a>
</svg>