<svg width="840" height="460" viewBox="0 0 840 460" xmlns="http://www.w3.org/2000/svg">
  
    <style>
      @keyframes fadeInUp {
        from { opacity: 0; transform: translateY(12px); }
        to   { opacity: 1; transform: translateY(0); }
      }
      @keyframes growBar {
        from { transform: scaleY(0); }
        to   { transform: scaleY(1); }
      }
      .cpd-header  { animation: fadeInUp 0.5s ease both; }
      .cpd-stats   { animation: fadeInUp 0.5s ease 0.15s both; }
      .cpd-chart   { animation: fadeInUp 0.5s ease 0.3s both; }
      .cpd-legend  { animation: fadeInUp 0.5s ease 0.45s both; }
    </style>

  <rect width="840" height="460" rx="12" fill="#0b1a0b" stroke="#1e3a1e" stroke-width="1"/>

  <g class="cpd-header">
    <a href="https://github.com/mpge/code-per-day" target="_blank">
      <text x="24" y="44" fill="#c8e6c8" font-size="18" font-family="'Segoe UI', sans-serif" font-weight="700">Code Per Day</text>
    </a>
    <text x="816" y="44" fill="#5a7a5a" font-size="13" font-family="'Segoe UI', sans-serif" text-anchor="end" font-weight="500">@mpge</text>
  </g>

  <g class="cpd-stats">
    
    <rect x="24" y="60" width="190" height="68" rx="8" fill="#091409" stroke="#1e3a1e" stroke-width="1"/>
    <text x="119" y="78" fill="#5a7a5a" font-size="11" font-family="'Segoe UI', sans-serif" text-anchor="middle" font-weight="500">Today</text>
    <text x="119" y="100" fill="#66ff66" font-size="16" font-family="'Segoe UI Mono', 'Cascadia Code', monospace" text-anchor="middle" font-weight="700">+0</text>
    <text x="119" y="118" fill="#ff8a65" font-size="14" font-family="'Segoe UI Mono', 'Cascadia Code', monospace" text-anchor="middle" font-weight="600">+0</text>
    <rect x="222" y="60" width="190" height="68" rx="8" fill="#091409" stroke="#1e3a1e" stroke-width="1"/>
    <text x="317" y="78" fill="#5a7a5a" font-size="11" font-family="'Segoe UI', sans-serif" text-anchor="middle" font-weight="500">30d Avg</text>
    <text x="317" y="100" fill="#66ff66" font-size="16" font-family="'Segoe UI Mono', 'Cascadia Code', monospace" text-anchor="middle" font-weight="700">+8,797</text>
    <text x="317" y="118" fill="#ff8a65" font-size="14" font-family="'Segoe UI Mono', 'Cascadia Code', monospace" text-anchor="middle" font-weight="600">-4,519</text>
    <rect x="420" y="60" width="190" height="68" rx="8" fill="#091409" stroke="#1e3a1e" stroke-width="1"/>
    <text x="515" y="78" fill="#5a7a5a" font-size="11" font-family="'Segoe UI', sans-serif" text-anchor="middle" font-weight="500">Year Avg</text>
    <text x="515" y="100" fill="#66ff66" font-size="16" font-family="'Segoe UI Mono', 'Cascadia Code', monospace" text-anchor="middle" font-weight="700">+25,528</text>
    <text x="515" y="118" fill="#ff8a65" font-size="14" font-family="'Segoe UI Mono', 'Cascadia Code', monospace" text-anchor="middle" font-weight="600">-7,091</text>
    <rect x="618" y="60" width="190" height="68" rx="8" fill="#091409" stroke="#1e3a1e" stroke-width="1"/>
    <text x="713" y="78" fill="#5a7a5a" font-size="11" font-family="'Segoe UI', sans-serif" text-anchor="middle" font-weight="500">Streak</text>
    <text x="713" y="104" fill="#66ff66" font-size="20" font-family="'Segoe UI Mono', 'Cascadia Code', monospace" text-anchor="middle" font-weight="700">203</text>
    <text x="713" y="120" fill="#5a7a5a" font-size="11" font-family="'Segoe UI', sans-serif" text-anchor="middle">days</text>
  </g>

  <g class="cpd-chart">
    <line x1="72" y1="148" x2="808" y2="148" stroke="#1a2e1a" stroke-width="1" stroke-dasharray="4,4"/><line x1="72" y1="213.5" x2="808" y2="213.5" stroke="#1a2e1a" stroke-width="1" stroke-dasharray="4,4"/><line x1="72" y1="279" x2="808" y2="279" stroke="#1a2e1a" stroke-width="1" stroke-dasharray="4,4"/><line x1="72" y1="344.5" x2="808" y2="344.5" stroke="#1a2e1a" stroke-width="1" stroke-dasharray="4,4"/><line x1="72" y1="410" x2="808" y2="410" stroke="#1a2e1a" stroke-width="1" stroke-dasharray="4,4"/><line x1="72" y1="279" x2="808" y2="279" stroke="#1e3a1e" stroke-width="1.5"/><text x="64" y="162" fill="#5a7a5a" font-size="10" font-family="'Segoe UI', sans-serif" text-anchor="end">+28,058</text><text x="64" y="406" fill="#5a7a5a" font-size="10" font-family="'Segoe UI', sans-serif" text-anchor="end">-28,058</text><text x="64" y="283" fill="#5a7a5a" font-size="10" font-family="'Segoe UI', sans-serif" text-anchor="end">0</text><path d="M 72 279 L 72 183.9353482072849 L 96.53333333333333 276.44700263739395 L 121.06666666666666 258.59758357687645 L 145.60000000000002 224.20974410150404 L 170.13333333333333 221.93705894931927 L 194.66666666666669 258.632083541236 L 219.20000000000002 260.7840188181624 L 243.73333333333335 264.08307791004347 L 268.26666666666665 188.6402808468173 L 292.8 228.75080191032862 L 317.33333333333337 241.2484139995723 L 341.8666666666667 158 L 366.40000000000003 199.23176990519636 L 390.93333333333334 158 L 415.4666666666667 193.33658849525983 L 440 250.91702901133368 L 464.53333333333336 217.9221255969777 L 489.0666666666667 278.17200085537104 L 513.6 279 L 538.1333333333334 271.1685080903842 L 562.6666666666667 279 L 587.2 260.68914391617363 L 611.7333333333333 279 L 636.2666666666667 278.6765628341293 L 660.8000000000001 277.2836267731128 L 685.3333333333334 258.88652077838765 L 709.8666666666667 275.9036281987312 L 734.4000000000001 279 L 758.9333333333334 272.837443866277 L 783.4666666666667 257.7738969277924 L 808 279 L 808 279 Z" fill="#66ff66" opacity="0.15"/><path d="M 72 279 L 72 183.9353482072849 L 96.53333333333333 276.44700263739395 L 121.06666666666666 258.59758357687645 L 145.60000000000002 224.20974410150404 L 170.13333333333333 221.93705894931927 L 194.66666666666669 258.632083541236 L 219.20000000000002 260.7840188181624 L 243.73333333333335 264.08307791004347 L 268.26666666666665 188.6402808468173 L 292.8 228.75080191032862 L 317.33333333333337 241.2484139995723 L 341.8666666666667 158 L 366.40000000000003 199.23176990519636 L 390.93333333333334 158 L 415.4666666666667 193.33658849525983 L 440 250.91702901133368 L 464.53333333333336 217.9221255969777 L 489.0666666666667 278.17200085537104 L 513.6 279 L 538.1333333333334 271.1685080903842 L 562.6666666666667 279 L 587.2 260.68914391617363 L 611.7333333333333 279 L 636.2666666666667 278.6765628341293 L 660.8000000000001 277.2836267731128 L 685.3333333333334 258.88652077838765 L 709.8666666666667 275.9036281987312 L 734.4000000000001 279 L 758.9333333333334 272.837443866277 L 783.4666666666667 257.7738969277924 L 808 279" fill="none" stroke="#66ff66" stroke-width="2"/><path d="M 72 279 L 72 316.5661486919952 L 96.53333333333333 280.69049825361753 L 121.06666666666666 294.706108774681 L 145.60000000000002 302.4642882600328 L 170.13333333333333 295.9998574381638 L 194.66666666666669 282.68718369092596 L 219.20000000000002 284.86930643666693 L 243.73333333333335 286.1759925867845 L 268.26666666666665 298.89785444436524 L 292.8 301.4551643025162 L 317.33333333333337 282.08343431463396 L 341.8666666666667 337.45156461615227 L 366.40000000000003 400 L 390.93333333333334 400 L 415.4666666666667 302.4729132511227 L 440 283.3426830137572 L 464.53333333333336 287.7026160096942 L 489.0666666666667 279.2587497326966 L 513.6 279 L 538.1333333333334 279.0474374509944 L 562.6666666666667 279 L 587.2 279.3536246346853 L 611.7333333333333 279 L 636.2666666666667 279.3838121034999 L 660.8000000000001 279.905624064438 L 685.3333333333334 298.56579228740463 L 709.8666666666667 279.12937486634826 L 734.4000000000001 279 L 758.9333333333334 280.52662342290967 L 783.4666666666667 281.2338726922803 L 808 279 L 808 279 Z" fill="#ff8a65" opacity="0.15"/><path d="M 72 279 L 72 316.5661486919952 L 96.53333333333333 280.69049825361753 L 121.06666666666666 294.706108774681 L 145.60000000000002 302.4642882600328 L 170.13333333333333 295.9998574381638 L 194.66666666666669 282.68718369092596 L 219.20000000000002 284.86930643666693 L 243.73333333333335 286.1759925867845 L 268.26666666666665 298.89785444436524 L 292.8 301.4551643025162 L 317.33333333333337 282.08343431463396 L 341.8666666666667 337.45156461615227 L 366.40000000000003 400 L 390.93333333333334 400 L 415.4666666666667 302.4729132511227 L 440 283.3426830137572 L 464.53333333333336 287.7026160096942 L 489.0666666666667 279.2587497326966 L 513.6 279 L 538.1333333333334 279.0474374509944 L 562.6666666666667 279 L 587.2 279.3536246346853 L 611.7333333333333 279 L 636.2666666666667 279.3838121034999 L 660.8000000000001 279.905624064438 L 685.3333333333334 298.56579228740463 L 709.8666666666667 279.12937486634826 L 734.4000000000001 279 L 758.9333333333334 280.52662342290967 L 783.4666666666667 281.2338726922803 L 808 279" fill="none" stroke="#ff8a65" stroke-width="2"/><text x="72" y="426" fill="#5a7a5a" font-size="10" font-family="'Segoe UI', sans-serif" text-anchor="middle">May 20</text><text x="194.66666666666669" y="426" fill="#5a7a5a" font-size="10" font-family="'Segoe UI', sans-serif" text-anchor="middle">May 25</text><text x="317.33333333333337" y="426" fill="#5a7a5a" font-size="10" font-family="'Segoe UI', sans-serif" text-anchor="middle">May 30</text><text x="440" y="426" fill="#5a7a5a" font-size="10" font-family="'Segoe UI', sans-serif" text-anchor="middle">Jun 4</text><text x="562.6666666666667" y="426" fill="#5a7a5a" font-size="10" font-family="'Segoe UI', sans-serif" text-anchor="middle">Jun 9</text><text x="685.3333333333334" y="426" fill="#5a7a5a" font-size="10" font-family="'Segoe UI', sans-serif" text-anchor="middle">Jun 14</text><text x="808" y="426" fill="#5a7a5a" font-size="10" font-family="'Segoe UI', sans-serif" text-anchor="middle">Jun 19</text>
  </g>

  <g class="cpd-legend">
    
    <circle cx="30" cy="442" r="5" fill="#66ff66"/>
    <text x="40" y="446" fill="#8ab88a" font-size="11" font-family="'Segoe UI', sans-serif">Additions</text>
    <circle cx="124" cy="442" r="5" fill="#ff8a65"/>
    <text x="134" y="446" fill="#8ab88a" font-size="11" font-family="'Segoe UI', sans-serif">Deletions</text>
    <text x="816" y="446" fill="#5a7a5a" font-size="10" font-family="'Segoe UI', sans-serif" text-anchor="end">Last 31 days · +272,711 / -140,100 lines</text>
  </g>

  <a href="https://github.com/mpge/code-per-day" target="_blank">
    <text x="420" y="452" fill="#5a7a5a" font-size="10" font-family="'Segoe UI', sans-serif" text-anchor="middle" opacity="0.6">Get your own - github.com/mpge/code-per-day</text>
  </a>
</svg>