<svg width="840" height="460" viewBox="0 0 840 460" xmlns="http://www.w3.org/2000/svg">
  
    <style>
      @keyframes fadeInUp {
        from { opacity: 0; transform: translateY(12px); }
        to   { opacity: 1; transform: translateY(0); }
      }
      @keyframes growBar {
        from { transform: scaleY(0); }
        to   { transform: scaleY(1); }
      }
      .cpd-header  { animation: fadeInUp 0.5s ease both; }
      .cpd-stats   { animation: fadeInUp 0.5s ease 0.15s both; }
      .cpd-chart   { animation: fadeInUp 0.5s ease 0.3s both; }
      .cpd-legend  { animation: fadeInUp 0.5s ease 0.45s both; }
    </style>

  <rect width="840" height="460" rx="12" fill="#1a1028" stroke="#3d2660" stroke-width="1"/>

  <g class="cpd-header">
    <a href="https://github.com/mpge/code-per-day" target="_blank">
      <text x="24" y="44" fill="#f0d0ff" font-size="18" font-family="'Segoe UI', sans-serif" font-weight="700">Code Per Day</text>
    </a>
    <text x="816" y="44" fill="#7a5a8e" font-size="13" font-family="'Segoe UI', sans-serif" text-anchor="end" font-weight="500">@mpge</text>
  </g>

  <g class="cpd-stats">
    
    <rect x="24" y="60" width="190" height="68" rx="8" fill="#160e22" stroke="#3d2660" stroke-width="1"/>
    <text x="119" y="78" fill="#7a5a8e" font-size="11" font-family="'Segoe UI', sans-serif" text-anchor="middle" font-weight="500">Today</text>
    <text x="119" y="100" fill="#ffb86c" font-size="16" font-family="'Segoe UI Mono', 'Cascadia Code', monospace" text-anchor="middle" font-weight="700">+0</text>
    <text x="119" y="118" fill="#ff79c6" font-size="14" font-family="'Segoe UI Mono', 'Cascadia Code', monospace" text-anchor="middle" font-weight="600">+0</text>
    <rect x="222" y="60" width="190" height="68" rx="8" fill="#160e22" stroke="#3d2660" stroke-width="1"/>
    <text x="317" y="78" fill="#7a5a8e" font-size="11" font-family="'Segoe UI', sans-serif" text-anchor="middle" font-weight="500">30d Avg</text>
    <text x="317" y="100" fill="#ffb86c" font-size="16" font-family="'Segoe UI Mono', 'Cascadia Code', monospace" text-anchor="middle" font-weight="700">+8,885</text>
    <text x="317" y="118" fill="#ff79c6" font-size="14" font-family="'Segoe UI Mono', 'Cascadia Code', monospace" text-anchor="middle" font-weight="600">-959</text>
    <rect x="420" y="60" width="190" height="68" rx="8" fill="#160e22" stroke="#3d2660" stroke-width="1"/>
    <text x="515" y="78" fill="#7a5a8e" font-size="11" font-family="'Segoe UI', sans-serif" text-anchor="middle" font-weight="500">Year Avg</text>
    <text x="515" y="100" fill="#ffb86c" font-size="16" font-family="'Segoe UI Mono', 'Cascadia Code', monospace" text-anchor="middle" font-weight="700">+26,145</text>
    <text x="515" y="118" fill="#ff79c6" font-size="14" font-family="'Segoe UI Mono', 'Cascadia Code', monospace" text-anchor="middle" font-weight="600">-7,145</text>
    <rect x="618" y="60" width="190" height="68" rx="8" fill="#160e22" stroke="#3d2660" stroke-width="1"/>
    <text x="713" y="78" fill="#7a5a8e" font-size="11" font-family="'Segoe UI', sans-serif" text-anchor="middle" font-weight="500">Streak</text>
    <text x="713" y="104" fill="#ff79c6" font-size="20" font-family="'Segoe UI Mono', 'Cascadia Code', monospace" text-anchor="middle" font-weight="700">219</text>
    <text x="713" y="120" fill="#7a5a8e" font-size="11" font-family="'Segoe UI', sans-serif" text-anchor="middle">days</text>
  </g>

  <g class="cpd-chart">
    <line x1="72" y1="148" x2="808" y2="148" stroke="#2d1c44" stroke-width="1" stroke-dasharray="4,4"/><line x1="72" y1="213.5" x2="808" y2="213.5" stroke="#2d1c44" stroke-width="1" stroke-dasharray="4,4"/><line x1="72" y1="279" x2="808" y2="279" stroke="#2d1c44" stroke-width="1" stroke-dasharray="4,4"/><line x1="72" y1="344.5" x2="808" y2="344.5" stroke="#2d1c44" stroke-width="1" stroke-dasharray="4,4"/><line x1="72" y1="410" x2="808" y2="410" stroke="#2d1c44" stroke-width="1" stroke-dasharray="4,4"/><line x1="72" y1="279" x2="808" y2="279" stroke="#3d2660" stroke-width="1.5"/><text x="64" y="162" fill="#7a5a8e" font-size="10" font-family="'Segoe UI', sans-serif" text-anchor="end">+11,028</text><text x="64" y="406" fill="#7a5a8e" font-size="10" font-family="'Segoe UI', sans-serif" text-anchor="end">-11,028</text><text x="64" y="283" fill="#7a5a8e" font-size="10" font-family="'Segoe UI', sans-serif" text-anchor="end">0</text><path d="M 72 279 L 72 158 L 96.53333333333333 276.89336235038087 L 121.06666666666666 279 L 145.60000000000002 259.07471889735217 L 170.13333333333333 279 L 194.66666666666669 232.4125861443598 L 219.20000000000002 279 L 243.73333333333335 278.17709466811755 L 268.26666666666665 274.63311570547694 L 292.8 227.82626042800146 L 317.33333333333337 271.1220529561117 L 341.8666666666667 279 L 366.40000000000003 263.3209104098658 L 390.93333333333334 224.9954660863257 L 415.4666666666667 217.86361987667755 L 440 245.30476967718533 L 464.53333333333336 158 L 489.0666666666667 185.1778200943054 L 513.6 158 L 538.1333333333334 199.33179180268408 L 562.6666666666667 202.67827348567283 L 587.2 258.8443054044251 L 611.7333333333333 263.43063112078346 L 636.2666666666667 229.39526659412405 L 660.8000000000001 158 L 685.3333333333334 244.08686978599928 L 709.8666666666667 251.240660137831 L 734.4000000000001 275.3792165397171 L 758.9333333333334 279 L 783.4666666666667 276.16920565832424 L 808 279 L 808 279 Z" fill="#ffb86c" opacity="0.15"/><path d="M 72 279 L 72 158 L 96.53333333333333 276.89336235038087 L 121.06666666666666 279 L 145.60000000000002 259.07471889735217 L 170.13333333333333 279 L 194.66666666666669 232.4125861443598 L 219.20000000000002 279 L 243.73333333333335 278.17709466811755 L 268.26666666666665 274.63311570547694 L 292.8 227.82626042800146 L 317.33333333333337 271.1220529561117 L 341.8666666666667 279 L 366.40000000000003 263.3209104098658 L 390.93333333333334 224.9954660863257 L 415.4666666666667 217.86361987667755 L 440 245.30476967718533 L 464.53333333333336 158 L 489.0666666666667 185.1778200943054 L 513.6 158 L 538.1333333333334 199.33179180268408 L 562.6666666666667 202.67827348567283 L 587.2 258.8443054044251 L 611.7333333333333 263.43063112078346 L 636.2666666666667 229.39526659412405 L 660.8000000000001 158 L 685.3333333333334 244.08686978599928 L 709.8666666666667 251.240660137831 L 734.4000000000001 275.3792165397171 L 758.9333333333334 279 L 783.4666666666667 276.16920565832424 L 808 279" fill="none" stroke="#ffb86c" stroke-width="2"/><path d="M 72 279 L 72 301.1416394631846 L 96.53333333333333 279.658324265506 L 121.06666666666666 279 L 145.60000000000002 279.1206927820094 L 170.13333333333333 279 L 194.66666666666669 279.89970982952485 L 219.20000000000002 279 L 243.73333333333335 279.9765143271672 L 268.26666666666665 281.30413492927096 L 292.8 328.78028654334423 L 317.33333333333337 279.32916213275297 L 341.8666666666667 279 L 366.40000000000003 282.8841131664853 L 390.93333333333334 284.683532825535 L 415.4666666666667 289.63193688792165 L 440 280.21789989118605 L 464.53333333333336 340.92636924192965 L 489.0666666666667 288.80903155603914 L 513.6 308.43806673920926 L 538.1333333333334 291.3764961915125 L 562.6666666666667 279.7461008342401 L 587.2 280.84330794341673 L 611.7333333333333 279.94359811389194 L 636.2666666666667 282.1270402611534 L 660.8000000000001 369.7829162132753 L 685.3333333333334 286.24156692056584 L 709.8666666666667 286.5817011244106 L 734.4000000000001 279 L 758.9333333333334 279 L 783.4666666666667 280.6677548059485 L 808 279 L 808 279 Z" fill="#ff79c6" opacity="0.15"/><path d="M 72 279 L 72 301.1416394631846 L 96.53333333333333 279.658324265506 L 121.06666666666666 279 L 145.60000000000002 279.1206927820094 L 170.13333333333333 279 L 194.66666666666669 279.89970982952485 L 219.20000000000002 279 L 243.73333333333335 279.9765143271672 L 268.26666666666665 281.30413492927096 L 292.8 328.78028654334423 L 317.33333333333337 279.32916213275297 L 341.8666666666667 279 L 366.40000000000003 282.8841131664853 L 390.93333333333334 284.683532825535 L 415.4666666666667 289.63193688792165 L 440 280.21789989118605 L 464.53333333333336 340.92636924192965 L 489.0666666666667 288.80903155603914 L 513.6 308.43806673920926 L 538.1333333333334 291.3764961915125 L 562.6666666666667 279.7461008342401 L 587.2 280.84330794341673 L 611.7333333333333 279.94359811389194 L 636.2666666666667 282.1270402611534 L 660.8000000000001 369.7829162132753 L 685.3333333333334 286.24156692056584 L 709.8666666666667 286.5817011244106 L 734.4000000000001 279 L 758.9333333333334 279 L 783.4666666666667 280.6677548059485 L 808 279" fill="none" stroke="#ff79c6" stroke-width="2"/><text x="72" y="426" fill="#7a5a8e" font-size="10" font-family="'Segoe UI', sans-serif" text-anchor="middle">Jun 5</text><text x="194.66666666666669" y="426" fill="#7a5a8e" font-size="10" font-family="'Segoe UI', sans-serif" text-anchor="middle">Jun 10</text><text x="317.33333333333337" y="426" fill="#7a5a8e" font-size="10" font-family="'Segoe UI', sans-serif" text-anchor="middle">Jun 15</text><text x="440" y="426" fill="#7a5a8e" font-size="10" font-family="'Segoe UI', sans-serif" text-anchor="middle">Jun 20</text><text x="562.6666666666667" y="426" fill="#7a5a8e" font-size="10" font-family="'Segoe UI', sans-serif" text-anchor="middle">Jun 25</text><text x="685.3333333333334" y="426" fill="#7a5a8e" font-size="10" font-family="'Segoe UI', sans-serif" text-anchor="middle">Jun 30</text><text x="808" y="426" fill="#7a5a8e" font-size="10" font-family="'Segoe UI', sans-serif" text-anchor="middle">Jul 5</text>
  </g>

  <g class="cpd-legend">
    
    <circle cx="30" cy="442" r="5" fill="#ffb86c"/>
    <text x="40" y="446" fill="#c4a0d8" font-size="11" font-family="'Segoe UI', sans-serif">Additions</text>
    <circle cx="124" cy="442" r="5" fill="#ff79c6"/>
    <text x="134" y="446" fill="#c4a0d8" font-size="11" font-family="'Segoe UI', sans-serif">Deletions</text>
    <text x="816" y="446" fill="#7a5a8e" font-size="10" font-family="'Segoe UI', sans-serif" text-anchor="end">Last 31 days · +275,426 / -29,722 lines</text>
  </g>

  <a href="https://github.com/mpge/code-per-day" target="_blank">
    <text x="420" y="452" fill="#7a5a8e" font-size="10" font-family="'Segoe UI', sans-serif" text-anchor="middle" opacity="0.6">Get your own - github.com/mpge/code-per-day</text>
  </a>
</svg>