<svg width="840" height="460" viewBox="0 0 840 460" xmlns="http://www.w3.org/2000/svg">
  
    <style>
      @keyframes fadeInUp {
        from { opacity: 0; transform: translateY(12px); }
        to   { opacity: 1; transform: translateY(0); }
      }
      @keyframes growBar {
        from { transform: scaleY(0); }
        to   { transform: scaleY(1); }
      }
      .cpd-header  { animation: fadeInUp 0.5s ease both; }
      .cpd-stats   { animation: fadeInUp 0.5s ease 0.15s both; }
      .cpd-chart   { animation: fadeInUp 0.5s ease 0.3s both; }
      .cpd-legend  { animation: fadeInUp 0.5s ease 0.45s both; }
    </style>

  <rect width="840" height="460" rx="12" fill="#0d1117" stroke="#30363d" stroke-width="1"/>

  <g class="cpd-header">
    <a href="https://github.com/mpge/code-per-day" target="_blank">
      <text x="24" y="44" fill="#f0f6fc" font-size="18" font-family="'Segoe UI', sans-serif" font-weight="700">Code Per Day</text>
    </a>
    <text x="816" y="44" fill="#484f58" font-size="13" font-family="'Segoe UI', sans-serif" text-anchor="end" font-weight="500">@mpge</text>
  </g>

  <g class="cpd-stats">
    
    <rect x="24" y="60" width="190" height="68" rx="8" fill="#010409" stroke="#30363d" stroke-width="1"/>
    <text x="119" y="78" fill="#484f58" font-size="11" font-family="'Segoe UI', sans-serif" text-anchor="middle" font-weight="500">Today</text>
    <text x="119" y="100" fill="#3fb950" font-size="16" font-family="'Segoe UI Mono', 'Cascadia Code', monospace" text-anchor="middle" font-weight="700">+4,246</text>
    <text x="119" y="118" fill="#f85149" font-size="14" font-family="'Segoe UI Mono', 'Cascadia Code', monospace" text-anchor="middle" font-weight="600">-82</text>
    <rect x="222" y="60" width="190" height="68" rx="8" fill="#010409" stroke="#30363d" stroke-width="1"/>
    <text x="317" y="78" fill="#484f58" font-size="11" font-family="'Segoe UI', sans-serif" text-anchor="middle" font-weight="500">30d Avg</text>
    <text x="317" y="100" fill="#3fb950" font-size="16" font-family="'Segoe UI Mono', 'Cascadia Code', monospace" text-anchor="middle" font-weight="700">+17,489</text>
    <text x="317" y="118" fill="#f85149" font-size="14" font-family="'Segoe UI Mono', 'Cascadia Code', monospace" text-anchor="middle" font-weight="600">-6,400</text>
    <rect x="420" y="60" width="190" height="68" rx="8" fill="#010409" stroke="#30363d" stroke-width="1"/>
    <text x="515" y="78" fill="#484f58" font-size="11" font-family="'Segoe UI', sans-serif" text-anchor="middle" font-weight="500">Year Avg</text>
    <text x="515" y="100" fill="#3fb950" font-size="16" font-family="'Segoe UI Mono', 'Cascadia Code', monospace" text-anchor="middle" font-weight="700">+25,495</text>
    <text x="515" y="118" fill="#f85149" font-size="14" font-family="'Segoe UI Mono', 'Cascadia Code', monospace" text-anchor="middle" font-weight="600">-7,075</text>
    <rect x="618" y="60" width="190" height="68" rx="8" fill="#010409" stroke="#30363d" stroke-width="1"/>
    <text x="713" y="78" fill="#484f58" font-size="11" font-family="'Segoe UI', sans-serif" text-anchor="middle" font-weight="500">Streak</text>
    <text x="713" y="104" fill="#2f81f7" font-size="20" font-family="'Segoe UI Mono', 'Cascadia Code', monospace" text-anchor="middle" font-weight="700">195</text>
    <text x="713" y="120" fill="#484f58" font-size="11" font-family="'Segoe UI', sans-serif" text-anchor="middle">days</text>
  </g>

  <g class="cpd-chart">
    <line x1="72" y1="148" x2="808" y2="148" stroke="#21262d" stroke-width="1" stroke-dasharray="4,4"/><line x1="72" y1="213.5" x2="808" y2="213.5" stroke="#21262d" stroke-width="1" stroke-dasharray="4,4"/><line x1="72" y1="279" x2="808" y2="279" stroke="#21262d" stroke-width="1" stroke-dasharray="4,4"/><line x1="72" y1="344.5" x2="808" y2="344.5" stroke="#21262d" stroke-width="1" stroke-dasharray="4,4"/><line x1="72" y1="410" x2="808" y2="410" stroke="#21262d" stroke-width="1" stroke-dasharray="4,4"/><line x1="72" y1="279" x2="808" y2="279" stroke="#30363d" stroke-width="1.5"/><text x="64" y="162" fill="#484f58" font-size="10" font-family="'Segoe UI', sans-serif" text-anchor="end">+31,929</text><text x="64" y="406" fill="#484f58" font-size="10" font-family="'Segoe UI', sans-serif" text-anchor="end">-31,929</text><text x="64" y="283" fill="#484f58" font-size="10" font-family="'Segoe UI', sans-serif" text-anchor="end">0</text><path d="M 72 279 L 72 221.85953208681764 L 96.53333333333333 266.0431582573836 L 121.06666666666666 245.98070719408688 L 145.60000000000002 263.613987284287 L 170.13333333333333 260.7376366312756 L 194.66666666666669 277.21128128034076 L 219.20000000000002 158 L 243.73333333333335 158 L 268.26666666666665 158 L 292.8 195.46077233862633 L 317.33333333333337 276.7565222838172 L 341.8666666666667 261.0711265620596 L 366.40000000000003 230.85239124307057 L 390.93333333333334 228.85524131667137 L 415.4666666666667 261.1014438284945 L 440 262.9924833223715 L 464.53333333333336 265.89157192520906 L 489.0666666666667 199.59528954868614 L 513.6 234.8429014375646 L 538.1333333333334 245.82533120360802 L 562.6666666666667 158 L 587.2 208.90269034420118 L 611.7333333333333 158 L 636.2666666666667 203.72222744213724 L 660.8000000000001 254.3217451219894 L 685.3333333333334 225.3270694353096 L 709.8666666666667 278.27238560556236 L 734.4000000000001 279 L 758.9333333333334 272.1179805192771 L 783.4666666666667 279 L 808 262.9091108396755 L 808 279 Z" fill="#3fb950" opacity="0.15"/><path d="M 72 279 L 72 221.85953208681764 L 96.53333333333333 266.0431582573836 L 121.06666666666666 245.98070719408688 L 145.60000000000002 263.613987284287 L 170.13333333333333 260.7376366312756 L 194.66666666666669 277.21128128034076 L 219.20000000000002 158 L 243.73333333333335 158 L 268.26666666666665 158 L 292.8 195.46077233862633 L 317.33333333333337 276.7565222838172 L 341.8666666666667 261.0711265620596 L 366.40000000000003 230.85239124307057 L 390.93333333333334 228.85524131667137 L 415.4666666666667 261.1014438284945 L 440 262.9924833223715 L 464.53333333333336 265.89157192520906 L 489.0666666666667 199.59528954868614 L 513.6 234.8429014375646 L 538.1333333333334 245.82533120360802 L 562.6666666666667 158 L 587.2 208.90269034420118 L 611.7333333333333 158 L 636.2666666666667 203.72222744213724 L 660.8000000000001 254.3217451219894 L 685.3333333333334 225.3270694353096 L 709.8666666666667 278.27238560556236 L 734.4000000000001 279 L 758.9333333333334 272.1179805192771 L 783.4666666666667 279 L 808 262.9091108396755" fill="none" stroke="#3fb950" stroke-width="2"/><path d="M 72 279 L 72 289.4821948698675 L 96.53333333333333 279.3638071972188 L 121.06666666666666 291.59682420370194 L 145.60000000000002 282.6608099220145 L 170.13333333333333 281.0085189013123 L 194.66666666666669 279.3675968555232 L 219.20000000000002 283.9417144288891 L 243.73333333333335 289.0160668984309 L 268.26666666666665 400 L 292.8 312.0117134893044 L 317.33333333333337 280.48554605531024 L 341.8666666666667 292.8019355444893 L 366.40000000000003 299.619530834038 L 390.93333333333334 293.93883303579815 L 415.4666666666667 282.2401578502302 L 440 284.1577249522378 L 464.53333333333336 285.3059914184597 L 489.0666666666667 296.48548341633 L 513.6 298.73275079081714 L 538.1333333333334 281.7096056876194 L 562.6666666666667 330.3650286573335 L 587.2 400 L 611.7333333333333 394.66795076576153 L 636.2666666666667 299.62711015064673 L 660.8000000000001 282.8161859124933 L 685.3333333333334 286.64753045820413 L 709.8666666666667 279.22737949826177 L 734.4000000000001 279 L 758.9333333333334 279.041686241348 L 783.4666666666667 279 L 808 279.3107519809578 L 808 279 Z" fill="#f85149" opacity="0.15"/><path d="M 72 279 L 72 289.4821948698675 L 96.53333333333333 279.3638071972188 L 121.06666666666666 291.59682420370194 L 145.60000000000002 282.6608099220145 L 170.13333333333333 281.0085189013123 L 194.66666666666669 279.3675968555232 L 219.20000000000002 283.9417144288891 L 243.73333333333335 289.0160668984309 L 268.26666666666665 400 L 292.8 312.0117134893044 L 317.33333333333337 280.48554605531024 L 341.8666666666667 292.8019355444893 L 366.40000000000003 299.619530834038 L 390.93333333333334 293.93883303579815 L 415.4666666666667 282.2401578502302 L 440 284.1577249522378 L 464.53333333333336 285.3059914184597 L 489.0666666666667 296.48548341633 L 513.6 298.73275079081714 L 538.1333333333334 281.7096056876194 L 562.6666666666667 330.3650286573335 L 587.2 400 L 611.7333333333333 394.66795076576153 L 636.2666666666667 299.62711015064673 L 660.8000000000001 282.8161859124933 L 685.3333333333334 286.64753045820413 L 709.8666666666667 279.22737949826177 L 734.4000000000001 279 L 758.9333333333334 279.041686241348 L 783.4666666666667 279 L 808 279.3107519809578" fill="none" stroke="#f85149" stroke-width="2"/><text x="72" y="426" fill="#484f58" font-size="10" font-family="'Segoe UI', sans-serif" text-anchor="middle">May 11</text><text x="194.66666666666669" y="426" fill="#484f58" font-size="10" font-family="'Segoe UI', sans-serif" text-anchor="middle">May 16</text><text x="317.33333333333337" y="426" fill="#484f58" font-size="10" font-family="'Segoe UI', sans-serif" text-anchor="middle">May 21</text><text x="440" y="426" fill="#484f58" font-size="10" font-family="'Segoe UI', sans-serif" text-anchor="middle">May 26</text><text x="562.6666666666667" y="426" fill="#484f58" font-size="10" font-family="'Segoe UI', sans-serif" text-anchor="middle">May 31</text><text x="685.3333333333334" y="426" fill="#484f58" font-size="10" font-family="'Segoe UI', sans-serif" text-anchor="middle">Jun 5</text><text x="808" y="426" fill="#484f58" font-size="10" font-family="'Segoe UI', sans-serif" text-anchor="middle">Jun 10</text>
  </g>

  <g class="cpd-legend">
    
    <circle cx="30" cy="442" r="5" fill="#3fb950"/>
    <text x="40" y="446" fill="#7d8590" font-size="11" font-family="'Segoe UI', sans-serif">Additions</text>
    <circle cx="124" cy="442" r="5" fill="#f85149"/>
    <text x="134" y="446" fill="#7d8590" font-size="11" font-family="'Segoe UI', sans-serif">Deletions</text>
    <text x="816" y="446" fill="#484f58" font-size="10" font-family="'Segoe UI', sans-serif" text-anchor="end">Last 31 days · +542,158 / -198,390 lines</text>
  </g>

  <a href="https://github.com/mpge/code-per-day" target="_blank">
    <text x="420" y="452" fill="#484f58" font-size="10" font-family="'Segoe UI', sans-serif" text-anchor="middle" opacity="0.6">Get your own - github.com/mpge/code-per-day</text>
  </a>
</svg>