<svg width="840" height="460" viewBox="0 0 840 460" xmlns="http://www.w3.org/2000/svg">
  
    <style>
      @keyframes fadeInUp {
        from { opacity: 0; transform: translateY(12px); }
        to   { opacity: 1; transform: translateY(0); }
      }
      @keyframes growBar {
        from { transform: scaleY(0); }
        to   { transform: scaleY(1); }
      }
      .cpd-header  { animation: fadeInUp 0.5s ease both; }
      .cpd-stats   { animation: fadeInUp 0.5s ease 0.15s both; }
      .cpd-chart   { animation: fadeInUp 0.5s ease 0.3s both; }
      .cpd-legend  { animation: fadeInUp 0.5s ease 0.45s both; }
    </style>

  <rect width="840" height="460" rx="12" fill="#0b1929" stroke="#1d3461" stroke-width="1"/>

  <g class="cpd-header">
    <a href="https://github.com/mpge/code-per-day" target="_blank">
      <text x="24" y="44" fill="#ccd6f6" font-size="18" font-family="'Segoe UI', sans-serif" font-weight="700">Code Per Day</text>
    </a>
    <text x="816" y="44" fill="#495670" font-size="13" font-family="'Segoe UI', sans-serif" text-anchor="end" font-weight="500">@mpge</text>
  </g>

  <g class="cpd-stats">
    
    <rect x="24" y="60" width="190" height="68" rx="8" fill="#0a1628" stroke="#1d3461" stroke-width="1"/>
    <text x="119" y="78" fill="#495670" font-size="11" font-family="'Segoe UI', sans-serif" text-anchor="middle" font-weight="500">Today</text>
    <text x="119" y="100" fill="#64ffda" font-size="16" font-family="'Segoe UI Mono', 'Cascadia Code', monospace" text-anchor="middle" font-weight="700">+268</text>
    <text x="119" y="118" fill="#ff6b6b" font-size="14" font-family="'Segoe UI Mono', 'Cascadia Code', monospace" text-anchor="middle" font-weight="600">-65</text>
    <rect x="222" y="60" width="190" height="68" rx="8" fill="#0a1628" stroke="#1d3461" stroke-width="1"/>
    <text x="317" y="78" fill="#495670" font-size="11" font-family="'Segoe UI', sans-serif" text-anchor="middle" font-weight="500">30d Avg</text>
    <text x="317" y="100" fill="#64ffda" font-size="16" font-family="'Segoe UI Mono', 'Cascadia Code', monospace" text-anchor="middle" font-weight="700">+171,881</text>
    <text x="317" y="118" fill="#ff6b6b" font-size="14" font-family="'Segoe UI Mono', 'Cascadia Code', monospace" text-anchor="middle" font-weight="600">-2,879</text>
    <rect x="420" y="60" width="190" height="68" rx="8" fill="#0a1628" stroke="#1d3461" stroke-width="1"/>
    <text x="515" y="78" fill="#495670" font-size="11" font-family="'Segoe UI', sans-serif" text-anchor="middle" font-weight="500">Year Avg</text>
    <text x="515" y="100" fill="#64ffda" font-size="16" font-family="'Segoe UI Mono', 'Cascadia Code', monospace" text-anchor="middle" font-weight="700">+24,232</text>
    <text x="515" y="118" fill="#ff6b6b" font-size="14" font-family="'Segoe UI Mono', 'Cascadia Code', monospace" text-anchor="middle" font-weight="600">-6,571</text>
    <rect x="618" y="60" width="190" height="68" rx="8" fill="#0a1628" stroke="#1d3461" stroke-width="1"/>
    <text x="713" y="78" fill="#495670" font-size="11" font-family="'Segoe UI', sans-serif" text-anchor="middle" font-weight="500">Streak</text>
    <text x="713" y="104" fill="#64ffda" font-size="20" font-family="'Segoe UI Mono', 'Cascadia Code', monospace" text-anchor="middle" font-weight="700">163</text>
    <text x="713" y="120" fill="#495670" font-size="11" font-family="'Segoe UI', sans-serif" text-anchor="middle">days</text>
  </g>

  <g class="cpd-chart">
    <line x1="72" y1="148" x2="808" y2="148" stroke="#152a4a" stroke-width="1" stroke-dasharray="4,4"/><line x1="72" y1="213.5" x2="808" y2="213.5" stroke="#152a4a" stroke-width="1" stroke-dasharray="4,4"/><line x1="72" y1="279" x2="808" y2="279" stroke="#152a4a" stroke-width="1" stroke-dasharray="4,4"/><line x1="72" y1="344.5" x2="808" y2="344.5" stroke="#152a4a" stroke-width="1" stroke-dasharray="4,4"/><line x1="72" y1="410" x2="808" y2="410" stroke="#152a4a" stroke-width="1" stroke-dasharray="4,4"/><line x1="72" y1="279" x2="808" y2="279" stroke="#1d3461" stroke-width="1.5"/><text x="64" y="162" fill="#495670" font-size="10" font-family="'Segoe UI', sans-serif" text-anchor="end">+20,320</text><text x="64" y="406" fill="#495670" font-size="10" font-family="'Segoe UI', sans-serif" text-anchor="end">-20,320</text><text x="64" y="283" fill="#495670" font-size="10" font-family="'Segoe UI', sans-serif" text-anchor="end">0</text><path d="M 72 279 L 72 203.38095472440943 L 96.53333333333333 240.0918307086614 L 121.06666666666666 158 L 145.60000000000002 232.08272637795275 L 170.13333333333333 278.71417322834645 L 194.66666666666669 279 L 219.20000000000002 278.6843996062992 L 243.73333333333335 279 L 268.26666666666665 248.32721456692914 L 292.8 192.9542322834646 L 317.33333333333337 237.08469488188976 L 341.8666666666667 251.35221456692915 L 366.40000000000003 278.97022637795277 L 390.93333333333334 158 L 415.4666666666667 158 L 440 265.7626476377953 L 464.53333333333336 158 L 489.0666666666667 158 L 513.6 211.22332677165355 L 538.1333333333334 263.84522637795277 L 562.6666666666667 196.27101377952755 L 587.2 227.65241141732284 L 611.7333333333333 158 L 636.2666666666667 242.6166338582677 L 660.8000000000001 258.93853346456694 L 685.3333333333334 158 L 709.8666666666667 230.79650590551182 L 734.4000000000001 169.1948818897638 L 758.9333333333334 158 L 783.4666666666667 271.2409940944882 L 808 277.4041338582677 L 808 279 Z" fill="#64ffda" opacity="0.15"/><path d="M 72 279 L 72 203.38095472440943 L 96.53333333333333 240.0918307086614 L 121.06666666666666 158 L 145.60000000000002 232.08272637795275 L 170.13333333333333 278.71417322834645 L 194.66666666666669 279 L 219.20000000000002 278.6843996062992 L 243.73333333333335 279 L 268.26666666666665 248.32721456692914 L 292.8 192.9542322834646 L 317.33333333333337 237.08469488188976 L 341.8666666666667 251.35221456692915 L 366.40000000000003 278.97022637795277 L 390.93333333333334 158 L 415.4666666666667 158 L 440 265.7626476377953 L 464.53333333333336 158 L 489.0666666666667 158 L 513.6 211.22332677165355 L 538.1333333333334 263.84522637795277 L 562.6666666666667 196.27101377952755 L 587.2 227.65241141732284 L 611.7333333333333 158 L 636.2666666666667 242.6166338582677 L 660.8000000000001 258.93853346456694 L 685.3333333333334 158 L 709.8666666666667 230.79650590551182 L 734.4000000000001 169.1948818897638 L 758.9333333333334 158 L 783.4666666666667 271.2409940944882 L 808 277.4041338582677" fill="none" stroke="#64ffda" stroke-width="2"/><path d="M 72 279 L 72 291.3560531496063 L 96.53333333333333 291.10595472440946 L 121.06666666666666 284.5736220472441 L 145.60000000000002 280.75068897637794 L 170.13333333333333 307.96377952755904 L 194.66666666666669 279 L 219.20000000000002 279.2679625984252 L 243.73333333333335 279 L 268.26666666666665 279.67883858267714 L 292.8 283.91264763779526 L 317.33333333333337 290.87967519685037 L 341.8666666666667 279.3691929133858 L 366.40000000000003 279 L 390.93333333333334 282.2870078740157 L 415.4666666666667 308.3865649606299 L 440 279.4942421259843 L 464.53333333333336 286.39576771653543 L 489.0666666666667 284.2699311023622 L 513.6 310.4647637795276 L 538.1333333333334 282.22150590551183 L 562.6666666666667 306.7371062992126 L 587.2 288.54542322834646 L 611.7333333333333 327.5845964566929 L 636.2666666666667 295.9709645669291 L 660.8000000000001 286.59227362204723 L 685.3333333333334 290.0043307086614 L 709.8666666666667 283.63873031496064 L 734.4000000000001 306.65374015748034 L 758.9333333333334 400 L 783.4666666666667 282.07263779527557 L 808 279.38705708661416 L 808 279 Z" fill="#ff6b6b" opacity="0.15"/><path d="M 72 279 L 72 291.3560531496063 L 96.53333333333333 291.10595472440946 L 121.06666666666666 284.5736220472441 L 145.60000000000002 280.75068897637794 L 170.13333333333333 307.96377952755904 L 194.66666666666669 279 L 219.20000000000002 279.2679625984252 L 243.73333333333335 279 L 268.26666666666665 279.67883858267714 L 292.8 283.91264763779526 L 317.33333333333337 290.87967519685037 L 341.8666666666667 279.3691929133858 L 366.40000000000003 279 L 390.93333333333334 282.2870078740157 L 415.4666666666667 308.3865649606299 L 440 279.4942421259843 L 464.53333333333336 286.39576771653543 L 489.0666666666667 284.2699311023622 L 513.6 310.4647637795276 L 538.1333333333334 282.22150590551183 L 562.6666666666667 306.7371062992126 L 587.2 288.54542322834646 L 611.7333333333333 327.5845964566929 L 636.2666666666667 295.9709645669291 L 660.8000000000001 286.59227362204723 L 685.3333333333334 290.0043307086614 L 709.8666666666667 283.63873031496064 L 734.4000000000001 306.65374015748034 L 758.9333333333334 400 L 783.4666666666667 282.07263779527557 L 808 279.38705708661416" fill="none" stroke="#ff6b6b" stroke-width="2"/><text x="72" y="426" fill="#495670" font-size="10" font-family="'Segoe UI', sans-serif" text-anchor="middle">Apr 10</text><text x="194.66666666666669" y="426" fill="#495670" font-size="10" font-family="'Segoe UI', sans-serif" text-anchor="middle">Apr 15</text><text x="317.33333333333337" y="426" fill="#495670" font-size="10" font-family="'Segoe UI', sans-serif" text-anchor="middle">Apr 20</text><text x="440" y="426" fill="#495670" font-size="10" font-family="'Segoe UI', sans-serif" text-anchor="middle">Apr 25</text><text x="562.6666666666667" y="426" fill="#495670" font-size="10" font-family="'Segoe UI', sans-serif" text-anchor="middle">Apr 30</text><text x="685.3333333333334" y="426" fill="#495670" font-size="10" font-family="'Segoe UI', sans-serif" text-anchor="middle">May 5</text><text x="808" y="426" fill="#495670" font-size="10" font-family="'Segoe UI', sans-serif" text-anchor="middle">May 10</text>
  </g>

  <g class="cpd-legend">
    
    <circle cx="30" cy="442" r="5" fill="#64ffda"/>
    <text x="40" y="446" fill="#8892b0" font-size="11" font-family="'Segoe UI', sans-serif">Additions</text>
    <circle cx="124" cy="442" r="5" fill="#ff6b6b"/>
    <text x="134" y="446" fill="#8892b0" font-size="11" font-family="'Segoe UI', sans-serif">Deletions</text>
    <text x="816" y="446" fill="#495670" font-size="10" font-family="'Segoe UI', sans-serif" text-anchor="end">Last 31 days · +5,328,297 / -89,257 lines</text>
  </g>

  <a href="https://github.com/mpge/code-per-day" target="_blank">
    <text x="420" y="452" fill="#495670" font-size="10" font-family="'Segoe UI', sans-serif" text-anchor="middle" opacity="0.6">Get your own - github.com/mpge/code-per-day</text>
  </a>
</svg>