<svg width="840" height="460" viewBox="0 0 840 460" xmlns="http://www.w3.org/2000/svg">
  
    <style>
      @keyframes fadeInUp {
        from { opacity: 0; transform: translateY(12px); }
        to   { opacity: 1; transform: translateY(0); }
      }
      @keyframes growBar {
        from { transform: scaleY(0); }
        to   { transform: scaleY(1); }
      }
      .cpd-header  { animation: fadeInUp 0.5s ease both; }
      .cpd-stats   { animation: fadeInUp 0.5s ease 0.15s both; }
      .cpd-chart   { animation: fadeInUp 0.5s ease 0.3s both; }
      .cpd-legend  { animation: fadeInUp 0.5s ease 0.45s both; }
    </style>

  <rect width="840" height="460" rx="12" fill="transparent" />

  <g class="cpd-header">
    <a href="https://github.com/mpge/code-per-day" target="_blank">
      <text x="24" y="44" fill="#e6edf3" font-size="18" font-family="'Segoe UI', sans-serif" font-weight="700">Code Per Day</text>
    </a>
    <text x="816" y="44" fill="#6e7681" font-size="13" font-family="'Segoe UI', sans-serif" text-anchor="end" font-weight="500">@mpge</text>
  </g>

  <g class="cpd-stats">
    
    <rect x="24" y="60" width="190" height="68" rx="8" fill="rgba(13,17,23,0.6)" stroke="#30363d" stroke-width="1"/>
    <text x="119" y="78" fill="#6e7681" font-size="11" font-family="'Segoe UI', sans-serif" text-anchor="middle" font-weight="500">Today</text>
    <text x="119" y="100" fill="#3fb950" font-size="16" font-family="'Segoe UI Mono', 'Cascadia Code', monospace" text-anchor="middle" font-weight="700">+75</text>
    <text x="119" y="118" fill="#f85149" font-size="14" font-family="'Segoe UI Mono', 'Cascadia Code', monospace" text-anchor="middle" font-weight="600">-89</text>
    <rect x="222" y="60" width="190" height="68" rx="8" fill="rgba(13,17,23,0.6)" stroke="#30363d" stroke-width="1"/>
    <text x="317" y="78" fill="#6e7681" font-size="11" font-family="'Segoe UI', sans-serif" text-anchor="middle" font-weight="500">30d Avg</text>
    <text x="317" y="100" fill="#3fb950" font-size="16" font-family="'Segoe UI Mono', 'Cascadia Code', monospace" text-anchor="middle" font-weight="700">+16,895</text>
    <text x="317" y="118" fill="#f85149" font-size="14" font-family="'Segoe UI Mono', 'Cascadia Code', monospace" text-anchor="middle" font-weight="600">-6,310</text>
    <rect x="420" y="60" width="190" height="68" rx="8" fill="rgba(13,17,23,0.6)" stroke="#30363d" stroke-width="1"/>
    <text x="515" y="78" fill="#6e7681" font-size="11" font-family="'Segoe UI', sans-serif" text-anchor="middle" font-weight="500">Year Avg</text>
    <text x="515" y="100" fill="#3fb950" font-size="16" font-family="'Segoe UI Mono', 'Cascadia Code', monospace" text-anchor="middle" font-weight="700">+25,496</text>
    <text x="515" y="118" fill="#f85149" font-size="14" font-family="'Segoe UI Mono', 'Cascadia Code', monospace" text-anchor="middle" font-weight="600">-7,075</text>
    <rect x="618" y="60" width="190" height="68" rx="8" fill="rgba(13,17,23,0.6)" stroke="#30363d" stroke-width="1"/>
    <text x="713" y="78" fill="#6e7681" font-size="11" font-family="'Segoe UI', sans-serif" text-anchor="middle" font-weight="500">Streak</text>
    <text x="713" y="104" fill="#58a6ff" font-size="20" font-family="'Segoe UI Mono', 'Cascadia Code', monospace" text-anchor="middle" font-weight="700">197</text>
    <text x="713" y="120" fill="#6e7681" font-size="11" font-family="'Segoe UI', sans-serif" text-anchor="middle">days</text>
  </g>

  <g class="cpd-chart">
    <line x1="72" y1="148" x2="808" y2="148" stroke="rgba(33,38,45,0.6)" stroke-width="1" stroke-dasharray="4,4"/><line x1="72" y1="213.5" x2="808" y2="213.5" stroke="rgba(33,38,45,0.6)" stroke-width="1" stroke-dasharray="4,4"/><line x1="72" y1="279" x2="808" y2="279" stroke="rgba(33,38,45,0.6)" stroke-width="1" stroke-dasharray="4,4"/><line x1="72" y1="344.5" x2="808" y2="344.5" stroke="rgba(33,38,45,0.6)" stroke-width="1" stroke-dasharray="4,4"/><line x1="72" y1="410" x2="808" y2="410" stroke="rgba(33,38,45,0.6)" stroke-width="1" stroke-dasharray="4,4"/><line x1="72" y1="279" x2="808" y2="279" stroke="#30363d" stroke-width="1.5"/><text x="64" y="162" fill="#6e7681" font-size="10" font-family="'Segoe UI', sans-serif" text-anchor="end">+32,375</text><text x="64" y="406" fill="#6e7681" font-size="10" font-family="'Segoe UI', sans-serif" text-anchor="end">-32,375</text><text x="64" y="283" fill="#6e7681" font-size="10" font-family="'Segoe UI', sans-serif" text-anchor="end">0</text><path d="M 72 279 L 72 246.43558301158302 L 96.53333333333333 263.82594594594593 L 121.06666666666666 260.98922007722007 L 145.60000000000002 277.23592277992276 L 170.13333333333333 158 L 194.66666666666669 158 L 219.20000000000002 158 L 243.73333333333335 196.6116138996139 L 268.26666666666665 276.78742857142856 L 292.8 261.31811583011586 L 317.33333333333337 231.51567567567568 L 341.8666666666667 229.5460386100386 L 366.40000000000003 261.34801544401546 L 390.93333333333334 263.21300386100387 L 415.4666666666667 266.07215444015446 L 440 200.68917374517372 L 464.53333333333336 235.45121235521236 L 489.0666666666667 246.2823474903475 L 513.6 158 L 538.1333333333334 209.8683552123552 L 562.6666666666667 158 L 587.2 204.7592586872587 L 611.7333333333333 254.66171428571428 L 636.2666666666667 226.06647104247105 L 660.8000000000001 278.2824092664093 L 685.3333333333334 279 L 709.8666666666667 272.2127876447876 L 734.4000000000001 279 L 758.9333333333334 263.13077992277994 L 783.4666666666667 279 L 808 278.7196911196911 L 808 279 Z" fill="#3fb950" opacity="0.15"/><path d="M 72 279 L 72 246.43558301158302 L 96.53333333333333 263.82594594594593 L 121.06666666666666 260.98922007722007 L 145.60000000000002 277.23592277992276 L 170.13333333333333 158 L 194.66666666666669 158 L 219.20000000000002 158 L 243.73333333333335 196.6116138996139 L 268.26666666666665 276.78742857142856 L 292.8 261.31811583011586 L 317.33333333333337 231.51567567567568 L 341.8666666666667 229.5460386100386 L 366.40000000000003 261.34801544401546 L 390.93333333333334 263.21300386100387 L 415.4666666666667 266.07215444015446 L 440 200.68917374517372 L 464.53333333333336 235.45121235521236 L 489.0666666666667 246.2823474903475 L 513.6 158 L 538.1333333333334 209.8683552123552 L 562.6666666666667 158 L 587.2 204.7592586872587 L 611.7333333333333 254.66171428571428 L 636.2666666666667 226.06647104247105 L 660.8000000000001 278.2824092664093 L 685.3333333333334 279 L 709.8666666666667 272.2127876447876 L 734.4000000000001 279 L 758.9333333333334 263.13077992277994 L 783.4666666666667 279 L 808 278.7196911196911" fill="none" stroke="#3fb950" stroke-width="2"/><path d="M 72 279 L 72 291.4232895752896 L 96.53333333333333 282.61037837837836 L 121.06666666666666 280.98084942084944 L 145.60000000000002 279.3625328185328 L 170.13333333333333 283.87363706563707 L 194.66666666666669 288.87808494208497 L 219.20000000000002 400 L 243.73333333333335 311.5569420849421 L 268.26666666666665 280.46508108108105 L 292.8 292.6117992277992 L 317.33333333333337 299.3354749034749 L 341.8666666666667 293.73303474903474 L 366.40000000000003 282.19552123552126 L 390.93333333333334 284.08667181467183 L 415.4666666666667 285.2191196911197 L 440 296.2446023166023 L 464.53333333333336 298.4609111969112 L 489.0666666666667 281.672277992278 L 513.6 329.6574208494209 L 538.1333333333334 400 L 562.6666666666667 393.0745019305019 L 587.2 299.34294980694983 L 611.7333333333333 282.7636138996139 L 636.2666666666667 286.54217760617763 L 660.8000000000001 279.2242471042471 L 685.3333333333334 279 L 709.8666666666667 279.04111196911197 L 734.4000000000001 279 L 758.9333333333334 279.30647104247106 L 783.4666666666667 279 L 808 279.3326332046332 L 808 279 Z" fill="#f85149" opacity="0.15"/><path d="M 72 279 L 72 291.4232895752896 L 96.53333333333333 282.61037837837836 L 121.06666666666666 280.98084942084944 L 145.60000000000002 279.3625328185328 L 170.13333333333333 283.87363706563707 L 194.66666666666669 288.87808494208497 L 219.20000000000002 400 L 243.73333333333335 311.5569420849421 L 268.26666666666665 280.46508108108105 L 292.8 292.6117992277992 L 317.33333333333337 299.3354749034749 L 341.8666666666667 293.73303474903474 L 366.40000000000003 282.19552123552126 L 390.93333333333334 284.08667181467183 L 415.4666666666667 285.2191196911197 L 440 296.2446023166023 L 464.53333333333336 298.4609111969112 L 489.0666666666667 281.672277992278 L 513.6 329.6574208494209 L 538.1333333333334 400 L 562.6666666666667 393.0745019305019 L 587.2 299.34294980694983 L 611.7333333333333 282.7636138996139 L 636.2666666666667 286.54217760617763 L 660.8000000000001 279.2242471042471 L 685.3333333333334 279 L 709.8666666666667 279.04111196911197 L 734.4000000000001 279 L 758.9333333333334 279.30647104247106 L 783.4666666666667 279 L 808 279.3326332046332" fill="none" stroke="#f85149" stroke-width="2"/><text x="72" y="426" fill="#6e7681" font-size="10" font-family="'Segoe UI', sans-serif" text-anchor="middle">May 13</text><text x="194.66666666666669" y="426" fill="#6e7681" font-size="10" font-family="'Segoe UI', sans-serif" text-anchor="middle">May 18</text><text x="317.33333333333337" y="426" fill="#6e7681" font-size="10" font-family="'Segoe UI', sans-serif" text-anchor="middle">May 23</text><text x="440" y="426" fill="#6e7681" font-size="10" font-family="'Segoe UI', sans-serif" text-anchor="middle">May 28</text><text x="562.6666666666667" y="426" fill="#6e7681" font-size="10" font-family="'Segoe UI', sans-serif" text-anchor="middle">Jun 2</text><text x="685.3333333333334" y="426" fill="#6e7681" font-size="10" font-family="'Segoe UI', sans-serif" text-anchor="middle">Jun 7</text><text x="808" y="426" fill="#6e7681" font-size="10" font-family="'Segoe UI', sans-serif" text-anchor="middle">Jun 12</text>
  </g>

  <g class="cpd-legend">
    
    <circle cx="30" cy="442" r="5" fill="#3fb950"/>
    <text x="40" y="446" fill="#8b949e" font-size="11" font-family="'Segoe UI', sans-serif">Additions</text>
    <circle cx="124" cy="442" r="5" fill="#f85149"/>
    <text x="134" y="446" fill="#8b949e" font-size="11" font-family="'Segoe UI', sans-serif">Deletions</text>
    <text x="816" y="446" fill="#6e7681" font-size="10" font-family="'Segoe UI', sans-serif" text-anchor="end">Last 31 days · +523,736 / -195,617 lines</text>
  </g>

  <a href="https://github.com/mpge/code-per-day" target="_blank">
    <text x="420" y="452" fill="#6e7681" font-size="10" font-family="'Segoe UI', sans-serif" text-anchor="middle" opacity="0.6">Get your own - github.com/mpge/code-per-day</text>
  </a>
</svg>