<svg width="840" height="460" viewBox="0 0 840 460" xmlns="http://www.w3.org/2000/svg">
  
    <style>
      @keyframes fadeInUp {
        from { opacity: 0; transform: translateY(12px); }
        to   { opacity: 1; transform: translateY(0); }
      }
      @keyframes growBar {
        from { transform: scaleY(0); }
        to   { transform: scaleY(1); }
      }
      .cpd-header  { animation: fadeInUp 0.5s ease both; }
      .cpd-stats   { animation: fadeInUp 0.5s ease 0.15s both; }
      .cpd-chart   { animation: fadeInUp 0.5s ease 0.3s both; }
      .cpd-legend  { animation: fadeInUp 0.5s ease 0.45s both; }
    </style>

  <rect width="840" height="460" rx="12" fill="#0d1117" stroke="#30363d" stroke-width="1"/>

  <g class="cpd-header">
    <a href="https://github.com/mpge/code-per-day" target="_blank">
      <text x="24" y="44" fill="#e6edf3" font-size="18" font-family="'Segoe UI', sans-serif" font-weight="700">Code Per Day</text>
    </a>
    <text x="816" y="44" fill="#6e7681" font-size="13" font-family="'Segoe UI', sans-serif" text-anchor="end" font-weight="500">@mpge</text>
  </g>

  <g class="cpd-stats">
    
    <rect x="24" y="60" width="190" height="68" rx="8" fill="#0d1117" stroke="#30363d" stroke-width="1"/>
    <text x="119" y="78" fill="#6e7681" font-size="11" font-family="'Segoe UI', sans-serif" text-anchor="middle" font-weight="500">Today</text>
    <text x="119" y="100" fill="#3fb950" font-size="16" font-family="'Segoe UI Mono', 'Cascadia Code', monospace" text-anchor="middle" font-weight="700">+0</text>
    <text x="119" y="118" fill="#f85149" font-size="14" font-family="'Segoe UI Mono', 'Cascadia Code', monospace" text-anchor="middle" font-weight="600">+0</text>
    <rect x="222" y="60" width="190" height="68" rx="8" fill="#0d1117" stroke="#30363d" stroke-width="1"/>
    <text x="317" y="78" fill="#6e7681" font-size="11" font-family="'Segoe UI', sans-serif" text-anchor="middle" font-weight="500">30d Avg</text>
    <text x="317" y="100" fill="#3fb950" font-size="16" font-family="'Segoe UI Mono', 'Cascadia Code', monospace" text-anchor="middle" font-weight="700">+10,459</text>
    <text x="317" y="118" fill="#f85149" font-size="14" font-family="'Segoe UI Mono', 'Cascadia Code', monospace" text-anchor="middle" font-weight="600">-4,325</text>
    <rect x="420" y="60" width="190" height="68" rx="8" fill="#0d1117" stroke="#30363d" stroke-width="1"/>
    <text x="515" y="78" fill="#6e7681" font-size="11" font-family="'Segoe UI', sans-serif" text-anchor="middle" font-weight="500">Year Avg</text>
    <text x="515" y="100" fill="#3fb950" font-size="16" font-family="'Segoe UI Mono', 'Cascadia Code', monospace" text-anchor="middle" font-weight="700">+25,744</text>
    <text x="515" y="118" fill="#f85149" font-size="14" font-family="'Segoe UI Mono', 'Cascadia Code', monospace" text-anchor="middle" font-weight="600">-7,109</text>
    <rect x="618" y="60" width="190" height="68" rx="8" fill="#0d1117" stroke="#30363d" stroke-width="1"/>
    <text x="713" y="78" fill="#6e7681" font-size="11" font-family="'Segoe UI', sans-serif" text-anchor="middle" font-weight="500">Streak</text>
    <text x="713" y="104" fill="#58a6ff" font-size="20" font-family="'Segoe UI Mono', 'Cascadia Code', monospace" text-anchor="middle" font-weight="700">206</text>
    <text x="713" y="120" fill="#6e7681" font-size="11" font-family="'Segoe UI', sans-serif" text-anchor="middle">days</text>
  </g>

  <g class="cpd-chart">
    <line x1="72" y1="148" x2="808" y2="148" stroke="#21262d" stroke-width="1" stroke-dasharray="4,4"/><line x1="72" y1="213.5" x2="808" y2="213.5" stroke="#21262d" stroke-width="1" stroke-dasharray="4,4"/><line x1="72" y1="279" x2="808" y2="279" stroke="#21262d" stroke-width="1" stroke-dasharray="4,4"/><line x1="72" y1="344.5" x2="808" y2="344.5" stroke="#21262d" stroke-width="1" stroke-dasharray="4,4"/><line x1="72" y1="410" x2="808" y2="410" stroke="#21262d" stroke-width="1" stroke-dasharray="4,4"/><line x1="72" y1="279" x2="808" y2="279" stroke="#30363d" stroke-width="1.5"/><text x="64" y="162" fill="#6e7681" font-size="10" font-family="'Segoe UI', sans-serif" text-anchor="end">+28,053</text><text x="64" y="406" fill="#6e7681" font-size="10" font-family="'Segoe UI', sans-serif" text-anchor="end">-28,053</text><text x="64" y="283" fill="#6e7681" font-size="10" font-family="'Segoe UI', sans-serif" text-anchor="end">0</text><path d="M 72 279 L 72 224.19997861191317 L 96.53333333333333 221.92688838983352 L 121.06666666666666 258.62845328485366 L 145.60000000000002 260.7807721099348 L 170.13333333333333 264.080419206502 L 194.66666666666669 188.62417566748655 L 219.20000000000002 228.74184579189392 L 243.73333333333335 241.24168538124266 L 268.26666666666665 158 L 292.8 199.21755248992977 L 317.33333333333337 158 L 341.8666666666667 193.32132035789397 L 366.40000000000003 250.91202366948278 L 390.93333333333334 217.9112394396321 L 415.4666666666667 278.1718532777243 L 440 279 L 464.53333333333336 271.1671122518091 L 489.0666666666667 279 L 513.6 260.68588029800736 L 538.1333333333334 279 L 562.6666666666667 278.67650518661105 L 587.2 277.28332085694933 L 611.7333333333333 258.8829358713863 L 636.2666666666667 275.9030763198232 L 660.8000000000001 279 L 685.3333333333334 272.83634548889603 L 709.8666666666667 257.7701137133283 L 734.4000000000001 254.96649199729083 L 758.9333333333334 265.75396570776746 L 783.4666666666667 158 L 808 279 L 808 279 Z" fill="#3fb950" opacity="0.15"/><path d="M 72 279 L 72 224.19997861191317 L 96.53333333333333 221.92688838983352 L 121.06666666666666 258.62845328485366 L 145.60000000000002 260.7807721099348 L 170.13333333333333 264.080419206502 L 194.66666666666669 188.62417566748655 L 219.20000000000002 228.74184579189392 L 243.73333333333335 241.24168538124266 L 268.26666666666665 158 L 292.8 199.21755248992977 L 317.33333333333337 158 L 341.8666666666667 193.32132035789397 L 366.40000000000003 250.91202366948278 L 390.93333333333334 217.9112394396321 L 415.4666666666667 278.1718532777243 L 440 279 L 464.53333333333336 271.1671122518091 L 489.0666666666667 279 L 513.6 260.68588029800736 L 538.1333333333334 279 L 562.6666666666667 278.67650518661105 L 587.2 277.28332085694933 L 611.7333333333333 258.8829358713863 L 636.2666666666667 275.9030763198232 L 660.8000000000001 279 L 685.3333333333334 272.83634548889603 L 709.8666666666667 257.7701137133283 L 734.4000000000001 254.96649199729083 L 758.9333333333334 265.75396570776746 L 783.4666666666667 158 L 808 279" fill="none" stroke="#3fb950" stroke-width="2"/><path d="M 72 279 L 72 302.46847039532315 L 96.53333333333333 296.0028873917228 L 121.06666666666666 282.68784087263396 L 145.60000000000002 284.8703525469647 L 170.13333333333333 286.177271593056 L 194.66666666666669 298.9014009196877 L 219.20000000000002 301.45916657754964 L 243.73333333333335 282.08398388764124 L 268.26666666666665 337.46198267564966 L 292.8 400 L 317.33333333333337 400 L 341.8666666666667 302.47709692368016 L 366.40000000000003 283.34345702776886 L 390.93333333333334 287.7041671122518 L 415.4666666666667 279.2587958507112 L 440 279 L 464.53333333333336 279.0474459059637 L 489.0666666666667 279 L 513.6 279.35368766263855 L 538.1333333333334 279 L 562.6666666666667 279.3838805118882 L 587.2 279.905785477489 L 611.7333333333333 298.56927957794176 L 636.2666666666667 279.1293979253556 L 660.8000000000001 279 L 685.3333333333334 280.5268955191958 L 709.8666666666667 281.234270844473 L 734.4000000000001 283.1795529889851 L 758.9333333333334 279.47877232381563 L 783.4666666666667 303.3440630235625 L 808 279 L 808 279 Z" fill="#f85149" opacity="0.15"/><path d="M 72 279 L 72 302.46847039532315 L 96.53333333333333 296.0028873917228 L 121.06666666666666 282.68784087263396 L 145.60000000000002 284.8703525469647 L 170.13333333333333 286.177271593056 L 194.66666666666669 298.9014009196877 L 219.20000000000002 301.45916657754964 L 243.73333333333335 282.08398388764124 L 268.26666666666665 337.46198267564966 L 292.8 400 L 317.33333333333337 400 L 341.8666666666667 302.47709692368016 L 366.40000000000003 283.34345702776886 L 390.93333333333334 287.7041671122518 L 415.4666666666667 279.2587958507112 L 440 279 L 464.53333333333336 279.0474459059637 L 489.0666666666667 279 L 513.6 279.35368766263855 L 538.1333333333334 279 L 562.6666666666667 279.3838805118882 L 587.2 279.905785477489 L 611.7333333333333 298.56927957794176 L 636.2666666666667 279.1293979253556 L 660.8000000000001 279 L 685.3333333333334 280.5268955191958 L 709.8666666666667 281.234270844473 L 734.4000000000001 283.1795529889851 L 758.9333333333334 279.47877232381563 L 783.4666666666667 303.3440630235625 L 808 279" fill="none" stroke="#f85149" stroke-width="2"/><text x="72" y="426" fill="#6e7681" font-size="10" font-family="'Segoe UI', sans-serif" text-anchor="middle">May 23</text><text x="194.66666666666669" y="426" fill="#6e7681" font-size="10" font-family="'Segoe UI', sans-serif" text-anchor="middle">May 28</text><text x="317.33333333333337" y="426" fill="#6e7681" font-size="10" font-family="'Segoe UI', sans-serif" text-anchor="middle">Jun 2</text><text x="440" y="426" fill="#6e7681" font-size="10" font-family="'Segoe UI', sans-serif" text-anchor="middle">Jun 7</text><text x="562.6666666666667" y="426" fill="#6e7681" font-size="10" font-family="'Segoe UI', sans-serif" text-anchor="middle">Jun 12</text><text x="685.3333333333334" y="426" fill="#6e7681" font-size="10" font-family="'Segoe UI', sans-serif" text-anchor="middle">Jun 17</text><text x="808" y="426" fill="#6e7681" font-size="10" font-family="'Segoe UI', sans-serif" text-anchor="middle">Jun 22</text>
  </g>

  <g class="cpd-legend">
    
    <circle cx="30" cy="442" r="5" fill="#3fb950"/>
    <text x="40" y="446" fill="#8b949e" font-size="11" font-family="'Segoe UI', sans-serif">Additions</text>
    <circle cx="124" cy="442" r="5" fill="#f85149"/>
    <text x="134" y="446" fill="#8b949e" font-size="11" font-family="'Segoe UI', sans-serif">Deletions</text>
    <text x="816" y="446" fill="#6e7681" font-size="10" font-family="'Segoe UI', sans-serif" text-anchor="end">Last 31 days · +324,235 / -134,079 lines</text>
  </g>

  <a href="https://github.com/mpge/code-per-day" target="_blank">
    <text x="420" y="452" fill="#6e7681" font-size="10" font-family="'Segoe UI', sans-serif" text-anchor="middle" opacity="0.6">Get your own - github.com/mpge/code-per-day</text>
  </a>
</svg>