<svg width="840" height="460" viewBox="0 0 840 460" xmlns="http://www.w3.org/2000/svg">
  
    <style>
      @keyframes fadeInUp {
        from { opacity: 0; transform: translateY(12px); }
        to   { opacity: 1; transform: translateY(0); }
      }
      @keyframes growBar {
        from { transform: scaleY(0); }
        to   { transform: scaleY(1); }
      }
      .cpd-header  { animation: fadeInUp 0.5s ease both; }
      .cpd-stats   { animation: fadeInUp 0.5s ease 0.15s both; }
      .cpd-chart   { animation: fadeInUp 0.5s ease 0.3s both; }
      .cpd-legend  { animation: fadeInUp 0.5s ease 0.45s both; }
    </style>

  <rect width="840" height="460" rx="12" fill="transparent" />

  <g class="cpd-header">
    <a href="https://github.com/mpge/code-per-day" target="_blank">
      <text x="24" y="44" fill="#e6edf3" font-size="18" font-family="'Segoe UI', sans-serif" font-weight="700">Code Per Day</text>
    </a>
    <text x="816" y="44" fill="#6e7681" font-size="13" font-family="'Segoe UI', sans-serif" text-anchor="end" font-weight="500">@mpge</text>
  </g>

  <g class="cpd-stats">
    
    <rect x="24" y="60" width="190" height="68" rx="8" fill="rgba(13,17,23,0.6)" stroke="#30363d" stroke-width="1"/>
    <text x="119" y="78" fill="#6e7681" font-size="11" font-family="'Segoe UI', sans-serif" text-anchor="middle" font-weight="500">Today</text>
    <text x="119" y="100" fill="#3fb950" font-size="16" font-family="'Segoe UI Mono', 'Cascadia Code', monospace" text-anchor="middle" font-weight="700">+643</text>
    <text x="119" y="118" fill="#f85149" font-size="14" font-family="'Segoe UI Mono', 'Cascadia Code', monospace" text-anchor="middle" font-weight="600">-35</text>
    <rect x="222" y="60" width="190" height="68" rx="8" fill="rgba(13,17,23,0.6)" stroke="#30363d" stroke-width="1"/>
    <text x="317" y="78" fill="#6e7681" font-size="11" font-family="'Segoe UI', sans-serif" text-anchor="middle" font-weight="500">30d Avg</text>
    <text x="317" y="100" fill="#3fb950" font-size="16" font-family="'Segoe UI Mono', 'Cascadia Code', monospace" text-anchor="middle" font-weight="700">+18,475</text>
    <text x="317" y="118" fill="#f85149" font-size="14" font-family="'Segoe UI Mono', 'Cascadia Code', monospace" text-anchor="middle" font-weight="600">-6,722</text>
    <rect x="420" y="60" width="190" height="68" rx="8" fill="rgba(13,17,23,0.6)" stroke="#30363d" stroke-width="1"/>
    <text x="515" y="78" fill="#6e7681" font-size="11" font-family="'Segoe UI', sans-serif" text-anchor="middle" font-weight="500">Year Avg</text>
    <text x="515" y="100" fill="#3fb950" font-size="16" font-family="'Segoe UI Mono', 'Cascadia Code', monospace" text-anchor="middle" font-weight="700">+25,284</text>
    <text x="515" y="118" fill="#f85149" font-size="14" font-family="'Segoe UI Mono', 'Cascadia Code', monospace" text-anchor="middle" font-weight="600">-6,978</text>
    <rect x="618" y="60" width="190" height="68" rx="8" fill="rgba(13,17,23,0.6)" stroke="#30363d" stroke-width="1"/>
    <text x="713" y="78" fill="#6e7681" font-size="11" font-family="'Segoe UI', sans-serif" text-anchor="middle" font-weight="500">Streak</text>
    <text x="713" y="104" fill="#58a6ff" font-size="20" font-family="'Segoe UI Mono', 'Cascadia Code', monospace" text-anchor="middle" font-weight="700">186</text>
    <text x="713" y="120" fill="#6e7681" font-size="11" font-family="'Segoe UI', sans-serif" text-anchor="middle">days</text>
  </g>

  <g class="cpd-chart">
    <line x1="72" y1="148" x2="808" y2="148" stroke="rgba(33,38,45,0.6)" stroke-width="1" stroke-dasharray="4,4"/><line x1="72" y1="213.5" x2="808" y2="213.5" stroke="rgba(33,38,45,0.6)" stroke-width="1" stroke-dasharray="4,4"/><line x1="72" y1="279" x2="808" y2="279" stroke="rgba(33,38,45,0.6)" stroke-width="1" stroke-dasharray="4,4"/><line x1="72" y1="344.5" x2="808" y2="344.5" stroke="rgba(33,38,45,0.6)" stroke-width="1" stroke-dasharray="4,4"/><line x1="72" y1="410" x2="808" y2="410" stroke="rgba(33,38,45,0.6)" stroke-width="1" stroke-dasharray="4,4"/><line x1="72" y1="279" x2="808" y2="279" stroke="#30363d" stroke-width="1.5"/><text x="64" y="162" fill="#6e7681" font-size="10" font-family="'Segoe UI', sans-serif" text-anchor="end">+31,126</text><text x="64" y="406" fill="#6e7681" font-size="10" font-family="'Segoe UI', sans-serif" text-anchor="end">-31,126</text><text x="64" y="283" fill="#6e7681" font-size="10" font-family="'Segoe UI', sans-serif" text-anchor="end">0</text><path d="M 72 279 L 72 255.24783139497526 L 96.53333333333333 265.90326415215577 L 121.06666666666666 191.6301163014843 L 145.60000000000002 247.53129216731992 L 170.13333333333333 207.31587740152926 L 194.66666666666669 158 L 219.20000000000002 273.93468482940307 L 243.73333333333335 232.51805564479855 L 268.26666666666665 220.3854012722483 L 292.8 265.7088928869755 L 317.33333333333337 245.12886332969222 L 341.8666666666667 263.2170532673649 L 366.40000000000003 260.2664974619289 L 390.93333333333334 277.1651352566986 L 415.4666666666667 158 L 440 158 L 464.53333333333336 158 L 489.0666666666667 193.30559660733792 L 513.6 276.69864422026603 L 538.1333333333334 260.6085908886462 L 562.6666666666667 229.61026151770224 L 587.2 227.56158838270255 L 611.7333333333333 260.639690291075 L 636.2666666666667 262.5795155175737 L 660.8000000000001 265.5533958748313 L 685.3333333333334 197.54677761357067 L 709.8666666666667 233.703720362398 L 734.4000000000001 244.9694788922444 L 758.9333333333334 158 L 783.4666666666667 207.0942941592238 L 808 276.5003855297822 L 808 279 Z" fill="#3fb950" opacity="0.15"/><path d="M 72 279 L 72 255.24783139497526 L 96.53333333333333 265.90326415215577 L 121.06666666666666 191.6301163014843 L 145.60000000000002 247.53129216731992 L 170.13333333333333 207.31587740152926 L 194.66666666666669 158 L 219.20000000000002 273.93468482940307 L 243.73333333333335 232.51805564479855 L 268.26666666666665 220.3854012722483 L 292.8 265.7088928869755 L 317.33333333333337 245.12886332969222 L 341.8666666666667 263.2170532673649 L 366.40000000000003 260.2664974619289 L 390.93333333333334 277.1651352566986 L 415.4666666666667 158 L 440 158 L 464.53333333333336 158 L 489.0666666666667 193.30559660733792 L 513.6 276.69864422026603 L 538.1333333333334 260.6085908886462 L 562.6666666666667 229.61026151770224 L 587.2 227.56158838270255 L 611.7333333333333 260.639690291075 L 636.2666666666667 262.5795155175737 L 660.8000000000001 265.5533958748313 L 685.3333333333334 197.54677761357067 L 709.8666666666667 233.703720362398 L 734.4000000000001 244.9694788922444 L 758.9333333333334 158 L 783.4666666666667 207.0942941592238 L 808 276.5003855297822" fill="none" stroke="#3fb950" stroke-width="2"/><path d="M 72 279 L 72 290.0791621152734 L 96.53333333333333 283.956467262096 L 121.06666666666666 286.18396196106147 L 145.60000000000002 282.02830431150807 L 170.13333333333333 297.0532031099402 L 194.66666666666669 400 L 219.20000000000002 281.00591145666004 L 243.73333333333335 283.2217438797147 L 268.26666666666665 289.7526183897706 L 292.8 279.37319282914603 L 317.33333333333337 291.92180170918203 L 341.8666666666667 282.75525284328216 L 366.40000000000003 281.0603354109105 L 390.93333333333334 279.37708025444965 L 415.4666666666667 284.06920259590055 L 440 289.27446507742724 L 464.53333333333336 400 L 489.0666666666667 312.8633618197006 L 513.6 280.523870719013 L 538.1333333333334 293.1580029557283 L 562.6666666666667 300.15148107691317 L 587.2 294.32423054680976 L 611.7333333333333 282.32374863458205 L 636.2666666666667 284.290785838206 L 660.8000000000001 285.4686757051982 L 685.3333333333334 296.9365803508321 L 709.8666666666667 299.2418235558697 L 734.4000000000001 281.7795090920774 L 758.9333333333334 331.69016256505813 L 783.4666666666667 400 L 808 279.13605988562614 L 808 279 Z" fill="#f85149" opacity="0.15"/><path d="M 72 279 L 72 290.0791621152734 L 96.53333333333333 283.956467262096 L 121.06666666666666 286.18396196106147 L 145.60000000000002 282.02830431150807 L 170.13333333333333 297.0532031099402 L 194.66666666666669 400 L 219.20000000000002 281.00591145666004 L 243.73333333333335 283.2217438797147 L 268.26666666666665 289.7526183897706 L 292.8 279.37319282914603 L 317.33333333333337 291.92180170918203 L 341.8666666666667 282.75525284328216 L 366.40000000000003 281.0603354109105 L 390.93333333333334 279.37708025444965 L 415.4666666666667 284.06920259590055 L 440 289.27446507742724 L 464.53333333333336 400 L 489.0666666666667 312.8633618197006 L 513.6 280.523870719013 L 538.1333333333334 293.1580029557283 L 562.6666666666667 300.15148107691317 L 587.2 294.32423054680976 L 611.7333333333333 282.32374863458205 L 636.2666666666667 284.290785838206 L 660.8000000000001 285.4686757051982 L 685.3333333333334 296.9365803508321 L 709.8666666666667 299.2418235558697 L 734.4000000000001 281.7795090920774 L 758.9333333333334 331.69016256505813 L 783.4666666666667 400 L 808 279.13605988562614" fill="none" stroke="#f85149" stroke-width="2"/><text x="72" y="426" fill="#6e7681" font-size="10" font-family="'Segoe UI', sans-serif" text-anchor="middle">May 3</text><text x="194.66666666666669" y="426" fill="#6e7681" font-size="10" font-family="'Segoe UI', sans-serif" text-anchor="middle">May 8</text><text x="317.33333333333337" y="426" fill="#6e7681" font-size="10" font-family="'Segoe UI', sans-serif" text-anchor="middle">May 13</text><text x="440" y="426" fill="#6e7681" font-size="10" font-family="'Segoe UI', sans-serif" text-anchor="middle">May 18</text><text x="562.6666666666667" y="426" fill="#6e7681" font-size="10" font-family="'Segoe UI', sans-serif" text-anchor="middle">May 23</text><text x="685.3333333333334" y="426" fill="#6e7681" font-size="10" font-family="'Segoe UI', sans-serif" text-anchor="middle">May 28</text><text x="808" y="426" fill="#6e7681" font-size="10" font-family="'Segoe UI', sans-serif" text-anchor="middle">Jun 2</text>
  </g>

  <g class="cpd-legend">
    
    <circle cx="30" cy="442" r="5" fill="#3fb950"/>
    <text x="40" y="446" fill="#8b949e" font-size="11" font-family="'Segoe UI', sans-serif">Additions</text>
    <circle cx="124" cy="442" r="5" fill="#f85149"/>
    <text x="134" y="446" fill="#8b949e" font-size="11" font-family="'Segoe UI', sans-serif">Deletions</text>
    <text x="816" y="446" fill="#6e7681" font-size="10" font-family="'Segoe UI', sans-serif" text-anchor="end">Last 31 days · +572,717 / -208,375 lines</text>
  </g>

  <a href="https://github.com/mpge/code-per-day" target="_blank">
    <text x="420" y="452" fill="#6e7681" font-size="10" font-family="'Segoe UI', sans-serif" text-anchor="middle" opacity="0.6">Get your own - github.com/mpge/code-per-day</text>
  </a>
</svg>