<svg width="840" height="460" viewBox="0 0 840 460" xmlns="http://www.w3.org/2000/svg">
  
    <style>
      @keyframes fadeInUp {
        from { opacity: 0; transform: translateY(12px); }
        to   { opacity: 1; transform: translateY(0); }
      }
      @keyframes growBar {
        from { transform: scaleY(0); }
        to   { transform: scaleY(1); }
      }
      .cpd-header  { animation: fadeInUp 0.5s ease both; }
      .cpd-stats   { animation: fadeInUp 0.5s ease 0.15s both; }
      .cpd-chart   { animation: fadeInUp 0.5s ease 0.3s both; }
      .cpd-legend  { animation: fadeInUp 0.5s ease 0.45s both; }
    </style>

  <rect width="840" height="460" rx="12" fill="#0d1117" stroke="#30363d" stroke-width="1"/>

  <g class="cpd-header">
    <a href="https://github.com/mpge/code-per-day" target="_blank">
      <text x="24" y="44" fill="#e6edf3" font-size="18" font-family="'Segoe UI', sans-serif" font-weight="700">Code Per Day</text>
    </a>
    <text x="816" y="44" fill="#6e7681" font-size="13" font-family="'Segoe UI', sans-serif" text-anchor="end" font-weight="500">@mpge</text>
  </g>

  <g class="cpd-stats">
    
    <rect x="24" y="60" width="190" height="68" rx="8" fill="#0d1117" stroke="#30363d" stroke-width="1"/>
    <text x="119" y="78" fill="#6e7681" font-size="11" font-family="'Segoe UI', sans-serif" text-anchor="middle" font-weight="500">Today</text>
    <text x="119" y="100" fill="#3fb950" font-size="16" font-family="'Segoe UI Mono', 'Cascadia Code', monospace" text-anchor="middle" font-weight="700">+718</text>
    <text x="119" y="118" fill="#f85149" font-size="14" font-family="'Segoe UI Mono', 'Cascadia Code', monospace" text-anchor="middle" font-weight="600">-30</text>
    <rect x="222" y="60" width="190" height="68" rx="8" fill="#0d1117" stroke="#30363d" stroke-width="1"/>
    <text x="317" y="78" fill="#6e7681" font-size="11" font-family="'Segoe UI', sans-serif" text-anchor="middle" font-weight="500">30d Avg</text>
    <text x="317" y="100" fill="#3fb950" font-size="16" font-family="'Segoe UI Mono', 'Cascadia Code', monospace" text-anchor="middle" font-weight="700">+16,514</text>
    <text x="317" y="118" fill="#f85149" font-size="14" font-family="'Segoe UI Mono', 'Cascadia Code', monospace" text-anchor="middle" font-weight="600">-6,309</text>
    <rect x="420" y="60" width="190" height="68" rx="8" fill="#0d1117" stroke="#30363d" stroke-width="1"/>
    <text x="515" y="78" fill="#6e7681" font-size="11" font-family="'Segoe UI', sans-serif" text-anchor="middle" font-weight="500">Year Avg</text>
    <text x="515" y="100" fill="#3fb950" font-size="16" font-family="'Segoe UI Mono', 'Cascadia Code', monospace" text-anchor="middle" font-weight="700">+25,511</text>
    <text x="515" y="118" fill="#f85149" font-size="14" font-family="'Segoe UI Mono', 'Cascadia Code', monospace" text-anchor="middle" font-weight="600">-7,088</text>
    <rect x="618" y="60" width="190" height="68" rx="8" fill="#0d1117" stroke="#30363d" stroke-width="1"/>
    <text x="713" y="78" fill="#6e7681" font-size="11" font-family="'Segoe UI', sans-serif" text-anchor="middle" font-weight="500">Streak</text>
    <text x="713" y="104" fill="#58a6ff" font-size="20" font-family="'Segoe UI Mono', 'Cascadia Code', monospace" text-anchor="middle" font-weight="700">200</text>
    <text x="713" y="120" fill="#6e7681" font-size="11" font-family="'Segoe UI', sans-serif" text-anchor="middle">days</text>
  </g>

  <g class="cpd-chart">
    <line x1="72" y1="148" x2="808" y2="148" stroke="#21262d" stroke-width="1" stroke-dasharray="4,4"/><line x1="72" y1="213.5" x2="808" y2="213.5" stroke="#21262d" stroke-width="1" stroke-dasharray="4,4"/><line x1="72" y1="279" x2="808" y2="279" stroke="#21262d" stroke-width="1" stroke-dasharray="4,4"/><line x1="72" y1="344.5" x2="808" y2="344.5" stroke="#21262d" stroke-width="1" stroke-dasharray="4,4"/><line x1="72" y1="410" x2="808" y2="410" stroke="#21262d" stroke-width="1" stroke-dasharray="4,4"/><line x1="72" y1="279" x2="808" y2="279" stroke="#30363d" stroke-width="1.5"/><text x="64" y="162" fill="#6e7681" font-size="10" font-family="'Segoe UI', sans-serif" text-anchor="end">+32,808</text><text x="64" y="406" fill="#6e7681" font-size="10" font-family="'Segoe UI', sans-serif" text-anchor="end">-32,808</text><text x="64" y="283" fill="#6e7681" font-size="10" font-family="'Segoe UI', sans-serif" text-anchor="end">0</text><path d="M 72 279 L 72 277.25920507193365 L 96.53333333333333 158 L 121.06666666666666 158 L 145.60000000000002 158 L 170.13333333333333 197.69897585954647 L 194.66666666666669 276.8166300902219 L 219.20000000000002 261.5514813460132 L 243.73333333333335 232.14237381126554 L 268.26666666666665 230.19873201658132 L 292.8 261.5809863447939 L 317.33333333333337 263.4213606437454 L 341.8666666666667 266.242776152158 L 366.40000000000003 201.72272006827603 L 390.93333333333334 236.0259692757864 L 415.4666666666667 246.71415508412582 L 440 158 L 464.53333333333336 210.7807546939771 L 489.0666666666667 158 L 513.6 205.7390880273104 L 538.1333333333334 254.98293099244086 L 562.6666666666667 226.76508778346744 L 587.2 278.29188002926116 L 611.7333333333333 279 L 636.2666666666667 272.30236527676175 L 660.8000000000001 279 L 685.3333333333334 263.3402218970983 L 709.8666666666667 279 L 734.4000000000001 278.72339063643017 L 758.9333333333334 277.53212631065594 L 783.4666666666667 261.79858571080223 L 808 276.3519263594245 L 808 279 Z" fill="#3fb950" opacity="0.15"/><path d="M 72 279 L 72 277.25920507193365 L 96.53333333333333 158 L 121.06666666666666 158 L 145.60000000000002 158 L 170.13333333333333 197.69897585954647 L 194.66666666666669 276.8166300902219 L 219.20000000000002 261.5514813460132 L 243.73333333333335 232.14237381126554 L 268.26666666666665 230.19873201658132 L 292.8 261.5809863447939 L 317.33333333333337 263.4213606437454 L 341.8666666666667 266.242776152158 L 366.40000000000003 201.72272006827603 L 390.93333333333334 236.0259692757864 L 415.4666666666667 246.71415508412582 L 440 158 L 464.53333333333336 210.7807546939771 L 489.0666666666667 158 L 513.6 205.7390880273104 L 538.1333333333334 254.98293099244086 L 562.6666666666667 226.76508778346744 L 587.2 278.29188002926116 L 611.7333333333333 279 L 636.2666666666667 272.30236527676175 L 660.8000000000001 279 L 685.3333333333334 263.3402218970983 L 709.8666666666667 279 L 734.4000000000001 278.72339063643017 L 758.9333333333334 277.53212631065594 L 783.4666666666667 261.79858571080223 L 808 276.3519263594245" fill="none" stroke="#3fb950" stroke-width="2"/><path d="M 72 279 L 72 279.357748110217 L 96.53333333333333 283.809314801268 L 121.06666666666666 288.7477139722019 L 145.60000000000002 400 L 170.13333333333333 311.12725554742747 L 194.66666666666669 280.44574494025846 L 219.20000000000002 292.43215069495244 L 243.73333333333335 299.0670872957815 L 268.26666666666665 293.5385881492319 L 292.8 282.1533467446964 L 317.33333333333337 284.0195379175811 L 341.8666666666667 285.13703974640333 L 366.40000000000003 296.01700804681786 L 390.93333333333334 298.20406608144356 L 415.4666666666667 281.6370092660327 L 440 328.9888441843453 L 464.53333333333336 400 L 489.0666666666667 391.56894659839065 L 513.6 299.0744635454767 L 538.1333333333334 282.71394172153134 L 562.6666666666667 286.4426359424531 L 587.2 279.2212874908559 L 611.7333333333333 279 L 636.2666666666667 279.0405693733236 L 660.8000000000001 279 L 685.3333333333334 279.302426237503 L 709.8666666666667 279 L 734.4000000000001 279.3282431114362 L 758.9333333333334 279.7745062179956 L 783.4666666666667 295.7330224335528 L 808 279.1106437454279 L 808 279 Z" fill="#f85149" opacity="0.15"/><path d="M 72 279 L 72 279.357748110217 L 96.53333333333333 283.809314801268 L 121.06666666666666 288.7477139722019 L 145.60000000000002 400 L 170.13333333333333 311.12725554742747 L 194.66666666666669 280.44574494025846 L 219.20000000000002 292.43215069495244 L 243.73333333333335 299.0670872957815 L 268.26666666666665 293.5385881492319 L 292.8 282.1533467446964 L 317.33333333333337 284.0195379175811 L 341.8666666666667 285.13703974640333 L 366.40000000000003 296.01700804681786 L 390.93333333333334 298.20406608144356 L 415.4666666666667 281.6370092660327 L 440 328.9888441843453 L 464.53333333333336 400 L 489.0666666666667 391.56894659839065 L 513.6 299.0744635454767 L 538.1333333333334 282.71394172153134 L 562.6666666666667 286.4426359424531 L 587.2 279.2212874908559 L 611.7333333333333 279 L 636.2666666666667 279.0405693733236 L 660.8000000000001 279 L 685.3333333333334 279.302426237503 L 709.8666666666667 279 L 734.4000000000001 279.3282431114362 L 758.9333333333334 279.7745062179956 L 783.4666666666667 295.7330224335528 L 808 279.1106437454279" fill="none" stroke="#f85149" stroke-width="2"/><text x="72" y="426" fill="#6e7681" font-size="10" font-family="'Segoe UI', sans-serif" text-anchor="middle">May 16</text><text x="194.66666666666669" y="426" fill="#6e7681" font-size="10" font-family="'Segoe UI', sans-serif" text-anchor="middle">May 21</text><text x="317.33333333333337" y="426" fill="#6e7681" font-size="10" font-family="'Segoe UI', sans-serif" text-anchor="middle">May 26</text><text x="440" y="426" fill="#6e7681" font-size="10" font-family="'Segoe UI', sans-serif" text-anchor="middle">May 31</text><text x="562.6666666666667" y="426" fill="#6e7681" font-size="10" font-family="'Segoe UI', sans-serif" text-anchor="middle">Jun 5</text><text x="685.3333333333334" y="426" fill="#6e7681" font-size="10" font-family="'Segoe UI', sans-serif" text-anchor="middle">Jun 10</text><text x="808" y="426" fill="#6e7681" font-size="10" font-family="'Segoe UI', sans-serif" text-anchor="middle">Jun 15</text>
  </g>

  <g class="cpd-legend">
    
    <circle cx="30" cy="442" r="5" fill="#3fb950"/>
    <text x="40" y="446" fill="#8b949e" font-size="11" font-family="'Segoe UI', sans-serif">Additions</text>
    <circle cx="124" cy="442" r="5" fill="#f85149"/>
    <text x="134" y="446" fill="#8b949e" font-size="11" font-family="'Segoe UI', sans-serif">Deletions</text>
    <text x="816" y="446" fill="#6e7681" font-size="10" font-family="'Segoe UI', sans-serif" text-anchor="end">Last 31 days · +511,924 / -195,574 lines</text>
  </g>

  <a href="https://github.com/mpge/code-per-day" target="_blank">
    <text x="420" y="452" fill="#6e7681" font-size="10" font-family="'Segoe UI', sans-serif" text-anchor="middle" opacity="0.6">Get your own - github.com/mpge/code-per-day</text>
  </a>
</svg>