<svg width="840" height="460" viewBox="0 0 840 460" xmlns="http://www.w3.org/2000/svg">
  
    <style>
      @keyframes fadeInUp {
        from { opacity: 0; transform: translateY(12px); }
        to   { opacity: 1; transform: translateY(0); }
      }
      @keyframes growBar {
        from { transform: scaleY(0); }
        to   { transform: scaleY(1); }
      }
      .cpd-header  { animation: fadeInUp 0.5s ease both; }
      .cpd-stats   { animation: fadeInUp 0.5s ease 0.15s both; }
      .cpd-chart   { animation: fadeInUp 0.5s ease 0.3s both; }
      .cpd-legend  { animation: fadeInUp 0.5s ease 0.45s both; }
    </style>

  <rect width="840" height="460" rx="12" fill="transparent" />

  <g class="cpd-header">
    <a href="https://github.com/mpge/code-per-day" target="_blank">
      <text x="24" y="44" fill="#e6edf3" font-size="18" font-family="'Segoe UI', sans-serif" font-weight="700">Code Per Day</text>
    </a>
    <text x="816" y="44" fill="#6e7681" font-size="13" font-family="'Segoe UI', sans-serif" text-anchor="end" font-weight="500">@mpge</text>
  </g>

  <g class="cpd-stats">
    
    <rect x="24" y="60" width="190" height="68" rx="8" fill="rgba(13,17,23,0.6)" stroke="#30363d" stroke-width="1"/>
    <text x="119" y="78" fill="#6e7681" font-size="11" font-family="'Segoe UI', sans-serif" text-anchor="middle" font-weight="500">Today</text>
    <text x="119" y="100" fill="#3fb950" font-size="16" font-family="'Segoe UI Mono', 'Cascadia Code', monospace" text-anchor="middle" font-weight="700">+17,579</text>
    <text x="119" y="118" fill="#f85149" font-size="14" font-family="'Segoe UI Mono', 'Cascadia Code', monospace" text-anchor="middle" font-weight="600">-45,095</text>
    <rect x="222" y="60" width="190" height="68" rx="8" fill="rgba(13,17,23,0.6)" stroke="#30363d" stroke-width="1"/>
    <text x="317" y="78" fill="#6e7681" font-size="11" font-family="'Segoe UI', sans-serif" text-anchor="middle" font-weight="500">30d Avg</text>
    <text x="317" y="100" fill="#3fb950" font-size="16" font-family="'Segoe UI Mono', 'Cascadia Code', monospace" text-anchor="middle" font-weight="700">+37,592</text>
    <text x="317" y="118" fill="#f85149" font-size="14" font-family="'Segoe UI Mono', 'Cascadia Code', monospace" text-anchor="middle" font-weight="600">-6,983</text>
    <rect x="420" y="60" width="190" height="68" rx="8" fill="rgba(13,17,23,0.6)" stroke="#30363d" stroke-width="1"/>
    <text x="515" y="78" fill="#6e7681" font-size="11" font-family="'Segoe UI', sans-serif" text-anchor="middle" font-weight="500">Year Avg</text>
    <text x="515" y="100" fill="#3fb950" font-size="16" font-family="'Segoe UI Mono', 'Cascadia Code', monospace" text-anchor="middle" font-weight="700">+25,280</text>
    <text x="515" y="118" fill="#f85149" font-size="14" font-family="'Segoe UI Mono', 'Cascadia Code', monospace" text-anchor="middle" font-weight="600">-6,978</text>
    <rect x="618" y="60" width="190" height="68" rx="8" fill="rgba(13,17,23,0.6)" stroke="#30363d" stroke-width="1"/>
    <text x="713" y="78" fill="#6e7681" font-size="11" font-family="'Segoe UI', sans-serif" text-anchor="middle" font-weight="500">Streak</text>
    <text x="713" y="104" fill="#58a6ff" font-size="20" font-family="'Segoe UI Mono', 'Cascadia Code', monospace" text-anchor="middle" font-weight="700">186</text>
    <text x="713" y="120" fill="#6e7681" font-size="11" font-family="'Segoe UI', sans-serif" text-anchor="middle">days</text>
  </g>

  <g class="cpd-chart">
    <line x1="72" y1="148" x2="808" y2="148" stroke="rgba(33,38,45,0.6)" stroke-width="1" stroke-dasharray="4,4"/><line x1="72" y1="213.5" x2="808" y2="213.5" stroke="rgba(33,38,45,0.6)" stroke-width="1" stroke-dasharray="4,4"/><line x1="72" y1="279" x2="808" y2="279" stroke="rgba(33,38,45,0.6)" stroke-width="1" stroke-dasharray="4,4"/><line x1="72" y1="344.5" x2="808" y2="344.5" stroke="rgba(33,38,45,0.6)" stroke-width="1" stroke-dasharray="4,4"/><line x1="72" y1="410" x2="808" y2="410" stroke="rgba(33,38,45,0.6)" stroke-width="1" stroke-dasharray="4,4"/><line x1="72" y1="279" x2="808" y2="279" stroke="#30363d" stroke-width="1.5"/><text x="64" y="162" fill="#6e7681" font-size="10" font-family="'Segoe UI', sans-serif" text-anchor="end">+31,844</text><text x="64" y="406" fill="#6e7681" font-size="10" font-family="'Segoe UI', sans-serif" text-anchor="end">-31,844</text><text x="64" y="283" fill="#6e7681" font-size="10" font-family="'Segoe UI', sans-serif" text-anchor="end">0</text><path d="M 72 279 L 72 158 L 96.53333333333333 255.7833814847381 L 121.06666666666666 266.19856173847506 L 145.60000000000002 193.60008164803418 L 170.13333333333333 248.24083029770128 L 194.66666666666669 208.93216932546164 L 219.20000000000002 158 L 243.73333333333335 274.04889461122974 L 268.26666666666665 233.56610350458485 L 292.8 221.7070091697023 L 317.33333333333337 266.0085730435875 L 341.8666666666667 245.89257002889084 L 366.40000000000003 263.57291797512875 L 390.93333333333334 260.68888958673534 L 415.4666666666667 277.20650672026125 L 440 158 L 464.53333333333336 158 L 489.0666666666667 158 L 513.6 195.23778419796508 L 538.1333333333334 276.7505338525311 L 562.6666666666667 261.02326968973745 L 587.2 230.7238726290667 L 611.7333333333333 228.72139178495163 L 636.2666666666667 261.0536678809195 L 660.8000000000001 262.9497550558975 L 685.3333333333334 265.85658208767745 L 709.8666666666667 199.383337520412 L 734.4000000000001 234.72503454339906 L 758.9333333333334 245.73677929908303 L 783.4666666666667 158 L 808 212.2037746514257 L 808 279 Z" fill="#3fb950" opacity="0.15"/><path d="M 72 279 L 72 158 L 96.53333333333333 255.7833814847381 L 121.06666666666666 266.19856173847506 L 145.60000000000002 193.60008164803418 L 170.13333333333333 248.24083029770128 L 194.66666666666669 208.93216932546164 L 219.20000000000002 158 L 243.73333333333335 274.04889461122974 L 268.26666666666665 233.56610350458485 L 292.8 221.7070091697023 L 317.33333333333337 266.0085730435875 L 341.8666666666667 245.89257002889084 L 366.40000000000003 263.57291797512875 L 390.93333333333334 260.68888958673534 L 415.4666666666667 277.20650672026125 L 440 158 L 464.53333333333336 158 L 489.0666666666667 158 L 513.6 195.23778419796508 L 538.1333333333334 276.7505338525311 L 562.6666666666667 261.02326968973745 L 587.2 230.7238726290667 L 611.7333333333333 228.72139178495163 L 636.2666666666667 261.0536678809195 L 660.8000000000001 262.9497550558975 L 685.3333333333334 265.85658208767745 L 709.8666666666667 199.383337520412 L 734.4000000000001 234.72503454339906 L 758.9333333333334 245.73677929908303 L 783.4666666666667 158 L 808 212.2037746514257" fill="none" stroke="#3fb950" stroke-width="2"/><path d="M 72 279 L 72 310.0023552317548 L 96.53333333333333 289.82935560859187 L 121.06666666666666 283.8447117196332 L 145.60000000000002 286.02198216304487 L 170.13333333333333 281.9600238663484 L 194.66666666666669 296.64614998115815 L 219.20000000000002 400 L 243.73333333333335 280.9606833312398 L 268.26666666666665 283.12655445295815 L 292.8 289.5101746011808 L 317.33333333333337 279.36477829418413 L 341.8666666666667 291.63044843612613 L 366.40000000000003 282.670581585228 L 390.93333333333334 281.0138801658083 L 415.4666666666667 279.3685780680819 L 440 283.954905162668 L 464.53333333333336 289.0428024117573 L 489.0666666666667 400 L 513.6 312.0998304233137 L 538.1333333333334 280.4895113679186 L 562.6666666666667 292.8387765356111 L 587.2 299.67456977766614 L 611.7333333333333 293.9787087049366 L 636.2666666666667 282.24880668257754 L 660.8000000000001 284.17149227483986 L 685.3333333333334 285.3228237658586 L 709.8666666666667 296.5321567642256 L 734.4000000000001 298.78542268559227 L 758.9333333333334 281.71683833689235 L 783.4666666666667 330.50213541012437 L 808 400 L 808 279 Z" fill="#f85149" opacity="0.15"/><path d="M 72 279 L 72 310.0023552317548 L 96.53333333333333 289.82935560859187 L 121.06666666666666 283.8447117196332 L 145.60000000000002 286.02198216304487 L 170.13333333333333 281.9600238663484 L 194.66666666666669 296.64614998115815 L 219.20000000000002 400 L 243.73333333333335 280.9606833312398 L 268.26666666666665 283.12655445295815 L 292.8 289.5101746011808 L 317.33333333333337 279.36477829418413 L 341.8666666666667 291.63044843612613 L 366.40000000000003 282.670581585228 L 390.93333333333334 281.0138801658083 L 415.4666666666667 279.3685780680819 L 440 283.954905162668 L 464.53333333333336 289.0428024117573 L 489.0666666666667 400 L 513.6 312.0998304233137 L 538.1333333333334 280.4895113679186 L 562.6666666666667 292.8387765356111 L 587.2 299.67456977766614 L 611.7333333333333 293.9787087049366 L 636.2666666666667 282.24880668257754 L 660.8000000000001 284.17149227483986 L 685.3333333333334 285.3228237658586 L 709.8666666666667 296.5321567642256 L 734.4000000000001 298.78542268559227 L 758.9333333333334 281.71683833689235 L 783.4666666666667 330.50213541012437 L 808 400" fill="none" stroke="#f85149" stroke-width="2"/><text x="72" y="426" fill="#6e7681" font-size="10" font-family="'Segoe UI', sans-serif" text-anchor="middle">May 2</text><text x="194.66666666666669" y="426" fill="#6e7681" font-size="10" font-family="'Segoe UI', sans-serif" text-anchor="middle">May 7</text><text x="317.33333333333337" y="426" fill="#6e7681" font-size="10" font-family="'Segoe UI', sans-serif" text-anchor="middle">May 12</text><text x="440" y="426" fill="#6e7681" font-size="10" font-family="'Segoe UI', sans-serif" text-anchor="middle">May 17</text><text x="562.6666666666667" y="426" fill="#6e7681" font-size="10" font-family="'Segoe UI', sans-serif" text-anchor="middle">May 22</text><text x="685.3333333333334" y="426" fill="#6e7681" font-size="10" font-family="'Segoe UI', sans-serif" text-anchor="middle">May 27</text><text x="808" y="426" fill="#6e7681" font-size="10" font-family="'Segoe UI', sans-serif" text-anchor="middle">Jun 1</text>
  </g>

  <g class="cpd-legend">
    
    <circle cx="30" cy="442" r="5" fill="#3fb950"/>
    <text x="40" y="446" fill="#8b949e" font-size="11" font-family="'Segoe UI', sans-serif">Additions</text>
    <circle cx="124" cy="442" r="5" fill="#f85149"/>
    <text x="134" y="446" fill="#8b949e" font-size="11" font-family="'Segoe UI', sans-serif">Deletions</text>
    <text x="816" y="446" fill="#6e7681" font-size="10" font-family="'Segoe UI', sans-serif" text-anchor="end">Last 31 days · +1,165,360 / -216,473 lines</text>
  </g>

  <a href="https://github.com/mpge/code-per-day" target="_blank">
    <text x="420" y="452" fill="#6e7681" font-size="10" font-family="'Segoe UI', sans-serif" text-anchor="middle" opacity="0.6">Get your own - github.com/mpge/code-per-day</text>
  </a>
</svg>