<svg width="840" height="460" viewBox="0 0 840 460" xmlns="http://www.w3.org/2000/svg">
  
    <style>
      @keyframes fadeInUp {
        from { opacity: 0; transform: translateY(12px); }
        to   { opacity: 1; transform: translateY(0); }
      }
      @keyframes growBar {
        from { transform: scaleY(0); }
        to   { transform: scaleY(1); }
      }
      .cpd-header  { animation: fadeInUp 0.5s ease both; }
      .cpd-stats   { animation: fadeInUp 0.5s ease 0.15s both; }
      .cpd-chart   { animation: fadeInUp 0.5s ease 0.3s both; }
      .cpd-legend  { animation: fadeInUp 0.5s ease 0.45s both; }
    </style>

  <rect width="840" height="460" rx="12" fill="#1a1028" stroke="#3d2660" stroke-width="1"/>

  <g class="cpd-header">
    <a href="https://github.com/mpge/code-per-day" target="_blank">
      <text x="24" y="44" fill="#f0d0ff" font-size="18" font-family="'Segoe UI', sans-serif" font-weight="700">Code Per Day</text>
    </a>
    <text x="816" y="44" fill="#7a5a8e" font-size="13" font-family="'Segoe UI', sans-serif" text-anchor="end" font-weight="500">@mpge</text>
  </g>

  <g class="cpd-stats">
    
    <rect x="24" y="60" width="190" height="68" rx="8" fill="#160e22" stroke="#3d2660" stroke-width="1"/>
    <text x="119" y="78" fill="#7a5a8e" font-size="11" font-family="'Segoe UI', sans-serif" text-anchor="middle" font-weight="500">Today</text>
    <text x="119" y="100" fill="#ffb86c" font-size="16" font-family="'Segoe UI Mono', 'Cascadia Code', monospace" text-anchor="middle" font-weight="700">+10,050</text>
    <text x="119" y="118" fill="#ff79c6" font-size="14" font-family="'Segoe UI Mono', 'Cascadia Code', monospace" text-anchor="middle" font-weight="600">-4,732</text>
    <rect x="222" y="60" width="190" height="68" rx="8" fill="#160e22" stroke="#3d2660" stroke-width="1"/>
    <text x="317" y="78" fill="#7a5a8e" font-size="11" font-family="'Segoe UI', sans-serif" text-anchor="middle" font-weight="500">30d Avg</text>
    <text x="317" y="100" fill="#ffb86c" font-size="16" font-family="'Segoe UI Mono', 'Cascadia Code', monospace" text-anchor="middle" font-weight="700">+36,154</text>
    <text x="317" y="118" fill="#ff79c6" font-size="14" font-family="'Segoe UI Mono', 'Cascadia Code', monospace" text-anchor="middle" font-weight="600">-5,272</text>
    <rect x="420" y="60" width="190" height="68" rx="8" fill="#160e22" stroke="#3d2660" stroke-width="1"/>
    <text x="515" y="78" fill="#7a5a8e" font-size="11" font-family="'Segoe UI', sans-serif" text-anchor="middle" font-weight="500">Year Avg</text>
    <text x="515" y="100" fill="#ffb86c" font-size="16" font-family="'Segoe UI Mono', 'Cascadia Code', monospace" text-anchor="middle" font-weight="700">+25,097</text>
    <text x="515" y="118" fill="#ff79c6" font-size="14" font-family="'Segoe UI Mono', 'Cascadia Code', monospace" text-anchor="middle" font-weight="600">-6,814</text>
    <rect x="618" y="60" width="190" height="68" rx="8" fill="#160e22" stroke="#3d2660" stroke-width="1"/>
    <text x="713" y="78" fill="#7a5a8e" font-size="11" font-family="'Segoe UI', sans-serif" text-anchor="middle" font-weight="500">Streak</text>
    <text x="713" y="104" fill="#ff79c6" font-size="20" font-family="'Segoe UI Mono', 'Cascadia Code', monospace" text-anchor="middle" font-weight="700">183</text>
    <text x="713" y="120" fill="#7a5a8e" font-size="11" font-family="'Segoe UI', sans-serif" text-anchor="middle">days</text>
  </g>

  <g class="cpd-chart">
    <line x1="72" y1="148" x2="808" y2="148" stroke="#2d1c44" stroke-width="1" stroke-dasharray="4,4"/><line x1="72" y1="213.5" x2="808" y2="213.5" stroke="#2d1c44" stroke-width="1" stroke-dasharray="4,4"/><line x1="72" y1="279" x2="808" y2="279" stroke="#2d1c44" stroke-width="1" stroke-dasharray="4,4"/><line x1="72" y1="344.5" x2="808" y2="344.5" stroke="#2d1c44" stroke-width="1" stroke-dasharray="4,4"/><line x1="72" y1="410" x2="808" y2="410" stroke="#2d1c44" stroke-width="1" stroke-dasharray="4,4"/><line x1="72" y1="279" x2="808" y2="279" stroke="#3d2660" stroke-width="1.5"/><text x="64" y="162" fill="#7a5a8e" font-size="10" font-family="'Segoe UI', sans-serif" text-anchor="end">+27,851</text><text x="64" y="406" fill="#7a5a8e" font-size="10" font-family="'Segoe UI', sans-serif" text-anchor="end">-27,851</text><text x="64" y="283" fill="#7a5a8e" font-size="10" font-family="'Segoe UI', sans-serif" text-anchor="end">0</text><path d="M 72 279 L 72 267.9431259200747 L 96.53333333333333 218.64119780259236 L 121.06666666666666 241.5369645614161 L 145.60000000000002 158 L 170.13333333333333 252.4548131126351 L 194.66666666666669 264.3632185558867 L 219.20000000000002 181.35628882266346 L 243.73333333333335 243.83088578507056 L 268.26666666666665 198.88653908297727 L 292.8 158 L 317.33333333333337 273.3390542529891 L 341.8666666666667 227.05224228932533 L 366.40000000000003 213.4929086926861 L 390.93333333333334 264.14599116728306 L 415.4666666666667 241.14595526192954 L 440 261.36113604538434 L 464.53333333333336 258.0636242863811 L 489.0666666666667 276.9493734515816 L 513.6 158 L 538.1333333333334 158 L 562.6666666666667 158 L 587.2 183.22878891242684 L 611.7333333333333 276.42802771893287 L 636.2666666666667 258.4459444903235 L 660.8000000000001 223.80252055581488 L 685.3333333333334 221.5129438799325 L 709.8666666666667 258.4807008725001 L 734.4000000000001 260.64863021076445 L 758.9333333333334 263.9722092564001 L 783.4666666666667 187.96869053175828 L 808 235.3372948906682 L 808 279 Z" fill="#ffb86c" opacity="0.15"/><path d="M 72 279 L 72 267.9431259200747 L 96.53333333333333 218.64119780259236 L 121.06666666666666 241.5369645614161 L 145.60000000000002 158 L 170.13333333333333 252.4548131126351 L 194.66666666666669 264.3632185558867 L 219.20000000000002 181.35628882266346 L 243.73333333333335 243.83088578507056 L 268.26666666666665 198.88653908297727 L 292.8 158 L 317.33333333333337 273.3390542529891 L 341.8666666666667 227.05224228932533 L 366.40000000000003 213.4929086926861 L 390.93333333333334 264.14599116728306 L 415.4666666666667 241.14595526192954 L 440 261.36113604538434 L 464.53333333333336 258.0636242863811 L 489.0666666666667 276.9493734515816 L 513.6 158 L 538.1333333333334 158 L 562.6666666666667 158 L 587.2 183.22878891242684 L 611.7333333333333 276.42802771893287 L 636.2666666666667 258.4459444903235 L 660.8000000000001 223.80252055581488 L 685.3333333333334 221.5129438799325 L 709.8666666666667 258.4807008725001 L 734.4000000000001 260.64863021076445 L 758.9333333333334 263.9722092564001 L 783.4666666666667 187.96869053175828 L 808 235.3372948906682" fill="none" stroke="#ffb86c" stroke-width="2"/><path d="M 72 279 L 72 281.35040034469137 L 96.53333333333333 299.2369035223152 L 121.06666666666666 285.9643100786327 L 145.60000000000002 314.4471652723421 L 170.13333333333333 291.3819611504075 L 194.66666666666669 284.5392984093928 L 219.20000000000002 287.02872428279056 L 243.73333333333335 282.3844027144447 L 268.26666666666665 299.17607985350617 L 292.8 400 L 317.33333333333337 281.2417866503896 L 341.8666666666667 283.7181788804711 L 366.40000000000003 291.0170191375534 L 390.93333333333334 279.417076586119 L 415.4666666666667 293.44127679437 L 440 283.19683314782236 L 464.53333333333336 281.3026103191986 L 489.0666666666667 279.42142113389104 L 513.6 284.66529029478295 L 538.1333333333334 290.4826397615885 L 562.6666666666667 400 L 587.2 316.84535564252633 L 611.7333333333333 280.70306272665255 L 636.2666666666667 294.8228429858892 L 660.8000000000001 302.6386844278482 L 685.3333333333334 296.12620731751105 L 709.8666666666667 282.71458834512225 L 734.4000000000001 284.9129295177911 L 758.9333333333334 286.22932749272917 L 783.4666666666667 299.04574342034397 L 808 299.5584000574486 L 808 279 Z" fill="#ff79c6" opacity="0.15"/><path d="M 72 279 L 72 281.35040034469137 L 96.53333333333333 299.2369035223152 L 121.06666666666666 285.9643100786327 L 145.60000000000002 314.4471652723421 L 170.13333333333333 291.3819611504075 L 194.66666666666669 284.5392984093928 L 219.20000000000002 287.02872428279056 L 243.73333333333335 282.3844027144447 L 268.26666666666665 299.17607985350617 L 292.8 400 L 317.33333333333337 281.2417866503896 L 341.8666666666667 283.7181788804711 L 366.40000000000003 291.0170191375534 L 390.93333333333334 279.417076586119 L 415.4666666666667 293.44127679437 L 440 283.19683314782236 L 464.53333333333336 281.3026103191986 L 489.0666666666667 279.42142113389104 L 513.6 284.66529029478295 L 538.1333333333334 290.4826397615885 L 562.6666666666667 400 L 587.2 316.84535564252633 L 611.7333333333333 280.70306272665255 L 636.2666666666667 294.8228429858892 L 660.8000000000001 302.6386844278482 L 685.3333333333334 296.12620731751105 L 709.8666666666667 282.71458834512225 L 734.4000000000001 284.9129295177911 L 758.9333333333334 286.22932749272917 L 783.4666666666667 299.04574342034397 L 808 299.5584000574486" fill="none" stroke="#ff79c6" stroke-width="2"/><text x="72" y="426" fill="#7a5a8e" font-size="10" font-family="'Segoe UI', sans-serif" text-anchor="middle">Apr 29</text><text x="194.66666666666669" y="426" fill="#7a5a8e" font-size="10" font-family="'Segoe UI', sans-serif" text-anchor="middle">May 4</text><text x="317.33333333333337" y="426" fill="#7a5a8e" font-size="10" font-family="'Segoe UI', sans-serif" text-anchor="middle">May 9</text><text x="440" y="426" fill="#7a5a8e" font-size="10" font-family="'Segoe UI', sans-serif" text-anchor="middle">May 14</text><text x="562.6666666666667" y="426" fill="#7a5a8e" font-size="10" font-family="'Segoe UI', sans-serif" text-anchor="middle">May 19</text><text x="685.3333333333334" y="426" fill="#7a5a8e" font-size="10" font-family="'Segoe UI', sans-serif" text-anchor="middle">May 24</text><text x="808" y="426" fill="#7a5a8e" font-size="10" font-family="'Segoe UI', sans-serif" text-anchor="middle">May 29</text>
  </g>

  <g class="cpd-legend">
    
    <circle cx="30" cy="442" r="5" fill="#ffb86c"/>
    <text x="40" y="446" fill="#c4a0d8" font-size="11" font-family="'Segoe UI', sans-serif">Additions</text>
    <circle cx="124" cy="442" r="5" fill="#ff79c6"/>
    <text x="134" y="446" fill="#c4a0d8" font-size="11" font-family="'Segoe UI', sans-serif">Deletions</text>
    <text x="816" y="446" fill="#7a5a8e" font-size="10" font-family="'Segoe UI', sans-serif" text-anchor="end">Last 31 days · +1,120,784 / -163,436 lines</text>
  </g>

  <a href="https://github.com/mpge/code-per-day" target="_blank">
    <text x="420" y="452" fill="#7a5a8e" font-size="10" font-family="'Segoe UI', sans-serif" text-anchor="middle" opacity="0.6">Get your own - github.com/mpge/code-per-day</text>
  </a>
</svg>