<svg width="840" height="460" viewBox="0 0 840 460" xmlns="http://www.w3.org/2000/svg">
  
    <style>
      @keyframes fadeInUp {
        from { opacity: 0; transform: translateY(12px); }
        to   { opacity: 1; transform: translateY(0); }
      }
      @keyframes growBar {
        from { transform: scaleY(0); }
        to   { transform: scaleY(1); }
      }
      .cpd-header  { animation: fadeInUp 0.5s ease both; }
      .cpd-stats   { animation: fadeInUp 0.5s ease 0.15s both; }
      .cpd-chart   { animation: fadeInUp 0.5s ease 0.3s both; }
      .cpd-legend  { animation: fadeInUp 0.5s ease 0.45s both; }
    </style>

  <rect width="840" height="460" rx="12" fill="#ffffff" stroke="#d0d7de" stroke-width="1"/>

  <g class="cpd-header">
    <a href="https://github.com/mpge/code-per-day" target="_blank">
      <text x="24" y="44" fill="#1f2328" font-size="18" font-family="'Segoe UI', sans-serif" font-weight="700">Code Per Day</text>
    </a>
    <text x="816" y="44" fill="#8b949e" font-size="13" font-family="'Segoe UI', sans-serif" text-anchor="end" font-weight="500">@mpge</text>
  </g>

  <g class="cpd-stats">
    
    <rect x="24" y="60" width="190" height="68" rx="8" fill="#ffffff" stroke="#d0d7de" stroke-width="1"/>
    <text x="119" y="78" fill="#8b949e" font-size="11" font-family="'Segoe UI', sans-serif" text-anchor="middle" font-weight="500">Today</text>
    <text x="119" y="100" fill="#1a7f37" font-size="16" font-family="'Segoe UI Mono', 'Cascadia Code', monospace" text-anchor="middle" font-weight="700">+5,817</text>
    <text x="119" y="118" fill="#cf222e" font-size="14" font-family="'Segoe UI Mono', 'Cascadia Code', monospace" text-anchor="middle" font-weight="600">-5,563</text>
    <rect x="222" y="60" width="190" height="68" rx="8" fill="#ffffff" stroke="#d0d7de" stroke-width="1"/>
    <text x="317" y="78" fill="#8b949e" font-size="11" font-family="'Segoe UI', sans-serif" text-anchor="middle" font-weight="500">30d Avg</text>
    <text x="317" y="100" fill="#1a7f37" font-size="16" font-family="'Segoe UI Mono', 'Cascadia Code', monospace" text-anchor="middle" font-weight="700">+8,885</text>
    <text x="317" y="118" fill="#cf222e" font-size="14" font-family="'Segoe UI Mono', 'Cascadia Code', monospace" text-anchor="middle" font-weight="600">-1,296</text>
    <rect x="420" y="60" width="190" height="68" rx="8" fill="#ffffff" stroke="#d0d7de" stroke-width="1"/>
    <text x="515" y="78" fill="#8b949e" font-size="11" font-family="'Segoe UI', sans-serif" text-anchor="middle" font-weight="500">Year Avg</text>
    <text x="515" y="100" fill="#1a7f37" font-size="16" font-family="'Segoe UI Mono', 'Cascadia Code', monospace" text-anchor="middle" font-weight="700">+26,135</text>
    <text x="515" y="118" fill="#cf222e" font-size="14" font-family="'Segoe UI Mono', 'Cascadia Code', monospace" text-anchor="middle" font-weight="600">-7,169</text>
    <rect x="618" y="60" width="190" height="68" rx="8" fill="#ffffff" stroke="#d0d7de" stroke-width="1"/>
    <text x="713" y="78" fill="#8b949e" font-size="11" font-family="'Segoe UI', sans-serif" text-anchor="middle" font-weight="500">Streak</text>
    <text x="713" y="104" fill="#0969da" font-size="20" font-family="'Segoe UI Mono', 'Cascadia Code', monospace" text-anchor="middle" font-weight="700">227</text>
    <text x="713" y="120" fill="#8b949e" font-size="11" font-family="'Segoe UI', sans-serif" text-anchor="middle">days</text>
  </g>

  <g class="cpd-chart">
    <line x1="72" y1="148" x2="808" y2="148" stroke="#eaeef2" stroke-width="1" stroke-dasharray="4,4"/><line x1="72" y1="213.5" x2="808" y2="213.5" stroke="#eaeef2" stroke-width="1" stroke-dasharray="4,4"/><line x1="72" y1="279" x2="808" y2="279" stroke="#eaeef2" stroke-width="1" stroke-dasharray="4,4"/><line x1="72" y1="344.5" x2="808" y2="344.5" stroke="#eaeef2" stroke-width="1" stroke-dasharray="4,4"/><line x1="72" y1="410" x2="808" y2="410" stroke="#eaeef2" stroke-width="1" stroke-dasharray="4,4"/><line x1="72" y1="279" x2="808" y2="279" stroke="#d0d7de" stroke-width="1.5"/><text x="64" y="162" fill="#8b949e" font-size="10" font-family="'Segoe UI', sans-serif" text-anchor="end">+11,810</text><text x="64" y="406" fill="#8b949e" font-size="10" font-family="'Segoe UI', sans-serif" text-anchor="end">-11,810</text><text x="64" y="283" fill="#8b949e" font-size="10" font-family="'Segoe UI', sans-serif" text-anchor="end">0</text><path d="M 72 279 L 72 278.231583403895 L 96.53333333333333 274.92226926333615 L 121.06666666666666 231.214733276884 L 145.60000000000002 271.6436917866215 L 170.13333333333333 279 L 194.66666666666669 264.3591024555461 L 219.20000000000002 228.57138018628282 L 243.73333333333335 221.91176968670618 L 268.26666666666665 247.5359017781541 L 292.8 158 L 317.33333333333337 191.39026248941576 L 341.8666666666667 158 L 366.40000000000003 204.60702794242167 L 390.93333333333334 207.73192209991532 L 415.4666666666667 260.17891617273494 L 440 264.4615580016935 L 464.53333333333336 232.67984758679086 L 489.0666666666667 158 L 513.6 246.39864521591872 L 538.1333333333334 253.07874682472482 L 562.6666666666667 275.61896697713803 L 587.2 279 L 611.7333333333333 276.3566469093988 L 636.2666666666667 271.9203217612193 L 660.8000000000001 279 L 685.3333333333334 265.3221845893311 L 709.8666666666667 259.7076206604572 L 734.4000000000001 279 L 758.9333333333334 279 L 783.4666666666667 169.41354784081287 L 808 219.40160880609653 L 808 279 Z" fill="#1a7f37" opacity="0.15"/><path d="M 72 279 L 72 278.231583403895 L 96.53333333333333 274.92226926333615 L 121.06666666666666 231.214733276884 L 145.60000000000002 271.6436917866215 L 170.13333333333333 279 L 194.66666666666669 264.3591024555461 L 219.20000000000002 228.57138018628282 L 243.73333333333335 221.91176968670618 L 268.26666666666665 247.5359017781541 L 292.8 158 L 317.33333333333337 191.39026248941576 L 341.8666666666667 158 L 366.40000000000003 204.60702794242167 L 390.93333333333334 207.73192209991532 L 415.4666666666667 260.17891617273494 L 440 264.4615580016935 L 464.53333333333336 232.67984758679086 L 489.0666666666667 158 L 513.6 246.39864521591872 L 538.1333333333334 253.07874682472482 L 562.6666666666667 275.61896697713803 L 587.2 279 L 611.7333333333333 276.3566469093988 L 636.2666666666667 271.9203217612193 L 660.8000000000001 279 L 685.3333333333334 265.3221845893311 L 709.8666666666667 259.7076206604572 L 734.4000000000001 279 L 758.9333333333334 279 L 783.4666666666667 169.41354784081287 L 808 219.40160880609653" fill="none" stroke="#1a7f37" stroke-width="2"/><path d="M 72 279 L 72 279.9118543607113 L 96.53333333333333 281.151566469094 L 121.06666666666666 325.4840812870449 L 145.60000000000002 279.307366638442 L 170.13333333333333 279 L 194.66666666666669 282.6269263336156 L 219.20000000000002 284.3071972904318 L 243.73333333333335 288.92794242167656 L 268.26666666666665 280.1372565622354 L 292.8 336.8259102455546 L 317.33333333333337 288.15952582557156 L 341.8666666666667 306.4888230313294 L 366.40000000000003 290.55698560541913 L 390.93333333333334 279.6966977138019 L 415.4666666666667 280.7212531752752 L 440 279.8811176968671 L 464.53333333333336 281.919983065199 L 489.0666666666667 363.77171888230316 L 513.6 285.76206604572394 L 538.1333333333334 286.0796782387807 L 562.6666666666667 279 L 587.2 279 L 611.7333333333333 280.55732430143945 L 636.2666666666667 280.4753598645216 L 660.8000000000001 279 L 685.3333333333334 283.88712955122776 L 709.8666666666667 297.97476714648604 L 734.4000000000001 279 L 758.9333333333334 279 L 783.4666666666667 325.9553767993226 L 808 335.9960203217612 L 808 279 Z" fill="#cf222e" opacity="0.15"/><path d="M 72 279 L 72 279.9118543607113 L 96.53333333333333 281.151566469094 L 121.06666666666666 325.4840812870449 L 145.60000000000002 279.307366638442 L 170.13333333333333 279 L 194.66666666666669 282.6269263336156 L 219.20000000000002 284.3071972904318 L 243.73333333333335 288.92794242167656 L 268.26666666666665 280.1372565622354 L 292.8 336.8259102455546 L 317.33333333333337 288.15952582557156 L 341.8666666666667 306.4888230313294 L 366.40000000000003 290.55698560541913 L 390.93333333333334 279.6966977138019 L 415.4666666666667 280.7212531752752 L 440 279.8811176968671 L 464.53333333333336 281.919983065199 L 489.0666666666667 363.77171888230316 L 513.6 285.76206604572394 L 538.1333333333334 286.0796782387807 L 562.6666666666667 279 L 587.2 279 L 611.7333333333333 280.55732430143945 L 636.2666666666667 280.4753598645216 L 660.8000000000001 279 L 685.3333333333334 283.88712955122776 L 709.8666666666667 297.97476714648604 L 734.4000000000001 279 L 758.9333333333334 279 L 783.4666666666667 325.9553767993226 L 808 335.9960203217612" fill="none" stroke="#cf222e" stroke-width="2"/><text x="72" y="426" fill="#8b949e" font-size="10" font-family="'Segoe UI', sans-serif" text-anchor="middle">Jun 12</text><text x="194.66666666666669" y="426" fill="#8b949e" font-size="10" font-family="'Segoe UI', sans-serif" text-anchor="middle">Jun 17</text><text x="317.33333333333337" y="426" fill="#8b949e" font-size="10" font-family="'Segoe UI', sans-serif" text-anchor="middle">Jun 22</text><text x="440" y="426" fill="#8b949e" font-size="10" font-family="'Segoe UI', sans-serif" text-anchor="middle">Jun 27</text><text x="562.6666666666667" y="426" fill="#8b949e" font-size="10" font-family="'Segoe UI', sans-serif" text-anchor="middle">Jul 2</text><text x="685.3333333333334" y="426" fill="#8b949e" font-size="10" font-family="'Segoe UI', sans-serif" text-anchor="middle">Jul 7</text><text x="808" y="426" fill="#8b949e" font-size="10" font-family="'Segoe UI', sans-serif" text-anchor="middle">Jul 12</text>
  </g>

  <g class="cpd-legend">
    
    <circle cx="30" cy="442" r="5" fill="#1a7f37"/>
    <text x="40" y="446" fill="#656d76" font-size="11" font-family="'Segoe UI', sans-serif">Additions</text>
    <circle cx="124" cy="442" r="5" fill="#cf222e"/>
    <text x="134" y="446" fill="#656d76" font-size="11" font-family="'Segoe UI', sans-serif">Deletions</text>
    <text x="816" y="446" fill="#8b949e" font-size="10" font-family="'Segoe UI', sans-serif" text-anchor="end">Last 31 days · +275,431 / -40,170 lines</text>
  </g>

  <a href="https://github.com/mpge/code-per-day" target="_blank">
    <text x="420" y="452" fill="#8b949e" font-size="10" font-family="'Segoe UI', sans-serif" text-anchor="middle" opacity="0.6">Get your own - github.com/mpge/code-per-day</text>
  </a>
</svg>