<svg width="840" height="460" viewBox="0 0 840 460" xmlns="http://www.w3.org/2000/svg">
  
    <style>
      @keyframes fadeInUp {
        from { opacity: 0; transform: translateY(12px); }
        to   { opacity: 1; transform: translateY(0); }
      }
      @keyframes growBar {
        from { transform: scaleY(0); }
        to   { transform: scaleY(1); }
      }
      .cpd-header  { animation: fadeInUp 0.5s ease both; }
      .cpd-stats   { animation: fadeInUp 0.5s ease 0.15s both; }
      .cpd-chart   { animation: fadeInUp 0.5s ease 0.3s both; }
      .cpd-legend  { animation: fadeInUp 0.5s ease 0.45s both; }
    </style>

  <!-- Background -->
  <rect width="840" height="460" rx="12" fill="#1a1b26" stroke="#414868" stroke-width="1"/>

  <!-- Header -->
  <g class="cpd-header">
    <a href="https://github.com/mpge/code-per-day" target="_blank">
      <text x="24" y="44" fill="#c0caf5" font-size="18" font-family="'Segoe UI', sans-serif" font-weight="700">Code Per Day</text>
    </a>
    <text x="816" y="44" fill="#565f89" font-size="13" font-family="'Segoe UI', sans-serif" text-anchor="end" font-weight="500">@mpge</text>
  </g>

  <!-- Stats Cards -->
  <g class="cpd-stats">
    
    <rect x="24" y="60" width="190" height="68" rx="8" fill="#16161e" stroke="#414868" stroke-width="1"/>
    <text x="119" y="78" fill="#565f89" font-size="11" font-family="'Segoe UI', sans-serif" text-anchor="middle" font-weight="500">Today</text>
    <text x="119" y="100" fill="#9ece6a" font-size="16" font-family="'Segoe UI Mono', 'Cascadia Code', monospace" text-anchor="middle" font-weight="700">+0</text>
    <text x="119" y="118" fill="#f7768e" font-size="14" font-family="'Segoe UI Mono', 'Cascadia Code', monospace" text-anchor="middle" font-weight="600">+0</text>
    <rect x="222" y="60" width="190" height="68" rx="8" fill="#16161e" stroke="#414868" stroke-width="1"/>
    <text x="317" y="78" fill="#565f89" font-size="11" font-family="'Segoe UI', sans-serif" text-anchor="middle" font-weight="500">30d Avg</text>
    <text x="317" y="100" fill="#9ece6a" font-size="16" font-family="'Segoe UI Mono', 'Cascadia Code', monospace" text-anchor="middle" font-weight="700">+208,471</text>
    <text x="317" y="118" fill="#f7768e" font-size="14" font-family="'Segoe UI Mono', 'Cascadia Code', monospace" text-anchor="middle" font-weight="600">-56,244</text>
    <rect x="420" y="60" width="190" height="68" rx="8" fill="#16161e" stroke="#414868" stroke-width="1"/>
    <text x="515" y="78" fill="#565f89" font-size="11" font-family="'Segoe UI', sans-serif" text-anchor="middle" font-weight="500">Year Avg</text>
    <text x="515" y="100" fill="#9ece6a" font-size="16" font-family="'Segoe UI Mono', 'Cascadia Code', monospace" text-anchor="middle" font-weight="700">+20,716</text>
    <text x="515" y="118" fill="#f7768e" font-size="14" font-family="'Segoe UI Mono', 'Cascadia Code', monospace" text-anchor="middle" font-weight="600">-6,279</text>
        <rect x="618" y="60" width="190" height="68" rx="8" fill="#16161e" stroke="#414868" stroke-width="1"/>
        <text x="713" y="78" fill="#565f89" font-size="11" font-family="'Segoe UI', sans-serif" text-anchor="middle" font-weight="500">Streak</text>
        <text x="713" y="104" fill="#7aa2f7" font-size="20" font-family="'Segoe UI Mono', 'Cascadia Code', monospace" text-anchor="middle" font-weight="700">141</text>
        <text x="713" y="120" fill="#565f89" font-size="11" font-family="'Segoe UI', sans-serif" text-anchor="middle">days</text>
  </g>

  <!-- Chart -->
  <g class="cpd-chart">
    <line x1="72" y1="148" x2="808" y2="148" stroke="#292e42" stroke-width="1" stroke-dasharray="4,4"/><line x1="72" y1="213.5" x2="808" y2="213.5" stroke="#292e42" stroke-width="1" stroke-dasharray="4,4"/><line x1="72" y1="279" x2="808" y2="279" stroke="#292e42" stroke-width="1" stroke-dasharray="4,4"/><line x1="72" y1="344.5" x2="808" y2="344.5" stroke="#292e42" stroke-width="1" stroke-dasharray="4,4"/><line x1="72" y1="410" x2="808" y2="410" stroke="#292e42" stroke-width="1" stroke-dasharray="4,4"/><line x1="72" y1="279" x2="808" y2="279" stroke="#414868" stroke-width="1.5"/><text x="64" y="162" fill="#565f89" font-size="10" font-family="'Segoe UI', sans-serif" text-anchor="end">+30,562</text><text x="64" y="406" fill="#565f89" font-size="10" font-family="'Segoe UI', sans-serif" text-anchor="end">-30,562</text><text x="64" y="283" fill="#565f89" font-size="10" font-family="'Segoe UI', sans-serif" text-anchor="end">0</text><path d="M 72 279 L 72 279 L 96.53333333333333 270.3175512073817 L 121.06666666666666 239.4598193835482 L 145.60000000000002 253.70885413258296 L 170.13333333333333 276.4780119102153 L 194.66666666666669 272.9266409266409 L 219.20000000000002 279 L 243.73333333333335 279 L 268.26666666666665 279 L 292.8 279 L 317.33333333333337 245.80636084025915 L 341.8666666666667 276.7195209737583 L 366.40000000000003 279 L 390.93333333333334 273.069170865781 L 415.4666666666667 279 L 440 279 L 464.53333333333336 207.33119560238202 L 489.0666666666667 158 L 513.6 158 L 538.1333333333334 158 L 562.6666666666667 158 L 587.2 158 L 611.7333333333333 253.74052745239186 L 636.2666666666667 279 L 660.8000000000001 158 L 685.3333333333334 256.06851645834695 L 709.8666666666667 278.8099600811465 L 734.4000000000001 279 L 758.9333333333334 278.79016425626594 L 783.4666666666667 279 L 808 279 L 808 279 Z" fill="#9ece6a" opacity="0.15"/><path d="M 72 279 L 72 279 L 96.53333333333333 270.3175512073817 L 121.06666666666666 239.4598193835482 L 145.60000000000002 253.70885413258296 L 170.13333333333333 276.4780119102153 L 194.66666666666669 272.9266409266409 L 219.20000000000002 279 L 243.73333333333335 279 L 268.26666666666665 279 L 292.8 279 L 317.33333333333337 245.80636084025915 L 341.8666666666667 276.7195209737583 L 366.40000000000003 279 L 390.93333333333334 273.069170865781 L 415.4666666666667 279 L 440 279 L 464.53333333333336 207.33119560238202 L 489.0666666666667 158 L 513.6 158 L 538.1333333333334 158 L 562.6666666666667 158 L 587.2 158 L 611.7333333333333 253.74052745239186 L 636.2666666666667 279 L 660.8000000000001 158 L 685.3333333333334 256.06851645834695 L 709.8666666666667 278.8099600811465 L 734.4000000000001 279 L 758.9333333333334 278.79016425626594 L 783.4666666666667 279 L 808 279" fill="none" stroke="#9ece6a" stroke-width="2"/><path d="M 72 279 L 72 279 L 96.53333333333333 279.0039591649761 L 121.06666666666666 282.85622668673517 L 145.60000000000002 279.7878738302467 L 170.13333333333333 279.102938289379 L 194.66666666666669 279.29297820823246 L 219.20000000000002 279 L 243.73333333333335 279 L 268.26666666666665 279 L 292.8 279 L 317.33333333333337 279.6730580459394 L 341.8666666666667 279 L 366.40000000000003 279 L 390.93333333333334 281.25276487140894 L 415.4666666666667 279 L 440 279 L 464.53333333333336 279.15836659904454 L 489.0666666666667 400 L 513.6 306.9398272364374 L 538.1333333333334 349.5325240494732 L 562.6666666666667 295.6245337347032 L 587.2 327.8719324651528 L 611.7333333333333 284.38842353249134 L 636.2666666666667 279 L 660.8000000000001 279.35236568287417 L 685.3333333333334 279.88685295464956 L 709.8666666666667 298.2573784438191 L 734.4000000000001 279 L 758.9333333333334 279.17816242392513 L 783.4666666666667 279 L 808 279 L 808 279 Z" fill="#f7768e" opacity="0.15"/><path d="M 72 279 L 72 279 L 96.53333333333333 279.0039591649761 L 121.06666666666666 282.85622668673517 L 145.60000000000002 279.7878738302467 L 170.13333333333333 279.102938289379 L 194.66666666666669 279.29297820823246 L 219.20000000000002 279 L 243.73333333333335 279 L 268.26666666666665 279 L 292.8 279 L 317.33333333333337 279.6730580459394 L 341.8666666666667 279 L 366.40000000000003 279 L 390.93333333333334 281.25276487140894 L 415.4666666666667 279 L 440 279 L 464.53333333333336 279.15836659904454 L 489.0666666666667 400 L 513.6 306.9398272364374 L 538.1333333333334 349.5325240494732 L 562.6666666666667 295.6245337347032 L 587.2 327.8719324651528 L 611.7333333333333 284.38842353249134 L 636.2666666666667 279 L 660.8000000000001 279.35236568287417 L 685.3333333333334 279.88685295464956 L 709.8666666666667 298.2573784438191 L 734.4000000000001 279 L 758.9333333333334 279.17816242392513 L 783.4666666666667 279 L 808 279" fill="none" stroke="#f7768e" stroke-width="2"/><text x="72" y="426" fill="#565f89" font-size="10" font-family="'Segoe UI', sans-serif" text-anchor="middle">Mar 19</text><text x="194.66666666666669" y="426" fill="#565f89" font-size="10" font-family="'Segoe UI', sans-serif" text-anchor="middle">Mar 24</text><text x="317.33333333333337" y="426" fill="#565f89" font-size="10" font-family="'Segoe UI', sans-serif" text-anchor="middle">Mar 29</text><text x="440" y="426" fill="#565f89" font-size="10" font-family="'Segoe UI', sans-serif" text-anchor="middle">Apr 3</text><text x="562.6666666666667" y="426" fill="#565f89" font-size="10" font-family="'Segoe UI', sans-serif" text-anchor="middle">Apr 8</text><text x="685.3333333333334" y="426" fill="#565f89" font-size="10" font-family="'Segoe UI', sans-serif" text-anchor="middle">Apr 13</text><text x="808" y="426" fill="#565f89" font-size="10" font-family="'Segoe UI', sans-serif" text-anchor="middle">Apr 18</text>
  </g>

  <!-- Legend -->
  <g class="cpd-legend">
    <circle cx="30" cy="442" r="5" fill="#9ece6a"/>
    <text x="40" y="446" fill="#a9b1d6" font-size="11" font-family="'Segoe UI', sans-serif">Additions</text>
    <circle cx="124" cy="442" r="5" fill="#f7768e"/>
    <text x="134" y="446" fill="#a9b1d6" font-size="11" font-family="'Segoe UI', sans-serif">Deletions</text>
    <text x="816" y="446" fill="#565f89" font-size="10" font-family="'Segoe UI', sans-serif" text-anchor="end">Last 31 days · +6,462,613 / -1,743,577 lines</text>
  </g>

  <!-- Get your own -->
  <a href="https://github.com/mpge/code-per-day" target="_blank">
    <text x="420" y="452" fill="#565f89" font-size="10" font-family="'Segoe UI', sans-serif" text-anchor="middle" opacity="0.6">Get your own — github.com/mpge/code-per-day</text>
  </a>
</svg>