<svg width="840" height="460" viewBox="0 0 840 460" xmlns="http://www.w3.org/2000/svg">
  
    <style>
      @keyframes fadeInUp {
        from { opacity: 0; transform: translateY(12px); }
        to   { opacity: 1; transform: translateY(0); }
      }
      @keyframes growBar {
        from { transform: scaleY(0); }
        to   { transform: scaleY(1); }
      }
      .cpd-header  { animation: fadeInUp 0.5s ease both; }
      .cpd-stats   { animation: fadeInUp 0.5s ease 0.15s both; }
      .cpd-chart   { animation: fadeInUp 0.5s ease 0.3s both; }
      .cpd-legend  { animation: fadeInUp 0.5s ease 0.45s both; }
    </style>

  <rect width="840" height="460" rx="12" fill="#0d1117" stroke="#30363d" stroke-width="1"/>

  <g class="cpd-header">
    <a href="https://github.com/mpge/code-per-day" target="_blank">
      <text x="24" y="44" fill="#e6edf3" font-size="18" font-family="'Segoe UI', sans-serif" font-weight="700">Code Per Day</text>
    </a>
    <text x="816" y="44" fill="#6e7681" font-size="13" font-family="'Segoe UI', sans-serif" text-anchor="end" font-weight="500">@mpge</text>
  </g>

  <g class="cpd-stats">
    
    <rect x="24" y="60" width="190" height="68" rx="8" fill="#0d1117" stroke="#30363d" stroke-width="1"/>
    <text x="119" y="78" fill="#6e7681" font-size="11" font-family="'Segoe UI', sans-serif" text-anchor="middle" font-weight="500">Today</text>
    <text x="119" y="100" fill="#3fb950" font-size="16" font-family="'Segoe UI Mono', 'Cascadia Code', monospace" text-anchor="middle" font-weight="700">+3,156</text>
    <text x="119" y="118" fill="#f85149" font-size="14" font-family="'Segoe UI Mono', 'Cascadia Code', monospace" text-anchor="middle" font-weight="600">-635</text>
    <rect x="222" y="60" width="190" height="68" rx="8" fill="#0d1117" stroke="#30363d" stroke-width="1"/>
    <text x="317" y="78" fill="#6e7681" font-size="11" font-family="'Segoe UI', sans-serif" text-anchor="middle" font-weight="500">30d Avg</text>
    <text x="317" y="100" fill="#3fb950" font-size="16" font-family="'Segoe UI Mono', 'Cascadia Code', monospace" text-anchor="middle" font-weight="700">+32,228</text>
    <text x="317" y="118" fill="#f85149" font-size="14" font-family="'Segoe UI Mono', 'Cascadia Code', monospace" text-anchor="middle" font-weight="600">-2,960</text>
    <rect x="420" y="60" width="190" height="68" rx="8" fill="#0d1117" stroke="#30363d" stroke-width="1"/>
    <text x="515" y="78" fill="#6e7681" font-size="11" font-family="'Segoe UI', sans-serif" text-anchor="middle" font-weight="500">Year Avg</text>
    <text x="515" y="100" fill="#3fb950" font-size="16" font-family="'Segoe UI Mono', 'Cascadia Code', monospace" text-anchor="middle" font-weight="700">+24,347</text>
    <text x="515" y="118" fill="#f85149" font-size="14" font-family="'Segoe UI Mono', 'Cascadia Code', monospace" text-anchor="middle" font-weight="600">-6,592</text>
    <rect x="618" y="60" width="190" height="68" rx="8" fill="#0d1117" stroke="#30363d" stroke-width="1"/>
    <text x="713" y="78" fill="#6e7681" font-size="11" font-family="'Segoe UI', sans-serif" text-anchor="middle" font-weight="500">Streak</text>
    <text x="713" y="104" fill="#58a6ff" font-size="20" font-family="'Segoe UI Mono', 'Cascadia Code', monospace" text-anchor="middle" font-weight="700">168</text>
    <text x="713" y="120" fill="#6e7681" font-size="11" font-family="'Segoe UI', sans-serif" text-anchor="middle">days</text>
  </g>

  <g class="cpd-chart">
    <line x1="72" y1="148" x2="808" y2="148" stroke="#21262d" stroke-width="1" stroke-dasharray="4,4"/><line x1="72" y1="213.5" x2="808" y2="213.5" stroke="#21262d" stroke-width="1" stroke-dasharray="4,4"/><line x1="72" y1="279" x2="808" y2="279" stroke="#21262d" stroke-width="1" stroke-dasharray="4,4"/><line x1="72" y1="344.5" x2="808" y2="344.5" stroke="#21262d" stroke-width="1" stroke-dasharray="4,4"/><line x1="72" y1="410" x2="808" y2="410" stroke="#21262d" stroke-width="1" stroke-dasharray="4,4"/><line x1="72" y1="279" x2="808" y2="279" stroke="#30363d" stroke-width="1.5"/><text x="64" y="162" fill="#6e7681" font-size="10" font-family="'Segoe UI', sans-serif" text-anchor="end">+20,455</text><text x="64" y="406" fill="#6e7681" font-size="10" font-family="'Segoe UI', sans-serif" text-anchor="end">-20,455</text><text x="64" y="283" fill="#6e7681" font-size="10" font-family="'Segoe UI', sans-serif" text-anchor="end">0</text><path d="M 72 279 L 72 278.716059643119 L 96.53333333333333 279 L 121.06666666666666 278.6864825226106 L 145.60000000000002 279 L 170.13333333333333 248.52965045221217 L 194.66666666666669 193.5221217306282 L 219.20000000000002 237.36132974822783 L 243.73333333333335 251.534685895869 L 268.26666666666665 278.9704228794916 L 292.8 158 L 317.33333333333337 158 L 341.8666666666667 265.85001222195064 L 366.40000000000003 158 L 390.93333333333334 158 L 415.4666666666667 211.67064287460278 L 440 263.94524566120754 L 464.53333333333336 196.81701295526767 L 489.0666666666667 227.9912979711562 L 513.6 158 L 538.1333333333334 242.85675873869468 L 562.6666666666667 259.07093620141774 L 587.2 158 L 611.7333333333333 231.11464189684673 L 636.2666666666667 169.91957956489856 L 660.8000000000001 158 L 685.3333333333334 271.29220239550233 L 709.8666666666667 208.26927401613295 L 734.4000000000001 189.807235394769 L 758.9333333333334 258.7751649963334 L 783.4666666666667 227.4589098020044 L 808 260.330921535077 L 808 279 Z" fill="#3fb950" opacity="0.15"/><path d="M 72 279 L 72 278.716059643119 L 96.53333333333333 279 L 121.06666666666666 278.6864825226106 L 145.60000000000002 279 L 170.13333333333333 248.52965045221217 L 194.66666666666669 193.5221217306282 L 219.20000000000002 237.36132974822783 L 243.73333333333335 251.534685895869 L 268.26666666666665 278.9704228794916 L 292.8 158 L 317.33333333333337 158 L 341.8666666666667 265.85001222195064 L 366.40000000000003 158 L 390.93333333333334 158 L 415.4666666666667 211.67064287460278 L 440 263.94524566120754 L 464.53333333333336 196.81701295526767 L 489.0666666666667 227.9912979711562 L 513.6 158 L 538.1333333333334 242.85675873869468 L 562.6666666666667 259.07093620141774 L 587.2 158 L 611.7333333333333 231.11464189684673 L 636.2666666666667 169.91957956489856 L 660.8000000000001 158 L 685.3333333333334 271.29220239550233 L 709.8666666666667 208.26927401613295 L 734.4000000000001 189.807235394769 L 758.9333333333334 258.7751649963334 L 783.4666666666667 227.4589098020044 L 808 260.330921535077" fill="none" stroke="#3fb950" stroke-width="2"/><path d="M 72 279 L 72 307.7726228306038 L 96.53333333333333 279 L 121.06666666666666 279.2661940845759 L 145.60000000000002 279 L 170.13333333333333 279.67435834759226 L 194.66666666666669 283.88022488389146 L 219.20000000000002 290.80127108286484 L 243.73333333333335 279.3667562943046 L 268.26666666666665 279 L 292.8 282.265314104131 L 317.33333333333337 308.1926179418235 L 341.8666666666667 279.49098020044 L 366.40000000000003 286.3469567342948 L 390.93333333333334 284.2351503299927 L 415.4666666666667 310.25710095331215 L 440 282.20024443901247 L 464.53333333333336 306.5540454656563 L 489.0666666666667 288.48242483500366 L 513.6 327.2639452456612 L 538.1333333333334 295.8589586898069 L 562.6666666666667 286.54216572965043 L 587.2 289.9317037399169 L 611.7333333333333 283.60811537521386 L 636.2666666666667 306.4712295282327 L 660.8000000000001 400 L 685.3333333333334 282.0523588364703 L 709.8666666666667 285.4241505744317 L 734.4000000000001 295.3620630652652 L 758.9333333333334 279.5678807137619 L 783.4666666666667 298.6628697140064 L 808 282.756294304571 L 808 279 Z" fill="#f85149" opacity="0.15"/><path d="M 72 279 L 72 307.7726228306038 L 96.53333333333333 279 L 121.06666666666666 279.2661940845759 L 145.60000000000002 279 L 170.13333333333333 279.67435834759226 L 194.66666666666669 283.88022488389146 L 219.20000000000002 290.80127108286484 L 243.73333333333335 279.3667562943046 L 268.26666666666665 279 L 292.8 282.265314104131 L 317.33333333333337 308.1926179418235 L 341.8666666666667 279.49098020044 L 366.40000000000003 286.3469567342948 L 390.93333333333334 284.2351503299927 L 415.4666666666667 310.25710095331215 L 440 282.20024443901247 L 464.53333333333336 306.5540454656563 L 489.0666666666667 288.48242483500366 L 513.6 327.2639452456612 L 538.1333333333334 295.8589586898069 L 562.6666666666667 286.54216572965043 L 587.2 289.9317037399169 L 611.7333333333333 283.60811537521386 L 636.2666666666667 306.4712295282327 L 660.8000000000001 400 L 685.3333333333334 282.0523588364703 L 709.8666666666667 285.4241505744317 L 734.4000000000001 295.3620630652652 L 758.9333333333334 279.5678807137619 L 783.4666666666667 298.6628697140064 L 808 282.756294304571" fill="none" stroke="#f85149" stroke-width="2"/><text x="72" y="426" fill="#6e7681" font-size="10" font-family="'Segoe UI', sans-serif" text-anchor="middle">Apr 14</text><text x="194.66666666666669" y="426" fill="#6e7681" font-size="10" font-family="'Segoe UI', sans-serif" text-anchor="middle">Apr 19</text><text x="317.33333333333337" y="426" fill="#6e7681" font-size="10" font-family="'Segoe UI', sans-serif" text-anchor="middle">Apr 24</text><text x="440" y="426" fill="#6e7681" font-size="10" font-family="'Segoe UI', sans-serif" text-anchor="middle">Apr 29</text><text x="562.6666666666667" y="426" fill="#6e7681" font-size="10" font-family="'Segoe UI', sans-serif" text-anchor="middle">May 4</text><text x="685.3333333333334" y="426" fill="#6e7681" font-size="10" font-family="'Segoe UI', sans-serif" text-anchor="middle">May 9</text><text x="808" y="426" fill="#6e7681" font-size="10" font-family="'Segoe UI', sans-serif" text-anchor="middle">May 14</text>
  </g>

  <g class="cpd-legend">
    
    <circle cx="30" cy="442" r="5" fill="#3fb950"/>
    <text x="40" y="446" fill="#8b949e" font-size="11" font-family="'Segoe UI', sans-serif">Additions</text>
    <circle cx="124" cy="442" r="5" fill="#f85149"/>
    <text x="134" y="446" fill="#8b949e" font-size="11" font-family="'Segoe UI', sans-serif">Deletions</text>
    <text x="816" y="446" fill="#6e7681" font-size="10" font-family="'Segoe UI', sans-serif" text-anchor="end">Last 31 days · +999,082 / -91,761 lines</text>
  </g>

  <a href="https://github.com/mpge/code-per-day" target="_blank">
    <text x="420" y="452" fill="#6e7681" font-size="10" font-family="'Segoe UI', sans-serif" text-anchor="middle" opacity="0.6">Get your own - github.com/mpge/code-per-day</text>
  </a>
</svg>