<svg width="840" height="460" viewBox="0 0 840 460" xmlns="http://www.w3.org/2000/svg">
  
    <style>
      @keyframes fadeInUp {
        from { opacity: 0; transform: translateY(12px); }
        to   { opacity: 1; transform: translateY(0); }
      }
      @keyframes growBar {
        from { transform: scaleY(0); }
        to   { transform: scaleY(1); }
      }
      .cpd-header  { animation: fadeInUp 0.5s ease both; }
      .cpd-stats   { animation: fadeInUp 0.5s ease 0.15s both; }
      .cpd-chart   { animation: fadeInUp 0.5s ease 0.3s both; }
      .cpd-legend  { animation: fadeInUp 0.5s ease 0.45s both; }
    </style>

  <rect width="840" height="460" rx="12" fill="#0d1117" stroke="#30363d" stroke-width="1"/>

  <g class="cpd-header">
    <a href="https://github.com/mpge/code-per-day" target="_blank">
      <text x="24" y="44" fill="#f0f6fc" font-size="18" font-family="'Segoe UI', sans-serif" font-weight="700">Code Per Day</text>
    </a>
    <text x="816" y="44" fill="#484f58" font-size="13" font-family="'Segoe UI', sans-serif" text-anchor="end" font-weight="500">@mpge</text>
  </g>

  <g class="cpd-stats">
    
    <rect x="24" y="60" width="190" height="68" rx="8" fill="#010409" stroke="#30363d" stroke-width="1"/>
    <text x="119" y="78" fill="#484f58" font-size="11" font-family="'Segoe UI', sans-serif" text-anchor="middle" font-weight="500">Today</text>
    <text x="119" y="100" fill="#3fb950" font-size="16" font-family="'Segoe UI Mono', 'Cascadia Code', monospace" text-anchor="middle" font-weight="700">+0</text>
    <text x="119" y="118" fill="#f85149" font-size="14" font-family="'Segoe UI Mono', 'Cascadia Code', monospace" text-anchor="middle" font-weight="600">+0</text>
    <rect x="222" y="60" width="190" height="68" rx="8" fill="#010409" stroke="#30363d" stroke-width="1"/>
    <text x="317" y="78" fill="#484f58" font-size="11" font-family="'Segoe UI', sans-serif" text-anchor="middle" font-weight="500">30d Avg</text>
    <text x="317" y="100" fill="#3fb950" font-size="16" font-family="'Segoe UI Mono', 'Cascadia Code', monospace" text-anchor="middle" font-weight="700">+8,191</text>
    <text x="317" y="118" fill="#f85149" font-size="14" font-family="'Segoe UI Mono', 'Cascadia Code', monospace" text-anchor="middle" font-weight="600">-830</text>
    <rect x="420" y="60" width="190" height="68" rx="8" fill="#010409" stroke="#30363d" stroke-width="1"/>
    <text x="515" y="78" fill="#484f58" font-size="11" font-family="'Segoe UI', sans-serif" text-anchor="middle" font-weight="500">Year Avg</text>
    <text x="515" y="100" fill="#3fb950" font-size="16" font-family="'Segoe UI Mono', 'Cascadia Code', monospace" text-anchor="middle" font-weight="700">+25,989</text>
    <text x="515" y="118" fill="#f85149" font-size="14" font-family="'Segoe UI Mono', 'Cascadia Code', monospace" text-anchor="middle" font-weight="600">-7,073</text>
    <rect x="618" y="60" width="190" height="68" rx="8" fill="#010409" stroke="#30363d" stroke-width="1"/>
    <text x="713" y="78" fill="#484f58" font-size="11" font-family="'Segoe UI', sans-serif" text-anchor="middle" font-weight="500">Streak</text>
    <text x="713" y="104" fill="#2f81f7" font-size="20" font-family="'Segoe UI Mono', 'Cascadia Code', monospace" text-anchor="middle" font-weight="700">228</text>
    <text x="713" y="120" fill="#484f58" font-size="11" font-family="'Segoe UI', sans-serif" text-anchor="middle">days</text>
  </g>

  <g class="cpd-chart">
    <line x1="72" y1="148" x2="808" y2="148" stroke="#21262d" stroke-width="1" stroke-dasharray="4,4"/><line x1="72" y1="213.5" x2="808" y2="213.5" stroke="#21262d" stroke-width="1" stroke-dasharray="4,4"/><line x1="72" y1="279" x2="808" y2="279" stroke="#21262d" stroke-width="1" stroke-dasharray="4,4"/><line x1="72" y1="344.5" x2="808" y2="344.5" stroke="#21262d" stroke-width="1" stroke-dasharray="4,4"/><line x1="72" y1="410" x2="808" y2="410" stroke="#21262d" stroke-width="1" stroke-dasharray="4,4"/><line x1="72" y1="279" x2="808" y2="279" stroke="#30363d" stroke-width="1.5"/><text x="64" y="162" fill="#484f58" font-size="10" font-family="'Segoe UI', sans-serif" text-anchor="end">+10,969</text><text x="64" y="406" fill="#484f58" font-size="10" font-family="'Segoe UI', sans-serif" text-anchor="end">-10,969</text><text x="64" y="283" fill="#484f58" font-size="10" font-family="'Segoe UI', sans-serif" text-anchor="end">0</text><path d="M 72 279 L 72 274.60962713100554 L 96.53333333333333 227.55100738444708 L 121.06666666666666 271.07967909563314 L 145.60000000000002 279 L 170.13333333333333 267.69313519919774 L 194.66666666666669 224.70498678092807 L 219.20000000000002 217.53477983407785 L 243.73333333333335 245.12352994803538 L 268.26666666666665 158 L 292.8 184.6731698422828 L 317.33333333333337 158 L 341.8666666666667 198.90327285987786 L 366.40000000000003 202.26775458109216 L 390.93333333333334 258.73589205944023 L 415.4666666666667 263.357917768256 L 440 279 L 464.53333333333336 158 L 489.0666666666667 243.89907922326557 L 513.6 251.09134834533685 L 538.1333333333334 275.3597410885222 L 562.6666666666667 279 L 587.2 279 L 611.7333333333333 271.3775184611177 L 636.2666666666667 279 L 660.8000000000001 264.2734980399307 L 685.3333333333334 273.2086790044671 L 709.8666666666667 279 L 734.4000000000001 279 L 758.9333333333334 262.7070835992342 L 783.4666666666667 277.47770990974567 L 808 279 L 808 279 Z" fill="#3fb950" opacity="0.15"/><path d="M 72 279 L 72 274.60962713100554 L 96.53333333333333 227.55100738444708 L 121.06666666666666 271.07967909563314 L 145.60000000000002 279 L 170.13333333333333 267.69313519919774 L 194.66666666666669 224.70498678092807 L 219.20000000000002 217.53477983407785 L 243.73333333333335 245.12352994803538 L 268.26666666666665 158 L 292.8 184.6731698422828 L 317.33333333333337 158 L 341.8666666666667 198.90327285987786 L 366.40000000000003 202.26775458109216 L 390.93333333333334 258.73589205944023 L 415.4666666666667 263.357917768256 L 440 279 L 464.53333333333336 158 L 489.0666666666667 243.89907922326557 L 513.6 251.09134834533685 L 538.1333333333334 275.3597410885222 L 562.6666666666667 279 L 587.2 279 L 611.7333333333333 271.3775184611177 L 636.2666666666667 279 L 660.8000000000001 264.2734980399307 L 685.3333333333334 273.2086790044671 L 709.8666666666667 279 L 734.4000000000001 279 L 758.9333333333334 262.7070835992342 L 783.4666666666667 277.47770990974567 L 808 279" fill="none" stroke="#3fb950" stroke-width="2"/><path d="M 72 279 L 72 281.31652839821317 L 96.53333333333333 329.0480444890145 L 121.06666666666666 279.3309326283162 L 145.60000000000002 279 L 170.13333333333333 281.74674081502417 L 194.66666666666669 284.7141033822591 L 219.20000000000002 289.68912389461207 L 243.73333333333335 280.2244507247698 L 268.26666666666665 341.25945847388095 L 292.8 284.0522381256268 L 317.33333333333337 281.15106208405507 L 341.8666666666667 291.4430668246878 L 366.40000000000003 279.75011395751665 L 390.93333333333334 280.8532227185705 L 415.4666666666667 279.9045491840642 L 440 279 L 464.53333333333336 370.27121888959795 L 489.0666666666667 286.28051782295563 L 513.6 286.6224815388823 L 538.1333333333334 279 L 562.6666666666667 279 L 587.2 279 L 611.7333333333333 280.5884766159176 L 636.2666666666667 279 L 660.8000000000001 279.41918132920046 L 685.3333333333334 284.63688576898534 L 709.8666666666667 279 L 734.4000000000001 279 L 758.9333333333334 290.1524295742547 L 783.4666666666667 279.29783936548455 L 808 279 L 808 279 Z" fill="#f85149" opacity="0.15"/><path d="M 72 279 L 72 281.31652839821317 L 96.53333333333333 329.0480444890145 L 121.06666666666666 279.3309326283162 L 145.60000000000002 279 L 170.13333333333333 281.74674081502417 L 194.66666666666669 284.7141033822591 L 219.20000000000002 289.68912389461207 L 243.73333333333335 280.2244507247698 L 268.26666666666665 341.25945847388095 L 292.8 284.0522381256268 L 317.33333333333337 281.15106208405507 L 341.8666666666667 291.4430668246878 L 366.40000000000003 279.75011395751665 L 390.93333333333334 280.8532227185705 L 415.4666666666667 279.9045491840642 L 440 279 L 464.53333333333336 370.27121888959795 L 489.0666666666667 286.28051782295563 L 513.6 286.6224815388823 L 538.1333333333334 279 L 562.6666666666667 279 L 587.2 279 L 611.7333333333333 280.5884766159176 L 636.2666666666667 279 L 660.8000000000001 279.41918132920046 L 685.3333333333334 284.63688576898534 L 709.8666666666667 279 L 734.4000000000001 279 L 758.9333333333334 290.1524295742547 L 783.4666666666667 279.29783936548455 L 808 279" fill="none" stroke="#f85149" stroke-width="2"/><text x="72" y="426" fill="#484f58" font-size="10" font-family="'Segoe UI', sans-serif" text-anchor="middle">Jun 13</text><text x="194.66666666666669" y="426" fill="#484f58" font-size="10" font-family="'Segoe UI', sans-serif" text-anchor="middle">Jun 18</text><text x="317.33333333333337" y="426" fill="#484f58" font-size="10" font-family="'Segoe UI', sans-serif" text-anchor="middle">Jun 23</text><text x="440" y="426" fill="#484f58" font-size="10" font-family="'Segoe UI', sans-serif" text-anchor="middle">Jun 28</text><text x="562.6666666666667" y="426" fill="#484f58" font-size="10" font-family="'Segoe UI', sans-serif" text-anchor="middle">Jul 3</text><text x="685.3333333333334" y="426" fill="#484f58" font-size="10" font-family="'Segoe UI', sans-serif" text-anchor="middle">Jul 8</text><text x="808" y="426" fill="#484f58" font-size="10" font-family="'Segoe UI', sans-serif" text-anchor="middle">Jul 13</text>
  </g>

  <g class="cpd-legend">
    
    <circle cx="30" cy="442" r="5" fill="#3fb950"/>
    <text x="40" y="446" fill="#7d8590" font-size="11" font-family="'Segoe UI', sans-serif">Additions</text>
    <circle cx="124" cy="442" r="5" fill="#f85149"/>
    <text x="134" y="446" fill="#7d8590" font-size="11" font-family="'Segoe UI', sans-serif">Deletions</text>
    <text x="816" y="446" fill="#484f58" font-size="10" font-family="'Segoe UI', sans-serif" text-anchor="end">Last 31 days · +253,916 / -25,723 lines</text>
  </g>

  <a href="https://github.com/mpge/code-per-day" target="_blank">
    <text x="420" y="452" fill="#484f58" font-size="10" font-family="'Segoe UI', sans-serif" text-anchor="middle" opacity="0.6">Get your own - github.com/mpge/code-per-day</text>
  </a>
</svg>