<svg width="840" height="460" viewBox="0 0 840 460" xmlns="http://www.w3.org/2000/svg">
  
    <style>
      @keyframes fadeInUp {
        from { opacity: 0; transform: translateY(12px); }
        to   { opacity: 1; transform: translateY(0); }
      }
      @keyframes growBar {
        from { transform: scaleY(0); }
        to   { transform: scaleY(1); }
      }
      .cpd-header  { animation: fadeInUp 0.5s ease both; }
      .cpd-stats   { animation: fadeInUp 0.5s ease 0.15s both; }
      .cpd-chart   { animation: fadeInUp 0.5s ease 0.3s both; }
      .cpd-legend  { animation: fadeInUp 0.5s ease 0.45s both; }
    </style>

  <rect width="840" height="460" rx="12" fill="#1a1028" stroke="#3d2660" stroke-width="1"/>

  <g class="cpd-header">
    <a href="https://github.com/mpge/code-per-day" target="_blank">
      <text x="24" y="44" fill="#f0d0ff" font-size="18" font-family="'Segoe UI', sans-serif" font-weight="700">Code Per Day</text>
    </a>
    <text x="816" y="44" fill="#7a5a8e" font-size="13" font-family="'Segoe UI', sans-serif" text-anchor="end" font-weight="500">@mpge</text>
  </g>

  <g class="cpd-stats">
    
    <rect x="24" y="60" width="190" height="68" rx="8" fill="#160e22" stroke="#3d2660" stroke-width="1"/>
    <text x="119" y="78" fill="#7a5a8e" font-size="11" font-family="'Segoe UI', sans-serif" text-anchor="middle" font-weight="500">Today</text>
    <text x="119" y="100" fill="#ffb86c" font-size="16" font-family="'Segoe UI Mono', 'Cascadia Code', monospace" text-anchor="middle" font-weight="700">+0</text>
    <text x="119" y="118" fill="#ff79c6" font-size="14" font-family="'Segoe UI Mono', 'Cascadia Code', monospace" text-anchor="middle" font-weight="600">+0</text>
    <rect x="222" y="60" width="190" height="68" rx="8" fill="#160e22" stroke="#3d2660" stroke-width="1"/>
    <text x="317" y="78" fill="#7a5a8e" font-size="11" font-family="'Segoe UI', sans-serif" text-anchor="middle" font-weight="500">30d Avg</text>
    <text x="317" y="100" fill="#ffb86c" font-size="16" font-family="'Segoe UI Mono', 'Cascadia Code', monospace" text-anchor="middle" font-weight="700">+16,892</text>
    <text x="317" y="118" fill="#ff79c6" font-size="14" font-family="'Segoe UI Mono', 'Cascadia Code', monospace" text-anchor="middle" font-weight="600">-6,307</text>
    <rect x="420" y="60" width="190" height="68" rx="8" fill="#160e22" stroke="#3d2660" stroke-width="1"/>
    <text x="515" y="78" fill="#7a5a8e" font-size="11" font-family="'Segoe UI', sans-serif" text-anchor="middle" font-weight="500">Year Avg</text>
    <text x="515" y="100" fill="#ffb86c" font-size="16" font-family="'Segoe UI Mono', 'Cascadia Code', monospace" text-anchor="middle" font-weight="700">+25,495</text>
    <text x="515" y="118" fill="#ff79c6" font-size="14" font-family="'Segoe UI Mono', 'Cascadia Code', monospace" text-anchor="middle" font-weight="600">-7,075</text>
    <rect x="618" y="60" width="190" height="68" rx="8" fill="#160e22" stroke="#3d2660" stroke-width="1"/>
    <text x="713" y="78" fill="#7a5a8e" font-size="11" font-family="'Segoe UI', sans-serif" text-anchor="middle" font-weight="500">Streak</text>
    <text x="713" y="104" fill="#ff79c6" font-size="20" font-family="'Segoe UI Mono', 'Cascadia Code', monospace" text-anchor="middle" font-weight="700">196</text>
    <text x="713" y="120" fill="#7a5a8e" font-size="11" font-family="'Segoe UI', sans-serif" text-anchor="middle">days</text>
  </g>

  <g class="cpd-chart">
    <line x1="72" y1="148" x2="808" y2="148" stroke="#2d1c44" stroke-width="1" stroke-dasharray="4,4"/><line x1="72" y1="213.5" x2="808" y2="213.5" stroke="#2d1c44" stroke-width="1" stroke-dasharray="4,4"/><line x1="72" y1="279" x2="808" y2="279" stroke="#2d1c44" stroke-width="1" stroke-dasharray="4,4"/><line x1="72" y1="344.5" x2="808" y2="344.5" stroke="#2d1c44" stroke-width="1" stroke-dasharray="4,4"/><line x1="72" y1="410" x2="808" y2="410" stroke="#2d1c44" stroke-width="1" stroke-dasharray="4,4"/><line x1="72" y1="279" x2="808" y2="279" stroke="#3d2660" stroke-width="1.5"/><text x="64" y="162" fill="#7a5a8e" font-size="10" font-family="'Segoe UI', sans-serif" text-anchor="end">+31,929</text><text x="64" y="406" fill="#7a5a8e" font-size="10" font-family="'Segoe UI', sans-serif" text-anchor="end">-31,929</text><text x="64" y="283" fill="#7a5a8e" font-size="10" font-family="'Segoe UI', sans-serif" text-anchor="end">0</text><path d="M 72 279 L 72 245.98070719408688 L 96.53333333333333 263.613987284287 L 121.06666666666666 260.7376366312756 L 145.60000000000002 277.21128128034076 L 170.13333333333333 158 L 194.66666666666669 158 L 219.20000000000002 158 L 243.73333333333335 195.46077233862633 L 268.26666666666665 276.7565222838172 L 292.8 261.0711265620596 L 317.33333333333337 230.85239124307057 L 341.8666666666667 228.85524131667137 L 366.40000000000003 261.1014438284945 L 390.93333333333334 262.9924833223715 L 415.4666666666667 265.89157192520906 L 440 199.59528954868614 L 464.53333333333336 234.8429014375646 L 489.0666666666667 245.82533120360802 L 513.6 158 L 538.1333333333334 208.90269034420118 L 562.6666666666667 158 L 587.2 203.72222744213724 L 611.7333333333333 254.3217451219894 L 636.2666666666667 225.3270694353096 L 660.8000000000001 278.27238560556236 L 685.3333333333334 279 L 709.8666666666667 272.1179805192771 L 734.4000000000001 279 L 758.9333333333334 262.9091108396755 L 783.4666666666667 279 L 808 279 L 808 279 Z" fill="#ffb86c" opacity="0.15"/><path d="M 72 279 L 72 245.98070719408688 L 96.53333333333333 263.613987284287 L 121.06666666666666 260.7376366312756 L 145.60000000000002 277.21128128034076 L 170.13333333333333 158 L 194.66666666666669 158 L 219.20000000000002 158 L 243.73333333333335 195.46077233862633 L 268.26666666666665 276.7565222838172 L 292.8 261.0711265620596 L 317.33333333333337 230.85239124307057 L 341.8666666666667 228.85524131667137 L 366.40000000000003 261.1014438284945 L 390.93333333333334 262.9924833223715 L 415.4666666666667 265.89157192520906 L 440 199.59528954868614 L 464.53333333333336 234.8429014375646 L 489.0666666666667 245.82533120360802 L 513.6 158 L 538.1333333333334 208.90269034420118 L 562.6666666666667 158 L 587.2 203.72222744213724 L 611.7333333333333 254.3217451219894 L 636.2666666666667 225.3270694353096 L 660.8000000000001 278.27238560556236 L 685.3333333333334 279 L 709.8666666666667 272.1179805192771 L 734.4000000000001 279 L 758.9333333333334 262.9091108396755 L 783.4666666666667 279 L 808 279" fill="none" stroke="#ffb86c" stroke-width="2"/><path d="M 72 279 L 72 291.59682420370194 L 96.53333333333333 282.6608099220145 L 121.06666666666666 281.0085189013123 L 145.60000000000002 279.3675968555232 L 170.13333333333333 283.9417144288891 L 194.66666666666669 289.0160668984309 L 219.20000000000002 400 L 243.73333333333335 312.0117134893044 L 268.26666666666665 280.48554605531024 L 292.8 292.8019355444893 L 317.33333333333337 299.619530834038 L 341.8666666666667 293.93883303579815 L 366.40000000000003 282.2401578502302 L 390.93333333333334 284.1577249522378 L 415.4666666666667 285.3059914184597 L 440 296.48548341633 L 464.53333333333336 298.73275079081714 L 489.0666666666667 281.7096056876194 L 513.6 330.3650286573335 L 538.1333333333334 400 L 562.6666666666667 394.66795076576153 L 587.2 299.62711015064673 L 611.7333333333333 282.8161859124933 L 636.2666666666667 286.64753045820413 L 660.8000000000001 279.22737949826177 L 685.3333333333334 279 L 709.8666666666667 279.041686241348 L 734.4000000000001 279 L 758.9333333333334 279.3107519809578 L 783.4666666666667 279 L 808 279 L 808 279 Z" fill="#ff79c6" opacity="0.15"/><path d="M 72 279 L 72 291.59682420370194 L 96.53333333333333 282.6608099220145 L 121.06666666666666 281.0085189013123 L 145.60000000000002 279.3675968555232 L 170.13333333333333 283.9417144288891 L 194.66666666666669 289.0160668984309 L 219.20000000000002 400 L 243.73333333333335 312.0117134893044 L 268.26666666666665 280.48554605531024 L 292.8 292.8019355444893 L 317.33333333333337 299.619530834038 L 341.8666666666667 293.93883303579815 L 366.40000000000003 282.2401578502302 L 390.93333333333334 284.1577249522378 L 415.4666666666667 285.3059914184597 L 440 296.48548341633 L 464.53333333333336 298.73275079081714 L 489.0666666666667 281.7096056876194 L 513.6 330.3650286573335 L 538.1333333333334 400 L 562.6666666666667 394.66795076576153 L 587.2 299.62711015064673 L 611.7333333333333 282.8161859124933 L 636.2666666666667 286.64753045820413 L 660.8000000000001 279.22737949826177 L 685.3333333333334 279 L 709.8666666666667 279.041686241348 L 734.4000000000001 279 L 758.9333333333334 279.3107519809578 L 783.4666666666667 279 L 808 279" fill="none" stroke="#ff79c6" stroke-width="2"/><text x="72" y="426" fill="#7a5a8e" font-size="10" font-family="'Segoe UI', sans-serif" text-anchor="middle">May 13</text><text x="194.66666666666669" y="426" fill="#7a5a8e" font-size="10" font-family="'Segoe UI', sans-serif" text-anchor="middle">May 18</text><text x="317.33333333333337" y="426" fill="#7a5a8e" font-size="10" font-family="'Segoe UI', sans-serif" text-anchor="middle">May 23</text><text x="440" y="426" fill="#7a5a8e" font-size="10" font-family="'Segoe UI', sans-serif" text-anchor="middle">May 28</text><text x="562.6666666666667" y="426" fill="#7a5a8e" font-size="10" font-family="'Segoe UI', sans-serif" text-anchor="middle">Jun 2</text><text x="685.3333333333334" y="426" fill="#7a5a8e" font-size="10" font-family="'Segoe UI', sans-serif" text-anchor="middle">Jun 7</text><text x="808" y="426" fill="#7a5a8e" font-size="10" font-family="'Segoe UI', sans-serif" text-anchor="middle">Jun 12</text>
  </g>

  <g class="cpd-legend">
    
    <circle cx="30" cy="442" r="5" fill="#ffb86c"/>
    <text x="40" y="446" fill="#c4a0d8" font-size="11" font-family="'Segoe UI', sans-serif">Additions</text>
    <circle cx="124" cy="442" r="5" fill="#ff79c6"/>
    <text x="134" y="446" fill="#c4a0d8" font-size="11" font-family="'Segoe UI', sans-serif">Deletions</text>
    <text x="816" y="446" fill="#7a5a8e" font-size="10" font-family="'Segoe UI', sans-serif" text-anchor="end">Last 31 days · +523,661 / -195,528 lines</text>
  </g>

  <a href="https://github.com/mpge/code-per-day" target="_blank">
    <text x="420" y="452" fill="#7a5a8e" font-size="10" font-family="'Segoe UI', sans-serif" text-anchor="middle" opacity="0.6">Get your own - github.com/mpge/code-per-day</text>
  </a>
</svg>