<svg width="840" height="460" viewBox="0 0 840 460" xmlns="http://www.w3.org/2000/svg">
  
    <style>
      @keyframes fadeInUp {
        from { opacity: 0; transform: translateY(12px); }
        to   { opacity: 1; transform: translateY(0); }
      }
      @keyframes growBar {
        from { transform: scaleY(0); }
        to   { transform: scaleY(1); }
      }
      .cpd-header  { animation: fadeInUp 0.5s ease both; }
      .cpd-stats   { animation: fadeInUp 0.5s ease 0.15s both; }
      .cpd-chart   { animation: fadeInUp 0.5s ease 0.3s both; }
      .cpd-legend  { animation: fadeInUp 0.5s ease 0.45s both; }
    </style>

  <rect width="840" height="460" rx="12" fill="#ffffff" stroke="#d0d7de" stroke-width="1"/>

  <g class="cpd-header">
    <a href="https://github.com/mpge/code-per-day" target="_blank">
      <text x="24" y="44" fill="#1f2328" font-size="18" font-family="'Segoe UI', sans-serif" font-weight="700">Code Per Day</text>
    </a>
    <text x="816" y="44" fill="#8b949e" font-size="13" font-family="'Segoe UI', sans-serif" text-anchor="end" font-weight="500">@mpge</text>
  </g>

  <g class="cpd-stats">
    
    <rect x="24" y="60" width="190" height="68" rx="8" fill="#ffffff" stroke="#d0d7de" stroke-width="1"/>
    <text x="119" y="78" fill="#8b949e" font-size="11" font-family="'Segoe UI', sans-serif" text-anchor="middle" font-weight="500">Today</text>
    <text x="119" y="100" fill="#1a7f37" font-size="16" font-family="'Segoe UI Mono', 'Cascadia Code', monospace" text-anchor="middle" font-weight="700">+0</text>
    <text x="119" y="118" fill="#cf222e" font-size="14" font-family="'Segoe UI Mono', 'Cascadia Code', monospace" text-anchor="middle" font-weight="600">+0</text>
    <rect x="222" y="60" width="190" height="68" rx="8" fill="#ffffff" stroke="#d0d7de" stroke-width="1"/>
    <text x="317" y="78" fill="#8b949e" font-size="11" font-family="'Segoe UI', sans-serif" text-anchor="middle" font-weight="500">30d Avg</text>
    <text x="317" y="100" fill="#1a7f37" font-size="16" font-family="'Segoe UI Mono', 'Cascadia Code', monospace" text-anchor="middle" font-weight="700">+8,489</text>
    <text x="317" y="118" fill="#cf222e" font-size="14" font-family="'Segoe UI Mono', 'Cascadia Code', monospace" text-anchor="middle" font-weight="600">-971</text>
    <rect x="420" y="60" width="190" height="68" rx="8" fill="#ffffff" stroke="#d0d7de" stroke-width="1"/>
    <text x="515" y="78" fill="#8b949e" font-size="11" font-family="'Segoe UI', sans-serif" text-anchor="middle" font-weight="500">Year Avg</text>
    <text x="515" y="100" fill="#1a7f37" font-size="16" font-family="'Segoe UI Mono', 'Cascadia Code', monospace" text-anchor="middle" font-weight="700">+26,156</text>
    <text x="515" y="118" fill="#cf222e" font-size="14" font-family="'Segoe UI Mono', 'Cascadia Code', monospace" text-anchor="middle" font-weight="600">-7,152</text>
    <rect x="618" y="60" width="190" height="68" rx="8" fill="#ffffff" stroke="#d0d7de" stroke-width="1"/>
    <text x="713" y="78" fill="#8b949e" font-size="11" font-family="'Segoe UI', sans-serif" text-anchor="middle" font-weight="500">Streak</text>
    <text x="713" y="104" fill="#0969da" font-size="20" font-family="'Segoe UI Mono', 'Cascadia Code', monospace" text-anchor="middle" font-weight="700">224</text>
    <text x="713" y="120" fill="#8b949e" font-size="11" font-family="'Segoe UI', sans-serif" text-anchor="middle">days</text>
  </g>

  <g class="cpd-chart">
    <line x1="72" y1="148" x2="808" y2="148" stroke="#eaeef2" stroke-width="1" stroke-dasharray="4,4"/><line x1="72" y1="213.5" x2="808" y2="213.5" stroke="#eaeef2" stroke-width="1" stroke-dasharray="4,4"/><line x1="72" y1="279" x2="808" y2="279" stroke="#eaeef2" stroke-width="1" stroke-dasharray="4,4"/><line x1="72" y1="344.5" x2="808" y2="344.5" stroke="#eaeef2" stroke-width="1" stroke-dasharray="4,4"/><line x1="72" y1="410" x2="808" y2="410" stroke="#eaeef2" stroke-width="1" stroke-dasharray="4,4"/><line x1="72" y1="279" x2="808" y2="279" stroke="#d0d7de" stroke-width="1.5"/><text x="64" y="162" fill="#8b949e" font-size="10" font-family="'Segoe UI', sans-serif" text-anchor="end">+10,875</text><text x="64" y="406" fill="#8b949e" font-size="10" font-family="'Segoe UI', sans-serif" text-anchor="end">-10,875</text><text x="64" y="283" fill="#8b949e" font-size="10" font-family="'Segoe UI', sans-serif" text-anchor="end">0</text><path d="M 72 279 L 72 279 L 96.53333333333333 231.75714942528737 L 121.06666666666666 279 L 145.60000000000002 278.1655172413793 L 170.13333333333333 274.57167816091953 L 194.66666666666669 227.10629885057472 L 219.20000000000002 271.0112183908046 L 243.73333333333335 279 L 268.26666666666665 263.10032183908044 L 292.8 224.23567816091955 L 317.33333333333337 217.00349425287357 L 341.8666666666667 244.83071264367817 L 366.40000000000003 158 L 390.93333333333334 183.85783908045977 L 415.4666666666667 158 L 440 198.21094252873564 L 464.53333333333336 201.60450574712644 L 489.0666666666667 258.5607356321839 L 513.6 263.2115862068965 L 538.1333333333334 228.69737931034484 L 562.6666666666667 158 L 587.2 243.59567816091953 L 611.7333333333333 250.85011494252873 L 636.2666666666667 275.32827586206895 L 660.8000000000001 279 L 685.3333333333334 276.1293793103448 L 709.8666666666667 271.31163218390805 L 734.4000000000001 279 L 758.9333333333334 264.14620689655175 L 783.4666666666667 258.04891954022986 L 808 279 L 808 279 Z" fill="#1a7f37" opacity="0.15"/><path d="M 72 279 L 72 279 L 96.53333333333333 231.75714942528737 L 121.06666666666666 279 L 145.60000000000002 278.1655172413793 L 170.13333333333333 274.57167816091953 L 194.66666666666669 227.10629885057472 L 219.20000000000002 271.0112183908046 L 243.73333333333335 279 L 268.26666666666665 263.10032183908044 L 292.8 224.23567816091955 L 317.33333333333337 217.00349425287357 L 341.8666666666667 244.83071264367817 L 366.40000000000003 158 L 390.93333333333334 183.85783908045977 L 415.4666666666667 158 L 440 198.21094252873564 L 464.53333333333336 201.60450574712644 L 489.0666666666667 258.5607356321839 L 513.6 263.2115862068965 L 538.1333333333334 228.69737931034484 L 562.6666666666667 158 L 587.2 243.59567816091953 L 611.7333333333333 250.85011494252873 L 636.2666666666667 275.32827586206895 L 660.8000000000001 279 L 685.3333333333334 276.1293793103448 L 709.8666666666667 271.31163218390805 L 734.4000000000001 279 L 758.9333333333334 264.14620689655175 L 783.4666666666667 258.04891954022986 L 808 279" fill="none" stroke="#1a7f37" stroke-width="2"/><path d="M 72 279 L 72 279 L 96.53333333333333 279.91236781609194 L 121.06666666666666 279 L 145.60000000000002 279.99025287356324 L 170.13333333333333 281.3365517241379 L 194.66666666666669 329.4806436781609 L 219.20000000000002 279.3337931034483 L 243.73333333333335 279 L 268.26666666666665 282.93875862068967 L 292.8 284.76349425287356 L 317.33333333333337 289.78151724137933 L 341.8666666666667 280.23503448275864 L 366.40000000000003 341.7976091954023 L 390.93333333333334 288.9470344827586 L 415.4666666666667 308.85222988505745 L 440 291.55062068965515 L 464.53333333333336 279.7565977011494 L 489.0666666666667 280.8692413793103 L 513.6 279.9568735632184 L 538.1333333333334 282.1710344827586 L 562.6666666666667 371.0601379310345 L 587.2 286.34344827586204 L 611.7333333333333 286.68836781609195 L 636.2666666666667 279 L 660.8000000000001 279 L 685.3333333333334 280.6912183908046 L 709.8666666666667 280.6022068965517 L 734.4000000000001 279 L 758.9333333333334 284.3073103448276 L 783.4666666666667 299.60616091954023 L 808 279 L 808 279 Z" fill="#cf222e" opacity="0.15"/><path d="M 72 279 L 72 279 L 96.53333333333333 279.91236781609194 L 121.06666666666666 279 L 145.60000000000002 279.99025287356324 L 170.13333333333333 281.3365517241379 L 194.66666666666669 329.4806436781609 L 219.20000000000002 279.3337931034483 L 243.73333333333335 279 L 268.26666666666665 282.93875862068967 L 292.8 284.76349425287356 L 317.33333333333337 289.78151724137933 L 341.8666666666667 280.23503448275864 L 366.40000000000003 341.7976091954023 L 390.93333333333334 288.9470344827586 L 415.4666666666667 308.85222988505745 L 440 291.55062068965515 L 464.53333333333336 279.7565977011494 L 489.0666666666667 280.8692413793103 L 513.6 279.9568735632184 L 538.1333333333334 282.1710344827586 L 562.6666666666667 371.0601379310345 L 587.2 286.34344827586204 L 611.7333333333333 286.68836781609195 L 636.2666666666667 279 L 660.8000000000001 279 L 685.3333333333334 280.6912183908046 L 709.8666666666667 280.6022068965517 L 734.4000000000001 279 L 758.9333333333334 284.3073103448276 L 783.4666666666667 299.60616091954023 L 808 279" fill="none" stroke="#cf222e" stroke-width="2"/><text x="72" y="426" fill="#8b949e" font-size="10" font-family="'Segoe UI', sans-serif" text-anchor="middle">Jun 9</text><text x="194.66666666666669" y="426" fill="#8b949e" font-size="10" font-family="'Segoe UI', sans-serif" text-anchor="middle">Jun 14</text><text x="317.33333333333337" y="426" fill="#8b949e" font-size="10" font-family="'Segoe UI', sans-serif" text-anchor="middle">Jun 19</text><text x="440" y="426" fill="#8b949e" font-size="10" font-family="'Segoe UI', sans-serif" text-anchor="middle">Jun 24</text><text x="562.6666666666667" y="426" fill="#8b949e" font-size="10" font-family="'Segoe UI', sans-serif" text-anchor="middle">Jun 29</text><text x="685.3333333333334" y="426" fill="#8b949e" font-size="10" font-family="'Segoe UI', sans-serif" text-anchor="middle">Jul 4</text><text x="808" y="426" fill="#8b949e" font-size="10" font-family="'Segoe UI', sans-serif" text-anchor="middle">Jul 9</text>
  </g>

  <g class="cpd-legend">
    
    <circle cx="30" cy="442" r="5" fill="#1a7f37"/>
    <text x="40" y="446" fill="#656d76" font-size="11" font-family="'Segoe UI', sans-serif">Additions</text>
    <circle cx="124" cy="442" r="5" fill="#cf222e"/>
    <text x="134" y="446" fill="#656d76" font-size="11" font-family="'Segoe UI', sans-serif">Deletions</text>
    <text x="816" y="446" fill="#8b949e" font-size="10" font-family="'Segoe UI', sans-serif" text-anchor="end">Last 31 days · +263,164 / -30,106 lines</text>
  </g>

  <a href="https://github.com/mpge/code-per-day" target="_blank">
    <text x="420" y="452" fill="#8b949e" font-size="10" font-family="'Segoe UI', sans-serif" text-anchor="middle" opacity="0.6">Get your own - github.com/mpge/code-per-day</text>
  </a>
</svg>