<svg width="840" height="460" viewBox="0 0 840 460" xmlns="http://www.w3.org/2000/svg">
  
    <style>
      @keyframes fadeInUp {
        from { opacity: 0; transform: translateY(12px); }
        to   { opacity: 1; transform: translateY(0); }
      }
      @keyframes growBar {
        from { transform: scaleY(0); }
        to   { transform: scaleY(1); }
      }
      .cpd-header  { animation: fadeInUp 0.5s ease both; }
      .cpd-stats   { animation: fadeInUp 0.5s ease 0.15s both; }
      .cpd-chart   { animation: fadeInUp 0.5s ease 0.3s both; }
      .cpd-legend  { animation: fadeInUp 0.5s ease 0.45s both; }
    </style>

  <rect width="840" height="460" rx="12" fill="#1a1028" stroke="#3d2660" stroke-width="1"/>

  <g class="cpd-header">
    <a href="https://github.com/mpge/code-per-day" target="_blank">
      <text x="24" y="44" fill="#f0d0ff" font-size="18" font-family="'Segoe UI', sans-serif" font-weight="700">Code Per Day</text>
    </a>
    <text x="816" y="44" fill="#7a5a8e" font-size="13" font-family="'Segoe UI', sans-serif" text-anchor="end" font-weight="500">@mpge</text>
  </g>

  <g class="cpd-stats">
    
    <rect x="24" y="60" width="190" height="68" rx="8" fill="#160e22" stroke="#3d2660" stroke-width="1"/>
    <text x="119" y="78" fill="#7a5a8e" font-size="11" font-family="'Segoe UI', sans-serif" text-anchor="middle" font-weight="500">Today</text>
    <text x="119" y="100" fill="#ffb86c" font-size="16" font-family="'Segoe UI Mono', 'Cascadia Code', monospace" text-anchor="middle" font-weight="700">+672</text>
    <text x="119" y="118" fill="#ff79c6" font-size="14" font-family="'Segoe UI Mono', 'Cascadia Code', monospace" text-anchor="middle" font-weight="600">-27</text>
    <rect x="222" y="60" width="190" height="68" rx="8" fill="#160e22" stroke="#3d2660" stroke-width="1"/>
    <text x="317" y="78" fill="#7a5a8e" font-size="11" font-family="'Segoe UI', sans-serif" text-anchor="middle" font-weight="500">30d Avg</text>
    <text x="317" y="100" fill="#ffb86c" font-size="16" font-family="'Segoe UI Mono', 'Cascadia Code', monospace" text-anchor="middle" font-weight="700">+16,512</text>
    <text x="317" y="118" fill="#ff79c6" font-size="14" font-family="'Segoe UI Mono', 'Cascadia Code', monospace" text-anchor="middle" font-weight="600">-6,309</text>
    <rect x="420" y="60" width="190" height="68" rx="8" fill="#160e22" stroke="#3d2660" stroke-width="1"/>
    <text x="515" y="78" fill="#7a5a8e" font-size="11" font-family="'Segoe UI', sans-serif" text-anchor="middle" font-weight="500">Year Avg</text>
    <text x="515" y="100" fill="#ffb86c" font-size="16" font-family="'Segoe UI Mono', 'Cascadia Code', monospace" text-anchor="middle" font-weight="700">+25,511</text>
    <text x="515" y="118" fill="#ff79c6" font-size="14" font-family="'Segoe UI Mono', 'Cascadia Code', monospace" text-anchor="middle" font-weight="600">-7,088</text>
    <rect x="618" y="60" width="190" height="68" rx="8" fill="#160e22" stroke="#3d2660" stroke-width="1"/>
    <text x="713" y="78" fill="#7a5a8e" font-size="11" font-family="'Segoe UI', sans-serif" text-anchor="middle" font-weight="500">Streak</text>
    <text x="713" y="104" fill="#ff79c6" font-size="20" font-family="'Segoe UI Mono', 'Cascadia Code', monospace" text-anchor="middle" font-weight="700">200</text>
    <text x="713" y="120" fill="#7a5a8e" font-size="11" font-family="'Segoe UI', sans-serif" text-anchor="middle">days</text>
  </g>

  <g class="cpd-chart">
    <line x1="72" y1="148" x2="808" y2="148" stroke="#2d1c44" stroke-width="1" stroke-dasharray="4,4"/><line x1="72" y1="213.5" x2="808" y2="213.5" stroke="#2d1c44" stroke-width="1" stroke-dasharray="4,4"/><line x1="72" y1="279" x2="808" y2="279" stroke="#2d1c44" stroke-width="1" stroke-dasharray="4,4"/><line x1="72" y1="344.5" x2="808" y2="344.5" stroke="#2d1c44" stroke-width="1" stroke-dasharray="4,4"/><line x1="72" y1="410" x2="808" y2="410" stroke="#2d1c44" stroke-width="1" stroke-dasharray="4,4"/><line x1="72" y1="279" x2="808" y2="279" stroke="#3d2660" stroke-width="1.5"/><text x="64" y="162" fill="#7a5a8e" font-size="10" font-family="'Segoe UI', sans-serif" text-anchor="end">+32,813</text><text x="64" y="406" fill="#7a5a8e" font-size="10" font-family="'Segoe UI', sans-serif" text-anchor="end">-32,813</text><text x="64" y="283" fill="#7a5a8e" font-size="10" font-family="'Segoe UI', sans-serif" text-anchor="end">0</text><path d="M 72 279 L 72 277.25947033188066 L 96.53333333333333 158 L 121.06666666666666 158 L 145.60000000000002 158 L 170.13333333333333 197.71136439825676 L 194.66666666666669 276.8169627891385 L 219.20000000000002 261.55414012738856 L 243.73333333333335 232.14951391216897 L 268.26666666666665 230.20616828695944 L 292.8 261.583640630238 L 317.33333333333337 263.4237344954744 L 341.8666666666667 266.2447200804559 L 366.40000000000003 201.73449547435467 L 390.93333333333334 236.03251759973182 L 415.4666666666667 246.71907475695608 L 440 158 L 464.53333333333336 210.79114984914514 L 489.0666666666667 158 L 513.6 205.75025142474018 L 538.1333333333334 254.98659068052297 L 562.6666666666667 226.77304726785115 L 587.2 278.2919879316125 L 611.7333333333333 279 L 636.2666666666667 272.3033858531679 L 660.8000000000001 279 L 685.3333333333334 263.3426081126383 L 709.8666666666667 279 L 734.4000000000001 278.72343278578614 L 758.9333333333334 277.53234998323836 L 783.4666666666667 261.80120683875293 L 808 276.52195776064366 L 808 279 Z" fill="#ffb86c" opacity="0.15"/><path d="M 72 279 L 72 277.25947033188066 L 96.53333333333333 158 L 121.06666666666666 158 L 145.60000000000002 158 L 170.13333333333333 197.71136439825676 L 194.66666666666669 276.8169627891385 L 219.20000000000002 261.55414012738856 L 243.73333333333335 232.14951391216897 L 268.26666666666665 230.20616828695944 L 292.8 261.583640630238 L 317.33333333333337 263.4237344954744 L 341.8666666666667 266.2447200804559 L 366.40000000000003 201.73449547435467 L 390.93333333333334 236.03251759973182 L 415.4666666666667 246.71907475695608 L 440 158 L 464.53333333333336 210.79114984914514 L 489.0666666666667 158 L 513.6 205.75025142474018 L 538.1333333333334 254.98659068052297 L 562.6666666666667 226.77304726785115 L 587.2 278.2919879316125 L 611.7333333333333 279 L 636.2666666666667 272.3033858531679 L 660.8000000000001 279 L 685.3333333333334 263.3426081126383 L 709.8666666666667 279 L 734.4000000000001 278.72343278578614 L 758.9333333333334 277.53234998323836 L 783.4666666666667 261.80120683875293 L 808 276.52195776064366" fill="none" stroke="#ffb86c" stroke-width="2"/><path d="M 72 279 L 72 279.35769359704994 L 96.53333333333333 283.8085819644653 L 121.06666666666666 288.7462286288971 L 145.60000000000002 400 L 170.13333333333333 311.12236004022793 L 194.66666666666669 280.4455246396245 L 219.20000000000002 292.43010392222595 L 243.73333333333335 299.06402950050284 L 268.26666666666665 293.5363727790815 L 292.8 282.1528662420382 L 317.33333333333337 284.01877304726787 L 341.8666666666667 285.13610459269194 L 366.40000000000003 296.01441501843783 L 390.93333333333334 298.2011397921556 L 415.4666666666667 281.6366074421723 L 440 328.98122695273213 L 464.53333333333336 400 L 489.0666666666667 391.55179349648006 L 513.6 299.0714046262152 L 538.1333333333334 282.71337579617835 L 562.6666666666667 286.44150184378145 L 587.2 279.2212537713711 L 611.7333333333333 279 L 636.2666666666667 279.040563191418 L 660.8000000000001 279 L 685.3333333333334 279.3023801542072 L 709.8666666666667 279 L 734.4000000000001 279.32819309420046 L 758.9333333333334 279.77438819979886 L 783.4666666666667 295.73047267851155 L 808 279.099564197117 L 808 279 Z" fill="#ff79c6" opacity="0.15"/><path d="M 72 279 L 72 279.35769359704994 L 96.53333333333333 283.8085819644653 L 121.06666666666666 288.7462286288971 L 145.60000000000002 400 L 170.13333333333333 311.12236004022793 L 194.66666666666669 280.4455246396245 L 219.20000000000002 292.43010392222595 L 243.73333333333335 299.06402950050284 L 268.26666666666665 293.5363727790815 L 292.8 282.1528662420382 L 317.33333333333337 284.01877304726787 L 341.8666666666667 285.13610459269194 L 366.40000000000003 296.01441501843783 L 390.93333333333334 298.2011397921556 L 415.4666666666667 281.6366074421723 L 440 328.98122695273213 L 464.53333333333336 400 L 489.0666666666667 391.55179349648006 L 513.6 299.0714046262152 L 538.1333333333334 282.71337579617835 L 562.6666666666667 286.44150184378145 L 587.2 279.2212537713711 L 611.7333333333333 279 L 636.2666666666667 279.040563191418 L 660.8000000000001 279 L 685.3333333333334 279.3023801542072 L 709.8666666666667 279 L 734.4000000000001 279.32819309420046 L 758.9333333333334 279.77438819979886 L 783.4666666666667 295.73047267851155 L 808 279.099564197117" fill="none" stroke="#ff79c6" stroke-width="2"/><text x="72" y="426" fill="#7a5a8e" font-size="10" font-family="'Segoe UI', sans-serif" text-anchor="middle">May 16</text><text x="194.66666666666669" y="426" fill="#7a5a8e" font-size="10" font-family="'Segoe UI', sans-serif" text-anchor="middle">May 21</text><text x="317.33333333333337" y="426" fill="#7a5a8e" font-size="10" font-family="'Segoe UI', sans-serif" text-anchor="middle">May 26</text><text x="440" y="426" fill="#7a5a8e" font-size="10" font-family="'Segoe UI', sans-serif" text-anchor="middle">May 31</text><text x="562.6666666666667" y="426" fill="#7a5a8e" font-size="10" font-family="'Segoe UI', sans-serif" text-anchor="middle">Jun 5</text><text x="685.3333333333334" y="426" fill="#7a5a8e" font-size="10" font-family="'Segoe UI', sans-serif" text-anchor="middle">Jun 10</text><text x="808" y="426" fill="#7a5a8e" font-size="10" font-family="'Segoe UI', sans-serif" text-anchor="middle">Jun 15</text>
  </g>

  <g class="cpd-legend">
    
    <circle cx="30" cy="442" r="5" fill="#ffb86c"/>
    <text x="40" y="446" fill="#c4a0d8" font-size="11" font-family="'Segoe UI', sans-serif">Additions</text>
    <circle cx="124" cy="442" r="5" fill="#ff79c6"/>
    <text x="134" y="446" fill="#c4a0d8" font-size="11" font-family="'Segoe UI', sans-serif">Deletions</text>
    <text x="816" y="446" fill="#7a5a8e" font-size="10" font-family="'Segoe UI', sans-serif" text-anchor="end">Last 31 days · +511,878 / -195,571 lines</text>
  </g>

  <a href="https://github.com/mpge/code-per-day" target="_blank">
    <text x="420" y="452" fill="#7a5a8e" font-size="10" font-family="'Segoe UI', sans-serif" text-anchor="middle" opacity="0.6">Get your own - github.com/mpge/code-per-day</text>
  </a>
</svg>