<svg width="840" height="460" viewBox="0 0 840 460" xmlns="http://www.w3.org/2000/svg">
  
    <style>
      @keyframes fadeInUp {
        from { opacity: 0; transform: translateY(12px); }
        to   { opacity: 1; transform: translateY(0); }
      }
      @keyframes growBar {
        from { transform: scaleY(0); }
        to   { transform: scaleY(1); }
      }
      .cpd-header  { animation: fadeInUp 0.5s ease both; }
      .cpd-stats   { animation: fadeInUp 0.5s ease 0.15s both; }
      .cpd-chart   { animation: fadeInUp 0.5s ease 0.3s both; }
      .cpd-legend  { animation: fadeInUp 0.5s ease 0.45s both; }
    </style>

  <!-- Background -->
  <rect width="840" height="460" rx="12" fill="#0b1a0b" stroke="#1e3a1e" stroke-width="1"/>

  <!-- Header -->
  <g class="cpd-header">
    <a href="https://github.com/mpge/code-per-day" target="_blank">
      <text x="24" y="44" fill="#c8e6c8" font-size="18" font-family="'Segoe UI', sans-serif" font-weight="700">Code Per Day</text>
    </a>
    <text x="816" y="44" fill="#5a7a5a" font-size="13" font-family="'Segoe UI', sans-serif" text-anchor="end" font-weight="500">@mpge</text>
  </g>

  <!-- Stats Cards -->
  <g class="cpd-stats">
    
    <rect x="24" y="60" width="190" height="68" rx="8" fill="#091409" stroke="#1e3a1e" stroke-width="1"/>
    <text x="119" y="78" fill="#5a7a5a" font-size="11" font-family="'Segoe UI', sans-serif" text-anchor="middle" font-weight="500">Today</text>
    <text x="119" y="100" fill="#66ff66" font-size="16" font-family="'Segoe UI Mono', 'Cascadia Code', monospace" text-anchor="middle" font-weight="700">+3,967</text>
    <text x="119" y="118" fill="#ff8a65" font-size="14" font-family="'Segoe UI Mono', 'Cascadia Code', monospace" text-anchor="middle" font-weight="600">-1,626</text>
    <rect x="222" y="60" width="190" height="68" rx="8" fill="#091409" stroke="#1e3a1e" stroke-width="1"/>
    <text x="317" y="78" fill="#5a7a5a" font-size="11" font-family="'Segoe UI', sans-serif" text-anchor="middle" font-weight="500">30d Avg</text>
    <text x="317" y="100" fill="#66ff66" font-size="16" font-family="'Segoe UI Mono', 'Cascadia Code', monospace" text-anchor="middle" font-weight="700">+235,461</text>
    <text x="317" y="118" fill="#ff8a65" font-size="14" font-family="'Segoe UI Mono', 'Cascadia Code', monospace" text-anchor="middle" font-weight="600">-57,355</text>
    <rect x="420" y="60" width="190" height="68" rx="8" fill="#091409" stroke="#1e3a1e" stroke-width="1"/>
    <text x="515" y="78" fill="#5a7a5a" font-size="11" font-family="'Segoe UI', sans-serif" text-anchor="middle" font-weight="500">Year Avg</text>
    <text x="515" y="100" fill="#66ff66" font-size="16" font-family="'Segoe UI Mono', 'Cascadia Code', monospace" text-anchor="middle" font-weight="700">+23,939</text>
    <text x="515" y="118" fill="#ff8a65" font-size="14" font-family="'Segoe UI Mono', 'Cascadia Code', monospace" text-anchor="middle" font-weight="600">-6,444</text>
        <rect x="618" y="60" width="190" height="68" rx="8" fill="#091409" stroke="#1e3a1e" stroke-width="1"/>
        <text x="713" y="78" fill="#5a7a5a" font-size="11" font-family="'Segoe UI', sans-serif" text-anchor="middle" font-weight="500">Streak</text>
        <text x="713" y="104" fill="#66ff66" font-size="20" font-family="'Segoe UI Mono', 'Cascadia Code', monospace" text-anchor="middle" font-weight="700">157</text>
        <text x="713" y="120" fill="#5a7a5a" font-size="11" font-family="'Segoe UI', sans-serif" text-anchor="middle">days</text>
  </g>

  <!-- Chart -->
  <g class="cpd-chart">
    <line x1="72" y1="148" x2="808" y2="148" stroke="#1a2e1a" stroke-width="1" stroke-dasharray="4,4"/><line x1="72" y1="213.5" x2="808" y2="213.5" stroke="#1a2e1a" stroke-width="1" stroke-dasharray="4,4"/><line x1="72" y1="279" x2="808" y2="279" stroke="#1a2e1a" stroke-width="1" stroke-dasharray="4,4"/><line x1="72" y1="344.5" x2="808" y2="344.5" stroke="#1a2e1a" stroke-width="1" stroke-dasharray="4,4"/><line x1="72" y1="410" x2="808" y2="410" stroke="#1a2e1a" stroke-width="1" stroke-dasharray="4,4"/><line x1="72" y1="279" x2="808" y2="279" stroke="#1e3a1e" stroke-width="1.5"/><text x="64" y="162" fill="#5a7a5a" font-size="10" font-family="'Segoe UI', sans-serif" text-anchor="end">+43,616</text><text x="64" y="406" fill="#5a7a5a" font-size="10" font-family="'Segoe UI', sans-serif" text-anchor="end">-43,616</text><text x="64" y="283" fill="#5a7a5a" font-size="10" font-family="'Segoe UI', sans-serif" text-anchor="end">0</text><path d="M 72 279 L 72 279 L 96.53333333333333 228.7812270726339 L 121.06666666666666 158 L 145.60000000000002 158 L 170.13333333333333 173.0389994497432 L 194.66666666666669 158 L 219.20000000000002 158 L 243.73333333333335 243.7702907190022 L 268.26666666666665 260.8733033749083 L 292.8 158 L 317.33333333333337 257.1419891782832 L 341.8666666666667 278.8668378576669 L 366.40000000000003 279 L 390.93333333333334 278.85296680117386 L 415.4666666666667 279 L 440 264.7100376008804 L 464.53333333333336 238.91264673514306 L 489.0666666666667 259.47232666911225 L 513.6 266.1193369405723 L 538.1333333333334 278.98612894350697 L 562.6666666666667 207.04805575935436 L 587.2 158 L 611.7333333333333 272.83292828319884 L 636.2666666666667 202.44841342626557 L 660.8000000000001 165.17688462949377 L 685.3333333333334 247.4239269992663 L 709.8666666666667 271.9396322450477 L 734.4000000000001 240.45788242846663 L 758.9333333333334 255.07797597212033 L 783.4666666666667 158 L 808 267.99470377842994 L 808 279 Z" fill="#66ff66" opacity="0.15"/><path d="M 72 279 L 72 279 L 96.53333333333333 228.7812270726339 L 121.06666666666666 158 L 145.60000000000002 158 L 170.13333333333333 173.0389994497432 L 194.66666666666669 158 L 219.20000000000002 158 L 243.73333333333335 243.7702907190022 L 268.26666666666665 260.8733033749083 L 292.8 158 L 317.33333333333337 257.1419891782832 L 341.8666666666667 278.8668378576669 L 366.40000000000003 279 L 390.93333333333334 278.85296680117386 L 415.4666666666667 279 L 440 264.7100376008804 L 464.53333333333336 238.91264673514306 L 489.0666666666667 259.47232666911225 L 513.6 266.1193369405723 L 538.1333333333334 278.98612894350697 L 562.6666666666667 207.04805575935436 L 587.2 158 L 611.7333333333333 272.83292828319884 L 636.2666666666667 202.44841342626557 L 660.8000000000001 165.17688462949377 L 685.3333333333334 247.4239269992663 L 709.8666666666667 271.9396322450477 L 734.4000000000001 240.45788242846663 L 758.9333333333334 255.07797597212033 L 783.4666666666667 158 L 808 267.99470377842994" fill="none" stroke="#66ff66" stroke-width="2"/><path d="M 72 279 L 72 279 L 96.53333333333333 279.11096845194425 L 121.06666666666666 400 L 145.60000000000002 298.5776091342627 L 170.13333333333333 328.95799706529715 L 194.66666666666669 290.6489132428467 L 219.20000000000002 313.3086711298606 L 243.73333333333335 284.7564884446075 L 268.26666666666665 284.63997157006605 L 292.8 281.59666177549525 L 317.33333333333337 279.8156181217902 L 341.8666666666667 292.49376375641964 L 366.40000000000003 279 L 390.93333333333334 279.1248395084373 L 415.4666666666667 279 L 440 279.3162600880411 L 464.53333333333336 281.28872432134995 L 489.0666666666667 284.534551540719 L 513.6 279.17200110051357 L 538.1333333333334 279 L 562.6666666666667 280.5313646368305 L 587.2 292.6907327586207 L 611.7333333333333 279.2302595377843 L 636.2666666666667 282.4455704328687 L 660.8000000000001 281.4551769992663 L 685.3333333333334 293.6589325018342 L 709.8666666666667 280.5008483125458 L 734.4000000000001 291.9222762289068 L 758.9333333333334 283.4470607116655 L 783.4666666666667 301.6347899853265 L 808 283.51086757153337 L 808 279 Z" fill="#ff8a65" opacity="0.15"/><path d="M 72 279 L 72 279 L 96.53333333333333 279.11096845194425 L 121.06666666666666 400 L 145.60000000000002 298.5776091342627 L 170.13333333333333 328.95799706529715 L 194.66666666666669 290.6489132428467 L 219.20000000000002 313.3086711298606 L 243.73333333333335 284.7564884446075 L 268.26666666666665 284.63997157006605 L 292.8 281.59666177549525 L 317.33333333333337 279.8156181217902 L 341.8666666666667 292.49376375641964 L 366.40000000000003 279 L 390.93333333333334 279.1248395084373 L 415.4666666666667 279 L 440 279.3162600880411 L 464.53333333333336 281.28872432134995 L 489.0666666666667 284.534551540719 L 513.6 279.17200110051357 L 538.1333333333334 279 L 562.6666666666667 280.5313646368305 L 587.2 292.6907327586207 L 611.7333333333333 279.2302595377843 L 636.2666666666667 282.4455704328687 L 660.8000000000001 281.4551769992663 L 685.3333333333334 293.6589325018342 L 709.8666666666667 280.5008483125458 L 734.4000000000001 291.9222762289068 L 758.9333333333334 283.4470607116655 L 783.4666666666667 301.6347899853265 L 808 283.51086757153337" fill="none" stroke="#ff8a65" stroke-width="2"/><text x="72" y="426" fill="#5a7a5a" font-size="10" font-family="'Segoe UI', sans-serif" text-anchor="middle">Apr 3</text><text x="194.66666666666669" y="426" fill="#5a7a5a" font-size="10" font-family="'Segoe UI', sans-serif" text-anchor="middle">Apr 8</text><text x="317.33333333333337" y="426" fill="#5a7a5a" font-size="10" font-family="'Segoe UI', sans-serif" text-anchor="middle">Apr 13</text><text x="440" y="426" fill="#5a7a5a" font-size="10" font-family="'Segoe UI', sans-serif" text-anchor="middle">Apr 18</text><text x="562.6666666666667" y="426" fill="#5a7a5a" font-size="10" font-family="'Segoe UI', sans-serif" text-anchor="middle">Apr 23</text><text x="685.3333333333334" y="426" fill="#5a7a5a" font-size="10" font-family="'Segoe UI', sans-serif" text-anchor="middle">Apr 28</text><text x="808" y="426" fill="#5a7a5a" font-size="10" font-family="'Segoe UI', sans-serif" text-anchor="middle">May 3</text>
  </g>

  <!-- Legend -->
  <g class="cpd-legend">
    <circle cx="30" cy="442" r="5" fill="#66ff66"/>
    <text x="40" y="446" fill="#8ab88a" font-size="11" font-family="'Segoe UI', sans-serif">Additions</text>
    <circle cx="124" cy="442" r="5" fill="#ff8a65"/>
    <text x="134" y="446" fill="#8ab88a" font-size="11" font-family="'Segoe UI', sans-serif">Deletions</text>
    <text x="816" y="446" fill="#5a7a5a" font-size="10" font-family="'Segoe UI', sans-serif" text-anchor="end">Last 31 days · +7,299,304 / -1,778,015 lines</text>
  </g>

  <!-- Get your own -->
  <a href="https://github.com/mpge/code-per-day" target="_blank">
    <text x="420" y="452" fill="#5a7a5a" font-size="10" font-family="'Segoe UI', sans-serif" text-anchor="middle" opacity="0.6">Get your own — github.com/mpge/code-per-day</text>
  </a>
</svg>