<svg width="840" height="460" viewBox="0 0 840 460" xmlns="http://www.w3.org/2000/svg">
  
    <style>
      @keyframes fadeInUp {
        from { opacity: 0; transform: translateY(12px); }
        to   { opacity: 1; transform: translateY(0); }
      }
      @keyframes growBar {
        from { transform: scaleY(0); }
        to   { transform: scaleY(1); }
      }
      .cpd-header  { animation: fadeInUp 0.5s ease both; }
      .cpd-stats   { animation: fadeInUp 0.5s ease 0.15s both; }
      .cpd-chart   { animation: fadeInUp 0.5s ease 0.3s both; }
      .cpd-legend  { animation: fadeInUp 0.5s ease 0.45s both; }
    </style>

  <!-- Background -->
  <rect width="840" height="460" rx="12" fill="#020024" stroke="#1a1a5e" stroke-width="1"/>

  <!-- Header -->
  <g class="cpd-header">
    <a href="https://github.com/mpge/code-per-day" target="_blank">
      <text x="24" y="44" fill="#e0e0ff" font-size="18" font-family="'Segoe UI', sans-serif" font-weight="700">Code Per Day</text>
    </a>
    <text x="816" y="44" fill="#6060a0" font-size="13" font-family="'Segoe UI', sans-serif" text-anchor="end" font-weight="500">@mpge</text>
  </g>

  <!-- Stats Cards -->
  <g class="cpd-stats">
    
    <rect x="24" y="60" width="190" height="68" rx="8" fill="#010018" stroke="#1a1a5e" stroke-width="1"/>
    <text x="119" y="78" fill="#6060a0" font-size="11" font-family="'Segoe UI', sans-serif" text-anchor="middle" font-weight="500">Today</text>
    <text x="119" y="100" fill="#00d4aa" font-size="16" font-family="'Segoe UI Mono', 'Cascadia Code', monospace" text-anchor="middle" font-weight="700">+5,099</text>
    <text x="119" y="118" fill="#ff4477" font-size="14" font-family="'Segoe UI Mono', 'Cascadia Code', monospace" text-anchor="middle" font-weight="600">-95</text>
    <rect x="222" y="60" width="190" height="68" rx="8" fill="#010018" stroke="#1a1a5e" stroke-width="1"/>
    <text x="317" y="78" fill="#6060a0" font-size="11" font-family="'Segoe UI', sans-serif" text-anchor="middle" font-weight="500">30d Avg</text>
    <text x="317" y="100" fill="#00d4aa" font-size="16" font-family="'Segoe UI Mono', 'Cascadia Code', monospace" text-anchor="middle" font-weight="700">+208,637</text>
    <text x="317" y="118" fill="#ff4477" font-size="14" font-family="'Segoe UI Mono', 'Cascadia Code', monospace" text-anchor="middle" font-weight="600">-56,248</text>
    <rect x="420" y="60" width="190" height="68" rx="8" fill="#010018" stroke="#1a1a5e" stroke-width="1"/>
    <text x="515" y="78" fill="#6060a0" font-size="11" font-family="'Segoe UI', sans-serif" text-anchor="middle" font-weight="500">Year Avg</text>
    <text x="515" y="100" fill="#00d4aa" font-size="16" font-family="'Segoe UI Mono', 'Cascadia Code', monospace" text-anchor="middle" font-weight="700">+20,730</text>
    <text x="515" y="118" fill="#ff4477" font-size="14" font-family="'Segoe UI Mono', 'Cascadia Code', monospace" text-anchor="middle" font-weight="600">-6,279</text>
        <rect x="618" y="60" width="190" height="68" rx="8" fill="#010018" stroke="#1a1a5e" stroke-width="1"/>
        <text x="713" y="78" fill="#6060a0" font-size="11" font-family="'Segoe UI', sans-serif" text-anchor="middle" font-weight="500">Streak</text>
        <text x="713" y="104" fill="#4488ff" font-size="20" font-family="'Segoe UI Mono', 'Cascadia Code', monospace" text-anchor="middle" font-weight="700">142</text>
        <text x="713" y="120" fill="#6060a0" font-size="11" font-family="'Segoe UI', sans-serif" text-anchor="middle">days</text>
  </g>

  <!-- Chart -->
  <g class="cpd-chart">
    <line x1="72" y1="148" x2="808" y2="148" stroke="#101050" stroke-width="1" stroke-dasharray="4,4"/><line x1="72" y1="213.5" x2="808" y2="213.5" stroke="#101050" stroke-width="1" stroke-dasharray="4,4"/><line x1="72" y1="279" x2="808" y2="279" stroke="#101050" stroke-width="1" stroke-dasharray="4,4"/><line x1="72" y1="344.5" x2="808" y2="344.5" stroke="#101050" stroke-width="1" stroke-dasharray="4,4"/><line x1="72" y1="410" x2="808" y2="410" stroke="#101050" stroke-width="1" stroke-dasharray="4,4"/><line x1="72" y1="279" x2="808" y2="279" stroke="#1a1a5e" stroke-width="1.5"/><text x="64" y="162" fill="#6060a0" font-size="10" font-family="'Segoe UI', sans-serif" text-anchor="end">+30,605</text><text x="64" y="406" fill="#6060a0" font-size="10" font-family="'Segoe UI', sans-serif" text-anchor="end">-30,605</text><text x="64" y="283" fill="#6060a0" font-size="10" font-family="'Segoe UI', sans-serif" text-anchor="end">0</text><path d="M 72 279 L 72 279 L 96.53333333333333 270.329750040843 L 121.06666666666666 239.51537330501552 L 145.60000000000002 253.74438817186734 L 170.13333333333333 276.48155530142134 L 194.66666666666669 272.9351739911779 L 219.20000000000002 279 L 243.73333333333335 279 L 268.26666666666665 279 L 292.8 279 L 317.33333333333337 245.852997876164 L 341.8666666666667 276.7227250449273 L 366.40000000000003 279 L 390.93333333333334 273.07750367586993 L 415.4666666666667 279 L 440 279 L 464.53333333333336 207.43189021401733 L 489.0666666666667 158 L 513.6 158 L 538.1333333333334 158 L 562.6666666666667 158 L 587.2 158 L 611.7333333333333 253.7760169906878 L 636.2666666666667 279 L 660.8000000000001 158 L 685.3333333333334 255.9979415128247 L 709.8666666666667 278.8102270870773 L 734.4000000000001 279 L 758.9333333333334 278.7904590753145 L 783.4666666666667 279 L 808 258.840581604313 L 808 279 Z" fill="#00d4aa" opacity="0.15"/><path d="M 72 279 L 72 279 L 96.53333333333333 270.329750040843 L 121.06666666666666 239.51537330501552 L 145.60000000000002 253.74438817186734 L 170.13333333333333 276.48155530142134 L 194.66666666666669 272.9351739911779 L 219.20000000000002 279 L 243.73333333333335 279 L 268.26666666666665 279 L 292.8 279 L 317.33333333333337 245.852997876164 L 341.8666666666667 276.7227250449273 L 366.40000000000003 279 L 390.93333333333334 273.07750367586993 L 415.4666666666667 279 L 440 279 L 464.53333333333336 207.43189021401733 L 489.0666666666667 158 L 513.6 158 L 538.1333333333334 158 L 562.6666666666667 158 L 587.2 158 L 611.7333333333333 253.7760169906878 L 636.2666666666667 279 L 660.8000000000001 158 L 685.3333333333334 255.9979415128247 L 709.8666666666667 278.8102270870773 L 734.4000000000001 279 L 758.9333333333334 278.7904590753145 L 783.4666666666667 279 L 808 258.840581604313" fill="none" stroke="#00d4aa" stroke-width="2"/><path d="M 72 279 L 72 279 L 96.53333333333333 279.00395360235257 L 121.06666666666666 282.8508086913903 L 145.60000000000002 279.7867668681588 L 170.13333333333333 279.10279366116646 L 194.66666666666669 279.2925665740892 L 219.20000000000002 279 L 243.73333333333335 279 L 268.26666666666665 279 L 292.8 279 L 317.33333333333337 279.67211239993463 L 341.8666666666667 279 L 366.40000000000003 279 L 390.93333333333334 281.2495997386048 L 415.4666666666667 279 L 440 279 L 464.53333333333336 279.1581440941023 L 489.0666666666667 400 L 513.6 306.9005718019931 L 538.1333333333334 349.43342591079886 L 562.6666666666667 295.6011762783859 L 587.2 327.8032674399608 L 611.7333333333333 284.38085280182975 L 636.2666666666667 279 L 660.8000000000001 279.35187060937756 L 685.3333333333334 279.8935141316778 L 709.8666666666667 298.23032184283613 L 734.4000000000001 279 L 758.9333333333334 279.17791210586506 L 783.4666666666667 279 L 808 279.3755922234929 L 808 279 Z" fill="#ff4477" opacity="0.15"/><path d="M 72 279 L 72 279 L 96.53333333333333 279.00395360235257 L 121.06666666666666 282.8508086913903 L 145.60000000000002 279.7867668681588 L 170.13333333333333 279.10279366116646 L 194.66666666666669 279.2925665740892 L 219.20000000000002 279 L 243.73333333333335 279 L 268.26666666666665 279 L 292.8 279 L 317.33333333333337 279.67211239993463 L 341.8666666666667 279 L 366.40000000000003 279 L 390.93333333333334 281.2495997386048 L 415.4666666666667 279 L 440 279 L 464.53333333333336 279.1581440941023 L 489.0666666666667 400 L 513.6 306.9005718019931 L 538.1333333333334 349.43342591079886 L 562.6666666666667 295.6011762783859 L 587.2 327.8032674399608 L 611.7333333333333 284.38085280182975 L 636.2666666666667 279 L 660.8000000000001 279.35187060937756 L 685.3333333333334 279.8935141316778 L 709.8666666666667 298.23032184283613 L 734.4000000000001 279 L 758.9333333333334 279.17791210586506 L 783.4666666666667 279 L 808 279.3755922234929" fill="none" stroke="#ff4477" stroke-width="2"/><text x="72" y="426" fill="#6060a0" font-size="10" font-family="'Segoe UI', sans-serif" text-anchor="middle">Mar 19</text><text x="194.66666666666669" y="426" fill="#6060a0" font-size="10" font-family="'Segoe UI', sans-serif" text-anchor="middle">Mar 24</text><text x="317.33333333333337" y="426" fill="#6060a0" font-size="10" font-family="'Segoe UI', sans-serif" text-anchor="middle">Mar 29</text><text x="440" y="426" fill="#6060a0" font-size="10" font-family="'Segoe UI', sans-serif" text-anchor="middle">Apr 3</text><text x="562.6666666666667" y="426" fill="#6060a0" font-size="10" font-family="'Segoe UI', sans-serif" text-anchor="middle">Apr 8</text><text x="685.3333333333334" y="426" fill="#6060a0" font-size="10" font-family="'Segoe UI', sans-serif" text-anchor="middle">Apr 13</text><text x="808" y="426" fill="#6060a0" font-size="10" font-family="'Segoe UI', sans-serif" text-anchor="middle">Apr 18</text>
  </g>

  <!-- Legend -->
  <g class="cpd-legend">
    <circle cx="30" cy="442" r="5" fill="#00d4aa"/>
    <text x="40" y="446" fill="#a0a0d0" font-size="11" font-family="'Segoe UI', sans-serif">Additions</text>
    <circle cx="124" cy="442" r="5" fill="#ff4477"/>
    <text x="134" y="446" fill="#a0a0d0" font-size="11" font-family="'Segoe UI', sans-serif">Deletions</text>
    <text x="816" y="446" fill="#6060a0" font-size="10" font-family="'Segoe UI', sans-serif" text-anchor="end">Last 31 days · +6,467,738 / -1,743,674 lines</text>
  </g>

  <!-- Get your own -->
  <a href="https://github.com/mpge/code-per-day" target="_blank">
    <text x="420" y="452" fill="#6060a0" font-size="10" font-family="'Segoe UI', sans-serif" text-anchor="middle" opacity="0.6">Get your own — github.com/mpge/code-per-day</text>
  </a>
</svg>