<svg width="840" height="460" viewBox="0 0 840 460" xmlns="http://www.w3.org/2000/svg">
  
    <style>
      @keyframes fadeInUp {
        from { opacity: 0; transform: translateY(12px); }
        to   { opacity: 1; transform: translateY(0); }
      }
      @keyframes growBar {
        from { transform: scaleY(0); }
        to   { transform: scaleY(1); }
      }
      .cpd-header  { animation: fadeInUp 0.5s ease both; }
      .cpd-stats   { animation: fadeInUp 0.5s ease 0.15s both; }
      .cpd-chart   { animation: fadeInUp 0.5s ease 0.3s both; }
      .cpd-legend  { animation: fadeInUp 0.5s ease 0.45s both; }
    </style>

  <rect width="840" height="460" rx="12" fill="#2e3440" stroke="#4c566a" stroke-width="1"/>

  <g class="cpd-header">
    <a href="https://github.com/mpge/code-per-day" target="_blank">
      <text x="24" y="44" fill="#eceff4" font-size="18" font-family="'Segoe UI', sans-serif" font-weight="700">Code Per Day</text>
    </a>
    <text x="816" y="44" fill="#81a1c1" font-size="13" font-family="'Segoe UI', sans-serif" text-anchor="end" font-weight="500">@mpge</text>
  </g>

  <g class="cpd-stats">
    
    <rect x="24" y="60" width="190" height="68" rx="8" fill="#2e3440" stroke="#4c566a" stroke-width="1"/>
    <text x="119" y="78" fill="#81a1c1" font-size="11" font-family="'Segoe UI', sans-serif" text-anchor="middle" font-weight="500">Today</text>
    <text x="119" y="100" fill="#a3be8c" font-size="16" font-family="'Segoe UI Mono', 'Cascadia Code', monospace" text-anchor="middle" font-weight="700">+1,366</text>
    <text x="119" y="118" fill="#bf616a" font-size="14" font-family="'Segoe UI Mono', 'Cascadia Code', monospace" text-anchor="middle" font-weight="600">-96</text>
    <rect x="222" y="60" width="190" height="68" rx="8" fill="#2e3440" stroke="#4c566a" stroke-width="1"/>
    <text x="317" y="78" fill="#81a1c1" font-size="11" font-family="'Segoe UI', sans-serif" text-anchor="middle" font-weight="500">30d Avg</text>
    <text x="317" y="100" fill="#a3be8c" font-size="16" font-family="'Segoe UI Mono', 'Cascadia Code', monospace" text-anchor="middle" font-weight="700">+172,168</text>
    <text x="317" y="118" fill="#bf616a" font-size="14" font-family="'Segoe UI Mono', 'Cascadia Code', monospace" text-anchor="middle" font-weight="600">-2,872</text>
    <rect x="420" y="60" width="190" height="68" rx="8" fill="#2e3440" stroke="#4c566a" stroke-width="1"/>
    <text x="515" y="78" fill="#81a1c1" font-size="11" font-family="'Segoe UI', sans-serif" text-anchor="middle" font-weight="500">Year Avg</text>
    <text x="515" y="100" fill="#a3be8c" font-size="16" font-family="'Segoe UI Mono', 'Cascadia Code', monospace" text-anchor="middle" font-weight="700">+24,309</text>
    <text x="515" y="118" fill="#bf616a" font-size="14" font-family="'Segoe UI Mono', 'Cascadia Code', monospace" text-anchor="middle" font-weight="600">-6,581</text>
    <rect x="618" y="60" width="190" height="68" rx="8" fill="#2e3440" stroke="#4c566a" stroke-width="1"/>
    <text x="713" y="78" fill="#81a1c1" font-size="11" font-family="'Segoe UI', sans-serif" text-anchor="middle" font-weight="500">Streak</text>
    <text x="713" y="104" fill="#88c0d0" font-size="20" font-family="'Segoe UI Mono', 'Cascadia Code', monospace" text-anchor="middle" font-weight="700">166</text>
    <text x="713" y="120" fill="#81a1c1" font-size="11" font-family="'Segoe UI', sans-serif" text-anchor="middle">days</text>
  </g>

  <g class="cpd-chart">
    <line x1="72" y1="148" x2="808" y2="148" stroke="#434c5e" stroke-width="1" stroke-dasharray="4,4"/><line x1="72" y1="213.5" x2="808" y2="213.5" stroke="#434c5e" stroke-width="1" stroke-dasharray="4,4"/><line x1="72" y1="279" x2="808" y2="279" stroke="#434c5e" stroke-width="1" stroke-dasharray="4,4"/><line x1="72" y1="344.5" x2="808" y2="344.5" stroke="#434c5e" stroke-width="1" stroke-dasharray="4,4"/><line x1="72" y1="410" x2="808" y2="410" stroke="#434c5e" stroke-width="1" stroke-dasharray="4,4"/><line x1="72" y1="279" x2="808" y2="279" stroke="#4c566a" stroke-width="1.5"/><text x="64" y="162" fill="#81a1c1" font-size="10" font-family="'Segoe UI', sans-serif" text-anchor="end">+27,128</text><text x="64" y="406" fill="#81a1c1" font-size="10" font-family="'Segoe UI', sans-serif" text-anchor="end">-27,128</text><text x="64" y="283" fill="#81a1c1" font-size="10" font-family="'Segoe UI', sans-serif" text-anchor="end">0</text><path d="M 72 279 L 72 158 L 96.53333333333333 243.85701120613388 L 121.06666666666666 278.7859038631672 L 145.60000000000002 279 L 170.13333333333333 278.7636021822471 L 194.66666666666669 279 L 219.20000000000002 256.02480831613093 L 243.73333333333335 214.54814214096137 L 268.26666666666665 247.60369360070774 L 292.8 258.2906590976113 L 317.33333333333337 278.97769831907993 L 341.8666666666667 163.3167207313477 L 366.40000000000003 158 L 390.93333333333334 269.08467266293127 L 415.4666666666667 158 L 440 158 L 464.53333333333336 228.23245355352404 L 489.0666666666667 267.648444411678 L 513.6 217.03254939545857 L 538.1333333333334 240.5385210852256 L 562.6666666666667 158 L 587.2 251.7473459156591 L 611.7333333333333 263.97312739604837 L 636.2666666666667 178.75394426422883 L 660.8000000000001 242.8935785903863 L 685.3333333333334 196.75140076673546 L 709.8666666666667 158 L 734.4000000000001 273.1881819522265 L 758.9333333333334 225.66776024771454 L 783.4666666666667 211.747051017399 L 808 272.90718077263347 L 808 279 Z" fill="#a3be8c" opacity="0.15"/><path d="M 72 279 L 72 158 L 96.53333333333333 243.85701120613388 L 121.06666666666666 278.7859038631672 L 145.60000000000002 279 L 170.13333333333333 278.7636021822471 L 194.66666666666669 279 L 219.20000000000002 256.02480831613093 L 243.73333333333335 214.54814214096137 L 268.26666666666665 247.60369360070774 L 292.8 258.2906590976113 L 317.33333333333337 278.97769831907993 L 341.8666666666667 163.3167207313477 L 366.40000000000003 158 L 390.93333333333334 269.08467266293127 L 415.4666666666667 158 L 440 158 L 464.53333333333336 228.23245355352404 L 489.0666666666667 267.648444411678 L 513.6 217.03254939545857 L 538.1333333333334 240.5385210852256 L 562.6666666666667 158 L 587.2 251.7473459156591 L 611.7333333333333 263.97312739604837 L 636.2666666666667 178.75394426422883 L 660.8000000000001 242.8935785903863 L 685.3333333333334 196.75140076673546 L 709.8666666666667 158 L 734.4000000000001 273.1881819522265 L 758.9333333333334 225.66776024771454 L 783.4666666666667 211.747051017399 L 808 272.90718077263347" fill="none" stroke="#a3be8c" stroke-width="2"/><path d="M 72 279 L 72 283.17487466823945 L 96.53333333333333 280.3113388381009 L 121.06666666666666 300.6950751990563 L 145.60000000000002 279 L 170.13333333333333 279.20071512828076 L 194.66666666666669 279 L 219.20000000000002 279.5084783249779 L 243.73333333333335 282.67977735181364 L 268.26666666666665 287.89837068711296 L 292.8 279.276540843409 L 317.33333333333337 279 L 341.8666666666667 281.4621055735771 L 366.40000000000003 301.0117590681215 L 390.93333333333334 279.37020790327335 L 415.4666666666667 284.5397375405485 L 440 282.9473975228546 L 464.53333333333336 302.56841639634325 L 489.0666666666667 281.41304187555295 L 513.6 299.7762459451489 L 538.1333333333334 286.14991890297847 L 562.6666666666667 315.39188292539075 L 587.2 291.71195812444705 L 611.7333333333333 284.68692863462104 L 636.2666666666667 287.24270126806255 L 660.8000000000001 282.47460188734885 L 685.3333333333334 299.71380123857267 L 709.8666666666667 400 L 734.4000000000001 281.3015334709525 L 758.9333333333334 283.84392509584194 L 783.4666666666667 291.3372898849897 L 808 279.42819227366556 L 808 279 Z" fill="#bf616a" opacity="0.15"/><path d="M 72 279 L 72 283.17487466823945 L 96.53333333333333 280.3113388381009 L 121.06666666666666 300.6950751990563 L 145.60000000000002 279 L 170.13333333333333 279.20071512828076 L 194.66666666666669 279 L 219.20000000000002 279.5084783249779 L 243.73333333333335 282.67977735181364 L 268.26666666666665 287.89837068711296 L 292.8 279.276540843409 L 317.33333333333337 279 L 341.8666666666667 281.4621055735771 L 366.40000000000003 301.0117590681215 L 390.93333333333334 279.37020790327335 L 415.4666666666667 284.5397375405485 L 440 282.9473975228546 L 464.53333333333336 302.56841639634325 L 489.0666666666667 281.41304187555295 L 513.6 299.7762459451489 L 538.1333333333334 286.14991890297847 L 562.6666666666667 315.39188292539075 L 587.2 291.71195812444705 L 611.7333333333333 284.68692863462104 L 636.2666666666667 287.24270126806255 L 660.8000000000001 282.47460188734885 L 685.3333333333334 299.71380123857267 L 709.8666666666667 400 L 734.4000000000001 281.3015334709525 L 758.9333333333334 283.84392509584194 L 783.4666666666667 291.3372898849897 L 808 279.42819227366556" fill="none" stroke="#bf616a" stroke-width="2"/><text x="72" y="426" fill="#81a1c1" font-size="10" font-family="'Segoe UI', sans-serif" text-anchor="middle">Apr 12</text><text x="194.66666666666669" y="426" fill="#81a1c1" font-size="10" font-family="'Segoe UI', sans-serif" text-anchor="middle">Apr 17</text><text x="317.33333333333337" y="426" fill="#81a1c1" font-size="10" font-family="'Segoe UI', sans-serif" text-anchor="middle">Apr 22</text><text x="440" y="426" fill="#81a1c1" font-size="10" font-family="'Segoe UI', sans-serif" text-anchor="middle">Apr 27</text><text x="562.6666666666667" y="426" fill="#81a1c1" font-size="10" font-family="'Segoe UI', sans-serif" text-anchor="middle">May 2</text><text x="685.3333333333334" y="426" fill="#81a1c1" font-size="10" font-family="'Segoe UI', sans-serif" text-anchor="middle">May 7</text><text x="808" y="426" fill="#81a1c1" font-size="10" font-family="'Segoe UI', sans-serif" text-anchor="middle">May 12</text>
  </g>

  <g class="cpd-legend">
    
    <circle cx="30" cy="442" r="5" fill="#a3be8c"/>
    <text x="40" y="446" fill="#d8dee9" font-size="11" font-family="'Segoe UI', sans-serif">Additions</text>
    <circle cx="124" cy="442" r="5" fill="#bf616a"/>
    <text x="134" y="446" fill="#d8dee9" font-size="11" font-family="'Segoe UI', sans-serif">Deletions</text>
    <text x="816" y="446" fill="#81a1c1" font-size="10" font-family="'Segoe UI', sans-serif" text-anchor="end">Last 31 days · +5,337,197 / -89,032 lines</text>
  </g>

  <a href="https://github.com/mpge/code-per-day" target="_blank">
    <text x="420" y="452" fill="#81a1c1" font-size="10" font-family="'Segoe UI', sans-serif" text-anchor="middle" opacity="0.6">Get your own - github.com/mpge/code-per-day</text>
  </a>
</svg>