<svg width="840" height="460" viewBox="0 0 840 460" xmlns="http://www.w3.org/2000/svg">
  
    <style>
      @keyframes fadeInUp {
        from { opacity: 0; transform: translateY(12px); }
        to   { opacity: 1; transform: translateY(0); }
      }
      @keyframes growBar {
        from { transform: scaleY(0); }
        to   { transform: scaleY(1); }
      }
      .cpd-header  { animation: fadeInUp 0.5s ease both; }
      .cpd-stats   { animation: fadeInUp 0.5s ease 0.15s both; }
      .cpd-chart   { animation: fadeInUp 0.5s ease 0.3s both; }
      .cpd-legend  { animation: fadeInUp 0.5s ease 0.45s both; }
    </style>

  <!-- Background -->
  <rect width="840" height="460" rx="12" fill="#2e3440" stroke="#4c566a" stroke-width="1"/>

  <!-- Header -->
  <g class="cpd-header">
    <a href="https://github.com/mpge/code-per-day" target="_blank">
      <text x="24" y="44" fill="#eceff4" font-size="18" font-family="'Segoe UI', sans-serif" font-weight="700">Code Per Day</text>
    </a>
    <text x="816" y="44" fill="#81a1c1" font-size="13" font-family="'Segoe UI', sans-serif" text-anchor="end" font-weight="500">@mpge</text>
  </g>

  <!-- Stats Cards -->
  <g class="cpd-stats">
    
    <rect x="24" y="60" width="190" height="68" rx="8" fill="#2e3440" stroke="#4c566a" stroke-width="1"/>
    <text x="119" y="78" fill="#81a1c1" font-size="11" font-family="'Segoe UI', sans-serif" text-anchor="middle" font-weight="500">Today</text>
    <text x="119" y="100" fill="#a3be8c" font-size="16" font-family="'Segoe UI Mono', 'Cascadia Code', monospace" text-anchor="middle" font-weight="700">+37,436</text>
    <text x="119" y="118" fill="#bf616a" font-size="14" font-family="'Segoe UI Mono', 'Cascadia Code', monospace" text-anchor="middle" font-weight="600">-17,815</text>
    <rect x="222" y="60" width="190" height="68" rx="8" fill="#2e3440" stroke="#4c566a" stroke-width="1"/>
    <text x="317" y="78" fill="#81a1c1" font-size="11" font-family="'Segoe UI', sans-serif" text-anchor="middle" font-weight="500">30d Avg</text>
    <text x="317" y="100" fill="#a3be8c" font-size="16" font-family="'Segoe UI Mono', 'Cascadia Code', monospace" text-anchor="middle" font-weight="700">+80,181</text>
    <text x="317" y="118" fill="#bf616a" font-size="14" font-family="'Segoe UI Mono', 'Cascadia Code', monospace" text-anchor="middle" font-weight="600">-72,160</text>
    <rect x="420" y="60" width="190" height="68" rx="8" fill="#2e3440" stroke="#4c566a" stroke-width="1"/>
    <text x="515" y="78" fill="#81a1c1" font-size="11" font-family="'Segoe UI', sans-serif" text-anchor="middle" font-weight="500">Year Avg</text>
    <text x="515" y="100" fill="#a3be8c" font-size="16" font-family="'Segoe UI Mono', 'Cascadia Code', monospace" text-anchor="middle" font-weight="700">+8,203</text>
    <text x="515" y="118" fill="#bf616a" font-size="14" font-family="'Segoe UI Mono', 'Cascadia Code', monospace" text-anchor="middle" font-weight="600">-6,216</text>
        <rect x="618" y="60" width="190" height="68" rx="8" fill="#2e3440" stroke="#4c566a" stroke-width="1"/>
        <text x="713" y="78" fill="#81a1c1" font-size="11" font-family="'Segoe UI', sans-serif" text-anchor="middle" font-weight="500">Streak</text>
        <text x="713" y="104" fill="#88c0d0" font-size="20" font-family="'Segoe UI Mono', 'Cascadia Code', monospace" text-anchor="middle" font-weight="700">131</text>
        <text x="713" y="120" fill="#81a1c1" font-size="11" font-family="'Segoe UI', sans-serif" text-anchor="middle">days</text>
  </g>

  <!-- Chart -->
  <g class="cpd-chart">
    <line x1="72" y1="148" x2="808" y2="148" stroke="#434c5e" stroke-width="1" stroke-dasharray="4,4"/><line x1="72" y1="213.5" x2="808" y2="213.5" stroke="#434c5e" stroke-width="1" stroke-dasharray="4,4"/><line x1="72" y1="279" x2="808" y2="279" stroke="#434c5e" stroke-width="1" stroke-dasharray="4,4"/><line x1="72" y1="344.5" x2="808" y2="344.5" stroke="#434c5e" stroke-width="1" stroke-dasharray="4,4"/><line x1="72" y1="410" x2="808" y2="410" stroke="#434c5e" stroke-width="1" stroke-dasharray="4,4"/><line x1="72" y1="279" x2="808" y2="279" stroke="#4c566a" stroke-width="1.5"/><text x="64" y="162" fill="#81a1c1" font-size="10" font-family="'Segoe UI', sans-serif" text-anchor="end">+52,127</text><text x="64" y="406" fill="#81a1c1" font-size="10" font-family="'Segoe UI', sans-serif" text-anchor="end">-52,127</text><text x="64" y="283" fill="#81a1c1" font-size="10" font-family="'Segoe UI', sans-serif" text-anchor="end">0</text><path d="M 72 279 L 72 224.6269495654843 L 96.53333333333333 279 L 121.06666666666666 279 L 145.60000000000002 230.32330653979704 L 170.13333333333333 221.6673508930113 L 194.66666666666669 279 L 219.20000000000002 279 L 243.73333333333335 247.11757822241833 L 268.26666666666665 279 L 292.8 256.46526751971146 L 317.33333333333337 158 L 341.8666666666667 279 L 366.40000000000003 273.90949028334643 L 390.93333333333334 255.81763769255855 L 415.4666666666667 264.1718303374451 L 440 277.5213612906939 L 464.53333333333336 275.43919657758937 L 489.0666666666667 279 L 513.6 279 L 538.1333333333334 279 L 562.6666666666667 279 L 587.2 259.53860763136186 L 611.7333333333333 277.6629577762004 L 636.2666666666667 279 L 660.8000000000001 275.52276171657684 L 685.3333333333334 279 L 709.8666666666667 279 L 734.4000000000001 236.98066261246572 L 758.9333333333334 158 L 783.4666666666667 158 L 808 192.10154046847123 L 808 279 Z" fill="#a3be8c" opacity="0.15"/><path d="M 72 279 L 72 224.6269495654843 L 96.53333333333333 279 L 121.06666666666666 279 L 145.60000000000002 230.32330653979704 L 170.13333333333333 221.6673508930113 L 194.66666666666669 279 L 219.20000000000002 279 L 243.73333333333335 247.11757822241833 L 268.26666666666665 279 L 292.8 256.46526751971146 L 317.33333333333337 158 L 341.8666666666667 279 L 366.40000000000003 273.90949028334643 L 390.93333333333334 255.81763769255855 L 415.4666666666667 264.1718303374451 L 440 277.5213612906939 L 464.53333333333336 275.43919657758937 L 489.0666666666667 279 L 513.6 279 L 538.1333333333334 279 L 562.6666666666667 279 L 587.2 259.53860763136186 L 611.7333333333333 277.6629577762004 L 636.2666666666667 279 L 660.8000000000001 275.52276171657684 L 685.3333333333334 279 L 709.8666666666667 279 L 734.4000000000001 236.98066261246572 L 758.9333333333334 158 L 783.4666666666667 158 L 808 192.10154046847123" fill="none" stroke="#a3be8c" stroke-width="2"/><path d="M 72 279 L 72 279.3412243175322 L 96.53333333333333 279 L 121.06666666666666 279 L 145.60000000000002 284.43173403418575 L 170.13333333333333 280.39507357031863 L 194.66666666666669 279 L 219.20000000000002 279 L 243.73333333333335 279.3156905250638 L 268.26666666666665 279 L 292.8 279.0789226312659 L 317.33333333333337 400 L 341.8666666666667 279 L 366.40000000000003 279.00232125386077 L 390.93333333333334 281.2609012603833 L 415.4666666666667 279.46192951829187 L 440 279.0603526003798 L 464.53333333333336 279.1717727856965 L 489.0666666666667 279 L 513.6 279 L 538.1333333333334 279 L 562.6666666666667 279 L 587.2 279.39461315632974 L 611.7333333333333 279 L 636.2666666666667 279 L 660.8000000000001 280.32079344677425 L 685.3333333333334 279 L 709.8666666666667 279 L 734.4000000000001 279.09285015443055 L 758.9333333333334 400 L 783.4666666666667 295.38108849540544 L 808 320.35313752949526 L 808 279 Z" fill="#bf616a" opacity="0.15"/><path d="M 72 279 L 72 279.3412243175322 L 96.53333333333333 279 L 121.06666666666666 279 L 145.60000000000002 284.43173403418575 L 170.13333333333333 280.39507357031863 L 194.66666666666669 279 L 219.20000000000002 279 L 243.73333333333335 279.3156905250638 L 268.26666666666665 279 L 292.8 279.0789226312659 L 317.33333333333337 400 L 341.8666666666667 279 L 366.40000000000003 279.00232125386077 L 390.93333333333334 281.2609012603833 L 415.4666666666667 279.46192951829187 L 440 279.0603526003798 L 464.53333333333336 279.1717727856965 L 489.0666666666667 279 L 513.6 279 L 538.1333333333334 279 L 562.6666666666667 279 L 587.2 279.39461315632974 L 611.7333333333333 279 L 636.2666666666667 279 L 660.8000000000001 280.32079344677425 L 685.3333333333334 279 L 709.8666666666667 279 L 734.4000000000001 279.09285015443055 L 758.9333333333334 400 L 783.4666666666667 295.38108849540544 L 808 320.35313752949526" fill="none" stroke="#bf616a" stroke-width="2"/><text x="72" y="426" fill="#81a1c1" font-size="10" font-family="'Segoe UI', sans-serif" text-anchor="middle">Mar 8</text><text x="194.66666666666669" y="426" fill="#81a1c1" font-size="10" font-family="'Segoe UI', sans-serif" text-anchor="middle">Mar 13</text><text x="317.33333333333337" y="426" fill="#81a1c1" font-size="10" font-family="'Segoe UI', sans-serif" text-anchor="middle">Mar 18</text><text x="440" y="426" fill="#81a1c1" font-size="10" font-family="'Segoe UI', sans-serif" text-anchor="middle">Mar 23</text><text x="562.6666666666667" y="426" fill="#81a1c1" font-size="10" font-family="'Segoe UI', sans-serif" text-anchor="middle">Mar 28</text><text x="685.3333333333334" y="426" fill="#81a1c1" font-size="10" font-family="'Segoe UI', sans-serif" text-anchor="middle">Apr 2</text><text x="808" y="426" fill="#81a1c1" font-size="10" font-family="'Segoe UI', sans-serif" text-anchor="middle">Apr 7</text>
  </g>

  <!-- Legend -->
  <g class="cpd-legend">
    <circle cx="30" cy="442" r="5" fill="#a3be8c"/>
    <text x="40" y="446" fill="#d8dee9" font-size="11" font-family="'Segoe UI', sans-serif">Additions</text>
    <circle cx="124" cy="442" r="5" fill="#bf616a"/>
    <text x="134" y="446" fill="#d8dee9" font-size="11" font-family="'Segoe UI', sans-serif">Deletions</text>
    <text x="816" y="446" fill="#81a1c1" font-size="10" font-family="'Segoe UI', sans-serif" text-anchor="end">Last 31 days · +2,485,598 / -2,236,975 lines</text>
  </g>

  <!-- Get your own -->
  <a href="https://github.com/mpge/code-per-day" target="_blank">
    <text x="420" y="452" fill="#81a1c1" font-size="10" font-family="'Segoe UI', sans-serif" text-anchor="middle" opacity="0.6">Get your own — github.com/mpge/code-per-day</text>
  </a>
</svg>