<svg width="840" height="460" viewBox="0 0 840 460" xmlns="http://www.w3.org/2000/svg">
  
    <style>
      @keyframes fadeInUp {
        from { opacity: 0; transform: translateY(12px); }
        to   { opacity: 1; transform: translateY(0); }
      }
      @keyframes growBar {
        from { transform: scaleY(0); }
        to   { transform: scaleY(1); }
      }
      .cpd-header  { animation: fadeInUp 0.5s ease both; }
      .cpd-stats   { animation: fadeInUp 0.5s ease 0.15s both; }
      .cpd-chart   { animation: fadeInUp 0.5s ease 0.3s both; }
      .cpd-legend  { animation: fadeInUp 0.5s ease 0.45s both; }
    </style>

  <rect width="840" height="460" rx="12" fill="#ffffff" stroke="#d0d7de" stroke-width="1"/>

  <g class="cpd-header">
    <a href="https://github.com/mpge/code-per-day" target="_blank">
      <text x="24" y="44" fill="#1f2328" font-size="18" font-family="'Segoe UI', sans-serif" font-weight="700">Code Per Day</text>
    </a>
    <text x="816" y="44" fill="#8b949e" font-size="13" font-family="'Segoe UI', sans-serif" text-anchor="end" font-weight="500">@mpge</text>
  </g>

  <g class="cpd-stats">
    
    <rect x="24" y="60" width="190" height="68" rx="8" fill="#ffffff" stroke="#d0d7de" stroke-width="1"/>
    <text x="119" y="78" fill="#8b949e" font-size="11" font-family="'Segoe UI', sans-serif" text-anchor="middle" font-weight="500">Today</text>
    <text x="119" y="100" fill="#1a7f37" font-size="16" font-family="'Segoe UI Mono', 'Cascadia Code', monospace" text-anchor="middle" font-weight="700">+0</text>
    <text x="119" y="118" fill="#cf222e" font-size="14" font-family="'Segoe UI Mono', 'Cascadia Code', monospace" text-anchor="middle" font-weight="600">+0</text>
    <rect x="222" y="60" width="190" height="68" rx="8" fill="#ffffff" stroke="#d0d7de" stroke-width="1"/>
    <text x="317" y="78" fill="#8b949e" font-size="11" font-family="'Segoe UI', sans-serif" text-anchor="middle" font-weight="500">30d Avg</text>
    <text x="317" y="100" fill="#1a7f37" font-size="16" font-family="'Segoe UI Mono', 'Cascadia Code', monospace" text-anchor="middle" font-weight="700">+11,406</text>
    <text x="317" y="118" fill="#cf222e" font-size="14" font-family="'Segoe UI Mono', 'Cascadia Code', monospace" text-anchor="middle" font-weight="600">-6,190</text>
    <rect x="420" y="60" width="190" height="68" rx="8" fill="#ffffff" stroke="#d0d7de" stroke-width="1"/>
    <text x="515" y="78" fill="#8b949e" font-size="11" font-family="'Segoe UI', sans-serif" text-anchor="middle" font-weight="500">Year Avg</text>
    <text x="515" y="100" fill="#1a7f37" font-size="16" font-family="'Segoe UI Mono', 'Cascadia Code', monospace" text-anchor="middle" font-weight="700">+25,515</text>
    <text x="515" y="118" fill="#cf222e" font-size="14" font-family="'Segoe UI Mono', 'Cascadia Code', monospace" text-anchor="middle" font-weight="600">-7,089</text>
    <rect x="618" y="60" width="190" height="68" rx="8" fill="#ffffff" stroke="#d0d7de" stroke-width="1"/>
    <text x="713" y="78" fill="#8b949e" font-size="11" font-family="'Segoe UI', sans-serif" text-anchor="middle" font-weight="500">Streak</text>
    <text x="713" y="104" fill="#0969da" font-size="20" font-family="'Segoe UI Mono', 'Cascadia Code', monospace" text-anchor="middle" font-weight="700">202</text>
    <text x="713" y="120" fill="#8b949e" font-size="11" font-family="'Segoe UI', sans-serif" text-anchor="middle">days</text>
  </g>

  <g class="cpd-chart">
    <line x1="72" y1="148" x2="808" y2="148" stroke="#eaeef2" stroke-width="1" stroke-dasharray="4,4"/><line x1="72" y1="213.5" x2="808" y2="213.5" stroke="#eaeef2" stroke-width="1" stroke-dasharray="4,4"/><line x1="72" y1="279" x2="808" y2="279" stroke="#eaeef2" stroke-width="1" stroke-dasharray="4,4"/><line x1="72" y1="344.5" x2="808" y2="344.5" stroke="#eaeef2" stroke-width="1" stroke-dasharray="4,4"/><line x1="72" y1="410" x2="808" y2="410" stroke="#eaeef2" stroke-width="1" stroke-dasharray="4,4"/><line x1="72" y1="279" x2="808" y2="279" stroke="#d0d7de" stroke-width="1.5"/><text x="64" y="162" fill="#8b949e" font-size="10" font-family="'Segoe UI', sans-serif" text-anchor="end">+32,003</text><text x="64" y="406" fill="#8b949e" font-size="10" font-family="'Segoe UI', sans-serif" text-anchor="end">-32,003</text><text x="64" y="283" fill="#8b949e" font-size="10" font-family="'Segoe UI', sans-serif" text-anchor="end">0</text><path d="M 72 279 L 72 158 L 96.53333333333333 195.6539386932475 L 121.06666666666666 276.7617098397025 L 145.60000000000002 261.11258319532544 L 170.13333333333333 230.96372215104833 L 194.66666666666669 228.97119020091867 L 219.20000000000002 261.1428303596538 L 243.73333333333335 263.0294972346343 L 268.26666666666665 265.92188232353215 L 292.8 199.77889572852547 L 317.33333333333337 234.94500515576664 L 341.8666666666667 245.90204043370935 L 366.40000000000003 158 L 390.93333333333334 209.06477517732714 L 415.4666666666667 158 L 440 203.89629097272132 L 464.53333333333336 254.37880823672782 L 489.0666666666667 225.45117645220762 L 513.6 278.27406805611975 L 538.1333333333334 279 L 562.6666666666667 272.13389369746585 L 587.2 279 L 611.7333333333333 262.9463175327313 L 636.2666666666667 279 L 660.8000000000001 278.71643283442177 L 685.3333333333334 277.49520357466486 L 709.8666666666667 261.36590319657535 L 734.4000000000001 276.2853170015311 L 758.9333333333334 279 L 783.4666666666667 273.5971002718495 L 808 279 L 808 279 Z" fill="#1a7f37" opacity="0.15"/><path d="M 72 279 L 72 158 L 96.53333333333333 195.6539386932475 L 121.06666666666666 276.7617098397025 L 145.60000000000002 261.11258319532544 L 170.13333333333333 230.96372215104833 L 194.66666666666669 228.97119020091867 L 219.20000000000002 261.1428303596538 L 243.73333333333335 263.0294972346343 L 268.26666666666665 265.92188232353215 L 292.8 199.77889572852547 L 317.33333333333337 234.94500515576664 L 341.8666666666667 245.90204043370935 L 366.40000000000003 158 L 390.93333333333334 209.06477517732714 L 415.4666666666667 158 L 440 203.89629097272132 L 464.53333333333336 254.37880823672782 L 489.0666666666667 225.45117645220762 L 513.6 278.27406805611975 L 538.1333333333334 279 L 562.6666666666667 272.13389369746585 L 587.2 279 L 611.7333333333333 262.9463175327313 L 636.2666666666667 279 L 660.8000000000001 278.71643283442177 L 685.3333333333334 277.49520357466486 L 709.8666666666667 261.36590319657535 L 734.4000000000001 276.2853170015311 L 758.9333333333334 279 L 783.4666666666667 273.5971002718495 L 808 279" fill="none" stroke="#1a7f37" stroke-width="2"/><path d="M 72 279 L 72 400 L 96.53333333333333 311.9353810580258 L 121.06666666666666 280.48211105208884 L 145.60000000000002 292.7700215604787 L 170.13333333333333 299.57185263881513 L 194.66666666666669 293.9042902227916 L 219.20000000000002 282.2326656875918 L 243.73333333333335 284.14579883135957 L 268.26666666666665 285.2914101802956 L 292.8 296.44505202637254 L 317.33333333333337 298.68712308221103 L 341.8666666666667 281.70334031184575 L 366.40000000000003 330.24625816329717 L 390.93333333333334 400 L 415.4666666666667 394.40049370371526 L 440 299.5794144298972 L 464.53333333333336 282.80736180983035 L 489.0666666666667 286.6298472018248 L 513.6 279.2268537324626 L 538.1333333333334 279 L 562.6666666666667 279.0415898509515 L 587.2 279 L 611.7333333333333 279.31003343436555 L 636.2666666666667 279 L 660.8000000000001 279.3364997031528 L 685.3333333333334 279.79398806361905 L 709.8666666666667 296.1539230697122 L 734.4000000000001 279.1134268662313 L 758.9333333333334 279 L 783.4666666666667 280.3384370215292 L 808 279 L 808 279 Z" fill="#cf222e" opacity="0.15"/><path d="M 72 279 L 72 400 L 96.53333333333333 311.9353810580258 L 121.06666666666666 280.48211105208884 L 145.60000000000002 292.7700215604787 L 170.13333333333333 299.57185263881513 L 194.66666666666669 293.9042902227916 L 219.20000000000002 282.2326656875918 L 243.73333333333335 284.14579883135957 L 268.26666666666665 285.2914101802956 L 292.8 296.44505202637254 L 317.33333333333337 298.68712308221103 L 341.8666666666667 281.70334031184575 L 366.40000000000003 330.24625816329717 L 390.93333333333334 400 L 415.4666666666667 394.40049370371526 L 440 299.5794144298972 L 464.53333333333336 282.80736180983035 L 489.0666666666667 286.6298472018248 L 513.6 279.2268537324626 L 538.1333333333334 279 L 562.6666666666667 279.0415898509515 L 587.2 279 L 611.7333333333333 279.31003343436555 L 636.2666666666667 279 L 660.8000000000001 279.3364997031528 L 685.3333333333334 279.79398806361905 L 709.8666666666667 296.1539230697122 L 734.4000000000001 279.1134268662313 L 758.9333333333334 279 L 783.4666666666667 280.3384370215292 L 808 279" fill="none" stroke="#cf222e" stroke-width="2"/><text x="72" y="426" fill="#8b949e" font-size="10" font-family="'Segoe UI', sans-serif" text-anchor="middle">May 19</text><text x="194.66666666666669" y="426" fill="#8b949e" font-size="10" font-family="'Segoe UI', sans-serif" text-anchor="middle">May 24</text><text x="317.33333333333337" y="426" fill="#8b949e" font-size="10" font-family="'Segoe UI', sans-serif" text-anchor="middle">May 29</text><text x="440" y="426" fill="#8b949e" font-size="10" font-family="'Segoe UI', sans-serif" text-anchor="middle">Jun 3</text><text x="562.6666666666667" y="426" fill="#8b949e" font-size="10" font-family="'Segoe UI', sans-serif" text-anchor="middle">Jun 8</text><text x="685.3333333333334" y="426" fill="#8b949e" font-size="10" font-family="'Segoe UI', sans-serif" text-anchor="middle">Jun 13</text><text x="808" y="426" fill="#8b949e" font-size="10" font-family="'Segoe UI', sans-serif" text-anchor="middle">Jun 18</text>
  </g>

  <g class="cpd-legend">
    
    <circle cx="30" cy="442" r="5" fill="#1a7f37"/>
    <text x="40" y="446" fill="#656d76" font-size="11" font-family="'Segoe UI', sans-serif">Additions</text>
    <circle cx="124" cy="442" r="5" fill="#cf222e"/>
    <text x="134" y="446" fill="#656d76" font-size="11" font-family="'Segoe UI', sans-serif">Deletions</text>
    <text x="816" y="446" fill="#8b949e" font-size="10" font-family="'Segoe UI', sans-serif" text-anchor="end">Last 31 days · +353,583 / -191,884 lines</text>
  </g>

  <a href="https://github.com/mpge/code-per-day" target="_blank">
    <text x="420" y="452" fill="#8b949e" font-size="10" font-family="'Segoe UI', sans-serif" text-anchor="middle" opacity="0.6">Get your own - github.com/mpge/code-per-day</text>
  </a>
</svg>