<svg width="840" height="460" viewBox="0 0 840 460" xmlns="http://www.w3.org/2000/svg">
  
    <style>
      @keyframes fadeInUp {
        from { opacity: 0; transform: translateY(12px); }
        to   { opacity: 1; transform: translateY(0); }
      }
      @keyframes growBar {
        from { transform: scaleY(0); }
        to   { transform: scaleY(1); }
      }
      .cpd-header  { animation: fadeInUp 0.5s ease both; }
      .cpd-stats   { animation: fadeInUp 0.5s ease 0.15s both; }
      .cpd-chart   { animation: fadeInUp 0.5s ease 0.3s both; }
      .cpd-legend  { animation: fadeInUp 0.5s ease 0.45s both; }
    </style>

  <rect width="840" height="460" rx="12" fill="#ffffff" stroke="#d0d7de" stroke-width="1"/>

  <g class="cpd-header">
    <a href="https://github.com/mpge/code-per-day" target="_blank">
      <text x="24" y="44" fill="#1f2328" font-size="18" font-family="'Segoe UI', sans-serif" font-weight="700">Code Per Day</text>
    </a>
    <text x="816" y="44" fill="#8b949e" font-size="13" font-family="'Segoe UI', sans-serif" text-anchor="end" font-weight="500">@mpge</text>
  </g>

  <g class="cpd-stats">
    
    <rect x="24" y="60" width="190" height="68" rx="8" fill="#ffffff" stroke="#d0d7de" stroke-width="1"/>
    <text x="119" y="78" fill="#8b949e" font-size="11" font-family="'Segoe UI', sans-serif" text-anchor="middle" font-weight="500">Today</text>
    <text x="119" y="100" fill="#1a7f37" font-size="16" font-family="'Segoe UI Mono', 'Cascadia Code', monospace" text-anchor="middle" font-weight="700">+3,894</text>
    <text x="119" y="118" fill="#cf222e" font-size="14" font-family="'Segoe UI Mono', 'Cascadia Code', monospace" text-anchor="middle" font-weight="600">-494</text>
    <rect x="222" y="60" width="190" height="68" rx="8" fill="#ffffff" stroke="#d0d7de" stroke-width="1"/>
    <text x="317" y="78" fill="#8b949e" font-size="11" font-family="'Segoe UI', sans-serif" text-anchor="middle" font-weight="500">30d Avg</text>
    <text x="317" y="100" fill="#1a7f37" font-size="16" font-family="'Segoe UI Mono', 'Cascadia Code', monospace" text-anchor="middle" font-weight="700">+36,250</text>
    <text x="317" y="118" fill="#cf222e" font-size="14" font-family="'Segoe UI Mono', 'Cascadia Code', monospace" text-anchor="middle" font-weight="600">-5,286</text>
    <rect x="420" y="60" width="190" height="68" rx="8" fill="#ffffff" stroke="#d0d7de" stroke-width="1"/>
    <text x="515" y="78" fill="#8b949e" font-size="11" font-family="'Segoe UI', sans-serif" text-anchor="middle" font-weight="500">Year Avg</text>
    <text x="515" y="100" fill="#1a7f37" font-size="16" font-family="'Segoe UI Mono', 'Cascadia Code', monospace" text-anchor="middle" font-weight="700">+25,105</text>
    <text x="515" y="118" fill="#cf222e" font-size="14" font-family="'Segoe UI Mono', 'Cascadia Code', monospace" text-anchor="middle" font-weight="600">-6,817</text>
    <rect x="618" y="60" width="190" height="68" rx="8" fill="#ffffff" stroke="#d0d7de" stroke-width="1"/>
    <text x="713" y="78" fill="#8b949e" font-size="11" font-family="'Segoe UI', sans-serif" text-anchor="middle" font-weight="500">Streak</text>
    <text x="713" y="104" fill="#0969da" font-size="20" font-family="'Segoe UI Mono', 'Cascadia Code', monospace" text-anchor="middle" font-weight="700">184</text>
    <text x="713" y="120" fill="#8b949e" font-size="11" font-family="'Segoe UI', sans-serif" text-anchor="middle">days</text>
  </g>

  <g class="cpd-chart">
    <line x1="72" y1="148" x2="808" y2="148" stroke="#eaeef2" stroke-width="1" stroke-dasharray="4,4"/><line x1="72" y1="213.5" x2="808" y2="213.5" stroke="#eaeef2" stroke-width="1" stroke-dasharray="4,4"/><line x1="72" y1="279" x2="808" y2="279" stroke="#eaeef2" stroke-width="1" stroke-dasharray="4,4"/><line x1="72" y1="344.5" x2="808" y2="344.5" stroke="#eaeef2" stroke-width="1" stroke-dasharray="4,4"/><line x1="72" y1="410" x2="808" y2="410" stroke="#eaeef2" stroke-width="1" stroke-dasharray="4,4"/><line x1="72" y1="279" x2="808" y2="279" stroke="#d0d7de" stroke-width="1.5"/><text x="64" y="162" fill="#8b949e" font-size="10" font-family="'Segoe UI', sans-serif" text-anchor="end">+27,851</text><text x="64" y="406" fill="#8b949e" font-size="10" font-family="'Segoe UI', sans-serif" text-anchor="end">-27,851</text><text x="64" y="283" fill="#8b949e" font-size="10" font-family="'Segoe UI', sans-serif" text-anchor="end">0</text><path d="M 72 279 L 72 218.64119780259236 L 96.53333333333333 241.5369645614161 L 121.06666666666666 158 L 145.60000000000002 252.4548131126351 L 170.13333333333333 264.3632185558867 L 194.66666666666669 181.35628882266346 L 219.20000000000002 243.83088578507056 L 243.73333333333335 198.88653908297727 L 268.26666666666665 158 L 292.8 273.3390542529891 L 317.33333333333337 227.05224228932533 L 341.8666666666667 213.4929086926861 L 366.40000000000003 264.14599116728306 L 390.93333333333334 241.14595526192954 L 415.4666666666667 261.36113604538434 L 440 258.0636242863811 L 464.53333333333336 276.9493734515816 L 489.0666666666667 158 L 513.6 158 L 538.1333333333334 158 L 562.6666666666667 183.22878891242684 L 587.2 276.42802771893287 L 611.7333333333333 258.4459444903235 L 636.2666666666667 223.80252055581488 L 660.8000000000001 221.5129438799325 L 685.3333333333334 258.4807008725001 L 709.8666666666667 260.64863021076445 L 734.4000000000001 263.9722092564001 L 758.9333333333334 187.96869053175828 L 783.4666666666667 228.37732935980756 L 808 262.0823309755485 L 808 279 Z" fill="#1a7f37" opacity="0.15"/><path d="M 72 279 L 72 218.64119780259236 L 96.53333333333333 241.5369645614161 L 121.06666666666666 158 L 145.60000000000002 252.4548131126351 L 170.13333333333333 264.3632185558867 L 194.66666666666669 181.35628882266346 L 219.20000000000002 243.83088578507056 L 243.73333333333335 198.88653908297727 L 268.26666666666665 158 L 292.8 273.3390542529891 L 317.33333333333337 227.05224228932533 L 341.8666666666667 213.4929086926861 L 366.40000000000003 264.14599116728306 L 390.93333333333334 241.14595526192954 L 415.4666666666667 261.36113604538434 L 440 258.0636242863811 L 464.53333333333336 276.9493734515816 L 489.0666666666667 158 L 513.6 158 L 538.1333333333334 158 L 562.6666666666667 183.22878891242684 L 587.2 276.42802771893287 L 611.7333333333333 258.4459444903235 L 636.2666666666667 223.80252055581488 L 660.8000000000001 221.5129438799325 L 685.3333333333334 258.4807008725001 L 709.8666666666667 260.64863021076445 L 734.4000000000001 263.9722092564001 L 758.9333333333334 187.96869053175828 L 783.4666666666667 228.37732935980756 L 808 262.0823309755485" fill="none" stroke="#1a7f37" stroke-width="2"/><path d="M 72 279 L 72 299.2369035223152 L 96.53333333333333 285.9643100786327 L 121.06666666666666 314.4471652723421 L 145.60000000000002 291.3819611504075 L 170.13333333333333 284.5392984093928 L 194.66666666666669 287.02872428279056 L 219.20000000000002 282.3844027144447 L 243.73333333333335 299.17607985350617 L 268.26666666666665 400 L 292.8 281.2417866503896 L 317.33333333333337 283.7181788804711 L 341.8666666666667 291.0170191375534 L 366.40000000000003 279.417076586119 L 390.93333333333334 293.44127679437 L 415.4666666666667 283.19683314782236 L 440 281.3026103191986 L 464.53333333333336 279.42142113389104 L 489.0666666666667 284.66529029478295 L 513.6 290.4826397615885 L 538.1333333333334 400 L 562.6666666666667 316.84535564252633 L 587.2 280.70306272665255 L 611.7333333333333 294.8228429858892 L 636.2666666666667 302.6386844278482 L 660.8000000000001 296.12620731751105 L 685.3333333333334 282.71458834512225 L 709.8666666666667 284.9129295177911 L 734.4000000000001 286.22932749272917 L 758.9333333333334 299.04574342034397 L 783.4666666666667 301.62206024918316 L 808 281.14620659940397 L 808 279 Z" fill="#cf222e" opacity="0.15"/><path d="M 72 279 L 72 299.2369035223152 L 96.53333333333333 285.9643100786327 L 121.06666666666666 314.4471652723421 L 145.60000000000002 291.3819611504075 L 170.13333333333333 284.5392984093928 L 194.66666666666669 287.02872428279056 L 219.20000000000002 282.3844027144447 L 243.73333333333335 299.17607985350617 L 268.26666666666665 400 L 292.8 281.2417866503896 L 317.33333333333337 283.7181788804711 L 341.8666666666667 291.0170191375534 L 366.40000000000003 279.417076586119 L 390.93333333333334 293.44127679437 L 415.4666666666667 283.19683314782236 L 440 281.3026103191986 L 464.53333333333336 279.42142113389104 L 489.0666666666667 284.66529029478295 L 513.6 290.4826397615885 L 538.1333333333334 400 L 562.6666666666667 316.84535564252633 L 587.2 280.70306272665255 L 611.7333333333333 294.8228429858892 L 636.2666666666667 302.6386844278482 L 660.8000000000001 296.12620731751105 L 685.3333333333334 282.71458834512225 L 709.8666666666667 284.9129295177911 L 734.4000000000001 286.22932749272917 L 758.9333333333334 299.04574342034397 L 783.4666666666667 301.62206024918316 L 808 281.14620659940397" fill="none" stroke="#cf222e" stroke-width="2"/><text x="72" y="426" fill="#8b949e" font-size="10" font-family="'Segoe UI', sans-serif" text-anchor="middle">Apr 30</text><text x="194.66666666666669" y="426" fill="#8b949e" font-size="10" font-family="'Segoe UI', sans-serif" text-anchor="middle">May 5</text><text x="317.33333333333337" y="426" fill="#8b949e" font-size="10" font-family="'Segoe UI', sans-serif" text-anchor="middle">May 10</text><text x="440" y="426" fill="#8b949e" font-size="10" font-family="'Segoe UI', sans-serif" text-anchor="middle">May 15</text><text x="562.6666666666667" y="426" fill="#8b949e" font-size="10" font-family="'Segoe UI', sans-serif" text-anchor="middle">May 20</text><text x="685.3333333333334" y="426" fill="#8b949e" font-size="10" font-family="'Segoe UI', sans-serif" text-anchor="middle">May 25</text><text x="808" y="426" fill="#8b949e" font-size="10" font-family="'Segoe UI', sans-serif" text-anchor="middle">May 30</text>
  </g>

  <g class="cpd-legend">
    
    <circle cx="30" cy="442" r="5" fill="#1a7f37"/>
    <text x="40" y="446" fill="#656d76" font-size="11" font-family="'Segoe UI', sans-serif">Additions</text>
    <circle cx="124" cy="442" r="5" fill="#cf222e"/>
    <text x="134" y="446" fill="#656d76" font-size="11" font-family="'Segoe UI', sans-serif">Deletions</text>
    <text x="816" y="446" fill="#8b949e" font-size="10" font-family="'Segoe UI', sans-serif" text-anchor="end">Last 31 days · +1,123,735 / -163,864 lines</text>
  </g>

  <a href="https://github.com/mpge/code-per-day" target="_blank">
    <text x="420" y="452" fill="#8b949e" font-size="10" font-family="'Segoe UI', sans-serif" text-anchor="middle" opacity="0.6">Get your own - github.com/mpge/code-per-day</text>
  </a>
</svg>