<svg width="840" height="460" viewBox="0 0 840 460" xmlns="http://www.w3.org/2000/svg">
  
    <style>
      @keyframes fadeInUp {
        from { opacity: 0; transform: translateY(12px); }
        to   { opacity: 1; transform: translateY(0); }
      }
      @keyframes growBar {
        from { transform: scaleY(0); }
        to   { transform: scaleY(1); }
      }
      .cpd-header  { animation: fadeInUp 0.5s ease both; }
      .cpd-stats   { animation: fadeInUp 0.5s ease 0.15s both; }
      .cpd-chart   { animation: fadeInUp 0.5s ease 0.3s both; }
      .cpd-legend  { animation: fadeInUp 0.5s ease 0.45s both; }
    </style>

  <!-- Background -->
  <rect width="840" height="460" rx="12" fill="#1a1028" stroke="#3d2660" stroke-width="1"/>

  <!-- Header -->
  <g class="cpd-header">
    <a href="https://github.com/mpge/code-per-day" target="_blank">
      <text x="24" y="44" fill="#f0d0ff" font-size="18" font-family="'Segoe UI', sans-serif" font-weight="700">Code Per Day</text>
    </a>
    <text x="816" y="44" fill="#7a5a8e" font-size="13" font-family="'Segoe UI', sans-serif" text-anchor="end" font-weight="500">@mpge</text>
  </g>

  <!-- Stats Cards -->
  <g class="cpd-stats">
    
    <rect x="24" y="60" width="190" height="68" rx="8" fill="#160e22" stroke="#3d2660" stroke-width="1"/>
    <text x="119" y="78" fill="#7a5a8e" font-size="11" font-family="'Segoe UI', sans-serif" text-anchor="middle" font-weight="500">Today</text>
    <text x="119" y="100" fill="#ffb86c" font-size="16" font-family="'Segoe UI Mono', 'Cascadia Code', monospace" text-anchor="middle" font-weight="700">+5,792</text>
    <text x="119" y="118" fill="#ff79c6" font-size="14" font-family="'Segoe UI Mono', 'Cascadia Code', monospace" text-anchor="middle" font-weight="600">-224</text>
    <rect x="222" y="60" width="190" height="68" rx="8" fill="#160e22" stroke="#3d2660" stroke-width="1"/>
    <text x="317" y="78" fill="#7a5a8e" font-size="11" font-family="'Segoe UI', sans-serif" text-anchor="middle" font-weight="500">30d Avg</text>
    <text x="317" y="100" fill="#ffb86c" font-size="16" font-family="'Segoe UI Mono', 'Cascadia Code', monospace" text-anchor="middle" font-weight="700">+225,682</text>
    <text x="317" y="118" fill="#ff79c6" font-size="14" font-family="'Segoe UI Mono', 'Cascadia Code', monospace" text-anchor="middle" font-weight="600">-72,649</text>
    <rect x="420" y="60" width="190" height="68" rx="8" fill="#160e22" stroke="#3d2660" stroke-width="1"/>
    <text x="515" y="78" fill="#7a5a8e" font-size="11" font-family="'Segoe UI', sans-serif" text-anchor="middle" font-weight="500">Year Avg</text>
    <text x="515" y="100" fill="#ffb86c" font-size="16" font-family="'Segoe UI Mono', 'Cascadia Code', monospace" text-anchor="middle" font-weight="700">+20,716</text>
    <text x="515" y="118" fill="#ff79c6" font-size="14" font-family="'Segoe UI Mono', 'Cascadia Code', monospace" text-anchor="middle" font-weight="600">-6,266</text>
        <rect x="618" y="60" width="190" height="68" rx="8" fill="#160e22" stroke="#3d2660" stroke-width="1"/>
        <text x="713" y="78" fill="#7a5a8e" font-size="11" font-family="'Segoe UI', sans-serif" text-anchor="middle" font-weight="500">Streak</text>
        <text x="713" y="104" fill="#ff79c6" font-size="20" font-family="'Segoe UI Mono', 'Cascadia Code', monospace" text-anchor="middle" font-weight="700">137</text>
        <text x="713" y="120" fill="#7a5a8e" font-size="11" font-family="'Segoe UI', sans-serif" text-anchor="middle">days</text>
  </g>

  <!-- Chart -->
  <g class="cpd-chart">
    <line x1="72" y1="148" x2="808" y2="148" stroke="#2d1c44" stroke-width="1" stroke-dasharray="4,4"/><line x1="72" y1="213.5" x2="808" y2="213.5" stroke="#2d1c44" stroke-width="1" stroke-dasharray="4,4"/><line x1="72" y1="279" x2="808" y2="279" stroke="#2d1c44" stroke-width="1" stroke-dasharray="4,4"/><line x1="72" y1="344.5" x2="808" y2="344.5" stroke="#2d1c44" stroke-width="1" stroke-dasharray="4,4"/><line x1="72" y1="410" x2="808" y2="410" stroke="#2d1c44" stroke-width="1" stroke-dasharray="4,4"/><line x1="72" y1="279" x2="808" y2="279" stroke="#3d2660" stroke-width="1.5"/><text x="64" y="162" fill="#7a5a8e" font-size="10" font-family="'Segoe UI', sans-serif" text-anchor="end">+44,919</text><text x="64" y="406" fill="#7a5a8e" font-size="10" font-family="'Segoe UI', sans-serif" text-anchor="end">-44,919</text><text x="64" y="283" fill="#7a5a8e" font-size="10" font-family="'Segoe UI', sans-serif" text-anchor="end">0</text><path d="M 72 279 L 72 279 L 96.53333333333333 242.00151383601593 L 121.06666666666666 279 L 145.60000000000002 252.84919521805918 L 170.13333333333333 158 L 194.66666666666669 279 L 219.20000000000002 273.0926334067989 L 243.73333333333335 252.0976424230281 L 268.26666666666665 261.79240410516707 L 292.8 277.2840891382266 L 317.33333333333337 274.8678064961375 L 341.8666666666667 279 L 366.40000000000003 279 L 390.93333333333334 279 L 415.4666666666667 279 L 440 256.41570382243594 L 464.53333333333336 277.4484071328391 L 489.0666666666667 279 L 513.6 274.96478105033503 L 538.1333333333334 279 L 562.6666666666667 279 L 587.2 230.23796166432913 L 611.7333333333333 158 L 636.2666666666667 158 L 660.8000000000001 178.15723858500857 L 685.3333333333334 158 L 709.8666666666667 158 L 734.4000000000001 261.8139540060999 L 758.9333333333334 279 L 783.4666666666667 158 L 808 263.3978717246599 L 808 279 Z" fill="#ffb86c" opacity="0.15"/><path d="M 72 279 L 72 279 L 96.53333333333333 242.00151383601593 L 121.06666666666666 279 L 145.60000000000002 252.84919521805918 L 170.13333333333333 158 L 194.66666666666669 279 L 219.20000000000002 273.0926334067989 L 243.73333333333335 252.0976424230281 L 268.26666666666665 261.79240410516707 L 292.8 277.2840891382266 L 317.33333333333337 274.8678064961375 L 341.8666666666667 279 L 366.40000000000003 279 L 390.93333333333334 279 L 415.4666666666667 279 L 440 256.41570382243594 L 464.53333333333336 277.4484071328391 L 489.0666666666667 279 L 513.6 274.96478105033503 L 538.1333333333334 279 L 562.6666666666667 279 L 587.2 230.23796166432913 L 611.7333333333333 158 L 636.2666666666667 158 L 660.8000000000001 178.15723858500857 L 685.3333333333334 158 L 709.8666666666667 158 L 734.4000000000001 261.8139540060999 L 758.9333333333334 279 L 783.4666666666667 158 L 808 263.3978717246599" fill="none" stroke="#ffb86c" stroke-width="2"/><path d="M 72 279 L 72 279 L 96.53333333333333 279.3663483158574 L 121.06666666666666 279 L 145.60000000000002 279.0915870789644 L 170.13333333333333 400 L 194.66666666666669 279 L 219.20000000000002 279.0026937376166 L 243.73333333333335 281.6237004385672 L 268.26666666666665 279.53605378570313 L 292.8 279.07003717803155 L 317.33333333333337 279.1993365836283 L 341.8666666666667 279 L 366.40000000000003 279 L 390.93333333333334 279 L 415.4666666666667 279 L 440 279.4579353948218 L 464.53333333333336 279 L 489.0666666666667 279 L 513.6 280.5327367038447 L 538.1333333333334 279 L 562.6666666666667 279 L 587.2 279.10774950466396 L 611.7333333333333 400 L 636.2666666666667 298.0097063603375 L 660.8000000000001 326.98893563970705 L 685.3333333333334 290.3110042520982 L 709.8666666666667 312.25149713929517 L 734.4000000000001 282.6661768961909 L 758.9333333333334 279 L 783.4666666666667 279.2397426478773 L 808 279.60339722611815 L 808 279 Z" fill="#ff79c6" opacity="0.15"/><path d="M 72 279 L 72 279 L 96.53333333333333 279.3663483158574 L 121.06666666666666 279 L 145.60000000000002 279.0915870789644 L 170.13333333333333 400 L 194.66666666666669 279 L 219.20000000000002 279.0026937376166 L 243.73333333333335 281.6237004385672 L 268.26666666666665 279.53605378570313 L 292.8 279.07003717803155 L 317.33333333333337 279.1993365836283 L 341.8666666666667 279 L 366.40000000000003 279 L 390.93333333333334 279 L 415.4666666666667 279 L 440 279.4579353948218 L 464.53333333333336 279 L 489.0666666666667 279 L 513.6 280.5327367038447 L 538.1333333333334 279 L 562.6666666666667 279 L 587.2 279.10774950466396 L 611.7333333333333 400 L 636.2666666666667 298.0097063603375 L 660.8000000000001 326.98893563970705 L 685.3333333333334 290.3110042520982 L 709.8666666666667 312.25149713929517 L 734.4000000000001 282.6661768961909 L 758.9333333333334 279 L 783.4666666666667 279.2397426478773 L 808 279.60339722611815" fill="none" stroke="#ff79c6" stroke-width="2"/><text x="72" y="426" fill="#7a5a8e" font-size="10" font-family="'Segoe UI', sans-serif" text-anchor="middle">Mar 14</text><text x="194.66666666666669" y="426" fill="#7a5a8e" font-size="10" font-family="'Segoe UI', sans-serif" text-anchor="middle">Mar 19</text><text x="317.33333333333337" y="426" fill="#7a5a8e" font-size="10" font-family="'Segoe UI', sans-serif" text-anchor="middle">Mar 24</text><text x="440" y="426" fill="#7a5a8e" font-size="10" font-family="'Segoe UI', sans-serif" text-anchor="middle">Mar 29</text><text x="562.6666666666667" y="426" fill="#7a5a8e" font-size="10" font-family="'Segoe UI', sans-serif" text-anchor="middle">Apr 3</text><text x="685.3333333333334" y="426" fill="#7a5a8e" font-size="10" font-family="'Segoe UI', sans-serif" text-anchor="middle">Apr 8</text><text x="808" y="426" fill="#7a5a8e" font-size="10" font-family="'Segoe UI', sans-serif" text-anchor="middle">Apr 13</text>
  </g>

  <!-- Legend -->
  <g class="cpd-legend">
    <circle cx="30" cy="442" r="5" fill="#ffb86c"/>
    <text x="40" y="446" fill="#c4a0d8" font-size="11" font-family="'Segoe UI', sans-serif">Additions</text>
    <circle cx="124" cy="442" r="5" fill="#ff79c6"/>
    <text x="134" y="446" fill="#c4a0d8" font-size="11" font-family="'Segoe UI', sans-serif">Deletions</text>
    <text x="816" y="446" fill="#7a5a8e" font-size="10" font-family="'Segoe UI', sans-serif" text-anchor="end">Last 31 days · +6,996,132 / -2,252,104 lines</text>
  </g>

  <!-- Get your own -->
  <a href="https://github.com/mpge/code-per-day" target="_blank">
    <text x="420" y="452" fill="#7a5a8e" font-size="10" font-family="'Segoe UI', sans-serif" text-anchor="middle" opacity="0.6">Get your own — github.com/mpge/code-per-day</text>
  </a>
</svg>