<svg width="840" height="460" viewBox="0 0 840 460" xmlns="http://www.w3.org/2000/svg">
  
    <style>
      @keyframes fadeInUp {
        from { opacity: 0; transform: translateY(12px); }
        to   { opacity: 1; transform: translateY(0); }
      }
      @keyframes growBar {
        from { transform: scaleY(0); }
        to   { transform: scaleY(1); }
      }
      .cpd-header  { animation: fadeInUp 0.5s ease both; }
      .cpd-stats   { animation: fadeInUp 0.5s ease 0.15s both; }
      .cpd-chart   { animation: fadeInUp 0.5s ease 0.3s both; }
      .cpd-legend  { animation: fadeInUp 0.5s ease 0.45s both; }
    </style>

  <!-- Background -->
  <rect width="840" height="460" rx="12" fill="#0b1a0b" stroke="#1e3a1e" stroke-width="1"/>

  <!-- Header -->
  <g class="cpd-header">
    <a href="https://github.com/mpge/code-per-day" target="_blank">
      <text x="24" y="44" fill="#c8e6c8" font-size="18" font-family="'Segoe UI', sans-serif" font-weight="700">Code Per Day</text>
    </a>
    <text x="816" y="44" fill="#5a7a5a" font-size="13" font-family="'Segoe UI', sans-serif" text-anchor="end" font-weight="500">@mpge</text>
  </g>

  <!-- Stats Cards -->
  <g class="cpd-stats">
    
    <rect x="24" y="60" width="190" height="68" rx="8" fill="#091409" stroke="#1e3a1e" stroke-width="1"/>
    <text x="119" y="78" fill="#5a7a5a" font-size="11" font-family="'Segoe UI', sans-serif" text-anchor="middle" font-weight="500">Today</text>
    <text x="119" y="100" fill="#66ff66" font-size="16" font-family="'Segoe UI Mono', 'Cascadia Code', monospace" text-anchor="middle" font-weight="700">+561</text>
    <text x="119" y="118" fill="#ff8a65" font-size="14" font-family="'Segoe UI Mono', 'Cascadia Code', monospace" text-anchor="middle" font-weight="600">-110</text>
    <rect x="222" y="60" width="190" height="68" rx="8" fill="#091409" stroke="#1e3a1e" stroke-width="1"/>
    <text x="317" y="78" fill="#5a7a5a" font-size="11" font-family="'Segoe UI', sans-serif" text-anchor="middle" font-weight="500">30d Avg</text>
    <text x="317" y="100" fill="#66ff66" font-size="16" font-family="'Segoe UI Mono', 'Cascadia Code', monospace" text-anchor="middle" font-weight="700">+210,655</text>
    <text x="317" y="118" fill="#ff8a65" font-size="14" font-family="'Segoe UI Mono', 'Cascadia Code', monospace" text-anchor="middle" font-weight="600">-56,503</text>
    <rect x="420" y="60" width="190" height="68" rx="8" fill="#091409" stroke="#1e3a1e" stroke-width="1"/>
    <text x="515" y="78" fill="#5a7a5a" font-size="11" font-family="'Segoe UI', sans-serif" text-anchor="middle" font-weight="500">Year Avg</text>
    <text x="515" y="100" fill="#66ff66" font-size="16" font-family="'Segoe UI Mono', 'Cascadia Code', monospace" text-anchor="middle" font-weight="700">+21,673</text>
    <text x="515" y="118" fill="#ff8a65" font-size="14" font-family="'Segoe UI Mono', 'Cascadia Code', monospace" text-anchor="middle" font-weight="600">-6,358</text>
        <rect x="618" y="60" width="190" height="68" rx="8" fill="#091409" stroke="#1e3a1e" stroke-width="1"/>
        <text x="713" y="78" fill="#5a7a5a" font-size="11" font-family="'Segoe UI', sans-serif" text-anchor="middle" font-weight="500">Streak</text>
        <text x="713" y="104" fill="#66ff66" font-size="20" font-family="'Segoe UI Mono', 'Cascadia Code', monospace" text-anchor="middle" font-weight="700">144</text>
        <text x="713" y="120" fill="#5a7a5a" font-size="11" font-family="'Segoe UI', sans-serif" text-anchor="middle">days</text>
  </g>

  <!-- Chart -->
  <g class="cpd-chart">
    <line x1="72" y1="148" x2="808" y2="148" stroke="#1a2e1a" stroke-width="1" stroke-dasharray="4,4"/><line x1="72" y1="213.5" x2="808" y2="213.5" stroke="#1a2e1a" stroke-width="1" stroke-dasharray="4,4"/><line x1="72" y1="279" x2="808" y2="279" stroke="#1a2e1a" stroke-width="1" stroke-dasharray="4,4"/><line x1="72" y1="344.5" x2="808" y2="344.5" stroke="#1a2e1a" stroke-width="1" stroke-dasharray="4,4"/><line x1="72" y1="410" x2="808" y2="410" stroke="#1a2e1a" stroke-width="1" stroke-dasharray="4,4"/><line x1="72" y1="279" x2="808" y2="279" stroke="#1e3a1e" stroke-width="1.5"/><text x="64" y="162" fill="#5a7a5a" font-size="10" font-family="'Segoe UI', sans-serif" text-anchor="end">+35,827</text><text x="64" y="406" fill="#5a7a5a" font-size="10" font-family="'Segoe UI', sans-serif" text-anchor="end">-35,827</text><text x="64" y="283" fill="#5a7a5a" font-size="10" font-family="'Segoe UI', sans-serif" text-anchor="end">0</text><path d="M 72 279 L 72 243.53454098863986 L 96.53333333333333 257.425544980043 L 121.06666666666666 226.66809947804728 L 145.60000000000002 273.41050046054653 L 170.13333333333333 225.93183911575068 L 194.66666666666669 279 L 219.20000000000002 278.8041142155358 L 243.73333333333335 279 L 268.26666666666665 250.6843721215843 L 292.8 277.0546515198035 L 317.33333333333337 279 L 341.8666666666667 273.9407430150445 L 366.40000000000003 279 L 390.93333333333334 279 L 415.4666666666667 217.86337120049126 L 440 158 L 464.53333333333336 158 L 489.0666666666667 158 L 513.6 158 L 538.1333333333334 158 L 562.6666666666667 236.1111452256678 L 587.2 256.932453177771 L 611.7333333333333 158 L 636.2666666666667 252.38992938286768 L 660.8000000000001 278.8378876266503 L 685.3333333333334 279 L 709.8666666666667 278.821000921093 L 734.4000000000001 279 L 758.9333333333334 261.6033159349094 L 783.4666666666667 230.1974209395149 L 808 277.1053116364753 L 808 279 Z" fill="#66ff66" opacity="0.15"/><path d="M 72 279 L 72 243.53454098863986 L 96.53333333333333 257.425544980043 L 121.06666666666666 226.66809947804728 L 145.60000000000002 273.41050046054653 L 170.13333333333333 225.93183911575068 L 194.66666666666669 279 L 219.20000000000002 278.8041142155358 L 243.73333333333335 279 L 268.26666666666665 250.6843721215843 L 292.8 277.0546515198035 L 317.33333333333337 279 L 341.8666666666667 273.9407430150445 L 366.40000000000003 279 L 390.93333333333334 279 L 415.4666666666667 217.86337120049126 L 440 158 L 464.53333333333336 158 L 489.0666666666667 158 L 513.6 158 L 538.1333333333334 158 L 562.6666666666667 236.1111452256678 L 587.2 256.932453177771 L 611.7333333333333 158 L 636.2666666666667 252.38992938286768 L 660.8000000000001 278.8378876266503 L 685.3333333333334 279 L 709.8666666666667 278.821000921093 L 734.4000000000001 279 L 758.9333333333334 261.6033159349094 L 783.4666666666667 230.1974209395149 L 808 277.1053116364753" fill="none" stroke="#66ff66" stroke-width="2"/><path d="M 72 279 L 72 282.3368130181148 L 96.53333333333333 279.672090881179 L 121.06666666666666 279.1486030089039 L 145.60000000000002 279.388394227817 L 170.13333333333333 289.04758980657044 L 194.66666666666669 279 L 219.20000000000002 279.12496162112376 L 243.73333333333335 279 L 268.26666666666665 279.5741479889469 L 292.8 279 L 317.33333333333337 279 L 341.8666666666667 280.92170709241634 L 366.40000000000003 279 L 390.93333333333334 279 L 415.4666666666667 279.1350936444581 L 440 400 L 464.53333333333336 302.8338962235186 L 489.0666666666667 339.81915873503226 L 513.6 293.18145532698804 L 538.1333333333334 320.76757752533007 L 562.6666666666667 286.00798280626344 L 587.2 285.86613447958246 L 611.7333333333333 282.1611912803193 L 636.2666666666667 279.99293828676696 L 660.8000000000001 295.42738716610376 L 685.3333333333334 279 L 709.8666666666667 279.1519803500154 L 734.4000000000001 279 L 758.9333333333334 279.38501688670556 L 783.4666666666667 281.7863064169481 L 808 279.3715075222598 L 808 279 Z" fill="#ff8a65" opacity="0.15"/><path d="M 72 279 L 72 282.3368130181148 L 96.53333333333333 279.672090881179 L 121.06666666666666 279.1486030089039 L 145.60000000000002 279.388394227817 L 170.13333333333333 289.04758980657044 L 194.66666666666669 279 L 219.20000000000002 279.12496162112376 L 243.73333333333335 279 L 268.26666666666665 279.5741479889469 L 292.8 279 L 317.33333333333337 279 L 341.8666666666667 280.92170709241634 L 366.40000000000003 279 L 390.93333333333334 279 L 415.4666666666667 279.1350936444581 L 440 400 L 464.53333333333336 302.8338962235186 L 489.0666666666667 339.81915873503226 L 513.6 293.18145532698804 L 538.1333333333334 320.76757752533007 L 562.6666666666667 286.00798280626344 L 587.2 285.86613447958246 L 611.7333333333333 282.1611912803193 L 636.2666666666667 279.99293828676696 L 660.8000000000001 295.42738716610376 L 685.3333333333334 279 L 709.8666666666667 279.1519803500154 L 734.4000000000001 279 L 758.9333333333334 279.38501688670556 L 783.4666666666667 281.7863064169481 L 808 279.3715075222598" fill="none" stroke="#ff8a65" stroke-width="2"/><text x="72" y="426" fill="#5a7a5a" font-size="10" font-family="'Segoe UI', sans-serif" text-anchor="middle">Mar 21</text><text x="194.66666666666669" y="426" fill="#5a7a5a" font-size="10" font-family="'Segoe UI', sans-serif" text-anchor="middle">Mar 26</text><text x="317.33333333333337" y="426" fill="#5a7a5a" font-size="10" font-family="'Segoe UI', sans-serif" text-anchor="middle">Mar 31</text><text x="440" y="426" fill="#5a7a5a" font-size="10" font-family="'Segoe UI', sans-serif" text-anchor="middle">Apr 5</text><text x="562.6666666666667" y="426" fill="#5a7a5a" font-size="10" font-family="'Segoe UI', sans-serif" text-anchor="middle">Apr 10</text><text x="685.3333333333334" y="426" fill="#5a7a5a" font-size="10" font-family="'Segoe UI', sans-serif" text-anchor="middle">Apr 15</text><text x="808" y="426" fill="#5a7a5a" font-size="10" font-family="'Segoe UI', sans-serif" text-anchor="middle">Apr 20</text>
  </g>

  <!-- Legend -->
  <g class="cpd-legend">
    <circle cx="30" cy="442" r="5" fill="#66ff66"/>
    <text x="40" y="446" fill="#8ab88a" font-size="11" font-family="'Segoe UI', sans-serif">Additions</text>
    <circle cx="124" cy="442" r="5" fill="#ff8a65"/>
    <text x="134" y="446" fill="#8ab88a" font-size="11" font-family="'Segoe UI', sans-serif">Deletions</text>
    <text x="816" y="446" fill="#5a7a5a" font-size="10" font-family="'Segoe UI', sans-serif" text-anchor="end">Last 31 days · +6,530,305 / -1,751,597 lines</text>
  </g>

  <!-- Get your own -->
  <a href="https://github.com/mpge/code-per-day" target="_blank">
    <text x="420" y="452" fill="#5a7a5a" font-size="10" font-family="'Segoe UI', sans-serif" text-anchor="middle" opacity="0.6">Get your own — github.com/mpge/code-per-day</text>
  </a>
</svg>