<svg width="840" height="460" viewBox="0 0 840 460" xmlns="http://www.w3.org/2000/svg">
  
    <style>
      @keyframes fadeInUp {
        from { opacity: 0; transform: translateY(12px); }
        to   { opacity: 1; transform: translateY(0); }
      }
      @keyframes growBar {
        from { transform: scaleY(0); }
        to   { transform: scaleY(1); }
      }
      .cpd-header  { animation: fadeInUp 0.5s ease both; }
      .cpd-stats   { animation: fadeInUp 0.5s ease 0.15s both; }
      .cpd-chart   { animation: fadeInUp 0.5s ease 0.3s both; }
      .cpd-legend  { animation: fadeInUp 0.5s ease 0.45s both; }
    </style>

  <rect width="840" height="460" rx="12" fill="#282a36" stroke="#44475a" stroke-width="1"/>

  <g class="cpd-header">
    <a href="https://github.com/mpge/code-per-day" target="_blank">
      <text x="24" y="44" fill="#f8f8f2" font-size="18" font-family="'Segoe UI', sans-serif" font-weight="700">Code Per Day</text>
    </a>
    <text x="816" y="44" fill="#6272a4" font-size="13" font-family="'Segoe UI', sans-serif" text-anchor="end" font-weight="500">@mpge</text>
  </g>

  <g class="cpd-stats">
    
    <rect x="24" y="60" width="190" height="68" rx="8" fill="#21222c" stroke="#44475a" stroke-width="1"/>
    <text x="119" y="78" fill="#6272a4" font-size="11" font-family="'Segoe UI', sans-serif" text-anchor="middle" font-weight="500">Today</text>
    <text x="119" y="100" fill="#50fa7b" font-size="16" font-family="'Segoe UI Mono', 'Cascadia Code', monospace" text-anchor="middle" font-weight="700">+1,274</text>
    <text x="119" y="118" fill="#ff5555" font-size="14" font-family="'Segoe UI Mono', 'Cascadia Code', monospace" text-anchor="middle" font-weight="600">-185</text>
    <rect x="222" y="60" width="190" height="68" rx="8" fill="#21222c" stroke="#44475a" stroke-width="1"/>
    <text x="317" y="78" fill="#6272a4" font-size="11" font-family="'Segoe UI', sans-serif" text-anchor="middle" font-weight="500">30d Avg</text>
    <text x="317" y="100" fill="#50fa7b" font-size="16" font-family="'Segoe UI Mono', 'Cascadia Code', monospace" text-anchor="middle" font-weight="700">+35,562</text>
    <text x="317" y="118" fill="#ff5555" font-size="14" font-family="'Segoe UI Mono', 'Cascadia Code', monospace" text-anchor="middle" font-weight="600">-5,147</text>
    <rect x="420" y="60" width="190" height="68" rx="8" fill="#21222c" stroke="#44475a" stroke-width="1"/>
    <text x="515" y="78" fill="#6272a4" font-size="11" font-family="'Segoe UI', sans-serif" text-anchor="middle" font-weight="500">Year Avg</text>
    <text x="515" y="100" fill="#50fa7b" font-size="16" font-family="'Segoe UI Mono', 'Cascadia Code', monospace" text-anchor="middle" font-weight="700">+25,016</text>
    <text x="515" y="118" fill="#ff5555" font-size="14" font-family="'Segoe UI Mono', 'Cascadia Code', monospace" text-anchor="middle" font-weight="600">-6,789</text>
    <rect x="618" y="60" width="190" height="68" rx="8" fill="#21222c" stroke="#44475a" stroke-width="1"/>
    <text x="713" y="78" fill="#6272a4" font-size="11" font-family="'Segoe UI', sans-serif" text-anchor="middle" font-weight="500">Streak</text>
    <text x="713" y="104" fill="#8be9fd" font-size="20" font-family="'Segoe UI Mono', 'Cascadia Code', monospace" text-anchor="middle" font-weight="700">181</text>
    <text x="713" y="120" fill="#6272a4" font-size="11" font-family="'Segoe UI', sans-serif" text-anchor="middle">days</text>
  </g>

  <g class="cpd-chart">
    <line x1="72" y1="148" x2="808" y2="148" stroke="#383a4a" stroke-width="1" stroke-dasharray="4,4"/><line x1="72" y1="213.5" x2="808" y2="213.5" stroke="#383a4a" stroke-width="1" stroke-dasharray="4,4"/><line x1="72" y1="279" x2="808" y2="279" stroke="#383a4a" stroke-width="1" stroke-dasharray="4,4"/><line x1="72" y1="344.5" x2="808" y2="344.5" stroke="#383a4a" stroke-width="1" stroke-dasharray="4,4"/><line x1="72" y1="410" x2="808" y2="410" stroke="#383a4a" stroke-width="1" stroke-dasharray="4,4"/><line x1="72" y1="279" x2="808" y2="279" stroke="#44475a" stroke-width="1.5"/><text x="64" y="162" fill="#6272a4" font-size="10" font-family="'Segoe UI', sans-serif" text-anchor="end">+26,501</text><text x="64" y="406" fill="#6272a4" font-size="10" font-family="'Segoe UI', sans-serif" text-anchor="end">-26,501</text><text x="64" y="283" fill="#6272a4" font-size="10" font-family="'Segoe UI', sans-serif" text-anchor="end">0</text><path d="M 72 279 L 72 227.03131957284631 L 96.53333333333333 267.3798724576431 L 121.06666666666666 215.56643145541676 L 145.60000000000002 239.62854231915776 L 170.13333333333333 158 L 194.66666666666669 251.10256216746538 L 219.20000000000002 263.6175993358741 L 243.73333333333335 176.38217425757517 L 268.26666666666665 242.0393192709709 L 292.8 194.80544130410175 L 317.33333333333337 158 L 341.8666666666667 273.05067733293083 L 366.40000000000003 224.40594694539828 L 390.93333333333334 210.15588091015434 L 415.4666666666667 263.3893060639221 L 440 239.21761442964416 L 464.53333333333336 260.4625863174974 L 489.0666666666667 256.99709444926606 L 513.6 276.8449115127731 L 538.1333333333334 158 L 562.6666666666667 158 L 587.2 158 L 611.7333333333333 178.35006226180144 L 636.2666666666667 276.2970076600883 L 660.8000000000001 257.3988906079016 L 685.3333333333334 220.99067959699633 L 709.8666666666667 218.58446851062223 L 734.4000000000001 257.4354175314139 L 758.9333333333334 259.7137843854949 L 783.4666666666667 263.20667144636053 L 808 273.183087430663 L 808 279 Z" fill="#50fa7b" opacity="0.15"/><path d="M 72 279 L 72 227.03131957284631 L 96.53333333333333 267.3798724576431 L 121.06666666666666 215.56643145541676 L 145.60000000000002 239.62854231915776 L 170.13333333333333 158 L 194.66666666666669 251.10256216746538 L 219.20000000000002 263.6175993358741 L 243.73333333333335 176.38217425757517 L 268.26666666666665 242.0393192709709 L 292.8 194.80544130410175 L 317.33333333333337 158 L 341.8666666666667 273.05067733293083 L 366.40000000000003 224.40594694539828 L 390.93333333333334 210.15588091015434 L 415.4666666666667 263.3893060639221 L 440 239.21761442964416 L 464.53333333333336 260.4625863174974 L 489.0666666666667 256.99709444926606 L 513.6 276.8449115127731 L 538.1333333333334 158 L 562.6666666666667 158 L 587.2 158 L 611.7333333333333 178.35006226180144 L 636.2666666666667 276.2970076600883 L 660.8000000000001 257.3988906079016 L 685.3333333333334 220.99067959699633 L 709.8666666666667 218.58446851062223 L 734.4000000000001 257.4354175314139 L 758.9333333333334 259.7137843854949 L 783.4666666666667 263.20667144636053 L 808 273.183087430663" fill="none" stroke="#50fa7b" stroke-width="2"/><path d="M 72 279 L 72 303.12603297988755 L 96.53333333333333 281.4701332025207 L 121.06666666666666 300.2678012150485 L 145.60000000000002 286.31908229878115 L 170.13333333333333 316.25289611712765 L 194.66666666666669 292.0127165012641 L 219.20000000000002 284.82147843477605 L 243.73333333333335 287.437719331346 L 268.26666666666665 282.5568091770122 L 292.8 300.20387909890195 L 317.33333333333337 400 L 341.8666666666667 281.3559865665447 L 366.40000000000003 283.9585298667975 L 390.93333333333334 291.62918380438475 L 415.4666666666667 279.43832308214786 L 440 294.17693671936905 L 464.53333333333336 283.41062601411267 L 489.0666666666667 281.41990868269124 L 513.6 279.4428889475869 L 538.1333333333334 284.9538885325082 L 562.6666666666667 291.0675823553828 L 587.2 400 L 611.7333333333333 318.7732538394778 L 636.2666666666667 280.7898192521037 L 660.8000000000001 295.6288819289838 L 685.3333333333334 303.84287385381685 L 709.8666666666667 296.99864156069583 L 734.4000000000001 282.9038149503792 L 758.9333333333334 285.2141428625335 L 783.4666666666667 286.5976000905626 L 808 279.8446851062224 L 808 279 Z" fill="#ff5555" opacity="0.15"/><path d="M 72 279 L 72 303.12603297988755 L 96.53333333333333 281.4701332025207 L 121.06666666666666 300.2678012150485 L 145.60000000000002 286.31908229878115 L 170.13333333333333 316.25289611712765 L 194.66666666666669 292.0127165012641 L 219.20000000000002 284.82147843477605 L 243.73333333333335 287.437719331346 L 268.26666666666665 282.5568091770122 L 292.8 300.20387909890195 L 317.33333333333337 400 L 341.8666666666667 281.3559865665447 L 366.40000000000003 283.9585298667975 L 390.93333333333334 291.62918380438475 L 415.4666666666667 279.43832308214786 L 440 294.17693671936905 L 464.53333333333336 283.41062601411267 L 489.0666666666667 281.41990868269124 L 513.6 279.4428889475869 L 538.1333333333334 284.9538885325082 L 562.6666666666667 291.0675823553828 L 587.2 400 L 611.7333333333333 318.7732538394778 L 636.2666666666667 280.7898192521037 L 660.8000000000001 295.6288819289838 L 685.3333333333334 303.84287385381685 L 709.8666666666667 296.99864156069583 L 734.4000000000001 282.9038149503792 L 758.9333333333334 285.2141428625335 L 783.4666666666667 286.5976000905626 L 808 279.8446851062224" fill="none" stroke="#ff5555" stroke-width="2"/><text x="72" y="426" fill="#6272a4" font-size="10" font-family="'Segoe UI', sans-serif" text-anchor="middle">Apr 28</text><text x="194.66666666666669" y="426" fill="#6272a4" font-size="10" font-family="'Segoe UI', sans-serif" text-anchor="middle">May 3</text><text x="317.33333333333337" y="426" fill="#6272a4" font-size="10" font-family="'Segoe UI', sans-serif" text-anchor="middle">May 8</text><text x="440" y="426" fill="#6272a4" font-size="10" font-family="'Segoe UI', sans-serif" text-anchor="middle">May 13</text><text x="562.6666666666667" y="426" fill="#6272a4" font-size="10" font-family="'Segoe UI', sans-serif" text-anchor="middle">May 18</text><text x="685.3333333333334" y="426" fill="#6272a4" font-size="10" font-family="'Segoe UI', sans-serif" text-anchor="middle">May 23</text><text x="808" y="426" fill="#6272a4" font-size="10" font-family="'Segoe UI', sans-serif" text-anchor="middle">May 28</text>
  </g>

  <g class="cpd-legend">
    
    <circle cx="30" cy="442" r="5" fill="#50fa7b"/>
    <text x="40" y="446" fill="#bd93f9" font-size="11" font-family="'Segoe UI', sans-serif">Additions</text>
    <circle cx="124" cy="442" r="5" fill="#ff5555"/>
    <text x="134" y="446" fill="#bd93f9" font-size="11" font-family="'Segoe UI', sans-serif">Deletions</text>
    <text x="816" y="446" fill="#6272a4" font-size="10" font-family="'Segoe UI', sans-serif" text-anchor="end">Last 31 days · +1,102,437 / -159,559 lines</text>
  </g>

  <a href="https://github.com/mpge/code-per-day" target="_blank">
    <text x="420" y="452" fill="#6272a4" font-size="10" font-family="'Segoe UI', sans-serif" text-anchor="middle" opacity="0.6">Get your own - github.com/mpge/code-per-day</text>
  </a>
</svg>