<svg width="840" height="460" viewBox="0 0 840 460" xmlns="http://www.w3.org/2000/svg">
  
    <style>
      @keyframes fadeInUp {
        from { opacity: 0; transform: translateY(12px); }
        to   { opacity: 1; transform: translateY(0); }
      }
      @keyframes growBar {
        from { transform: scaleY(0); }
        to   { transform: scaleY(1); }
      }
      .cpd-header  { animation: fadeInUp 0.5s ease both; }
      .cpd-stats   { animation: fadeInUp 0.5s ease 0.15s both; }
      .cpd-chart   { animation: fadeInUp 0.5s ease 0.3s both; }
      .cpd-legend  { animation: fadeInUp 0.5s ease 0.45s both; }
    </style>

  <rect width="840" height="460" rx="12" fill="#1a1028" stroke="#3d2660" stroke-width="1"/>

  <g class="cpd-header">
    <a href="https://github.com/mpge/code-per-day" target="_blank">
      <text x="24" y="44" fill="#f0d0ff" font-size="18" font-family="'Segoe UI', sans-serif" font-weight="700">Code Per Day</text>
    </a>
    <text x="816" y="44" fill="#7a5a8e" font-size="13" font-family="'Segoe UI', sans-serif" text-anchor="end" font-weight="500">@mpge</text>
  </g>

  <g class="cpd-stats">
    
    <rect x="24" y="60" width="190" height="68" rx="8" fill="#160e22" stroke="#3d2660" stroke-width="1"/>
    <text x="119" y="78" fill="#7a5a8e" font-size="11" font-family="'Segoe UI', sans-serif" text-anchor="middle" font-weight="500">Today</text>
    <text x="119" y="100" fill="#ffb86c" font-size="16" font-family="'Segoe UI Mono', 'Cascadia Code', monospace" text-anchor="middle" font-weight="700">+742</text>
    <text x="119" y="118" fill="#ff79c6" font-size="14" font-family="'Segoe UI Mono', 'Cascadia Code', monospace" text-anchor="middle" font-weight="600">-171</text>
    <rect x="222" y="60" width="190" height="68" rx="8" fill="#160e22" stroke="#3d2660" stroke-width="1"/>
    <text x="317" y="78" fill="#7a5a8e" font-size="11" font-family="'Segoe UI', sans-serif" text-anchor="middle" font-weight="500">30d Avg</text>
    <text x="317" y="100" fill="#ffb86c" font-size="16" font-family="'Segoe UI Mono', 'Cascadia Code', monospace" text-anchor="middle" font-weight="700">+4,242</text>
    <text x="317" y="118" fill="#ff79c6" font-size="14" font-family="'Segoe UI Mono', 'Cascadia Code', monospace" text-anchor="middle" font-weight="600">-856</text>
    <rect x="420" y="60" width="190" height="68" rx="8" fill="#160e22" stroke="#3d2660" stroke-width="1"/>
    <text x="515" y="78" fill="#7a5a8e" font-size="11" font-family="'Segoe UI', sans-serif" text-anchor="middle" font-weight="500">Year Avg</text>
    <text x="515" y="100" fill="#ffb86c" font-size="16" font-family="'Segoe UI Mono', 'Cascadia Code', monospace" text-anchor="middle" font-weight="700">+26,173</text>
    <text x="515" y="118" fill="#ff79c6" font-size="14" font-family="'Segoe UI Mono', 'Cascadia Code', monospace" text-anchor="middle" font-weight="600">-7,176</text>
    <rect x="618" y="60" width="190" height="68" rx="8" fill="#160e22" stroke="#3d2660" stroke-width="1"/>
    <text x="713" y="78" fill="#7a5a8e" font-size="11" font-family="'Segoe UI', sans-serif" text-anchor="middle" font-weight="500">Streak</text>
    <text x="713" y="104" fill="#ff79c6" font-size="20" font-family="'Segoe UI Mono', 'Cascadia Code', monospace" text-anchor="middle" font-weight="700">238</text>
    <text x="713" y="120" fill="#7a5a8e" font-size="11" font-family="'Segoe UI', sans-serif" text-anchor="middle">days</text>
  </g>

  <g class="cpd-chart">
    <line x1="72" y1="148" x2="808" y2="148" stroke="#2d1c44" stroke-width="1" stroke-dasharray="4,4"/><line x1="72" y1="213.5" x2="808" y2="213.5" stroke="#2d1c44" stroke-width="1" stroke-dasharray="4,4"/><line x1="72" y1="279" x2="808" y2="279" stroke="#2d1c44" stroke-width="1" stroke-dasharray="4,4"/><line x1="72" y1="344.5" x2="808" y2="344.5" stroke="#2d1c44" stroke-width="1" stroke-dasharray="4,4"/><line x1="72" y1="410" x2="808" y2="410" stroke="#2d1c44" stroke-width="1" stroke-dasharray="4,4"/><line x1="72" y1="279" x2="808" y2="279" stroke="#3d2660" stroke-width="1.5"/><text x="64" y="162" fill="#7a5a8e" font-size="10" font-family="'Segoe UI', sans-serif" text-anchor="end">+7,598</text><text x="64" y="406" fill="#7a5a8e" font-size="10" font-family="'Segoe UI', sans-serif" text-anchor="end">-7,598</text><text x="64" y="283" fill="#7a5a8e" font-size="10" font-family="'Segoe UI', sans-serif" text-anchor="end">0</text><path d="M 72 279 L 72 163.36680705448802 L 96.53333333333333 168.22400631745194 L 121.06666666666666 249.7453277178205 L 145.60000000000002 256.40207949460387 L 170.13333333333333 207.00197420373783 L 194.66666666666669 158 L 219.20000000000002 228.32587523032376 L 243.73333333333335 238.709133982627 L 268.26666666666665 273.74466964990785 L 292.8 279 L 317.33333333333337 274.8912871808371 L 341.8666666666667 267.9956567517768 L 366.40000000000003 279 L 390.93333333333334 257.7397999473546 L 415.4666666666667 249.01276651750462 L 440 279 L 464.53333333333336 279 L 489.0666666666667 158 L 513.6 174.9285338246907 L 538.1333333333334 269.0626480652803 L 562.6666666666667 278.90444853908923 L 587.2 224.75862068965517 L 611.7333333333333 272.64582784943406 L 636.2666666666667 279 L 660.8000000000001 279 L 685.3333333333334 277.8374572255857 L 709.8666666666667 275.3371939984206 L 734.4000000000001 209.5659384048434 L 758.9333333333334 237.62621742563834 L 783.4666666666667 267.15161884706504 L 808 267.1834693340353 L 808 279 Z" fill="#ffb86c" opacity="0.15"/><path d="M 72 279 L 72 163.36680705448802 L 96.53333333333333 168.22400631745194 L 121.06666666666666 249.7453277178205 L 145.60000000000002 256.40207949460387 L 170.13333333333333 207.00197420373783 L 194.66666666666669 158 L 219.20000000000002 228.32587523032376 L 243.73333333333335 238.709133982627 L 268.26666666666665 273.74466964990785 L 292.8 279 L 317.33333333333337 274.8912871808371 L 341.8666666666667 267.9956567517768 L 366.40000000000003 279 L 390.93333333333334 257.7397999473546 L 415.4666666666667 249.01276651750462 L 440 279 L 464.53333333333336 279 L 489.0666666666667 158 L 513.6 174.9285338246907 L 538.1333333333334 269.0626480652803 L 562.6666666666667 278.90444853908923 L 587.2 224.75862068965517 L 611.7333333333333 272.64582784943406 L 636.2666666666667 279 L 660.8000000000001 279 L 685.3333333333334 277.8374572255857 L 709.8666666666667 275.3371939984206 L 734.4000000000001 209.5659384048434 L 758.9333333333334 237.62621742563834 L 783.4666666666667 267.15161884706504 L 808 267.1834693340353" fill="none" stroke="#ffb86c" stroke-width="2"/><path d="M 72 279 L 72 296.963674651224 L 96.53333333333333 280.08291655698866 L 121.06666666666666 281.67544090550143 L 145.60000000000002 280.369570939721 L 170.13333333333333 283.5386943932614 L 194.66666666666669 400 L 219.20000000000002 289.51066070018425 L 243.73333333333335 290.0043432482232 L 268.26666666666665 279 L 292.8 279 L 317.33333333333337 281.4206370097394 L 341.8666666666667 281.2932350618584 L 366.40000000000003 279 L 390.93333333333334 286.5963411424059 L 415.4666666666667 308.49355093445644 L 440 279 L 464.53333333333336 279 L 489.0666666666667 351.9853908923401 L 513.6 374.28073177151884 L 538.1333333333334 283.36351671492497 L 562.6666666666667 279 L 587.2 284.5260594893393 L 611.7333333333333 282.7902079494604 L 636.2666666666667 279 L 660.8000000000001 279 L 685.3333333333334 279.07962621742564 L 709.8666666666667 279.65293498289026 L 734.4000000000001 283.0290866017373 L 758.9333333333334 286.6600421163464 L 783.4666666666667 281.7550671229271 L 808 281.7232166359568 L 808 279 Z" fill="#ff79c6" opacity="0.15"/><path d="M 72 279 L 72 296.963674651224 L 96.53333333333333 280.08291655698866 L 121.06666666666666 281.67544090550143 L 145.60000000000002 280.369570939721 L 170.13333333333333 283.5386943932614 L 194.66666666666669 400 L 219.20000000000002 289.51066070018425 L 243.73333333333335 290.0043432482232 L 268.26666666666665 279 L 292.8 279 L 317.33333333333337 281.4206370097394 L 341.8666666666667 281.2932350618584 L 366.40000000000003 279 L 390.93333333333334 286.5963411424059 L 415.4666666666667 308.49355093445644 L 440 279 L 464.53333333333336 279 L 489.0666666666667 351.9853908923401 L 513.6 374.28073177151884 L 538.1333333333334 283.36351671492497 L 562.6666666666667 279 L 587.2 284.5260594893393 L 611.7333333333333 282.7902079494604 L 636.2666666666667 279 L 660.8000000000001 279 L 685.3333333333334 279.07962621742564 L 709.8666666666667 279.65293498289026 L 734.4000000000001 283.0290866017373 L 758.9333333333334 286.6600421163464 L 783.4666666666667 281.7550671229271 L 808 281.7232166359568" fill="none" stroke="#ff79c6" stroke-width="2"/><text x="72" y="426" fill="#7a5a8e" font-size="10" font-family="'Segoe UI', sans-serif" text-anchor="middle">Jun 24</text><text x="194.66666666666669" y="426" fill="#7a5a8e" font-size="10" font-family="'Segoe UI', sans-serif" text-anchor="middle">Jun 29</text><text x="317.33333333333337" y="426" fill="#7a5a8e" font-size="10" font-family="'Segoe UI', sans-serif" text-anchor="middle">Jul 4</text><text x="440" y="426" fill="#7a5a8e" font-size="10" font-family="'Segoe UI', sans-serif" text-anchor="middle">Jul 9</text><text x="562.6666666666667" y="426" fill="#7a5a8e" font-size="10" font-family="'Segoe UI', sans-serif" text-anchor="middle">Jul 14</text><text x="685.3333333333334" y="426" fill="#7a5a8e" font-size="10" font-family="'Segoe UI', sans-serif" text-anchor="middle">Jul 19</text><text x="808" y="426" fill="#7a5a8e" font-size="10" font-family="'Segoe UI', sans-serif" text-anchor="middle">Jul 24</text>
  </g>

  <g class="cpd-legend">
    
    <circle cx="30" cy="442" r="5" fill="#ffb86c"/>
    <text x="40" y="446" fill="#c4a0d8" font-size="11" font-family="'Segoe UI', sans-serif">Additions</text>
    <circle cx="124" cy="442" r="5" fill="#ff79c6"/>
    <text x="134" y="446" fill="#c4a0d8" font-size="11" font-family="'Segoe UI', sans-serif">Deletions</text>
    <text x="816" y="446" fill="#7a5a8e" font-size="10" font-family="'Segoe UI', sans-serif" text-anchor="end">Last 31 days · +131,506 / -26,534 lines</text>
  </g>

  <a href="https://github.com/mpge/code-per-day" target="_blank">
    <text x="420" y="452" fill="#7a5a8e" font-size="10" font-family="'Segoe UI', sans-serif" text-anchor="middle" opacity="0.6">Get your own - github.com/mpge/code-per-day</text>
  </a>
</svg>