<svg width="840" height="460" viewBox="0 0 840 460" xmlns="http://www.w3.org/2000/svg">
  
    <style>
      @keyframes fadeInUp {
        from { opacity: 0; transform: translateY(12px); }
        to   { opacity: 1; transform: translateY(0); }
      }
      @keyframes growBar {
        from { transform: scaleY(0); }
        to   { transform: scaleY(1); }
      }
      .cpd-header  { animation: fadeInUp 0.5s ease both; }
      .cpd-stats   { animation: fadeInUp 0.5s ease 0.15s both; }
      .cpd-chart   { animation: fadeInUp 0.5s ease 0.3s both; }
      .cpd-legend  { animation: fadeInUp 0.5s ease 0.45s both; }
    </style>

  <!-- Background -->
  <rect width="840" height="460" rx="12" fill="#1a1028" stroke="#3d2660" stroke-width="1"/>

  <!-- Header -->
  <g class="cpd-header">
    <a href="https://github.com/mpge/code-per-day" target="_blank">
      <text x="24" y="44" fill="#f0d0ff" font-size="18" font-family="'Segoe UI', sans-serif" font-weight="700">Code Per Day</text>
    </a>
    <text x="816" y="44" fill="#7a5a8e" font-size="13" font-family="'Segoe UI', sans-serif" text-anchor="end" font-weight="500">@mpge</text>
  </g>

  <!-- Stats Cards -->
  <g class="cpd-stats">
    
    <rect x="24" y="60" width="190" height="68" rx="8" fill="#160e22" stroke="#3d2660" stroke-width="1"/>
    <text x="119" y="78" fill="#7a5a8e" font-size="11" font-family="'Segoe UI', sans-serif" text-anchor="middle" font-weight="500">Today</text>
    <text x="119" y="100" fill="#ffb86c" font-size="16" font-family="'Segoe UI Mono', 'Cascadia Code', monospace" text-anchor="middle" font-weight="700">+2,460</text>
    <text x="119" y="118" fill="#ff79c6" font-size="14" font-family="'Segoe UI Mono', 'Cascadia Code', monospace" text-anchor="middle" font-weight="600">-1,035</text>
    <rect x="222" y="60" width="190" height="68" rx="8" fill="#160e22" stroke="#3d2660" stroke-width="1"/>
    <text x="317" y="78" fill="#7a5a8e" font-size="11" font-family="'Segoe UI', sans-serif" text-anchor="middle" font-weight="500">30d Avg</text>
    <text x="317" y="100" fill="#ffb86c" font-size="16" font-family="'Segoe UI Mono', 'Cascadia Code', monospace" text-anchor="middle" font-weight="700">+235,610</text>
    <text x="317" y="118" fill="#ff79c6" font-size="14" font-family="'Segoe UI Mono', 'Cascadia Code', monospace" text-anchor="middle" font-weight="600">-57,428</text>
    <rect x="420" y="60" width="190" height="68" rx="8" fill="#160e22" stroke="#3d2660" stroke-width="1"/>
    <text x="515" y="78" fill="#7a5a8e" font-size="11" font-family="'Segoe UI', sans-serif" text-anchor="middle" font-weight="500">Year Avg</text>
    <text x="515" y="100" fill="#ffb86c" font-size="16" font-family="'Segoe UI Mono', 'Cascadia Code', monospace" text-anchor="middle" font-weight="700">+23,951</text>
    <text x="515" y="118" fill="#ff79c6" font-size="14" font-family="'Segoe UI Mono', 'Cascadia Code', monospace" text-anchor="middle" font-weight="600">-6,450</text>
        <rect x="618" y="60" width="190" height="68" rx="8" fill="#160e22" stroke="#3d2660" stroke-width="1"/>
        <text x="713" y="78" fill="#7a5a8e" font-size="11" font-family="'Segoe UI', sans-serif" text-anchor="middle" font-weight="500">Streak</text>
        <text x="713" y="104" fill="#ff79c6" font-size="20" font-family="'Segoe UI Mono', 'Cascadia Code', monospace" text-anchor="middle" font-weight="700">158</text>
        <text x="713" y="120" fill="#7a5a8e" font-size="11" font-family="'Segoe UI', sans-serif" text-anchor="middle">days</text>
  </g>

  <!-- Chart -->
  <g class="cpd-chart">
    <line x1="72" y1="148" x2="808" y2="148" stroke="#2d1c44" stroke-width="1" stroke-dasharray="4,4"/><line x1="72" y1="213.5" x2="808" y2="213.5" stroke="#2d1c44" stroke-width="1" stroke-dasharray="4,4"/><line x1="72" y1="279" x2="808" y2="279" stroke="#2d1c44" stroke-width="1" stroke-dasharray="4,4"/><line x1="72" y1="344.5" x2="808" y2="344.5" stroke="#2d1c44" stroke-width="1" stroke-dasharray="4,4"/><line x1="72" y1="410" x2="808" y2="410" stroke="#2d1c44" stroke-width="1" stroke-dasharray="4,4"/><line x1="72" y1="279" x2="808" y2="279" stroke="#3d2660" stroke-width="1.5"/><text x="64" y="162" fill="#7a5a8e" font-size="10" font-family="'Segoe UI', sans-serif" text-anchor="end">+34,573</text><text x="64" y="406" fill="#7a5a8e" font-size="10" font-family="'Segoe UI', sans-serif" text-anchor="end">-34,573</text><text x="64" y="283" fill="#7a5a8e" font-size="10" font-family="'Segoe UI', sans-serif" text-anchor="end">0</text><path d="M 72 279 L 72 215.64587973273942 L 96.53333333333333 158 L 121.06666666666666 158 L 145.60000000000002 158 L 170.13333333333333 158 L 194.66666666666669 158 L 219.20000000000002 234.5555202036271 L 243.73333333333335 256.13203945275217 L 268.26666666666665 158 L 292.8 251.42475342029908 L 317.33333333333337 278.83200763601656 L 341.8666666666667 279 L 366.40000000000003 278.81450843143494 L 390.93333333333334 279 L 415.4666666666667 260.97231944002544 L 440 228.4272987591473 L 464.53333333333336 254.36461979000956 L 489.0666666666667 262.750238625517 L 513.6 278.9825007954184 L 538.1333333333334 188.228125994273 L 562.6666666666667 158 L 587.2 271.2198536430162 L 611.7333333333333 182.42538975501114 L 636.2666666666667 158 L 660.8000000000001 239.16481069042317 L 685.3333333333334 270.09290486796056 L 709.8666666666667 230.37671014953867 L 734.4000000000001 248.82087177855553 L 758.9333333333334 158 L 783.4666666666667 257.61597200127267 L 808 270.3903913458479 L 808 279 Z" fill="#ffb86c" opacity="0.15"/><path d="M 72 279 L 72 215.64587973273942 L 96.53333333333333 158 L 121.06666666666666 158 L 145.60000000000002 158 L 170.13333333333333 158 L 194.66666666666669 158 L 219.20000000000002 234.5555202036271 L 243.73333333333335 256.13203945275217 L 268.26666666666665 158 L 292.8 251.42475342029908 L 317.33333333333337 278.83200763601656 L 341.8666666666667 279 L 366.40000000000003 278.81450843143494 L 390.93333333333334 279 L 415.4666666666667 260.97231944002544 L 440 228.4272987591473 L 464.53333333333336 254.36461979000956 L 489.0666666666667 262.750238625517 L 513.6 278.9825007954184 L 538.1333333333334 188.228125994273 L 562.6666666666667 158 L 587.2 271.2198536430162 L 611.7333333333333 182.42538975501114 L 636.2666666666667 158 L 660.8000000000001 239.16481069042317 L 685.3333333333334 270.09290486796056 L 709.8666666666667 230.37671014953867 L 734.4000000000001 248.82087177855553 L 758.9333333333334 158 L 783.4666666666667 257.61597200127267 L 808 270.3903913458479" fill="none" stroke="#ffb86c" stroke-width="2"/><path d="M 72 279 L 72 279.1399936366529 L 96.53333333333333 400 L 121.06666666666666 303.6983773464842 L 145.60000000000002 342.02513522112633 L 170.13333333333333 293.695832007636 L 194.66666666666669 322.282532612154 L 219.20000000000002 286.2621699013681 L 243.73333333333335 286.1151765828826 L 268.26666666666665 282.2758510976774 L 292.8 280.02895322939867 L 317.33333333333337 296.0232262169901 L 341.8666666666667 279 L 366.40000000000003 279.1574928412345 L 390.93333333333334 279 L 415.4666666666667 279.3989818644607 L 440 281.8873687559656 L 464.53333333333336 285.98218262806233 L 489.0666666666667 279.21699013681194 L 513.6 279 L 538.1333333333334 280.9319121858097 L 562.6666666666667 296.271714922049 L 587.2 279.2904867960547 L 611.7333333333333 283.3468024180719 L 636.2666666666667 282.09735921094494 L 660.8000000000001 297.4931594018454 L 685.3333333333334 280.89341393573017 L 709.8666666666667 295.30225898822783 L 734.4000000000001 284.61024498886417 L 758.9333333333334 307.55520203627106 L 783.4666666666667 288.97454661151767 L 808 282.6223353483933 L 808 279 Z" fill="#ff79c6" opacity="0.15"/><path d="M 72 279 L 72 279.1399936366529 L 96.53333333333333 400 L 121.06666666666666 303.6983773464842 L 145.60000000000002 342.02513522112633 L 170.13333333333333 293.695832007636 L 194.66666666666669 322.282532612154 L 219.20000000000002 286.2621699013681 L 243.73333333333335 286.1151765828826 L 268.26666666666665 282.2758510976774 L 292.8 280.02895322939867 L 317.33333333333337 296.0232262169901 L 341.8666666666667 279 L 366.40000000000003 279.1574928412345 L 390.93333333333334 279 L 415.4666666666667 279.3989818644607 L 440 281.8873687559656 L 464.53333333333336 285.98218262806233 L 489.0666666666667 279.21699013681194 L 513.6 279 L 538.1333333333334 280.9319121858097 L 562.6666666666667 296.271714922049 L 587.2 279.2904867960547 L 611.7333333333333 283.3468024180719 L 636.2666666666667 282.09735921094494 L 660.8000000000001 297.4931594018454 L 685.3333333333334 280.89341393573017 L 709.8666666666667 295.30225898822783 L 734.4000000000001 284.61024498886417 L 758.9333333333334 307.55520203627106 L 783.4666666666667 288.97454661151767 L 808 282.6223353483933" fill="none" stroke="#ff79c6" stroke-width="2"/><text x="72" y="426" fill="#7a5a8e" font-size="10" font-family="'Segoe UI', sans-serif" text-anchor="middle">Apr 4</text><text x="194.66666666666669" y="426" fill="#7a5a8e" font-size="10" font-family="'Segoe UI', sans-serif" text-anchor="middle">Apr 9</text><text x="317.33333333333337" y="426" fill="#7a5a8e" font-size="10" font-family="'Segoe UI', sans-serif" text-anchor="middle">Apr 14</text><text x="440" y="426" fill="#7a5a8e" font-size="10" font-family="'Segoe UI', sans-serif" text-anchor="middle">Apr 19</text><text x="562.6666666666667" y="426" fill="#7a5a8e" font-size="10" font-family="'Segoe UI', sans-serif" text-anchor="middle">Apr 24</text><text x="685.3333333333334" y="426" fill="#7a5a8e" font-size="10" font-family="'Segoe UI', sans-serif" text-anchor="middle">Apr 29</text><text x="808" y="426" fill="#7a5a8e" font-size="10" font-family="'Segoe UI', sans-serif" text-anchor="middle">May 4</text>
  </g>

  <!-- Legend -->
  <g class="cpd-legend">
    <circle cx="30" cy="442" r="5" fill="#ffb86c"/>
    <text x="40" y="446" fill="#c4a0d8" font-size="11" font-family="'Segoe UI', sans-serif">Additions</text>
    <circle cx="124" cy="442" r="5" fill="#ff79c6"/>
    <text x="134" y="446" fill="#c4a0d8" font-size="11" font-family="'Segoe UI', sans-serif">Deletions</text>
    <text x="816" y="446" fill="#7a5a8e" font-size="10" font-family="'Segoe UI', sans-serif" text-anchor="end">Last 31 days · +7,303,907 / -1,780,274 lines</text>
  </g>

  <!-- Get your own -->
  <a href="https://github.com/mpge/code-per-day" target="_blank">
    <text x="420" y="452" fill="#7a5a8e" font-size="10" font-family="'Segoe UI', sans-serif" text-anchor="middle" opacity="0.6">Get your own — github.com/mpge/code-per-day</text>
  </a>
</svg>