<svg width="840" height="460" viewBox="0 0 840 460" xmlns="http://www.w3.org/2000/svg">
  
    <style>
      @keyframes fadeInUp {
        from { opacity: 0; transform: translateY(12px); }
        to   { opacity: 1; transform: translateY(0); }
      }
      @keyframes growBar {
        from { transform: scaleY(0); }
        to   { transform: scaleY(1); }
      }
      .cpd-header  { animation: fadeInUp 0.5s ease both; }
      .cpd-stats   { animation: fadeInUp 0.5s ease 0.15s both; }
      .cpd-chart   { animation: fadeInUp 0.5s ease 0.3s both; }
      .cpd-legend  { animation: fadeInUp 0.5s ease 0.45s both; }
    </style>

  <!-- Background -->
  <rect width="840" height="460" rx="12" fill="#ffffff" stroke="#d0d7de" stroke-width="1"/>

  <!-- Header -->
  <g class="cpd-header">
    <a href="https://github.com/mpge/code-per-day" target="_blank">
      <text x="24" y="44" fill="#1f2328" font-size="18" font-family="'Segoe UI', sans-serif" font-weight="700">Code Per Day</text>
    </a>
    <text x="816" y="44" fill="#8b949e" font-size="13" font-family="'Segoe UI', sans-serif" text-anchor="end" font-weight="500">@mpge</text>
  </g>

  <!-- Stats Cards -->
  <g class="cpd-stats">
    
    <rect x="24" y="60" width="190" height="68" rx="8" fill="#ffffff" stroke="#d0d7de" stroke-width="1"/>
    <text x="119" y="78" fill="#8b949e" font-size="11" font-family="'Segoe UI', sans-serif" text-anchor="middle" font-weight="500">Today</text>
    <text x="119" y="100" fill="#1a7f37" font-size="16" font-family="'Segoe UI Mono', 'Cascadia Code', monospace" text-anchor="middle" font-weight="700">+3,063</text>
    <text x="119" y="118" fill="#cf222e" font-size="14" font-family="'Segoe UI Mono', 'Cascadia Code', monospace" text-anchor="middle" font-weight="600">-59</text>
    <rect x="222" y="60" width="190" height="68" rx="8" fill="#ffffff" stroke="#d0d7de" stroke-width="1"/>
    <text x="317" y="78" fill="#8b949e" font-size="11" font-family="'Segoe UI', sans-serif" text-anchor="middle" font-weight="500">30d Avg</text>
    <text x="317" y="100" fill="#1a7f37" font-size="16" font-family="'Segoe UI Mono', 'Cascadia Code', monospace" text-anchor="middle" font-weight="700">+208,737</text>
    <text x="317" y="118" fill="#cf222e" font-size="14" font-family="'Segoe UI Mono', 'Cascadia Code', monospace" text-anchor="middle" font-weight="600">-56,250</text>
    <rect x="420" y="60" width="190" height="68" rx="8" fill="#ffffff" stroke="#d0d7de" stroke-width="1"/>
    <text x="515" y="78" fill="#8b949e" font-size="11" font-family="'Segoe UI', sans-serif" text-anchor="middle" font-weight="500">Year Avg</text>
    <text x="515" y="100" fill="#1a7f37" font-size="16" font-family="'Segoe UI Mono', 'Cascadia Code', monospace" text-anchor="middle" font-weight="700">+20,739</text>
    <text x="515" y="118" fill="#cf222e" font-size="14" font-family="'Segoe UI Mono', 'Cascadia Code', monospace" text-anchor="middle" font-weight="600">-6,279</text>
        <rect x="618" y="60" width="190" height="68" rx="8" fill="#ffffff" stroke="#d0d7de" stroke-width="1"/>
        <text x="713" y="78" fill="#8b949e" font-size="11" font-family="'Segoe UI', sans-serif" text-anchor="middle" font-weight="500">Streak</text>
        <text x="713" y="104" fill="#0969da" font-size="20" font-family="'Segoe UI Mono', 'Cascadia Code', monospace" text-anchor="middle" font-weight="700">143</text>
        <text x="713" y="120" fill="#8b949e" font-size="11" font-family="'Segoe UI', sans-serif" text-anchor="middle">days</text>
  </g>

  <!-- Chart -->
  <g class="cpd-chart">
    <line x1="72" y1="148" x2="808" y2="148" stroke="#eaeef2" stroke-width="1" stroke-dasharray="4,4"/><line x1="72" y1="213.5" x2="808" y2="213.5" stroke="#eaeef2" stroke-width="1" stroke-dasharray="4,4"/><line x1="72" y1="279" x2="808" y2="279" stroke="#eaeef2" stroke-width="1" stroke-dasharray="4,4"/><line x1="72" y1="344.5" x2="808" y2="344.5" stroke="#eaeef2" stroke-width="1" stroke-dasharray="4,4"/><line x1="72" y1="410" x2="808" y2="410" stroke="#eaeef2" stroke-width="1" stroke-dasharray="4,4"/><line x1="72" y1="279" x2="808" y2="279" stroke="#d0d7de" stroke-width="1.5"/><text x="64" y="162" fill="#8b949e" font-size="10" font-family="'Segoe UI', sans-serif" text-anchor="end">+24,713</text><text x="64" y="406" fill="#8b949e" font-size="10" font-family="'Segoe UI', sans-serif" text-anchor="end">-24,713</text><text x="64" y="283" fill="#8b949e" font-size="10" font-family="'Segoe UI', sans-serif" text-anchor="end">0</text><path d="M 72 279 L 72 268.2626148181119 L 96.53333333333333 230.1015659774208 L 121.06666666666666 247.72302027273096 L 145.60000000000002 275.881115202525 L 170.13333333333333 271.48921620199894 L 194.66666666666669 279 L 219.20000000000002 279 L 243.73333333333335 279 L 268.26666666666665 279 L 292.8 237.9501881600777 L 317.33333333333337 276.17978391939465 L 341.8666666666667 279 L 366.40000000000003 271.6654797070368 L 390.93333333333334 279 L 415.4666666666667 279 L 440 190.36883421680898 L 464.53333333333336 158 L 489.0666666666667 158 L 513.6 158 L 538.1333333333334 158 L 562.6666666666667 158 L 587.2 247.76218994051715 L 611.7333333333333 279 L 636.2666666666667 158 L 660.8000000000001 250.51385910249667 L 685.3333333333334 278.7649819932829 L 709.8666666666667 279 L 734.4000000000001 278.7405009509165 L 758.9333333333334 279 L 783.4666666666667 253.77963015416987 L 808 264.0029134463643 L 808 279 Z" fill="#1a7f37" opacity="0.15"/><path d="M 72 279 L 72 268.2626148181119 L 96.53333333333333 230.1015659774208 L 121.06666666666666 247.72302027273096 L 145.60000000000002 275.881115202525 L 170.13333333333333 271.48921620199894 L 194.66666666666669 279 L 219.20000000000002 279 L 243.73333333333335 279 L 268.26666666666665 279 L 292.8 237.9501881600777 L 317.33333333333337 276.17978391939465 L 341.8666666666667 279 L 366.40000000000003 271.6654797070368 L 390.93333333333334 279 L 415.4666666666667 279 L 440 190.36883421680898 L 464.53333333333336 158 L 489.0666666666667 158 L 513.6 158 L 538.1333333333334 158 L 562.6666666666667 158 L 587.2 247.76218994051715 L 611.7333333333333 279 L 636.2666666666667 158 L 660.8000000000001 250.51385910249667 L 685.3333333333334 278.7649819932829 L 709.8666666666667 279 L 734.4000000000001 278.7405009509165 L 758.9333333333334 279 L 783.4666666666667 253.77963015416987 L 808 264.0029134463643" fill="none" stroke="#1a7f37" stroke-width="2"/><path d="M 72 279 L 72 279.00489620847327 L 96.53333333333333 283.7689070529681 L 121.06666666666666 279.97434548618133 L 145.60000000000002 279.1273014203051 L 170.13333333333333 279.3623194270222 L 194.66666666666669 279 L 219.20000000000002 279 L 243.73333333333335 279 L 268.26666666666665 279 L 292.8 279.83235544045647 L 317.33333333333337 279 L 341.8666666666667 279 L 366.40000000000003 281.78594262129246 L 390.93333333333334 279 L 415.4666666666667 279 L 440 279.19584833893094 L 464.53333333333336 400 L 489.0666666666667 313.5525431958888 L 513.6 366.22595395136165 L 538.1333333333334 299.55917937927404 L 562.6666666666667 339.4387973940841 L 587.2 285.6637397321248 L 611.7333333333333 279 L 636.2666666666667 279.4357625541213 L 660.8000000000001 280.1065431149597 L 685.3333333333334 302.8151580140007 L 709.8666666666667 279 L 734.4000000000001 279.2203293812973 L 758.9333333333334 279 L 783.4666666666667 279.55816776595316 L 808 279.2888762999231 L 808 279 Z" fill="#cf222e" opacity="0.15"/><path d="M 72 279 L 72 279.00489620847327 L 96.53333333333333 283.7689070529681 L 121.06666666666666 279.97434548618133 L 145.60000000000002 279.1273014203051 L 170.13333333333333 279.3623194270222 L 194.66666666666669 279 L 219.20000000000002 279 L 243.73333333333335 279 L 268.26666666666665 279 L 292.8 279.83235544045647 L 317.33333333333337 279 L 341.8666666666667 279 L 366.40000000000003 281.78594262129246 L 390.93333333333334 279 L 415.4666666666667 279 L 440 279.19584833893094 L 464.53333333333336 400 L 489.0666666666667 313.5525431958888 L 513.6 366.22595395136165 L 538.1333333333334 299.55917937927404 L 562.6666666666667 339.4387973940841 L 587.2 285.6637397321248 L 611.7333333333333 279 L 636.2666666666667 279.4357625541213 L 660.8000000000001 280.1065431149597 L 685.3333333333334 302.8151580140007 L 709.8666666666667 279 L 734.4000000000001 279.2203293812973 L 758.9333333333334 279 L 783.4666666666667 279.55816776595316 L 808 279.2888762999231" fill="none" stroke="#cf222e" stroke-width="2"/><text x="72" y="426" fill="#8b949e" font-size="10" font-family="'Segoe UI', sans-serif" text-anchor="middle">Mar 20</text><text x="194.66666666666669" y="426" fill="#8b949e" font-size="10" font-family="'Segoe UI', sans-serif" text-anchor="middle">Mar 25</text><text x="317.33333333333337" y="426" fill="#8b949e" font-size="10" font-family="'Segoe UI', sans-serif" text-anchor="middle">Mar 30</text><text x="440" y="426" fill="#8b949e" font-size="10" font-family="'Segoe UI', sans-serif" text-anchor="middle">Apr 4</text><text x="562.6666666666667" y="426" fill="#8b949e" font-size="10" font-family="'Segoe UI', sans-serif" text-anchor="middle">Apr 9</text><text x="685.3333333333334" y="426" fill="#8b949e" font-size="10" font-family="'Segoe UI', sans-serif" text-anchor="middle">Apr 14</text><text x="808" y="426" fill="#8b949e" font-size="10" font-family="'Segoe UI', sans-serif" text-anchor="middle">Apr 19</text>
  </g>

  <!-- Legend -->
  <g class="cpd-legend">
    <circle cx="30" cy="442" r="5" fill="#1a7f37"/>
    <text x="40" y="446" fill="#656d76" font-size="11" font-family="'Segoe UI', sans-serif">Additions</text>
    <circle cx="124" cy="442" r="5" fill="#cf222e"/>
    <text x="134" y="446" fill="#656d76" font-size="11" font-family="'Segoe UI', sans-serif">Deletions</text>
    <text x="816" y="446" fill="#8b949e" font-size="10" font-family="'Segoe UI', sans-serif" text-anchor="end">Last 31 days · +6,470,853 / -1,743,752 lines</text>
  </g>

  <!-- Get your own -->
  <a href="https://github.com/mpge/code-per-day" target="_blank">
    <text x="420" y="452" fill="#8b949e" font-size="10" font-family="'Segoe UI', sans-serif" text-anchor="middle" opacity="0.6">Get your own — github.com/mpge/code-per-day</text>
  </a>
</svg>