<svg width="840" height="460" viewBox="0 0 840 460" xmlns="http://www.w3.org/2000/svg">
  
    <style>
      @keyframes fadeInUp {
        from { opacity: 0; transform: translateY(12px); }
        to   { opacity: 1; transform: translateY(0); }
      }
      @keyframes growBar {
        from { transform: scaleY(0); }
        to   { transform: scaleY(1); }
      }
      .cpd-header  { animation: fadeInUp 0.5s ease both; }
      .cpd-stats   { animation: fadeInUp 0.5s ease 0.15s both; }
      .cpd-chart   { animation: fadeInUp 0.5s ease 0.3s both; }
      .cpd-legend  { animation: fadeInUp 0.5s ease 0.45s both; }
    </style>

  <rect width="840" height="460" rx="12" fill="#1a1b26" stroke="#414868" stroke-width="1"/>

  <g class="cpd-header">
    <a href="https://github.com/mpge/code-per-day" target="_blank">
      <text x="24" y="44" fill="#c0caf5" font-size="18" font-family="'Segoe UI', sans-serif" font-weight="700">Code Per Day</text>
    </a>
    <text x="816" y="44" fill="#565f89" font-size="13" font-family="'Segoe UI', sans-serif" text-anchor="end" font-weight="500">@mpge</text>
  </g>

  <g class="cpd-stats">
    
    <rect x="24" y="60" width="190" height="68" rx="8" fill="#16161e" stroke="#414868" stroke-width="1"/>
    <text x="119" y="78" fill="#565f89" font-size="11" font-family="'Segoe UI', sans-serif" text-anchor="middle" font-weight="500">Today</text>
    <text x="119" y="100" fill="#9ece6a" font-size="16" font-family="'Segoe UI Mono', 'Cascadia Code', monospace" text-anchor="middle" font-weight="700">+0</text>
    <text x="119" y="118" fill="#f7768e" font-size="14" font-family="'Segoe UI Mono', 'Cascadia Code', monospace" text-anchor="middle" font-weight="600">+0</text>
    <rect x="222" y="60" width="190" height="68" rx="8" fill="#16161e" stroke="#414868" stroke-width="1"/>
    <text x="317" y="78" fill="#565f89" font-size="11" font-family="'Segoe UI', sans-serif" text-anchor="middle" font-weight="500">30d Avg</text>
    <text x="317" y="100" fill="#9ece6a" font-size="16" font-family="'Segoe UI Mono', 'Cascadia Code', monospace" text-anchor="middle" font-weight="700">+19,968</text>
    <text x="317" y="118" fill="#f7768e" font-size="14" font-family="'Segoe UI Mono', 'Cascadia Code', monospace" text-anchor="middle" font-weight="600">-7,761</text>
    <rect x="420" y="60" width="190" height="68" rx="8" fill="#16161e" stroke="#414868" stroke-width="1"/>
    <text x="515" y="78" fill="#565f89" font-size="11" font-family="'Segoe UI', sans-serif" text-anchor="middle" font-weight="500">Year Avg</text>
    <text x="515" y="100" fill="#9ece6a" font-size="16" font-family="'Segoe UI Mono', 'Cascadia Code', monospace" text-anchor="middle" font-weight="700">+25,480</text>
    <text x="515" y="118" fill="#f7768e" font-size="14" font-family="'Segoe UI Mono', 'Cascadia Code', monospace" text-anchor="middle" font-weight="600">-7,075</text>
    <rect x="618" y="60" width="190" height="68" rx="8" fill="#16161e" stroke="#414868" stroke-width="1"/>
    <text x="713" y="78" fill="#565f89" font-size="11" font-family="'Segoe UI', sans-serif" text-anchor="middle" font-weight="500">Streak</text>
    <text x="713" y="104" fill="#7aa2f7" font-size="20" font-family="'Segoe UI Mono', 'Cascadia Code', monospace" text-anchor="middle" font-weight="700">190</text>
    <text x="713" y="120" fill="#565f89" font-size="11" font-family="'Segoe UI', sans-serif" text-anchor="middle">days</text>
  </g>

  <g class="cpd-chart">
    <line x1="72" y1="148" x2="808" y2="148" stroke="#292e42" stroke-width="1" stroke-dasharray="4,4"/><line x1="72" y1="213.5" x2="808" y2="213.5" stroke="#292e42" stroke-width="1" stroke-dasharray="4,4"/><line x1="72" y1="279" x2="808" y2="279" stroke="#292e42" stroke-width="1" stroke-dasharray="4,4"/><line x1="72" y1="344.5" x2="808" y2="344.5" stroke="#292e42" stroke-width="1" stroke-dasharray="4,4"/><line x1="72" y1="410" x2="808" y2="410" stroke="#292e42" stroke-width="1" stroke-dasharray="4,4"/><line x1="72" y1="279" x2="808" y2="279" stroke="#414868" stroke-width="1.5"/><text x="64" y="162" fill="#565f89" font-size="10" font-family="'Segoe UI', sans-serif" text-anchor="end">+43,604</text><text x="64" y="406" fill="#565f89" font-size="10" font-family="'Segoe UI', sans-serif" text-anchor="end">-43,604</text><text x="64" y="283" fill="#565f89" font-size="10" font-family="'Segoe UI', sans-serif" text-anchor="end">0</text><path d="M 72 279 L 72 227.82946518668012 L 96.53333333333333 158 L 121.06666666666666 275.38420787083754 L 145.60000000000002 245.81962663975781 L 170.13333333333333 237.15893037336025 L 194.66666666666669 269.5123612512613 L 219.20000000000002 254.82164480322905 L 243.73333333333335 267.73360242179615 L 268.26666666666665 265.6273965691221 L 292.8 277.6902119071645 L 317.33333333333337 173.33173562058528 L 341.8666666666667 158 L 366.40000000000003 158 L 390.93333333333334 217.8284561049445 L 415.4666666666667 277.3572149344097 L 440 265.8715943491423 L 464.53333333333336 243.74394550958627 L 489.0666666666667 242.28153380423814 L 513.6 265.89379414732593 L 538.1333333333334 267.27850655903126 L 562.6666666666667 269.4013622603431 L 587.2 220.85595358224015 L 611.7333333333333 246.6659939455096 L 636.2666666666667 254.70787083753785 L 660.8000000000001 163.27800201816348 L 685.3333333333334 227.6712916246216 L 709.8666666666667 158 L 734.4000000000001 223.87790110998992 L 758.9333333333334 260.92936427850657 L 783.4666666666667 239.69803229061554 L 808 279 L 808 279 Z" fill="#9ece6a" opacity="0.15"/><path d="M 72 279 L 72 227.82946518668012 L 96.53333333333333 158 L 121.06666666666666 275.38420787083754 L 145.60000000000002 245.81962663975781 L 170.13333333333333 237.15893037336025 L 194.66666666666669 269.5123612512613 L 219.20000000000002 254.82164480322905 L 243.73333333333335 267.73360242179615 L 268.26666666666665 265.6273965691221 L 292.8 277.6902119071645 L 317.33333333333337 173.33173562058528 L 341.8666666666667 158 L 366.40000000000003 158 L 390.93333333333334 217.8284561049445 L 415.4666666666667 277.3572149344097 L 440 265.8715943491423 L 464.53333333333336 243.74394550958627 L 489.0666666666667 242.28153380423814 L 513.6 265.89379414732593 L 538.1333333333334 267.27850655903126 L 562.6666666666667 269.4013622603431 L 587.2 220.85595358224015 L 611.7333333333333 246.6659939455096 L 636.2666666666667 254.70787083753785 L 660.8000000000001 163.27800201816348 L 685.3333333333334 227.6712916246216 L 709.8666666666667 158 L 734.4000000000001 223.87790110998992 L 758.9333333333334 260.92936427850657 L 783.4666666666667 239.69803229061554 L 808 279" fill="none" stroke="#9ece6a" stroke-width="2"/><path d="M 72 279 L 72 291.8869828456105 L 96.53333333333333 379.1627144298688 L 121.06666666666666 280.4318869828456 L 145.60000000000002 282.01362260343086 L 170.13333333333333 286.67558022199796 L 194.66666666666669 279.26639757820385 L 219.20000000000002 288.22401614530776 L 243.73333333333335 281.6806256306761 L 268.26666666666665 280.470736629667 L 292.8 279.2691725529768 L 317.33333333333337 282.61856710393545 L 341.8666666666667 286.3342583249243 L 366.40000000000003 400 L 390.93333333333334 303.172805247225 L 415.4666666666667 280.087790110999 L 440 289.106458123108 L 464.53333333333336 294.0986377396569 L 489.0666666666667 289.93895055499496 L 513.6 281.3726034308779 L 538.1333333333334 282.77674066599394 L 562.6666666666667 283.6175580221998 L 587.2 291.8037336024218 L 611.7333333333333 293.44929364278505 L 636.2666666666667 280.984106962664 L 660.8000000000001 316.6120080726539 L 685.3333333333334 400 L 709.8666666666667 363.69778002018165 L 734.4000000000001 294.10418768920283 L 758.9333333333334 281.7943995963673 L 783.4666666666667 284.59989909182644 L 808 279 L 808 279 Z" fill="#f7768e" opacity="0.15"/><path d="M 72 279 L 72 291.8869828456105 L 96.53333333333333 379.1627144298688 L 121.06666666666666 280.4318869828456 L 145.60000000000002 282.01362260343086 L 170.13333333333333 286.67558022199796 L 194.66666666666669 279.26639757820385 L 219.20000000000002 288.22401614530776 L 243.73333333333335 281.6806256306761 L 268.26666666666665 280.470736629667 L 292.8 279.2691725529768 L 317.33333333333337 282.61856710393545 L 341.8666666666667 286.3342583249243 L 366.40000000000003 400 L 390.93333333333334 303.172805247225 L 415.4666666666667 280.087790110999 L 440 289.106458123108 L 464.53333333333336 294.0986377396569 L 489.0666666666667 289.93895055499496 L 513.6 281.3726034308779 L 538.1333333333334 282.77674066599394 L 562.6666666666667 283.6175580221998 L 587.2 291.8037336024218 L 611.7333333333333 293.44929364278505 L 636.2666666666667 280.984106962664 L 660.8000000000001 316.6120080726539 L 685.3333333333334 400 L 709.8666666666667 363.69778002018165 L 734.4000000000001 294.10418768920283 L 758.9333333333334 281.7943995963673 L 783.4666666666667 284.59989909182644 L 808 279" fill="none" stroke="#f7768e" stroke-width="2"/><text x="72" y="426" fill="#565f89" font-size="10" font-family="'Segoe UI', sans-serif" text-anchor="middle">May 7</text><text x="194.66666666666669" y="426" fill="#565f89" font-size="10" font-family="'Segoe UI', sans-serif" text-anchor="middle">May 12</text><text x="317.33333333333337" y="426" fill="#565f89" font-size="10" font-family="'Segoe UI', sans-serif" text-anchor="middle">May 17</text><text x="440" y="426" fill="#565f89" font-size="10" font-family="'Segoe UI', sans-serif" text-anchor="middle">May 22</text><text x="562.6666666666667" y="426" fill="#565f89" font-size="10" font-family="'Segoe UI', sans-serif" text-anchor="middle">May 27</text><text x="685.3333333333334" y="426" fill="#565f89" font-size="10" font-family="'Segoe UI', sans-serif" text-anchor="middle">Jun 1</text><text x="808" y="426" fill="#565f89" font-size="10" font-family="'Segoe UI', sans-serif" text-anchor="middle">Jun 6</text>
  </g>

  <g class="cpd-legend">
    
    <circle cx="30" cy="442" r="5" fill="#9ece6a"/>
    <text x="40" y="446" fill="#a9b1d6" font-size="11" font-family="'Segoe UI', sans-serif">Additions</text>
    <circle cx="124" cy="442" r="5" fill="#f7768e"/>
    <text x="134" y="446" fill="#a9b1d6" font-size="11" font-family="'Segoe UI', sans-serif">Deletions</text>
    <text x="816" y="446" fill="#565f89" font-size="10" font-family="'Segoe UI', sans-serif" text-anchor="end">Last 31 days · +619,008 / -240,578 lines</text>
  </g>

  <a href="https://github.com/mpge/code-per-day" target="_blank">
    <text x="420" y="452" fill="#565f89" font-size="10" font-family="'Segoe UI', sans-serif" text-anchor="middle" opacity="0.6">Get your own - github.com/mpge/code-per-day</text>
  </a>
</svg>