<svg width="840" height="460" viewBox="0 0 840 460" xmlns="http://www.w3.org/2000/svg">
  
    <style>
      @keyframes fadeInUp {
        from { opacity: 0; transform: translateY(12px); }
        to   { opacity: 1; transform: translateY(0); }
      }
      @keyframes growBar {
        from { transform: scaleY(0); }
        to   { transform: scaleY(1); }
      }
      .cpd-header  { animation: fadeInUp 0.5s ease both; }
      .cpd-stats   { animation: fadeInUp 0.5s ease 0.15s both; }
      .cpd-chart   { animation: fadeInUp 0.5s ease 0.3s both; }
      .cpd-legend  { animation: fadeInUp 0.5s ease 0.45s both; }
    </style>

  <rect width="840" height="460" rx="12" fill="#2e3440" stroke="#4c566a" stroke-width="1"/>

  <g class="cpd-header">
    <a href="https://github.com/mpge/code-per-day" target="_blank">
      <text x="24" y="44" fill="#eceff4" font-size="18" font-family="'Segoe UI', sans-serif" font-weight="700">Code Per Day</text>
    </a>
    <text x="816" y="44" fill="#81a1c1" font-size="13" font-family="'Segoe UI', sans-serif" text-anchor="end" font-weight="500">@mpge</text>
  </g>

  <g class="cpd-stats">
    
    <rect x="24" y="60" width="190" height="68" rx="8" fill="#2e3440" stroke="#4c566a" stroke-width="1"/>
    <text x="119" y="78" fill="#81a1c1" font-size="11" font-family="'Segoe UI', sans-serif" text-anchor="middle" font-weight="500">Today</text>
    <text x="119" y="100" fill="#a3be8c" font-size="16" font-family="'Segoe UI Mono', 'Cascadia Code', monospace" text-anchor="middle" font-weight="700">+17</text>
    <text x="119" y="118" fill="#bf616a" font-size="14" font-family="'Segoe UI Mono', 'Cascadia Code', monospace" text-anchor="middle" font-weight="600">-10</text>
    <rect x="222" y="60" width="190" height="68" rx="8" fill="#2e3440" stroke="#4c566a" stroke-width="1"/>
    <text x="317" y="78" fill="#81a1c1" font-size="11" font-family="'Segoe UI', sans-serif" text-anchor="middle" font-weight="500">30d Avg</text>
    <text x="317" y="100" fill="#a3be8c" font-size="16" font-family="'Segoe UI Mono', 'Cascadia Code', monospace" text-anchor="middle" font-weight="700">+40,236</text>
    <text x="317" y="118" fill="#bf616a" font-size="14" font-family="'Segoe UI Mono', 'Cascadia Code', monospace" text-anchor="middle" font-weight="600">-4,834</text>
    <rect x="420" y="60" width="190" height="68" rx="8" fill="#2e3440" stroke="#4c566a" stroke-width="1"/>
    <text x="515" y="78" fill="#81a1c1" font-size="11" font-family="'Segoe UI', sans-serif" text-anchor="middle" font-weight="500">Year Avg</text>
    <text x="515" y="100" fill="#a3be8c" font-size="16" font-family="'Segoe UI Mono', 'Cascadia Code', monospace" text-anchor="middle" font-weight="700">+24,965</text>
    <text x="515" y="118" fill="#bf616a" font-size="14" font-family="'Segoe UI Mono', 'Cascadia Code', monospace" text-anchor="middle" font-weight="600">-6,754</text>
    <rect x="618" y="60" width="190" height="68" rx="8" fill="#2e3440" stroke="#4c566a" stroke-width="1"/>
    <text x="713" y="78" fill="#81a1c1" font-size="11" font-family="'Segoe UI', sans-serif" text-anchor="middle" font-weight="500">Streak</text>
    <text x="713" y="104" fill="#88c0d0" font-size="20" font-family="'Segoe UI Mono', 'Cascadia Code', monospace" text-anchor="middle" font-weight="700">174</text>
    <text x="713" y="120" fill="#81a1c1" font-size="11" font-family="'Segoe UI', sans-serif" text-anchor="middle">days</text>
  </g>

  <g class="cpd-chart">
    <line x1="72" y1="148" x2="808" y2="148" stroke="#434c5e" stroke-width="1" stroke-dasharray="4,4"/><line x1="72" y1="213.5" x2="808" y2="213.5" stroke="#434c5e" stroke-width="1" stroke-dasharray="4,4"/><line x1="72" y1="279" x2="808" y2="279" stroke="#434c5e" stroke-width="1" stroke-dasharray="4,4"/><line x1="72" y1="344.5" x2="808" y2="344.5" stroke="#434c5e" stroke-width="1" stroke-dasharray="4,4"/><line x1="72" y1="410" x2="808" y2="410" stroke="#434c5e" stroke-width="1" stroke-dasharray="4,4"/><line x1="72" y1="279" x2="808" y2="279" stroke="#4c566a" stroke-width="1.5"/><text x="64" y="162" fill="#81a1c1" font-size="10" font-family="'Segoe UI', sans-serif" text-anchor="end">+33,104</text><text x="64" y="406" fill="#81a1c1" font-size="10" font-family="'Segoe UI', sans-serif" text-anchor="end">-33,104</text><text x="64" y="283" fill="#81a1c1" font-size="10" font-family="'Segoe UI', sans-serif" text-anchor="end">0</text><path d="M 72 279 L 72 262.02915055582406 L 96.53333333333333 278.98172426292894 L 121.06666666666666 184.20009666505558 L 145.60000000000002 158 L 170.13333333333333 270.8746072982117 L 194.66666666666669 178.1398622522958 L 219.20000000000002 158 L 243.73333333333335 237.39711213146447 L 268.26666666666665 269.69764983083616 L 292.8 228.21903697438376 L 317.33333333333337 247.4816638472692 L 341.8666666666667 158 L 366.40000000000003 256.66704929917836 L 390.93333333333334 266.6858083615273 L 415.4666666666667 196.85056186563557 L 440 249.41158168197197 L 464.53333333333336 211.59908168197197 L 489.0666666666667 158 L 513.6 274.2373429192847 L 538.1333333333334 235.29540236829385 L 562.6666666666667 223.88768728854518 L 587.2 266.5030509908168 L 611.7333333333333 247.15270057999032 L 636.2666666666667 264.16010149830834 L 660.8000000000001 261.38584461092313 L 685.3333333333334 277.274770420493 L 709.8666666666667 158 L 734.4000000000001 158 L 758.9333333333334 158 L 783.4666666666667 192.47900555824071 L 808 278.93786249395845 L 808 279 Z" fill="#a3be8c" opacity="0.15"/><path d="M 72 279 L 72 262.02915055582406 L 96.53333333333333 278.98172426292894 L 121.06666666666666 184.20009666505558 L 145.60000000000002 158 L 170.13333333333333 270.8746072982117 L 194.66666666666669 178.1398622522958 L 219.20000000000002 158 L 243.73333333333335 237.39711213146447 L 268.26666666666665 269.69764983083616 L 292.8 228.21903697438376 L 317.33333333333337 247.4816638472692 L 341.8666666666667 158 L 366.40000000000003 256.66704929917836 L 390.93333333333334 266.6858083615273 L 415.4666666666667 196.85056186563557 L 440 249.41158168197197 L 464.53333333333336 211.59908168197197 L 489.0666666666667 158 L 513.6 274.2373429192847 L 538.1333333333334 235.29540236829385 L 562.6666666666667 223.88768728854518 L 587.2 266.5030509908168 L 611.7333333333333 247.15270057999032 L 636.2666666666667 264.16010149830834 L 660.8000000000001 261.38584461092313 L 685.3333333333334 277.274770420493 L 709.8666666666667 158 L 734.4000000000001 158 L 758.9333333333334 158 L 783.4666666666667 192.47900555824071 L 808 278.93786249395845" fill="none" stroke="#a3be8c" stroke-width="2"/><path d="M 72 279 L 72 279.226619139681 L 96.53333333333333 279 L 121.06666666666666 281.01764137264377 L 145.60000000000002 297.0381524891252 L 170.13333333333333 279.3033772353794 L 194.66666666666669 283.53969308844853 L 219.20000000000002 282.23480546157566 L 243.73333333333335 298.3137989366844 L 268.26666666666665 280.97743475108746 L 292.8 296.0256766553891 L 317.33333333333337 284.8592013049782 L 341.8666666666667 308.82234775253744 L 366.40000000000003 289.4171701304978 L 390.93333333333334 283.66031295311745 L 415.4666666666667 285.75471242145966 L 440 281.8473598356694 L 464.53333333333336 295.9745045915901 L 489.0666666666667 400 L 513.6 280.88605606573225 L 538.1333333333334 282.9694900918318 L 562.6666666666667 289.1101377477042 L 587.2 279.3508941517641 L 611.7333333333333 291.14971000483325 L 636.2666666666667 282.53087240212665 L 660.8000000000001 280.93722812953115 L 685.3333333333334 279.35454929917836 L 709.8666666666667 283.76631222812955 L 734.4000000000001 288.6605546157564 L 758.9333333333334 400 L 783.4666666666667 310.85095456742386 L 808 279.0365514741421 L 808 279 Z" fill="#bf616a" opacity="0.15"/><path d="M 72 279 L 72 279.226619139681 L 96.53333333333333 279 L 121.06666666666666 281.01764137264377 L 145.60000000000002 297.0381524891252 L 170.13333333333333 279.3033772353794 L 194.66666666666669 283.53969308844853 L 219.20000000000002 282.23480546157566 L 243.73333333333335 298.3137989366844 L 268.26666666666665 280.97743475108746 L 292.8 296.0256766553891 L 317.33333333333337 284.8592013049782 L 341.8666666666667 308.82234775253744 L 366.40000000000003 289.4171701304978 L 390.93333333333334 283.66031295311745 L 415.4666666666667 285.75471242145966 L 440 281.8473598356694 L 464.53333333333336 295.9745045915901 L 489.0666666666667 400 L 513.6 280.88605606573225 L 538.1333333333334 282.9694900918318 L 562.6666666666667 289.1101377477042 L 587.2 279.3508941517641 L 611.7333333333333 291.14971000483325 L 636.2666666666667 282.53087240212665 L 660.8000000000001 280.93722812953115 L 685.3333333333334 279.35454929917836 L 709.8666666666667 283.76631222812955 L 734.4000000000001 288.6605546157564 L 758.9333333333334 400 L 783.4666666666667 310.85095456742386 L 808 279.0365514741421" fill="none" stroke="#bf616a" stroke-width="2"/><text x="72" y="426" fill="#81a1c1" font-size="10" font-family="'Segoe UI', sans-serif" text-anchor="middle">Apr 21</text><text x="194.66666666666669" y="426" fill="#81a1c1" font-size="10" font-family="'Segoe UI', sans-serif" text-anchor="middle">Apr 26</text><text x="317.33333333333337" y="426" fill="#81a1c1" font-size="10" font-family="'Segoe UI', sans-serif" text-anchor="middle">May 1</text><text x="440" y="426" fill="#81a1c1" font-size="10" font-family="'Segoe UI', sans-serif" text-anchor="middle">May 6</text><text x="562.6666666666667" y="426" fill="#81a1c1" font-size="10" font-family="'Segoe UI', sans-serif" text-anchor="middle">May 11</text><text x="685.3333333333334" y="426" fill="#81a1c1" font-size="10" font-family="'Segoe UI', sans-serif" text-anchor="middle">May 16</text><text x="808" y="426" fill="#81a1c1" font-size="10" font-family="'Segoe UI', sans-serif" text-anchor="middle">May 21</text>
  </g>

  <g class="cpd-legend">
    
    <circle cx="30" cy="442" r="5" fill="#a3be8c"/>
    <text x="40" y="446" fill="#d8dee9" font-size="11" font-family="'Segoe UI', sans-serif">Additions</text>
    <circle cx="124" cy="442" r="5" fill="#bf616a"/>
    <text x="134" y="446" fill="#d8dee9" font-size="11" font-family="'Segoe UI', sans-serif">Deletions</text>
    <text x="816" y="446" fill="#81a1c1" font-size="10" font-family="'Segoe UI', sans-serif" text-anchor="end">Last 31 days · +1,247,316 / -149,849 lines</text>
  </g>

  <a href="https://github.com/mpge/code-per-day" target="_blank">
    <text x="420" y="452" fill="#81a1c1" font-size="10" font-family="'Segoe UI', sans-serif" text-anchor="middle" opacity="0.6">Get your own - github.com/mpge/code-per-day</text>
  </a>
</svg>