<svg width="840" height="460" viewBox="0 0 840 460" xmlns="http://www.w3.org/2000/svg">
  
    <style>
      @keyframes fadeInUp {
        from { opacity: 0; transform: translateY(12px); }
        to   { opacity: 1; transform: translateY(0); }
      }
      @keyframes growBar {
        from { transform: scaleY(0); }
        to   { transform: scaleY(1); }
      }
      .cpd-header  { animation: fadeInUp 0.5s ease both; }
      .cpd-stats   { animation: fadeInUp 0.5s ease 0.15s both; }
      .cpd-chart   { animation: fadeInUp 0.5s ease 0.3s both; }
      .cpd-legend  { animation: fadeInUp 0.5s ease 0.45s both; }
    </style>

  <rect width="840" height="460" rx="12" fill="#020024" stroke="#1a1a5e" stroke-width="1"/>

  <g class="cpd-header">
    <a href="https://github.com/mpge/code-per-day" target="_blank">
      <text x="24" y="44" fill="#e0e0ff" font-size="18" font-family="'Segoe UI', sans-serif" font-weight="700">Code Per Day</text>
    </a>
    <text x="816" y="44" fill="#6060a0" font-size="13" font-family="'Segoe UI', sans-serif" text-anchor="end" font-weight="500">@mpge</text>
  </g>

  <g class="cpd-stats">
    
    <rect x="24" y="60" width="190" height="68" rx="8" fill="#010018" stroke="#1a1a5e" stroke-width="1"/>
    <text x="119" y="78" fill="#6060a0" font-size="11" font-family="'Segoe UI', sans-serif" text-anchor="middle" font-weight="500">Today</text>
    <text x="119" y="100" fill="#00d4aa" font-size="16" font-family="'Segoe UI Mono', 'Cascadia Code', monospace" text-anchor="middle" font-weight="700">+0</text>
    <text x="119" y="118" fill="#ff4477" font-size="14" font-family="'Segoe UI Mono', 'Cascadia Code', monospace" text-anchor="middle" font-weight="600">+0</text>
    <rect x="222" y="60" width="190" height="68" rx="8" fill="#010018" stroke="#1a1a5e" stroke-width="1"/>
    <text x="317" y="78" fill="#6060a0" font-size="11" font-family="'Segoe UI', sans-serif" text-anchor="middle" font-weight="500">30d Avg</text>
    <text x="317" y="100" fill="#00d4aa" font-size="16" font-family="'Segoe UI Mono', 'Cascadia Code', monospace" text-anchor="middle" font-weight="700">+33,653</text>
    <text x="317" y="118" fill="#ff4477" font-size="14" font-family="'Segoe UI Mono', 'Cascadia Code', monospace" text-anchor="middle" font-weight="600">-2,875</text>
    <rect x="420" y="60" width="190" height="68" rx="8" fill="#010018" stroke="#1a1a5e" stroke-width="1"/>
    <text x="515" y="78" fill="#6060a0" font-size="11" font-family="'Segoe UI', sans-serif" text-anchor="middle" font-weight="500">Year Avg</text>
    <text x="515" y="100" fill="#00d4aa" font-size="16" font-family="'Segoe UI Mono', 'Cascadia Code', monospace" text-anchor="middle" font-weight="700">+24,466</text>
    <text x="515" y="118" fill="#ff4477" font-size="14" font-family="'Segoe UI Mono', 'Cascadia Code', monospace" text-anchor="middle" font-weight="600">-6,598</text>
    <rect x="618" y="60" width="190" height="68" rx="8" fill="#010018" stroke="#1a1a5e" stroke-width="1"/>
    <text x="713" y="78" fill="#6060a0" font-size="11" font-family="'Segoe UI', sans-serif" text-anchor="middle" font-weight="500">Streak</text>
    <text x="713" y="104" fill="#4488ff" font-size="20" font-family="'Segoe UI Mono', 'Cascadia Code', monospace" text-anchor="middle" font-weight="700">171</text>
    <text x="713" y="120" fill="#6060a0" font-size="11" font-family="'Segoe UI', sans-serif" text-anchor="middle">days</text>
  </g>

  <g class="cpd-chart">
    <line x1="72" y1="148" x2="808" y2="148" stroke="#101050" stroke-width="1" stroke-dasharray="4,4"/><line x1="72" y1="213.5" x2="808" y2="213.5" stroke="#101050" stroke-width="1" stroke-dasharray="4,4"/><line x1="72" y1="279" x2="808" y2="279" stroke="#101050" stroke-width="1" stroke-dasharray="4,4"/><line x1="72" y1="344.5" x2="808" y2="344.5" stroke="#101050" stroke-width="1" stroke-dasharray="4,4"/><line x1="72" y1="410" x2="808" y2="410" stroke="#101050" stroke-width="1" stroke-dasharray="4,4"/><line x1="72" y1="279" x2="808" y2="279" stroke="#1a1a5e" stroke-width="1.5"/><text x="64" y="162" fill="#6060a0" font-size="10" font-family="'Segoe UI', sans-serif" text-anchor="end">+27,006</text><text x="64" y="406" fill="#6060a0" font-size="10" font-family="'Segoe UI', sans-serif" text-anchor="end">-27,006</text><text x="64" y="283" fill="#6060a0" font-size="10" font-family="'Segoe UI', sans-serif" text-anchor="end">0</text><path d="M 72 279 L 72 255.92101755165518 L 96.53333333333333 214.25697993038585 L 121.06666666666666 247.46186032733468 L 145.60000000000002 258.1971043471821 L 170.13333333333333 278.9775975709102 L 194.66666666666669 162.79411982522402 L 219.20000000000002 158 L 243.73333333333335 269.03988002666074 L 268.26666666666665 158 L 292.8 158 L 317.33333333333337 228.00311041990668 L 341.8666666666667 267.5971635932756 L 366.40000000000003 216.7526105309931 L 390.93333333333334 240.36477079167594 L 415.4666666666667 158 L 440 251.62423165222543 L 464.53333333333336 263.90524327927125 L 489.0666666666667 178.30108124120565 L 513.6 242.73046730356216 L 538.1333333333334 196.3798415167 L 562.6666666666667 158 L 587.2 273.1619269791898 L 611.7333333333333 225.426831074576 L 636.2666666666667 211.44323483670294 L 660.8000000000001 263.68121898837296 L 685.3333333333334 239.96152706805896 L 709.8666666666667 260.8092275790565 L 734.4000000000001 257.40853884322 L 758.9333333333334 276.8852106939199 L 783.4666666666667 158 L 808 279 L 808 279 Z" fill="#00d4aa" opacity="0.15"/><path d="M 72 279 L 72 255.92101755165518 L 96.53333333333333 214.25697993038585 L 121.06666666666666 247.46186032733468 L 145.60000000000002 258.1971043471821 L 170.13333333333333 278.9775975709102 L 194.66666666666669 162.79411982522402 L 219.20000000000002 158 L 243.73333333333335 269.03988002666074 L 268.26666666666665 158 L 292.8 158 L 317.33333333333337 228.00311041990668 L 341.8666666666667 267.5971635932756 L 366.40000000000003 216.7526105309931 L 390.93333333333334 240.36477079167594 L 415.4666666666667 158 L 440 251.62423165222543 L 464.53333333333336 263.90524327927125 L 489.0666666666667 178.30108124120565 L 513.6 242.73046730356216 L 538.1333333333334 196.3798415167 L 562.6666666666667 158 L 587.2 273.1619269791898 L 611.7333333333333 225.426831074576 L 636.2666666666667 211.44323483670294 L 660.8000000000001 263.68121898837296 L 685.3333333333334 239.96152706805896 L 709.8666666666667 260.8092275790565 L 734.4000000000001 257.40853884322 L 758.9333333333334 276.8852106939199 L 783.4666666666667 158 L 808 279" fill="none" stroke="#00d4aa" stroke-width="2"/><path d="M 72 279 L 72 279.5107753832482 L 96.53333333333333 282.69640079982224 L 121.06666666666666 287.93856920684294 L 145.60000000000002 279.2777901207139 L 170.13333333333333 279 L 194.66666666666669 281.47322817151746 L 219.20000000000002 301.11119751166405 L 243.73333333333335 279.37188032289123 L 268.26666666666665 284.56476338591426 L 292.8 282.96522994890023 L 317.33333333333337 302.67488706213436 L 341.8666666666667 281.4239428275198 L 366.40000000000003 299.8701029400874 L 390.93333333333334 286.1822187662001 L 415.4666666666667 315.5562837887877 L 440 291.7693845812042 L 464.53333333333336 284.71261941790715 L 489.0666666666667 287.27993779160187 L 513.6 282.4902984521958 L 538.1333333333334 299.80737613863585 L 562.6666666666667 400 L 587.2 281.3119306820706 L 611.7333333333333 283.8658075983115 L 636.2666666666667 291.393023772495 L 660.8000000000001 279.43012663852477 L 685.3333333333334 293.89313485892023 L 709.8666666666667 283.32814930015553 L 734.4000000000001 281.3746574835222 L 758.9333333333334 279.43460712434273 L 783.4666666666667 284.8425535066282 L 808 279 L 808 279 Z" fill="#ff4477" opacity="0.15"/><path d="M 72 279 L 72 279.5107753832482 L 96.53333333333333 282.69640079982224 L 121.06666666666666 287.93856920684294 L 145.60000000000002 279.2777901207139 L 170.13333333333333 279 L 194.66666666666669 281.47322817151746 L 219.20000000000002 301.11119751166405 L 243.73333333333335 279.37188032289123 L 268.26666666666665 284.56476338591426 L 292.8 282.96522994890023 L 317.33333333333337 302.67488706213436 L 341.8666666666667 281.4239428275198 L 366.40000000000003 299.8701029400874 L 390.93333333333334 286.1822187662001 L 415.4666666666667 315.5562837887877 L 440 291.7693845812042 L 464.53333333333336 284.71261941790715 L 489.0666666666667 287.27993779160187 L 513.6 282.4902984521958 L 538.1333333333334 299.80737613863585 L 562.6666666666667 400 L 587.2 281.3119306820706 L 611.7333333333333 283.8658075983115 L 636.2666666666667 291.393023772495 L 660.8000000000001 279.43012663852477 L 685.3333333333334 293.89313485892023 L 709.8666666666667 283.32814930015553 L 734.4000000000001 281.3746574835222 L 758.9333333333334 279.43460712434273 L 783.4666666666667 284.8425535066282 L 808 279" fill="none" stroke="#ff4477" stroke-width="2"/><text x="72" y="426" fill="#6060a0" font-size="10" font-family="'Segoe UI', sans-serif" text-anchor="middle">Apr 18</text><text x="194.66666666666669" y="426" fill="#6060a0" font-size="10" font-family="'Segoe UI', sans-serif" text-anchor="middle">Apr 23</text><text x="317.33333333333337" y="426" fill="#6060a0" font-size="10" font-family="'Segoe UI', sans-serif" text-anchor="middle">Apr 28</text><text x="440" y="426" fill="#6060a0" font-size="10" font-family="'Segoe UI', sans-serif" text-anchor="middle">May 3</text><text x="562.6666666666667" y="426" fill="#6060a0" font-size="10" font-family="'Segoe UI', sans-serif" text-anchor="middle">May 8</text><text x="685.3333333333334" y="426" fill="#6060a0" font-size="10" font-family="'Segoe UI', sans-serif" text-anchor="middle">May 13</text><text x="808" y="426" fill="#6060a0" font-size="10" font-family="'Segoe UI', sans-serif" text-anchor="middle">May 18</text>
  </g>

  <g class="cpd-legend">
    
    <circle cx="30" cy="442" r="5" fill="#00d4aa"/>
    <text x="40" y="446" fill="#a0a0d0" font-size="11" font-family="'Segoe UI', sans-serif">Additions</text>
    <circle cx="124" cy="442" r="5" fill="#ff4477"/>
    <text x="134" y="446" fill="#a0a0d0" font-size="11" font-family="'Segoe UI', sans-serif">Deletions</text>
    <text x="816" y="446" fill="#6060a0" font-size="10" font-family="'Segoe UI', sans-serif" text-anchor="end">Last 31 days · +1,043,255 / -89,114 lines</text>
  </g>

  <a href="https://github.com/mpge/code-per-day" target="_blank">
    <text x="420" y="452" fill="#6060a0" font-size="10" font-family="'Segoe UI', sans-serif" text-anchor="middle" opacity="0.6">Get your own - github.com/mpge/code-per-day</text>
  </a>
</svg>