<svg width="840" height="460" viewBox="0 0 840 460" xmlns="http://www.w3.org/2000/svg">
  
    <style>
      @keyframes fadeInUp {
        from { opacity: 0; transform: translateY(12px); }
        to   { opacity: 1; transform: translateY(0); }
      }
      @keyframes growBar {
        from { transform: scaleY(0); }
        to   { transform: scaleY(1); }
      }
      .cpd-header  { animation: fadeInUp 0.5s ease both; }
      .cpd-stats   { animation: fadeInUp 0.5s ease 0.15s both; }
      .cpd-chart   { animation: fadeInUp 0.5s ease 0.3s both; }
      .cpd-legend  { animation: fadeInUp 0.5s ease 0.45s both; }
    </style>

  <rect width="840" height="460" rx="12" fill="#0d1117" stroke="#30363d" stroke-width="1"/>

  <g class="cpd-header">
    <a href="https://github.com/mpge/code-per-day" target="_blank">
      <text x="24" y="44" fill="#e6edf3" font-size="18" font-family="'Segoe UI', sans-serif" font-weight="700">Code Per Day</text>
    </a>
    <text x="816" y="44" fill="#6e7681" font-size="13" font-family="'Segoe UI', sans-serif" text-anchor="end" font-weight="500">@mpge</text>
  </g>

  <g class="cpd-stats">
    
    <rect x="24" y="60" width="190" height="68" rx="8" fill="#0d1117" stroke="#30363d" stroke-width="1"/>
    <text x="119" y="78" fill="#6e7681" font-size="11" font-family="'Segoe UI', sans-serif" text-anchor="middle" font-weight="500">Today</text>
    <text x="119" y="100" fill="#3fb950" font-size="16" font-family="'Segoe UI Mono', 'Cascadia Code', monospace" text-anchor="middle" font-weight="700">+2,014</text>
    <text x="119" y="118" fill="#f85149" font-size="14" font-family="'Segoe UI Mono', 'Cascadia Code', monospace" text-anchor="middle" font-weight="600">-132</text>
    <rect x="222" y="60" width="190" height="68" rx="8" fill="#0d1117" stroke="#30363d" stroke-width="1"/>
    <text x="317" y="78" fill="#6e7681" font-size="11" font-family="'Segoe UI', sans-serif" text-anchor="middle" font-weight="500">30d Avg</text>
    <text x="317" y="100" fill="#3fb950" font-size="16" font-family="'Segoe UI Mono', 'Cascadia Code', monospace" text-anchor="middle" font-weight="700">+178,166</text>
    <text x="317" y="118" fill="#f85149" font-size="14" font-family="'Segoe UI Mono', 'Cascadia Code', monospace" text-anchor="middle" font-weight="600">-2,666</text>
    <rect x="420" y="60" width="190" height="68" rx="8" fill="#0d1117" stroke="#30363d" stroke-width="1"/>
    <text x="515" y="78" fill="#6e7681" font-size="11" font-family="'Segoe UI', sans-serif" text-anchor="middle" font-weight="500">Year Avg</text>
    <text x="515" y="100" fill="#3fb950" font-size="16" font-family="'Segoe UI Mono', 'Cascadia Code', monospace" text-anchor="middle" font-weight="700">+24,043</text>
    <text x="515" y="118" fill="#f85149" font-size="14" font-family="'Segoe UI Mono', 'Cascadia Code', monospace" text-anchor="middle" font-weight="600">-6,458</text>
    <rect x="618" y="60" width="190" height="68" rx="8" fill="#0d1117" stroke="#30363d" stroke-width="1"/>
    <text x="713" y="78" fill="#6e7681" font-size="11" font-family="'Segoe UI', sans-serif" text-anchor="middle" font-weight="500">Streak</text>
    <text x="713" y="104" fill="#58a6ff" font-size="20" font-family="'Segoe UI Mono', 'Cascadia Code', monospace" text-anchor="middle" font-weight="700">160</text>
    <text x="713" y="120" fill="#6e7681" font-size="11" font-family="'Segoe UI', sans-serif" text-anchor="middle">days</text>
  </g>

  <g class="cpd-chart">
    <line x1="72" y1="148" x2="808" y2="148" stroke="#21262d" stroke-width="1" stroke-dasharray="4,4"/><line x1="72" y1="213.5" x2="808" y2="213.5" stroke="#21262d" stroke-width="1" stroke-dasharray="4,4"/><line x1="72" y1="279" x2="808" y2="279" stroke="#21262d" stroke-width="1" stroke-dasharray="4,4"/><line x1="72" y1="344.5" x2="808" y2="344.5" stroke="#21262d" stroke-width="1" stroke-dasharray="4,4"/><line x1="72" y1="410" x2="808" y2="410" stroke="#21262d" stroke-width="1" stroke-dasharray="4,4"/><line x1="72" y1="279" x2="808" y2="279" stroke="#30363d" stroke-width="1.5"/><text x="64" y="162" fill="#6e7681" font-size="10" font-family="'Segoe UI', sans-serif" text-anchor="end">+29,514</text><text x="64" y="406" fill="#6e7681" font-size="10" font-family="'Segoe UI', sans-serif" text-anchor="end">-29,514</text><text x="64" y="283" fill="#6e7681" font-size="10" font-family="'Segoe UI', sans-serif" text-anchor="end">0</text><path d="M 72 279 L 72 158 L 96.53333333333333 158 L 121.06666666666666 158 L 145.60000000000002 226.93728400081318 L 170.13333333333333 252.2122382598089 L 194.66666666666669 158 L 219.20000000000002 246.69807548959815 L 243.73333333333335 278.80321203496646 L 268.26666666666665 279 L 292.8 278.7827132886088 L 317.33333333333337 279 L 341.8666666666667 257.8821915023379 L 366.40000000000003 219.75862302636037 L 390.93333333333334 250.14186487768518 L 415.4666666666667 259.9648641322762 L 440 278.97950125364235 L 464.53333333333336 172.66890289354205 L 489.0666666666667 158 L 513.6 269.886257369384 L 538.1333333333334 165.87151860134173 L 562.6666666666667 158 L 587.2 232.336653791421 L 611.7333333333333 268.56613810395066 L 636.2666666666667 222.04218337060377 L 660.8000000000001 243.64786203157823 L 685.3333333333334 158 L 709.8666666666667 253.95053195093854 L 734.4000000000001 265.1879447042082 L 758.9333333333334 186.85813512231482 L 783.4666666666667 245.8125296469472 L 808 270.74310496713423 L 808 279 Z" fill="#3fb950" opacity="0.15"/><path d="M 72 279 L 72 158 L 96.53333333333333 158 L 121.06666666666666 158 L 145.60000000000002 226.93728400081318 L 170.13333333333333 252.2122382598089 L 194.66666666666669 158 L 219.20000000000002 246.69807548959815 L 243.73333333333335 278.80321203496646 L 268.26666666666665 279 L 292.8 278.7827132886088 L 317.33333333333337 279 L 341.8666666666667 257.8821915023379 L 366.40000000000003 219.75862302636037 L 390.93333333333334 250.14186487768518 L 415.4666666666667 259.9648641322762 L 440 278.97950125364235 L 464.53333333333336 172.66890289354205 L 489.0666666666667 158 L 513.6 269.886257369384 L 538.1333333333334 165.87151860134173 L 562.6666666666667 158 L 587.2 232.336653791421 L 611.7333333333333 268.56613810395066 L 636.2666666666667 222.04218337060377 L 660.8000000000001 243.64786203157823 L 685.3333333333334 158 L 709.8666666666667 253.95053195093854 L 734.4000000000001 265.1879447042082 L 758.9333333333334 186.85813512231482 L 783.4666666666667 245.8125296469472 L 808 270.74310496713423" fill="none" stroke="#3fb950" stroke-width="2"/><path d="M 72 279 L 72 352.828284881751 L 96.53333333333333 296.2148471911635 L 121.06666666666666 329.70159924103814 L 145.60000000000002 287.5069797384292 L 170.13333333333333 287.3347902690249 L 194.66666666666669 282.83736531815407 L 219.20000000000002 280.20532628583044 L 243.73333333333335 298.9411804567324 L 268.26666666666665 279 L 292.8 279.1844887172189 L 317.33333333333337 279 L 341.8666666666667 279.4673714169547 L 366.40000000000003 282.382293149014 L 390.93333333333334 287.17899979670665 L 415.4666666666667 279.254184454835 L 440 279 L 464.53333333333336 281.2630615978857 L 489.0666666666667 299.2322626550112 L 513.6 279.34027918953717 L 538.1333333333334 284.09188859524295 L 562.6666666666667 282.628278105306 L 587.2 300.6630751507759 L 611.7333333333333 281.2179643558989 L 636.2666666666667 298.0966321067968 L 660.8000000000001 285.57189808226605 L 685.3333333333334 312.44985430643084 L 709.8666666666667 290.68428542386664 L 734.4000000000001 284.2271803212035 L 758.9333333333334 286.57633665379143 L 783.4666666666667 282.19370468252356 L 808 279.5411669038422 L 808 279 Z" fill="#f85149" opacity="0.15"/><path d="M 72 279 L 72 352.828284881751 L 96.53333333333333 296.2148471911635 L 121.06666666666666 329.70159924103814 L 145.60000000000002 287.5069797384292 L 170.13333333333333 287.3347902690249 L 194.66666666666669 282.83736531815407 L 219.20000000000002 280.20532628583044 L 243.73333333333335 298.9411804567324 L 268.26666666666665 279 L 292.8 279.1844887172189 L 317.33333333333337 279 L 341.8666666666667 279.4673714169547 L 366.40000000000003 282.382293149014 L 390.93333333333334 287.17899979670665 L 415.4666666666667 279.254184454835 L 440 279 L 464.53333333333336 281.2630615978857 L 489.0666666666667 299.2322626550112 L 513.6 279.34027918953717 L 538.1333333333334 284.09188859524295 L 562.6666666666667 282.628278105306 L 587.2 300.6630751507759 L 611.7333333333333 281.2179643558989 L 636.2666666666667 298.0966321067968 L 660.8000000000001 285.57189808226605 L 685.3333333333334 312.44985430643084 L 709.8666666666667 290.68428542386664 L 734.4000000000001 284.2271803212035 L 758.9333333333334 286.57633665379143 L 783.4666666666667 282.19370468252356 L 808 279.5411669038422" fill="none" stroke="#f85149" stroke-width="2"/><text x="72" y="426" fill="#6e7681" font-size="10" font-family="'Segoe UI', sans-serif" text-anchor="middle">Apr 7</text><text x="194.66666666666669" y="426" fill="#6e7681" font-size="10" font-family="'Segoe UI', sans-serif" text-anchor="middle">Apr 12</text><text x="317.33333333333337" y="426" fill="#6e7681" font-size="10" font-family="'Segoe UI', sans-serif" text-anchor="middle">Apr 17</text><text x="440" y="426" fill="#6e7681" font-size="10" font-family="'Segoe UI', sans-serif" text-anchor="middle">Apr 22</text><text x="562.6666666666667" y="426" fill="#6e7681" font-size="10" font-family="'Segoe UI', sans-serif" text-anchor="middle">Apr 27</text><text x="685.3333333333334" y="426" fill="#6e7681" font-size="10" font-family="'Segoe UI', sans-serif" text-anchor="middle">May 2</text><text x="808" y="426" fill="#6e7681" font-size="10" font-family="'Segoe UI', sans-serif" text-anchor="middle">May 7</text>
  </g>

  <g class="cpd-legend">
    
    <circle cx="30" cy="442" r="5" fill="#3fb950"/>
    <text x="40" y="446" fill="#8b949e" font-size="11" font-family="'Segoe UI', sans-serif">Additions</text>
    <circle cx="124" cy="442" r="5" fill="#f85149"/>
    <text x="134" y="446" fill="#8b949e" font-size="11" font-family="'Segoe UI', sans-serif">Deletions</text>
    <text x="816" y="446" fill="#6e7681" font-size="10" font-family="'Segoe UI', sans-serif" text-anchor="end">Last 31 days · +5,523,141 / -82,643 lines</text>
  </g>

  <a href="https://github.com/mpge/code-per-day" target="_blank">
    <text x="420" y="452" fill="#6e7681" font-size="10" font-family="'Segoe UI', sans-serif" text-anchor="middle" opacity="0.6">Get your own - github.com/mpge/code-per-day</text>
  </a>
</svg>