<svg width="840" height="460" viewBox="0 0 840 460" xmlns="http://www.w3.org/2000/svg">
  
    <style>
      @keyframes fadeInUp {
        from { opacity: 0; transform: translateY(12px); }
        to   { opacity: 1; transform: translateY(0); }
      }
      @keyframes growBar {
        from { transform: scaleY(0); }
        to   { transform: scaleY(1); }
      }
      .cpd-header  { animation: fadeInUp 0.5s ease both; }
      .cpd-stats   { animation: fadeInUp 0.5s ease 0.15s both; }
      .cpd-chart   { animation: fadeInUp 0.5s ease 0.3s both; }
      .cpd-legend  { animation: fadeInUp 0.5s ease 0.45s both; }
    </style>

  <rect width="840" height="460" rx="12" fill="#0b1929" stroke="#1d3461" stroke-width="1"/>

  <g class="cpd-header">
    <a href="https://github.com/mpge/code-per-day" target="_blank">
      <text x="24" y="44" fill="#ccd6f6" font-size="18" font-family="'Segoe UI', sans-serif" font-weight="700">Code Per Day</text>
    </a>
    <text x="816" y="44" fill="#495670" font-size="13" font-family="'Segoe UI', sans-serif" text-anchor="end" font-weight="500">@mpge</text>
  </g>

  <g class="cpd-stats">
    
    <rect x="24" y="60" width="190" height="68" rx="8" fill="#0a1628" stroke="#1d3461" stroke-width="1"/>
    <text x="119" y="78" fill="#495670" font-size="11" font-family="'Segoe UI', sans-serif" text-anchor="middle" font-weight="500">Today</text>
    <text x="119" y="100" fill="#64ffda" font-size="16" font-family="'Segoe UI Mono', 'Cascadia Code', monospace" text-anchor="middle" font-weight="700">+192</text>
    <text x="119" y="118" fill="#ff6b6b" font-size="14" font-family="'Segoe UI Mono', 'Cascadia Code', monospace" text-anchor="middle" font-weight="600">-60</text>
    <rect x="222" y="60" width="190" height="68" rx="8" fill="#0a1628" stroke="#1d3461" stroke-width="1"/>
    <text x="317" y="78" fill="#495670" font-size="11" font-family="'Segoe UI', sans-serif" text-anchor="middle" font-weight="500">30d Avg</text>
    <text x="317" y="100" fill="#64ffda" font-size="16" font-family="'Segoe UI Mono', 'Cascadia Code', monospace" text-anchor="middle" font-weight="700">+19,974</text>
    <text x="317" y="118" fill="#ff6b6b" font-size="14" font-family="'Segoe UI Mono', 'Cascadia Code', monospace" text-anchor="middle" font-weight="600">-7,763</text>
    <rect x="420" y="60" width="190" height="68" rx="8" fill="#0a1628" stroke="#1d3461" stroke-width="1"/>
    <text x="515" y="78" fill="#495670" font-size="11" font-family="'Segoe UI', sans-serif" text-anchor="middle" font-weight="500">Year Avg</text>
    <text x="515" y="100" fill="#64ffda" font-size="16" font-family="'Segoe UI Mono', 'Cascadia Code', monospace" text-anchor="middle" font-weight="700">+25,480</text>
    <text x="515" y="118" fill="#ff6b6b" font-size="14" font-family="'Segoe UI Mono', 'Cascadia Code', monospace" text-anchor="middle" font-weight="600">-7,075</text>
    <rect x="618" y="60" width="190" height="68" rx="8" fill="#0a1628" stroke="#1d3461" stroke-width="1"/>
    <text x="713" y="78" fill="#495670" font-size="11" font-family="'Segoe UI', sans-serif" text-anchor="middle" font-weight="500">Streak</text>
    <text x="713" y="104" fill="#64ffda" font-size="20" font-family="'Segoe UI Mono', 'Cascadia Code', monospace" text-anchor="middle" font-weight="700">191</text>
    <text x="713" y="120" fill="#495670" font-size="11" font-family="'Segoe UI', sans-serif" text-anchor="middle">days</text>
  </g>

  <g class="cpd-chart">
    <line x1="72" y1="148" x2="808" y2="148" stroke="#152a4a" stroke-width="1" stroke-dasharray="4,4"/><line x1="72" y1="213.5" x2="808" y2="213.5" stroke="#152a4a" stroke-width="1" stroke-dasharray="4,4"/><line x1="72" y1="279" x2="808" y2="279" stroke="#152a4a" stroke-width="1" stroke-dasharray="4,4"/><line x1="72" y1="344.5" x2="808" y2="344.5" stroke="#152a4a" stroke-width="1" stroke-dasharray="4,4"/><line x1="72" y1="410" x2="808" y2="410" stroke="#152a4a" stroke-width="1" stroke-dasharray="4,4"/><line x1="72" y1="279" x2="808" y2="279" stroke="#1d3461" stroke-width="1.5"/><text x="64" y="162" fill="#495670" font-size="10" font-family="'Segoe UI', sans-serif" text-anchor="end">+35,739</text><text x="64" y="406" fill="#495670" font-size="10" font-family="'Segoe UI', sans-serif" text-anchor="end">-35,739</text><text x="64" y="283" fill="#495670" font-size="10" font-family="'Segoe UI', sans-serif" text-anchor="end">0</text><path d="M 72 279 L 72 216.56848261003387 L 96.53333333333333 158 L 121.06666666666666 274.58848876577406 L 145.60000000000002 238.5176977531548 L 170.13333333333333 227.95106186518927 L 194.66666666666669 267.4244382887042 L 219.20000000000002 249.50076946752847 L 243.73333333333335 265.2542320714066 L 268.26666666666665 262.6845183133272 L 292.8 277.40196983687287 L 317.33333333333337 158 L 341.8666666666667 158 L 366.40000000000003 158 L 390.93333333333334 204.36657433056325 L 415.4666666666667 276.99569098184054 L 440 262.9824561403509 L 464.53333333333336 235.98522622345337 L 489.0666666666667 234.20098491843646 L 513.6 263.009541397353 L 538.1333333333334 264.6989843028624 L 562.6666666666667 267.2890120036934 L 587.2 208.06032625423205 L 611.7333333333333 239.55032317636196 L 636.2666666666667 249.36195752539243 L 660.8000000000001 158 L 685.3333333333334 216.3755001538935 L 709.8666666666667 158 L 734.4000000000001 211.74730686365035 L 758.9333333333334 256.9526008002462 L 783.4666666666667 231.04893813481073 L 808 278.3499538319483 L 808 279 Z" fill="#64ffda" opacity="0.15"/><path d="M 72 279 L 72 216.56848261003387 L 96.53333333333333 158 L 121.06666666666666 274.58848876577406 L 145.60000000000002 238.5176977531548 L 170.13333333333333 227.95106186518927 L 194.66666666666669 267.4244382887042 L 219.20000000000002 249.50076946752847 L 243.73333333333335 265.2542320714066 L 268.26666666666665 262.6845183133272 L 292.8 277.40196983687287 L 317.33333333333337 158 L 341.8666666666667 158 L 366.40000000000003 158 L 390.93333333333334 204.36657433056325 L 415.4666666666667 276.99569098184054 L 440 262.9824561403509 L 464.53333333333336 235.98522622345337 L 489.0666666666667 234.20098491843646 L 513.6 263.009541397353 L 538.1333333333334 264.6989843028624 L 562.6666666666667 267.2890120036934 L 587.2 208.06032625423205 L 611.7333333333333 239.55032317636196 L 636.2666666666667 249.36195752539243 L 660.8000000000001 158 L 685.3333333333334 216.3755001538935 L 709.8666666666667 158 L 734.4000000000001 211.74730686365035 L 758.9333333333334 256.9526008002462 L 783.4666666666667 231.04893813481073 L 808 278.3499538319483" fill="none" stroke="#64ffda" stroke-width="2"/><path d="M 72 279 L 72 294.7229916897507 L 96.53333333333333 400 L 121.06666666666666 280.746999076639 L 145.60000000000002 282.6768236380425 L 170.13333333333333 288.36472760849495 L 194.66666666666669 279.3250230840259 L 219.20000000000002 290.2539242843952 L 243.73333333333335 282.27054478301017 L 268.26666666666665 280.7943982763927 L 292.8 279.3284087411511 L 317.33333333333337 283.4148968913512 L 341.8666666666667 287.9482917820868 L 366.40000000000003 400 L 390.93333333333334 308.492459218221 L 415.4666666666667 280.32717759310555 L 440 291.33056325023085 L 464.53333333333336 297.4213604185903 L 489.0666666666667 292.34626038781164 L 513.6 281.89473684210526 L 538.1333333333334 283.6078793474915 L 562.6666666666667 284.6337334564481 L 587.2 294.62142197599263 L 611.7333333333333 296.62911665127734 L 636.2666666666667 281.42074484456754 L 660.8000000000001 324.8891966759003 L 685.3333333333334 400 L 709.8666666666667 382.33702677747 L 734.4000000000001 297.4281317328409 L 758.9333333333334 282.4093567251462 L 783.4666666666667 285.8322560787935 L 808 279.20313942751613 L 808 279 Z" fill="#ff6b6b" opacity="0.15"/><path d="M 72 279 L 72 294.7229916897507 L 96.53333333333333 400 L 121.06666666666666 280.746999076639 L 145.60000000000002 282.6768236380425 L 170.13333333333333 288.36472760849495 L 194.66666666666669 279.3250230840259 L 219.20000000000002 290.2539242843952 L 243.73333333333335 282.27054478301017 L 268.26666666666665 280.7943982763927 L 292.8 279.3284087411511 L 317.33333333333337 283.4148968913512 L 341.8666666666667 287.9482917820868 L 366.40000000000003 400 L 390.93333333333334 308.492459218221 L 415.4666666666667 280.32717759310555 L 440 291.33056325023085 L 464.53333333333336 297.4213604185903 L 489.0666666666667 292.34626038781164 L 513.6 281.89473684210526 L 538.1333333333334 283.6078793474915 L 562.6666666666667 284.6337334564481 L 587.2 294.62142197599263 L 611.7333333333333 296.62911665127734 L 636.2666666666667 281.42074484456754 L 660.8000000000001 324.8891966759003 L 685.3333333333334 400 L 709.8666666666667 382.33702677747 L 734.4000000000001 297.4281317328409 L 758.9333333333334 282.4093567251462 L 783.4666666666667 285.8322560787935 L 808 279.20313942751613" fill="none" stroke="#ff6b6b" stroke-width="2"/><text x="72" y="426" fill="#495670" font-size="10" font-family="'Segoe UI', sans-serif" text-anchor="middle">May 7</text><text x="194.66666666666669" y="426" fill="#495670" font-size="10" font-family="'Segoe UI', sans-serif" text-anchor="middle">May 12</text><text x="317.33333333333337" y="426" fill="#495670" font-size="10" font-family="'Segoe UI', sans-serif" text-anchor="middle">May 17</text><text x="440" y="426" fill="#495670" font-size="10" font-family="'Segoe UI', sans-serif" text-anchor="middle">May 22</text><text x="562.6666666666667" y="426" fill="#495670" font-size="10" font-family="'Segoe UI', sans-serif" text-anchor="middle">May 27</text><text x="685.3333333333334" y="426" fill="#495670" font-size="10" font-family="'Segoe UI', sans-serif" text-anchor="middle">Jun 1</text><text x="808" y="426" fill="#495670" font-size="10" font-family="'Segoe UI', sans-serif" text-anchor="middle">Jun 6</text>
  </g>

  <g class="cpd-legend">
    
    <circle cx="30" cy="442" r="5" fill="#64ffda"/>
    <text x="40" y="446" fill="#8892b0" font-size="11" font-family="'Segoe UI', sans-serif">Additions</text>
    <circle cx="124" cy="442" r="5" fill="#ff6b6b"/>
    <text x="134" y="446" fill="#8892b0" font-size="11" font-family="'Segoe UI', sans-serif">Deletions</text>
    <text x="816" y="446" fill="#495670" font-size="10" font-family="'Segoe UI', sans-serif" text-anchor="end">Last 31 days · +619,200 / -240,638 lines</text>
  </g>

  <a href="https://github.com/mpge/code-per-day" target="_blank">
    <text x="420" y="452" fill="#495670" font-size="10" font-family="'Segoe UI', sans-serif" text-anchor="middle" opacity="0.6">Get your own - github.com/mpge/code-per-day</text>
  </a>
</svg>