<svg width="840" height="460" viewBox="0 0 840 460" xmlns="http://www.w3.org/2000/svg">
  
    <style>
      @keyframes fadeInUp {
        from { opacity: 0; transform: translateY(12px); }
        to   { opacity: 1; transform: translateY(0); }
      }
      @keyframes growBar {
        from { transform: scaleY(0); }
        to   { transform: scaleY(1); }
      }
      .cpd-header  { animation: fadeInUp 0.5s ease both; }
      .cpd-stats   { animation: fadeInUp 0.5s ease 0.15s both; }
      .cpd-chart   { animation: fadeInUp 0.5s ease 0.3s both; }
      .cpd-legend  { animation: fadeInUp 0.5s ease 0.45s both; }
    </style>

  <rect width="840" height="460" rx="12" fill="#0b1929" stroke="#1d3461" stroke-width="1"/>

  <g class="cpd-header">
    <a href="https://github.com/mpge/code-per-day" target="_blank">
      <text x="24" y="44" fill="#ccd6f6" font-size="18" font-family="'Segoe UI', sans-serif" font-weight="700">Code Per Day</text>
    </a>
    <text x="816" y="44" fill="#495670" font-size="13" font-family="'Segoe UI', sans-serif" text-anchor="end" font-weight="500">@mpge</text>
  </g>

  <g class="cpd-stats">
    
    <rect x="24" y="60" width="190" height="68" rx="8" fill="#0a1628" stroke="#1d3461" stroke-width="1"/>
    <text x="119" y="78" fill="#495670" font-size="11" font-family="'Segoe UI', sans-serif" text-anchor="middle" font-weight="500">Today</text>
    <text x="119" y="100" fill="#64ffda" font-size="16" font-family="'Segoe UI Mono', 'Cascadia Code', monospace" text-anchor="middle" font-weight="700">+0</text>
    <text x="119" y="118" fill="#ff6b6b" font-size="14" font-family="'Segoe UI Mono', 'Cascadia Code', monospace" text-anchor="middle" font-weight="600">+0</text>
    <rect x="222" y="60" width="190" height="68" rx="8" fill="#0a1628" stroke="#1d3461" stroke-width="1"/>
    <text x="317" y="78" fill="#495670" font-size="11" font-family="'Segoe UI', sans-serif" text-anchor="middle" font-weight="500">30d Avg</text>
    <text x="317" y="100" fill="#64ffda" font-size="16" font-family="'Segoe UI Mono', 'Cascadia Code', monospace" text-anchor="middle" font-weight="700">+8,913</text>
    <text x="317" y="118" fill="#ff6b6b" font-size="14" font-family="'Segoe UI Mono', 'Cascadia Code', monospace" text-anchor="middle" font-weight="600">-1,309</text>
    <rect x="420" y="60" width="190" height="68" rx="8" fill="#0a1628" stroke="#1d3461" stroke-width="1"/>
    <text x="515" y="78" fill="#495670" font-size="11" font-family="'Segoe UI', sans-serif" text-anchor="middle" font-weight="500">Year Avg</text>
    <text x="515" y="100" fill="#64ffda" font-size="16" font-family="'Segoe UI Mono', 'Cascadia Code', monospace" text-anchor="middle" font-weight="700">+26,139</text>
    <text x="515" y="118" fill="#ff6b6b" font-size="14" font-family="'Segoe UI Mono', 'Cascadia Code', monospace" text-anchor="middle" font-weight="600">-7,171</text>
    <rect x="618" y="60" width="190" height="68" rx="8" fill="#0a1628" stroke="#1d3461" stroke-width="1"/>
    <text x="713" y="78" fill="#495670" font-size="11" font-family="'Segoe UI', sans-serif" text-anchor="middle" font-weight="500">Streak</text>
    <text x="713" y="104" fill="#64ffda" font-size="20" font-family="'Segoe UI Mono', 'Cascadia Code', monospace" text-anchor="middle" font-weight="700">228</text>
    <text x="713" y="120" fill="#495670" font-size="11" font-family="'Segoe UI', sans-serif" text-anchor="middle">days</text>
  </g>

  <g class="cpd-chart">
    <line x1="72" y1="148" x2="808" y2="148" stroke="#152a4a" stroke-width="1" stroke-dasharray="4,4"/><line x1="72" y1="213.5" x2="808" y2="213.5" stroke="#152a4a" stroke-width="1" stroke-dasharray="4,4"/><line x1="72" y1="279" x2="808" y2="279" stroke="#152a4a" stroke-width="1" stroke-dasharray="4,4"/><line x1="72" y1="344.5" x2="808" y2="344.5" stroke="#152a4a" stroke-width="1" stroke-dasharray="4,4"/><line x1="72" y1="410" x2="808" y2="410" stroke="#152a4a" stroke-width="1" stroke-dasharray="4,4"/><line x1="72" y1="279" x2="808" y2="279" stroke="#1d3461" stroke-width="1.5"/><text x="64" y="162" fill="#495670" font-size="10" font-family="'Segoe UI', sans-serif" text-anchor="end">+11,590</text><text x="64" y="406" fill="#495670" font-size="10" font-family="'Segoe UI', sans-serif" text-anchor="end">-11,590</text><text x="64" y="283" fill="#495670" font-size="10" font-family="'Segoe UI', sans-serif" text-anchor="end">0</text><path d="M 72 279 L 72 230.3076790336497 L 96.53333333333333 271.5040552200173 L 121.06666666666666 279 L 145.60000000000002 264.0811906816221 L 170.13333333333333 227.61415012942192 L 194.66666666666669 220.8281276962899 L 219.20000000000002 246.93865401207938 L 243.73333333333335 158 L 268.26666666666665 189.72726488352026 L 292.8 158 L 317.33333333333337 203.1949094046592 L 341.8666666666667 206.37911993097498 L 366.40000000000003 259.8216566005177 L 390.93333333333334 264.1855910267472 L 415.4666666666667 231.80060396893873 L 440 158 L 464.53333333333336 245.77981018119067 L 489.0666666666667 252.5867126833477 L 513.6 275.55478861087147 L 538.1333333333334 279 L 562.6666666666667 276.3064710957722 L 587.2 271.785936151855 L 611.7333333333333 279 L 636.2666666666667 265.0625539257981 L 660.8000000000001 259.3414150129422 L 685.3333333333334 279 L 709.8666666666667 279 L 734.4000000000001 167.33339085418464 L 758.9333333333334 210.77437446074202 L 783.4666666666667 272.4854184641933 L 808 279 L 808 279 Z" fill="#64ffda" opacity="0.15"/><path d="M 72 279 L 72 230.3076790336497 L 96.53333333333333 271.5040552200173 L 121.06666666666666 279 L 145.60000000000002 264.0811906816221 L 170.13333333333333 227.61415012942192 L 194.66666666666669 220.8281276962899 L 219.20000000000002 246.93865401207938 L 243.73333333333335 158 L 268.26666666666665 189.72726488352026 L 292.8 158 L 317.33333333333337 203.1949094046592 L 341.8666666666667 206.37911993097498 L 366.40000000000003 259.8216566005177 L 390.93333333333334 264.1855910267472 L 415.4666666666667 231.80060396893873 L 440 158 L 464.53333333333336 245.77981018119067 L 489.0666666666667 252.5867126833477 L 513.6 275.55478861087147 L 538.1333333333334 279 L 562.6666666666667 276.3064710957722 L 587.2 271.785936151855 L 611.7333333333333 279 L 636.2666666666667 265.0625539257981 L 660.8000000000001 259.3414150129422 L 685.3333333333334 279 L 709.8666666666667 279 L 734.4000000000001 167.33339085418464 L 758.9333333333334 210.77437446074202 L 783.4666666666667 272.4854184641933 L 808 279" fill="none" stroke="#64ffda" stroke-width="2"/><path d="M 72 279 L 72 326.3664365832614 L 96.53333333333333 279.3132010353753 L 121.06666666666666 279 L 145.60000000000002 282.69577221742884 L 170.13333333333333 284.4079378774806 L 194.66666666666669 289.11639344262295 L 219.20000000000002 280.1588438308887 L 243.73333333333335 337.9235547886109 L 268.26666666666665 288.33339085418464 L 292.8 307.0106125970664 L 317.33333333333337 290.77635893011217 L 341.8666666666667 279.70992234685076 L 366.40000000000003 280.7539257981018 L 390.93333333333334 279.8978429680759 L 415.4666666666667 281.9754098360656 L 440 365.38084555651426 L 464.53333333333336 285.8904227782571 L 489.0666666666667 286.214063848145 L 513.6 279 L 538.1333333333334 279 L 562.6666666666667 280.5868852459016 L 587.2 280.50336496980157 L 611.7333333333333 279 L 636.2666666666667 283.97989646246765 L 660.8000000000001 298.33494391717 L 685.3333333333334 279 L 709.8666666666667 279 L 734.4000000000001 326.8466781708369 L 758.9333333333334 341.462726488352 L 783.4666666666667 281.860569456428 L 808 279 L 808 279 Z" fill="#ff6b6b" opacity="0.15"/><path d="M 72 279 L 72 326.3664365832614 L 96.53333333333333 279.3132010353753 L 121.06666666666666 279 L 145.60000000000002 282.69577221742884 L 170.13333333333333 284.4079378774806 L 194.66666666666669 289.11639344262295 L 219.20000000000002 280.1588438308887 L 243.73333333333335 337.9235547886109 L 268.26666666666665 288.33339085418464 L 292.8 307.0106125970664 L 317.33333333333337 290.77635893011217 L 341.8666666666667 279.70992234685076 L 366.40000000000003 280.7539257981018 L 390.93333333333334 279.8978429680759 L 415.4666666666667 281.9754098360656 L 440 365.38084555651426 L 464.53333333333336 285.8904227782571 L 489.0666666666667 286.214063848145 L 513.6 279 L 538.1333333333334 279 L 562.6666666666667 280.5868852459016 L 587.2 280.50336496980157 L 611.7333333333333 279 L 636.2666666666667 283.97989646246765 L 660.8000000000001 298.33494391717 L 685.3333333333334 279 L 709.8666666666667 279 L 734.4000000000001 326.8466781708369 L 758.9333333333334 341.462726488352 L 783.4666666666667 281.860569456428 L 808 279" fill="none" stroke="#ff6b6b" stroke-width="2"/><text x="72" y="426" fill="#495670" font-size="10" font-family="'Segoe UI', sans-serif" text-anchor="middle">Jun 14</text><text x="194.66666666666669" y="426" fill="#495670" font-size="10" font-family="'Segoe UI', sans-serif" text-anchor="middle">Jun 19</text><text x="317.33333333333337" y="426" fill="#495670" font-size="10" font-family="'Segoe UI', sans-serif" text-anchor="middle">Jun 24</text><text x="440" y="426" fill="#495670" font-size="10" font-family="'Segoe UI', sans-serif" text-anchor="middle">Jun 29</text><text x="562.6666666666667" y="426" fill="#495670" font-size="10" font-family="'Segoe UI', sans-serif" text-anchor="middle">Jul 4</text><text x="685.3333333333334" y="426" fill="#495670" font-size="10" font-family="'Segoe UI', sans-serif" text-anchor="middle">Jul 9</text><text x="808" y="426" fill="#495670" font-size="10" font-family="'Segoe UI', sans-serif" text-anchor="middle">Jul 14</text>
  </g>

  <g class="cpd-legend">
    
    <circle cx="30" cy="442" r="5" fill="#64ffda"/>
    <text x="40" y="446" fill="#8892b0" font-size="11" font-family="'Segoe UI', sans-serif">Additions</text>
    <circle cx="124" cy="442" r="5" fill="#ff6b6b"/>
    <text x="134" y="446" fill="#8892b0" font-size="11" font-family="'Segoe UI', sans-serif">Deletions</text>
    <text x="816" y="446" fill="#495670" font-size="10" font-family="'Segoe UI', sans-serif" text-anchor="end">Last 31 days · +276,300 / -40,565 lines</text>
  </g>

  <a href="https://github.com/mpge/code-per-day" target="_blank">
    <text x="420" y="452" fill="#495670" font-size="10" font-family="'Segoe UI', sans-serif" text-anchor="middle" opacity="0.6">Get your own - github.com/mpge/code-per-day</text>
  </a>
</svg>