<svg width="840" height="460" viewBox="0 0 840 460" xmlns="http://www.w3.org/2000/svg">
  
    <style>
      @keyframes fadeInUp {
        from { opacity: 0; transform: translateY(12px); }
        to   { opacity: 1; transform: translateY(0); }
      }
      @keyframes growBar {
        from { transform: scaleY(0); }
        to   { transform: scaleY(1); }
      }
      .cpd-header  { animation: fadeInUp 0.5s ease both; }
      .cpd-stats   { animation: fadeInUp 0.5s ease 0.15s both; }
      .cpd-chart   { animation: fadeInUp 0.5s ease 0.3s both; }
      .cpd-legend  { animation: fadeInUp 0.5s ease 0.45s both; }
    </style>

  <!-- Background -->
  <rect width="840" height="460" rx="12" fill="#0b1929" stroke="#1d3461" stroke-width="1"/>

  <!-- Header -->
  <g class="cpd-header">
    <a href="https://github.com/mpge/code-per-day" target="_blank">
      <text x="24" y="44" fill="#ccd6f6" font-size="18" font-family="'Segoe UI', sans-serif" font-weight="700">Code Per Day</text>
    </a>
    <text x="816" y="44" fill="#495670" font-size="13" font-family="'Segoe UI', sans-serif" text-anchor="end" font-weight="500">@mpge</text>
  </g>

  <!-- Stats Cards -->
  <g class="cpd-stats">
    
    <rect x="24" y="60" width="190" height="68" rx="8" fill="#0a1628" stroke="#1d3461" stroke-width="1"/>
    <text x="119" y="78" fill="#495670" font-size="11" font-family="'Segoe UI', sans-serif" text-anchor="middle" font-weight="500">Today</text>
    <text x="119" y="100" fill="#64ffda" font-size="16" font-family="'Segoe UI Mono', 'Cascadia Code', monospace" text-anchor="middle" font-weight="700">+0</text>
    <text x="119" y="118" fill="#ff6b6b" font-size="14" font-family="'Segoe UI Mono', 'Cascadia Code', monospace" text-anchor="middle" font-weight="600">+0</text>
    <rect x="222" y="60" width="190" height="68" rx="8" fill="#0a1628" stroke="#1d3461" stroke-width="1"/>
    <text x="317" y="78" fill="#495670" font-size="11" font-family="'Segoe UI', sans-serif" text-anchor="middle" font-weight="500">30d Avg</text>
    <text x="317" y="100" fill="#64ffda" font-size="16" font-family="'Segoe UI Mono', 'Cascadia Code', monospace" text-anchor="middle" font-weight="700">+86,157</text>
    <text x="317" y="118" fill="#ff6b6b" font-size="14" font-family="'Segoe UI Mono', 'Cascadia Code', monospace" text-anchor="middle" font-weight="600">-72,658</text>
    <rect x="420" y="60" width="190" height="68" rx="8" fill="#0a1628" stroke="#1d3461" stroke-width="1"/>
    <text x="515" y="78" fill="#495670" font-size="11" font-family="'Segoe UI', sans-serif" text-anchor="middle" font-weight="500">Year Avg</text>
    <text x="515" y="100" fill="#64ffda" font-size="16" font-family="'Segoe UI Mono', 'Cascadia Code', monospace" text-anchor="middle" font-weight="700">+8,831</text>
    <text x="515" y="118" fill="#ff6b6b" font-size="14" font-family="'Segoe UI Mono', 'Cascadia Code', monospace" text-anchor="middle" font-weight="600">-6,265</text>
        <rect x="618" y="60" width="190" height="68" rx="8" fill="#0a1628" stroke="#1d3461" stroke-width="1"/>
        <text x="713" y="78" fill="#495670" font-size="11" font-family="'Segoe UI', sans-serif" text-anchor="middle" font-weight="500">Streak</text>
        <text x="713" y="104" fill="#64ffda" font-size="20" font-family="'Segoe UI Mono', 'Cascadia Code', monospace" text-anchor="middle" font-weight="700">135</text>
        <text x="713" y="120" fill="#495670" font-size="11" font-family="'Segoe UI', sans-serif" text-anchor="middle">days</text>
  </g>

  <!-- Chart -->
  <g class="cpd-chart">
    <line x1="72" y1="148" x2="808" y2="148" stroke="#152a4a" stroke-width="1" stroke-dasharray="4,4"/><line x1="72" y1="213.5" x2="808" y2="213.5" stroke="#152a4a" stroke-width="1" stroke-dasharray="4,4"/><line x1="72" y1="279" x2="808" y2="279" stroke="#152a4a" stroke-width="1" stroke-dasharray="4,4"/><line x1="72" y1="344.5" x2="808" y2="344.5" stroke="#152a4a" stroke-width="1" stroke-dasharray="4,4"/><line x1="72" y1="410" x2="808" y2="410" stroke="#152a4a" stroke-width="1" stroke-dasharray="4,4"/><line x1="72" y1="279" x2="808" y2="279" stroke="#1d3461" stroke-width="1.5"/><text x="64" y="162" fill="#495670" font-size="10" font-family="'Segoe UI', sans-serif" text-anchor="end">+44,391</text><text x="64" y="406" fill="#495670" font-size="10" font-family="'Segoe UI', sans-serif" text-anchor="end">-44,391</text><text x="64" y="283" fill="#495670" font-size="10" font-family="'Segoe UI', sans-serif" text-anchor="end">0</text><path d="M 72 279 L 72 211.67601540852877 L 96.53333333333333 279 L 121.06666666666666 279 L 145.60000000000002 241.5614426347683 L 170.13333333333333 279 L 194.66666666666669 252.53814962492396 L 219.20000000000002 158 L 243.73333333333335 279 L 268.26666666666665 273.02236939920255 L 292.8 251.77765763330405 L 317.33333333333337 261.5877317474263 L 341.8666666666667 277.2636795746886 L 366.40000000000003 274.8186569349643 L 390.93333333333334 279 L 415.4666666666667 279 L 440 279 L 464.53333333333336 279 L 489.0666666666667 256.14707936293394 L 513.6 277.4299520173008 L 538.1333333333334 279 L 562.6666666666667 274.916784933883 L 587.2 279 L 611.7333333333333 279 L 636.2666666666667 229.65797121038048 L 660.8000000000001 158 L 685.3333333333334 158 L 709.8666666666667 176.95778423554324 L 734.4000000000001 158 L 758.9333333333334 158 L 783.4666666666667 261.6095379694082 L 808 279 L 808 279 Z" fill="#64ffda" opacity="0.15"/><path d="M 72 279 L 72 211.67601540852877 L 96.53333333333333 279 L 121.06666666666666 279 L 145.60000000000002 241.5614426347683 L 170.13333333333333 279 L 194.66666666666669 252.53814962492396 L 219.20000000000002 158 L 243.73333333333335 279 L 268.26666666666665 273.02236939920255 L 292.8 251.77765763330405 L 317.33333333333337 261.5877317474263 L 341.8666666666667 277.2636795746886 L 366.40000000000003 274.8186569349643 L 390.93333333333334 279 L 415.4666666666667 279 L 440 279 L 464.53333333333336 279 L 489.0666666666667 256.14707936293394 L 513.6 277.4299520173008 L 538.1333333333334 279 L 562.6666666666667 274.916784933883 L 587.2 279 L 611.7333333333333 279 L 636.2666666666667 229.65797121038048 L 660.8000000000001 158 L 685.3333333333334 158 L 709.8666666666667 176.95778423554324 L 734.4000000000001 158 L 758.9333333333334 158 L 783.4666666666667 261.6095379694082 L 808 279" fill="none" stroke="#64ffda" stroke-width="2"/><path d="M 72 279 L 72 280.6381924263927 L 96.53333333333333 279 L 121.06666666666666 279 L 145.60000000000002 279.37070577369286 L 170.13333333333333 279 L 194.66666666666669 279.0926764434232 L 219.20000000000002 400 L 243.73333333333335 279 L 268.26666666666665 279.00272577774774 L 292.8 281.65490752630035 L 317.33333333333337 279.5424297718006 L 341.8666666666667 279.0708702214413 L 366.40000000000003 279.2017075533329 L 390.93333333333334 279 L 415.4666666666667 279 L 440 279 L 464.53333333333336 279 L 489.0666666666667 279.4633822171161 L 513.6 279 L 538.1333333333334 279 L 562.6666666666667 280.550967538465 L 587.2 279 L 611.7333333333333 279 L 636.2666666666667 279.10903110990967 L 660.8000000000001 400 L 685.3333333333334 298.2358135658129 L 709.8666666666667 327.55973057601767 L 734.4000000000001 290.4455407627672 L 758.9333333333334 312.64700051812304 L 783.4666666666667 282.7097835146764 L 808 279 L 808 279 Z" fill="#ff6b6b" opacity="0.15"/><path d="M 72 279 L 72 280.6381924263927 L 96.53333333333333 279 L 121.06666666666666 279 L 145.60000000000002 279.37070577369286 L 170.13333333333333 279 L 194.66666666666669 279.0926764434232 L 219.20000000000002 400 L 243.73333333333335 279 L 268.26666666666665 279.00272577774774 L 292.8 281.65490752630035 L 317.33333333333337 279.5424297718006 L 341.8666666666667 279.0708702214413 L 366.40000000000003 279.2017075533329 L 390.93333333333334 279 L 415.4666666666667 279 L 440 279 L 464.53333333333336 279 L 489.0666666666667 279.4633822171161 L 513.6 279 L 538.1333333333334 279 L 562.6666666666667 280.550967538465 L 587.2 279 L 611.7333333333333 279 L 636.2666666666667 279.10903110990967 L 660.8000000000001 400 L 685.3333333333334 298.2358135658129 L 709.8666666666667 327.55973057601767 L 734.4000000000001 290.4455407627672 L 758.9333333333334 312.64700051812304 L 783.4666666666667 282.7097835146764 L 808 279" fill="none" stroke="#ff6b6b" stroke-width="2"/><text x="72" y="426" fill="#495670" font-size="10" font-family="'Segoe UI', sans-serif" text-anchor="middle">Mar 12</text><text x="194.66666666666669" y="426" fill="#495670" font-size="10" font-family="'Segoe UI', sans-serif" text-anchor="middle">Mar 17</text><text x="317.33333333333337" y="426" fill="#495670" font-size="10" font-family="'Segoe UI', sans-serif" text-anchor="middle">Mar 22</text><text x="440" y="426" fill="#495670" font-size="10" font-family="'Segoe UI', sans-serif" text-anchor="middle">Mar 27</text><text x="562.6666666666667" y="426" fill="#495670" font-size="10" font-family="'Segoe UI', sans-serif" text-anchor="middle">Apr 1</text><text x="685.3333333333334" y="426" fill="#495670" font-size="10" font-family="'Segoe UI', sans-serif" text-anchor="middle">Apr 6</text><text x="808" y="426" fill="#495670" font-size="10" font-family="'Segoe UI', sans-serif" text-anchor="middle">Apr 11</text>
  </g>

  <!-- Legend -->
  <g class="cpd-legend">
    <circle cx="30" cy="442" r="5" fill="#64ffda"/>
    <text x="40" y="446" fill="#8892b0" font-size="11" font-family="'Segoe UI', sans-serif">Additions</text>
    <circle cx="124" cy="442" r="5" fill="#ff6b6b"/>
    <text x="134" y="446" fill="#8892b0" font-size="11" font-family="'Segoe UI', sans-serif">Deletions</text>
    <text x="816" y="446" fill="#495670" font-size="10" font-family="'Segoe UI', sans-serif" text-anchor="end">Last 31 days · +2,670,881 / -2,252,392 lines</text>
  </g>

  <!-- Get your own -->
  <a href="https://github.com/mpge/code-per-day" target="_blank">
    <text x="420" y="452" fill="#495670" font-size="10" font-family="'Segoe UI', sans-serif" text-anchor="middle" opacity="0.6">Get your own — github.com/mpge/code-per-day</text>
  </a>
</svg>