<svg width="840" height="460" viewBox="0 0 840 460" xmlns="http://www.w3.org/2000/svg">
  
    <style>
      @keyframes fadeInUp {
        from { opacity: 0; transform: translateY(12px); }
        to   { opacity: 1; transform: translateY(0); }
      }
      @keyframes growBar {
        from { transform: scaleY(0); }
        to   { transform: scaleY(1); }
      }
      .cpd-header  { animation: fadeInUp 0.5s ease both; }
      .cpd-stats   { animation: fadeInUp 0.5s ease 0.15s both; }
      .cpd-chart   { animation: fadeInUp 0.5s ease 0.3s both; }
      .cpd-legend  { animation: fadeInUp 0.5s ease 0.45s both; }
    </style>

  <rect width="840" height="460" rx="12" fill="#1a1028" stroke="#3d2660" stroke-width="1"/>

  <g class="cpd-header">
    <a href="https://github.com/mpge/code-per-day" target="_blank">
      <text x="24" y="44" fill="#f0d0ff" font-size="18" font-family="'Segoe UI', sans-serif" font-weight="700">Code Per Day</text>
    </a>
    <text x="816" y="44" fill="#7a5a8e" font-size="13" font-family="'Segoe UI', sans-serif" text-anchor="end" font-weight="500">@mpge</text>
  </g>

  <g class="cpd-stats">
    
    <rect x="24" y="60" width="190" height="68" rx="8" fill="#160e22" stroke="#3d2660" stroke-width="1"/>
    <text x="119" y="78" fill="#7a5a8e" font-size="11" font-family="'Segoe UI', sans-serif" text-anchor="middle" font-weight="500">Today</text>
    <text x="119" y="100" fill="#ffb86c" font-size="16" font-family="'Segoe UI Mono', 'Cascadia Code', monospace" text-anchor="middle" font-weight="700">+4,922</text>
    <text x="119" y="118" fill="#ff79c6" font-size="14" font-family="'Segoe UI Mono', 'Cascadia Code', monospace" text-anchor="middle" font-weight="600">-518</text>
    <rect x="222" y="60" width="190" height="68" rx="8" fill="#160e22" stroke="#3d2660" stroke-width="1"/>
    <text x="317" y="78" fill="#7a5a8e" font-size="11" font-family="'Segoe UI', sans-serif" text-anchor="middle" font-weight="500">30d Avg</text>
    <text x="317" y="100" fill="#ffb86c" font-size="16" font-family="'Segoe UI Mono', 'Cascadia Code', monospace" text-anchor="middle" font-weight="700">+11,565</text>
    <text x="317" y="118" fill="#ff79c6" font-size="14" font-family="'Segoe UI Mono', 'Cascadia Code', monospace" text-anchor="middle" font-weight="600">-6,207</text>
    <rect x="420" y="60" width="190" height="68" rx="8" fill="#160e22" stroke="#3d2660" stroke-width="1"/>
    <text x="515" y="78" fill="#7a5a8e" font-size="11" font-family="'Segoe UI', sans-serif" text-anchor="middle" font-weight="500">Year Avg</text>
    <text x="515" y="100" fill="#ffb86c" font-size="16" font-family="'Segoe UI Mono', 'Cascadia Code', monospace" text-anchor="middle" font-weight="700">+25,528</text>
    <text x="515" y="118" fill="#ff79c6" font-size="14" font-family="'Segoe UI Mono', 'Cascadia Code', monospace" text-anchor="middle" font-weight="600">-7,091</text>
    <rect x="618" y="60" width="190" height="68" rx="8" fill="#160e22" stroke="#3d2660" stroke-width="1"/>
    <text x="713" y="78" fill="#7a5a8e" font-size="11" font-family="'Segoe UI', sans-serif" text-anchor="middle" font-weight="500">Streak</text>
    <text x="713" y="104" fill="#ff79c6" font-size="20" font-family="'Segoe UI Mono', 'Cascadia Code', monospace" text-anchor="middle" font-weight="700">203</text>
    <text x="713" y="120" fill="#7a5a8e" font-size="11" font-family="'Segoe UI', sans-serif" text-anchor="middle">days</text>
  </g>

  <g class="cpd-chart">
    <line x1="72" y1="148" x2="808" y2="148" stroke="#2d1c44" stroke-width="1" stroke-dasharray="4,4"/><line x1="72" y1="213.5" x2="808" y2="213.5" stroke="#2d1c44" stroke-width="1" stroke-dasharray="4,4"/><line x1="72" y1="279" x2="808" y2="279" stroke="#2d1c44" stroke-width="1" stroke-dasharray="4,4"/><line x1="72" y1="344.5" x2="808" y2="344.5" stroke="#2d1c44" stroke-width="1" stroke-dasharray="4,4"/><line x1="72" y1="410" x2="808" y2="410" stroke="#2d1c44" stroke-width="1" stroke-dasharray="4,4"/><line x1="72" y1="279" x2="808" y2="279" stroke="#3d2660" stroke-width="1.5"/><text x="64" y="162" fill="#7a5a8e" font-size="10" font-family="'Segoe UI', sans-serif" text-anchor="end">+30,690</text><text x="64" y="406" fill="#7a5a8e" font-size="10" font-family="'Segoe UI', sans-serif" text-anchor="end">-30,690</text><text x="64" y="283" fill="#7a5a8e" font-size="10" font-family="'Segoe UI', sans-serif" text-anchor="end">0</text><path d="M 72 279 L 72 158 L 96.53333333333333 192.08817204301076 L 121.06666666666666 276.6659498207885 L 145.60000000000002 260.347311827957 L 170.13333333333333 228.90860215053763 L 194.66666666666669 226.83082437275985 L 219.20000000000002 260.378853046595 L 243.73333333333335 262.3462365591398 L 268.26666666666665 265.36236559139786 L 292.8 196.38960573476703 L 317.33333333333337 233.06021505376344 L 341.8666666666667 244.48602150537636 L 366.40000000000003 158 L 390.93333333333334 206.07275985663082 L 415.4666666666667 158 L 440 200.6831541218638 L 464.53333333333336 253.32544802867383 L 489.0666666666667 223.16021505376344 L 513.6 278.2430107526882 L 538.1333333333334 279 L 562.6666666666667 271.8401433691756 L 587.2 279 L 611.7333333333333 262.2594982078853 L 636.2666666666667 279 L 660.8000000000001 278.7043010752688 L 685.3333333333334 277.43082437275984 L 709.8666666666667 260.6114695340502 L 734.4000000000001 276.1691756272401 L 758.9333333333334 279 L 783.4666666666667 273.36594982078856 L 808 259.5942652329749 L 808 279 Z" fill="#ffb86c" opacity="0.15"/><path d="M 72 279 L 72 158 L 96.53333333333333 192.08817204301076 L 121.06666666666666 276.6659498207885 L 145.60000000000002 260.347311827957 L 170.13333333333333 228.90860215053763 L 194.66666666666669 226.83082437275985 L 219.20000000000002 260.378853046595 L 243.73333333333335 262.3462365591398 L 268.26666666666665 265.36236559139786 L 292.8 196.38960573476703 L 317.33333333333337 233.06021505376344 L 341.8666666666667 244.48602150537636 L 366.40000000000003 158 L 390.93333333333334 206.07275985663082 L 415.4666666666667 158 L 440 200.6831541218638 L 464.53333333333336 253.32544802867383 L 489.0666666666667 223.16021505376344 L 513.6 278.2430107526882 L 538.1333333333334 279 L 562.6666666666667 271.8401433691756 L 587.2 279 L 611.7333333333333 262.2594982078853 L 636.2666666666667 279 L 660.8000000000001 278.7043010752688 L 685.3333333333334 277.43082437275984 L 709.8666666666667 260.6114695340502 L 734.4000000000001 276.1691756272401 L 758.9333333333334 279 L 783.4666666666667 273.36594982078856 L 808 259.5942652329749" fill="none" stroke="#ffb86c" stroke-width="2"/><path d="M 72 279 L 72 400 L 96.53333333333333 313.34444444444443 L 121.06666666666666 280.5455197132616 L 145.60000000000002 293.35913978494625 L 170.13333333333333 300.4519713261649 L 194.66666666666669 294.541935483871 L 219.20000000000002 282.3709677419355 L 243.73333333333335 284.36594982078856 L 268.26666666666665 285.56057347670253 L 292.8 297.19139784946236 L 317.33333333333337 299.5293906810036 L 341.8666666666667 281.8189964157706 L 366.40000000000003 332.43870967741935 L 390.93333333333334 400 L 415.4666666666667 399.3376344086021 L 440 300.4598566308244 L 464.53333333333336 282.97025089605734 L 489.0666666666667 286.9562724014337 L 513.6 279.23655913978496 L 538.1333333333334 279 L 562.6666666666667 279.0433691756272 L 587.2 279 L 611.7333333333333 279.32329749103945 L 636.2666666666667 279 L 660.8000000000001 279.35089605734765 L 685.3333333333334 279.8279569892473 L 709.8666666666667 296.8878136200717 L 734.4000000000001 279.1182795698925 L 758.9333333333334 279 L 783.4666666666667 280.39569892473116 L 808 281.04229390681 L 808 279 Z" fill="#ff79c6" opacity="0.15"/><path d="M 72 279 L 72 400 L 96.53333333333333 313.34444444444443 L 121.06666666666666 280.5455197132616 L 145.60000000000002 293.35913978494625 L 170.13333333333333 300.4519713261649 L 194.66666666666669 294.541935483871 L 219.20000000000002 282.3709677419355 L 243.73333333333335 284.36594982078856 L 268.26666666666665 285.56057347670253 L 292.8 297.19139784946236 L 317.33333333333337 299.5293906810036 L 341.8666666666667 281.8189964157706 L 366.40000000000003 332.43870967741935 L 390.93333333333334 400 L 415.4666666666667 399.3376344086021 L 440 300.4598566308244 L 464.53333333333336 282.97025089605734 L 489.0666666666667 286.9562724014337 L 513.6 279.23655913978496 L 538.1333333333334 279 L 562.6666666666667 279.0433691756272 L 587.2 279 L 611.7333333333333 279.32329749103945 L 636.2666666666667 279 L 660.8000000000001 279.35089605734765 L 685.3333333333334 279.8279569892473 L 709.8666666666667 296.8878136200717 L 734.4000000000001 279.1182795698925 L 758.9333333333334 279 L 783.4666666666667 280.39569892473116 L 808 281.04229390681" fill="none" stroke="#ff79c6" stroke-width="2"/><text x="72" y="426" fill="#7a5a8e" font-size="10" font-family="'Segoe UI', sans-serif" text-anchor="middle">May 19</text><text x="194.66666666666669" y="426" fill="#7a5a8e" font-size="10" font-family="'Segoe UI', sans-serif" text-anchor="middle">May 24</text><text x="317.33333333333337" y="426" fill="#7a5a8e" font-size="10" font-family="'Segoe UI', sans-serif" text-anchor="middle">May 29</text><text x="440" y="426" fill="#7a5a8e" font-size="10" font-family="'Segoe UI', sans-serif" text-anchor="middle">Jun 3</text><text x="562.6666666666667" y="426" fill="#7a5a8e" font-size="10" font-family="'Segoe UI', sans-serif" text-anchor="middle">Jun 8</text><text x="685.3333333333334" y="426" fill="#7a5a8e" font-size="10" font-family="'Segoe UI', sans-serif" text-anchor="middle">Jun 13</text><text x="808" y="426" fill="#7a5a8e" font-size="10" font-family="'Segoe UI', sans-serif" text-anchor="middle">Jun 18</text>
  </g>

  <g class="cpd-legend">
    
    <circle cx="30" cy="442" r="5" fill="#ffb86c"/>
    <text x="40" y="446" fill="#c4a0d8" font-size="11" font-family="'Segoe UI', sans-serif">Additions</text>
    <circle cx="124" cy="442" r="5" fill="#ff79c6"/>
    <text x="134" y="446" fill="#c4a0d8" font-size="11" font-family="'Segoe UI', sans-serif">Deletions</text>
    <text x="816" y="446" fill="#7a5a8e" font-size="10" font-family="'Segoe UI', sans-serif" text-anchor="end">Last 31 days · +358,505 / -192,402 lines</text>
  </g>

  <a href="https://github.com/mpge/code-per-day" target="_blank">
    <text x="420" y="452" fill="#7a5a8e" font-size="10" font-family="'Segoe UI', sans-serif" text-anchor="middle" opacity="0.6">Get your own - github.com/mpge/code-per-day</text>
  </a>
</svg>