<svg width="840" height="460" viewBox="0 0 840 460" xmlns="http://www.w3.org/2000/svg">
  
    <style>
      @keyframes fadeInUp {
        from { opacity: 0; transform: translateY(12px); }
        to   { opacity: 1; transform: translateY(0); }
      }
      @keyframes growBar {
        from { transform: scaleY(0); }
        to   { transform: scaleY(1); }
      }
      .cpd-header  { animation: fadeInUp 0.5s ease both; }
      .cpd-stats   { animation: fadeInUp 0.5s ease 0.15s both; }
      .cpd-chart   { animation: fadeInUp 0.5s ease 0.3s both; }
      .cpd-legend  { animation: fadeInUp 0.5s ease 0.45s both; }
    </style>

  <rect width="840" height="460" rx="12" fill="transparent" />

  <g class="cpd-header">
    <a href="https://github.com/mpge/code-per-day" target="_blank">
      <text x="24" y="44" fill="#e6edf3" font-size="18" font-family="'Segoe UI', sans-serif" font-weight="700">Code Per Day</text>
    </a>
    <text x="816" y="44" fill="#6e7681" font-size="13" font-family="'Segoe UI', sans-serif" text-anchor="end" font-weight="500">@mpge</text>
  </g>

  <g class="cpd-stats">
    
    <rect x="24" y="60" width="190" height="68" rx="8" fill="rgba(13,17,23,0.6)" stroke="#30363d" stroke-width="1"/>
    <text x="119" y="78" fill="#6e7681" font-size="11" font-family="'Segoe UI', sans-serif" text-anchor="middle" font-weight="500">Today</text>
    <text x="119" y="100" fill="#3fb950" font-size="16" font-family="'Segoe UI Mono', 'Cascadia Code', monospace" text-anchor="middle" font-weight="700">+31,254</text>
    <text x="119" y="118" fill="#f85149" font-size="14" font-family="'Segoe UI Mono', 'Cascadia Code', monospace" text-anchor="middle" font-weight="600">-17</text>
    <rect x="222" y="60" width="190" height="68" rx="8" fill="rgba(13,17,23,0.6)" stroke="#30363d" stroke-width="1"/>
    <text x="317" y="78" fill="#6e7681" font-size="11" font-family="'Segoe UI', sans-serif" text-anchor="middle" font-weight="500">30d Avg</text>
    <text x="317" y="100" fill="#3fb950" font-size="16" font-family="'Segoe UI Mono', 'Cascadia Code', monospace" text-anchor="middle" font-weight="700">+12,041</text>
    <text x="317" y="118" fill="#f85149" font-size="14" font-family="'Segoe UI Mono', 'Cascadia Code', monospace" text-anchor="middle" font-weight="600">-3,752</text>
    <rect x="420" y="60" width="190" height="68" rx="8" fill="rgba(13,17,23,0.6)" stroke="#30363d" stroke-width="1"/>
    <text x="515" y="78" fill="#6e7681" font-size="11" font-family="'Segoe UI', sans-serif" text-anchor="middle" font-weight="500">Year Avg</text>
    <text x="515" y="100" fill="#3fb950" font-size="16" font-family="'Segoe UI Mono', 'Cascadia Code', monospace" text-anchor="middle" font-weight="700">+26,025</text>
    <text x="515" y="118" fill="#f85149" font-size="14" font-family="'Segoe UI Mono', 'Cascadia Code', monospace" text-anchor="middle" font-weight="600">-7,118</text>
    <rect x="618" y="60" width="190" height="68" rx="8" fill="rgba(13,17,23,0.6)" stroke="#30363d" stroke-width="1"/>
    <text x="713" y="78" fill="#6e7681" font-size="11" font-family="'Segoe UI', sans-serif" text-anchor="middle" font-weight="500">Streak</text>
    <text x="713" y="104" fill="#58a6ff" font-size="20" font-family="'Segoe UI Mono', 'Cascadia Code', monospace" text-anchor="middle" font-weight="700">213</text>
    <text x="713" y="120" fill="#6e7681" font-size="11" font-family="'Segoe UI', sans-serif" text-anchor="middle">days</text>
  </g>

  <g class="cpd-chart">
    <line x1="72" y1="148" x2="808" y2="148" stroke="rgba(33,38,45,0.6)" stroke-width="1" stroke-dasharray="4,4"/><line x1="72" y1="213.5" x2="808" y2="213.5" stroke="rgba(33,38,45,0.6)" stroke-width="1" stroke-dasharray="4,4"/><line x1="72" y1="279" x2="808" y2="279" stroke="rgba(33,38,45,0.6)" stroke-width="1" stroke-dasharray="4,4"/><line x1="72" y1="344.5" x2="808" y2="344.5" stroke="rgba(33,38,45,0.6)" stroke-width="1" stroke-dasharray="4,4"/><line x1="72" y1="410" x2="808" y2="410" stroke="rgba(33,38,45,0.6)" stroke-width="1" stroke-dasharray="4,4"/><line x1="72" y1="279" x2="808" y2="279" stroke="#30363d" stroke-width="1.5"/><text x="64" y="162" fill="#6e7681" font-size="10" font-family="'Segoe UI', sans-serif" text-anchor="end">+17,725</text><text x="64" y="406" fill="#6e7681" font-size="10" font-family="'Segoe UI', sans-serif" text-anchor="end">-17,725</text><text x="64" y="283" fill="#6e7681" font-size="10" font-family="'Segoe UI', sans-serif" text-anchor="end">0</text><path d="M 72 279 L 72 219.24067700987305 L 96.53333333333333 158 L 121.06666666666666 158 L 145.60000000000002 158 L 170.13333333333333 158 L 194.66666666666669 234.5457263751763 L 219.20000000000002 182.31605077574048 L 243.73333333333335 277.6893088857546 L 268.26666666666665 279 L 292.8 266.60304654442876 L 317.33333333333337 279 L 341.8666666666667 250.01461212976022 L 366.40000000000003 279 L 390.93333333333334 278.4880112834979 L 415.4666666666667 276.28304654442877 L 440 247.16112834978844 L 464.53333333333336 274.09856135401975 L 489.0666666666667 279 L 513.6 269.2449083215797 L 538.1333333333334 245.39988716502114 L 562.6666666666667 240.96265162200282 L 587.2 258.0357686882934 L 611.7333333333333 158 L 636.2666666666667 220.6264598025388 L 660.8000000000001 158 L 685.3333333333334 229.43266572637518 L 709.8666666666667 231.51475317348377 L 734.4000000000001 266.4596897038082 L 758.9333333333334 269.31317348377996 L 783.4666666666667 248.13732016925246 L 808 158 L 808 279 Z" fill="#3fb950" opacity="0.15"/><path d="M 72 279 L 72 219.24067700987305 L 96.53333333333333 158 L 121.06666666666666 158 L 145.60000000000002 158 L 170.13333333333333 158 L 194.66666666666669 234.5457263751763 L 219.20000000000002 182.31605077574048 L 243.73333333333335 277.6893088857546 L 268.26666666666665 279 L 292.8 266.60304654442876 L 317.33333333333337 279 L 341.8666666666667 250.01461212976022 L 366.40000000000003 279 L 390.93333333333334 278.4880112834979 L 415.4666666666667 276.28304654442877 L 440 247.16112834978844 L 464.53333333333336 274.09856135401975 L 489.0666666666667 279 L 513.6 269.2449083215797 L 538.1333333333334 245.39988716502114 L 562.6666666666667 240.96265162200282 L 587.2 258.0357686882934 L 611.7333333333333 158 L 636.2666666666667 220.6264598025388 L 660.8000000000001 158 L 685.3333333333334 229.43266572637518 L 709.8666666666667 231.51475317348377 L 734.4000000000001 266.4596897038082 L 758.9333333333334 269.31317348377996 L 783.4666666666667 248.13732016925246 L 808 158" fill="none" stroke="#3fb950" stroke-width="2"/><path d="M 72 279 L 72 283.88095909732016 L 96.53333333333333 371.52660084626234 L 121.06666666666666 400 L 145.60000000000002 400 L 170.13333333333333 316.15672778561355 L 194.66666666666669 285.8743018335684 L 219.20000000000002 292.77590973201694 L 243.73333333333335 279.4095909732017 L 268.26666666666665 279 L 292.8 279.07509167842034 L 317.33333333333337 279 L 341.8666666666667 279.55977433004233 L 366.40000000000003 279 L 390.93333333333334 279.6075599435825 L 415.4666666666667 280.43356840620595 L 440 309.97190409026797 L 464.53333333333336 279.20479548660086 L 489.0666666666667 279 L 513.6 281.41658674189 L 538.1333333333334 282.5361354019746 L 562.6666666666667 285.61489421720734 L 587.2 279.75774330042316 L 611.7333333333333 317.52885754583923 L 636.2666666666667 285.1029055007052 L 660.8000000000001 297.3155430183357 L 685.3333333333334 286.70031029619184 L 709.8666666666667 279.4642031029619 L 734.4000000000001 280.1468547249647 L 758.9333333333334 279.58708039492245 L 783.4666666666667 280.94555712270807 L 808 279.11605077574046 L 808 279 Z" fill="#f85149" opacity="0.15"/><path d="M 72 279 L 72 283.88095909732016 L 96.53333333333333 371.52660084626234 L 121.06666666666666 400 L 145.60000000000002 400 L 170.13333333333333 316.15672778561355 L 194.66666666666669 285.8743018335684 L 219.20000000000002 292.77590973201694 L 243.73333333333335 279.4095909732017 L 268.26666666666665 279 L 292.8 279.07509167842034 L 317.33333333333337 279 L 341.8666666666667 279.55977433004233 L 366.40000000000003 279 L 390.93333333333334 279.6075599435825 L 415.4666666666667 280.43356840620595 L 440 309.97190409026797 L 464.53333333333336 279.20479548660086 L 489.0666666666667 279 L 513.6 281.41658674189 L 538.1333333333334 282.5361354019746 L 562.6666666666667 285.61489421720734 L 587.2 279.75774330042316 L 611.7333333333333 317.52885754583923 L 636.2666666666667 285.1029055007052 L 660.8000000000001 297.3155430183357 L 685.3333333333334 286.70031029619184 L 709.8666666666667 279.4642031029619 L 734.4000000000001 280.1468547249647 L 758.9333333333334 279.58708039492245 L 783.4666666666667 280.94555712270807 L 808 279.11605077574046" fill="none" stroke="#f85149" stroke-width="2"/><text x="72" y="426" fill="#6e7681" font-size="10" font-family="'Segoe UI', sans-serif" text-anchor="middle">May 30</text><text x="194.66666666666669" y="426" fill="#6e7681" font-size="10" font-family="'Segoe UI', sans-serif" text-anchor="middle">Jun 4</text><text x="317.33333333333337" y="426" fill="#6e7681" font-size="10" font-family="'Segoe UI', sans-serif" text-anchor="middle">Jun 9</text><text x="440" y="426" fill="#6e7681" font-size="10" font-family="'Segoe UI', sans-serif" text-anchor="middle">Jun 14</text><text x="562.6666666666667" y="426" fill="#6e7681" font-size="10" font-family="'Segoe UI', sans-serif" text-anchor="middle">Jun 19</text><text x="685.3333333333334" y="426" fill="#6e7681" font-size="10" font-family="'Segoe UI', sans-serif" text-anchor="middle">Jun 24</text><text x="808" y="426" fill="#6e7681" font-size="10" font-family="'Segoe UI', sans-serif" text-anchor="middle">Jun 29</text>
  </g>

  <g class="cpd-legend">
    
    <circle cx="30" cy="442" r="5" fill="#3fb950"/>
    <text x="40" y="446" fill="#8b949e" font-size="11" font-family="'Segoe UI', sans-serif">Additions</text>
    <circle cx="124" cy="442" r="5" fill="#f85149"/>
    <text x="134" y="446" fill="#8b949e" font-size="11" font-family="'Segoe UI', sans-serif">Deletions</text>
    <text x="816" y="446" fill="#6e7681" font-size="10" font-family="'Segoe UI', sans-serif" text-anchor="end">Last 31 days · +373,263 / -116,324 lines</text>
  </g>

  <a href="https://github.com/mpge/code-per-day" target="_blank">
    <text x="420" y="452" fill="#6e7681" font-size="10" font-family="'Segoe UI', sans-serif" text-anchor="middle" opacity="0.6">Get your own - github.com/mpge/code-per-day</text>
  </a>
</svg>