<svg width="840" height="460" viewBox="0 0 840 460" xmlns="http://www.w3.org/2000/svg">
  
    <style>
      @keyframes fadeInUp {
        from { opacity: 0; transform: translateY(12px); }
        to   { opacity: 1; transform: translateY(0); }
      }
      @keyframes growBar {
        from { transform: scaleY(0); }
        to   { transform: scaleY(1); }
      }
      .cpd-header  { animation: fadeInUp 0.5s ease both; }
      .cpd-stats   { animation: fadeInUp 0.5s ease 0.15s both; }
      .cpd-chart   { animation: fadeInUp 0.5s ease 0.3s both; }
      .cpd-legend  { animation: fadeInUp 0.5s ease 0.45s both; }
    </style>

  <!-- Background -->
  <rect width="840" height="460" rx="12" fill="transparent" />

  <!-- Header -->
  <g class="cpd-header">
    <a href="https://github.com/mpge/code-per-day" target="_blank">
      <text x="24" y="44" fill="#e6edf3" font-size="18" font-family="'Segoe UI', sans-serif" font-weight="700">Code Per Day</text>
    </a>
    <text x="816" y="44" fill="#6e7681" font-size="13" font-family="'Segoe UI', sans-serif" text-anchor="end" font-weight="500">@mpge</text>
  </g>

  <!-- Stats Cards -->
  <g class="cpd-stats">
    
    <rect x="24" y="60" width="190" height="68" rx="8" fill="rgba(13,17,23,0.6)" stroke="#30363d" stroke-width="1"/>
    <text x="119" y="78" fill="#6e7681" font-size="11" font-family="'Segoe UI', sans-serif" text-anchor="middle" font-weight="500">Today</text>
    <text x="119" y="100" fill="#3fb950" font-size="16" font-family="'Segoe UI Mono', 'Cascadia Code', monospace" text-anchor="middle" font-weight="700">+770</text>
    <text x="119" y="118" fill="#f85149" font-size="14" font-family="'Segoe UI Mono', 'Cascadia Code', monospace" text-anchor="middle" font-weight="600">-84</text>
    <rect x="222" y="60" width="190" height="68" rx="8" fill="rgba(13,17,23,0.6)" stroke="#30363d" stroke-width="1"/>
    <text x="317" y="78" fill="#6e7681" font-size="11" font-family="'Segoe UI', sans-serif" text-anchor="middle" font-weight="500">30d Avg</text>
    <text x="317" y="100" fill="#3fb950" font-size="16" font-family="'Segoe UI Mono', 'Cascadia Code', monospace" text-anchor="middle" font-weight="700">+215,263</text>
    <text x="317" y="118" fill="#f85149" font-size="14" font-family="'Segoe UI Mono', 'Cascadia Code', monospace" text-anchor="middle" font-weight="600">-56,676</text>
    <rect x="420" y="60" width="190" height="68" rx="8" fill="rgba(13,17,23,0.6)" stroke="#30363d" stroke-width="1"/>
    <text x="515" y="78" fill="#6e7681" font-size="11" font-family="'Segoe UI', sans-serif" text-anchor="middle" font-weight="500">Year Avg</text>
    <text x="515" y="100" fill="#3fb950" font-size="16" font-family="'Segoe UI Mono', 'Cascadia Code', monospace" text-anchor="middle" font-weight="700">+22,168</text>
    <text x="515" y="118" fill="#f85149" font-size="14" font-family="'Segoe UI Mono', 'Cascadia Code', monospace" text-anchor="middle" font-weight="600">-6,381</text>
        <rect x="618" y="60" width="190" height="68" rx="8" fill="rgba(13,17,23,0.6)" stroke="#30363d" stroke-width="1"/>
        <text x="713" y="78" fill="#6e7681" font-size="11" font-family="'Segoe UI', sans-serif" text-anchor="middle" font-weight="500">Streak</text>
        <text x="713" y="104" fill="#58a6ff" font-size="20" font-family="'Segoe UI Mono', 'Cascadia Code', monospace" text-anchor="middle" font-weight="700">151</text>
        <text x="713" y="120" fill="#6e7681" font-size="11" font-family="'Segoe UI', sans-serif" text-anchor="middle">days</text>
  </g>

  <!-- Chart -->
  <g class="cpd-chart">
    <line x1="72" y1="148" x2="808" y2="148" stroke="rgba(33,38,45,0.6)" stroke-width="1" stroke-dasharray="4,4"/><line x1="72" y1="213.5" x2="808" y2="213.5" stroke="rgba(33,38,45,0.6)" stroke-width="1" stroke-dasharray="4,4"/><line x1="72" y1="279" x2="808" y2="279" stroke="rgba(33,38,45,0.6)" stroke-width="1" stroke-dasharray="4,4"/><line x1="72" y1="344.5" x2="808" y2="344.5" stroke="rgba(33,38,45,0.6)" stroke-width="1" stroke-dasharray="4,4"/><line x1="72" y1="410" x2="808" y2="410" stroke="rgba(33,38,45,0.6)" stroke-width="1" stroke-dasharray="4,4"/><line x1="72" y1="279" x2="808" y2="279" stroke="#30363d" stroke-width="1.5"/><text x="64" y="162" fill="#6e7681" font-size="10" font-family="'Segoe UI', sans-serif" text-anchor="end">+44,167</text><text x="64" y="406" fill="#6e7681" font-size="10" font-family="'Segoe UI', sans-serif" text-anchor="end">-44,167</text><text x="64" y="283" fill="#6e7681" font-size="10" font-family="'Segoe UI', sans-serif" text-anchor="end">0</text><path d="M 72 279 L 72 256.0311771231915 L 96.53333333333333 277.4219892680055 L 121.06666666666666 279 L 145.60000000000002 274.89607625602827 L 170.13333333333333 279 L 194.66666666666669 279 L 219.20000000000002 229.40772522471528 L 243.73333333333335 158 L 268.26666666666665 158 L 292.8 174.36090293658162 L 317.33333333333337 158 L 341.8666666666667 158 L 366.40000000000003 244.2097946430593 L 390.93333333333334 261.09944075893765 L 415.4666666666667 158 L 440 257.41467611565196 L 464.53333333333336 278.8684991056671 L 489.0666666666667 279 L 513.6 278.8548010958408 L 538.1333333333334 279 L 562.6666666666667 264.88831027690355 L 587.2 239.4127516018747 L 611.7333333333333 259.7159417664772 L 636.2666666666667 266.2800280752598 L 660.8000000000001 278.9863019901737 L 685.3333333333334 207.9456834288043 L 709.8666666666667 158 L 734.4000000000001 272.90986483120884 L 758.9333333333334 203.40342337038965 L 783.4666666666667 166.59687096701157 L 808 276.8905064867435 L 808 279 Z" fill="#3fb950" opacity="0.15"/><path d="M 72 279 L 72 256.0311771231915 L 96.53333333333333 277.4219892680055 L 121.06666666666666 279 L 145.60000000000002 274.89607625602827 L 170.13333333333333 279 L 194.66666666666669 279 L 219.20000000000002 229.40772522471528 L 243.73333333333335 158 L 268.26666666666665 158 L 292.8 174.36090293658162 L 317.33333333333337 158 L 341.8666666666667 158 L 366.40000000000003 244.2097946430593 L 390.93333333333334 261.09944075893765 L 415.4666666666667 158 L 440 257.41467611565196 L 464.53333333333336 278.8684991056671 L 489.0666666666667 279 L 513.6 278.8548010958408 L 538.1333333333334 279 L 562.6666666666667 264.88831027690355 L 587.2 239.4127516018747 L 611.7333333333333 259.7159417664772 L 636.2666666666667 266.2800280752598 L 660.8000000000001 278.9863019901737 L 685.3333333333334 207.9456834288043 L 709.8666666666667 158 L 734.4000000000001 272.90986483120884 L 758.9333333333334 203.40342337038965 L 783.4666666666667 166.59687096701157 L 808 276.8905064867435" fill="none" stroke="#3fb950" stroke-width="2"/><path d="M 72 279 L 72 279.4657323340956 L 96.53333333333333 279 L 121.06666666666666 279 L 145.60000000000002 280.5588335182376 L 170.13333333333333 279 L 194.66666666666669 279 L 219.20000000000002 279.10958407861074 L 243.73333333333335 400 L 268.26666666666665 298.3333710688976 L 292.8 328.3347521905495 L 317.33333333333337 290.5035886521611 L 341.8666666666667 312.8176466592705 L 366.40000000000003 284.6846740779315 L 390.93333333333334 284.56961079539025 L 415.4666666666667 281.564267439491 L 440 279.80544297778886 L 464.53333333333336 292.32542395906444 L 489.0666666666667 279 L 513.6 279.12328208843707 L 538.1333333333334 279 L 562.6666666666667 279.3123146240406 L 587.2 281.2601716213463 L 611.7333333333333 284.46550592071003 L 636.2666666666667 279.1698553218466 L 660.8000000000001 279 L 685.3333333333334 280.512260284828 L 709.8666666666667 292.5199356985985 L 734.4000000000001 279.2273869631173 L 758.9333333333334 282.4025856408631 L 783.4666666666667 281.4245477392623 L 808 279.2301265650825 L 808 279 Z" fill="#f85149" opacity="0.15"/><path d="M 72 279 L 72 279.4657323340956 L 96.53333333333333 279 L 121.06666666666666 279 L 145.60000000000002 280.5588335182376 L 170.13333333333333 279 L 194.66666666666669 279 L 219.20000000000002 279.10958407861074 L 243.73333333333335 400 L 268.26666666666665 298.3333710688976 L 292.8 328.3347521905495 L 317.33333333333337 290.5035886521611 L 341.8666666666667 312.8176466592705 L 366.40000000000003 284.6846740779315 L 390.93333333333334 284.56961079539025 L 415.4666666666667 281.564267439491 L 440 279.80544297778886 L 464.53333333333336 292.32542395906444 L 489.0666666666667 279 L 513.6 279.12328208843707 L 538.1333333333334 279 L 562.6666666666667 279.3123146240406 L 587.2 281.2601716213463 L 611.7333333333333 284.46550592071003 L 636.2666666666667 279.1698553218466 L 660.8000000000001 279 L 685.3333333333334 280.512260284828 L 709.8666666666667 292.5199356985985 L 734.4000000000001 279.2273869631173 L 758.9333333333334 282.4025856408631 L 783.4666666666667 281.4245477392623 L 808 279.2301265650825" fill="none" stroke="#f85149" stroke-width="2"/><text x="72" y="426" fill="#6e7681" font-size="10" font-family="'Segoe UI', sans-serif" text-anchor="middle">Mar 29</text><text x="194.66666666666669" y="426" fill="#6e7681" font-size="10" font-family="'Segoe UI', sans-serif" text-anchor="middle">Apr 3</text><text x="317.33333333333337" y="426" fill="#6e7681" font-size="10" font-family="'Segoe UI', sans-serif" text-anchor="middle">Apr 8</text><text x="440" y="426" fill="#6e7681" font-size="10" font-family="'Segoe UI', sans-serif" text-anchor="middle">Apr 13</text><text x="562.6666666666667" y="426" fill="#6e7681" font-size="10" font-family="'Segoe UI', sans-serif" text-anchor="middle">Apr 18</text><text x="685.3333333333334" y="426" fill="#6e7681" font-size="10" font-family="'Segoe UI', sans-serif" text-anchor="middle">Apr 23</text><text x="808" y="426" fill="#6e7681" font-size="10" font-family="'Segoe UI', sans-serif" text-anchor="middle">Apr 28</text>
  </g>

  <!-- Legend -->
  <g class="cpd-legend">
    <circle cx="30" cy="442" r="5" fill="#3fb950"/>
    <text x="40" y="446" fill="#8b949e" font-size="11" font-family="'Segoe UI', sans-serif">Additions</text>
    <circle cx="124" cy="442" r="5" fill="#f85149"/>
    <text x="134" y="446" fill="#8b949e" font-size="11" font-family="'Segoe UI', sans-serif">Deletions</text>
    <text x="816" y="446" fill="#6e7681" font-size="10" font-family="'Segoe UI', sans-serif" text-anchor="end">Last 31 days · +6,673,165 / -1,756,944 lines</text>
  </g>

  <!-- Get your own -->
  <a href="https://github.com/mpge/code-per-day" target="_blank">
    <text x="420" y="452" fill="#6e7681" font-size="10" font-family="'Segoe UI', sans-serif" text-anchor="middle" opacity="0.6">Get your own — github.com/mpge/code-per-day</text>
  </a>
</svg>