<svg width="840" height="460" viewBox="0 0 840 460" xmlns="http://www.w3.org/2000/svg">
  
    <style>
      @keyframes fadeInUp {
        from { opacity: 0; transform: translateY(12px); }
        to   { opacity: 1; transform: translateY(0); }
      }
      @keyframes growBar {
        from { transform: scaleY(0); }
        to   { transform: scaleY(1); }
      }
      .cpd-header  { animation: fadeInUp 0.5s ease both; }
      .cpd-stats   { animation: fadeInUp 0.5s ease 0.15s both; }
      .cpd-chart   { animation: fadeInUp 0.5s ease 0.3s both; }
      .cpd-legend  { animation: fadeInUp 0.5s ease 0.45s both; }
    </style>

  <!-- Background -->
  <rect width="840" height="460" rx="12" fill="#1a1028" stroke="#3d2660" stroke-width="1"/>

  <!-- Header -->
  <g class="cpd-header">
    <a href="https://github.com/mpge/code-per-day" target="_blank">
      <text x="24" y="44" fill="#f0d0ff" font-size="18" font-family="'Segoe UI', sans-serif" font-weight="700">Code Per Day</text>
    </a>
    <text x="816" y="44" fill="#7a5a8e" font-size="13" font-family="'Segoe UI', sans-serif" text-anchor="end" font-weight="500">@mpge</text>
  </g>

  <!-- Stats Cards -->
  <g class="cpd-stats">
    
    <rect x="24" y="60" width="190" height="68" rx="8" fill="#160e22" stroke="#3d2660" stroke-width="1"/>
    <text x="119" y="78" fill="#7a5a8e" font-size="11" font-family="'Segoe UI', sans-serif" text-anchor="middle" font-weight="500">Today</text>
    <text x="119" y="100" fill="#ffb86c" font-size="16" font-family="'Segoe UI Mono', 'Cascadia Code', monospace" text-anchor="middle" font-weight="700">+0</text>
    <text x="119" y="118" fill="#ff79c6" font-size="14" font-family="'Segoe UI Mono', 'Cascadia Code', monospace" text-anchor="middle" font-weight="600">+0</text>
    <rect x="222" y="60" width="190" height="68" rx="8" fill="#160e22" stroke="#3d2660" stroke-width="1"/>
    <text x="317" y="78" fill="#7a5a8e" font-size="11" font-family="'Segoe UI', sans-serif" text-anchor="middle" font-weight="500">30d Avg</text>
    <text x="317" y="100" fill="#ffb86c" font-size="16" font-family="'Segoe UI Mono', 'Cascadia Code', monospace" text-anchor="middle" font-weight="700">+235,055</text>
    <text x="317" y="118" fill="#ff79c6" font-size="14" font-family="'Segoe UI Mono', 'Cascadia Code', monospace" text-anchor="middle" font-weight="600">-57,435</text>
    <rect x="420" y="60" width="190" height="68" rx="8" fill="#160e22" stroke="#3d2660" stroke-width="1"/>
    <text x="515" y="78" fill="#7a5a8e" font-size="11" font-family="'Segoe UI', sans-serif" text-anchor="middle" font-weight="500">Year Avg</text>
    <text x="515" y="100" fill="#ffb86c" font-size="16" font-family="'Segoe UI Mono', 'Cascadia Code', monospace" text-anchor="middle" font-weight="700">+23,954</text>
    <text x="515" y="118" fill="#ff79c6" font-size="14" font-family="'Segoe UI Mono', 'Cascadia Code', monospace" text-anchor="middle" font-weight="600">-6,451</text>
        <rect x="618" y="60" width="190" height="68" rx="8" fill="#160e22" stroke="#3d2660" stroke-width="1"/>
        <text x="713" y="78" fill="#7a5a8e" font-size="11" font-family="'Segoe UI', sans-serif" text-anchor="middle" font-weight="500">Streak</text>
        <text x="713" y="104" fill="#ff79c6" font-size="20" font-family="'Segoe UI Mono', 'Cascadia Code', monospace" text-anchor="middle" font-weight="700">158</text>
        <text x="713" y="120" fill="#7a5a8e" font-size="11" font-family="'Segoe UI', sans-serif" text-anchor="middle">days</text>
  </g>

  <!-- Chart -->
  <g class="cpd-chart">
    <line x1="72" y1="148" x2="808" y2="148" stroke="#2d1c44" stroke-width="1" stroke-dasharray="4,4"/><line x1="72" y1="213.5" x2="808" y2="213.5" stroke="#2d1c44" stroke-width="1" stroke-dasharray="4,4"/><line x1="72" y1="279" x2="808" y2="279" stroke="#2d1c44" stroke-width="1" stroke-dasharray="4,4"/><line x1="72" y1="344.5" x2="808" y2="344.5" stroke="#2d1c44" stroke-width="1" stroke-dasharray="4,4"/><line x1="72" y1="410" x2="808" y2="410" stroke="#2d1c44" stroke-width="1" stroke-dasharray="4,4"/><line x1="72" y1="279" x2="808" y2="279" stroke="#3d2660" stroke-width="1.5"/><text x="64" y="162" fill="#7a5a8e" font-size="10" font-family="'Segoe UI', sans-serif" text-anchor="end">+34,262</text><text x="64" y="406" fill="#7a5a8e" font-size="10" font-family="'Segoe UI', sans-serif" text-anchor="end">-34,262</text><text x="64" y="283" fill="#7a5a8e" font-size="10" font-family="'Segoe UI', sans-serif" text-anchor="end">0</text><path d="M 72 279 L 72 158 L 96.53333333333333 158 L 121.06666666666666 158 L 145.60000000000002 158 L 170.13333333333333 158 L 194.66666666666669 234.15209269744906 L 219.20000000000002 255.92446442122468 L 243.73333333333335 158 L 268.26666666666665 251.17444982779756 L 292.8 278.83048275056916 L 317.33333333333337 279 L 341.8666666666667 278.81282470375345 L 366.40000000000003 279 L 390.93333333333334 260.8086801704512 L 415.4666666666667 227.96824470258596 L 440 254.14100169283753 L 464.53333333333336 262.6027377269278 L 489.0666666666667 278.9823419531843 L 513.6 187.4041795575273 L 538.1333333333334 158 L 562.6666666666667 271.14923238573346 L 587.2 181.54877123343647 L 611.7333333333333 158 L 636.2666666666667 238.8032222287082 L 660.8000000000001 270.0120541708015 L 685.3333333333334 229.93535111785653 L 709.8666666666667 248.5469324616193 L 734.4000000000001 158 L 758.9333333333334 257.42186679119726 L 783.4666666666667 267.1020080555718 L 808 279 L 808 279 Z" fill="#ffb86c" opacity="0.15"/><path d="M 72 279 L 72 158 L 96.53333333333333 158 L 121.06666666666666 158 L 145.60000000000002 158 L 170.13333333333333 158 L 194.66666666666669 234.15209269744906 L 219.20000000000002 255.92446442122468 L 243.73333333333335 158 L 268.26666666666665 251.17444982779756 L 292.8 278.83048275056916 L 317.33333333333337 279 L 341.8666666666667 278.81282470375345 L 366.40000000000003 279 L 390.93333333333334 260.8086801704512 L 415.4666666666667 227.96824470258596 L 440 254.14100169283753 L 464.53333333333336 262.6027377269278 L 489.0666666666667 278.9823419531843 L 513.6 187.4041795575273 L 538.1333333333334 158 L 562.6666666666667 271.14923238573346 L 587.2 181.54877123343647 L 611.7333333333333 158 L 636.2666666666667 238.8032222287082 L 660.8000000000001 270.0120541708015 L 685.3333333333334 229.93535111785653 L 709.8666666666667 248.5469324616193 L 734.4000000000001 158 L 758.9333333333334 257.42186679119726 L 783.4666666666667 267.1020080555718 L 808 279" fill="none" stroke="#ffb86c" stroke-width="2"/><path d="M 72 279 L 72 400 L 96.53333333333333 303.922567275699 L 121.06666666666666 342.59722141147626 L 145.60000000000002 293.8292277158368 L 170.13333333333333 322.6754129939875 L 194.66666666666669 286.32808942852137 L 219.20000000000002 286.1797618352694 L 243.73333333333335 282.3055863639017 L 268.26666666666665 280.03829315276397 L 292.8 296.1777479423268 L 317.33333333333337 279 L 341.8666666666667 279.1589224213414 L 366.40000000000003 279 L 390.93333333333334 279.4026034673983 L 415.4666666666667 281.91357772459287 L 440 286.04556067947 L 464.53333333333336 279.21895978051487 L 489.0666666666667 279 L 513.6 280.94944836845485 L 538.1333333333334 296.4284922071099 L 562.6666666666667 279.2931235771409 L 587.2 283.3862588290234 L 611.7333333333333 282.1254742863814 L 636.2666666666667 297.66102387484676 L 660.8000000000001 280.91060066546027 L 685.3333333333334 295.45023641351935 L 709.8666666666667 284.66116980911795 L 734.4000000000001 307.81440079388244 L 758.9333333333334 289.0650866849571 L 783.4666666666667 283.5028019380071 L 808 279 L 808 279 Z" fill="#ff79c6" opacity="0.15"/><path d="M 72 279 L 72 400 L 96.53333333333333 303.922567275699 L 121.06666666666666 342.59722141147626 L 145.60000000000002 293.8292277158368 L 170.13333333333333 322.6754129939875 L 194.66666666666669 286.32808942852137 L 219.20000000000002 286.1797618352694 L 243.73333333333335 282.3055863639017 L 268.26666666666665 280.03829315276397 L 292.8 296.1777479423268 L 317.33333333333337 279 L 341.8666666666667 279.1589224213414 L 366.40000000000003 279 L 390.93333333333334 279.4026034673983 L 415.4666666666667 281.91357772459287 L 440 286.04556067947 L 464.53333333333336 279.21895978051487 L 489.0666666666667 279 L 513.6 280.94944836845485 L 538.1333333333334 296.4284922071099 L 562.6666666666667 279.2931235771409 L 587.2 283.3862588290234 L 611.7333333333333 282.1254742863814 L 636.2666666666667 297.66102387484676 L 660.8000000000001 280.91060066546027 L 685.3333333333334 295.45023641351935 L 709.8666666666667 284.66116980911795 L 734.4000000000001 307.81440079388244 L 758.9333333333334 289.0650866849571 L 783.4666666666667 283.5028019380071 L 808 279" fill="none" stroke="#ff79c6" stroke-width="2"/><text x="72" y="426" fill="#7a5a8e" font-size="10" font-family="'Segoe UI', sans-serif" text-anchor="middle">Apr 5</text><text x="194.66666666666669" y="426" fill="#7a5a8e" font-size="10" font-family="'Segoe UI', sans-serif" text-anchor="middle">Apr 10</text><text x="317.33333333333337" y="426" fill="#7a5a8e" font-size="10" font-family="'Segoe UI', sans-serif" text-anchor="middle">Apr 15</text><text x="440" y="426" fill="#7a5a8e" font-size="10" font-family="'Segoe UI', sans-serif" text-anchor="middle">Apr 20</text><text x="562.6666666666667" y="426" fill="#7a5a8e" font-size="10" font-family="'Segoe UI', sans-serif" text-anchor="middle">Apr 25</text><text x="685.3333333333334" y="426" fill="#7a5a8e" font-size="10" font-family="'Segoe UI', sans-serif" text-anchor="middle">Apr 30</text><text x="808" y="426" fill="#7a5a8e" font-size="10" font-family="'Segoe UI', sans-serif" text-anchor="middle">May 5</text>
  </g>

  <!-- Legend -->
  <g class="cpd-legend">
    <circle cx="30" cy="442" r="5" fill="#ffb86c"/>
    <text x="40" y="446" fill="#c4a0d8" font-size="11" font-family="'Segoe UI', sans-serif">Additions</text>
    <circle cx="124" cy="442" r="5" fill="#ff79c6"/>
    <text x="134" y="446" fill="#c4a0d8" font-size="11" font-family="'Segoe UI', sans-serif">Deletions</text>
    <text x="816" y="446" fill="#7a5a8e" font-size="10" font-family="'Segoe UI', sans-serif" text-anchor="end">Last 31 days · +7,286,714 / -1,780,474 lines</text>
  </g>

  <!-- Get your own -->
  <a href="https://github.com/mpge/code-per-day" target="_blank">
    <text x="420" y="452" fill="#7a5a8e" font-size="10" font-family="'Segoe UI', sans-serif" text-anchor="middle" opacity="0.6">Get your own — github.com/mpge/code-per-day</text>
  </a>
</svg>