<svg width="840" height="460" viewBox="0 0 840 460" xmlns="http://www.w3.org/2000/svg">
  
    <style>
      @keyframes fadeInUp {
        from { opacity: 0; transform: translateY(12px); }
        to   { opacity: 1; transform: translateY(0); }
      }
      @keyframes growBar {
        from { transform: scaleY(0); }
        to   { transform: scaleY(1); }
      }
      .cpd-header  { animation: fadeInUp 0.5s ease both; }
      .cpd-stats   { animation: fadeInUp 0.5s ease 0.15s both; }
      .cpd-chart   { animation: fadeInUp 0.5s ease 0.3s both; }
      .cpd-legend  { animation: fadeInUp 0.5s ease 0.45s both; }
    </style>

  <rect width="840" height="460" rx="12" fill="#2e3440" stroke="#4c566a" stroke-width="1"/>

  <g class="cpd-header">
    <a href="https://github.com/mpge/code-per-day" target="_blank">
      <text x="24" y="44" fill="#eceff4" font-size="18" font-family="'Segoe UI', sans-serif" font-weight="700">Code Per Day</text>
    </a>
    <text x="816" y="44" fill="#81a1c1" font-size="13" font-family="'Segoe UI', sans-serif" text-anchor="end" font-weight="500">@mpge</text>
  </g>

  <g class="cpd-stats">
    
    <rect x="24" y="60" width="190" height="68" rx="8" fill="#2e3440" stroke="#4c566a" stroke-width="1"/>
    <text x="119" y="78" fill="#81a1c1" font-size="11" font-family="'Segoe UI', sans-serif" text-anchor="middle" font-weight="500">Today</text>
    <text x="119" y="100" fill="#a3be8c" font-size="16" font-family="'Segoe UI Mono', 'Cascadia Code', monospace" text-anchor="middle" font-weight="700">+6,325</text>
    <text x="119" y="118" fill="#bf616a" font-size="14" font-family="'Segoe UI Mono', 'Cascadia Code', monospace" text-anchor="middle" font-weight="600">-210</text>
    <rect x="222" y="60" width="190" height="68" rx="8" fill="#2e3440" stroke="#4c566a" stroke-width="1"/>
    <text x="317" y="78" fill="#81a1c1" font-size="11" font-family="'Segoe UI', sans-serif" text-anchor="middle" font-weight="500">30d Avg</text>
    <text x="317" y="100" fill="#a3be8c" font-size="16" font-family="'Segoe UI Mono', 'Cascadia Code', monospace" text-anchor="middle" font-weight="700">+4,422</text>
    <text x="317" y="118" fill="#bf616a" font-size="14" font-family="'Segoe UI Mono', 'Cascadia Code', monospace" text-anchor="middle" font-weight="600">-857</text>
    <rect x="420" y="60" width="190" height="68" rx="8" fill="#2e3440" stroke="#4c566a" stroke-width="1"/>
    <text x="515" y="78" fill="#81a1c1" font-size="11" font-family="'Segoe UI', sans-serif" text-anchor="middle" font-weight="500">Year Avg</text>
    <text x="515" y="100" fill="#a3be8c" font-size="16" font-family="'Segoe UI Mono', 'Cascadia Code', monospace" text-anchor="middle" font-weight="700">+26,188</text>
    <text x="515" y="118" fill="#bf616a" font-size="14" font-family="'Segoe UI Mono', 'Cascadia Code', monospace" text-anchor="middle" font-weight="600">-7,176</text>
    <rect x="618" y="60" width="190" height="68" rx="8" fill="#2e3440" stroke="#4c566a" stroke-width="1"/>
    <text x="713" y="78" fill="#81a1c1" font-size="11" font-family="'Segoe UI', sans-serif" text-anchor="middle" font-weight="500">Streak</text>
    <text x="713" y="104" fill="#88c0d0" font-size="20" font-family="'Segoe UI Mono', 'Cascadia Code', monospace" text-anchor="middle" font-weight="700">239</text>
    <text x="713" y="120" fill="#81a1c1" font-size="11" font-family="'Segoe UI', sans-serif" text-anchor="middle">days</text>
  </g>

  <g class="cpd-chart">
    <line x1="72" y1="148" x2="808" y2="148" stroke="#434c5e" stroke-width="1" stroke-dasharray="4,4"/><line x1="72" y1="213.5" x2="808" y2="213.5" stroke="#434c5e" stroke-width="1" stroke-dasharray="4,4"/><line x1="72" y1="279" x2="808" y2="279" stroke="#434c5e" stroke-width="1" stroke-dasharray="4,4"/><line x1="72" y1="344.5" x2="808" y2="344.5" stroke="#434c5e" stroke-width="1" stroke-dasharray="4,4"/><line x1="72" y1="410" x2="808" y2="410" stroke="#434c5e" stroke-width="1" stroke-dasharray="4,4"/><line x1="72" y1="279" x2="808" y2="279" stroke="#4c566a" stroke-width="1.5"/><text x="64" y="162" fill="#81a1c1" font-size="10" font-family="'Segoe UI', sans-serif" text-anchor="end">+8,158</text><text x="64" y="406" fill="#81a1c1" font-size="10" font-family="'Segoe UI', sans-serif" text-anchor="end">-8,158</text><text x="64" y="283" fill="#81a1c1" font-size="10" font-family="'Segoe UI', sans-serif" text-anchor="end">0</text><path d="M 72 279 L 72 171.30436381466046 L 96.53333333333333 175.82814415297867 L 121.06666666666666 251.75349350330964 L 145.60000000000002 257.95329737680805 L 170.13333333333333 211.94422652610933 L 194.66666666666669 158 L 219.20000000000002 231.80436381466046 L 243.73333333333335 241.47487129198333 L 268.26666666666665 274.1054179946065 L 292.8 279 L 317.33333333333337 275.1733267957833 L 341.8666666666667 268.7510419220397 L 366.40000000000003 279 L 390.93333333333334 259.1991909781809 L 415.4666666666667 251.07121843589115 L 440 279 L 464.53333333333336 279 L 489.0666666666667 158 L 513.6 182.0724442265261 L 538.1333333333334 269.74479038980144 L 562.6666666666667 278.91100759990195 L 587.2 228.4819808776661 L 611.7333333333333 273.08200539347877 L 636.2666666666667 279 L 660.8000000000001 279 L 685.3333333333334 277.9172591321402 L 709.8666666666667 275.5886246629076 L 734.4000000000001 214.33218926207405 L 758.9333333333334 240.46629075753862 L 783.4666666666667 267.96494238784015 L 808 185.1871782299583 L 808 279 Z" fill="#a3be8c" opacity="0.15"/><path d="M 72 279 L 72 171.30436381466046 L 96.53333333333333 175.82814415297867 L 121.06666666666666 251.75349350330964 L 145.60000000000002 257.95329737680805 L 170.13333333333333 211.94422652610933 L 194.66666666666669 158 L 219.20000000000002 231.80436381466046 L 243.73333333333335 241.47487129198333 L 268.26666666666665 274.1054179946065 L 292.8 279 L 317.33333333333337 275.1733267957833 L 341.8666666666667 268.7510419220397 L 366.40000000000003 279 L 390.93333333333334 259.1991909781809 L 415.4666666666667 251.07121843589115 L 440 279 L 464.53333333333336 279 L 489.0666666666667 158 L 513.6 182.0724442265261 L 538.1333333333334 269.74479038980144 L 562.6666666666667 278.91100759990195 L 587.2 228.4819808776661 L 611.7333333333333 273.08200539347877 L 636.2666666666667 279 L 660.8000000000001 279 L 685.3333333333334 277.9172591321402 L 709.8666666666667 275.5886246629076 L 734.4000000000001 214.33218926207405 L 758.9333333333334 240.46629075753862 L 783.4666666666667 267.96494238784015 L 808 185.1871782299583" fill="none" stroke="#a3be8c" stroke-width="2"/><path d="M 72 279 L 72 295.7305712184359 L 96.53333333333333 280.0085805344447 L 121.06666666666666 281.4917872027458 L 145.60000000000002 280.2755577347389 L 170.13333333333333 283.227139004658 L 194.66666666666669 400 L 219.20000000000002 288.789164010787 L 243.73333333333335 289.2489580779603 L 268.26666666666665 279 L 292.8 279 L 317.33333333333337 281.2544741358176 L 341.8666666666667 281.13581760235354 L 366.40000000000003 279 L 390.93333333333334 286.07489580779605 L 415.4666666666667 306.46898749693554 L 440 279 L 464.53333333333336 279 L 489.0666666666667 346.97536160823734 L 513.6 367.74025496445205 L 538.1333333333334 283.06398627114487 L 562.6666666666667 279 L 587.2 284.14672713900467 L 611.7333333333333 282.5300318705565 L 636.2666666666667 279 L 660.8000000000001 279 L 685.3333333333334 279.0741603334151 L 709.8666666666667 279.60811473400344 L 734.4000000000001 282.7525128708017 L 758.9333333333334 286.13422407452805 L 783.4666666666667 281.5659475361608 L 808 282.1147340034322 L 808 279 Z" fill="#bf616a" opacity="0.15"/><path d="M 72 279 L 72 295.7305712184359 L 96.53333333333333 280.0085805344447 L 121.06666666666666 281.4917872027458 L 145.60000000000002 280.2755577347389 L 170.13333333333333 283.227139004658 L 194.66666666666669 400 L 219.20000000000002 288.789164010787 L 243.73333333333335 289.2489580779603 L 268.26666666666665 279 L 292.8 279 L 317.33333333333337 281.2544741358176 L 341.8666666666667 281.13581760235354 L 366.40000000000003 279 L 390.93333333333334 286.07489580779605 L 415.4666666666667 306.46898749693554 L 440 279 L 464.53333333333336 279 L 489.0666666666667 346.97536160823734 L 513.6 367.74025496445205 L 538.1333333333334 283.06398627114487 L 562.6666666666667 279 L 587.2 284.14672713900467 L 611.7333333333333 282.5300318705565 L 636.2666666666667 279 L 660.8000000000001 279 L 685.3333333333334 279.0741603334151 L 709.8666666666667 279.60811473400344 L 734.4000000000001 282.7525128708017 L 758.9333333333334 286.13422407452805 L 783.4666666666667 281.5659475361608 L 808 282.1147340034322" fill="none" stroke="#bf616a" stroke-width="2"/><text x="72" y="426" fill="#81a1c1" font-size="10" font-family="'Segoe UI', sans-serif" text-anchor="middle">Jun 24</text><text x="194.66666666666669" y="426" fill="#81a1c1" font-size="10" font-family="'Segoe UI', sans-serif" text-anchor="middle">Jun 29</text><text x="317.33333333333337" y="426" fill="#81a1c1" font-size="10" font-family="'Segoe UI', sans-serif" text-anchor="middle">Jul 4</text><text x="440" y="426" fill="#81a1c1" font-size="10" font-family="'Segoe UI', sans-serif" text-anchor="middle">Jul 9</text><text x="562.6666666666667" y="426" fill="#81a1c1" font-size="10" font-family="'Segoe UI', sans-serif" text-anchor="middle">Jul 14</text><text x="685.3333333333334" y="426" fill="#81a1c1" font-size="10" font-family="'Segoe UI', sans-serif" text-anchor="middle">Jul 19</text><text x="808" y="426" fill="#81a1c1" font-size="10" font-family="'Segoe UI', sans-serif" text-anchor="middle">Jul 24</text>
  </g>

  <g class="cpd-legend">
    
    <circle cx="30" cy="442" r="5" fill="#a3be8c"/>
    <text x="40" y="446" fill="#d8dee9" font-size="11" font-family="'Segoe UI', sans-serif">Additions</text>
    <circle cx="124" cy="442" r="5" fill="#bf616a"/>
    <text x="134" y="446" fill="#d8dee9" font-size="11" font-family="'Segoe UI', sans-serif">Deletions</text>
    <text x="816" y="446" fill="#81a1c1" font-size="10" font-family="'Segoe UI', sans-serif" text-anchor="end">Last 31 days · +137,089 / -26,573 lines</text>
  </g>

  <a href="https://github.com/mpge/code-per-day" target="_blank">
    <text x="420" y="452" fill="#81a1c1" font-size="10" font-family="'Segoe UI', sans-serif" text-anchor="middle" opacity="0.6">Get your own - github.com/mpge/code-per-day</text>
  </a>
</svg>