<svg width="840" height="460" viewBox="0 0 840 460" xmlns="http://www.w3.org/2000/svg">
  
    <style>
      @keyframes fadeInUp {
        from { opacity: 0; transform: translateY(12px); }
        to   { opacity: 1; transform: translateY(0); }
      }
      @keyframes growBar {
        from { transform: scaleY(0); }
        to   { transform: scaleY(1); }
      }
      .cpd-header  { animation: fadeInUp 0.5s ease both; }
      .cpd-stats   { animation: fadeInUp 0.5s ease 0.15s both; }
      .cpd-chart   { animation: fadeInUp 0.5s ease 0.3s both; }
      .cpd-legend  { animation: fadeInUp 0.5s ease 0.45s both; }
    </style>

  <rect width="840" height="460" rx="12" fill="#2e3440" stroke="#4c566a" stroke-width="1"/>

  <g class="cpd-header">
    <a href="https://github.com/mpge/code-per-day" target="_blank">
      <text x="24" y="44" fill="#eceff4" font-size="18" font-family="'Segoe UI', sans-serif" font-weight="700">Code Per Day</text>
    </a>
    <text x="816" y="44" fill="#81a1c1" font-size="13" font-family="'Segoe UI', sans-serif" text-anchor="end" font-weight="500">@mpge</text>
  </g>

  <g class="cpd-stats">
    
    <rect x="24" y="60" width="190" height="68" rx="8" fill="#2e3440" stroke="#4c566a" stroke-width="1"/>
    <text x="119" y="78" fill="#81a1c1" font-size="11" font-family="'Segoe UI', sans-serif" text-anchor="middle" font-weight="500">Today</text>
    <text x="119" y="100" fill="#a3be8c" font-size="16" font-family="'Segoe UI Mono', 'Cascadia Code', monospace" text-anchor="middle" font-weight="700">+0</text>
    <text x="119" y="118" fill="#bf616a" font-size="14" font-family="'Segoe UI Mono', 'Cascadia Code', monospace" text-anchor="middle" font-weight="600">+0</text>
    <rect x="222" y="60" width="190" height="68" rx="8" fill="#2e3440" stroke="#4c566a" stroke-width="1"/>
    <text x="317" y="78" fill="#81a1c1" font-size="11" font-family="'Segoe UI', sans-serif" text-anchor="middle" font-weight="500">30d Avg</text>
    <text x="317" y="100" fill="#a3be8c" font-size="16" font-family="'Segoe UI Mono', 'Cascadia Code', monospace" text-anchor="middle" font-weight="700">+8,300</text>
    <text x="317" y="118" fill="#bf616a" font-size="14" font-family="'Segoe UI Mono', 'Cascadia Code', monospace" text-anchor="middle" font-weight="600">-752</text>
    <rect x="420" y="60" width="190" height="68" rx="8" fill="#2e3440" stroke="#4c566a" stroke-width="1"/>
    <text x="515" y="78" fill="#81a1c1" font-size="11" font-family="'Segoe UI', sans-serif" text-anchor="middle" font-weight="500">Year Avg</text>
    <text x="515" y="100" fill="#a3be8c" font-size="16" font-family="'Segoe UI Mono', 'Cascadia Code', monospace" text-anchor="middle" font-weight="700">+14,090</text>
    <text x="515" y="118" fill="#bf616a" font-size="14" font-family="'Segoe UI Mono', 'Cascadia Code', monospace" text-anchor="middle" font-weight="600">-7,086</text>
    <rect x="618" y="60" width="190" height="68" rx="8" fill="#2e3440" stroke="#4c566a" stroke-width="1"/>
    <text x="713" y="78" fill="#81a1c1" font-size="11" font-family="'Segoe UI', sans-serif" text-anchor="middle" font-weight="500">Streak</text>
    <text x="713" y="104" fill="#88c0d0" font-size="20" font-family="'Segoe UI Mono', 'Cascadia Code', monospace" text-anchor="middle" font-weight="700">221</text>
    <text x="713" y="120" fill="#81a1c1" font-size="11" font-family="'Segoe UI', sans-serif" text-anchor="middle">days</text>
  </g>

  <g class="cpd-chart">
    <line x1="72" y1="148" x2="808" y2="148" stroke="#434c5e" stroke-width="1" stroke-dasharray="4,4"/><line x1="72" y1="213.5" x2="808" y2="213.5" stroke="#434c5e" stroke-width="1" stroke-dasharray="4,4"/><line x1="72" y1="279" x2="808" y2="279" stroke="#434c5e" stroke-width="1" stroke-dasharray="4,4"/><line x1="72" y1="344.5" x2="808" y2="344.5" stroke="#434c5e" stroke-width="1" stroke-dasharray="4,4"/><line x1="72" y1="410" x2="808" y2="410" stroke="#434c5e" stroke-width="1" stroke-dasharray="4,4"/><line x1="72" y1="279" x2="808" y2="279" stroke="#4c566a" stroke-width="1.5"/><text x="64" y="162" fill="#81a1c1" font-size="10" font-family="'Segoe UI', sans-serif" text-anchor="end">+10,363</text><text x="64" y="406" fill="#81a1c1" font-size="10" font-family="'Segoe UI', sans-serif" text-anchor="end">-10,363</text><text x="64" y="283" fill="#81a1c1" font-size="10" font-family="'Segoe UI', sans-serif" text-anchor="end">0</text><path d="M 72 279 L 72 276.75817813374505 L 96.53333333333333 279 L 121.06666666666666 257.7961015150053 L 145.60000000000002 279 L 170.13333333333333 229.42304352021614 L 194.66666666666669 279 L 219.20000000000002 278.1242883334942 L 243.73333333333335 274.35289008974235 L 268.26666666666665 279 L 292.8 270.6165203126508 L 317.33333333333337 279 L 341.8666666666667 262.31477371417543 L 366.40000000000003 221.5299623661102 L 390.93333333333334 213.94046125639295 L 415.4666666666667 243.14252629547428 L 440 158 L 464.53333333333336 179.15719386278104 L 489.0666666666667 158 L 513.6 194.21943452668148 L 538.1333333333334 197.78066197047187 L 562.6666666666667 257.5509022483837 L 587.2 262.43153526970957 L 611.7333333333333 226.2121007430281 L 636.2666666666667 158 L 660.8000000000001 241.84647302904563 L 685.3333333333334 249.45932644986974 L 709.8666666666667 275.1468686673743 L 734.4000000000001 279 L 758.9333333333334 275.9875518672199 L 783.4666666666667 270.9317765125929 L 808 279 L 808 279 Z" fill="#a3be8c" opacity="0.15"/><path d="M 72 279 L 72 276.75817813374505 L 96.53333333333333 279 L 121.06666666666666 257.7961015150053 L 145.60000000000002 279 L 170.13333333333333 229.42304352021614 L 194.66666666666669 279 L 219.20000000000002 278.1242883334942 L 243.73333333333335 274.35289008974235 L 268.26666666666665 279 L 292.8 270.6165203126508 L 317.33333333333337 279 L 341.8666666666667 262.31477371417543 L 366.40000000000003 221.5299623661102 L 390.93333333333334 213.94046125639295 L 415.4666666666667 243.14252629547428 L 440 158 L 464.53333333333336 179.15719386278104 L 489.0666666666667 158 L 513.6 194.21943452668148 L 538.1333333333334 197.78066197047187 L 562.6666666666667 257.5509022483837 L 587.2 262.43153526970957 L 611.7333333333333 226.2121007430281 L 636.2666666666667 158 L 660.8000000000001 241.84647302904563 L 685.3333333333334 249.45932644986974 L 709.8666666666667 275.1468686673743 L 734.4000000000001 279 L 758.9333333333334 275.9875518672199 L 783.4666666666667 270.9317765125929 L 808 279" fill="none" stroke="#a3be8c" stroke-width="2"/><path d="M 72 279 L 72 279.70056933320467 L 96.53333333333333 279 L 121.06666666666666 279.12843771108754 L 145.60000000000002 279 L 170.13333333333333 279.9574447553797 L 194.66666666666669 279 L 219.20000000000002 280.0391778442536 L 243.73333333333335 281.45199266621637 L 268.26666666666665 279 L 292.8 279.35028466660236 L 317.33333333333337 279 L 341.8666666666667 283.13335906590754 L 366.40000000000003 285.048248576667 L 390.93333333333334 290.31419473125544 L 415.4666666666667 280.29605326642866 L 440 344.90022194345266 L 464.53333333333336 289.43848306474956 L 489.0666666666667 310.3271253498022 L 513.6 292.1707034642478 L 538.1333333333334 279.79397857763195 L 562.6666666666667 280.96159413297306 L 587.2 280.00414937759336 L 611.7333333333333 282.3277043327222 L 636.2666666666667 375.6085110489241 L 660.8000000000001 286.70626266525136 L 685.3333333333334 287.0682234874071 L 709.8666666666667 279 L 734.4000000000001 279 L 758.9333333333334 280.7747756441185 L 783.4666666666667 280.6813663996912 L 808 279 L 808 279 Z" fill="#bf616a" opacity="0.15"/><path d="M 72 279 L 72 279.70056933320467 L 96.53333333333333 279 L 121.06666666666666 279.12843771108754 L 145.60000000000002 279 L 170.13333333333333 279.9574447553797 L 194.66666666666669 279 L 219.20000000000002 280.0391778442536 L 243.73333333333335 281.45199266621637 L 268.26666666666665 279 L 292.8 279.35028466660236 L 317.33333333333337 279 L 341.8666666666667 283.13335906590754 L 366.40000000000003 285.048248576667 L 390.93333333333334 290.31419473125544 L 415.4666666666667 280.29605326642866 L 440 344.90022194345266 L 464.53333333333336 289.43848306474956 L 489.0666666666667 310.3271253498022 L 513.6 292.1707034642478 L 538.1333333333334 279.79397857763195 L 562.6666666666667 280.96159413297306 L 587.2 280.00414937759336 L 611.7333333333333 282.3277043327222 L 636.2666666666667 375.6085110489241 L 660.8000000000001 286.70626266525136 L 685.3333333333334 287.0682234874071 L 709.8666666666667 279 L 734.4000000000001 279 L 758.9333333333334 280.7747756441185 L 783.4666666666667 280.6813663996912 L 808 279" fill="none" stroke="#bf616a" stroke-width="2"/><text x="72" y="426" fill="#81a1c1" font-size="10" font-family="'Segoe UI', sans-serif" text-anchor="middle">Jun 6</text><text x="194.66666666666669" y="426" fill="#81a1c1" font-size="10" font-family="'Segoe UI', sans-serif" text-anchor="middle">Jun 11</text><text x="317.33333333333337" y="426" fill="#81a1c1" font-size="10" font-family="'Segoe UI', sans-serif" text-anchor="middle">Jun 16</text><text x="440" y="426" fill="#81a1c1" font-size="10" font-family="'Segoe UI', sans-serif" text-anchor="middle">Jun 21</text><text x="562.6666666666667" y="426" fill="#81a1c1" font-size="10" font-family="'Segoe UI', sans-serif" text-anchor="middle">Jun 26</text><text x="685.3333333333334" y="426" fill="#81a1c1" font-size="10" font-family="'Segoe UI', sans-serif" text-anchor="middle">Jul 1</text><text x="808" y="426" fill="#81a1c1" font-size="10" font-family="'Segoe UI', sans-serif" text-anchor="middle">Jul 6</text>
  </g>

  <g class="cpd-legend">
    
    <circle cx="30" cy="442" r="5" fill="#a3be8c"/>
    <text x="40" y="446" fill="#d8dee9" font-size="11" font-family="'Segoe UI', sans-serif">Additions</text>
    <circle cx="124" cy="442" r="5" fill="#bf616a"/>
    <text x="134" y="446" fill="#d8dee9" font-size="11" font-family="'Segoe UI', sans-serif">Deletions</text>
    <text x="816" y="446" fill="#81a1c1" font-size="10" font-family="'Segoe UI', sans-serif" text-anchor="end">Last 31 days · +257,290 / -23,311 lines</text>
  </g>

  <a href="https://github.com/mpge/code-per-day" target="_blank">
    <text x="420" y="452" fill="#81a1c1" font-size="10" font-family="'Segoe UI', sans-serif" text-anchor="middle" opacity="0.6">Get your own - github.com/mpge/code-per-day</text>
  </a>
</svg>