<svg width="840" height="460" viewBox="0 0 840 460" xmlns="http://www.w3.org/2000/svg">
  
    <style>
      @keyframes fadeInUp {
        from { opacity: 0; transform: translateY(12px); }
        to   { opacity: 1; transform: translateY(0); }
      }
      @keyframes growBar {
        from { transform: scaleY(0); }
        to   { transform: scaleY(1); }
      }
      .cpd-header  { animation: fadeInUp 0.5s ease both; }
      .cpd-stats   { animation: fadeInUp 0.5s ease 0.15s both; }
      .cpd-chart   { animation: fadeInUp 0.5s ease 0.3s both; }
      .cpd-legend  { animation: fadeInUp 0.5s ease 0.45s both; }
    </style>

  <rect width="840" height="460" rx="12" fill="#1a1028" stroke="#3d2660" stroke-width="1"/>

  <g class="cpd-header">
    <a href="https://github.com/mpge/code-per-day" target="_blank">
      <text x="24" y="44" fill="#f0d0ff" font-size="18" font-family="'Segoe UI', sans-serif" font-weight="700">Code Per Day</text>
    </a>
    <text x="816" y="44" fill="#7a5a8e" font-size="13" font-family="'Segoe UI', sans-serif" text-anchor="end" font-weight="500">@mpge</text>
  </g>

  <g class="cpd-stats">
    
    <rect x="24" y="60" width="190" height="68" rx="8" fill="#160e22" stroke="#3d2660" stroke-width="1"/>
    <text x="119" y="78" fill="#7a5a8e" font-size="11" font-family="'Segoe UI', sans-serif" text-anchor="middle" font-weight="500">Today</text>
    <text x="119" y="100" fill="#ffb86c" font-size="16" font-family="'Segoe UI Mono', 'Cascadia Code', monospace" text-anchor="middle" font-weight="700">+2,055</text>
    <text x="119" y="118" fill="#ff79c6" font-size="14" font-family="'Segoe UI Mono', 'Cascadia Code', monospace" text-anchor="middle" font-weight="600">-151</text>
    <rect x="222" y="60" width="190" height="68" rx="8" fill="#160e22" stroke="#3d2660" stroke-width="1"/>
    <text x="317" y="78" fill="#7a5a8e" font-size="11" font-family="'Segoe UI', sans-serif" text-anchor="middle" font-weight="500">30d Avg</text>
    <text x="317" y="100" fill="#ffb86c" font-size="16" font-family="'Segoe UI Mono', 'Cascadia Code', monospace" text-anchor="middle" font-weight="700">+8,094</text>
    <text x="317" y="118" fill="#ff79c6" font-size="14" font-family="'Segoe UI Mono', 'Cascadia Code', monospace" text-anchor="middle" font-weight="600">-682</text>
    <rect x="420" y="60" width="190" height="68" rx="8" fill="#160e22" stroke="#3d2660" stroke-width="1"/>
    <text x="515" y="78" fill="#7a5a8e" font-size="11" font-family="'Segoe UI', sans-serif" text-anchor="middle" font-weight="500">Year Avg</text>
    <text x="515" y="100" fill="#ffb86c" font-size="16" font-family="'Segoe UI Mono', 'Cascadia Code', monospace" text-anchor="middle" font-weight="700">+25,995</text>
    <text x="515" y="118" fill="#ff79c6" font-size="14" font-family="'Segoe UI Mono', 'Cascadia Code', monospace" text-anchor="middle" font-weight="600">-7,073</text>
    <rect x="618" y="60" width="190" height="68" rx="8" fill="#160e22" stroke="#3d2660" stroke-width="1"/>
    <text x="713" y="78" fill="#7a5a8e" font-size="11" font-family="'Segoe UI', sans-serif" text-anchor="middle" font-weight="500">Streak</text>
    <text x="713" y="104" fill="#ff79c6" font-size="20" font-family="'Segoe UI Mono', 'Cascadia Code', monospace" text-anchor="middle" font-weight="700">230</text>
    <text x="713" y="120" fill="#7a5a8e" font-size="11" font-family="'Segoe UI', sans-serif" text-anchor="middle">days</text>
  </g>

  <g class="cpd-chart">
    <line x1="72" y1="148" x2="808" y2="148" stroke="#2d1c44" stroke-width="1" stroke-dasharray="4,4"/><line x1="72" y1="213.5" x2="808" y2="213.5" stroke="#2d1c44" stroke-width="1" stroke-dasharray="4,4"/><line x1="72" y1="279" x2="808" y2="279" stroke="#2d1c44" stroke-width="1" stroke-dasharray="4,4"/><line x1="72" y1="344.5" x2="808" y2="344.5" stroke="#2d1c44" stroke-width="1" stroke-dasharray="4,4"/><line x1="72" y1="410" x2="808" y2="410" stroke="#2d1c44" stroke-width="1" stroke-dasharray="4,4"/><line x1="72" y1="279" x2="808" y2="279" stroke="#3d2660" stroke-width="1.5"/><text x="64" y="162" fill="#7a5a8e" font-size="10" font-family="'Segoe UI', sans-serif" text-anchor="end">+7,663</text><text x="64" y="406" fill="#7a5a8e" font-size="10" font-family="'Segoe UI', sans-serif" text-anchor="end">-7,663</text><text x="64" y="283" fill="#7a5a8e" font-size="10" font-family="'Segoe UI', sans-serif" text-anchor="end">0</text><path d="M 72 279 L 72 267.6626647527078 L 96.53333333333333 279 L 121.06666666666666 262.8150854756623 L 145.60000000000002 201.2808299621558 L 170.13333333333333 191.01722562964898 L 194.66666666666669 230.50841706903302 L 219.20000000000002 158 L 243.73333333333335 158 L 268.26666666666665 158 L 292.8 164.3476445256427 L 317.33333333333337 169.16364348166513 L 341.8666666666667 249.9934751402845 L 366.40000000000003 256.6095523946235 L 390.93333333333334 279 L 415.4666666666667 158 L 440 228.75570925225108 L 464.53333333333336 239.05089390578104 L 489.0666666666667 273.78924703118884 L 513.6 279 L 538.1333333333334 279 L 562.6666666666667 268.08899908651966 L 587.2 279 L 611.7333333333333 257.9201357170821 L 636.2666666666667 270.71016573143675 L 660.8000000000001 279 L 685.3333333333334 279 L 709.8666666666667 255.67793292444213 L 734.4000000000001 276.8209578494062 L 758.9333333333334 279 L 783.4666666666667 278.9052590369307 L 808 246.5512201487668 L 808 279 Z" fill="#ffb86c" opacity="0.15"/><path d="M 72 279 L 72 267.6626647527078 L 96.53333333333333 279 L 121.06666666666666 262.8150854756623 L 145.60000000000002 201.2808299621558 L 170.13333333333333 191.01722562964898 L 194.66666666666669 230.50841706903302 L 219.20000000000002 158 L 243.73333333333335 158 L 268.26666666666665 158 L 292.8 164.3476445256427 L 317.33333333333337 169.16364348166513 L 341.8666666666667 249.9934751402845 L 366.40000000000003 256.6095523946235 L 390.93333333333334 279 L 415.4666666666667 158 L 440 228.75570925225108 L 464.53333333333336 239.05089390578104 L 489.0666666666667 273.78924703118884 L 513.6 279 L 538.1333333333334 279 L 562.6666666666667 268.08899908651966 L 587.2 279 L 611.7333333333333 257.9201357170821 L 636.2666666666667 270.71016573143675 L 660.8000000000001 279 L 685.3333333333334 279 L 709.8666666666667 255.67793292444213 L 734.4000000000001 276.8209578494062 L 758.9333333333334 279 L 783.4666666666667 278.9052590369307 L 808 246.5512201487668" fill="none" stroke="#ffb86c" stroke-width="2"/><path d="M 72 279 L 72 279.4737048153465 L 96.53333333333333 279 L 121.06666666666666 282.9317499673757 L 145.60000000000002 287.1793031449824 L 170.13333333333333 294.300665535691 L 194.66666666666669 280.75270781678194 L 219.20000000000002 368.11966592718255 L 243.73333333333335 286.2318935142894 L 268.26666666666665 282.07908129975203 L 292.8 296.81130105702726 L 317.33333333333337 280.07373091478536 L 341.8666666666667 281.65274696594025 L 366.40000000000003 280.29479316194704 L 390.93333333333334 279 L 415.4666666666667 400 L 440 289.4215059376223 L 464.53333333333336 289.91100091348034 L 489.0666666666667 279 L 513.6 279 L 538.1333333333334 279 L 562.6666666666667 281.27378311366306 L 587.2 279 L 611.7333333333333 279.6000260994389 L 636.2666666666667 287.0687720214015 L 660.8000000000001 279 L 685.3333333333334 279 L 709.8666666666667 294.96385227717604 L 734.4000000000001 279.42633433381184 L 758.9333333333334 279 L 783.4666666666667 279 L 808 281.3843142372439 L 808 279 Z" fill="#ff79c6" opacity="0.15"/><path d="M 72 279 L 72 279.4737048153465 L 96.53333333333333 279 L 121.06666666666666 282.9317499673757 L 145.60000000000002 287.1793031449824 L 170.13333333333333 294.300665535691 L 194.66666666666669 280.75270781678194 L 219.20000000000002 368.11966592718255 L 243.73333333333335 286.2318935142894 L 268.26666666666665 282.07908129975203 L 292.8 296.81130105702726 L 317.33333333333337 280.07373091478536 L 341.8666666666667 281.65274696594025 L 366.40000000000003 280.29479316194704 L 390.93333333333334 279 L 415.4666666666667 400 L 440 289.4215059376223 L 464.53333333333336 289.91100091348034 L 489.0666666666667 279 L 513.6 279 L 538.1333333333334 279 L 562.6666666666667 281.27378311366306 L 587.2 279 L 611.7333333333333 279.6000260994389 L 636.2666666666667 287.0687720214015 L 660.8000000000001 279 L 685.3333333333334 279 L 709.8666666666667 294.96385227717604 L 734.4000000000001 279.42633433381184 L 758.9333333333334 279 L 783.4666666666667 279 L 808 281.3843142372439" fill="none" stroke="#ff79c6" stroke-width="2"/><text x="72" y="426" fill="#7a5a8e" font-size="10" font-family="'Segoe UI', sans-serif" text-anchor="middle">Jun 15</text><text x="194.66666666666669" y="426" fill="#7a5a8e" font-size="10" font-family="'Segoe UI', sans-serif" text-anchor="middle">Jun 20</text><text x="317.33333333333337" y="426" fill="#7a5a8e" font-size="10" font-family="'Segoe UI', sans-serif" text-anchor="middle">Jun 25</text><text x="440" y="426" fill="#7a5a8e" font-size="10" font-family="'Segoe UI', sans-serif" text-anchor="middle">Jun 30</text><text x="562.6666666666667" y="426" fill="#7a5a8e" font-size="10" font-family="'Segoe UI', sans-serif" text-anchor="middle">Jul 5</text><text x="685.3333333333334" y="426" fill="#7a5a8e" font-size="10" font-family="'Segoe UI', sans-serif" text-anchor="middle">Jul 10</text><text x="808" y="426" fill="#7a5a8e" font-size="10" font-family="'Segoe UI', sans-serif" text-anchor="middle">Jul 15</text>
  </g>

  <g class="cpd-legend">
    
    <circle cx="30" cy="442" r="5" fill="#ffb86c"/>
    <text x="40" y="446" fill="#c4a0d8" font-size="11" font-family="'Segoe UI', sans-serif">Additions</text>
    <circle cx="124" cy="442" r="5" fill="#ff79c6"/>
    <text x="134" y="446" fill="#c4a0d8" font-size="11" font-family="'Segoe UI', sans-serif">Deletions</text>
    <text x="816" y="446" fill="#7a5a8e" font-size="10" font-family="'Segoe UI', sans-serif" text-anchor="end">Last 31 days · +250,915 / -21,127 lines</text>
  </g>

  <a href="https://github.com/mpge/code-per-day" target="_blank">
    <text x="420" y="452" fill="#7a5a8e" font-size="10" font-family="'Segoe UI', sans-serif" text-anchor="middle" opacity="0.6">Get your own - github.com/mpge/code-per-day</text>
  </a>
</svg>