<svg width="840" height="460" viewBox="0 0 840 460" xmlns="http://www.w3.org/2000/svg">
  
    <style>
      @keyframes fadeInUp {
        from { opacity: 0; transform: translateY(12px); }
        to   { opacity: 1; transform: translateY(0); }
      }
      @keyframes growBar {
        from { transform: scaleY(0); }
        to   { transform: scaleY(1); }
      }
      .cpd-header  { animation: fadeInUp 0.5s ease both; }
      .cpd-stats   { animation: fadeInUp 0.5s ease 0.15s both; }
      .cpd-chart   { animation: fadeInUp 0.5s ease 0.3s both; }
      .cpd-legend  { animation: fadeInUp 0.5s ease 0.45s both; }
    </style>

  <!-- Background -->
  <rect width="840" height="460" rx="12" fill="#282a36" stroke="#44475a" stroke-width="1"/>

  <!-- Header -->
  <g class="cpd-header">
    <a href="https://github.com/mpge/code-per-day" target="_blank">
      <text x="24" y="44" fill="#f8f8f2" font-size="18" font-family="'Segoe UI', sans-serif" font-weight="700">Code Per Day</text>
    </a>
    <text x="816" y="44" fill="#6272a4" font-size="13" font-family="'Segoe UI', sans-serif" text-anchor="end" font-weight="500">@mpge</text>
  </g>

  <!-- Stats Cards -->
  <g class="cpd-stats">
    
    <rect x="24" y="60" width="190" height="68" rx="8" fill="#21222c" stroke="#44475a" stroke-width="1"/>
    <text x="119" y="78" fill="#6272a4" font-size="11" font-family="'Segoe UI', sans-serif" text-anchor="middle" font-weight="500">Today</text>
    <text x="119" y="100" fill="#50fa7b" font-size="16" font-family="'Segoe UI Mono', 'Cascadia Code', monospace" text-anchor="middle" font-weight="700">+86,373</text>
    <text x="119" y="118" fill="#ff5555" font-size="14" font-family="'Segoe UI Mono', 'Cascadia Code', monospace" text-anchor="middle" font-weight="600">-4,632</text>
    <rect x="222" y="60" width="190" height="68" rx="8" fill="#21222c" stroke="#44475a" stroke-width="1"/>
    <text x="317" y="78" fill="#6272a4" font-size="11" font-family="'Segoe UI', sans-serif" text-anchor="middle" font-weight="500">30d Avg</text>
    <text x="317" y="100" fill="#50fa7b" font-size="16" font-family="'Segoe UI Mono', 'Cascadia Code', monospace" text-anchor="middle" font-weight="700">+213,539</text>
    <text x="317" y="118" fill="#ff5555" font-size="14" font-family="'Segoe UI Mono', 'Cascadia Code', monospace" text-anchor="middle" font-weight="600">-56,690</text>
    <rect x="420" y="60" width="190" height="68" rx="8" fill="#21222c" stroke="#44475a" stroke-width="1"/>
    <text x="515" y="78" fill="#6272a4" font-size="11" font-family="'Segoe UI', sans-serif" text-anchor="middle" font-weight="500">Year Avg</text>
    <text x="515" y="100" fill="#50fa7b" font-size="16" font-family="'Segoe UI Mono', 'Cascadia Code', monospace" text-anchor="middle" font-weight="700">+22,010</text>
    <text x="515" y="118" fill="#ff5555" font-size="14" font-family="'Segoe UI Mono', 'Cascadia Code', monospace" text-anchor="middle" font-weight="600">-6,377</text>
        <rect x="618" y="60" width="190" height="68" rx="8" fill="#21222c" stroke="#44475a" stroke-width="1"/>
        <text x="713" y="78" fill="#6272a4" font-size="11" font-family="'Segoe UI', sans-serif" text-anchor="middle" font-weight="500">Streak</text>
        <text x="713" y="104" fill="#8be9fd" font-size="20" font-family="'Segoe UI Mono', 'Cascadia Code', monospace" text-anchor="middle" font-weight="700">148</text>
        <text x="713" y="120" fill="#6272a4" font-size="11" font-family="'Segoe UI', sans-serif" text-anchor="middle">days</text>
  </g>

  <!-- Chart -->
  <g class="cpd-chart">
    <line x1="72" y1="148" x2="808" y2="148" stroke="#383a4a" stroke-width="1" stroke-dasharray="4,4"/><line x1="72" y1="213.5" x2="808" y2="213.5" stroke="#383a4a" stroke-width="1" stroke-dasharray="4,4"/><line x1="72" y1="279" x2="808" y2="279" stroke="#383a4a" stroke-width="1" stroke-dasharray="4,4"/><line x1="72" y1="344.5" x2="808" y2="344.5" stroke="#383a4a" stroke-width="1" stroke-dasharray="4,4"/><line x1="72" y1="410" x2="808" y2="410" stroke="#383a4a" stroke-width="1" stroke-dasharray="4,4"/><line x1="72" y1="279" x2="808" y2="279" stroke="#44475a" stroke-width="1.5"/><text x="64" y="162" fill="#6272a4" font-size="10" font-family="'Segoe UI', sans-serif" text-anchor="end">+38,455</text><text x="64" y="406" fill="#6272a4" font-size="10" font-family="'Segoe UI', sans-serif" text-anchor="end">-38,455</text><text x="64" y="283" fill="#6272a4" font-size="10" font-family="'Segoe UI', sans-serif" text-anchor="end">0</text><path d="M 72 279 L 72 229.55849694448057 L 96.53333333333333 279 L 121.06666666666666 278.8175009751658 L 145.60000000000002 279 L 170.13333333333333 252.61945130672214 L 194.66666666666669 277.1875958913015 L 219.20000000000002 279 L 243.73333333333335 274.2864907034196 L 268.26666666666665 279 L 292.8 279 L 317.33333333333337 222.04142504225717 L 341.8666666666667 158 L 366.40000000000003 158 L 390.93333333333334 158.81809907684305 L 415.4666666666667 158 L 440 158 L 464.53333333333336 239.04215316603822 L 489.0666666666667 258.4405408919516 L 513.6 158 L 538.1333333333334 254.20845143674424 L 562.6666666666667 278.8489663242751 L 587.2 279 L 611.7333333333333 278.83323364972046 L 636.2666666666667 279 L 660.8000000000001 262.7921986737745 L 685.3333333333334 233.53257053699127 L 709.8666666666667 256.8515407619295 L 734.4000000000001 264.39063840852947 L 758.9333333333334 278.98426732544533 L 783.4666666666667 197.3914705499935 L 808 158 L 808 279 Z" fill="#50fa7b" opacity="0.15"/><path d="M 72 279 L 72 229.55849694448057 L 96.53333333333333 279 L 121.06666666666666 278.8175009751658 L 145.60000000000002 279 L 170.13333333333333 252.61945130672214 L 194.66666666666669 277.1875958913015 L 219.20000000000002 279 L 243.73333333333335 274.2864907034196 L 268.26666666666665 279 L 292.8 279 L 317.33333333333337 222.04142504225717 L 341.8666666666667 158 L 366.40000000000003 158 L 390.93333333333334 158.81809907684305 L 415.4666666666667 158 L 440 158 L 464.53333333333336 239.04215316603822 L 489.0666666666667 258.4405408919516 L 513.6 158 L 538.1333333333334 254.20845143674424 L 562.6666666666667 278.8489663242751 L 587.2 279 L 611.7333333333333 278.83323364972046 L 636.2666666666667 279 L 660.8000000000001 262.7921986737745 L 685.3333333333334 233.53257053699127 L 709.8666666666667 256.8515407619295 L 734.4000000000001 264.39063840852947 L 758.9333333333334 278.98426732544533 L 783.4666666666667 197.3914705499935 L 808 158" fill="none" stroke="#50fa7b" stroke-width="2"/><path d="M 72 279 L 72 288.36094136003123 L 96.53333333333333 279 L 121.06666666666666 279.11642179170457 L 145.60000000000002 279 L 170.13333333333333 279.53491093485894 L 194.66666666666669 279 L 219.20000000000002 279 L 243.73333333333335 280.79037836432195 L 268.26666666666665 279 L 292.8 279 L 317.33333333333337 279.1258613964374 L 341.8666666666667 400 L 366.40000000000003 301.20509686646733 L 390.93333333333334 335.66280067611495 L 415.4666666666667 292.2123000910155 L 440 317.9131972435314 L 464.53333333333336 285.5290599401898 L 489.0666666666667 285.3969054739306 L 513.6 281.945156676635 L 538.1333333333334 279.92508126381483 L 562.6666666666667 294.30474580678714 L 587.2 279 L 611.7333333333333 279.1415940709921 L 636.2666666666667 279 L 660.8000000000001 279.35870497984655 L 685.3333333333334 281.59589130152125 L 709.8666666666667 285.27733714731505 L 734.4000000000001 279.195085164478 L 758.9333333333334 279 L 783.4666666666667 280.73688727083606 L 808 293.5747497074503 L 808 279 Z" fill="#ff5555" opacity="0.15"/><path d="M 72 279 L 72 288.36094136003123 L 96.53333333333333 279 L 121.06666666666666 279.11642179170457 L 145.60000000000002 279 L 170.13333333333333 279.53491093485894 L 194.66666666666669 279 L 219.20000000000002 279 L 243.73333333333335 280.79037836432195 L 268.26666666666665 279 L 292.8 279 L 317.33333333333337 279.1258613964374 L 341.8666666666667 400 L 366.40000000000003 301.20509686646733 L 390.93333333333334 335.66280067611495 L 415.4666666666667 292.2123000910155 L 440 317.9131972435314 L 464.53333333333336 285.5290599401898 L 489.0666666666667 285.3969054739306 L 513.6 281.945156676635 L 538.1333333333334 279.92508126381483 L 562.6666666666667 294.30474580678714 L 587.2 279 L 611.7333333333333 279.1415940709921 L 636.2666666666667 279 L 660.8000000000001 279.35870497984655 L 685.3333333333334 281.59589130152125 L 709.8666666666667 285.27733714731505 L 734.4000000000001 279.195085164478 L 758.9333333333334 279 L 783.4666666666667 280.73688727083606 L 808 293.5747497074503" fill="none" stroke="#ff5555" stroke-width="2"/><text x="72" y="426" fill="#6272a4" font-size="10" font-family="'Segoe UI', sans-serif" text-anchor="middle">Mar 25</text><text x="194.66666666666669" y="426" fill="#6272a4" font-size="10" font-family="'Segoe UI', sans-serif" text-anchor="middle">Mar 30</text><text x="317.33333333333337" y="426" fill="#6272a4" font-size="10" font-family="'Segoe UI', sans-serif" text-anchor="middle">Apr 4</text><text x="440" y="426" fill="#6272a4" font-size="10" font-family="'Segoe UI', sans-serif" text-anchor="middle">Apr 9</text><text x="562.6666666666667" y="426" fill="#6272a4" font-size="10" font-family="'Segoe UI', sans-serif" text-anchor="middle">Apr 14</text><text x="685.3333333333334" y="426" fill="#6272a4" font-size="10" font-family="'Segoe UI', sans-serif" text-anchor="middle">Apr 19</text><text x="808" y="426" fill="#6272a4" font-size="10" font-family="'Segoe UI', sans-serif" text-anchor="middle">Apr 24</text>
  </g>

  <!-- Legend -->
  <g class="cpd-legend">
    <circle cx="30" cy="442" r="5" fill="#50fa7b"/>
    <text x="40" y="446" fill="#bd93f9" font-size="11" font-family="'Segoe UI', sans-serif">Additions</text>
    <circle cx="124" cy="442" r="5" fill="#ff5555"/>
    <text x="134" y="446" fill="#bd93f9" font-size="11" font-family="'Segoe UI', sans-serif">Deletions</text>
    <text x="816" y="446" fill="#6272a4" font-size="10" font-family="'Segoe UI', sans-serif" text-anchor="end">Last 31 days · +6,619,701 / -1,757,382 lines</text>
  </g>

  <!-- Get your own -->
  <a href="https://github.com/mpge/code-per-day" target="_blank">
    <text x="420" y="452" fill="#6272a4" font-size="10" font-family="'Segoe UI', sans-serif" text-anchor="middle" opacity="0.6">Get your own — github.com/mpge/code-per-day</text>
  </a>
</svg>