<svg width="840" height="460" viewBox="0 0 840 460" xmlns="http://www.w3.org/2000/svg">
  
    <style>
      @keyframes fadeInUp {
        from { opacity: 0; transform: translateY(12px); }
        to   { opacity: 1; transform: translateY(0); }
      }
      @keyframes growBar {
        from { transform: scaleY(0); }
        to   { transform: scaleY(1); }
      }
      .cpd-header  { animation: fadeInUp 0.5s ease both; }
      .cpd-stats   { animation: fadeInUp 0.5s ease 0.15s both; }
      .cpd-chart   { animation: fadeInUp 0.5s ease 0.3s both; }
      .cpd-legend  { animation: fadeInUp 0.5s ease 0.45s both; }
    </style>

  <rect width="840" height="460" rx="12" fill="#2e3440" stroke="#4c566a" stroke-width="1"/>

  <g class="cpd-header">
    <a href="https://github.com/mpge/code-per-day" target="_blank">
      <text x="24" y="44" fill="#eceff4" font-size="18" font-family="'Segoe UI', sans-serif" font-weight="700">Code Per Day</text>
    </a>
    <text x="816" y="44" fill="#81a1c1" font-size="13" font-family="'Segoe UI', sans-serif" text-anchor="end" font-weight="500">@mpge</text>
  </g>

  <g class="cpd-stats">
    
    <rect x="24" y="60" width="190" height="68" rx="8" fill="#2e3440" stroke="#4c566a" stroke-width="1"/>
    <text x="119" y="78" fill="#81a1c1" font-size="11" font-family="'Segoe UI', sans-serif" text-anchor="middle" font-weight="500">Today</text>
    <text x="119" y="100" fill="#a3be8c" font-size="16" font-family="'Segoe UI Mono', 'Cascadia Code', monospace" text-anchor="middle" font-weight="700">+1,991</text>
    <text x="119" y="118" fill="#bf616a" font-size="14" font-family="'Segoe UI Mono', 'Cascadia Code', monospace" text-anchor="middle" font-weight="600">-143</text>
    <rect x="222" y="60" width="190" height="68" rx="8" fill="#2e3440" stroke="#4c566a" stroke-width="1"/>
    <text x="317" y="78" fill="#81a1c1" font-size="11" font-family="'Segoe UI', sans-serif" text-anchor="middle" font-weight="500">30d Avg</text>
    <text x="317" y="100" fill="#a3be8c" font-size="16" font-family="'Segoe UI Mono', 'Cascadia Code', monospace" text-anchor="middle" font-weight="700">+37,471</text>
    <text x="317" y="118" fill="#bf616a" font-size="14" font-family="'Segoe UI Mono', 'Cascadia Code', monospace" text-anchor="middle" font-weight="600">-5,092</text>
    <rect x="420" y="60" width="190" height="68" rx="8" fill="#2e3440" stroke="#4c566a" stroke-width="1"/>
    <text x="515" y="78" fill="#81a1c1" font-size="11" font-family="'Segoe UI', sans-serif" text-anchor="middle" font-weight="500">Year Avg</text>
    <text x="515" y="100" fill="#a3be8c" font-size="16" font-family="'Segoe UI Mono', 'Cascadia Code', monospace" text-anchor="middle" font-weight="700">+24,984</text>
    <text x="515" y="118" fill="#bf616a" font-size="14" font-family="'Segoe UI Mono', 'Cascadia Code', monospace" text-anchor="middle" font-weight="600">-6,779</text>
    <rect x="618" y="60" width="190" height="68" rx="8" fill="#2e3440" stroke="#4c566a" stroke-width="1"/>
    <text x="713" y="78" fill="#81a1c1" font-size="11" font-family="'Segoe UI', sans-serif" text-anchor="middle" font-weight="500">Streak</text>
    <text x="713" y="104" fill="#88c0d0" font-size="20" font-family="'Segoe UI Mono', 'Cascadia Code', monospace" text-anchor="middle" font-weight="700">179</text>
    <text x="713" y="120" fill="#81a1c1" font-size="11" font-family="'Segoe UI', sans-serif" text-anchor="middle">days</text>
  </g>

  <g class="cpd-chart">
    <line x1="72" y1="148" x2="808" y2="148" stroke="#434c5e" stroke-width="1" stroke-dasharray="4,4"/><line x1="72" y1="213.5" x2="808" y2="213.5" stroke="#434c5e" stroke-width="1" stroke-dasharray="4,4"/><line x1="72" y1="279" x2="808" y2="279" stroke="#434c5e" stroke-width="1" stroke-dasharray="4,4"/><line x1="72" y1="344.5" x2="808" y2="344.5" stroke="#434c5e" stroke-width="1" stroke-dasharray="4,4"/><line x1="72" y1="410" x2="808" y2="410" stroke="#434c5e" stroke-width="1" stroke-dasharray="4,4"/><line x1="72" y1="279" x2="808" y2="279" stroke="#4c566a" stroke-width="1.5"/><text x="64" y="162" fill="#81a1c1" font-size="10" font-family="'Segoe UI', sans-serif" text-anchor="end">+29,850</text><text x="64" y="406" fill="#81a1c1" font-size="10" font-family="'Segoe UI', sans-serif" text-anchor="end">-29,850</text><text x="64" y="283" fill="#81a1c1" font-size="10" font-family="'Segoe UI', sans-serif" text-anchor="end">0</text><path d="M 72 279 L 72 269.9888442211055 L 96.53333333333333 167.14492462311557 L 121.06666666666666 158 L 145.60000000000002 232.8619095477387 L 170.13333333333333 268.6835845896147 L 194.66666666666669 222.68331658291459 L 219.20000000000002 244.04579564489111 L 243.73333333333335 158 L 268.26666666666665 254.2324958123953 L 292.8 265.3434170854271 L 317.33333333333337 187.89530988274709 L 341.8666666666667 246.1860971524288 L 366.40000000000003 204.25159128978225 L 390.93333333333334 158 L 415.4666666666667 273.7181574539363 L 440 230.53108877721942 L 464.53333333333336 217.87979899497486 L 489.0666666666667 265.14073701842545 L 513.6 243.6809715242881 L 538.1333333333334 262.542378559464 L 562.6666666666667 259.46569514237854 L 587.2 277.0867001675042 L 611.7333333333333 158 L 636.2666666666667 158 L 660.8000000000001 158 L 685.3333333333334 189.64241206030152 L 709.8666666666667 276.60026800670016 L 734.4000000000001 259.82241206030153 L 758.9333333333334 227.49899497487436 L 783.4666666666667 225.36274706867673 L 808 270.9292797319933 L 808 279 Z" fill="#a3be8c" opacity="0.15"/><path d="M 72 279 L 72 269.9888442211055 L 96.53333333333333 167.14492462311557 L 121.06666666666666 158 L 145.60000000000002 232.8619095477387 L 170.13333333333333 268.6835845896147 L 194.66666666666669 222.68331658291459 L 219.20000000000002 244.04579564489111 L 243.73333333333335 158 L 268.26666666666665 254.2324958123953 L 292.8 265.3434170854271 L 317.33333333333337 187.89530988274709 L 341.8666666666667 246.1860971524288 L 366.40000000000003 204.25159128978225 L 390.93333333333334 158 L 415.4666666666667 273.7181574539363 L 440 230.53108877721942 L 464.53333333333336 217.87979899497486 L 489.0666666666667 265.14073701842545 L 513.6 243.6809715242881 L 538.1333333333334 262.542378559464 L 562.6666666666667 259.46569514237854 L 587.2 277.0867001675042 L 611.7333333333333 158 L 636.2666666666667 158 L 660.8000000000001 158 L 685.3333333333334 189.64241206030152 L 709.8666666666667 276.60026800670016 L 734.4000000000001 259.82241206030153 L 758.9333333333334 227.49899497487436 L 783.4666666666667 225.36274706867673 L 808 270.9292797319933" fill="none" stroke="#a3be8c" stroke-width="2"/><path d="M 72 279 L 72 279.33644891122276 L 96.53333333333333 284.0345728643216 L 121.06666666666666 282.5874371859297 L 145.60000000000002 300.41922948073704 L 170.13333333333333 281.1929983249581 L 194.66666666666669 297.88167504187606 L 219.20000000000002 285.4979229480737 L 243.73333333333335 312.0733333333333 L 268.26666666666665 290.5527638190955 L 292.8 284.1683417085427 L 317.33333333333337 286.4910552763819 L 341.8666666666667 282.1577554438861 L 366.40000000000003 297.8249246231156 L 390.93333333333334 400 L 415.4666666666667 281.0916582914573 L 440 283.4022110552764 L 464.53333333333336 290.21226130653264 L 489.0666666666667 279.3891457286432 L 513.6 292.47417085427134 L 538.1333333333334 282.91577889447234 L 562.6666666666667 281.1484087102178 L 587.2 279.39319932998325 L 611.7333333333333 284.28589614740366 L 636.2666666666667 289.71366834170857 L 660.8000000000001 400 L 685.3333333333334 314.31092127303185 L 709.8666666666667 280.5890117252931 L 734.4000000000001 293.763216080402 L 758.9333333333334 301.05564489112226 L 783.4666666666667 294.97929648241205 L 808 279.5796649916248 L 808 279 Z" fill="#bf616a" opacity="0.15"/><path d="M 72 279 L 72 279.33644891122276 L 96.53333333333333 284.0345728643216 L 121.06666666666666 282.5874371859297 L 145.60000000000002 300.41922948073704 L 170.13333333333333 281.1929983249581 L 194.66666666666669 297.88167504187606 L 219.20000000000002 285.4979229480737 L 243.73333333333335 312.0733333333333 L 268.26666666666665 290.5527638190955 L 292.8 284.1683417085427 L 317.33333333333337 286.4910552763819 L 341.8666666666667 282.1577554438861 L 366.40000000000003 297.8249246231156 L 390.93333333333334 400 L 415.4666666666667 281.0916582914573 L 440 283.4022110552764 L 464.53333333333336 290.21226130653264 L 489.0666666666667 279.3891457286432 L 513.6 292.47417085427134 L 538.1333333333334 282.91577889447234 L 562.6666666666667 281.1484087102178 L 587.2 279.39319932998325 L 611.7333333333333 284.28589614740366 L 636.2666666666667 289.71366834170857 L 660.8000000000001 400 L 685.3333333333334 314.31092127303185 L 709.8666666666667 280.5890117252931 L 734.4000000000001 293.763216080402 L 758.9333333333334 301.05564489112226 L 783.4666666666667 294.97929648241205 L 808 279.5796649916248" fill="none" stroke="#bf616a" stroke-width="2"/><text x="72" y="426" fill="#81a1c1" font-size="10" font-family="'Segoe UI', sans-serif" text-anchor="middle">Apr 25</text><text x="194.66666666666669" y="426" fill="#81a1c1" font-size="10" font-family="'Segoe UI', sans-serif" text-anchor="middle">Apr 30</text><text x="317.33333333333337" y="426" fill="#81a1c1" font-size="10" font-family="'Segoe UI', sans-serif" text-anchor="middle">May 5</text><text x="440" y="426" fill="#81a1c1" font-size="10" font-family="'Segoe UI', sans-serif" text-anchor="middle">May 10</text><text x="562.6666666666667" y="426" fill="#81a1c1" font-size="10" font-family="'Segoe UI', sans-serif" text-anchor="middle">May 15</text><text x="685.3333333333334" y="426" fill="#81a1c1" font-size="10" font-family="'Segoe UI', sans-serif" text-anchor="middle">May 20</text><text x="808" y="426" fill="#81a1c1" font-size="10" font-family="'Segoe UI', sans-serif" text-anchor="middle">May 25</text>
  </g>

  <g class="cpd-legend">
    
    <circle cx="30" cy="442" r="5" fill="#a3be8c"/>
    <text x="40" y="446" fill="#d8dee9" font-size="11" font-family="'Segoe UI', sans-serif">Additions</text>
    <circle cx="124" cy="442" r="5" fill="#bf616a"/>
    <text x="134" y="446" fill="#d8dee9" font-size="11" font-family="'Segoe UI', sans-serif">Deletions</text>
    <text x="816" y="446" fill="#81a1c1" font-size="10" font-family="'Segoe UI', sans-serif" text-anchor="end">Last 31 days · +1,161,594 / -157,847 lines</text>
  </g>

  <a href="https://github.com/mpge/code-per-day" target="_blank">
    <text x="420" y="452" fill="#81a1c1" font-size="10" font-family="'Segoe UI', sans-serif" text-anchor="middle" opacity="0.6">Get your own - github.com/mpge/code-per-day</text>
  </a>
</svg>