<svg width="840" height="460" viewBox="0 0 840 460" xmlns="http://www.w3.org/2000/svg">
  
    <style>
      @keyframes fadeInUp {
        from { opacity: 0; transform: translateY(12px); }
        to   { opacity: 1; transform: translateY(0); }
      }
      @keyframes growBar {
        from { transform: scaleY(0); }
        to   { transform: scaleY(1); }
      }
      .cpd-header  { animation: fadeInUp 0.5s ease both; }
      .cpd-stats   { animation: fadeInUp 0.5s ease 0.15s both; }
      .cpd-chart   { animation: fadeInUp 0.5s ease 0.3s both; }
      .cpd-legend  { animation: fadeInUp 0.5s ease 0.45s both; }
    </style>

  <rect width="840" height="460" rx="12" fill="#282a36" stroke="#44475a" stroke-width="1"/>

  <g class="cpd-header">
    <a href="https://github.com/mpge/code-per-day" target="_blank">
      <text x="24" y="44" fill="#f8f8f2" font-size="18" font-family="'Segoe UI', sans-serif" font-weight="700">Code Per Day</text>
    </a>
    <text x="816" y="44" fill="#6272a4" font-size="13" font-family="'Segoe UI', sans-serif" text-anchor="end" font-weight="500">@mpge</text>
  </g>

  <g class="cpd-stats">
    
    <rect x="24" y="60" width="190" height="68" rx="8" fill="#21222c" stroke="#44475a" stroke-width="1"/>
    <text x="119" y="78" fill="#6272a4" font-size="11" font-family="'Segoe UI', sans-serif" text-anchor="middle" font-weight="500">Today</text>
    <text x="119" y="100" fill="#50fa7b" font-size="16" font-family="'Segoe UI Mono', 'Cascadia Code', monospace" text-anchor="middle" font-weight="700">+0</text>
    <text x="119" y="118" fill="#ff5555" font-size="14" font-family="'Segoe UI Mono', 'Cascadia Code', monospace" text-anchor="middle" font-weight="600">+0</text>
    <rect x="222" y="60" width="190" height="68" rx="8" fill="#21222c" stroke="#44475a" stroke-width="1"/>
    <text x="317" y="78" fill="#6272a4" font-size="11" font-family="'Segoe UI', sans-serif" text-anchor="middle" font-weight="500">30d Avg</text>
    <text x="317" y="100" fill="#50fa7b" font-size="16" font-family="'Segoe UI Mono', 'Cascadia Code', monospace" text-anchor="middle" font-weight="700">+11,857</text>
    <text x="317" y="118" fill="#ff5555" font-size="14" font-family="'Segoe UI Mono', 'Cascadia Code', monospace" text-anchor="middle" font-weight="600">-4,147</text>
    <rect x="420" y="60" width="190" height="68" rx="8" fill="#21222c" stroke="#44475a" stroke-width="1"/>
    <text x="515" y="78" fill="#6272a4" font-size="11" font-family="'Segoe UI', sans-serif" text-anchor="middle" font-weight="500">Year Avg</text>
    <text x="515" y="100" fill="#50fa7b" font-size="16" font-family="'Segoe UI Mono', 'Cascadia Code', monospace" text-anchor="middle" font-weight="700">+25,899</text>
    <text x="515" y="118" fill="#ff5555" font-size="14" font-family="'Segoe UI Mono', 'Cascadia Code', monospace" text-anchor="middle" font-weight="600">-7,117</text>
    <rect x="618" y="60" width="190" height="68" rx="8" fill="#21222c" stroke="#44475a" stroke-width="1"/>
    <text x="713" y="78" fill="#6272a4" font-size="11" font-family="'Segoe UI', sans-serif" text-anchor="middle" font-weight="500">Streak</text>
    <text x="713" y="104" fill="#8be9fd" font-size="20" font-family="'Segoe UI Mono', 'Cascadia Code', monospace" text-anchor="middle" font-weight="700">209</text>
    <text x="713" y="120" fill="#6272a4" font-size="11" font-family="'Segoe UI', sans-serif" text-anchor="middle">days</text>
  </g>

  <g class="cpd-chart">
    <line x1="72" y1="148" x2="808" y2="148" stroke="#383a4a" stroke-width="1" stroke-dasharray="4,4"/><line x1="72" y1="213.5" x2="808" y2="213.5" stroke="#383a4a" stroke-width="1" stroke-dasharray="4,4"/><line x1="72" y1="279" x2="808" y2="279" stroke="#383a4a" stroke-width="1" stroke-dasharray="4,4"/><line x1="72" y1="344.5" x2="808" y2="344.5" stroke="#383a4a" stroke-width="1" stroke-dasharray="4,4"/><line x1="72" y1="410" x2="808" y2="410" stroke="#383a4a" stroke-width="1" stroke-dasharray="4,4"/><line x1="72" y1="279" x2="808" y2="279" stroke="#44475a" stroke-width="1.5"/><text x="64" y="162" fill="#6272a4" font-size="10" font-family="'Segoe UI', sans-serif" text-anchor="end">+21,120</text><text x="64" y="406" fill="#6272a4" font-size="10" font-family="'Segoe UI', sans-serif" text-anchor="end">-21,120</text><text x="64" y="283" fill="#6272a4" font-size="10" font-family="'Segoe UI', sans-serif" text-anchor="end">0</text><path d="M 72 279 L 72 254.8 L 96.53333333333333 259.1828125 L 121.06666666666666 158.95677083333334 L 145.60000000000002 212.24374999999998 L 170.13333333333333 228.846875 L 194.66666666666669 158 L 219.20000000000002 173.02760416666666 L 243.73333333333335 158 L 268.26666666666665 165.19583333333333 L 292.8 241.69166666666666 L 317.33333333333337 197.8578125 L 341.8666666666667 277.9 L 366.40000000000003 279 L 390.93333333333334 268.59583333333336 L 415.4666666666667 279 L 440 254.67395833333333 L 464.53333333333336 279 L 489.0666666666667 278.5703125 L 513.6 276.71979166666665 L 538.1333333333334 252.27916666666667 L 562.6666666666667 274.88645833333334 L 587.2 279 L 611.7333333333333 270.8130208333333 L 636.2666666666667 250.80104166666666 L 660.8000000000001 247.07708333333332 L 685.3333333333334 261.4057291666667 L 709.8666666666667 158 L 734.4000000000001 230.00989583333333 L 758.9333333333334 158 L 783.4666666666667 237.40052083333333 L 808 279 L 808 279 Z" fill="#50fa7b" opacity="0.15"/><path d="M 72 279 L 72 254.8 L 96.53333333333333 259.1828125 L 121.06666666666666 158.95677083333334 L 145.60000000000002 212.24374999999998 L 170.13333333333333 228.846875 L 194.66666666666669 158 L 219.20000000000002 173.02760416666666 L 243.73333333333335 158 L 268.26666666666665 165.19583333333333 L 292.8 241.69166666666666 L 317.33333333333337 197.8578125 L 341.8666666666667 277.9 L 366.40000000000003 279 L 390.93333333333334 268.59583333333336 L 415.4666666666667 279 L 440 254.67395833333333 L 464.53333333333336 279 L 489.0666666666667 278.5703125 L 513.6 276.71979166666665 L 538.1333333333334 252.27916666666667 L 562.6666666666667 274.88645833333334 L 587.2 279 L 611.7333333333333 270.8130208333333 L 636.2666666666667 250.80104166666666 L 660.8000000000001 247.07708333333332 L 685.3333333333334 261.4057291666667 L 709.8666666666667 158 L 734.4000000000001 230.00989583333333 L 758.9333333333334 158 L 783.4666666666667 237.40052083333333 L 808 279" fill="none" stroke="#50fa7b" stroke-width="2"/><path d="M 72 279 L 72 286.7973958333333 L 96.53333333333333 288.53333333333336 L 121.06666666666666 305.434375 L 145.60000000000002 308.83177083333334 L 170.13333333333333 283.0963541666667 L 194.66666666666669 356.653125 L 219.20000000000002 400 L 243.73333333333335 400 L 268.26666666666665 310.18385416666666 L 292.8 284.76927083333334 L 317.33333333333337 290.56145833333335 L 341.8666666666667 279.34375 L 366.40000000000003 279 L 390.93333333333334 279.0630208333333 L 415.4666666666667 279 L 440 279.46979166666665 L 464.53333333333336 279 L 489.0666666666667 279.50989583333336 L 513.6 280.203125 L 538.1333333333334 304.99322916666665 L 562.6666666666667 279.171875 L 587.2 279 L 611.7333333333333 281.028125 L 636.2666666666667 281.96770833333335 L 660.8000000000001 284.5515625 L 685.3333333333334 279.6359375 L 709.8666666666667 311.3354166666667 L 734.4000000000001 284.121875 L 758.9333333333334 294.37135416666666 L 783.4666666666667 285.4625 L 808 279 L 808 279 Z" fill="#ff5555" opacity="0.15"/><path d="M 72 279 L 72 286.7973958333333 L 96.53333333333333 288.53333333333336 L 121.06666666666666 305.434375 L 145.60000000000002 308.83177083333334 L 170.13333333333333 283.0963541666667 L 194.66666666666669 356.653125 L 219.20000000000002 400 L 243.73333333333335 400 L 268.26666666666665 310.18385416666666 L 292.8 284.76927083333334 L 317.33333333333337 290.56145833333335 L 341.8666666666667 279.34375 L 366.40000000000003 279 L 390.93333333333334 279.0630208333333 L 415.4666666666667 279 L 440 279.46979166666665 L 464.53333333333336 279 L 489.0666666666667 279.50989583333336 L 513.6 280.203125 L 538.1333333333334 304.99322916666665 L 562.6666666666667 279.171875 L 587.2 279 L 611.7333333333333 281.028125 L 636.2666666666667 281.96770833333335 L 660.8000000000001 284.5515625 L 685.3333333333334 279.6359375 L 709.8666666666667 311.3354166666667 L 734.4000000000001 284.121875 L 758.9333333333334 294.37135416666666 L 783.4666666666667 285.4625 L 808 279" fill="none" stroke="#ff5555" stroke-width="2"/><text x="72" y="426" fill="#6272a4" font-size="10" font-family="'Segoe UI', sans-serif" text-anchor="middle">May 26</text><text x="194.66666666666669" y="426" fill="#6272a4" font-size="10" font-family="'Segoe UI', sans-serif" text-anchor="middle">May 31</text><text x="317.33333333333337" y="426" fill="#6272a4" font-size="10" font-family="'Segoe UI', sans-serif" text-anchor="middle">Jun 5</text><text x="440" y="426" fill="#6272a4" font-size="10" font-family="'Segoe UI', sans-serif" text-anchor="middle">Jun 10</text><text x="562.6666666666667" y="426" fill="#6272a4" font-size="10" font-family="'Segoe UI', sans-serif" text-anchor="middle">Jun 15</text><text x="685.3333333333334" y="426" fill="#6272a4" font-size="10" font-family="'Segoe UI', sans-serif" text-anchor="middle">Jun 20</text><text x="808" y="426" fill="#6272a4" font-size="10" font-family="'Segoe UI', sans-serif" text-anchor="middle">Jun 25</text>
  </g>

  <g class="cpd-legend">
    
    <circle cx="30" cy="442" r="5" fill="#50fa7b"/>
    <text x="40" y="446" fill="#bd93f9" font-size="11" font-family="'Segoe UI', sans-serif">Additions</text>
    <circle cx="124" cy="442" r="5" fill="#ff5555"/>
    <text x="134" y="446" fill="#bd93f9" font-size="11" font-family="'Segoe UI', sans-serif">Deletions</text>
    <text x="816" y="446" fill="#6272a4" font-size="10" font-family="'Segoe UI', sans-serif" text-anchor="end">Last 31 days · +367,564 / -128,546 lines</text>
  </g>

  <a href="https://github.com/mpge/code-per-day" target="_blank">
    <text x="420" y="452" fill="#6272a4" font-size="10" font-family="'Segoe UI', sans-serif" text-anchor="middle" opacity="0.6">Get your own - github.com/mpge/code-per-day</text>
  </a>
</svg>