<svg width="840" height="460" viewBox="0 0 840 460" xmlns="http://www.w3.org/2000/svg">
  
    <style>
      @keyframes fadeInUp {
        from { opacity: 0; transform: translateY(12px); }
        to   { opacity: 1; transform: translateY(0); }
      }
      @keyframes growBar {
        from { transform: scaleY(0); }
        to   { transform: scaleY(1); }
      }
      .cpd-header  { animation: fadeInUp 0.5s ease both; }
      .cpd-stats   { animation: fadeInUp 0.5s ease 0.15s both; }
      .cpd-chart   { animation: fadeInUp 0.5s ease 0.3s both; }
      .cpd-legend  { animation: fadeInUp 0.5s ease 0.45s both; }
    </style>

  <!-- Background -->
  <rect width="840" height="460" rx="12" fill="#0b1929" stroke="#1d3461" stroke-width="1"/>

  <!-- Header -->
  <g class="cpd-header">
    <a href="https://github.com/mpge/code-per-day" target="_blank">
      <text x="24" y="44" fill="#ccd6f6" font-size="18" font-family="'Segoe UI', sans-serif" font-weight="700">Code Per Day</text>
    </a>
    <text x="816" y="44" fill="#495670" font-size="13" font-family="'Segoe UI', sans-serif" text-anchor="end" font-weight="500">@mpge</text>
  </g>

  <!-- Stats Cards -->
  <g class="cpd-stats">
    
    <rect x="24" y="60" width="190" height="68" rx="8" fill="#0a1628" stroke="#1d3461" stroke-width="1"/>
    <text x="119" y="78" fill="#495670" font-size="11" font-family="'Segoe UI', sans-serif" text-anchor="middle" font-weight="500">Today</text>
    <text x="119" y="100" fill="#64ffda" font-size="16" font-family="'Segoe UI Mono', 'Cascadia Code', monospace" text-anchor="middle" font-weight="700">+11,417</text>
    <text x="119" y="118" fill="#ff6b6b" font-size="14" font-family="'Segoe UI Mono', 'Cascadia Code', monospace" text-anchor="middle" font-weight="600">-64</text>
    <rect x="222" y="60" width="190" height="68" rx="8" fill="#0a1628" stroke="#1d3461" stroke-width="1"/>
    <text x="317" y="78" fill="#495670" font-size="11" font-family="'Segoe UI', sans-serif" text-anchor="middle" font-weight="500">30d Avg</text>
    <text x="317" y="100" fill="#64ffda" font-size="16" font-family="'Segoe UI Mono', 'Cascadia Code', monospace" text-anchor="middle" font-weight="700">+210,338</text>
    <text x="317" y="118" fill="#ff6b6b" font-size="14" font-family="'Segoe UI Mono', 'Cascadia Code', monospace" text-anchor="middle" font-weight="600">-56,528</text>
    <rect x="420" y="60" width="190" height="68" rx="8" fill="#0a1628" stroke="#1d3461" stroke-width="1"/>
    <text x="515" y="78" fill="#495670" font-size="11" font-family="'Segoe UI', sans-serif" text-anchor="middle" font-weight="500">Year Avg</text>
    <text x="515" y="100" fill="#64ffda" font-size="16" font-family="'Segoe UI Mono', 'Cascadia Code', monospace" text-anchor="middle" font-weight="700">+21,735</text>
    <text x="515" y="118" fill="#ff6b6b" font-size="14" font-family="'Segoe UI Mono', 'Cascadia Code', monospace" text-anchor="middle" font-weight="600">-6,363</text>
        <rect x="618" y="60" width="190" height="68" rx="8" fill="#0a1628" stroke="#1d3461" stroke-width="1"/>
        <text x="713" y="78" fill="#495670" font-size="11" font-family="'Segoe UI', sans-serif" text-anchor="middle" font-weight="500">Streak</text>
        <text x="713" y="104" fill="#64ffda" font-size="20" font-family="'Segoe UI Mono', 'Cascadia Code', monospace" text-anchor="middle" font-weight="700">147</text>
        <text x="713" y="120" fill="#495670" font-size="11" font-family="'Segoe UI', sans-serif" text-anchor="middle">days</text>
  </g>

  <!-- Chart -->
  <g class="cpd-chart">
    <line x1="72" y1="148" x2="808" y2="148" stroke="#152a4a" stroke-width="1" stroke-dasharray="4,4"/><line x1="72" y1="213.5" x2="808" y2="213.5" stroke="#152a4a" stroke-width="1" stroke-dasharray="4,4"/><line x1="72" y1="279" x2="808" y2="279" stroke="#152a4a" stroke-width="1" stroke-dasharray="4,4"/><line x1="72" y1="344.5" x2="808" y2="344.5" stroke="#152a4a" stroke-width="1" stroke-dasharray="4,4"/><line x1="72" y1="410" x2="808" y2="410" stroke="#152a4a" stroke-width="1" stroke-dasharray="4,4"/><line x1="72" y1="279" x2="808" y2="279" stroke="#1d3461" stroke-width="1.5"/><text x="64" y="162" fill="#495670" font-size="10" font-family="'Segoe UI', sans-serif" text-anchor="end">+31,493</text><text x="64" y="406" fill="#495670" font-size="10" font-family="'Segoe UI', sans-serif" text-anchor="end">-31,493</text><text x="64" y="283" fill="#495670" font-size="10" font-family="'Segoe UI', sans-serif" text-anchor="end">0</text><path d="M 72 279 L 72 272.64128536500175 L 96.53333333333333 218.62871114215858 L 121.06666666666666 279 L 145.60000000000002 278.7771568285016 L 170.13333333333333 279 L 194.66666666666669 246.78763534753756 L 219.20000000000002 276.78693677960183 L 243.73333333333335 279 L 268.26666666666665 273.2444987775061 L 292.8 279 L 317.33333333333337 279 L 341.8666666666667 209.44987775061125 L 366.40000000000003 158 L 390.93333333333334 158 L 415.4666666666667 158 L 440 158 L 464.53333333333336 158 L 489.0666666666667 230.2088718127838 L 513.6 253.8955640936081 L 538.1333333333334 158 L 562.6666666666667 248.72790778903249 L 587.2 278.8155780649668 L 611.7333333333333 279 L 636.2666666666667 278.7963674467342 L 660.8000000000001 279 L 685.3333333333334 259.20922109675166 L 709.8666666666667 223.48131330771918 L 734.4000000000001 251.95529165211317 L 758.9333333333334 261.16101990918617 L 783.4666666666667 278.98078938176735 L 808 235.13447432762837 L 808 279 Z" fill="#64ffda" opacity="0.15"/><path d="M 72 279 L 72 272.64128536500175 L 96.53333333333333 218.62871114215858 L 121.06666666666666 279 L 145.60000000000002 278.7771568285016 L 170.13333333333333 279 L 194.66666666666669 246.78763534753756 L 219.20000000000002 276.78693677960183 L 243.73333333333335 279 L 268.26666666666665 273.2444987775061 L 292.8 279 L 317.33333333333337 279 L 341.8666666666667 209.44987775061125 L 366.40000000000003 158 L 390.93333333333334 158 L 415.4666666666667 158 L 440 158 L 464.53333333333336 158 L 489.0666666666667 230.2088718127838 L 513.6 253.8955640936081 L 538.1333333333334 158 L 562.6666666666667 248.72790778903249 L 587.2 278.8155780649668 L 611.7333333333333 279 L 636.2666666666667 278.7963674467342 L 660.8000000000001 279 L 685.3333333333334 259.20922109675166 L 709.8666666666667 223.48131330771918 L 734.4000000000001 251.95529165211317 L 758.9333333333334 261.16101990918617 L 783.4666666666667 278.98078938176735 L 808 235.13447432762837" fill="none" stroke="#64ffda" stroke-width="2"/><path d="M 72 279 L 72 279.44184421935034 L 96.53333333333333 290.43031784841077 L 121.06666666666666 279 L 145.60000000000002 279.14215857492144 L 170.13333333333333 279 L 194.66666666666669 279.6531610199092 L 219.20000000000002 279 L 243.73333333333335 279 L 268.26666666666665 281.1861683548725 L 292.8 279 L 317.33333333333337 279 L 341.8666666666667 279.15368494586096 L 366.40000000000003 400 L 390.93333333333334 306.11386657352426 L 415.4666666666667 348.1889626266154 L 440 295.1330771917569 L 464.53333333333336 326.51554313657005 L 489.0666666666667 286.9724065665386 L 513.6 286.8110373733846 L 538.1333333333334 282.59622773314703 L 562.6666666666667 280.1295843520782 L 587.2 297.6880894166958 L 611.7333333333333 279 L 636.2666666666667 279.1728955640936 L 660.8000000000001 279 L 685.3333333333334 279.4380020957038 L 709.8666666666667 282.16975200838283 L 734.4000000000001 286.66503667481663 L 758.9333333333334 279.2382116660845 L 783.4666666666667 279 L 808 279.2458959133776 L 808 279 Z" fill="#ff6b6b" opacity="0.15"/><path d="M 72 279 L 72 279.44184421935034 L 96.53333333333333 290.43031784841077 L 121.06666666666666 279 L 145.60000000000002 279.14215857492144 L 170.13333333333333 279 L 194.66666666666669 279.6531610199092 L 219.20000000000002 279 L 243.73333333333335 279 L 268.26666666666665 281.1861683548725 L 292.8 279 L 317.33333333333337 279 L 341.8666666666667 279.15368494586096 L 366.40000000000003 400 L 390.93333333333334 306.11386657352426 L 415.4666666666667 348.1889626266154 L 440 295.1330771917569 L 464.53333333333336 326.51554313657005 L 489.0666666666667 286.9724065665386 L 513.6 286.8110373733846 L 538.1333333333334 282.59622773314703 L 562.6666666666667 280.1295843520782 L 587.2 297.6880894166958 L 611.7333333333333 279 L 636.2666666666667 279.1728955640936 L 660.8000000000001 279 L 685.3333333333334 279.4380020957038 L 709.8666666666667 282.16975200838283 L 734.4000000000001 286.66503667481663 L 758.9333333333334 279.2382116660845 L 783.4666666666667 279 L 808 279.2458959133776" fill="none" stroke="#ff6b6b" stroke-width="2"/><text x="72" y="426" fill="#495670" font-size="10" font-family="'Segoe UI', sans-serif" text-anchor="middle">Mar 24</text><text x="194.66666666666669" y="426" fill="#495670" font-size="10" font-family="'Segoe UI', sans-serif" text-anchor="middle">Mar 29</text><text x="317.33333333333337" y="426" fill="#495670" font-size="10" font-family="'Segoe UI', sans-serif" text-anchor="middle">Apr 3</text><text x="440" y="426" fill="#495670" font-size="10" font-family="'Segoe UI', sans-serif" text-anchor="middle">Apr 8</text><text x="562.6666666666667" y="426" fill="#495670" font-size="10" font-family="'Segoe UI', sans-serif" text-anchor="middle">Apr 13</text><text x="685.3333333333334" y="426" fill="#495670" font-size="10" font-family="'Segoe UI', sans-serif" text-anchor="middle">Apr 18</text><text x="808" y="426" fill="#495670" font-size="10" font-family="'Segoe UI', sans-serif" text-anchor="middle">Apr 23</text>
  </g>

  <!-- Legend -->
  <g class="cpd-legend">
    <circle cx="30" cy="442" r="5" fill="#64ffda"/>
    <text x="40" y="446" fill="#8892b0" font-size="11" font-family="'Segoe UI', sans-serif">Additions</text>
    <circle cx="124" cy="442" r="5" fill="#ff6b6b"/>
    <text x="134" y="446" fill="#8892b0" font-size="11" font-family="'Segoe UI', sans-serif">Deletions</text>
    <text x="816" y="446" fill="#495670" font-size="10" font-family="'Segoe UI', sans-serif" text-anchor="end">Last 31 days · +6,520,464 / -1,752,377 lines</text>
  </g>

  <!-- Get your own -->
  <a href="https://github.com/mpge/code-per-day" target="_blank">
    <text x="420" y="452" fill="#495670" font-size="10" font-family="'Segoe UI', sans-serif" text-anchor="middle" opacity="0.6">Get your own — github.com/mpge/code-per-day</text>
  </a>
</svg>