<svg width="840" height="460" viewBox="0 0 840 460" xmlns="http://www.w3.org/2000/svg">
  
    <style>
      @keyframes fadeInUp {
        from { opacity: 0; transform: translateY(12px); }
        to   { opacity: 1; transform: translateY(0); }
      }
      @keyframes growBar {
        from { transform: scaleY(0); }
        to   { transform: scaleY(1); }
      }
      .cpd-header  { animation: fadeInUp 0.5s ease both; }
      .cpd-stats   { animation: fadeInUp 0.5s ease 0.15s both; }
      .cpd-chart   { animation: fadeInUp 0.5s ease 0.3s both; }
      .cpd-legend  { animation: fadeInUp 0.5s ease 0.45s both; }
    </style>

  <rect width="840" height="460" rx="12" fill="#0b1929" stroke="#1d3461" stroke-width="1"/>

  <g class="cpd-header">
    <a href="https://github.com/mpge/code-per-day" target="_blank">
      <text x="24" y="44" fill="#ccd6f6" font-size="18" font-family="'Segoe UI', sans-serif" font-weight="700">Code Per Day</text>
    </a>
    <text x="816" y="44" fill="#495670" font-size="13" font-family="'Segoe UI', sans-serif" text-anchor="end" font-weight="500">@mpge</text>
  </g>

  <g class="cpd-stats">
    
    <rect x="24" y="60" width="190" height="68" rx="8" fill="#0a1628" stroke="#1d3461" stroke-width="1"/>
    <text x="119" y="78" fill="#495670" font-size="11" font-family="'Segoe UI', sans-serif" text-anchor="middle" font-weight="500">Today</text>
    <text x="119" y="100" fill="#64ffda" font-size="16" font-family="'Segoe UI Mono', 'Cascadia Code', monospace" text-anchor="middle" font-weight="700">+330</text>
    <text x="119" y="118" fill="#ff6b6b" font-size="14" font-family="'Segoe UI Mono', 'Cascadia Code', monospace" text-anchor="middle" font-weight="600">+0</text>
    <rect x="222" y="60" width="190" height="68" rx="8" fill="#0a1628" stroke="#1d3461" stroke-width="1"/>
    <text x="317" y="78" fill="#495670" font-size="11" font-family="'Segoe UI', sans-serif" text-anchor="middle" font-weight="500">30d Avg</text>
    <text x="317" y="100" fill="#64ffda" font-size="16" font-family="'Segoe UI Mono', 'Cascadia Code', monospace" text-anchor="middle" font-weight="700">+11,225</text>
    <text x="317" y="118" fill="#ff6b6b" font-size="14" font-family="'Segoe UI Mono', 'Cascadia Code', monospace" text-anchor="middle" font-weight="600">-2,147</text>
    <rect x="420" y="60" width="190" height="68" rx="8" fill="#0a1628" stroke="#1d3461" stroke-width="1"/>
    <text x="515" y="78" fill="#495670" font-size="11" font-family="'Segoe UI', sans-serif" text-anchor="middle" font-weight="500">Year Avg</text>
    <text x="515" y="100" fill="#64ffda" font-size="16" font-family="'Segoe UI Mono', 'Cascadia Code', monospace" text-anchor="middle" font-weight="700">+26,144</text>
    <text x="515" y="118" fill="#ff6b6b" font-size="14" font-family="'Segoe UI Mono', 'Cascadia Code', monospace" text-anchor="middle" font-weight="600">-7,145</text>
    <rect x="618" y="60" width="190" height="68" rx="8" fill="#0a1628" stroke="#1d3461" stroke-width="1"/>
    <text x="713" y="78" fill="#495670" font-size="11" font-family="'Segoe UI', sans-serif" text-anchor="middle" font-weight="500">Streak</text>
    <text x="713" y="104" fill="#64ffda" font-size="20" font-family="'Segoe UI Mono', 'Cascadia Code', monospace" text-anchor="middle" font-weight="700">217</text>
    <text x="713" y="120" fill="#495670" font-size="11" font-family="'Segoe UI', sans-serif" text-anchor="middle">days</text>
  </g>

  <g class="cpd-chart">
    <line x1="72" y1="148" x2="808" y2="148" stroke="#152a4a" stroke-width="1" stroke-dasharray="4,4"/><line x1="72" y1="213.5" x2="808" y2="213.5" stroke="#152a4a" stroke-width="1" stroke-dasharray="4,4"/><line x1="72" y1="279" x2="808" y2="279" stroke="#152a4a" stroke-width="1" stroke-dasharray="4,4"/><line x1="72" y1="344.5" x2="808" y2="344.5" stroke="#152a4a" stroke-width="1" stroke-dasharray="4,4"/><line x1="72" y1="410" x2="808" y2="410" stroke="#152a4a" stroke-width="1" stroke-dasharray="4,4"/><line x1="72" y1="279" x2="808" y2="279" stroke="#1d3461" stroke-width="1.5"/><text x="64" y="162" fill="#495670" font-size="10" font-family="'Segoe UI', sans-serif" text-anchor="end">+13,435</text><text x="64" y="406" fill="#495670" font-size="10" font-family="'Segoe UI', sans-serif" text-anchor="end">-13,435</text><text x="64" y="283" fill="#495670" font-size="10" font-family="'Segoe UI', sans-serif" text-anchor="end">0</text><path d="M 72 279 L 72 158 L 96.53333333333333 158 L 121.06666666666666 220.3508001488649 L 145.60000000000002 158 L 170.13333333333333 277.2707852623744 L 194.66666666666669 279 L 219.20000000000002 262.64451060662446 L 243.73333333333335 279 L 268.26666666666665 240.75913658355043 L 292.8 279 L 317.33333333333337 278.324525493115 L 341.8666666666667 275.41548195013024 L 366.40000000000003 236.99449199851136 L 390.93333333333334 272.5334573874209 L 415.4666666666667 279 L 440 266.1299590621511 L 464.53333333333336 234.67085969482696 L 489.0666666666667 228.8167473018236 L 513.6 251.3415705247488 L 538.1333333333334 158 L 562.6666666666667 201.98689988835133 L 587.2 158 L 611.7333333333333 213.60506140677336 L 636.2666666666667 216.3519910681057 L 660.8000000000001 262.4553777446967 L 685.3333333333334 266.22002232973574 L 709.8666666666667 238.2823967249721 L 734.4000000000001 158 L 758.9333333333334 250.341868254559 L 783.4666666666667 256.21399330107926 L 808 276.027912169706 L 808 279 Z" fill="#64ffda" opacity="0.15"/><path d="M 72 279 L 72 158 L 96.53333333333333 158 L 121.06666666666666 220.3508001488649 L 145.60000000000002 158 L 170.13333333333333 277.2707852623744 L 194.66666666666669 279 L 219.20000000000002 262.64451060662446 L 243.73333333333335 279 L 268.26666666666665 240.75913658355043 L 292.8 279 L 317.33333333333337 278.324525493115 L 341.8666666666667 275.41548195013024 L 366.40000000000003 236.99449199851136 L 390.93333333333334 272.5334573874209 L 415.4666666666667 279 L 440 266.1299590621511 L 464.53333333333336 234.67085969482696 L 489.0666666666667 228.8167473018236 L 513.6 251.3415705247488 L 538.1333333333334 158 L 562.6666666666667 201.98689988835133 L 587.2 158 L 611.7333333333333 213.60506140677336 L 636.2666666666667 216.3519910681057 L 660.8000000000001 262.4553777446967 L 685.3333333333334 266.22002232973574 L 709.8666666666667 238.2823967249721 L 734.4000000000001 158 L 758.9333333333334 250.341868254559 L 783.4666666666667 256.21399330107926 L 808 276.027912169706" fill="none" stroke="#64ffda" stroke-width="2"/><path d="M 72 279 L 72 400 L 96.53333333333333 328.0214365463342 L 121.06666666666666 288.06937104577594 L 145.60000000000002 297.1747673985858 L 170.13333333333333 279.540379605508 L 194.66666666666669 279 L 219.20000000000002 279.0990695943431 L 243.73333333333335 279 L 268.26666666666665 279.73851879419425 L 292.8 279 L 317.33333333333337 279.80156308150356 L 341.8666666666667 280.891328619278 L 366.40000000000003 319.86170450316337 L 390.93333333333334 279.270189802754 L 415.4666666666667 279 L 440 282.1882396724972 L 464.53333333333336 283.6652772608858 L 489.0666666666667 287.7271306289542 L 513.6 279.9997022701898 L 538.1333333333334 329.831708224786 L 562.6666666666667 287.05165612206923 L 587.2 303.1639746929661 L 611.7333333333333 289.15913658355043 L 636.2666666666667 279.61243021957574 L 660.8000000000001 280.5130628954224 L 685.3333333333334 279.7745441012281 L 709.8666666666667 281.566803126163 L 734.4000000000001 353.5183475995534 L 758.9333333333334 284.94417566058803 L 783.4666666666667 285.2233717901005 L 808 279 L 808 279 Z" fill="#ff6b6b" opacity="0.15"/><path d="M 72 279 L 72 400 L 96.53333333333333 328.0214365463342 L 121.06666666666666 288.06937104577594 L 145.60000000000002 297.1747673985858 L 170.13333333333333 279.540379605508 L 194.66666666666669 279 L 219.20000000000002 279.0990695943431 L 243.73333333333335 279 L 268.26666666666665 279.73851879419425 L 292.8 279 L 317.33333333333337 279.80156308150356 L 341.8666666666667 280.891328619278 L 366.40000000000003 319.86170450316337 L 390.93333333333334 279.270189802754 L 415.4666666666667 279 L 440 282.1882396724972 L 464.53333333333336 283.6652772608858 L 489.0666666666667 287.7271306289542 L 513.6 279.9997022701898 L 538.1333333333334 329.831708224786 L 562.6666666666667 287.05165612206923 L 587.2 303.1639746929661 L 611.7333333333333 289.15913658355043 L 636.2666666666667 279.61243021957574 L 660.8000000000001 280.5130628954224 L 685.3333333333334 279.7745441012281 L 709.8666666666667 281.566803126163 L 734.4000000000001 353.5183475995534 L 758.9333333333334 284.94417566058803 L 783.4666666666667 285.2233717901005 L 808 279" fill="none" stroke="#ff6b6b" stroke-width="2"/><text x="72" y="426" fill="#495670" font-size="10" font-family="'Segoe UI', sans-serif" text-anchor="middle">Jun 2</text><text x="194.66666666666669" y="426" fill="#495670" font-size="10" font-family="'Segoe UI', sans-serif" text-anchor="middle">Jun 7</text><text x="317.33333333333337" y="426" fill="#495670" font-size="10" font-family="'Segoe UI', sans-serif" text-anchor="middle">Jun 12</text><text x="440" y="426" fill="#495670" font-size="10" font-family="'Segoe UI', sans-serif" text-anchor="middle">Jun 17</text><text x="562.6666666666667" y="426" fill="#495670" font-size="10" font-family="'Segoe UI', sans-serif" text-anchor="middle">Jun 22</text><text x="685.3333333333334" y="426" fill="#495670" font-size="10" font-family="'Segoe UI', sans-serif" text-anchor="middle">Jun 27</text><text x="808" y="426" fill="#495670" font-size="10" font-family="'Segoe UI', sans-serif" text-anchor="middle">Jul 2</text>
  </g>

  <g class="cpd-legend">
    
    <circle cx="30" cy="442" r="5" fill="#64ffda"/>
    <text x="40" y="446" fill="#8892b0" font-size="11" font-family="'Segoe UI', sans-serif">Additions</text>
    <circle cx="124" cy="442" r="5" fill="#ff6b6b"/>
    <text x="134" y="446" fill="#8892b0" font-size="11" font-family="'Segoe UI', sans-serif">Deletions</text>
    <text x="816" y="446" fill="#495670" font-size="10" font-family="'Segoe UI', sans-serif" text-anchor="end">Last 31 days · +347,988 / -66,542 lines</text>
  </g>

  <a href="https://github.com/mpge/code-per-day" target="_blank">
    <text x="420" y="452" fill="#495670" font-size="10" font-family="'Segoe UI', sans-serif" text-anchor="middle" opacity="0.6">Get your own - github.com/mpge/code-per-day</text>
  </a>
</svg>