<svg width="840" height="460" viewBox="0 0 840 460" xmlns="http://www.w3.org/2000/svg">
  
    <style>
      @keyframes fadeInUp {
        from { opacity: 0; transform: translateY(12px); }
        to   { opacity: 1; transform: translateY(0); }
      }
      @keyframes growBar {
        from { transform: scaleY(0); }
        to   { transform: scaleY(1); }
      }
      .cpd-header  { animation: fadeInUp 0.5s ease both; }
      .cpd-stats   { animation: fadeInUp 0.5s ease 0.15s both; }
      .cpd-chart   { animation: fadeInUp 0.5s ease 0.3s both; }
      .cpd-legend  { animation: fadeInUp 0.5s ease 0.45s both; }
    </style>

  <rect width="840" height="460" rx="12" fill="#0d1117" stroke="#30363d" stroke-width="1"/>

  <g class="cpd-header">
    <a href="https://github.com/mpge/code-per-day" target="_blank">
      <text x="24" y="44" fill="#f0f6fc" font-size="18" font-family="'Segoe UI', sans-serif" font-weight="700">Code Per Day</text>
    </a>
    <text x="816" y="44" fill="#484f58" font-size="13" font-family="'Segoe UI', sans-serif" text-anchor="end" font-weight="500">@mpge</text>
  </g>

  <g class="cpd-stats">
    
    <rect x="24" y="60" width="190" height="68" rx="8" fill="#010409" stroke="#30363d" stroke-width="1"/>
    <text x="119" y="78" fill="#484f58" font-size="11" font-family="'Segoe UI', sans-serif" text-anchor="middle" font-weight="500">Today</text>
    <text x="119" y="100" fill="#3fb950" font-size="16" font-family="'Segoe UI Mono', 'Cascadia Code', monospace" text-anchor="middle" font-weight="700">+0</text>
    <text x="119" y="118" fill="#f85149" font-size="14" font-family="'Segoe UI Mono', 'Cascadia Code', monospace" text-anchor="middle" font-weight="600">+0</text>
    <rect x="222" y="60" width="190" height="68" rx="8" fill="#010409" stroke="#30363d" stroke-width="1"/>
    <text x="317" y="78" fill="#484f58" font-size="11" font-family="'Segoe UI', sans-serif" text-anchor="middle" font-weight="500">30d Avg</text>
    <text x="317" y="100" fill="#3fb950" font-size="16" font-family="'Segoe UI Mono', 'Cascadia Code', monospace" text-anchor="middle" font-weight="700">+40,052</text>
    <text x="317" y="118" fill="#f85149" font-size="14" font-family="'Segoe UI Mono', 'Cascadia Code', monospace" text-anchor="middle" font-weight="600">-4,844</text>
    <rect x="420" y="60" width="190" height="68" rx="8" fill="#010409" stroke="#30363d" stroke-width="1"/>
    <text x="515" y="78" fill="#484f58" font-size="11" font-family="'Segoe UI', sans-serif" text-anchor="middle" font-weight="500">Year Avg</text>
    <text x="515" y="100" fill="#3fb950" font-size="16" font-family="'Segoe UI Mono', 'Cascadia Code', monospace" text-anchor="middle" font-weight="700">+24,962</text>
    <text x="515" y="118" fill="#f85149" font-size="14" font-family="'Segoe UI Mono', 'Cascadia Code', monospace" text-anchor="middle" font-weight="600">-6,755</text>
    <rect x="618" y="60" width="190" height="68" rx="8" fill="#010409" stroke="#30363d" stroke-width="1"/>
    <text x="713" y="78" fill="#484f58" font-size="11" font-family="'Segoe UI', sans-serif" text-anchor="middle" font-weight="500">Streak</text>
    <text x="713" y="104" fill="#2f81f7" font-size="20" font-family="'Segoe UI Mono', 'Cascadia Code', monospace" text-anchor="middle" font-weight="700">175</text>
    <text x="713" y="120" fill="#484f58" font-size="11" font-family="'Segoe UI', sans-serif" text-anchor="middle">days</text>
  </g>

  <g class="cpd-chart">
    <line x1="72" y1="148" x2="808" y2="148" stroke="#21262d" stroke-width="1" stroke-dasharray="4,4"/><line x1="72" y1="213.5" x2="808" y2="213.5" stroke="#21262d" stroke-width="1" stroke-dasharray="4,4"/><line x1="72" y1="279" x2="808" y2="279" stroke="#21262d" stroke-width="1" stroke-dasharray="4,4"/><line x1="72" y1="344.5" x2="808" y2="344.5" stroke="#21262d" stroke-width="1" stroke-dasharray="4,4"/><line x1="72" y1="410" x2="808" y2="410" stroke="#21262d" stroke-width="1" stroke-dasharray="4,4"/><line x1="72" y1="279" x2="808" y2="279" stroke="#30363d" stroke-width="1.5"/><text x="64" y="162" fill="#484f58" font-size="10" font-family="'Segoe UI', sans-serif" text-anchor="end">+36,066</text><text x="64" y="406" fill="#484f58" font-size="10" font-family="'Segoe UI', sans-serif" text-anchor="end">-36,066</text><text x="64" y="283" fill="#484f58" font-size="10" font-family="'Segoe UI', sans-serif" text-anchor="end">0</text><path d="M 72 279 L 72 278.9832251982477 L 96.53333333333333 191.98574835024675 L 121.06666666666666 158 L 145.60000000000002 271.54192314090835 L 170.13333333333333 186.42322408916985 L 194.66666666666669 158 L 219.20000000000002 240.81384129096656 L 243.73333333333335 270.46162590805744 L 268.26666666666665 232.38953585093995 L 292.8 250.0701768979094 L 317.33333333333337 158 L 341.8666666666667 258.50119225863693 L 366.40000000000003 267.6971385792713 L 390.93333333333334 203.59726612321856 L 415.4666666666667 251.8415959629568 L 440 217.1345311373593 L 464.53333333333336 158 L 489.0666666666667 274.62848666333946 L 513.6 238.88473908944712 L 538.1333333333334 228.4139078356347 L 562.6666666666667 267.5293905617479 L 587.2 249.7682304663672 L 611.7333333333333 265.37886097709753 L 636.2666666666667 262.8324460710919 L 660.8000000000001 277.4164587145788 L 685.3333333333334 158 L 709.8666666666667 158 L 734.4000000000001 158 L 758.9333333333334 205.0432540342705 L 783.4666666666667 277.0138634725226 L 808 279 L 808 279 Z" fill="#3fb950" opacity="0.15"/><path d="M 72 279 L 72 278.9832251982477 L 96.53333333333333 191.98574835024675 L 121.06666666666666 158 L 145.60000000000002 271.54192314090835 L 170.13333333333333 186.42322408916985 L 194.66666666666669 158 L 219.20000000000002 240.81384129096656 L 243.73333333333335 270.46162590805744 L 268.26666666666665 232.38953585093995 L 292.8 250.0701768979094 L 317.33333333333337 158 L 341.8666666666667 258.50119225863693 L 366.40000000000003 267.6971385792713 L 390.93333333333334 203.59726612321856 L 415.4666666666667 251.8415959629568 L 440 217.1345311373593 L 464.53333333333336 158 L 489.0666666666667 274.62848666333946 L 513.6 238.88473908944712 L 538.1333333333334 228.4139078356347 L 562.6666666666667 267.5293905617479 L 587.2 249.7682304663672 L 611.7333333333333 265.37886097709753 L 636.2666666666667 262.8324460710919 L 660.8000000000001 277.4164587145788 L 685.3333333333334 158 L 709.8666666666667 158 L 734.4000000000001 158 L 758.9333333333334 205.0432540342705 L 783.4666666666667 277.0138634725226 L 808 279" fill="none" stroke="#3fb950" stroke-width="2"/><path d="M 72 279 L 72 279 L 96.53333333333333 280.8519381134587 L 121.06666666666666 295.5567293295625 L 145.60000000000002 279.2784617090889 L 170.13333333333333 283.16686075528196 L 194.66666666666669 281.9691399101647 L 219.20000000000002 296.727610491876 L 243.73333333333335 280.8150335496035 L 268.26666666666665 294.62740531248267 L 292.8 284.37800144180113 L 317.33333333333337 306.3731214994732 L 341.8666666666667 288.56163699883547 L 366.40000000000003 283.27757444684744 L 390.93333333333334 285.1999667276659 L 415.4666666666667 281.613514113015 L 440 294.5804358675761 L 464.53333333333336 400 L 489.0666666666667 280.7311595408418 L 513.6 282.6434869406089 L 538.1333333333334 288.2798203293961 L 562.6666666666667 279.322076193645 L 587.2 290.1518882049576 L 611.7333333333333 282.2408916985527 L 636.2666666666667 280.77812898574837 L 660.8000000000001 279.32543115399545 L 685.3333333333334 283.37486829701106 L 709.8666666666667 287.8671602062885 L 734.4000000000001 400 L 758.9333333333334 308.22505961293183 L 783.4666666666667 280.31514445738367 L 808 279 L 808 279 Z" fill="#f85149" opacity="0.15"/><path d="M 72 279 L 72 279 L 96.53333333333333 280.8519381134587 L 121.06666666666666 295.5567293295625 L 145.60000000000002 279.2784617090889 L 170.13333333333333 283.16686075528196 L 194.66666666666669 281.9691399101647 L 219.20000000000002 296.727610491876 L 243.73333333333335 280.8150335496035 L 268.26666666666665 294.62740531248267 L 292.8 284.37800144180113 L 317.33333333333337 306.3731214994732 L 341.8666666666667 288.56163699883547 L 366.40000000000003 283.27757444684744 L 390.93333333333334 285.1999667276659 L 415.4666666666667 281.613514113015 L 440 294.5804358675761 L 464.53333333333336 400 L 489.0666666666667 280.7311595408418 L 513.6 282.6434869406089 L 538.1333333333334 288.2798203293961 L 562.6666666666667 279.322076193645 L 587.2 290.1518882049576 L 611.7333333333333 282.2408916985527 L 636.2666666666667 280.77812898574837 L 660.8000000000001 279.32543115399545 L 685.3333333333334 283.37486829701106 L 709.8666666666667 287.8671602062885 L 734.4000000000001 400 L 758.9333333333334 308.22505961293183 L 783.4666666666667 280.31514445738367 L 808 279" fill="none" stroke="#f85149" stroke-width="2"/><text x="72" y="426" fill="#484f58" font-size="10" font-family="'Segoe UI', sans-serif" text-anchor="middle">Apr 22</text><text x="194.66666666666669" y="426" fill="#484f58" font-size="10" font-family="'Segoe UI', sans-serif" text-anchor="middle">Apr 27</text><text x="317.33333333333337" y="426" fill="#484f58" font-size="10" font-family="'Segoe UI', sans-serif" text-anchor="middle">May 2</text><text x="440" y="426" fill="#484f58" font-size="10" font-family="'Segoe UI', sans-serif" text-anchor="middle">May 7</text><text x="562.6666666666667" y="426" fill="#484f58" font-size="10" font-family="'Segoe UI', sans-serif" text-anchor="middle">May 12</text><text x="685.3333333333334" y="426" fill="#484f58" font-size="10" font-family="'Segoe UI', sans-serif" text-anchor="middle">May 17</text><text x="808" y="426" fill="#484f58" font-size="10" font-family="'Segoe UI', sans-serif" text-anchor="middle">May 22</text>
  </g>

  <g class="cpd-legend">
    
    <circle cx="30" cy="442" r="5" fill="#3fb950"/>
    <text x="40" y="446" fill="#7d8590" font-size="11" font-family="'Segoe UI', sans-serif">Additions</text>
    <circle cx="124" cy="442" r="5" fill="#f85149"/>
    <text x="134" y="446" fill="#7d8590" font-size="11" font-family="'Segoe UI', sans-serif">Deletions</text>
    <text x="816" y="446" fill="#484f58" font-size="10" font-family="'Segoe UI', sans-serif" text-anchor="end">Last 31 days · +1,241,621 / -150,166 lines</text>
  </g>

  <a href="https://github.com/mpge/code-per-day" target="_blank">
    <text x="420" y="452" fill="#484f58" font-size="10" font-family="'Segoe UI', sans-serif" text-anchor="middle" opacity="0.6">Get your own - github.com/mpge/code-per-day</text>
  </a>
</svg>