<svg width="840" height="460" viewBox="0 0 840 460" xmlns="http://www.w3.org/2000/svg">
  
    <style>
      @keyframes fadeInUp {
        from { opacity: 0; transform: translateY(12px); }
        to   { opacity: 1; transform: translateY(0); }
      }
      @keyframes growBar {
        from { transform: scaleY(0); }
        to   { transform: scaleY(1); }
      }
      .cpd-header  { animation: fadeInUp 0.5s ease both; }
      .cpd-stats   { animation: fadeInUp 0.5s ease 0.15s both; }
      .cpd-chart   { animation: fadeInUp 0.5s ease 0.3s both; }
      .cpd-legend  { animation: fadeInUp 0.5s ease 0.45s both; }
    </style>

  <rect width="840" height="460" rx="12" fill="#020024" stroke="#1a1a5e" stroke-width="1"/>

  <g class="cpd-header">
    <a href="https://github.com/mpge/code-per-day" target="_blank">
      <text x="24" y="44" fill="#e0e0ff" font-size="18" font-family="'Segoe UI', sans-serif" font-weight="700">Code Per Day</text>
    </a>
    <text x="816" y="44" fill="#6060a0" font-size="13" font-family="'Segoe UI', sans-serif" text-anchor="end" font-weight="500">@mpge</text>
  </g>

  <g class="cpd-stats">
    
    <rect x="24" y="60" width="190" height="68" rx="8" fill="#010018" stroke="#1a1a5e" stroke-width="1"/>
    <text x="119" y="78" fill="#6060a0" font-size="11" font-family="'Segoe UI', sans-serif" text-anchor="middle" font-weight="500">Today</text>
    <text x="119" y="100" fill="#00d4aa" font-size="16" font-family="'Segoe UI Mono', 'Cascadia Code', monospace" text-anchor="middle" font-weight="700">+2,527</text>
    <text x="119" y="118" fill="#ff4477" font-size="14" font-family="'Segoe UI Mono', 'Cascadia Code', monospace" text-anchor="middle" font-weight="600">-688</text>
    <rect x="222" y="60" width="190" height="68" rx="8" fill="#010018" stroke="#1a1a5e" stroke-width="1"/>
    <text x="317" y="78" fill="#6060a0" font-size="11" font-family="'Segoe UI', sans-serif" text-anchor="middle" font-weight="500">30d Avg</text>
    <text x="317" y="100" fill="#00d4aa" font-size="16" font-family="'Segoe UI Mono', 'Cascadia Code', monospace" text-anchor="middle" font-weight="700">+11,811</text>
    <text x="317" y="118" fill="#ff4477" font-size="14" font-family="'Segoe UI Mono', 'Cascadia Code', monospace" text-anchor="middle" font-weight="600">-3,602</text>
    <rect x="420" y="60" width="190" height="68" rx="8" fill="#010018" stroke="#1a1a5e" stroke-width="1"/>
    <text x="515" y="78" fill="#6060a0" font-size="11" font-family="'Segoe UI', sans-serif" text-anchor="middle" font-weight="500">Year Avg</text>
    <text x="515" y="100" fill="#00d4aa" font-size="16" font-family="'Segoe UI Mono', 'Cascadia Code', monospace" text-anchor="middle" font-weight="700">+26,143</text>
    <text x="515" y="118" fill="#ff4477" font-size="14" font-family="'Segoe UI Mono', 'Cascadia Code', monospace" text-anchor="middle" font-weight="600">-7,145</text>
    <rect x="618" y="60" width="190" height="68" rx="8" fill="#010018" stroke="#1a1a5e" stroke-width="1"/>
    <text x="713" y="78" fill="#6060a0" font-size="11" font-family="'Segoe UI', sans-serif" text-anchor="middle" font-weight="500">Streak</text>
    <text x="713" y="104" fill="#4488ff" font-size="20" font-family="'Segoe UI Mono', 'Cascadia Code', monospace" text-anchor="middle" font-weight="700">216</text>
    <text x="713" y="120" fill="#6060a0" font-size="11" font-family="'Segoe UI', sans-serif" text-anchor="middle">days</text>
  </g>

  <g class="cpd-chart">
    <line x1="72" y1="148" x2="808" y2="148" stroke="#101050" stroke-width="1" stroke-dasharray="4,4"/><line x1="72" y1="213.5" x2="808" y2="213.5" stroke="#101050" stroke-width="1" stroke-dasharray="4,4"/><line x1="72" y1="279" x2="808" y2="279" stroke="#101050" stroke-width="1" stroke-dasharray="4,4"/><line x1="72" y1="344.5" x2="808" y2="344.5" stroke="#101050" stroke-width="1" stroke-dasharray="4,4"/><line x1="72" y1="410" x2="808" y2="410" stroke="#101050" stroke-width="1" stroke-dasharray="4,4"/><line x1="72" y1="279" x2="808" y2="279" stroke="#1a1a5e" stroke-width="1.5"/><text x="64" y="162" fill="#6060a0" font-size="10" font-family="'Segoe UI', sans-serif" text-anchor="end">+15,749</text><text x="64" y="406" fill="#6060a0" font-size="10" font-family="'Segoe UI', sans-serif" text-anchor="end">-15,749</text><text x="64" y="283" fill="#6060a0" font-size="10" font-family="'Segoe UI', sans-serif" text-anchor="end">0</text><path d="M 72 279 L 72 158 L 96.53333333333333 158 L 121.06666666666666 158 L 145.60000000000002 228.96812496031492 L 170.13333333333333 170.18528160518127 L 194.66666666666669 277.52485872118865 L 219.20000000000002 279 L 243.73333333333335 265.04762207124264 L 268.26666666666665 279 L 292.8 246.37786526128644 L 317.33333333333337 279 L 341.8666666666667 278.4237729379643 L 366.40000000000003 275.942155057464 L 390.93333333333334 243.1663597688742 L 415.4666666666667 273.483586259445 L 440 279 L 464.53333333333336 268.02095371134675 L 489.0666666666667 241.18413867547144 L 513.6 236.19017080449552 L 538.1333333333334 255.40542256651216 L 562.6666666666667 158 L 587.2 213.30243190043814 L 611.7333333333333 158 L 636.2666666666667 223.21353736745192 L 660.8000000000001 225.5568607530637 L 685.3333333333334 264.8862784938726 L 709.8666666666667 268.09778398628487 L 734.4000000000001 244.26503270048892 L 758.9333333333334 158 L 783.4666666666667 254.55260651469933 L 808 259.5849895231443 L 808 279 Z" fill="#00d4aa" opacity="0.15"/><path d="M 72 279 L 72 158 L 96.53333333333333 158 L 121.06666666666666 158 L 145.60000000000002 228.96812496031492 L 170.13333333333333 170.18528160518127 L 194.66666666666669 277.52485872118865 L 219.20000000000002 279 L 243.73333333333335 265.04762207124264 L 268.26666666666665 279 L 292.8 246.37786526128644 L 317.33333333333337 279 L 341.8666666666667 278.4237729379643 L 366.40000000000003 275.942155057464 L 390.93333333333334 243.1663597688742 L 415.4666666666667 273.483586259445 L 440 279 L 464.53333333333336 268.02095371134675 L 489.0666666666667 241.18413867547144 L 513.6 236.19017080449552 L 538.1333333333334 255.40542256651216 L 562.6666666666667 158 L 587.2 213.30243190043814 L 611.7333333333333 158 L 636.2666666666667 223.21353736745192 L 660.8000000000001 225.5568607530637 L 685.3333333333334 264.8862784938726 L 709.8666666666667 268.09778398628487 L 734.4000000000001 244.26503270048892 L 758.9333333333334 158 L 783.4666666666667 254.55260651469933 L 808 259.5849895231443" fill="none" stroke="#00d4aa" stroke-width="2"/><path d="M 72 279 L 72 400 L 96.53333333333333 400 L 121.06666666666666 320.8187186488031 L 145.60000000000002 286.7368086862658 L 170.13333333333333 294.5043494825068 L 194.66666666666669 279.46098164962854 L 219.20000000000002 279 L 243.73333333333335 279.0845133024319 L 268.26666666666665 279 L 292.8 279.63000825449234 L 317.33333333333337 279 L 341.8666666666667 279.683789446949 L 366.40000000000003 280.6134357736999 L 390.93333333333334 313.857895739412 L 415.4666666666667 279.2304908248143 L 440 279 L 464.53333333333336 281.71979173280846 L 489.0666666666667 282.97980824179314 L 513.6 286.444853641501 L 538.1333333333334 279.8528160518128 L 562.6666666666667 322.3630071750587 L 587.2 285.86862657946534 L 611.7333333333333 299.6135627658899 L 636.2666666666667 287.6664550130167 L 660.8000000000001 279.52244586957903 L 685.3333333333334 280.2907486189599 L 709.8666666666667 279.6607403644676 L 734.4000000000001 281.1896628357356 L 758.9333333333334 342.56936948377677 L 783.4666666666667 284.070798145914 L 808 284.2859229157407 L 808 279 Z" fill="#ff4477" opacity="0.15"/><path d="M 72 279 L 72 400 L 96.53333333333333 400 L 121.06666666666666 320.8187186488031 L 145.60000000000002 286.7368086862658 L 170.13333333333333 294.5043494825068 L 194.66666666666669 279.46098164962854 L 219.20000000000002 279 L 243.73333333333335 279.0845133024319 L 268.26666666666665 279 L 292.8 279.63000825449234 L 317.33333333333337 279 L 341.8666666666667 279.683789446949 L 366.40000000000003 280.6134357736999 L 390.93333333333334 313.857895739412 L 415.4666666666667 279.2304908248143 L 440 279 L 464.53333333333336 281.71979173280846 L 489.0666666666667 282.97980824179314 L 513.6 286.444853641501 L 538.1333333333334 279.8528160518128 L 562.6666666666667 322.3630071750587 L 587.2 285.86862657946534 L 611.7333333333333 299.6135627658899 L 636.2666666666667 287.6664550130167 L 660.8000000000001 279.52244586957903 L 685.3333333333334 280.2907486189599 L 709.8666666666667 279.6607403644676 L 734.4000000000001 281.1896628357356 L 758.9333333333334 342.56936948377677 L 783.4666666666667 284.070798145914 L 808 284.2859229157407" fill="none" stroke="#ff4477" stroke-width="2"/><text x="72" y="426" fill="#6060a0" font-size="10" font-family="'Segoe UI', sans-serif" text-anchor="middle">Jun 1</text><text x="194.66666666666669" y="426" fill="#6060a0" font-size="10" font-family="'Segoe UI', sans-serif" text-anchor="middle">Jun 6</text><text x="317.33333333333337" y="426" fill="#6060a0" font-size="10" font-family="'Segoe UI', sans-serif" text-anchor="middle">Jun 11</text><text x="440" y="426" fill="#6060a0" font-size="10" font-family="'Segoe UI', sans-serif" text-anchor="middle">Jun 16</text><text x="562.6666666666667" y="426" fill="#6060a0" font-size="10" font-family="'Segoe UI', sans-serif" text-anchor="middle">Jun 21</text><text x="685.3333333333334" y="426" fill="#6060a0" font-size="10" font-family="'Segoe UI', sans-serif" text-anchor="middle">Jun 26</text><text x="808" y="426" fill="#6060a0" font-size="10" font-family="'Segoe UI', sans-serif" text-anchor="middle">Jul 1</text>
  </g>

  <g class="cpd-legend">
    
    <circle cx="30" cy="442" r="5" fill="#00d4aa"/>
    <text x="40" y="446" fill="#a0a0d0" font-size="11" font-family="'Segoe UI', sans-serif">Additions</text>
    <circle cx="124" cy="442" r="5" fill="#ff4477"/>
    <text x="134" y="446" fill="#a0a0d0" font-size="11" font-family="'Segoe UI', sans-serif">Deletions</text>
    <text x="816" y="446" fill="#6060a0" font-size="10" font-family="'Segoe UI', sans-serif" text-anchor="end">Last 31 days · +366,152 / -111,660 lines</text>
  </g>

  <a href="https://github.com/mpge/code-per-day" target="_blank">
    <text x="420" y="452" fill="#6060a0" font-size="10" font-family="'Segoe UI', sans-serif" text-anchor="middle" opacity="0.6">Get your own - github.com/mpge/code-per-day</text>
  </a>
</svg>