<svg width="840" height="460" viewBox="0 0 840 460" xmlns="http://www.w3.org/2000/svg">
  
    <style>
      @keyframes fadeInUp {
        from { opacity: 0; transform: translateY(12px); }
        to   { opacity: 1; transform: translateY(0); }
      }
      @keyframes growBar {
        from { transform: scaleY(0); }
        to   { transform: scaleY(1); }
      }
      .cpd-header  { animation: fadeInUp 0.5s ease both; }
      .cpd-stats   { animation: fadeInUp 0.5s ease 0.15s both; }
      .cpd-chart   { animation: fadeInUp 0.5s ease 0.3s both; }
      .cpd-legend  { animation: fadeInUp 0.5s ease 0.45s both; }
    </style>

  <!-- Background -->
  <rect width="840" height="460" rx="12" fill="#ffffff" stroke="#d0d7de" stroke-width="1"/>

  <!-- Header -->
  <g class="cpd-header">
    <a href="https://github.com/mpge/code-per-day" target="_blank">
      <text x="24" y="44" fill="#1f2328" font-size="18" font-family="'Segoe UI', sans-serif" font-weight="700">Code Per Day</text>
    </a>
    <text x="816" y="44" fill="#8b949e" font-size="13" font-family="'Segoe UI', sans-serif" text-anchor="end" font-weight="500">@mpge</text>
  </g>

  <!-- Stats Cards -->
  <g class="cpd-stats">
    
    <rect x="24" y="60" width="190" height="68" rx="8" fill="#ffffff" stroke="#d0d7de" stroke-width="1"/>
    <text x="119" y="78" fill="#8b949e" font-size="11" font-family="'Segoe UI', sans-serif" text-anchor="middle" font-weight="500">Today</text>
    <text x="119" y="100" fill="#1a7f37" font-size="16" font-family="'Segoe UI Mono', 'Cascadia Code', monospace" text-anchor="middle" font-weight="700">+38,169</text>
    <text x="119" y="118" fill="#cf222e" font-size="14" font-family="'Segoe UI Mono', 'Cascadia Code', monospace" text-anchor="middle" font-weight="600">-3,676</text>
    <rect x="222" y="60" width="190" height="68" rx="8" fill="#ffffff" stroke="#d0d7de" stroke-width="1"/>
    <text x="317" y="78" fill="#8b949e" font-size="11" font-family="'Segoe UI', sans-serif" text-anchor="middle" font-weight="500">30d Avg</text>
    <text x="317" y="100" fill="#1a7f37" font-size="16" font-family="'Segoe UI Mono', 'Cascadia Code', monospace" text-anchor="middle" font-weight="700">+80,656</text>
    <text x="317" y="118" fill="#cf222e" font-size="14" font-family="'Segoe UI Mono', 'Cascadia Code', monospace" text-anchor="middle" font-weight="600">-72,274</text>
    <rect x="420" y="60" width="190" height="68" rx="8" fill="#ffffff" stroke="#d0d7de" stroke-width="1"/>
    <text x="515" y="78" fill="#8b949e" font-size="11" font-family="'Segoe UI', sans-serif" text-anchor="middle" font-weight="500">Year Avg</text>
    <text x="515" y="100" fill="#1a7f37" font-size="16" font-family="'Segoe UI Mono', 'Cascadia Code', monospace" text-anchor="middle" font-weight="700">+8,308</text>
    <text x="515" y="118" fill="#cf222e" font-size="14" font-family="'Segoe UI Mono', 'Cascadia Code', monospace" text-anchor="middle" font-weight="600">-6,226</text>
        <rect x="618" y="60" width="190" height="68" rx="8" fill="#ffffff" stroke="#d0d7de" stroke-width="1"/>
        <text x="713" y="78" fill="#8b949e" font-size="11" font-family="'Segoe UI', sans-serif" text-anchor="middle" font-weight="500">Streak</text>
        <text x="713" y="104" fill="#0969da" font-size="20" font-family="'Segoe UI Mono', 'Cascadia Code', monospace" text-anchor="middle" font-weight="700">132</text>
        <text x="713" y="120" fill="#8b949e" font-size="11" font-family="'Segoe UI', sans-serif" text-anchor="middle">days</text>
  </g>

  <!-- Chart -->
  <g class="cpd-chart">
    <line x1="72" y1="148" x2="808" y2="148" stroke="#eaeef2" stroke-width="1" stroke-dasharray="4,4"/><line x1="72" y1="213.5" x2="808" y2="213.5" stroke="#eaeef2" stroke-width="1" stroke-dasharray="4,4"/><line x1="72" y1="279" x2="808" y2="279" stroke="#eaeef2" stroke-width="1" stroke-dasharray="4,4"/><line x1="72" y1="344.5" x2="808" y2="344.5" stroke="#eaeef2" stroke-width="1" stroke-dasharray="4,4"/><line x1="72" y1="410" x2="808" y2="410" stroke="#eaeef2" stroke-width="1" stroke-dasharray="4,4"/><line x1="72" y1="279" x2="808" y2="279" stroke="#d0d7de" stroke-width="1.5"/><text x="64" y="162" fill="#8b949e" font-size="10" font-family="'Segoe UI', sans-serif" text-anchor="end">+51,572</text><text x="64" y="406" fill="#8b949e" font-size="10" font-family="'Segoe UI', sans-serif" text-anchor="end">-51,572</text><text x="64" y="283" fill="#8b949e" font-size="10" font-family="'Segoe UI', sans-serif" text-anchor="end">0</text><path d="M 72 279 L 72 279 L 96.53333333333333 279 L 121.06666666666666 229.7994648258745 L 145.60000000000002 221.05035678275033 L 170.13333333333333 279 L 194.66666666666669 279 L 219.20000000000002 246.77447064298457 L 243.73333333333335 279 L 268.26666666666665 256.22275653455364 L 292.8 158 L 317.33333333333337 279 L 341.8666666666667 273.854707981075 L 366.40000000000003 255.56815713953307 L 390.93333333333334 264.01225471185916 L 415.4666666666667 277.50544869308925 L 440 275.4008764445823 L 464.53333333333336 279 L 489.0666666666667 279 L 513.6 279 L 538.1333333333334 279 L 562.6666666666667 259.3291708679128 L 587.2 277.6485689909253 L 611.7333333333333 279 L 636.2666666666667 275.4853408826495 L 660.8000000000001 279 L 685.3333333333334 279 L 709.8666666666667 236.5284650585589 L 734.4000000000001 158 L 758.9333333333334 158 L 783.4666666666667 191.16636934770804 L 808 189.44657953928487 L 808 279 Z" fill="#1a7f37" opacity="0.15"/><path d="M 72 279 L 72 279 L 96.53333333333333 279 L 121.06666666666666 229.7994648258745 L 145.60000000000002 221.05035678275033 L 170.13333333333333 279 L 194.66666666666669 279 L 219.20000000000002 246.77447064298457 L 243.73333333333335 279 L 268.26666666666665 256.22275653455364 L 292.8 158 L 317.33333333333337 279 L 341.8666666666667 273.854707981075 L 366.40000000000003 255.56815713953307 L 390.93333333333334 264.01225471185916 L 415.4666666666667 277.50544869308925 L 440 275.4008764445823 L 464.53333333333336 279 L 489.0666666666667 279 L 513.6 279 L 538.1333333333334 279 L 562.6666666666667 259.3291708679128 L 587.2 277.6485689909253 L 611.7333333333333 279 L 636.2666666666667 275.4853408826495 L 660.8000000000001 279 L 685.3333333333334 279 L 709.8666666666667 236.5284650585589 L 734.4000000000001 158 L 758.9333333333334 158 L 783.4666666666667 191.16636934770804 L 808 189.44657953928487" fill="none" stroke="#1a7f37" stroke-width="2"/><path d="M 72 279 L 72 279 L 96.53333333333333 279 L 121.06666666666666 284.49018847436594 L 145.60000000000002 280.41008686884356 L 170.13333333333333 279 L 194.66666666666669 279 L 219.20000000000002 279.31908787714264 L 243.73333333333335 279 L 268.26666666666665 279.0797719692857 L 292.8 400 L 317.33333333333337 279 L 341.8666666666667 279.00234623439076 L 366.40000000000003 281.28523229659504 L 390.93333333333334 279.4669006437602 L 415.4666666666667 279.0610020941596 L 440 279.17362134491583 L 464.53333333333336 279 L 489.0666666666667 279 L 513.6 279 L 538.1333333333334 279 L 562.6666666666667 279.3988598464283 L 587.2 279 L 611.7333333333333 279 L 636.2666666666667 280.3350073683394 L 660.8000000000001 279 L 685.3333333333334 279 L 709.8666666666667 279.0938493756302 L 734.4000000000001 400 L 758.9333333333334 295.55737609555575 L 783.4666666666667 320.7981656712945 L 808 287.6247576204142 L 808 279 Z" fill="#cf222e" opacity="0.15"/><path d="M 72 279 L 72 279 L 96.53333333333333 279 L 121.06666666666666 284.49018847436594 L 145.60000000000002 280.41008686884356 L 170.13333333333333 279 L 194.66666666666669 279 L 219.20000000000002 279.31908787714264 L 243.73333333333335 279 L 268.26666666666665 279.0797719692857 L 292.8 400 L 317.33333333333337 279 L 341.8666666666667 279.00234623439076 L 366.40000000000003 281.28523229659504 L 390.93333333333334 279.4669006437602 L 415.4666666666667 279.0610020941596 L 440 279.17362134491583 L 464.53333333333336 279 L 489.0666666666667 279 L 513.6 279 L 538.1333333333334 279 L 562.6666666666667 279.3988598464283 L 587.2 279 L 611.7333333333333 279 L 636.2666666666667 280.3350073683394 L 660.8000000000001 279 L 685.3333333333334 279 L 709.8666666666667 279.0938493756302 L 734.4000000000001 400 L 758.9333333333334 295.55737609555575 L 783.4666666666667 320.7981656712945 L 808 287.6247576204142" fill="none" stroke="#cf222e" stroke-width="2"/><text x="72" y="426" fill="#8b949e" font-size="10" font-family="'Segoe UI', sans-serif" text-anchor="middle">Mar 9</text><text x="194.66666666666669" y="426" fill="#8b949e" font-size="10" font-family="'Segoe UI', sans-serif" text-anchor="middle">Mar 14</text><text x="317.33333333333337" y="426" fill="#8b949e" font-size="10" font-family="'Segoe UI', sans-serif" text-anchor="middle">Mar 19</text><text x="440" y="426" fill="#8b949e" font-size="10" font-family="'Segoe UI', sans-serif" text-anchor="middle">Mar 24</text><text x="562.6666666666667" y="426" fill="#8b949e" font-size="10" font-family="'Segoe UI', sans-serif" text-anchor="middle">Mar 29</text><text x="685.3333333333334" y="426" fill="#8b949e" font-size="10" font-family="'Segoe UI', sans-serif" text-anchor="middle">Apr 3</text><text x="808" y="426" fill="#8b949e" font-size="10" font-family="'Segoe UI', sans-serif" text-anchor="middle">Apr 8</text>
  </g>

  <!-- Legend -->
  <g class="cpd-legend">
    <circle cx="30" cy="442" r="5" fill="#1a7f37"/>
    <text x="40" y="446" fill="#656d76" font-size="11" font-family="'Segoe UI', sans-serif">Additions</text>
    <circle cx="124" cy="442" r="5" fill="#cf222e"/>
    <text x="134" y="446" fill="#656d76" font-size="11" font-family="'Segoe UI', sans-serif">Deletions</text>
    <text x="816" y="446" fill="#8b949e" font-size="10" font-family="'Segoe UI', sans-serif" text-anchor="end">Last 31 days · +2,500,343 / -2,240,504 lines</text>
  </g>

  <!-- Get your own -->
  <a href="https://github.com/mpge/code-per-day" target="_blank">
    <text x="420" y="452" fill="#8b949e" font-size="10" font-family="'Segoe UI', sans-serif" text-anchor="middle" opacity="0.6">Get your own — github.com/mpge/code-per-day</text>
  </a>
</svg>