<svg width="840" height="460" viewBox="0 0 840 460" xmlns="http://www.w3.org/2000/svg">
  
    <style>
      @keyframes fadeInUp {
        from { opacity: 0; transform: translateY(12px); }
        to   { opacity: 1; transform: translateY(0); }
      }
      @keyframes growBar {
        from { transform: scaleY(0); }
        to   { transform: scaleY(1); }
      }
      .cpd-header  { animation: fadeInUp 0.5s ease both; }
      .cpd-stats   { animation: fadeInUp 0.5s ease 0.15s both; }
      .cpd-chart   { animation: fadeInUp 0.5s ease 0.3s both; }
      .cpd-legend  { animation: fadeInUp 0.5s ease 0.45s both; }
    </style>

  <!-- Background -->
  <rect width="840" height="460" rx="12" fill="#ffffff" stroke="#d0d7de" stroke-width="1"/>

  <!-- Header -->
  <g class="cpd-header">
    <a href="https://github.com/mpge/code-per-day" target="_blank">
      <text x="24" y="44" fill="#1f2328" font-size="18" font-family="'Segoe UI', sans-serif" font-weight="700">Code Per Day</text>
    </a>
    <text x="816" y="44" fill="#8b949e" font-size="13" font-family="'Segoe UI', sans-serif" text-anchor="end" font-weight="500">@mpge</text>
  </g>

  <!-- Stats Cards -->
  <g class="cpd-stats">
    
    <rect x="24" y="60" width="190" height="68" rx="8" fill="#ffffff" stroke="#d0d7de" stroke-width="1"/>
    <text x="119" y="78" fill="#8b949e" font-size="11" font-family="'Segoe UI', sans-serif" text-anchor="middle" font-weight="500">Today</text>
    <text x="119" y="100" fill="#1a7f37" font-size="16" font-family="'Segoe UI Mono', 'Cascadia Code', monospace" text-anchor="middle" font-weight="700">+11,309</text>
    <text x="119" y="118" fill="#cf222e" font-size="14" font-family="'Segoe UI Mono', 'Cascadia Code', monospace" text-anchor="middle" font-weight="600">-96</text>
    <rect x="222" y="60" width="190" height="68" rx="8" fill="#ffffff" stroke="#d0d7de" stroke-width="1"/>
    <text x="317" y="78" fill="#8b949e" font-size="11" font-family="'Segoe UI', sans-serif" text-anchor="middle" font-weight="500">30d Avg</text>
    <text x="317" y="100" fill="#1a7f37" font-size="16" font-family="'Segoe UI Mono', 'Cascadia Code', monospace" text-anchor="middle" font-weight="700">+210,606</text>
    <text x="317" y="118" fill="#cf222e" font-size="14" font-family="'Segoe UI Mono', 'Cascadia Code', monospace" text-anchor="middle" font-weight="600">-56,476</text>
    <rect x="420" y="60" width="190" height="68" rx="8" fill="#ffffff" stroke="#d0d7de" stroke-width="1"/>
    <text x="515" y="78" fill="#8b949e" font-size="11" font-family="'Segoe UI', sans-serif" text-anchor="middle" font-weight="500">Year Avg</text>
    <text x="515" y="100" fill="#1a7f37" font-size="16" font-family="'Segoe UI Mono', 'Cascadia Code', monospace" text-anchor="middle" font-weight="700">+21,663</text>
    <text x="515" y="118" fill="#cf222e" font-size="14" font-family="'Segoe UI Mono', 'Cascadia Code', monospace" text-anchor="middle" font-weight="600">-6,356</text>
        <rect x="618" y="60" width="190" height="68" rx="8" fill="#ffffff" stroke="#d0d7de" stroke-width="1"/>
        <text x="713" y="78" fill="#8b949e" font-size="11" font-family="'Segoe UI', sans-serif" text-anchor="middle" font-weight="500">Streak</text>
        <text x="713" y="104" fill="#0969da" font-size="20" font-family="'Segoe UI Mono', 'Cascadia Code', monospace" text-anchor="middle" font-weight="700">143</text>
        <text x="713" y="120" fill="#8b949e" font-size="11" font-family="'Segoe UI', sans-serif" text-anchor="middle">days</text>
  </g>

  <!-- Chart -->
  <g class="cpd-chart">
    <line x1="72" y1="148" x2="808" y2="148" stroke="#eaeef2" stroke-width="1" stroke-dasharray="4,4"/><line x1="72" y1="213.5" x2="808" y2="213.5" stroke="#eaeef2" stroke-width="1" stroke-dasharray="4,4"/><line x1="72" y1="279" x2="808" y2="279" stroke="#eaeef2" stroke-width="1" stroke-dasharray="4,4"/><line x1="72" y1="344.5" x2="808" y2="344.5" stroke="#eaeef2" stroke-width="1" stroke-dasharray="4,4"/><line x1="72" y1="410" x2="808" y2="410" stroke="#eaeef2" stroke-width="1" stroke-dasharray="4,4"/><line x1="72" y1="279" x2="808" y2="279" stroke="#d0d7de" stroke-width="1.5"/><text x="64" y="162" fill="#8b949e" font-size="10" font-family="'Segoe UI', sans-serif" text-anchor="end">+31,493</text><text x="64" y="406" fill="#8b949e" font-size="10" font-family="'Segoe UI', sans-serif" text-anchor="end">-31,493</text><text x="64" y="283" fill="#8b949e" font-size="10" font-family="'Segoe UI', sans-serif" text-anchor="end">0</text><path d="M 72 279 L 72 270.57422284317147 L 96.53333333333333 238.65385958784492 L 121.06666666666666 254.4565141460007 L 145.60000000000002 219.46629409710096 L 170.13333333333333 272.64128536500175 L 194.66666666666669 218.62871114215858 L 219.20000000000002 279 L 243.73333333333335 278.7771568285016 L 268.26666666666665 279 L 292.8 246.78763534753756 L 317.33333333333337 276.78693677960183 L 341.8666666666667 279 L 366.40000000000003 273.2444987775061 L 390.93333333333334 279 L 415.4666666666667 279 L 440 209.44987775061125 L 464.53333333333336 158 L 489.0666666666667 158 L 513.6 158 L 538.1333333333334 158 L 562.6666666666667 158 L 587.2 230.2088718127838 L 611.7333333333333 253.8955640936081 L 636.2666666666667 158 L 660.8000000000001 248.72790778903249 L 685.3333333333334 278.8155780649668 L 709.8666666666667 279 L 734.4000000000001 278.7963674467342 L 758.9333333333334 279 L 783.4666666666667 259.20922109675166 L 808 235.54942368145302 L 808 279 Z" fill="#1a7f37" opacity="0.15"/><path d="M 72 279 L 72 270.57422284317147 L 96.53333333333333 238.65385958784492 L 121.06666666666666 254.4565141460007 L 145.60000000000002 219.46629409710096 L 170.13333333333333 272.64128536500175 L 194.66666666666669 218.62871114215858 L 219.20000000000002 279 L 243.73333333333335 278.7771568285016 L 268.26666666666665 279 L 292.8 246.78763534753756 L 317.33333333333337 276.78693677960183 L 341.8666666666667 279 L 366.40000000000003 273.2444987775061 L 390.93333333333334 279 L 415.4666666666667 279 L 440 209.44987775061125 L 464.53333333333336 158 L 489.0666666666667 158 L 513.6 158 L 538.1333333333334 158 L 562.6666666666667 158 L 587.2 230.2088718127838 L 611.7333333333333 253.8955640936081 L 636.2666666666667 158 L 660.8000000000001 248.72790778903249 L 685.3333333333334 278.8155780649668 L 709.8666666666667 279 L 734.4000000000001 278.7963674467342 L 758.9333333333334 279 L 783.4666666666667 259.20922109675166 L 808 235.54942368145302" fill="none" stroke="#1a7f37" stroke-width="2"/><path d="M 72 279 L 72 279.0038421236465 L 96.53333333333333 282.7960181627663 L 121.06666666666666 279.7645826056584 L 145.60000000000002 279.1690534404471 L 170.13333333333333 279.44184421935034 L 194.66666666666669 290.43031784841077 L 219.20000000000002 279 L 243.73333333333335 279.14215857492144 L 268.26666666666665 279 L 292.8 279.6531610199092 L 317.33333333333337 279 L 341.8666666666667 279 L 366.40000000000003 281.1861683548725 L 390.93333333333334 279 L 415.4666666666667 279 L 440 279.15368494586096 L 464.53333333333336 400 L 489.0666666666667 306.11386657352426 L 513.6 348.1889626266154 L 538.1333333333334 295.1330771917569 L 562.6666666666667 326.51554313657005 L 587.2 286.9724065665386 L 611.7333333333333 286.8110373733846 L 636.2666666666667 282.59622773314703 L 660.8000000000001 280.1295843520782 L 685.3333333333334 297.6880894166958 L 709.8666666666667 279 L 734.4000000000001 279.1728955640936 L 758.9333333333334 279 L 783.4666666666667 279.4380020957038 L 808 279.36884387006637 L 808 279 Z" fill="#cf222e" opacity="0.15"/><path d="M 72 279 L 72 279.0038421236465 L 96.53333333333333 282.7960181627663 L 121.06666666666666 279.7645826056584 L 145.60000000000002 279.1690534404471 L 170.13333333333333 279.44184421935034 L 194.66666666666669 290.43031784841077 L 219.20000000000002 279 L 243.73333333333335 279.14215857492144 L 268.26666666666665 279 L 292.8 279.6531610199092 L 317.33333333333337 279 L 341.8666666666667 279 L 366.40000000000003 281.1861683548725 L 390.93333333333334 279 L 415.4666666666667 279 L 440 279.15368494586096 L 464.53333333333336 400 L 489.0666666666667 306.11386657352426 L 513.6 348.1889626266154 L 538.1333333333334 295.1330771917569 L 562.6666666666667 326.51554313657005 L 587.2 286.9724065665386 L 611.7333333333333 286.8110373733846 L 636.2666666666667 282.59622773314703 L 660.8000000000001 280.1295843520782 L 685.3333333333334 297.6880894166958 L 709.8666666666667 279 L 734.4000000000001 279.1728955640936 L 758.9333333333334 279 L 783.4666666666667 279.4380020957038 L 808 279.36884387006637" fill="none" stroke="#cf222e" stroke-width="2"/><text x="72" y="426" fill="#8b949e" font-size="10" font-family="'Segoe UI', sans-serif" text-anchor="middle">Mar 20</text><text x="194.66666666666669" y="426" fill="#8b949e" font-size="10" font-family="'Segoe UI', sans-serif" text-anchor="middle">Mar 25</text><text x="317.33333333333337" y="426" fill="#8b949e" font-size="10" font-family="'Segoe UI', sans-serif" text-anchor="middle">Mar 30</text><text x="440" y="426" fill="#8b949e" font-size="10" font-family="'Segoe UI', sans-serif" text-anchor="middle">Apr 4</text><text x="562.6666666666667" y="426" fill="#8b949e" font-size="10" font-family="'Segoe UI', sans-serif" text-anchor="middle">Apr 9</text><text x="685.3333333333334" y="426" fill="#8b949e" font-size="10" font-family="'Segoe UI', sans-serif" text-anchor="middle">Apr 14</text><text x="808" y="426" fill="#8b949e" font-size="10" font-family="'Segoe UI', sans-serif" text-anchor="middle">Apr 19</text>
  </g>

  <!-- Legend -->
  <g class="cpd-legend">
    <circle cx="30" cy="442" r="5" fill="#1a7f37"/>
    <text x="40" y="446" fill="#656d76" font-size="11" font-family="'Segoe UI', sans-serif">Additions</text>
    <circle cx="124" cy="442" r="5" fill="#cf222e"/>
    <text x="134" y="446" fill="#656d76" font-size="11" font-family="'Segoe UI', sans-serif">Deletions</text>
    <text x="816" y="446" fill="#8b949e" font-size="10" font-family="'Segoe UI', sans-serif" text-anchor="end">Last 31 days · +6,528,796 / -1,750,759 lines</text>
  </g>

  <!-- Get your own -->
  <a href="https://github.com/mpge/code-per-day" target="_blank">
    <text x="420" y="452" fill="#8b949e" font-size="10" font-family="'Segoe UI', sans-serif" text-anchor="middle" opacity="0.6">Get your own — github.com/mpge/code-per-day</text>
  </a>
</svg>