<svg width="840" height="460" viewBox="0 0 840 460" xmlns="http://www.w3.org/2000/svg">
  
    <style>
      @keyframes fadeInUp {
        from { opacity: 0; transform: translateY(12px); }
        to   { opacity: 1; transform: translateY(0); }
      }
      @keyframes growBar {
        from { transform: scaleY(0); }
        to   { transform: scaleY(1); }
      }
      .cpd-header  { animation: fadeInUp 0.5s ease both; }
      .cpd-stats   { animation: fadeInUp 0.5s ease 0.15s both; }
      .cpd-chart   { animation: fadeInUp 0.5s ease 0.3s both; }
      .cpd-legend  { animation: fadeInUp 0.5s ease 0.45s both; }
    </style>

  <!-- Background -->
  <rect width="840" height="460" rx="12" fill="transparent" />

  <!-- Header -->
  <g class="cpd-header">
    <a href="https://github.com/mpge/code-per-day" target="_blank">
      <text x="24" y="44" fill="#e6edf3" font-size="18" font-family="'Segoe UI', sans-serif" font-weight="700">Code Per Day</text>
    </a>
    <text x="816" y="44" fill="#6e7681" font-size="13" font-family="'Segoe UI', sans-serif" text-anchor="end" font-weight="500">@mpge</text>
  </g>

  <!-- Stats Cards -->
  <g class="cpd-stats">
    
    <rect x="24" y="60" width="190" height="68" rx="8" fill="rgba(13,17,23,0.6)" stroke="#30363d" stroke-width="1"/>
    <text x="119" y="78" fill="#6e7681" font-size="11" font-family="'Segoe UI', sans-serif" text-anchor="middle" font-weight="500">Today</text>
    <text x="119" y="100" fill="#3fb950" font-size="16" font-family="'Segoe UI Mono', 'Cascadia Code', monospace" text-anchor="middle" font-weight="700">+3,460</text>
    <text x="119" y="118" fill="#f85149" font-size="14" font-family="'Segoe UI Mono', 'Cascadia Code', monospace" text-anchor="middle" font-weight="600">-334</text>
    <rect x="222" y="60" width="190" height="68" rx="8" fill="rgba(13,17,23,0.6)" stroke="#30363d" stroke-width="1"/>
    <text x="317" y="78" fill="#6e7681" font-size="11" font-family="'Segoe UI', sans-serif" text-anchor="middle" font-weight="500">30d Avg</text>
    <text x="317" y="100" fill="#3fb950" font-size="16" font-family="'Segoe UI Mono', 'Cascadia Code', monospace" text-anchor="middle" font-weight="700">+216,047</text>
    <text x="317" y="118" fill="#f85149" font-size="14" font-family="'Segoe UI Mono', 'Cascadia Code', monospace" text-anchor="middle" font-weight="600">-57,017</text>
    <rect x="420" y="60" width="190" height="68" rx="8" fill="rgba(13,17,23,0.6)" stroke="#30363d" stroke-width="1"/>
    <text x="515" y="78" fill="#6e7681" font-size="11" font-family="'Segoe UI', sans-serif" text-anchor="middle" font-weight="500">Year Avg</text>
    <text x="515" y="100" fill="#3fb950" font-size="16" font-family="'Segoe UI Mono', 'Cascadia Code', monospace" text-anchor="middle" font-weight="700">+22,290</text>
    <text x="515" y="118" fill="#f85149" font-size="14" font-family="'Segoe UI Mono', 'Cascadia Code', monospace" text-anchor="middle" font-weight="600">-6,414</text>
        <rect x="618" y="60" width="190" height="68" rx="8" fill="rgba(13,17,23,0.6)" stroke="#30363d" stroke-width="1"/>
        <text x="713" y="78" fill="#6e7681" font-size="11" font-family="'Segoe UI', sans-serif" text-anchor="middle" font-weight="500">Streak</text>
        <text x="713" y="104" fill="#58a6ff" font-size="20" font-family="'Segoe UI Mono', 'Cascadia Code', monospace" text-anchor="middle" font-weight="700">154</text>
        <text x="713" y="120" fill="#6e7681" font-size="11" font-family="'Segoe UI', sans-serif" text-anchor="middle">days</text>
  </g>

  <!-- Chart -->
  <g class="cpd-chart">
    <line x1="72" y1="148" x2="808" y2="148" stroke="rgba(33,38,45,0.6)" stroke-width="1" stroke-dasharray="4,4"/><line x1="72" y1="213.5" x2="808" y2="213.5" stroke="rgba(33,38,45,0.6)" stroke-width="1" stroke-dasharray="4,4"/><line x1="72" y1="279" x2="808" y2="279" stroke="rgba(33,38,45,0.6)" stroke-width="1" stroke-dasharray="4,4"/><line x1="72" y1="344.5" x2="808" y2="344.5" stroke="rgba(33,38,45,0.6)" stroke-width="1" stroke-dasharray="4,4"/><line x1="72" y1="410" x2="808" y2="410" stroke="rgba(33,38,45,0.6)" stroke-width="1" stroke-dasharray="4,4"/><line x1="72" y1="279" x2="808" y2="279" stroke="#30363d" stroke-width="1.5"/><text x="64" y="162" fill="#6e7681" font-size="10" font-family="'Segoe UI', sans-serif" text-anchor="end">+34,888</text><text x="64" y="406" fill="#6e7681" font-size="10" font-family="'Segoe UI', sans-serif" text-anchor="end">-34,888</text><text x="64" y="283" fill="#6e7681" font-size="10" font-family="'Segoe UI', sans-serif" text-anchor="end">0</text><path d="M 72 279 L 72 273.8045746388443 L 96.53333333333333 279 L 121.06666666666666 279 L 145.60000000000002 216.21789727126804 L 170.13333333333333 158 L 194.66666666666669 158 L 219.20000000000002 158 L 243.73333333333335 158 L 268.26666666666665 158 L 292.8 234.95680463196516 L 317.33333333333337 256.33851180921806 L 341.8666666666667 158 L 366.40000000000003 251.673727356111 L 390.93333333333334 278.83352442100437 L 415.4666666666667 279 L 440 278.816183214859 L 464.53333333333336 279 L 489.0666666666667 261.13508942903 L 513.6 228.88391423985325 L 538.1333333333334 254.58704998853474 L 562.6666666666667 262.8969559734006 L 587.2 278.9826587938546 L 611.7333333333333 189.04769548268746 L 636.2666666666667 158 L 660.8000000000001 271.29009974776426 L 685.3333333333334 183.29735152487962 L 709.8666666666667 158 L 734.4000000000001 239.5244783306581 L 758.9333333333334 270.1733260720018 L 783.4666666666667 230.81572460444852 L 808 266.99988534739737 L 808 279 Z" fill="#3fb950" opacity="0.15"/><path d="M 72 279 L 72 273.8045746388443 L 96.53333333333333 279 L 121.06666666666666 279 L 145.60000000000002 216.21789727126804 L 170.13333333333333 158 L 194.66666666666669 158 L 219.20000000000002 158 L 243.73333333333335 158 L 268.26666666666665 158 L 292.8 234.95680463196516 L 317.33333333333337 256.33851180921806 L 341.8666666666667 158 L 366.40000000000003 251.673727356111 L 390.93333333333334 278.83352442100437 L 415.4666666666667 279 L 440 278.816183214859 L 464.53333333333336 279 L 489.0666666666667 261.13508942903 L 513.6 228.88391423985325 L 538.1333333333334 254.58704998853474 L 562.6666666666667 262.8969559734006 L 587.2 278.9826587938546 L 611.7333333333333 189.04769548268746 L 636.2666666666667 158 L 660.8000000000001 271.29009974776426 L 685.3333333333334 183.29735152487962 L 709.8666666666667 158 L 734.4000000000001 239.5244783306581 L 758.9333333333334 270.1733260720018 L 783.4666666666667 230.81572460444852 L 808 266.99988534739737" fill="none" stroke="#3fb950" stroke-width="2"/><path d="M 72 279 L 72 280.9734292593442 L 96.53333333333333 279 L 121.06666666666666 279 L 145.60000000000002 279.13872964916305 L 170.13333333333333 400 L 194.66666666666669 303.4753783535886 L 219.20000000000002 341.4560880531988 L 243.73333333333335 293.5631449208897 L 268.26666666666665 321.89173927998166 L 292.8 286.1966005503325 L 317.33333333333337 286.0509344187113 L 341.8666666666667 282.24627379041505 L 366.40000000000003 280.0196629213483 L 390.93333333333334 295.8695253382252 L 415.4666666666667 279 L 440 279.1560708553084 L 464.53333333333336 279 L 489.0666666666667 279.39537950011464 L 513.6 281.8612990139876 L 538.1333333333334 285.9191412520064 L 562.6666666666667 279.2150309562027 L 587.2 279 L 611.7333333333333 280.9144691584499 L 636.2666666666667 296.11577046548956 L 660.8000000000001 279.2878640220133 L 685.3333333333334 283.30755560651227 L 709.8666666666667 282.06939348773216 L 734.4000000000001 297.32618665443704 L 758.9333333333334 280.87631850493005 L 783.4666666666667 295.15506764503556 L 808 280.15839257051135 L 808 279 Z" fill="#f85149" opacity="0.15"/><path d="M 72 279 L 72 280.9734292593442 L 96.53333333333333 279 L 121.06666666666666 279 L 145.60000000000002 279.13872964916305 L 170.13333333333333 400 L 194.66666666666669 303.4753783535886 L 219.20000000000002 341.4560880531988 L 243.73333333333335 293.5631449208897 L 268.26666666666665 321.89173927998166 L 292.8 286.1966005503325 L 317.33333333333337 286.0509344187113 L 341.8666666666667 282.24627379041505 L 366.40000000000003 280.0196629213483 L 390.93333333333334 295.8695253382252 L 415.4666666666667 279 L 440 279.1560708553084 L 464.53333333333336 279 L 489.0666666666667 279.39537950011464 L 513.6 281.8612990139876 L 538.1333333333334 285.9191412520064 L 562.6666666666667 279.2150309562027 L 587.2 279 L 611.7333333333333 280.9144691584499 L 636.2666666666667 296.11577046548956 L 660.8000000000001 279.2878640220133 L 685.3333333333334 283.30755560651227 L 709.8666666666667 282.06939348773216 L 734.4000000000001 297.32618665443704 L 758.9333333333334 280.87631850493005 L 783.4666666666667 295.15506764503556 L 808 280.15839257051135" fill="none" stroke="#f85149" stroke-width="2"/><text x="72" y="426" fill="#6e7681" font-size="10" font-family="'Segoe UI', sans-serif" text-anchor="middle">Apr 1</text><text x="194.66666666666669" y="426" fill="#6e7681" font-size="10" font-family="'Segoe UI', sans-serif" text-anchor="middle">Apr 6</text><text x="317.33333333333337" y="426" fill="#6e7681" font-size="10" font-family="'Segoe UI', sans-serif" text-anchor="middle">Apr 11</text><text x="440" y="426" fill="#6e7681" font-size="10" font-family="'Segoe UI', sans-serif" text-anchor="middle">Apr 16</text><text x="562.6666666666667" y="426" fill="#6e7681" font-size="10" font-family="'Segoe UI', sans-serif" text-anchor="middle">Apr 21</text><text x="685.3333333333334" y="426" fill="#6e7681" font-size="10" font-family="'Segoe UI', sans-serif" text-anchor="middle">Apr 26</text><text x="808" y="426" fill="#6e7681" font-size="10" font-family="'Segoe UI', sans-serif" text-anchor="middle">May 1</text>
  </g>

  <!-- Legend -->
  <g class="cpd-legend">
    <circle cx="30" cy="442" r="5" fill="#3fb950"/>
    <text x="40" y="446" fill="#8b949e" font-size="11" font-family="'Segoe UI', sans-serif">Additions</text>
    <circle cx="124" cy="442" r="5" fill="#f85149"/>
    <text x="134" y="446" fill="#8b949e" font-size="11" font-family="'Segoe UI', sans-serif">Deletions</text>
    <text x="816" y="446" fill="#6e7681" font-size="10" font-family="'Segoe UI', sans-serif" text-anchor="end">Last 31 days · +6,697,468 / -1,767,530 lines</text>
  </g>

  <!-- Get your own -->
  <a href="https://github.com/mpge/code-per-day" target="_blank">
    <text x="420" y="452" fill="#6e7681" font-size="10" font-family="'Segoe UI', sans-serif" text-anchor="middle" opacity="0.6">Get your own — github.com/mpge/code-per-day</text>
  </a>
</svg>