<svg width="840" height="460" viewBox="0 0 840 460" xmlns="http://www.w3.org/2000/svg">
  
    <style>
      @keyframes fadeInUp {
        from { opacity: 0; transform: translateY(12px); }
        to   { opacity: 1; transform: translateY(0); }
      }
      @keyframes growBar {
        from { transform: scaleY(0); }
        to   { transform: scaleY(1); }
      }
      .cpd-header  { animation: fadeInUp 0.5s ease both; }
      .cpd-stats   { animation: fadeInUp 0.5s ease 0.15s both; }
      .cpd-chart   { animation: fadeInUp 0.5s ease 0.3s both; }
      .cpd-legend  { animation: fadeInUp 0.5s ease 0.45s both; }
    </style>

  <rect width="840" height="460" rx="12" fill="#020024" stroke="#1a1a5e" stroke-width="1"/>

  <g class="cpd-header">
    <a href="https://github.com/mpge/code-per-day" target="_blank">
      <text x="24" y="44" fill="#e0e0ff" font-size="18" font-family="'Segoe UI', sans-serif" font-weight="700">Code Per Day</text>
    </a>
    <text x="816" y="44" fill="#6060a0" font-size="13" font-family="'Segoe UI', sans-serif" text-anchor="end" font-weight="500">@mpge</text>
  </g>

  <g class="cpd-stats">
    
    <rect x="24" y="60" width="190" height="68" rx="8" fill="#010018" stroke="#1a1a5e" stroke-width="1"/>
    <text x="119" y="78" fill="#6060a0" font-size="11" font-family="'Segoe UI', sans-serif" text-anchor="middle" font-weight="500">Today</text>
    <text x="119" y="100" fill="#00d4aa" font-size="16" font-family="'Segoe UI Mono', 'Cascadia Code', monospace" text-anchor="middle" font-weight="700">+7,657</text>
    <text x="119" y="118" fill="#ff4477" font-size="14" font-family="'Segoe UI Mono', 'Cascadia Code', monospace" text-anchor="middle" font-weight="600">-900</text>
    <rect x="222" y="60" width="190" height="68" rx="8" fill="#010018" stroke="#1a1a5e" stroke-width="1"/>
    <text x="317" y="78" fill="#6060a0" font-size="11" font-family="'Segoe UI', sans-serif" text-anchor="middle" font-weight="500">30d Avg</text>
    <text x="317" y="100" fill="#00d4aa" font-size="16" font-family="'Segoe UI Mono', 'Cascadia Code', monospace" text-anchor="middle" font-weight="700">+172,119</text>
    <text x="317" y="118" fill="#ff4477" font-size="14" font-family="'Segoe UI Mono', 'Cascadia Code', monospace" text-anchor="middle" font-weight="600">-2,906</text>
    <rect x="420" y="60" width="190" height="68" rx="8" fill="#010018" stroke="#1a1a5e" stroke-width="1"/>
    <text x="515" y="78" fill="#6060a0" font-size="11" font-family="'Segoe UI', sans-serif" text-anchor="middle" font-weight="500">Year Avg</text>
    <text x="515" y="100" fill="#00d4aa" font-size="16" font-family="'Segoe UI Mono', 'Cascadia Code', monospace" text-anchor="middle" font-weight="700">+24,253</text>
    <text x="515" y="118" fill="#ff4477" font-size="14" font-family="'Segoe UI Mono', 'Cascadia Code', monospace" text-anchor="middle" font-weight="600">-6,573</text>
    <rect x="618" y="60" width="190" height="68" rx="8" fill="#010018" stroke="#1a1a5e" stroke-width="1"/>
    <text x="713" y="78" fill="#6060a0" font-size="11" font-family="'Segoe UI', sans-serif" text-anchor="middle" font-weight="500">Streak</text>
    <text x="713" y="104" fill="#4488ff" font-size="20" font-family="'Segoe UI Mono', 'Cascadia Code', monospace" text-anchor="middle" font-weight="700">164</text>
    <text x="713" y="120" fill="#6060a0" font-size="11" font-family="'Segoe UI', sans-serif" text-anchor="middle">days</text>
  </g>

  <g class="cpd-chart">
    <line x1="72" y1="148" x2="808" y2="148" stroke="#101050" stroke-width="1" stroke-dasharray="4,4"/><line x1="72" y1="213.5" x2="808" y2="213.5" stroke="#101050" stroke-width="1" stroke-dasharray="4,4"/><line x1="72" y1="279" x2="808" y2="279" stroke="#101050" stroke-width="1" stroke-dasharray="4,4"/><line x1="72" y1="344.5" x2="808" y2="344.5" stroke="#101050" stroke-width="1" stroke-dasharray="4,4"/><line x1="72" y1="410" x2="808" y2="410" stroke="#101050" stroke-width="1" stroke-dasharray="4,4"/><line x1="72" y1="279" x2="808" y2="279" stroke="#1a1a5e" stroke-width="1.5"/><text x="64" y="162" fill="#6060a0" font-size="10" font-family="'Segoe UI', sans-serif" text-anchor="end">+23,215</text><text x="64" y="406" fill="#6060a0" font-size="10" font-family="'Segoe UI', sans-serif" text-anchor="end">-23,215</text><text x="64" y="283" fill="#6060a0" font-size="10" font-family="'Segoe UI', sans-serif" text-anchor="end">0</text><path d="M 72 279 L 72 212.81094120180916 L 96.53333333333333 244.94382942063322 L 121.06666666666666 158 L 145.60000000000002 237.93349127719148 L 170.13333333333333 278.7498169287099 L 194.66666666666669 279 L 219.20000000000002 278.72375619211715 L 243.73333333333335 279 L 268.26666666666665 252.15222916217962 L 292.8 203.68447124703857 L 317.33333333333337 242.31169502476848 L 341.8666666666667 254.8 L 366.40000000000003 278.97393926340726 L 390.93333333333334 158 L 415.4666666666667 158 L 440 267.41339651087657 L 464.53333333333336 158 L 489.0666666666667 158 L 513.6 219.6753392203317 L 538.1333333333334 265.7350850743054 L 562.6666666666667 206.5876373034676 L 587.2 234.0556536721947 L 611.7333333333333 158 L 636.2666666666667 247.15377988369588 L 660.8000000000001 261.4402756838251 L 685.3333333333334 161.8569890157226 L 709.8666666666667 236.80766745638596 L 734.4000000000001 182.88800344604783 L 758.9333333333334 158 L 783.4666666666667 272.2085720439371 L 808 239.09058798190824 L 808 279 Z" fill="#00d4aa" opacity="0.15"/><path d="M 72 279 L 72 212.81094120180916 L 96.53333333333333 244.94382942063322 L 121.06666666666666 158 L 145.60000000000002 237.93349127719148 L 170.13333333333333 278.7498169287099 L 194.66666666666669 279 L 219.20000000000002 278.72375619211715 L 243.73333333333335 279 L 268.26666666666665 252.15222916217962 L 292.8 203.68447124703857 L 317.33333333333337 242.31169502476848 L 341.8666666666667 254.8 L 366.40000000000003 278.97393926340726 L 390.93333333333334 158 L 415.4666666666667 158 L 440 267.41339651087657 L 464.53333333333336 158 L 489.0666666666667 158 L 513.6 219.6753392203317 L 538.1333333333334 265.7350850743054 L 562.6666666666667 206.5876373034676 L 587.2 234.0556536721947 L 611.7333333333333 158 L 636.2666666666667 247.15377988369588 L 660.8000000000001 261.4402756838251 L 685.3333333333334 161.8569890157226 L 709.8666666666667 236.80766745638596 L 734.4000000000001 182.88800344604783 L 758.9333333333334 158 L 783.4666666666667 272.2085720439371 L 808 239.09058798190824" fill="none" stroke="#00d4aa" stroke-width="2"/><path d="M 72 279 L 72 289.81520568597887 L 96.53333333333333 289.59629549860006 L 121.06666666666666 283.8785698901572 L 145.60000000000002 280.53237131165196 L 170.13333333333333 304.35188455739825 L 194.66666666666669 279 L 219.20000000000002 279.2345466293345 L 243.73333333333335 279 L 268.26666666666665 279.594184794314 L 292.8 283.30002153779884 L 317.33333333333337 289.39823390049537 L 341.8666666666667 279.3231531337497 L 366.40000000000003 279 L 390.93333333333334 281.8771053198363 L 415.4666666666667 304.7219470170149 L 440 279.4326082274392 L 464.53333333333336 285.4734869696317 L 489.0666666666667 283.6127503769115 L 513.6 306.54098643118675 L 538.1333333333334 281.8197716993323 L 562.6666666666667 303.27818220977815 L 587.2 287.35507215162613 L 611.7333333333333 321.5259099720009 L 636.2666666666667 293.85461985785054 L 660.8000000000001 285.64548783114367 L 685.3333333333334 288.6320482446694 L 709.8666666666667 283.0602627611458 L 734.4000000000001 303.20521214731855 L 758.9333333333334 400 L 783.4666666666667 281.6894680163687 L 808 283.69093258668966 L 808 279 Z" fill="#ff4477" opacity="0.15"/><path d="M 72 279 L 72 289.81520568597887 L 96.53333333333333 289.59629549860006 L 121.06666666666666 283.8785698901572 L 145.60000000000002 280.53237131165196 L 170.13333333333333 304.35188455739825 L 194.66666666666669 279 L 219.20000000000002 279.2345466293345 L 243.73333333333335 279 L 268.26666666666665 279.594184794314 L 292.8 283.30002153779884 L 317.33333333333337 289.39823390049537 L 341.8666666666667 279.3231531337497 L 366.40000000000003 279 L 390.93333333333334 281.8771053198363 L 415.4666666666667 304.7219470170149 L 440 279.4326082274392 L 464.53333333333336 285.4734869696317 L 489.0666666666667 283.6127503769115 L 513.6 306.54098643118675 L 538.1333333333334 281.8197716993323 L 562.6666666666667 303.27818220977815 L 587.2 287.35507215162613 L 611.7333333333333 321.5259099720009 L 636.2666666666667 293.85461985785054 L 660.8000000000001 285.64548783114367 L 685.3333333333334 288.6320482446694 L 709.8666666666667 283.0602627611458 L 734.4000000000001 303.20521214731855 L 758.9333333333334 400 L 783.4666666666667 281.6894680163687 L 808 283.69093258668966" fill="none" stroke="#ff4477" stroke-width="2"/><text x="72" y="426" fill="#6060a0" font-size="10" font-family="'Segoe UI', sans-serif" text-anchor="middle">Apr 10</text><text x="194.66666666666669" y="426" fill="#6060a0" font-size="10" font-family="'Segoe UI', sans-serif" text-anchor="middle">Apr 15</text><text x="317.33333333333337" y="426" fill="#6060a0" font-size="10" font-family="'Segoe UI', sans-serif" text-anchor="middle">Apr 20</text><text x="440" y="426" fill="#6060a0" font-size="10" font-family="'Segoe UI', sans-serif" text-anchor="middle">Apr 25</text><text x="562.6666666666667" y="426" fill="#6060a0" font-size="10" font-family="'Segoe UI', sans-serif" text-anchor="middle">Apr 30</text><text x="685.3333333333334" y="426" fill="#6060a0" font-size="10" font-family="'Segoe UI', sans-serif" text-anchor="middle">May 5</text><text x="808" y="426" fill="#6060a0" font-size="10" font-family="'Segoe UI', sans-serif" text-anchor="middle">May 10</text>
  </g>

  <g class="cpd-legend">
    
    <circle cx="30" cy="442" r="5" fill="#00d4aa"/>
    <text x="40" y="446" fill="#a0a0d0" font-size="11" font-family="'Segoe UI', sans-serif">Additions</text>
    <circle cx="124" cy="442" r="5" fill="#ff4477"/>
    <text x="134" y="446" fill="#a0a0d0" font-size="11" font-family="'Segoe UI', sans-serif">Deletions</text>
    <text x="816" y="446" fill="#6060a0" font-size="10" font-family="'Segoe UI', sans-serif" text-anchor="end">Last 31 days · +5,335,686 / -90,092 lines</text>
  </g>

  <a href="https://github.com/mpge/code-per-day" target="_blank">
    <text x="420" y="452" fill="#6060a0" font-size="10" font-family="'Segoe UI', sans-serif" text-anchor="middle" opacity="0.6">Get your own - github.com/mpge/code-per-day</text>
  </a>
</svg>