<svg width="840" height="460" viewBox="0 0 840 460" xmlns="http://www.w3.org/2000/svg">
  
    <style>
      @keyframes fadeInUp {
        from { opacity: 0; transform: translateY(12px); }
        to   { opacity: 1; transform: translateY(0); }
      }
      @keyframes growBar {
        from { transform: scaleY(0); }
        to   { transform: scaleY(1); }
      }
      .cpd-header  { animation: fadeInUp 0.5s ease both; }
      .cpd-stats   { animation: fadeInUp 0.5s ease 0.15s both; }
      .cpd-chart   { animation: fadeInUp 0.5s ease 0.3s both; }
      .cpd-legend  { animation: fadeInUp 0.5s ease 0.45s both; }
    </style>

  <rect width="840" height="460" rx="12" fill="#ffffff" stroke="#d0d7de" stroke-width="1"/>

  <g class="cpd-header">
    <a href="https://github.com/mpge/code-per-day" target="_blank">
      <text x="24" y="44" fill="#1f2328" font-size="18" font-family="'Segoe UI', sans-serif" font-weight="700">Code Per Day</text>
    </a>
    <text x="816" y="44" fill="#8b949e" font-size="13" font-family="'Segoe UI', sans-serif" text-anchor="end" font-weight="500">@mpge</text>
  </g>

  <g class="cpd-stats">
    
    <rect x="24" y="60" width="190" height="68" rx="8" fill="#ffffff" stroke="#d0d7de" stroke-width="1"/>
    <text x="119" y="78" fill="#8b949e" font-size="11" font-family="'Segoe UI', sans-serif" text-anchor="middle" font-weight="500">Today</text>
    <text x="119" y="100" fill="#1a7f37" font-size="16" font-family="'Segoe UI Mono', 'Cascadia Code', monospace" text-anchor="middle" font-weight="700">+10,691</text>
    <text x="119" y="118" fill="#cf222e" font-size="14" font-family="'Segoe UI Mono', 'Cascadia Code', monospace" text-anchor="middle" font-weight="600">-406</text>
    <rect x="222" y="60" width="190" height="68" rx="8" fill="#ffffff" stroke="#d0d7de" stroke-width="1"/>
    <text x="317" y="78" fill="#8b949e" font-size="11" font-family="'Segoe UI', sans-serif" text-anchor="middle" font-weight="500">30d Avg</text>
    <text x="317" y="100" fill="#1a7f37" font-size="16" font-family="'Segoe UI Mono', 'Cascadia Code', monospace" text-anchor="middle" font-weight="700">+177,808</text>
    <text x="317" y="118" fill="#cf222e" font-size="14" font-family="'Segoe UI Mono', 'Cascadia Code', monospace" text-anchor="middle" font-weight="600">-2,244</text>
    <rect x="420" y="60" width="190" height="68" rx="8" fill="#ffffff" stroke="#d0d7de" stroke-width="1"/>
    <text x="515" y="78" fill="#8b949e" font-size="11" font-family="'Segoe UI', sans-serif" text-anchor="middle" font-weight="500">Year Avg</text>
    <text x="515" y="100" fill="#1a7f37" font-size="16" font-family="'Segoe UI Mono', 'Cascadia Code', monospace" text-anchor="middle" font-weight="700">+24,117</text>
    <text x="515" y="118" fill="#cf222e" font-size="14" font-family="'Segoe UI Mono', 'Cascadia Code', monospace" text-anchor="middle" font-weight="600">-6,472</text>
    <rect x="618" y="60" width="190" height="68" rx="8" fill="#ffffff" stroke="#d0d7de" stroke-width="1"/>
    <text x="713" y="78" fill="#8b949e" font-size="11" font-family="'Segoe UI', sans-serif" text-anchor="middle" font-weight="500">Streak</text>
    <text x="713" y="104" fill="#0969da" font-size="20" font-family="'Segoe UI Mono', 'Cascadia Code', monospace" text-anchor="middle" font-weight="700">161</text>
    <text x="713" y="120" fill="#8b949e" font-size="11" font-family="'Segoe UI', sans-serif" text-anchor="middle">days</text>
  </g>

  <g class="cpd-chart">
    <line x1="72" y1="148" x2="808" y2="148" stroke="#eaeef2" stroke-width="1" stroke-dasharray="4,4"/><line x1="72" y1="213.5" x2="808" y2="213.5" stroke="#eaeef2" stroke-width="1" stroke-dasharray="4,4"/><line x1="72" y1="279" x2="808" y2="279" stroke="#eaeef2" stroke-width="1" stroke-dasharray="4,4"/><line x1="72" y1="344.5" x2="808" y2="344.5" stroke="#eaeef2" stroke-width="1" stroke-dasharray="4,4"/><line x1="72" y1="410" x2="808" y2="410" stroke="#eaeef2" stroke-width="1" stroke-dasharray="4,4"/><line x1="72" y1="279" x2="808" y2="279" stroke="#d0d7de" stroke-width="1.5"/><text x="64" y="162" fill="#8b949e" font-size="10" font-family="'Segoe UI', sans-serif" text-anchor="end">+27,051</text><text x="64" y="406" fill="#8b949e" font-size="10" font-family="'Segoe UI', sans-serif" text-anchor="end">-27,051</text><text x="64" y="283" fill="#8b949e" font-size="10" font-family="'Segoe UI', sans-serif" text-anchor="end">0</text><path d="M 72 279 L 72 158 L 96.53333333333333 158 L 121.06666666666666 222.19696129533105 L 145.60000000000002 249.77320616613065 L 170.13333333333333 158 L 194.66666666666669 243.75697756090347 L 219.20000000000002 278.7852944438283 L 243.73333333333335 279 L 268.26666666666665 278.7629292817271 L 292.8 279 L 317.33333333333337 255.95941000332704 L 341.8666666666667 214.36468152748512 L 366.40000000000003 247.5143247939078 L 390.93333333333334 258.2317104728106 L 415.4666666666667 278.9776348378988 L 440 162.9874311485712 L 464.53333333333336 158 L 489.0666666666667 269.0564489297993 L 513.6 158 L 538.1333333333334 158 L 562.6666666666667 228.0879449927914 L 587.2 267.61613249048094 L 611.7333333333333 216.85616058556062 L 636.2666666666667 240.4290414402425 L 660.8000000000001 158 L 685.3333333333334 251.66977191231376 L 709.8666666666667 263.9303537762005 L 734.4000000000001 178.46859635503307 L 758.9333333333334 242.79080255813093 L 783.4666666666667 196.51728217071457 L 808 231.17881039517948 L 808 279 Z" fill="#1a7f37" opacity="0.15"/><path d="M 72 279 L 72 158 L 96.53333333333333 158 L 121.06666666666666 222.19696129533105 L 145.60000000000002 249.77320616613065 L 170.13333333333333 158 L 194.66666666666669 243.75697756090347 L 219.20000000000002 278.7852944438283 L 243.73333333333335 279 L 268.26666666666665 278.7629292817271 L 292.8 279 L 317.33333333333337 255.95941000332704 L 341.8666666666667 214.36468152748512 L 366.40000000000003 247.5143247939078 L 390.93333333333334 258.2317104728106 L 415.4666666666667 278.9776348378988 L 440 162.9874311485712 L 464.53333333333336 158 L 489.0666666666667 269.0564489297993 L 513.6 158 L 538.1333333333334 158 L 562.6666666666667 228.0879449927914 L 587.2 267.61613249048094 L 611.7333333333333 216.85616058556062 L 636.2666666666667 240.4290414402425 L 660.8000000000001 158 L 685.3333333333334 251.66977191231376 L 709.8666666666667 263.9303537762005 L 734.4000000000001 178.46859635503307 L 758.9333333333334 242.79080255813093 L 783.4666666666667 196.51728217071457 L 808 231.17881039517948" fill="none" stroke="#1a7f37" stroke-width="2"/><path d="M 72 279 L 72 297.7822631326014 L 96.53333333333333 334.3179919411482 L 121.06666666666666 288.28154227200474 L 145.60000000000002 288.09367491035454 L 170.13333333333333 283.1867583453477 L 194.66666666666669 280.3150715315515 L 219.20000000000002 300.75682969206315 L 243.73333333333335 279 L 268.26666666666665 279.20128645891094 L 292.8 279 L 317.33333333333337 279.5099256959077 L 341.8666666666667 282.69025174670065 L 366.40000000000003 287.9236996783853 L 390.93333333333334 279.2773280100551 L 415.4666666666667 279 L 440 281.46911389597426 L 464.53333333333336 301.0744149939004 L 489.0666666666667 279.3712616908802 L 513.6 284.5555062659421 L 538.1333333333334 282.9586336919153 L 562.6666666666667 302.6355033085653 L 587.2 281.4199105393516 L 611.7333333333333 299.835385013493 L 636.2666666666667 286.17027096964995 L 660.8000000000001 315.4954715167646 L 685.3333333333334 291.74814239769324 L 709.8666666666667 284.70311633581014 L 734.4000000000001 287.2661639126095 L 758.9333333333334 282.4844922553695 L 783.4666666666667 299.77276255960965 L 808 280.81605116261875 L 808 279 Z" fill="#cf222e" opacity="0.15"/><path d="M 72 279 L 72 297.7822631326014 L 96.53333333333333 334.3179919411482 L 121.06666666666666 288.28154227200474 L 145.60000000000002 288.09367491035454 L 170.13333333333333 283.1867583453477 L 194.66666666666669 280.3150715315515 L 219.20000000000002 300.75682969206315 L 243.73333333333335 279 L 268.26666666666665 279.20128645891094 L 292.8 279 L 317.33333333333337 279.5099256959077 L 341.8666666666667 282.69025174670065 L 366.40000000000003 287.9236996783853 L 390.93333333333334 279.2773280100551 L 415.4666666666667 279 L 440 281.46911389597426 L 464.53333333333336 301.0744149939004 L 489.0666666666667 279.3712616908802 L 513.6 284.5555062659421 L 538.1333333333334 282.9586336919153 L 562.6666666666667 302.6355033085653 L 587.2 281.4199105393516 L 611.7333333333333 299.835385013493 L 636.2666666666667 286.17027096964995 L 660.8000000000001 315.4954715167646 L 685.3333333333334 291.74814239769324 L 709.8666666666667 284.70311633581014 L 734.4000000000001 287.2661639126095 L 758.9333333333334 282.4844922553695 L 783.4666666666667 299.77276255960965 L 808 280.81605116261875" fill="none" stroke="#cf222e" stroke-width="2"/><text x="72" y="426" fill="#8b949e" font-size="10" font-family="'Segoe UI', sans-serif" text-anchor="middle">Apr 8</text><text x="194.66666666666669" y="426" fill="#8b949e" font-size="10" font-family="'Segoe UI', sans-serif" text-anchor="middle">Apr 13</text><text x="317.33333333333337" y="426" fill="#8b949e" font-size="10" font-family="'Segoe UI', sans-serif" text-anchor="middle">Apr 18</text><text x="440" y="426" fill="#8b949e" font-size="10" font-family="'Segoe UI', sans-serif" text-anchor="middle">Apr 23</text><text x="562.6666666666667" y="426" fill="#8b949e" font-size="10" font-family="'Segoe UI', sans-serif" text-anchor="middle">Apr 28</text><text x="685.3333333333334" y="426" fill="#8b949e" font-size="10" font-family="'Segoe UI', sans-serif" text-anchor="middle">May 3</text><text x="808" y="426" fill="#8b949e" font-size="10" font-family="'Segoe UI', sans-serif" text-anchor="middle">May 8</text>
  </g>

  <g class="cpd-legend">
    
    <circle cx="30" cy="442" r="5" fill="#1a7f37"/>
    <text x="40" y="446" fill="#656d76" font-size="11" font-family="'Segoe UI', sans-serif">Additions</text>
    <circle cx="124" cy="442" r="5" fill="#cf222e"/>
    <text x="134" y="446" fill="#656d76" font-size="11" font-family="'Segoe UI', sans-serif">Deletions</text>
    <text x="816" y="446" fill="#8b949e" font-size="10" font-family="'Segoe UI', sans-serif" text-anchor="end">Last 31 days · +5,512,063 / -69,553 lines</text>
  </g>

  <a href="https://github.com/mpge/code-per-day" target="_blank">
    <text x="420" y="452" fill="#8b949e" font-size="10" font-family="'Segoe UI', sans-serif" text-anchor="middle" opacity="0.6">Get your own - github.com/mpge/code-per-day</text>
  </a>
</svg>