<svg width="840" height="460" viewBox="0 0 840 460" xmlns="http://www.w3.org/2000/svg">
  
    <style>
      @keyframes fadeInUp {
        from { opacity: 0; transform: translateY(12px); }
        to   { opacity: 1; transform: translateY(0); }
      }
      @keyframes growBar {
        from { transform: scaleY(0); }
        to   { transform: scaleY(1); }
      }
      .cpd-header  { animation: fadeInUp 0.5s ease both; }
      .cpd-stats   { animation: fadeInUp 0.5s ease 0.15s both; }
      .cpd-chart   { animation: fadeInUp 0.5s ease 0.3s both; }
      .cpd-legend  { animation: fadeInUp 0.5s ease 0.45s both; }
    </style>

  <rect width="840" height="460" rx="12" fill="#2e3440" stroke="#4c566a" stroke-width="1"/>

  <g class="cpd-header">
    <a href="https://github.com/mpge/code-per-day" target="_blank">
      <text x="24" y="44" fill="#eceff4" font-size="18" font-family="'Segoe UI', sans-serif" font-weight="700">Code Per Day</text>
    </a>
    <text x="816" y="44" fill="#81a1c1" font-size="13" font-family="'Segoe UI', sans-serif" text-anchor="end" font-weight="500">@mpge</text>
  </g>

  <g class="cpd-stats">
    
    <rect x="24" y="60" width="190" height="68" rx="8" fill="#2e3440" stroke="#4c566a" stroke-width="1"/>
    <text x="119" y="78" fill="#81a1c1" font-size="11" font-family="'Segoe UI', sans-serif" text-anchor="middle" font-weight="500">Today</text>
    <text x="119" y="100" fill="#a3be8c" font-size="16" font-family="'Segoe UI Mono', 'Cascadia Code', monospace" text-anchor="middle" font-weight="700">+22,236</text>
    <text x="119" y="118" fill="#bf616a" font-size="14" font-family="'Segoe UI Mono', 'Cascadia Code', monospace" text-anchor="middle" font-weight="600">-1,811</text>
    <rect x="222" y="60" width="190" height="68" rx="8" fill="#2e3440" stroke="#4c566a" stroke-width="1"/>
    <text x="317" y="78" fill="#81a1c1" font-size="11" font-family="'Segoe UI', sans-serif" text-anchor="middle" font-weight="500">30d Avg</text>
    <text x="317" y="100" fill="#a3be8c" font-size="16" font-family="'Segoe UI Mono', 'Cascadia Code', monospace" text-anchor="middle" font-weight="700">+235,773</text>
    <text x="317" y="118" fill="#bf616a" font-size="14" font-family="'Segoe UI Mono', 'Cascadia Code', monospace" text-anchor="middle" font-weight="600">-57,493</text>
    <rect x="420" y="60" width="190" height="68" rx="8" fill="#2e3440" stroke="#4c566a" stroke-width="1"/>
    <text x="515" y="78" fill="#81a1c1" font-size="11" font-family="'Segoe UI', sans-serif" text-anchor="middle" font-weight="500">Year Avg</text>
    <text x="515" y="100" fill="#a3be8c" font-size="16" font-family="'Segoe UI Mono', 'Cascadia Code', monospace" text-anchor="middle" font-weight="700">+24,015</text>
    <text x="515" y="118" fill="#bf616a" font-size="14" font-family="'Segoe UI Mono', 'Cascadia Code', monospace" text-anchor="middle" font-weight="600">-6,456</text>
    <rect x="618" y="60" width="190" height="68" rx="8" fill="#2e3440" stroke="#4c566a" stroke-width="1"/>
    <text x="713" y="78" fill="#81a1c1" font-size="11" font-family="'Segoe UI', sans-serif" text-anchor="middle" font-weight="500">Streak</text>
    <text x="713" y="104" fill="#88c0d0" font-size="20" font-family="'Segoe UI Mono', 'Cascadia Code', monospace" text-anchor="middle" font-weight="700">159</text>
    <text x="713" y="120" fill="#81a1c1" font-size="11" font-family="'Segoe UI', sans-serif" text-anchor="middle">days</text>
  </g>

  <g class="cpd-chart">
    <line x1="72" y1="148" x2="808" y2="148" stroke="#434c5e" stroke-width="1" stroke-dasharray="4,4"/><line x1="72" y1="213.5" x2="808" y2="213.5" stroke="#434c5e" stroke-width="1" stroke-dasharray="4,4"/><line x1="72" y1="279" x2="808" y2="279" stroke="#434c5e" stroke-width="1" stroke-dasharray="4,4"/><line x1="72" y1="344.5" x2="808" y2="344.5" stroke="#434c5e" stroke-width="1" stroke-dasharray="4,4"/><line x1="72" y1="410" x2="808" y2="410" stroke="#434c5e" stroke-width="1" stroke-dasharray="4,4"/><line x1="72" y1="279" x2="808" y2="279" stroke="#4c566a" stroke-width="1.5"/><text x="64" y="162" fill="#81a1c1" font-size="10" font-family="'Segoe UI', sans-serif" text-anchor="end">+34,213</text><text x="64" y="406" fill="#81a1c1" font-size="10" font-family="'Segoe UI', sans-serif" text-anchor="end">-34,213</text><text x="64" y="283" fill="#81a1c1" font-size="10" font-family="'Segoe UI', sans-serif" text-anchor="end">0</text><path d="M 72 279 L 72 158 L 96.53333333333333 158 L 121.06666666666666 158 L 145.60000000000002 158 L 170.13333333333333 158 L 194.66666666666669 234.08786133925702 L 219.20000000000002 255.89141554379916 L 243.73333333333335 158 L 268.26666666666665 251.13459795983982 L 292.8 278.8302399672639 L 317.33333333333337 279 L 341.8666666666667 278.8125566305206 L 366.40000000000003 279 L 390.93333333333334 260.78262648700786 L 415.4666666666667 227.89515681173822 L 440 254.1053985327215 L 464.53333333333336 262.57925350013153 L 489.0666666666667 278.98231666325665 L 513.6 187.2729956449303 L 538.1333333333334 158 L 562.6666666666667 271.1379884839096 L 587.2 181.40920118083767 L 611.7333333333333 158 L 636.2666666666667 238.7456522374536 L 660.8000000000001 269.9991815976383 L 685.3333333333334 229.86508052494668 L 709.8666666666667 248.50331745243037 L 734.4000000000001 158 L 758.9333333333334 257.3909624996346 L 783.4666666666667 267.08496770233535 L 808 200.35866483500422 L 808 279 Z" fill="#a3be8c" opacity="0.15"/><path d="M 72 279 L 72 158 L 96.53333333333333 158 L 121.06666666666666 158 L 145.60000000000002 158 L 170.13333333333333 158 L 194.66666666666669 234.08786133925702 L 219.20000000000002 255.89141554379916 L 243.73333333333335 158 L 268.26666666666665 251.13459795983982 L 292.8 278.8302399672639 L 317.33333333333337 279 L 341.8666666666667 278.8125566305206 L 366.40000000000003 279 L 390.93333333333334 260.78262648700786 L 415.4666666666667 227.89515681173822 L 440 254.1053985327215 L 464.53333333333336 262.57925350013153 L 489.0666666666667 278.98231666325665 L 513.6 187.2729956449303 L 538.1333333333334 158 L 562.6666666666667 271.1379884839096 L 587.2 181.40920118083767 L 611.7333333333333 158 L 636.2666666666667 238.7456522374536 L 660.8000000000001 269.9991815976383 L 685.3333333333334 229.86508052494668 L 709.8666666666667 248.50331745243037 L 734.4000000000001 158 L 758.9333333333334 257.3909624996346 L 783.4666666666667 267.08496770233535 L 808 200.35866483500422" fill="none" stroke="#a3be8c" stroke-width="2"/><path d="M 72 279 L 72 400 L 96.53333333333333 303.95826147955455 L 121.06666666666666 342.6883056148248 L 145.60000000000002 293.8504661970596 L 170.13333333333333 322.737965100985 L 194.66666666666669 286.3385847484874 L 219.20000000000002 286.19004471984334 L 243.73333333333335 282.31032063835386 L 268.26666666666665 280.0397802005086 L 292.8 296.20234998392425 L 317.33333333333337 279 L 341.8666666666667 279.1591500306901 L 366.40000000000003 279 L 390.93333333333334 279.40318007774823 L 415.4666666666667 281.91775056265163 L 440 286.0556513605939 L 464.53333333333336 279.21927337561743 L 489.0666666666667 279 L 513.6 280.9522403764651 L 538.1333333333334 296.4534533656797 L 562.6666666666667 279.2935433899395 L 587.2 283.39254084704646 L 611.7333333333333 282.12995060357173 L 636.2666666666667 297.6877502703651 L 660.8000000000001 280.91333703562975 L 685.3333333333334 295.4737965100985 L 709.8666666666667 284.6692777599158 L 734.4000000000001 307.8556688977874 L 758.9333333333334 289.0795019437056 L 783.4666666666667 283.5092508695525 L 808 285.4049045684389 L 808 279 Z" fill="#bf616a" opacity="0.15"/><path d="M 72 279 L 72 400 L 96.53333333333333 303.95826147955455 L 121.06666666666666 342.6883056148248 L 145.60000000000002 293.8504661970596 L 170.13333333333333 322.737965100985 L 194.66666666666669 286.3385847484874 L 219.20000000000002 286.19004471984334 L 243.73333333333335 282.31032063835386 L 268.26666666666665 280.0397802005086 L 292.8 296.20234998392425 L 317.33333333333337 279 L 341.8666666666667 279.1591500306901 L 366.40000000000003 279 L 390.93333333333334 279.40318007774823 L 415.4666666666667 281.91775056265163 L 440 286.0556513605939 L 464.53333333333336 279.21927337561743 L 489.0666666666667 279 L 513.6 280.9522403764651 L 538.1333333333334 296.4534533656797 L 562.6666666666667 279.2935433899395 L 587.2 283.39254084704646 L 611.7333333333333 282.12995060357173 L 636.2666666666667 297.6877502703651 L 660.8000000000001 280.91333703562975 L 685.3333333333334 295.4737965100985 L 709.8666666666667 284.6692777599158 L 734.4000000000001 307.8556688977874 L 758.9333333333334 289.0795019437056 L 783.4666666666667 283.5092508695525 L 808 285.4049045684389" fill="none" stroke="#bf616a" stroke-width="2"/><text x="72" y="426" fill="#81a1c1" font-size="10" font-family="'Segoe UI', sans-serif" text-anchor="middle">Apr 5</text><text x="194.66666666666669" y="426" fill="#81a1c1" font-size="10" font-family="'Segoe UI', sans-serif" text-anchor="middle">Apr 10</text><text x="317.33333333333337" y="426" fill="#81a1c1" font-size="10" font-family="'Segoe UI', sans-serif" text-anchor="middle">Apr 15</text><text x="440" y="426" fill="#81a1c1" font-size="10" font-family="'Segoe UI', sans-serif" text-anchor="middle">Apr 20</text><text x="562.6666666666667" y="426" fill="#81a1c1" font-size="10" font-family="'Segoe UI', sans-serif" text-anchor="middle">Apr 25</text><text x="685.3333333333334" y="426" fill="#81a1c1" font-size="10" font-family="'Segoe UI', sans-serif" text-anchor="middle">Apr 30</text><text x="808" y="426" fill="#81a1c1" font-size="10" font-family="'Segoe UI', sans-serif" text-anchor="middle">May 5</text>
  </g>

  <g class="cpd-legend">
    
    <circle cx="30" cy="442" r="5" fill="#a3be8c"/>
    <text x="40" y="446" fill="#d8dee9" font-size="11" font-family="'Segoe UI', sans-serif">Additions</text>
    <circle cx="124" cy="442" r="5" fill="#bf616a"/>
    <text x="134" y="446" fill="#d8dee9" font-size="11" font-family="'Segoe UI', sans-serif">Deletions</text>
    <text x="816" y="446" fill="#81a1c1" font-size="10" font-family="'Segoe UI', sans-serif" text-anchor="end">Last 31 days · +7,308,950 / -1,782,285 lines</text>
  </g>

  <a href="https://github.com/mpge/code-per-day" target="_blank">
    <text x="420" y="452" fill="#81a1c1" font-size="10" font-family="'Segoe UI', sans-serif" text-anchor="middle" opacity="0.6">Get your own - github.com/mpge/code-per-day</text>
  </a>
</svg>