<svg width="840" height="460" viewBox="0 0 840 460" xmlns="http://www.w3.org/2000/svg">
  
    <style>
      @keyframes fadeInUp {
        from { opacity: 0; transform: translateY(12px); }
        to   { opacity: 1; transform: translateY(0); }
      }
      @keyframes growBar {
        from { transform: scaleY(0); }
        to   { transform: scaleY(1); }
      }
      .cpd-header  { animation: fadeInUp 0.5s ease both; }
      .cpd-stats   { animation: fadeInUp 0.5s ease 0.15s both; }
      .cpd-chart   { animation: fadeInUp 0.5s ease 0.3s both; }
      .cpd-legend  { animation: fadeInUp 0.5s ease 0.45s both; }
    </style>

  <rect width="840" height="460" rx="12" fill="#141321" stroke="#2d2b55" stroke-width="1"/>

  <g class="cpd-header">
    <a href="https://github.com/mpge/code-per-day" target="_blank">
      <text x="24" y="44" fill="#ff7edb" font-size="18" font-family="'Segoe UI', sans-serif" font-weight="700">Code Per Day</text>
    </a>
    <text x="816" y="44" fill="#544d8a" font-size="13" font-family="'Segoe UI', sans-serif" text-anchor="end" font-weight="500">@mpge</text>
  </g>

  <g class="cpd-stats">
    
    <rect x="24" y="60" width="190" height="68" rx="8" fill="#0f0e1a" stroke="#2d2b55" stroke-width="1"/>
    <text x="119" y="78" fill="#544d8a" font-size="11" font-family="'Segoe UI', sans-serif" text-anchor="middle" font-weight="500">Today</text>
    <text x="119" y="100" fill="#fad000" font-size="16" font-family="'Segoe UI Mono', 'Cascadia Code', monospace" text-anchor="middle" font-weight="700">+1,335</text>
    <text x="119" y="118" fill="#ff628c" font-size="14" font-family="'Segoe UI Mono', 'Cascadia Code', monospace" text-anchor="middle" font-weight="600">-38</text>
    <rect x="222" y="60" width="190" height="68" rx="8" fill="#0f0e1a" stroke="#2d2b55" stroke-width="1"/>
    <text x="317" y="78" fill="#544d8a" font-size="11" font-family="'Segoe UI', sans-serif" text-anchor="middle" font-weight="500">30d Avg</text>
    <text x="317" y="100" fill="#fad000" font-size="16" font-family="'Segoe UI Mono', 'Cascadia Code', monospace" text-anchor="middle" font-weight="700">+8,487</text>
    <text x="317" y="118" fill="#ff628c" font-size="14" font-family="'Segoe UI Mono', 'Cascadia Code', monospace" text-anchor="middle" font-weight="600">-898</text>
    <rect x="420" y="60" width="190" height="68" rx="8" fill="#0f0e1a" stroke="#2d2b55" stroke-width="1"/>
    <text x="515" y="78" fill="#544d8a" font-size="11" font-family="'Segoe UI', sans-serif" text-anchor="middle" font-weight="500">Year Avg</text>
    <text x="515" y="100" fill="#fad000" font-size="16" font-family="'Segoe UI Mono', 'Cascadia Code', monospace" text-anchor="middle" font-weight="700">+26,151</text>
    <text x="515" y="118" fill="#ff628c" font-size="14" font-family="'Segoe UI Mono', 'Cascadia Code', monospace" text-anchor="middle" font-weight="600">-7,146</text>
    <rect x="618" y="60" width="190" height="68" rx="8" fill="#0f0e1a" stroke="#2d2b55" stroke-width="1"/>
    <text x="713" y="78" fill="#544d8a" font-size="11" font-family="'Segoe UI', sans-serif" text-anchor="middle" font-weight="500">Streak</text>
    <text x="713" y="104" fill="#ff7edb" font-size="20" font-family="'Segoe UI Mono', 'Cascadia Code', monospace" text-anchor="middle" font-weight="700">221</text>
    <text x="713" y="120" fill="#544d8a" font-size="11" font-family="'Segoe UI', sans-serif" text-anchor="middle">days</text>
  </g>

  <g class="cpd-chart">
    <line x1="72" y1="148" x2="808" y2="148" stroke="#252340" stroke-width="1" stroke-dasharray="4,4"/><line x1="72" y1="213.5" x2="808" y2="213.5" stroke="#252340" stroke-width="1" stroke-dasharray="4,4"/><line x1="72" y1="279" x2="808" y2="279" stroke="#252340" stroke-width="1" stroke-dasharray="4,4"/><line x1="72" y1="344.5" x2="808" y2="344.5" stroke="#252340" stroke-width="1" stroke-dasharray="4,4"/><line x1="72" y1="410" x2="808" y2="410" stroke="#252340" stroke-width="1" stroke-dasharray="4,4"/><line x1="72" y1="279" x2="808" y2="279" stroke="#2d2b55" stroke-width="1.5"/><text x="64" y="162" fill="#544d8a" font-size="10" font-family="'Segoe UI', sans-serif" text-anchor="end">+10,988</text><text x="64" y="406" fill="#544d8a" font-size="10" font-family="'Segoe UI', sans-serif" text-anchor="end">-10,988</text><text x="64" y="283" fill="#544d8a" font-size="10" font-family="'Segoe UI', sans-serif" text-anchor="end">0</text><path d="M 72 279 L 72 279 L 96.53333333333333 259.0021842009465 L 121.06666666666666 279 L 145.60000000000002 232.24299235529668 L 170.13333333333333 279 L 194.66666666666669 278.1740990171096 L 219.20000000000002 274.6172187841281 L 243.73333333333335 227.6399708773207 L 268.26666666666665 271.0933745904623 L 292.8 279 L 317.33333333333337 263.2638332726611 L 341.8666666666667 224.79887149617764 L 366.40000000000003 217.64106297779395 L 390.93333333333334 245.18210775391336 L 415.4666666666667 158 L 440 184.83627593738623 L 464.53333333333336 158 L 489.0666666666667 199.04177284310157 L 513.6 202.4004368401893 L 538.1333333333334 258.77093192573716 L 562.6666666666667 263.37395340371313 L 587.2 229.21468875136512 L 611.7333333333333 158 L 636.2666666666667 243.95977429923553 L 660.8000000000001 251.13960684382963 L 685.3333333333334 275.36603567528215 L 709.8666666666667 279 L 734.4000000000001 276.15890061885693 L 758.9333333333334 271.39069894430287 L 783.4666666666667 279 L 808 264.29896250455045 L 808 279 Z" fill="#fad000" opacity="0.15"/><path d="M 72 279 L 72 279 L 96.53333333333333 259.0021842009465 L 121.06666666666666 279 L 145.60000000000002 232.24299235529668 L 170.13333333333333 279 L 194.66666666666669 278.1740990171096 L 219.20000000000002 274.6172187841281 L 243.73333333333335 227.6399708773207 L 268.26666666666665 271.0933745904623 L 292.8 279 L 317.33333333333337 263.2638332726611 L 341.8666666666667 224.79887149617764 L 366.40000000000003 217.64106297779395 L 390.93333333333334 245.18210775391336 L 415.4666666666667 158 L 440 184.83627593738623 L 464.53333333333336 158 L 489.0666666666667 199.04177284310157 L 513.6 202.4004368401893 L 538.1333333333334 258.77093192573716 L 562.6666666666667 263.37395340371313 L 587.2 229.21468875136512 L 611.7333333333333 158 L 636.2666666666667 243.95977429923553 L 660.8000000000001 251.13960684382963 L 685.3333333333334 275.36603567528215 L 709.8666666666667 279 L 734.4000000000001 276.15890061885693 L 758.9333333333334 271.39069894430287 L 783.4666666666667 279 L 808 264.29896250455045" fill="none" stroke="#fad000" stroke-width="2"/><path d="M 72 279 L 72 279 L 96.53333333333333 279.1211321441573 L 121.06666666666666 279 L 145.60000000000002 279.9029850746269 L 170.13333333333333 279 L 194.66666666666669 279.9800691663633 L 219.20000000000002 281.3125227520932 L 243.73333333333335 328.96150345831813 L 268.26666666666665 279.3303603931562 L 292.8 279 L 317.33333333333337 282.8982526392428 L 341.8666666666667 284.70422278849657 L 366.40000000000003 289.6706406989443 L 390.93333333333334 280.2223334546778 L 415.4666666666667 341.15180196578086 L 440 288.8447397160539 L 464.53333333333336 308.5452311612668 L 489.0666666666667 291.421550782672 L 513.6 279.748816891154 L 538.1333333333334 280.8500182016746 L 562.6666666666667 279.9470331270477 L 587.2 282.13842373498363 L 611.7333333333333 370.1133964324718 L 636.2666666666667 286.26792864943576 L 660.8000000000001 286.60930105569713 L 685.3333333333334 279 L 709.8666666666667 279 L 734.4000000000001 280.67382599199124 L 758.9333333333334 280.5857298871496 L 783.4666666666667 279 L 808 279.4184564979978 L 808 279 Z" fill="#ff628c" opacity="0.15"/><path d="M 72 279 L 72 279 L 96.53333333333333 279.1211321441573 L 121.06666666666666 279 L 145.60000000000002 279.9029850746269 L 170.13333333333333 279 L 194.66666666666669 279.9800691663633 L 219.20000000000002 281.3125227520932 L 243.73333333333335 328.96150345831813 L 268.26666666666665 279.3303603931562 L 292.8 279 L 317.33333333333337 282.8982526392428 L 341.8666666666667 284.70422278849657 L 366.40000000000003 289.6706406989443 L 390.93333333333334 280.2223334546778 L 415.4666666666667 341.15180196578086 L 440 288.8447397160539 L 464.53333333333336 308.5452311612668 L 489.0666666666667 291.421550782672 L 513.6 279.748816891154 L 538.1333333333334 280.8500182016746 L 562.6666666666667 279.9470331270477 L 587.2 282.13842373498363 L 611.7333333333333 370.1133964324718 L 636.2666666666667 286.26792864943576 L 660.8000000000001 286.60930105569713 L 685.3333333333334 279 L 709.8666666666667 279 L 734.4000000000001 280.67382599199124 L 758.9333333333334 280.5857298871496 L 783.4666666666667 279 L 808 279.4184564979978" fill="none" stroke="#ff628c" stroke-width="2"/><text x="72" y="426" fill="#544d8a" font-size="10" font-family="'Segoe UI', sans-serif" text-anchor="middle">Jun 7</text><text x="194.66666666666669" y="426" fill="#544d8a" font-size="10" font-family="'Segoe UI', sans-serif" text-anchor="middle">Jun 12</text><text x="317.33333333333337" y="426" fill="#544d8a" font-size="10" font-family="'Segoe UI', sans-serif" text-anchor="middle">Jun 17</text><text x="440" y="426" fill="#544d8a" font-size="10" font-family="'Segoe UI', sans-serif" text-anchor="middle">Jun 22</text><text x="562.6666666666667" y="426" fill="#544d8a" font-size="10" font-family="'Segoe UI', sans-serif" text-anchor="middle">Jun 27</text><text x="685.3333333333334" y="426" fill="#544d8a" font-size="10" font-family="'Segoe UI', sans-serif" text-anchor="middle">Jul 2</text><text x="808" y="426" fill="#544d8a" font-size="10" font-family="'Segoe UI', sans-serif" text-anchor="middle">Jul 7</text>
  </g>

  <g class="cpd-legend">
    
    <circle cx="30" cy="442" r="5" fill="#fad000"/>
    <text x="40" y="446" fill="#a599e9" font-size="11" font-family="'Segoe UI', sans-serif">Additions</text>
    <circle cx="124" cy="442" r="5" fill="#ff628c"/>
    <text x="134" y="446" fill="#a599e9" font-size="11" font-family="'Segoe UI', sans-serif">Deletions</text>
    <text x="816" y="446" fill="#544d8a" font-size="10" font-family="'Segoe UI', sans-serif" text-anchor="end">Last 31 days · +263,097 / -27,826 lines</text>
  </g>

  <a href="https://github.com/mpge/code-per-day" target="_blank">
    <text x="420" y="452" fill="#544d8a" font-size="10" font-family="'Segoe UI', sans-serif" text-anchor="middle" opacity="0.6">Get your own - github.com/mpge/code-per-day</text>
  </a>
</svg>