<svg width="840" height="460" viewBox="0 0 840 460" xmlns="http://www.w3.org/2000/svg">
  
    <style>
      @keyframes fadeInUp {
        from { opacity: 0; transform: translateY(12px); }
        to   { opacity: 1; transform: translateY(0); }
      }
      @keyframes growBar {
        from { transform: scaleY(0); }
        to   { transform: scaleY(1); }
      }
      .cpd-header  { animation: fadeInUp 0.5s ease both; }
      .cpd-stats   { animation: fadeInUp 0.5s ease 0.15s both; }
      .cpd-chart   { animation: fadeInUp 0.5s ease 0.3s both; }
      .cpd-legend  { animation: fadeInUp 0.5s ease 0.45s both; }
    </style>

  <rect width="840" height="460" rx="12" fill="#ffffff" stroke="#d0d7de" stroke-width="1"/>

  <g class="cpd-header">
    <a href="https://github.com/mpge/code-per-day" target="_blank">
      <text x="24" y="44" fill="#1f2328" font-size="18" font-family="'Segoe UI', sans-serif" font-weight="700">Code Per Day</text>
    </a>
    <text x="816" y="44" fill="#8b949e" font-size="13" font-family="'Segoe UI', sans-serif" text-anchor="end" font-weight="500">@mpge</text>
  </g>

  <g class="cpd-stats">
    
    <rect x="24" y="60" width="190" height="68" rx="8" fill="#ffffff" stroke="#d0d7de" stroke-width="1"/>
    <text x="119" y="78" fill="#8b949e" font-size="11" font-family="'Segoe UI', sans-serif" text-anchor="middle" font-weight="500">Today</text>
    <text x="119" y="100" fill="#1a7f37" font-size="16" font-family="'Segoe UI Mono', 'Cascadia Code', monospace" text-anchor="middle" font-weight="700">+1,816</text>
    <text x="119" y="118" fill="#cf222e" font-size="14" font-family="'Segoe UI Mono', 'Cascadia Code', monospace" text-anchor="middle" font-weight="600">-11</text>
    <rect x="222" y="60" width="190" height="68" rx="8" fill="#ffffff" stroke="#d0d7de" stroke-width="1"/>
    <text x="317" y="78" fill="#8b949e" font-size="11" font-family="'Segoe UI', sans-serif" text-anchor="middle" font-weight="500">30d Avg</text>
    <text x="317" y="100" fill="#1a7f37" font-size="16" font-family="'Segoe UI Mono', 'Cascadia Code', monospace" text-anchor="middle" font-weight="700">+17,780</text>
    <text x="317" y="118" fill="#cf222e" font-size="14" font-family="'Segoe UI Mono', 'Cascadia Code', monospace" text-anchor="middle" font-weight="600">-6,449</text>
    <rect x="420" y="60" width="190" height="68" rx="8" fill="#ffffff" stroke="#d0d7de" stroke-width="1"/>
    <text x="515" y="78" fill="#8b949e" font-size="11" font-family="'Segoe UI', sans-serif" text-anchor="middle" font-weight="500">Year Avg</text>
    <text x="515" y="100" fill="#1a7f37" font-size="16" font-family="'Segoe UI Mono', 'Cascadia Code', monospace" text-anchor="middle" font-weight="700">+25,484</text>
    <text x="515" y="118" fill="#cf222e" font-size="14" font-family="'Segoe UI Mono', 'Cascadia Code', monospace" text-anchor="middle" font-weight="600">-7,075</text>
    <rect x="618" y="60" width="190" height="68" rx="8" fill="#ffffff" stroke="#d0d7de" stroke-width="1"/>
    <text x="713" y="78" fill="#8b949e" font-size="11" font-family="'Segoe UI', sans-serif" text-anchor="middle" font-weight="500">Streak</text>
    <text x="713" y="104" fill="#0969da" font-size="20" font-family="'Segoe UI Mono', 'Cascadia Code', monospace" text-anchor="middle" font-weight="700">193</text>
    <text x="713" y="120" fill="#8b949e" font-size="11" font-family="'Segoe UI', sans-serif" text-anchor="middle">days</text>
  </g>

  <g class="cpd-chart">
    <line x1="72" y1="148" x2="808" y2="148" stroke="#eaeef2" stroke-width="1" stroke-dasharray="4,4"/><line x1="72" y1="213.5" x2="808" y2="213.5" stroke="#eaeef2" stroke-width="1" stroke-dasharray="4,4"/><line x1="72" y1="279" x2="808" y2="279" stroke="#eaeef2" stroke-width="1" stroke-dasharray="4,4"/><line x1="72" y1="344.5" x2="808" y2="344.5" stroke="#eaeef2" stroke-width="1" stroke-dasharray="4,4"/><line x1="72" y1="410" x2="808" y2="410" stroke="#eaeef2" stroke-width="1" stroke-dasharray="4,4"/><line x1="72" y1="279" x2="808" y2="279" stroke="#d0d7de" stroke-width="1.5"/><text x="64" y="162" fill="#8b949e" font-size="10" font-family="'Segoe UI', sans-serif" text-anchor="end">+31,931</text><text x="64" y="406" fill="#8b949e" font-size="10" font-family="'Segoe UI', sans-serif" text-anchor="end">-31,931</text><text x="64" y="283" fill="#8b949e" font-size="10" font-family="'Segoe UI', sans-serif" text-anchor="end">0</text><path d="M 72 279 L 72 274.062384516614 L 96.53333333333333 233.68989383357865 L 121.06666666666666 221.8631110832733 L 145.60000000000002 266.0439698099026 L 170.13333333333333 245.98277535936865 L 194.66666666666669 263.614950988068 L 219.20000000000002 260.7387804954433 L 243.73333333333335 277.21139331683946 L 268.26666666666665 158 L 292.8 158 L 317.33333333333337 158 L 341.8666666666667 195.46600482289938 L 366.40000000000003 276.75666280417147 L 390.93333333333334 261.07224953806644 L 415.4666666666667 230.8554069712818 L 440 228.8583821364818 L 464.53333333333336 261.10256490557765 L 489.0666666666667 262.9934859540885 L 513.6 265.8923929723466 L 538.1333333333334 199.60026306723873 L 562.6666666666667 234.845667219943 L 587.2 245.82740910087375 L 611.7333333333333 158 L 636.2666666666667 208.90708089317593 L 660.8000000000001 158 L 685.3333333333334 203.7269424697003 L 709.8666666666667 254.32329084588645 L 734.4000000000001 225.33043124236636 L 758.9333333333334 278.2724311797313 L 783.4666666666667 279 L 808 272.1184115749585 L 808 279 Z" fill="#1a7f37" opacity="0.15"/><path d="M 72 279 L 72 274.062384516614 L 96.53333333333333 233.68989383357865 L 121.06666666666666 221.8631110832733 L 145.60000000000002 266.0439698099026 L 170.13333333333333 245.98277535936865 L 194.66666666666669 263.614950988068 L 219.20000000000002 260.7387804954433 L 243.73333333333335 277.21139331683946 L 268.26666666666665 158 L 292.8 158 L 317.33333333333337 158 L 341.8666666666667 195.46600482289938 L 366.40000000000003 276.75666280417147 L 390.93333333333334 261.07224953806644 L 415.4666666666667 230.8554069712818 L 440 228.8583821364818 L 464.53333333333336 261.10256490557765 L 489.0666666666667 262.9934859540885 L 513.6 265.8923929723466 L 538.1333333333334 199.60026306723873 L 562.6666666666667 234.845667219943 L 587.2 245.82740910087375 L 611.7333333333333 158 L 636.2666666666667 208.90708089317593 L 660.8000000000001 158 L 685.3333333333334 203.7269424697003 L 709.8666666666667 254.32329084588645 L 734.4000000000001 225.33043124236636 L 758.9333333333334 278.2724311797313 L 783.4666666666667 279 L 808 272.1184115749585" fill="none" stroke="#1a7f37" stroke-width="2"/><path d="M 72 279 L 72 280.9553412044721 L 96.53333333333333 283.11531113964486 L 121.06666666666666 289.481538316996 L 145.60000000000002 279.3637844101344 L 170.13333333333333 291.59603520090195 L 194.66666666666669 282.6605806269769 L 219.20000000000002 281.00839309761676 L 243.73333333333335 279.36757383107323 L 268.26666666666665 283.94140490432494 L 292.8 289.0154395415114 L 317.33333333333337 400 L 341.8666666666667 312.0096457987536 L 366.40000000000003 280.4854530080486 L 390.93333333333334 292.801071059472 L 415.4666666666667 299.6182393285522 L 440 293.9378973411418 L 464.53333333333336 282.23995490275905 L 489.0666666666667 284.15740189784225 L 513.6 285.30559644232875 L 538.1333333333334 296.4843882120823 L 562.6666666666667 298.7315148288497 L 587.2 281.70943597131316 L 611.7333333333333 330.36181140584387 L 636.2666666666667 400 L 660.8000000000001 394.66070589709057 L 685.3333333333334 299.62581817042997 L 709.8666666666667 282.8159468854718 L 734.4000000000001 286.6470514546992 L 758.9333333333334 279.227365256334 L 783.4666666666667 279 L 808 279.0416836303279 L 808 279 Z" fill="#cf222e" opacity="0.15"/><path d="M 72 279 L 72 280.9553412044721 L 96.53333333333333 283.11531113964486 L 121.06666666666666 289.481538316996 L 145.60000000000002 279.3637844101344 L 170.13333333333333 291.59603520090195 L 194.66666666666669 282.6605806269769 L 219.20000000000002 281.00839309761676 L 243.73333333333335 279.36757383107323 L 268.26666666666665 283.94140490432494 L 292.8 289.0154395415114 L 317.33333333333337 400 L 341.8666666666667 312.0096457987536 L 366.40000000000003 280.4854530080486 L 390.93333333333334 292.801071059472 L 415.4666666666667 299.6182393285522 L 440 293.9378973411418 L 464.53333333333336 282.23995490275905 L 489.0666666666667 284.15740189784225 L 513.6 285.30559644232875 L 538.1333333333334 296.4843882120823 L 562.6666666666667 298.7315148288497 L 587.2 281.70943597131316 L 611.7333333333333 330.36181140584387 L 636.2666666666667 400 L 660.8000000000001 394.66070589709057 L 685.3333333333334 299.62581817042997 L 709.8666666666667 282.8159468854718 L 734.4000000000001 286.6470514546992 L 758.9333333333334 279.227365256334 L 783.4666666666667 279 L 808 279.0416836303279" fill="none" stroke="#cf222e" stroke-width="2"/><text x="72" y="426" fill="#8b949e" font-size="10" font-family="'Segoe UI', sans-serif" text-anchor="middle">May 9</text><text x="194.66666666666669" y="426" fill="#8b949e" font-size="10" font-family="'Segoe UI', sans-serif" text-anchor="middle">May 14</text><text x="317.33333333333337" y="426" fill="#8b949e" font-size="10" font-family="'Segoe UI', sans-serif" text-anchor="middle">May 19</text><text x="440" y="426" fill="#8b949e" font-size="10" font-family="'Segoe UI', sans-serif" text-anchor="middle">May 24</text><text x="562.6666666666667" y="426" fill="#8b949e" font-size="10" font-family="'Segoe UI', sans-serif" text-anchor="middle">May 29</text><text x="685.3333333333334" y="426" fill="#8b949e" font-size="10" font-family="'Segoe UI', sans-serif" text-anchor="middle">Jun 3</text><text x="808" y="426" fill="#8b949e" font-size="10" font-family="'Segoe UI', sans-serif" text-anchor="middle">Jun 8</text>
  </g>

  <g class="cpd-legend">
    
    <circle cx="30" cy="442" r="5" fill="#1a7f37"/>
    <text x="40" y="446" fill="#656d76" font-size="11" font-family="'Segoe UI', sans-serif">Additions</text>
    <circle cx="124" cy="442" r="5" fill="#cf222e"/>
    <text x="134" y="446" fill="#656d76" font-size="11" font-family="'Segoe UI', sans-serif">Deletions</text>
    <text x="816" y="446" fill="#8b949e" font-size="10" font-family="'Segoe UI', sans-serif" text-anchor="end">Last 31 days · +551,172 / -199,910 lines</text>
  </g>

  <a href="https://github.com/mpge/code-per-day" target="_blank">
    <text x="420" y="452" fill="#8b949e" font-size="10" font-family="'Segoe UI', sans-serif" text-anchor="middle" opacity="0.6">Get your own - github.com/mpge/code-per-day</text>
  </a>
</svg>