<svg width="840" height="460" viewBox="0 0 840 460" xmlns="http://www.w3.org/2000/svg">
  
    <style>
      @keyframes fadeInUp {
        from { opacity: 0; transform: translateY(12px); }
        to   { opacity: 1; transform: translateY(0); }
      }
      @keyframes growBar {
        from { transform: scaleY(0); }
        to   { transform: scaleY(1); }
      }
      .cpd-header  { animation: fadeInUp 0.5s ease both; }
      .cpd-stats   { animation: fadeInUp 0.5s ease 0.15s both; }
      .cpd-chart   { animation: fadeInUp 0.5s ease 0.3s both; }
      .cpd-legend  { animation: fadeInUp 0.5s ease 0.45s both; }
    </style>

  <!-- Background -->
  <rect width="840" height="460" rx="12" fill="#1a1b26" stroke="#414868" stroke-width="1"/>

  <!-- Header -->
  <g class="cpd-header">
    <a href="https://github.com/mpge/code-per-day" target="_blank">
      <text x="24" y="44" fill="#c0caf5" font-size="18" font-family="'Segoe UI', sans-serif" font-weight="700">Code Per Day</text>
    </a>
    <text x="816" y="44" fill="#565f89" font-size="13" font-family="'Segoe UI', sans-serif" text-anchor="end" font-weight="500">@mpge</text>
  </g>

  <!-- Stats Cards -->
  <g class="cpd-stats">
    
    <rect x="24" y="60" width="190" height="68" rx="8" fill="#16161e" stroke="#414868" stroke-width="1"/>
    <text x="119" y="78" fill="#565f89" font-size="11" font-family="'Segoe UI', sans-serif" text-anchor="middle" font-weight="500">Today</text>
    <text x="119" y="100" fill="#9ece6a" font-size="16" font-family="'Segoe UI Mono', 'Cascadia Code', monospace" text-anchor="middle" font-weight="700">+11,541</text>
    <text x="119" y="118" fill="#f7768e" font-size="14" font-family="'Segoe UI Mono', 'Cascadia Code', monospace" text-anchor="middle" font-weight="600">-247</text>
    <rect x="222" y="60" width="190" height="68" rx="8" fill="#16161e" stroke="#414868" stroke-width="1"/>
    <text x="317" y="78" fill="#565f89" font-size="11" font-family="'Segoe UI', sans-serif" text-anchor="middle" font-weight="500">30d Avg</text>
    <text x="317" y="100" fill="#9ece6a" font-size="16" font-family="'Segoe UI Mono', 'Cascadia Code', monospace" text-anchor="middle" font-weight="700">+210,614</text>
    <text x="317" y="118" fill="#f7768e" font-size="14" font-family="'Segoe UI Mono', 'Cascadia Code', monospace" text-anchor="middle" font-weight="600">-56,481</text>
    <rect x="420" y="60" width="190" height="68" rx="8" fill="#16161e" stroke="#414868" stroke-width="1"/>
    <text x="515" y="78" fill="#565f89" font-size="11" font-family="'Segoe UI', sans-serif" text-anchor="middle" font-weight="500">Year Avg</text>
    <text x="515" y="100" fill="#9ece6a" font-size="16" font-family="'Segoe UI Mono', 'Cascadia Code', monospace" text-anchor="middle" font-weight="700">+21,663</text>
    <text x="515" y="118" fill="#f7768e" font-size="14" font-family="'Segoe UI Mono', 'Cascadia Code', monospace" text-anchor="middle" font-weight="600">-6,356</text>
        <rect x="618" y="60" width="190" height="68" rx="8" fill="#16161e" stroke="#414868" stroke-width="1"/>
        <text x="713" y="78" fill="#565f89" font-size="11" font-family="'Segoe UI', sans-serif" text-anchor="middle" font-weight="500">Streak</text>
        <text x="713" y="104" fill="#7aa2f7" font-size="20" font-family="'Segoe UI Mono', 'Cascadia Code', monospace" text-anchor="middle" font-weight="700">143</text>
        <text x="713" y="120" fill="#565f89" font-size="11" font-family="'Segoe UI', sans-serif" text-anchor="middle">days</text>
  </g>

  <!-- Chart -->
  <g class="cpd-chart">
    <line x1="72" y1="148" x2="808" y2="148" stroke="#292e42" stroke-width="1" stroke-dasharray="4,4"/><line x1="72" y1="213.5" x2="808" y2="213.5" stroke="#292e42" stroke-width="1" stroke-dasharray="4,4"/><line x1="72" y1="279" x2="808" y2="279" stroke="#292e42" stroke-width="1" stroke-dasharray="4,4"/><line x1="72" y1="344.5" x2="808" y2="344.5" stroke="#292e42" stroke-width="1" stroke-dasharray="4,4"/><line x1="72" y1="410" x2="808" y2="410" stroke="#292e42" stroke-width="1" stroke-dasharray="4,4"/><line x1="72" y1="279" x2="808" y2="279" stroke="#414868" stroke-width="1.5"/><text x="64" y="162" fill="#565f89" font-size="10" font-family="'Segoe UI', sans-serif" text-anchor="end">+31,449</text><text x="64" y="406" fill="#565f89" font-size="10" font-family="'Segoe UI', sans-serif" text-anchor="end">-31,449</text><text x="64" y="283" fill="#565f89" font-size="10" font-family="'Segoe UI', sans-serif" text-anchor="end">0</text><path d="M 72 279 L 72 270.56243441762854 L 96.53333333333333 238.59741168240643 L 121.06666666666666 254.42217558586918 L 145.60000000000002 219.38300104931795 L 170.13333333333333 272.6323889471843 L 194.66666666666669 218.54424623994404 L 219.20000000000002 279 L 243.73333333333335 278.77684505071704 L 268.26666666666665 279 L 292.8 246.74256733123468 L 317.33333333333337 276.7838405036726 L 341.8666666666667 279 L 366.40000000000003 273.23644630989855 L 390.93333333333334 279 L 415.4666666666667 279 L 440 209.35257082896118 L 464.53333333333336 158 L 489.0666666666667 158 L 513.6 158 L 538.1333333333334 158 L 562.6666666666667 158 L 587.2 230.14060860440713 L 611.7333333333333 253.8604407135362 L 636.2666666666667 158 L 660.8000000000001 248.6855543896467 L 685.3333333333334 278.8153200419727 L 709.8666666666667 279 L 734.4000000000001 278.79608254634485 L 758.9333333333334 279 L 783.4666666666667 259.18153200419727 L 808 234.5960125918153 L 808 279 Z" fill="#9ece6a" opacity="0.15"/><path d="M 72 279 L 72 270.56243441762854 L 96.53333333333333 238.59741168240643 L 121.06666666666666 254.42217558586918 L 145.60000000000002 219.38300104931795 L 170.13333333333333 272.6323889471843 L 194.66666666666669 218.54424623994404 L 219.20000000000002 279 L 243.73333333333335 278.77684505071704 L 268.26666666666665 279 L 292.8 246.74256733123468 L 317.33333333333337 276.7838405036726 L 341.8666666666667 279 L 366.40000000000003 273.23644630989855 L 390.93333333333334 279 L 415.4666666666667 279 L 440 209.35257082896118 L 464.53333333333336 158 L 489.0666666666667 158 L 513.6 158 L 538.1333333333334 158 L 562.6666666666667 158 L 587.2 230.14060860440713 L 611.7333333333333 253.8604407135362 L 636.2666666666667 158 L 660.8000000000001 248.6855543896467 L 685.3333333333334 278.8153200419727 L 709.8666666666667 279 L 734.4000000000001 278.79608254634485 L 758.9333333333334 279 L 783.4666666666667 259.18153200419727 L 808 234.5960125918153" fill="none" stroke="#9ece6a" stroke-width="2"/><path d="M 72 279 L 72 279.0038474991256 L 96.53333333333333 282.80132913606155 L 121.06666666666666 279.7656523259881 L 145.60000000000002 279.169289961525 L 170.13333333333333 279.4424623994404 L 194.66666666666669 290.4463098985659 L 219.20000000000002 279 L 243.73333333333335 279.14235746764604 L 268.26666666666665 279 L 292.8 279.65407485134665 L 317.33333333333337 279 L 341.8666666666667 279 L 366.40000000000003 281.18922700244843 L 390.93333333333334 279 L 415.4666666666667 279 L 440 279.15389996502273 L 464.53333333333336 400 L 489.0666666666667 306.15180132913605 L 513.6 348.2857642532354 L 538.1333333333334 295.15564882826163 L 562.6666666666667 326.5820216859042 L 587.2 286.9835606855544 L 611.7333333333333 286.82196572228054 L 636.2666666666667 282.601259181532 L 660.8000000000001 280.1311647429171 L 685.3333333333334 297.7142357467646 L 709.8666666666667 279 L 734.4000000000001 279.1731374606506 L 758.9333333333334 279 L 783.4666666666667 279.4386149003148 L 808 279.9503322840154 L 808 279 Z" fill="#f7768e" opacity="0.15"/><path d="M 72 279 L 72 279.0038474991256 L 96.53333333333333 282.80132913606155 L 121.06666666666666 279.7656523259881 L 145.60000000000002 279.169289961525 L 170.13333333333333 279.4424623994404 L 194.66666666666669 290.4463098985659 L 219.20000000000002 279 L 243.73333333333335 279.14235746764604 L 268.26666666666665 279 L 292.8 279.65407485134665 L 317.33333333333337 279 L 341.8666666666667 279 L 366.40000000000003 281.18922700244843 L 390.93333333333334 279 L 415.4666666666667 279 L 440 279.15389996502273 L 464.53333333333336 400 L 489.0666666666667 306.15180132913605 L 513.6 348.2857642532354 L 538.1333333333334 295.15564882826163 L 562.6666666666667 326.5820216859042 L 587.2 286.9835606855544 L 611.7333333333333 286.82196572228054 L 636.2666666666667 282.601259181532 L 660.8000000000001 280.1311647429171 L 685.3333333333334 297.7142357467646 L 709.8666666666667 279 L 734.4000000000001 279.1731374606506 L 758.9333333333334 279 L 783.4666666666667 279.4386149003148 L 808 279.9503322840154" fill="none" stroke="#f7768e" stroke-width="2"/><text x="72" y="426" fill="#565f89" font-size="10" font-family="'Segoe UI', sans-serif" text-anchor="middle">Mar 20</text><text x="194.66666666666669" y="426" fill="#565f89" font-size="10" font-family="'Segoe UI', sans-serif" text-anchor="middle">Mar 25</text><text x="317.33333333333337" y="426" fill="#565f89" font-size="10" font-family="'Segoe UI', sans-serif" text-anchor="middle">Mar 30</text><text x="440" y="426" fill="#565f89" font-size="10" font-family="'Segoe UI', sans-serif" text-anchor="middle">Apr 4</text><text x="562.6666666666667" y="426" fill="#565f89" font-size="10" font-family="'Segoe UI', sans-serif" text-anchor="middle">Apr 9</text><text x="685.3333333333334" y="426" fill="#565f89" font-size="10" font-family="'Segoe UI', sans-serif" text-anchor="middle">Apr 14</text><text x="808" y="426" fill="#565f89" font-size="10" font-family="'Segoe UI', sans-serif" text-anchor="middle">Apr 19</text>
  </g>

  <!-- Legend -->
  <g class="cpd-legend">
    <circle cx="30" cy="442" r="5" fill="#9ece6a"/>
    <text x="40" y="446" fill="#a9b1d6" font-size="11" font-family="'Segoe UI', sans-serif">Additions</text>
    <circle cx="124" cy="442" r="5" fill="#f7768e"/>
    <text x="134" y="446" fill="#a9b1d6" font-size="11" font-family="'Segoe UI', sans-serif">Deletions</text>
    <text x="816" y="446" fill="#565f89" font-size="10" font-family="'Segoe UI', sans-serif" text-anchor="end">Last 31 days · +6,529,028 / -1,750,910 lines</text>
  </g>

  <!-- Get your own -->
  <a href="https://github.com/mpge/code-per-day" target="_blank">
    <text x="420" y="452" fill="#565f89" font-size="10" font-family="'Segoe UI', sans-serif" text-anchor="middle" opacity="0.6">Get your own — github.com/mpge/code-per-day</text>
  </a>
</svg>