<svg width="840" height="460" viewBox="0 0 840 460" xmlns="http://www.w3.org/2000/svg">
  
    <style>
      @keyframes fadeInUp {
        from { opacity: 0; transform: translateY(12px); }
        to   { opacity: 1; transform: translateY(0); }
      }
      @keyframes growBar {
        from { transform: scaleY(0); }
        to   { transform: scaleY(1); }
      }
      .cpd-header  { animation: fadeInUp 0.5s ease both; }
      .cpd-stats   { animation: fadeInUp 0.5s ease 0.15s both; }
      .cpd-chart   { animation: fadeInUp 0.5s ease 0.3s both; }
      .cpd-legend  { animation: fadeInUp 0.5s ease 0.45s both; }
    </style>

  <rect width="840" height="460" rx="12" fill="transparent" />

  <g class="cpd-header">
    <a href="https://github.com/mpge/code-per-day" target="_blank">
      <text x="24" y="44" fill="#e6edf3" font-size="18" font-family="'Segoe UI', sans-serif" font-weight="700">Code Per Day</text>
    </a>
    <text x="816" y="44" fill="#6e7681" font-size="13" font-family="'Segoe UI', sans-serif" text-anchor="end" font-weight="500">@mpge</text>
  </g>

  <g class="cpd-stats">
    
    <rect x="24" y="60" width="190" height="68" rx="8" fill="rgba(13,17,23,0.6)" stroke="#30363d" stroke-width="1"/>
    <text x="119" y="78" fill="#6e7681" font-size="11" font-family="'Segoe UI', sans-serif" text-anchor="middle" font-weight="500">Today</text>
    <text x="119" y="100" fill="#3fb950" font-size="16" font-family="'Segoe UI Mono', 'Cascadia Code', monospace" text-anchor="middle" font-weight="700">+118,647</text>
    <text x="119" y="118" fill="#f85149" font-size="14" font-family="'Segoe UI Mono', 'Cascadia Code', monospace" text-anchor="middle" font-weight="600">-1,751</text>
    <rect x="222" y="60" width="190" height="68" rx="8" fill="rgba(13,17,23,0.6)" stroke="#30363d" stroke-width="1"/>
    <text x="317" y="78" fill="#6e7681" font-size="11" font-family="'Segoe UI', sans-serif" text-anchor="middle" font-weight="500">30d Avg</text>
    <text x="317" y="100" fill="#3fb950" font-size="16" font-family="'Segoe UI Mono', 'Cascadia Code', monospace" text-anchor="middle" font-weight="700">+37,481</text>
    <text x="317" y="118" fill="#f85149" font-size="14" font-family="'Segoe UI Mono', 'Cascadia Code', monospace" text-anchor="middle" font-weight="600">-2,931</text>
    <rect x="420" y="60" width="190" height="68" rx="8" fill="rgba(13,17,23,0.6)" stroke="#30363d" stroke-width="1"/>
    <text x="515" y="78" fill="#6e7681" font-size="11" font-family="'Segoe UI', sans-serif" text-anchor="middle" font-weight="500">Year Avg</text>
    <text x="515" y="100" fill="#3fb950" font-size="16" font-family="'Segoe UI Mono', 'Cascadia Code', monospace" text-anchor="middle" font-weight="700">+24,787</text>
    <text x="515" y="118" fill="#f85149" font-size="14" font-family="'Segoe UI Mono', 'Cascadia Code', monospace" text-anchor="middle" font-weight="600">-6,602</text>
    <rect x="618" y="60" width="190" height="68" rx="8" fill="rgba(13,17,23,0.6)" stroke="#30363d" stroke-width="1"/>
    <text x="713" y="78" fill="#6e7681" font-size="11" font-family="'Segoe UI', sans-serif" text-anchor="middle" font-weight="500">Streak</text>
    <text x="713" y="104" fill="#58a6ff" font-size="20" font-family="'Segoe UI Mono', 'Cascadia Code', monospace" text-anchor="middle" font-weight="700">172</text>
    <text x="713" y="120" fill="#6e7681" font-size="11" font-family="'Segoe UI', sans-serif" text-anchor="middle">days</text>
  </g>

  <g class="cpd-chart">
    <line x1="72" y1="148" x2="808" y2="148" stroke="rgba(33,38,45,0.6)" stroke-width="1" stroke-dasharray="4,4"/><line x1="72" y1="213.5" x2="808" y2="213.5" stroke="rgba(33,38,45,0.6)" stroke-width="1" stroke-dasharray="4,4"/><line x1="72" y1="279" x2="808" y2="279" stroke="rgba(33,38,45,0.6)" stroke-width="1" stroke-dasharray="4,4"/><line x1="72" y1="344.5" x2="808" y2="344.5" stroke="rgba(33,38,45,0.6)" stroke-width="1" stroke-dasharray="4,4"/><line x1="72" y1="410" x2="808" y2="410" stroke="rgba(33,38,45,0.6)" stroke-width="1" stroke-dasharray="4,4"/><line x1="72" y1="279" x2="808" y2="279" stroke="#30363d" stroke-width="1.5"/><text x="64" y="162" fill="#6e7681" font-size="10" font-family="'Segoe UI', sans-serif" text-anchor="end">+26,826</text><text x="64" y="406" fill="#6e7681" font-size="10" font-family="'Segoe UI', sans-serif" text-anchor="end">-26,826</text><text x="64" y="283" fill="#6e7681" font-size="10" font-family="'Segoe UI', sans-serif" text-anchor="end">0</text><path d="M 72 279 L 72 255.7661596958175 L 96.53333333333333 213.82256020278834 L 121.06666666666666 247.2502423022441 L 145.60000000000002 258.0575188250205 L 170.13333333333333 278.97744725266534 L 194.66666666666669 162.0143890255722 L 219.20000000000002 158 L 243.73333333333335 268.97304853500333 L 268.26666666666665 158 L 292.8 158 L 317.33333333333337 227.66092596734512 L 341.8666666666667 267.5206516066503 L 366.40000000000003 216.33493625587116 L 390.93333333333334 240.10553194661895 L 415.4666666666667 158 L 440 251.44054275702678 L 464.53333333333336 263.80395884589575 L 489.0666666666667 177.62540073063445 L 513.6 242.48710206516066 L 538.1333333333334 195.82546782971744 L 562.6666666666667 158 L 587.2 273.1227540445836 L 611.7333333333333 225.06736002385745 L 636.2666666666667 210.98993513755312 L 660.8000000000001 263.578431372549 L 685.3333333333334 239.69958249459478 L 709.8666666666667 260.68716916424364 L 734.4000000000001 257.26366211883993 L 758.9333333333334 276.87102065160667 L 783.4666666666667 158 L 808 158 L 808 279 Z" fill="#3fb950" opacity="0.15"/><path d="M 72 279 L 72 255.7661596958175 L 96.53333333333333 213.82256020278834 L 121.06666666666666 247.2502423022441 L 145.60000000000002 258.0575188250205 L 170.13333333333333 278.97744725266534 L 194.66666666666669 162.0143890255722 L 219.20000000000002 158 L 243.73333333333335 268.97304853500333 L 268.26666666666665 158 L 292.8 158 L 317.33333333333337 227.66092596734512 L 341.8666666666667 267.5206516066503 L 366.40000000000003 216.33493625587116 L 390.93333333333334 240.10553194661895 L 415.4666666666667 158 L 440 251.44054275702678 L 464.53333333333336 263.80395884589575 L 489.0666666666667 177.62540073063445 L 513.6 242.48710206516066 L 538.1333333333334 195.82546782971744 L 562.6666666666667 158 L 587.2 273.1227540445836 L 611.7333333333333 225.06736002385745 L 636.2666666666667 210.98993513755312 L 660.8000000000001 263.578431372549 L 685.3333333333334 239.69958249459478 L 709.8666666666667 260.68716916424364 L 734.4000000000001 257.26366211883993 L 758.9333333333334 276.87102065160667 L 783.4666666666667 158 L 808 158" fill="none" stroke="#3fb950" stroke-width="2"/><path d="M 72 279 L 72 279.5142026392306 L 96.53333333333333 282.7212033102214 L 121.06666666666666 287.99854618653546 L 145.60000000000002 279.27965406695 L 170.13333333333333 279 L 194.66666666666669 281.48982330574813 L 219.20000000000002 301.25956161932453 L 243.73333333333335 279.37437560575563 L 268.26666666666665 284.60210243793335 L 292.8 282.99183627823754 L 317.33333333333337 302.83374338328485 L 341.8666666666667 281.4402072616119 L 366.40000000000003 300.0101394169835 L 390.93333333333334 286.2304107954969 L 415.4666666666667 315.8015731007232 L 440 291.85506598076495 L 464.53333333333336 284.7509505703422 L 489.0666666666667 287.335495414896 L 513.6 282.5137180347424 L 538.1333333333334 299.94699172444643 L 562.6666666666667 400 L 587.2 281.3274435249385 L 611.7333333333333 283.89845672109146 L 636.2666666666667 291.4761798255424 L 660.8000000000001 279.4330127488258 L 685.3333333333334 293.99306642809216 L 709.8666666666667 283.3571907850593 L 734.4000000000001 281.39059121747556 L 758.9333333333334 279.4375232982927 L 783.4666666666667 284.8817565048833 L 808 286.8979721166033 L 808 279 Z" fill="#f85149" opacity="0.15"/><path d="M 72 279 L 72 279.5142026392306 L 96.53333333333333 282.7212033102214 L 121.06666666666666 287.99854618653546 L 145.60000000000002 279.27965406695 L 170.13333333333333 279 L 194.66666666666669 281.48982330574813 L 219.20000000000002 301.25956161932453 L 243.73333333333335 279.37437560575563 L 268.26666666666665 284.60210243793335 L 292.8 282.99183627823754 L 317.33333333333337 302.83374338328485 L 341.8666666666667 281.4402072616119 L 366.40000000000003 300.0101394169835 L 390.93333333333334 286.2304107954969 L 415.4666666666667 315.8015731007232 L 440 291.85506598076495 L 464.53333333333336 284.7509505703422 L 489.0666666666667 287.335495414896 L 513.6 282.5137180347424 L 538.1333333333334 299.94699172444643 L 562.6666666666667 400 L 587.2 281.3274435249385 L 611.7333333333333 283.89845672109146 L 636.2666666666667 291.4761798255424 L 660.8000000000001 279.4330127488258 L 685.3333333333334 293.99306642809216 L 709.8666666666667 283.3571907850593 L 734.4000000000001 281.39059121747556 L 758.9333333333334 279.4375232982927 L 783.4666666666667 284.8817565048833 L 808 286.8979721166033" fill="none" stroke="#f85149" stroke-width="2"/><text x="72" y="426" fill="#6e7681" font-size="10" font-family="'Segoe UI', sans-serif" text-anchor="middle">Apr 18</text><text x="194.66666666666669" y="426" fill="#6e7681" font-size="10" font-family="'Segoe UI', sans-serif" text-anchor="middle">Apr 23</text><text x="317.33333333333337" y="426" fill="#6e7681" font-size="10" font-family="'Segoe UI', sans-serif" text-anchor="middle">Apr 28</text><text x="440" y="426" fill="#6e7681" font-size="10" font-family="'Segoe UI', sans-serif" text-anchor="middle">May 3</text><text x="562.6666666666667" y="426" fill="#6e7681" font-size="10" font-family="'Segoe UI', sans-serif" text-anchor="middle">May 8</text><text x="685.3333333333334" y="426" fill="#6e7681" font-size="10" font-family="'Segoe UI', sans-serif" text-anchor="middle">May 13</text><text x="808" y="426" fill="#6e7681" font-size="10" font-family="'Segoe UI', sans-serif" text-anchor="middle">May 18</text>
  </g>

  <g class="cpd-legend">
    
    <circle cx="30" cy="442" r="5" fill="#3fb950"/>
    <text x="40" y="446" fill="#8b949e" font-size="11" font-family="'Segoe UI', sans-serif">Additions</text>
    <circle cx="124" cy="442" r="5" fill="#f85149"/>
    <text x="134" y="446" fill="#8b949e" font-size="11" font-family="'Segoe UI', sans-serif">Deletions</text>
    <text x="816" y="446" fill="#6e7681" font-size="10" font-family="'Segoe UI', sans-serif" text-anchor="end">Last 31 days · +1,161,902 / -90,865 lines</text>
  </g>

  <a href="https://github.com/mpge/code-per-day" target="_blank">
    <text x="420" y="452" fill="#6e7681" font-size="10" font-family="'Segoe UI', sans-serif" text-anchor="middle" opacity="0.6">Get your own - github.com/mpge/code-per-day</text>
  </a>
</svg>