<svg width="840" height="460" viewBox="0 0 840 460" xmlns="http://www.w3.org/2000/svg">
  
    <style>
      @keyframes fadeInUp {
        from { opacity: 0; transform: translateY(12px); }
        to   { opacity: 1; transform: translateY(0); }
      }
      @keyframes growBar {
        from { transform: scaleY(0); }
        to   { transform: scaleY(1); }
      }
      .cpd-header  { animation: fadeInUp 0.5s ease both; }
      .cpd-stats   { animation: fadeInUp 0.5s ease 0.15s both; }
      .cpd-chart   { animation: fadeInUp 0.5s ease 0.3s both; }
      .cpd-legend  { animation: fadeInUp 0.5s ease 0.45s both; }
    </style>

  <rect width="840" height="460" rx="12" fill="transparent" />

  <g class="cpd-header">
    <a href="https://github.com/mpge/code-per-day" target="_blank">
      <text x="24" y="44" fill="#e6edf3" font-size="18" font-family="'Segoe UI', sans-serif" font-weight="700">Code Per Day</text>
    </a>
    <text x="816" y="44" fill="#6e7681" font-size="13" font-family="'Segoe UI', sans-serif" text-anchor="end" font-weight="500">@mpge</text>
  </g>

  <g class="cpd-stats">
    
    <rect x="24" y="60" width="190" height="68" rx="8" fill="rgba(13,17,23,0.6)" stroke="#30363d" stroke-width="1"/>
    <text x="119" y="78" fill="#6e7681" font-size="11" font-family="'Segoe UI', sans-serif" text-anchor="middle" font-weight="500">Today</text>
    <text x="119" y="100" fill="#3fb950" font-size="16" font-family="'Segoe UI Mono', 'Cascadia Code', monospace" text-anchor="middle" font-weight="700">+611</text>
    <text x="119" y="118" fill="#f85149" font-size="14" font-family="'Segoe UI Mono', 'Cascadia Code', monospace" text-anchor="middle" font-weight="600">-138</text>
    <rect x="222" y="60" width="190" height="68" rx="8" fill="rgba(13,17,23,0.6)" stroke="#30363d" stroke-width="1"/>
    <text x="317" y="78" fill="#6e7681" font-size="11" font-family="'Segoe UI', sans-serif" text-anchor="middle" font-weight="500">30d Avg</text>
    <text x="317" y="100" fill="#3fb950" font-size="16" font-family="'Segoe UI Mono', 'Cascadia Code', monospace" text-anchor="middle" font-weight="700">+10,345</text>
    <text x="317" y="118" fill="#f85149" font-size="14" font-family="'Segoe UI Mono', 'Cascadia Code', monospace" text-anchor="middle" font-weight="600">-4,183</text>
    <rect x="420" y="60" width="190" height="68" rx="8" fill="rgba(13,17,23,0.6)" stroke="#30363d" stroke-width="1"/>
    <text x="515" y="78" fill="#6e7681" font-size="11" font-family="'Segoe UI', sans-serif" text-anchor="middle" font-weight="500">Year Avg</text>
    <text x="515" y="100" fill="#3fb950" font-size="16" font-family="'Segoe UI Mono', 'Cascadia Code', monospace" text-anchor="middle" font-weight="700">+25,769</text>
    <text x="515" y="118" fill="#f85149" font-size="14" font-family="'Segoe UI Mono', 'Cascadia Code', monospace" text-anchor="middle" font-weight="600">-7,112</text>
    <rect x="618" y="60" width="190" height="68" rx="8" fill="rgba(13,17,23,0.6)" stroke="#30363d" stroke-width="1"/>
    <text x="713" y="78" fill="#6e7681" font-size="11" font-family="'Segoe UI', sans-serif" text-anchor="middle" font-weight="500">Streak</text>
    <text x="713" y="104" fill="#58a6ff" font-size="20" font-family="'Segoe UI Mono', 'Cascadia Code', monospace" text-anchor="middle" font-weight="700">207</text>
    <text x="713" y="120" fill="#6e7681" font-size="11" font-family="'Segoe UI', sans-serif" text-anchor="middle">days</text>
  </g>

  <g class="cpd-chart">
    <line x1="72" y1="148" x2="808" y2="148" stroke="rgba(33,38,45,0.6)" stroke-width="1" stroke-dasharray="4,4"/><line x1="72" y1="213.5" x2="808" y2="213.5" stroke="rgba(33,38,45,0.6)" stroke-width="1" stroke-dasharray="4,4"/><line x1="72" y1="279" x2="808" y2="279" stroke="rgba(33,38,45,0.6)" stroke-width="1" stroke-dasharray="4,4"/><line x1="72" y1="344.5" x2="808" y2="344.5" stroke="rgba(33,38,45,0.6)" stroke-width="1" stroke-dasharray="4,4"/><line x1="72" y1="410" x2="808" y2="410" stroke="rgba(33,38,45,0.6)" stroke-width="1" stroke-dasharray="4,4"/><line x1="72" y1="279" x2="808" y2="279" stroke="#30363d" stroke-width="1.5"/><text x="64" y="162" fill="#6e7681" font-size="10" font-family="'Segoe UI', sans-serif" text-anchor="end">+20,461</text><text x="64" y="406" fill="#6e7681" font-size="10" font-family="'Segoe UI', sans-serif" text-anchor="end">-20,461</text><text x="64" y="283" fill="#6e7681" font-size="10" font-family="'Segoe UI', sans-serif" text-anchor="end">0</text><path d="M 72 279 L 72 200.75006109183323 L 96.53333333333333 251.06964468989787 L 121.06666666666666 254.0205757294365 L 145.60000000000002 258.5445481648013 L 170.13333333333333 158 L 194.66666666666669 210.09369043546258 L 219.20000000000002 227.23156248472702 L 243.73333333333335 158 L 268.26666666666665 169.61448609549876 L 292.8 158 L 317.33333333333337 161.530472606422 L 341.8666666666667 240.4900542495479 L 366.40000000000003 195.2444162064415 L 390.93333333333334 277.8645716240653 L 415.4666666666667 279 L 440 268.26073994428424 L 464.53333333333336 279 L 489.0666666666667 253.89047456136063 L 513.6 279 L 538.1333333333334 278.5564732906505 L 562.6666666666667 276.64635159571867 L 587.2 251.41855236791946 L 611.7333333333333 274.75397096916083 L 636.2666666666667 279 L 660.8000000000001 270.54933776452765 L 685.3333333333334 249.8928204877572 L 709.8666666666667 246.04892234006158 L 734.4000000000001 260.8390596745027 L 758.9333333333334 158 L 783.4666666666667 228.43204144469968 L 808 275.38673574116615 L 808 279 Z" fill="#3fb950" opacity="0.15"/><path d="M 72 279 L 72 200.75006109183323 L 96.53333333333333 251.06964468989787 L 121.06666666666666 254.0205757294365 L 145.60000000000002 258.5445481648013 L 170.13333333333333 158 L 194.66666666666669 210.09369043546258 L 219.20000000000002 227.23156248472702 L 243.73333333333335 158 L 268.26666666666665 169.61448609549876 L 292.8 158 L 317.33333333333337 161.530472606422 L 341.8666666666667 240.4900542495479 L 366.40000000000003 195.2444162064415 L 390.93333333333334 277.8645716240653 L 415.4666666666667 279 L 440 268.26073994428424 L 464.53333333333336 279 L 489.0666666666667 253.89047456136063 L 513.6 279 L 538.1333333333334 278.5564732906505 L 562.6666666666667 276.64635159571867 L 587.2 251.41855236791946 L 611.7333333333333 274.75397096916083 L 636.2666666666667 279 L 660.8000000000001 270.54933776452765 L 685.3333333333334 249.8928204877572 L 709.8666666666667 246.04892234006158 L 734.4000000000001 260.8390596745027 L 758.9333333333334 158 L 783.4666666666667 228.43204144469968 L 808 275.38673574116615" fill="none" stroke="#3fb950" stroke-width="2"/><path d="M 72 279 L 72 302.31176384340944 L 96.53333333333333 284.05620448658425 L 121.06666666666666 287.04853135232884 L 145.60000000000002 288.84037925810077 L 170.13333333333333 306.2857631591809 L 194.66666666666669 309.7925810077709 L 219.20000000000002 283.2282879624652 L 243.73333333333335 359.1541469136406 L 268.26666666666665 400 L 292.8 400 L 317.33333333333337 311.1882117198573 L 341.8666666666667 284.9550852841992 L 366.40000000000003 290.93382532623036 L 390.93333333333334 279.3548213674796 L 415.4666666666667 279 L 440 279.0650505840379 L 464.53333333333336 279 L 489.0666666666667 279.4849225355554 L 513.6 279 L 538.1333333333334 279.5263183617614 L 562.6666666666667 280.2418747861786 L 587.2 305.8304090709154 L 611.7333333333333 279.1774106837398 L 636.2666666666667 279 L 660.8000000000001 281.0934460681296 L 685.3333333333334 282.0632911392405 L 709.8666666666667 284.73036508479544 L 734.4000000000001 279.65641952983725 L 758.9333333333334 312.37686330091395 L 783.4666666666667 284.286838375446 L 808 279.8160891452031 L 808 279 Z" fill="#f85149" opacity="0.15"/><path d="M 72 279 L 72 302.31176384340944 L 96.53333333333333 284.05620448658425 L 121.06666666666666 287.04853135232884 L 145.60000000000002 288.84037925810077 L 170.13333333333333 306.2857631591809 L 194.66666666666669 309.7925810077709 L 219.20000000000002 283.2282879624652 L 243.73333333333335 359.1541469136406 L 268.26666666666665 400 L 292.8 400 L 317.33333333333337 311.1882117198573 L 341.8666666666667 284.9550852841992 L 366.40000000000003 290.93382532623036 L 390.93333333333334 279.3548213674796 L 415.4666666666667 279 L 440 279.0650505840379 L 464.53333333333336 279 L 489.0666666666667 279.4849225355554 L 513.6 279 L 538.1333333333334 279.5263183617614 L 562.6666666666667 280.2418747861786 L 587.2 305.8304090709154 L 611.7333333333333 279.1774106837398 L 636.2666666666667 279 L 660.8000000000001 281.0934460681296 L 685.3333333333334 282.0632911392405 L 709.8666666666667 284.73036508479544 L 734.4000000000001 279.65641952983725 L 758.9333333333334 312.37686330091395 L 783.4666666666667 284.286838375446 L 808 279.8160891452031" fill="none" stroke="#f85149" stroke-width="2"/><text x="72" y="426" fill="#6e7681" font-size="10" font-family="'Segoe UI', sans-serif" text-anchor="middle">May 24</text><text x="194.66666666666669" y="426" fill="#6e7681" font-size="10" font-family="'Segoe UI', sans-serif" text-anchor="middle">May 29</text><text x="317.33333333333337" y="426" fill="#6e7681" font-size="10" font-family="'Segoe UI', sans-serif" text-anchor="middle">Jun 3</text><text x="440" y="426" fill="#6e7681" font-size="10" font-family="'Segoe UI', sans-serif" text-anchor="middle">Jun 8</text><text x="562.6666666666667" y="426" fill="#6e7681" font-size="10" font-family="'Segoe UI', sans-serif" text-anchor="middle">Jun 13</text><text x="685.3333333333334" y="426" fill="#6e7681" font-size="10" font-family="'Segoe UI', sans-serif" text-anchor="middle">Jun 18</text><text x="808" y="426" fill="#6e7681" font-size="10" font-family="'Segoe UI', sans-serif" text-anchor="middle">Jun 23</text>
  </g>

  <g class="cpd-legend">
    
    <circle cx="30" cy="442" r="5" fill="#3fb950"/>
    <text x="40" y="446" fill="#8b949e" font-size="11" font-family="'Segoe UI', sans-serif">Additions</text>
    <circle cx="124" cy="442" r="5" fill="#f85149"/>
    <text x="134" y="446" fill="#8b949e" font-size="11" font-family="'Segoe UI', sans-serif">Deletions</text>
    <text x="816" y="446" fill="#6e7681" font-size="10" font-family="'Segoe UI', sans-serif" text-anchor="end">Last 31 days · +320,692 / -129,670 lines</text>
  </g>

  <a href="https://github.com/mpge/code-per-day" target="_blank">
    <text x="420" y="452" fill="#6e7681" font-size="10" font-family="'Segoe UI', sans-serif" text-anchor="middle" opacity="0.6">Get your own - github.com/mpge/code-per-day</text>
  </a>
</svg>