<svg width="840" height="460" viewBox="0 0 840 460" xmlns="http://www.w3.org/2000/svg">
  
    <style>
      @keyframes fadeInUp {
        from { opacity: 0; transform: translateY(12px); }
        to   { opacity: 1; transform: translateY(0); }
      }
      @keyframes growBar {
        from { transform: scaleY(0); }
        to   { transform: scaleY(1); }
      }
      .cpd-header  { animation: fadeInUp 0.5s ease both; }
      .cpd-stats   { animation: fadeInUp 0.5s ease 0.15s both; }
      .cpd-chart   { animation: fadeInUp 0.5s ease 0.3s both; }
      .cpd-legend  { animation: fadeInUp 0.5s ease 0.45s both; }
    </style>

  <rect width="840" height="460" rx="12" fill="#1a1b26" stroke="#414868" stroke-width="1"/>

  <g class="cpd-header">
    <a href="https://github.com/mpge/code-per-day" target="_blank">
      <text x="24" y="44" fill="#c0caf5" font-size="18" font-family="'Segoe UI', sans-serif" font-weight="700">Code Per Day</text>
    </a>
    <text x="816" y="44" fill="#565f89" font-size="13" font-family="'Segoe UI', sans-serif" text-anchor="end" font-weight="500">@mpge</text>
  </g>

  <g class="cpd-stats">
    
    <rect x="24" y="60" width="190" height="68" rx="8" fill="#16161e" stroke="#414868" stroke-width="1"/>
    <text x="119" y="78" fill="#565f89" font-size="11" font-family="'Segoe UI', sans-serif" text-anchor="middle" font-weight="500">Today</text>
    <text x="119" y="100" fill="#9ece6a" font-size="16" font-family="'Segoe UI Mono', 'Cascadia Code', monospace" text-anchor="middle" font-weight="700">+1,166</text>
    <text x="119" y="118" fill="#f7768e" font-size="14" font-family="'Segoe UI Mono', 'Cascadia Code', monospace" text-anchor="middle" font-weight="600">-352</text>
    <rect x="222" y="60" width="190" height="68" rx="8" fill="#16161e" stroke="#414868" stroke-width="1"/>
    <text x="317" y="78" fill="#565f89" font-size="11" font-family="'Segoe UI', sans-serif" text-anchor="middle" font-weight="500">30d Avg</text>
    <text x="317" y="100" fill="#9ece6a" font-size="16" font-family="'Segoe UI Mono', 'Cascadia Code', monospace" text-anchor="middle" font-weight="700">+176,024</text>
    <text x="317" y="118" fill="#f7768e" font-size="14" font-family="'Segoe UI Mono', 'Cascadia Code', monospace" text-anchor="middle" font-weight="600">-3,271</text>
    <rect x="420" y="60" width="190" height="68" rx="8" fill="#16161e" stroke="#414868" stroke-width="1"/>
    <text x="515" y="78" fill="#565f89" font-size="11" font-family="'Segoe UI', sans-serif" text-anchor="middle" font-weight="500">Year Avg</text>
    <text x="515" y="100" fill="#9ece6a" font-size="16" font-family="'Segoe UI Mono', 'Cascadia Code', monospace" text-anchor="middle" font-weight="700">+24,231</text>
    <text x="515" y="118" fill="#f7768e" font-size="14" font-family="'Segoe UI Mono', 'Cascadia Code', monospace" text-anchor="middle" font-weight="600">-6,570</text>
    <rect x="618" y="60" width="190" height="68" rx="8" fill="#16161e" stroke="#414868" stroke-width="1"/>
    <text x="713" y="78" fill="#565f89" font-size="11" font-family="'Segoe UI', sans-serif" text-anchor="middle" font-weight="500">Streak</text>
    <text x="713" y="104" fill="#7aa2f7" font-size="20" font-family="'Segoe UI Mono', 'Cascadia Code', monospace" text-anchor="middle" font-weight="700">163</text>
    <text x="713" y="120" fill="#565f89" font-size="11" font-family="'Segoe UI', sans-serif" text-anchor="middle">days</text>
  </g>

  <g class="cpd-chart">
    <line x1="72" y1="148" x2="808" y2="148" stroke="#292e42" stroke-width="1" stroke-dasharray="4,4"/><line x1="72" y1="213.5" x2="808" y2="213.5" stroke="#292e42" stroke-width="1" stroke-dasharray="4,4"/><line x1="72" y1="279" x2="808" y2="279" stroke="#292e42" stroke-width="1" stroke-dasharray="4,4"/><line x1="72" y1="344.5" x2="808" y2="344.5" stroke="#292e42" stroke-width="1" stroke-dasharray="4,4"/><line x1="72" y1="410" x2="808" y2="410" stroke="#292e42" stroke-width="1" stroke-dasharray="4,4"/><line x1="72" y1="279" x2="808" y2="279" stroke="#414868" stroke-width="1.5"/><text x="64" y="162" fill="#565f89" font-size="10" font-family="'Segoe UI', sans-serif" text-anchor="end">+29,514</text><text x="64" y="406" fill="#565f89" font-size="10" font-family="'Segoe UI', sans-serif" text-anchor="end">-29,514</text><text x="64" y="283" fill="#565f89" font-size="10" font-family="'Segoe UI', sans-serif" text-anchor="end">0</text><path d="M 72 279 L 72 158 L 96.53333333333333 226.93728400081318 L 121.06666666666666 252.2122382598089 L 145.60000000000002 158 L 170.13333333333333 246.69807548959815 L 194.66666666666669 278.80321203496646 L 219.20000000000002 279 L 243.73333333333335 278.7827132886088 L 268.26666666666665 279 L 292.8 257.8821915023379 L 317.33333333333337 219.75862302636037 L 341.8666666666667 250.14186487768518 L 366.40000000000003 259.9648641322762 L 390.93333333333334 278.97950125364235 L 415.4666666666667 172.66890289354205 L 440 158 L 464.53333333333336 269.886257369384 L 489.0666666666667 165.87151860134173 L 513.6 158 L 538.1333333333334 232.336653791421 L 562.6666666666667 268.56613810395066 L 587.2 222.04218337060377 L 611.7333333333333 243.64786203157823 L 636.2666666666667 158 L 660.8000000000001 253.95053195093854 L 685.3333333333334 265.1879447042082 L 709.8666666666667 186.85813512231482 L 734.4000000000001 245.8125296469472 L 758.9333333333334 203.40062343294707 L 783.4666666666667 158 L 808 274.2196923493935 L 808 279 Z" fill="#9ece6a" opacity="0.15"/><path d="M 72 279 L 72 158 L 96.53333333333333 226.93728400081318 L 121.06666666666666 252.2122382598089 L 145.60000000000002 158 L 170.13333333333333 246.69807548959815 L 194.66666666666669 278.80321203496646 L 219.20000000000002 279 L 243.73333333333335 278.7827132886088 L 268.26666666666665 279 L 292.8 257.8821915023379 L 317.33333333333337 219.75862302636037 L 341.8666666666667 250.14186487768518 L 366.40000000000003 259.9648641322762 L 390.93333333333334 278.97950125364235 L 415.4666666666667 172.66890289354205 L 440 158 L 464.53333333333336 269.886257369384 L 489.0666666666667 165.87151860134173 L 513.6 158 L 538.1333333333334 232.336653791421 L 562.6666666666667 268.56613810395066 L 587.2 222.04218337060377 L 611.7333333333333 243.64786203157823 L 636.2666666666667 158 L 660.8000000000001 253.95053195093854 L 685.3333333333334 265.1879447042082 L 709.8666666666667 186.85813512231482 L 734.4000000000001 245.8125296469472 L 758.9333333333334 203.40062343294707 L 783.4666666666667 158 L 808 274.2196923493935" fill="none" stroke="#9ece6a" stroke-width="2"/><path d="M 72 279 L 72 329.70159924103814 L 96.53333333333333 287.5069797384292 L 121.06666666666666 287.3347902690249 L 145.60000000000002 282.83736531815407 L 170.13333333333333 280.20532628583044 L 194.66666666666669 298.9411804567324 L 219.20000000000002 279 L 243.73333333333335 279.1844887172189 L 268.26666666666665 279 L 292.8 279.4673714169547 L 317.33333333333337 282.382293149014 L 341.8666666666667 287.17899979670665 L 366.40000000000003 279.254184454835 L 390.93333333333334 279 L 415.4666666666667 281.2630615978857 L 440 299.2322626550112 L 464.53333333333336 279.34027918953717 L 489.0666666666667 284.09188859524295 L 513.6 282.628278105306 L 538.1333333333334 300.6630751507759 L 562.6666666666667 281.2179643558989 L 587.2 298.0966321067968 L 611.7333333333333 285.57189808226605 L 636.2666666666667 312.44985430643084 L 660.8000000000001 290.68428542386664 L 685.3333333333334 284.2271803212035 L 709.8666666666667 286.57633665379143 L 734.4000000000001 282.19370468252356 L 758.9333333333334 298.0392356169953 L 783.4666666666667 400 L 808 280.4431117435793 L 808 279 Z" fill="#f7768e" opacity="0.15"/><path d="M 72 279 L 72 329.70159924103814 L 96.53333333333333 287.5069797384292 L 121.06666666666666 287.3347902690249 L 145.60000000000002 282.83736531815407 L 170.13333333333333 280.20532628583044 L 194.66666666666669 298.9411804567324 L 219.20000000000002 279 L 243.73333333333335 279.1844887172189 L 268.26666666666665 279 L 292.8 279.4673714169547 L 317.33333333333337 282.382293149014 L 341.8666666666667 287.17899979670665 L 366.40000000000003 279.254184454835 L 390.93333333333334 279 L 415.4666666666667 281.2630615978857 L 440 299.2322626550112 L 464.53333333333336 279.34027918953717 L 489.0666666666667 284.09188859524295 L 513.6 282.628278105306 L 538.1333333333334 300.6630751507759 L 562.6666666666667 281.2179643558989 L 587.2 298.0966321067968 L 611.7333333333333 285.57189808226605 L 636.2666666666667 312.44985430643084 L 660.8000000000001 290.68428542386664 L 685.3333333333334 284.2271803212035 L 709.8666666666667 286.57633665379143 L 734.4000000000001 282.19370468252356 L 758.9333333333334 298.0392356169953 L 783.4666666666667 400 L 808 280.4431117435793" fill="none" stroke="#f7768e" stroke-width="2"/><text x="72" y="426" fill="#565f89" font-size="10" font-family="'Segoe UI', sans-serif" text-anchor="middle">Apr 9</text><text x="194.66666666666669" y="426" fill="#565f89" font-size="10" font-family="'Segoe UI', sans-serif" text-anchor="middle">Apr 14</text><text x="317.33333333333337" y="426" fill="#565f89" font-size="10" font-family="'Segoe UI', sans-serif" text-anchor="middle">Apr 19</text><text x="440" y="426" fill="#565f89" font-size="10" font-family="'Segoe UI', sans-serif" text-anchor="middle">Apr 24</text><text x="562.6666666666667" y="426" fill="#565f89" font-size="10" font-family="'Segoe UI', sans-serif" text-anchor="middle">Apr 29</text><text x="685.3333333333334" y="426" fill="#565f89" font-size="10" font-family="'Segoe UI', sans-serif" text-anchor="middle">May 4</text><text x="808" y="426" fill="#565f89" font-size="10" font-family="'Segoe UI', sans-serif" text-anchor="middle">May 9</text>
  </g>

  <g class="cpd-legend">
    
    <circle cx="30" cy="442" r="5" fill="#9ece6a"/>
    <text x="40" y="446" fill="#a9b1d6" font-size="11" font-family="'Segoe UI', sans-serif">Additions</text>
    <circle cx="124" cy="442" r="5" fill="#f7768e"/>
    <text x="134" y="446" fill="#a9b1d6" font-size="11" font-family="'Segoe UI', sans-serif">Deletions</text>
    <text x="816" y="446" fill="#565f89" font-size="10" font-family="'Segoe UI', sans-serif" text-anchor="end">Last 31 days · +5,456,750 / -101,395 lines</text>
  </g>

  <a href="https://github.com/mpge/code-per-day" target="_blank">
    <text x="420" y="452" fill="#565f89" font-size="10" font-family="'Segoe UI', sans-serif" text-anchor="middle" opacity="0.6">Get your own - github.com/mpge/code-per-day</text>
  </a>
</svg>