<svg width="840" height="460" viewBox="0 0 840 460" xmlns="http://www.w3.org/2000/svg">
  
    <style>
      @keyframes fadeInUp {
        from { opacity: 0; transform: translateY(12px); }
        to   { opacity: 1; transform: translateY(0); }
      }
      @keyframes growBar {
        from { transform: scaleY(0); }
        to   { transform: scaleY(1); }
      }
      .cpd-header  { animation: fadeInUp 0.5s ease both; }
      .cpd-stats   { animation: fadeInUp 0.5s ease 0.15s both; }
      .cpd-chart   { animation: fadeInUp 0.5s ease 0.3s both; }
      .cpd-legend  { animation: fadeInUp 0.5s ease 0.45s both; }
    </style>

  <rect width="840" height="460" rx="12" fill="transparent" />

  <g class="cpd-header">
    <a href="https://github.com/mpge/code-per-day" target="_blank">
      <text x="24" y="44" fill="#e6edf3" font-size="18" font-family="'Segoe UI', sans-serif" font-weight="700">Code Per Day</text>
    </a>
    <text x="816" y="44" fill="#6e7681" font-size="13" font-family="'Segoe UI', sans-serif" text-anchor="end" font-weight="500">@mpge</text>
  </g>

  <g class="cpd-stats">
    
    <rect x="24" y="60" width="190" height="68" rx="8" fill="rgba(13,17,23,0.6)" stroke="#30363d" stroke-width="1"/>
    <text x="119" y="78" fill="#6e7681" font-size="11" font-family="'Segoe UI', sans-serif" text-anchor="middle" font-weight="500">Today</text>
    <text x="119" y="100" fill="#3fb950" font-size="16" font-family="'Segoe UI Mono', 'Cascadia Code', monospace" text-anchor="middle" font-weight="700">+4,713</text>
    <text x="119" y="118" fill="#f85149" font-size="14" font-family="'Segoe UI Mono', 'Cascadia Code', monospace" text-anchor="middle" font-weight="600">-484</text>
    <rect x="222" y="60" width="190" height="68" rx="8" fill="rgba(13,17,23,0.6)" stroke="#30363d" stroke-width="1"/>
    <text x="317" y="78" fill="#6e7681" font-size="11" font-family="'Segoe UI', sans-serif" text-anchor="middle" font-weight="500">30d Avg</text>
    <text x="317" y="100" fill="#3fb950" font-size="16" font-family="'Segoe UI Mono', 'Cascadia Code', monospace" text-anchor="middle" font-weight="700">+32,408</text>
    <text x="317" y="118" fill="#f85149" font-size="14" font-family="'Segoe UI Mono', 'Cascadia Code', monospace" text-anchor="middle" font-weight="600">-2,829</text>
    <rect x="420" y="60" width="190" height="68" rx="8" fill="rgba(13,17,23,0.6)" stroke="#30363d" stroke-width="1"/>
    <text x="515" y="78" fill="#6e7681" font-size="11" font-family="'Segoe UI', sans-serif" text-anchor="middle" font-weight="500">Year Avg</text>
    <text x="515" y="100" fill="#3fb950" font-size="16" font-family="'Segoe UI Mono', 'Cascadia Code', monospace" text-anchor="middle" font-weight="700">+24,363</text>
    <text x="515" y="118" fill="#f85149" font-size="14" font-family="'Segoe UI Mono', 'Cascadia Code', monospace" text-anchor="middle" font-weight="600">-6,595</text>
    <rect x="618" y="60" width="190" height="68" rx="8" fill="rgba(13,17,23,0.6)" stroke="#30363d" stroke-width="1"/>
    <text x="713" y="78" fill="#6e7681" font-size="11" font-family="'Segoe UI', sans-serif" text-anchor="middle" font-weight="500">Streak</text>
    <text x="713" y="104" fill="#58a6ff" font-size="20" font-family="'Segoe UI Mono', 'Cascadia Code', monospace" text-anchor="middle" font-weight="700">169</text>
    <text x="713" y="120" fill="#6e7681" font-size="11" font-family="'Segoe UI', sans-serif" text-anchor="middle">days</text>
  </g>

  <g class="cpd-chart">
    <line x1="72" y1="148" x2="808" y2="148" stroke="rgba(33,38,45,0.6)" stroke-width="1" stroke-dasharray="4,4"/><line x1="72" y1="213.5" x2="808" y2="213.5" stroke="rgba(33,38,45,0.6)" stroke-width="1" stroke-dasharray="4,4"/><line x1="72" y1="279" x2="808" y2="279" stroke="rgba(33,38,45,0.6)" stroke-width="1" stroke-dasharray="4,4"/><line x1="72" y1="344.5" x2="808" y2="344.5" stroke="rgba(33,38,45,0.6)" stroke-width="1" stroke-dasharray="4,4"/><line x1="72" y1="410" x2="808" y2="410" stroke="rgba(33,38,45,0.6)" stroke-width="1" stroke-dasharray="4,4"/><line x1="72" y1="279" x2="808" y2="279" stroke="#30363d" stroke-width="1.5"/><text x="64" y="162" fill="#6e7681" font-size="10" font-family="'Segoe UI', sans-serif" text-anchor="end">+20,334</text><text x="64" y="406" fill="#6e7681" font-size="10" font-family="'Segoe UI', sans-serif" text-anchor="end">-20,334</text><text x="64" y="283" fill="#6e7681" font-size="10" font-family="'Segoe UI', sans-serif" text-anchor="end">0</text><path d="M 72 279 L 72 279 L 96.53333333333333 278.6846168978066 L 121.06666666666666 279 L 145.60000000000002 248.34833284154618 L 170.13333333333333 193.01347496803385 L 194.66666666666669 237.11355365397856 L 219.20000000000002 251.37125012294678 L 243.73333333333335 278.97024687715157 L 268.26666666666665 158 L 292.8 158 L 317.33333333333337 265.7717615815875 L 341.8666666666667 158 L 366.40000000000003 158 L 390.93333333333334 211.2699911478312 L 415.4666666666667 263.8556604701485 L 440 196.32797285334908 L 464.53333333333336 227.68776433559555 L 489.0666666666667 158 L 513.6 242.64168387921708 L 538.1333333333334 258.95234582472705 L 562.6666666666667 158 L 587.2 230.8296941083899 L 611.7333333333333 169.27048293498575 L 636.2666666666667 158 L 660.8000000000001 271.24633618569885 L 685.3333333333334 207.84838202026162 L 709.8666666666667 189.2764827382709 L 734.4000000000001 258.6548145962428 L 758.9333333333334 227.1522081243238 L 783.4666666666667 254.84046424707387 L 808 250.95470640306874 L 808 279 Z" fill="#3fb950" opacity="0.15"/><path d="M 72 279 L 72 279 L 96.53333333333333 278.6846168978066 L 121.06666666666666 279 L 145.60000000000002 248.34833284154618 L 170.13333333333333 193.01347496803385 L 194.66666666666669 237.11355365397856 L 219.20000000000002 251.37125012294678 L 243.73333333333335 278.97024687715157 L 268.26666666666665 158 L 292.8 158 L 317.33333333333337 265.7717615815875 L 341.8666666666667 158 L 366.40000000000003 158 L 390.93333333333334 211.2699911478312 L 415.4666666666667 263.8556604701485 L 440 196.32797285334908 L 464.53333333333336 227.68776433559555 L 489.0666666666667 158 L 513.6 242.64168387921708 L 538.1333333333334 258.95234582472705 L 562.6666666666667 158 L 587.2 230.8296941083899 L 611.7333333333333 169.27048293498575 L 636.2666666666667 158 L 660.8000000000001 271.24633618569885 L 685.3333333333334 207.84838202026162 L 709.8666666666667 189.2764827382709 L 734.4000000000001 258.6548145962428 L 758.9333333333334 227.1522081243238 L 783.4666666666667 254.84046424707387 L 808 250.95470640306874" fill="none" stroke="#3fb950" stroke-width="2"/><path d="M 72 279 L 72 279 L 96.53333333333333 279.2677781056359 L 121.06666666666666 279 L 145.60000000000002 279.67837120094424 L 170.13333333333333 283.9092652699911 L 194.66666666666669 290.871496016524 L 219.20000000000002 279.3689387233205 L 243.73333333333335 279 L 268.26666666666665 282.2847447624668 L 292.8 308.3663322514016 L 317.33333333333337 279.493901839284 L 341.8666666666667 286.3906757155503 L 366.40000000000003 284.2663027441723 L 390.93333333333334 310.4431002262221 L 415.4666666666667 282.21928789220027 L 440 306.7180092455985 L 464.53333333333336 288.538851185207 L 489.0666666666667 327.55114586407 L 513.6 295.9592800236058 L 538.1333333333334 286.58704632634993 L 562.6666666666667 289.9967542047802 L 587.2 283.63553653978556 L 611.7333333333333 306.6347005016229 L 636.2666666666667 400 L 660.8000000000001 282.0705222779581 L 685.3333333333334 285.46237828267925 L 709.8666666666667 295.45942755975216 L 734.4000000000001 279.5712599586899 L 758.9333333333334 298.77987606963706 L 783.4666666666667 284.7483033343169 L 808 281.8801022917281 L 808 279 Z" fill="#f85149" opacity="0.15"/><path d="M 72 279 L 72 279 L 96.53333333333333 279.2677781056359 L 121.06666666666666 279 L 145.60000000000002 279.67837120094424 L 170.13333333333333 283.9092652699911 L 194.66666666666669 290.871496016524 L 219.20000000000002 279.3689387233205 L 243.73333333333335 279 L 268.26666666666665 282.2847447624668 L 292.8 308.3663322514016 L 317.33333333333337 279.493901839284 L 341.8666666666667 286.3906757155503 L 366.40000000000003 284.2663027441723 L 390.93333333333334 310.4431002262221 L 415.4666666666667 282.21928789220027 L 440 306.7180092455985 L 464.53333333333336 288.538851185207 L 489.0666666666667 327.55114586407 L 513.6 295.9592800236058 L 538.1333333333334 286.58704632634993 L 562.6666666666667 289.9967542047802 L 587.2 283.63553653978556 L 611.7333333333333 306.6347005016229 L 636.2666666666667 400 L 660.8000000000001 282.0705222779581 L 685.3333333333334 285.46237828267925 L 709.8666666666667 295.45942755975216 L 734.4000000000001 279.5712599586899 L 758.9333333333334 298.77987606963706 L 783.4666666666667 284.7483033343169 L 808 281.8801022917281" fill="none" stroke="#f85149" stroke-width="2"/><text x="72" y="426" fill="#6e7681" font-size="10" font-family="'Segoe UI', sans-serif" text-anchor="middle">Apr 15</text><text x="194.66666666666669" y="426" fill="#6e7681" font-size="10" font-family="'Segoe UI', sans-serif" text-anchor="middle">Apr 20</text><text x="317.33333333333337" y="426" fill="#6e7681" font-size="10" font-family="'Segoe UI', sans-serif" text-anchor="middle">Apr 25</text><text x="440" y="426" fill="#6e7681" font-size="10" font-family="'Segoe UI', sans-serif" text-anchor="middle">Apr 30</text><text x="562.6666666666667" y="426" fill="#6e7681" font-size="10" font-family="'Segoe UI', sans-serif" text-anchor="middle">May 5</text><text x="685.3333333333334" y="426" fill="#6e7681" font-size="10" font-family="'Segoe UI', sans-serif" text-anchor="middle">May 10</text><text x="808" y="426" fill="#6e7681" font-size="10" font-family="'Segoe UI', sans-serif" text-anchor="middle">May 15</text>
  </g>

  <g class="cpd-legend">
    
    <circle cx="30" cy="442" r="5" fill="#3fb950"/>
    <text x="40" y="446" fill="#8b949e" font-size="11" font-family="'Segoe UI', sans-serif">Additions</text>
    <circle cx="124" cy="442" r="5" fill="#f85149"/>
    <text x="134" y="446" fill="#8b949e" font-size="11" font-family="'Segoe UI', sans-serif">Deletions</text>
    <text x="816" y="446" fill="#6e7681" font-size="10" font-family="'Segoe UI', sans-serif" text-anchor="end">Last 31 days · +1,004,651 / -87,712 lines</text>
  </g>

  <a href="https://github.com/mpge/code-per-day" target="_blank">
    <text x="420" y="452" fill="#6e7681" font-size="10" font-family="'Segoe UI', sans-serif" text-anchor="middle" opacity="0.6">Get your own - github.com/mpge/code-per-day</text>
  </a>
</svg>