<svg width="840" height="460" viewBox="0 0 840 460" xmlns="http://www.w3.org/2000/svg">
  
    <style>
      @keyframes fadeInUp {
        from { opacity: 0; transform: translateY(12px); }
        to   { opacity: 1; transform: translateY(0); }
      }
      @keyframes growBar {
        from { transform: scaleY(0); }
        to   { transform: scaleY(1); }
      }
      .cpd-header  { animation: fadeInUp 0.5s ease both; }
      .cpd-stats   { animation: fadeInUp 0.5s ease 0.15s both; }
      .cpd-chart   { animation: fadeInUp 0.5s ease 0.3s both; }
      .cpd-legend  { animation: fadeInUp 0.5s ease 0.45s both; }
    </style>

  <!-- Background -->
  <rect width="840" height="460" rx="12" fill="#0d1117" stroke="#30363d" stroke-width="1"/>

  <!-- Header -->
  <g class="cpd-header">
    <a href="https://github.com/mpge/code-per-day" target="_blank">
      <text x="24" y="44" fill="#f0f6fc" font-size="18" font-family="'Segoe UI', sans-serif" font-weight="700">Code Per Day</text>
    </a>
    <text x="816" y="44" fill="#484f58" font-size="13" font-family="'Segoe UI', sans-serif" text-anchor="end" font-weight="500">@mpge</text>
  </g>

  <!-- Stats Cards -->
  <g class="cpd-stats">
    
    <rect x="24" y="60" width="190" height="68" rx="8" fill="#010409" stroke="#30363d" stroke-width="1"/>
    <text x="119" y="78" fill="#484f58" font-size="11" font-family="'Segoe UI', sans-serif" text-anchor="middle" font-weight="500">Today</text>
    <text x="119" y="100" fill="#3fb950" font-size="16" font-family="'Segoe UI Mono', 'Cascadia Code', monospace" text-anchor="middle" font-weight="700">+22,270</text>
    <text x="119" y="118" fill="#f85149" font-size="14" font-family="'Segoe UI Mono', 'Cascadia Code', monospace" text-anchor="middle" font-weight="600">-903</text>
    <rect x="222" y="60" width="190" height="68" rx="8" fill="#010409" stroke="#30363d" stroke-width="1"/>
    <text x="317" y="78" fill="#484f58" font-size="11" font-family="'Segoe UI', sans-serif" text-anchor="middle" font-weight="500">30d Avg</text>
    <text x="317" y="100" fill="#3fb950" font-size="16" font-family="'Segoe UI Mono', 'Cascadia Code', monospace" text-anchor="middle" font-weight="700">+213,834</text>
    <text x="317" y="118" fill="#f85149" font-size="14" font-family="'Segoe UI Mono', 'Cascadia Code', monospace" text-anchor="middle" font-weight="600">-56,635</text>
    <rect x="420" y="60" width="190" height="68" rx="8" fill="#010409" stroke="#30363d" stroke-width="1"/>
    <text x="515" y="78" fill="#484f58" font-size="11" font-family="'Segoe UI', sans-serif" text-anchor="middle" font-weight="500">Year Avg</text>
    <text x="515" y="100" fill="#3fb950" font-size="16" font-family="'Segoe UI Mono', 'Cascadia Code', monospace" text-anchor="middle" font-weight="700">+22,078</text>
    <text x="515" y="118" fill="#f85149" font-size="14" font-family="'Segoe UI Mono', 'Cascadia Code', monospace" text-anchor="middle" font-weight="600">-6,381</text>
        <rect x="618" y="60" width="190" height="68" rx="8" fill="#010409" stroke="#30363d" stroke-width="1"/>
        <text x="713" y="78" fill="#484f58" font-size="11" font-family="'Segoe UI', sans-serif" text-anchor="middle" font-weight="500">Streak</text>
        <text x="713" y="104" fill="#2f81f7" font-size="20" font-family="'Segoe UI Mono', 'Cascadia Code', monospace" text-anchor="middle" font-weight="700">149</text>
        <text x="713" y="120" fill="#484f58" font-size="11" font-family="'Segoe UI', sans-serif" text-anchor="middle">days</text>
  </g>

  <!-- Chart -->
  <g class="cpd-chart">
    <line x1="72" y1="148" x2="808" y2="148" stroke="#21262d" stroke-width="1" stroke-dasharray="4,4"/><line x1="72" y1="213.5" x2="808" y2="213.5" stroke="#21262d" stroke-width="1" stroke-dasharray="4,4"/><line x1="72" y1="279" x2="808" y2="279" stroke="#21262d" stroke-width="1" stroke-dasharray="4,4"/><line x1="72" y1="344.5" x2="808" y2="344.5" stroke="#21262d" stroke-width="1" stroke-dasharray="4,4"/><line x1="72" y1="410" x2="808" y2="410" stroke="#21262d" stroke-width="1" stroke-dasharray="4,4"/><line x1="72" y1="279" x2="808" y2="279" stroke="#30363d" stroke-width="1.5"/><text x="64" y="162" fill="#484f58" font-size="10" font-family="'Segoe UI', sans-serif" text-anchor="end">+44,192</text><text x="64" y="406" fill="#484f58" font-size="10" font-family="'Segoe UI', sans-serif" text-anchor="end">-44,192</text><text x="64" y="283" fill="#484f58" font-size="10" font-family="'Segoe UI', sans-serif" text-anchor="end">0</text><path d="M 72 279 L 72 278.84119297610425 L 96.53333333333333 279 L 121.06666666666666 256.04417089065896 L 145.60000000000002 277.42288196958725 L 170.13333333333333 279 L 194.66666666666669 274.89839790007244 L 219.20000000000002 279 L 243.73333333333335 279 L 268.26666666666665 229.43578023171614 L 292.8 158 L 317.33333333333337 158 L 341.8666666666667 174.42009866039103 L 366.40000000000003 158 L 390.93333333333334 158 L 415.4666666666667 244.22947592324402 L 440 261.10956734250544 L 464.53333333333336 158 L 489.0666666666667 257.42688721940624 L 513.6 278.8685734974656 L 538.1333333333334 279 L 562.6666666666667 278.85488323678493 L 587.2 279 L 611.7333333333333 264.8962934467777 L 636.2666666666667 239.43514663287473 L 660.8000000000001 259.72685101375816 L 685.3333333333334 266.2872239319334 L 709.8666666666667 278.9863097393193 L 734.4000000000001 207.98587979724834 L 758.9333333333334 158 L 783.4666666666667 272.9133101013758 L 808 218.02357892831282 L 808 279 Z" fill="#3fb950" opacity="0.15"/><path d="M 72 279 L 72 278.84119297610425 L 96.53333333333333 279 L 121.06666666666666 256.04417089065896 L 145.60000000000002 277.42288196958725 L 170.13333333333333 279 L 194.66666666666669 274.89839790007244 L 219.20000000000002 279 L 243.73333333333335 279 L 268.26666666666665 229.43578023171614 L 292.8 158 L 317.33333333333337 158 L 341.8666666666667 174.42009866039103 L 366.40000000000003 158 L 390.93333333333334 158 L 415.4666666666667 244.22947592324402 L 440 261.10956734250544 L 464.53333333333336 158 L 489.0666666666667 257.42688721940624 L 513.6 278.8685734974656 L 538.1333333333334 279 L 562.6666666666667 278.85488323678493 L 587.2 279 L 611.7333333333333 264.8962934467777 L 636.2666666666667 239.43514663287473 L 660.8000000000001 259.72685101375816 L 685.3333333333334 266.2872239319334 L 709.8666666666667 278.9863097393193 L 734.4000000000001 207.98587979724834 L 758.9333333333334 158 L 783.4666666666667 272.9133101013758 L 808 218.02357892831282" fill="none" stroke="#3fb950" stroke-width="2"/><path d="M 72 279 L 72 279.1013079290369 L 96.53333333333333 279 L 121.06666666666666 279.46546886314263 L 145.60000000000002 279 L 170.13333333333333 279 L 194.66666666666669 280.5579516654598 L 219.20000000000002 279 L 243.73333333333335 279 L 268.26666666666665 279.10952208544535 L 292.8 400 L 317.33333333333337 298.32243392469223 L 341.8666666666667 328.3068428674873 L 366.40000000000003 290.49708091962344 L 390.93333333333334 312.86149076755976 L 415.4666666666667 284.6814581824765 L 440 284.5664599927589 L 464.53333333333336 281.5628167994207 L 489.0666666666667 279.8049873280232 L 513.6 292.31788559015206 L 538.1333333333334 279 L 562.6666666666667 279.12321234612597 L 587.2 279 L 611.7333333333333 279.3121379435192 L 636.2666666666667 281.2588930123099 L 660.8000000000001 284.4624140115858 L 685.3333333333334 279.16975923244024 L 709.8666666666667 279 L 734.4000000000001 280.51140477914555 L 758.9333333333334 292.51228729181753 L 783.4666666666667 279.22725832729907 L 808 281.4724610789283 L 808 279 Z" fill="#f85149" opacity="0.15"/><path d="M 72 279 L 72 279.1013079290369 L 96.53333333333333 279 L 121.06666666666666 279.46546886314263 L 145.60000000000002 279 L 170.13333333333333 279 L 194.66666666666669 280.5579516654598 L 219.20000000000002 279 L 243.73333333333335 279 L 268.26666666666665 279.10952208544535 L 292.8 400 L 317.33333333333337 298.32243392469223 L 341.8666666666667 328.3068428674873 L 366.40000000000003 290.49708091962344 L 390.93333333333334 312.86149076755976 L 415.4666666666667 284.6814581824765 L 440 284.5664599927589 L 464.53333333333336 281.5628167994207 L 489.0666666666667 279.8049873280232 L 513.6 292.31788559015206 L 538.1333333333334 279 L 562.6666666666667 279.12321234612597 L 587.2 279 L 611.7333333333333 279.3121379435192 L 636.2666666666667 281.2588930123099 L 660.8000000000001 284.4624140115858 L 685.3333333333334 279.16975923244024 L 709.8666666666667 279 L 734.4000000000001 280.51140477914555 L 758.9333333333334 292.51228729181753 L 783.4666666666667 279.22725832729907 L 808 281.4724610789283" fill="none" stroke="#f85149" stroke-width="2"/><text x="72" y="426" fill="#484f58" font-size="10" font-family="'Segoe UI', sans-serif" text-anchor="middle">Mar 27</text><text x="194.66666666666669" y="426" fill="#484f58" font-size="10" font-family="'Segoe UI', sans-serif" text-anchor="middle">Apr 1</text><text x="317.33333333333337" y="426" fill="#484f58" font-size="10" font-family="'Segoe UI', sans-serif" text-anchor="middle">Apr 6</text><text x="440" y="426" fill="#484f58" font-size="10" font-family="'Segoe UI', sans-serif" text-anchor="middle">Apr 11</text><text x="562.6666666666667" y="426" fill="#484f58" font-size="10" font-family="'Segoe UI', sans-serif" text-anchor="middle">Apr 16</text><text x="685.3333333333334" y="426" fill="#484f58" font-size="10" font-family="'Segoe UI', sans-serif" text-anchor="middle">Apr 21</text><text x="808" y="426" fill="#484f58" font-size="10" font-family="'Segoe UI', sans-serif" text-anchor="middle">Apr 26</text>
  </g>

  <!-- Legend -->
  <g class="cpd-legend">
    <circle cx="30" cy="442" r="5" fill="#3fb950"/>
    <text x="40" y="446" fill="#7d8590" font-size="11" font-family="'Segoe UI', sans-serif">Additions</text>
    <circle cx="124" cy="442" r="5" fill="#f85149"/>
    <text x="134" y="446" fill="#7d8590" font-size="11" font-family="'Segoe UI', sans-serif">Deletions</text>
    <text x="816" y="446" fill="#484f58" font-size="10" font-family="'Segoe UI', sans-serif" text-anchor="end">Last 31 days · +6,628,853 / -1,755,696 lines</text>
  </g>

  <!-- Get your own -->
  <a href="https://github.com/mpge/code-per-day" target="_blank">
    <text x="420" y="452" fill="#484f58" font-size="10" font-family="'Segoe UI', sans-serif" text-anchor="middle" opacity="0.6">Get your own — github.com/mpge/code-per-day</text>
  </a>
</svg>