<svg width="840" height="460" viewBox="0 0 840 460" xmlns="http://www.w3.org/2000/svg">
  
    <style>
      @keyframes fadeInUp {
        from { opacity: 0; transform: translateY(12px); }
        to   { opacity: 1; transform: translateY(0); }
      }
      @keyframes growBar {
        from { transform: scaleY(0); }
        to   { transform: scaleY(1); }
      }
      .cpd-header  { animation: fadeInUp 0.5s ease both; }
      .cpd-stats   { animation: fadeInUp 0.5s ease 0.15s both; }
      .cpd-chart   { animation: fadeInUp 0.5s ease 0.3s both; }
      .cpd-legend  { animation: fadeInUp 0.5s ease 0.45s both; }
    </style>

  <rect width="840" height="460" rx="12" fill="#2e3440" stroke="#4c566a" stroke-width="1"/>

  <g class="cpd-header">
    <a href="https://github.com/mpge/code-per-day" target="_blank">
      <text x="24" y="44" fill="#eceff4" font-size="18" font-family="'Segoe UI', sans-serif" font-weight="700">Code Per Day</text>
    </a>
    <text x="816" y="44" fill="#81a1c1" font-size="13" font-family="'Segoe UI', sans-serif" text-anchor="end" font-weight="500">@mpge</text>
  </g>

  <g class="cpd-stats">
    
    <rect x="24" y="60" width="190" height="68" rx="8" fill="#2e3440" stroke="#4c566a" stroke-width="1"/>
    <text x="119" y="78" fill="#81a1c1" font-size="11" font-family="'Segoe UI', sans-serif" text-anchor="middle" font-weight="500">Today</text>
    <text x="119" y="100" fill="#a3be8c" font-size="16" font-family="'Segoe UI Mono', 'Cascadia Code', monospace" text-anchor="middle" font-weight="700">+1,549</text>
    <text x="119" y="118" fill="#bf616a" font-size="14" font-family="'Segoe UI Mono', 'Cascadia Code', monospace" text-anchor="middle" font-weight="600">-503</text>
    <rect x="222" y="60" width="190" height="68" rx="8" fill="#2e3440" stroke="#4c566a" stroke-width="1"/>
    <text x="317" y="78" fill="#81a1c1" font-size="11" font-family="'Segoe UI', sans-serif" text-anchor="middle" font-weight="500">30d Avg</text>
    <text x="317" y="100" fill="#a3be8c" font-size="16" font-family="'Segoe UI Mono', 'Cascadia Code', monospace" text-anchor="middle" font-weight="700">+20,337</text>
    <text x="317" y="118" fill="#bf616a" font-size="14" font-family="'Segoe UI Mono', 'Cascadia Code', monospace" text-anchor="middle" font-weight="600">-7,764</text>
    <rect x="420" y="60" width="190" height="68" rx="8" fill="#2e3440" stroke="#4c566a" stroke-width="1"/>
    <text x="515" y="78" fill="#81a1c1" font-size="11" font-family="'Segoe UI', sans-serif" text-anchor="middle" font-weight="500">Year Avg</text>
    <text x="515" y="100" fill="#a3be8c" font-size="16" font-family="'Segoe UI Mono', 'Cascadia Code', monospace" text-anchor="middle" font-weight="700">+25,427</text>
    <text x="515" y="118" fill="#bf616a" font-size="14" font-family="'Segoe UI Mono', 'Cascadia Code', monospace" text-anchor="middle" font-weight="600">-7,068</text>
    <rect x="618" y="60" width="190" height="68" rx="8" fill="#2e3440" stroke="#4c566a" stroke-width="1"/>
    <text x="713" y="78" fill="#81a1c1" font-size="11" font-family="'Segoe UI', sans-serif" text-anchor="middle" font-weight="500">Streak</text>
    <text x="713" y="104" fill="#88c0d0" font-size="20" font-family="'Segoe UI Mono', 'Cascadia Code', monospace" text-anchor="middle" font-weight="700">189</text>
    <text x="713" y="120" fill="#81a1c1" font-size="11" font-family="'Segoe UI', sans-serif" text-anchor="middle">days</text>
  </g>

  <g class="cpd-chart">
    <line x1="72" y1="148" x2="808" y2="148" stroke="#434c5e" stroke-width="1" stroke-dasharray="4,4"/><line x1="72" y1="213.5" x2="808" y2="213.5" stroke="#434c5e" stroke-width="1" stroke-dasharray="4,4"/><line x1="72" y1="279" x2="808" y2="279" stroke="#434c5e" stroke-width="1" stroke-dasharray="4,4"/><line x1="72" y1="344.5" x2="808" y2="344.5" stroke="#434c5e" stroke-width="1" stroke-dasharray="4,4"/><line x1="72" y1="410" x2="808" y2="410" stroke="#434c5e" stroke-width="1" stroke-dasharray="4,4"/><line x1="72" y1="279" x2="808" y2="279" stroke="#4c566a" stroke-width="1.5"/><text x="64" y="162" fill="#81a1c1" font-size="10" font-family="'Segoe UI', sans-serif" text-anchor="end">+44,059</text><text x="64" y="406" fill="#81a1c1" font-size="10" font-family="'Segoe UI', sans-serif" text-anchor="end">-44,059</text><text x="64" y="283" fill="#81a1c1" font-size="10" font-family="'Segoe UI', sans-serif" text-anchor="end">0</text><path d="M 72 279 L 72 217.2765155813795 L 96.53333333333333 256.7685603395447 L 121.06666666666666 228.3579064436324 L 145.60000000000002 158 L 170.13333333333333 275.4215483783109 L 194.66666666666669 246.16228239406252 L 219.20000000000002 237.59102567012417 L 243.73333333333335 269.61034067954336 L 268.26666666666665 255.0713361628725 L 292.8 267.8499512017976 L 317.33333333333337 265.7654962663701 L 341.8666666666667 277.70373816927304 L 366.40000000000003 174.42297827912572 L 390.93333333333334 158 L 415.4666666666667 158 L 440 218.46017839714926 L 464.53333333333336 277.37418007671533 L 489.0666666666667 266.0071722009124 L 513.6 244.1080369504528 L 538.1333333333334 242.66072766063687 L 562.6666666666667 266.02914274041626 L 587.2 267.39955514196873 L 611.7333333333333 269.5004879820241 L 636.2666666666667 221.45641072198643 L 660.8000000000001 246.99990921264668 L 685.3333333333334 254.9587371479153 L 709.8666666666667 164.47307020132095 L 734.4000000000001 228.2013663496675 L 758.9333333333334 158 L 783.4666666666667 224.44715041194763 L 808 274.7459542885676 L 808 279 Z" fill="#a3be8c" opacity="0.15"/><path d="M 72 279 L 72 217.2765155813795 L 96.53333333333333 256.7685603395447 L 121.06666666666666 228.3579064436324 L 145.60000000000002 158 L 170.13333333333333 275.4215483783109 L 194.66666666666669 246.16228239406252 L 219.20000000000002 237.59102567012417 L 243.73333333333335 269.61034067954336 L 268.26666666666665 255.0713361628725 L 292.8 267.8499512017976 L 317.33333333333337 265.7654962663701 L 341.8666666666667 277.70373816927304 L 366.40000000000003 174.42297827912572 L 390.93333333333334 158 L 415.4666666666667 158 L 440 218.46017839714926 L 464.53333333333336 277.37418007671533 L 489.0666666666667 266.0071722009124 L 513.6 244.1080369504528 L 538.1333333333334 242.66072766063687 L 562.6666666666667 266.02914274041626 L 587.2 267.39955514196873 L 611.7333333333333 269.5004879820241 L 636.2666666666667 221.45641072198643 L 660.8000000000001 246.99990921264668 L 685.3333333333334 254.9587371479153 L 709.8666666666667 164.47307020132095 L 734.4000000000001 228.2013663496675 L 758.9333333333334 158 L 783.4666666666667 224.44715041194763 L 808 274.7459542885676" fill="none" stroke="#a3be8c" stroke-width="2"/><path d="M 72 279 L 72 284.0751946253887 L 96.53333333333333 281.1393812841871 L 121.06666666666666 291.75389818198323 L 145.60000000000002 378.1283279239202 L 170.13333333333333 280.41709979799816 L 194.66666666666669 281.98250073764723 L 219.20000000000002 286.59631403345514 L 243.73333333333335 279.26364647404614 L 268.26666666666665 288.1287591638485 L 292.8 281.6529426450895 L 317.33333333333337 280.45554824212985 L 341.8666666666667 279.2663927914841 L 366.40000000000003 282.5811979391271 L 390.93333333333334 286.2585169885835 L 415.4666666666667 400 L 440 302.9231712022515 L 464.53333333333336 280.07655643568853 L 489.0666666666667 289.0020881091264 L 513.6 293.942713180054 L 538.1333333333334 289.8259833405207 L 562.6666666666667 281.34810140947366 L 587.2 282.737738033092 L 611.7333333333333 283.5698722168002 L 636.2666666666667 291.67150865884383 L 660.8000000000001 293.3000748995665 L 685.3333333333334 280.9636169681563 L 709.8666666666667 316.22358655439297 L 734.4000000000001 400 L 758.9333333333334 362.8231008420527 L 783.4666666666667 293.94820581492996 L 808 280.3813976713044 L 808 279 Z" fill="#bf616a" opacity="0.15"/><path d="M 72 279 L 72 284.0751946253887 L 96.53333333333333 281.1393812841871 L 121.06666666666666 291.75389818198323 L 145.60000000000002 378.1283279239202 L 170.13333333333333 280.41709979799816 L 194.66666666666669 281.98250073764723 L 219.20000000000002 286.59631403345514 L 243.73333333333335 279.26364647404614 L 268.26666666666665 288.1287591638485 L 292.8 281.6529426450895 L 317.33333333333337 280.45554824212985 L 341.8666666666667 279.2663927914841 L 366.40000000000003 282.5811979391271 L 390.93333333333334 286.2585169885835 L 415.4666666666667 400 L 440 302.9231712022515 L 464.53333333333336 280.07655643568853 L 489.0666666666667 289.0020881091264 L 513.6 293.942713180054 L 538.1333333333334 289.8259833405207 L 562.6666666666667 281.34810140947366 L 587.2 282.737738033092 L 611.7333333333333 283.5698722168002 L 636.2666666666667 291.67150865884383 L 660.8000000000001 293.3000748995665 L 685.3333333333334 280.9636169681563 L 709.8666666666667 316.22358655439297 L 734.4000000000001 400 L 758.9333333333334 362.8231008420527 L 783.4666666666667 293.94820581492996 L 808 280.3813976713044" fill="none" stroke="#bf616a" stroke-width="2"/><text x="72" y="426" fill="#81a1c1" font-size="10" font-family="'Segoe UI', sans-serif" text-anchor="middle">May 5</text><text x="194.66666666666669" y="426" fill="#81a1c1" font-size="10" font-family="'Segoe UI', sans-serif" text-anchor="middle">May 10</text><text x="317.33333333333337" y="426" fill="#81a1c1" font-size="10" font-family="'Segoe UI', sans-serif" text-anchor="middle">May 15</text><text x="440" y="426" fill="#81a1c1" font-size="10" font-family="'Segoe UI', sans-serif" text-anchor="middle">May 20</text><text x="562.6666666666667" y="426" fill="#81a1c1" font-size="10" font-family="'Segoe UI', sans-serif" text-anchor="middle">May 25</text><text x="685.3333333333334" y="426" fill="#81a1c1" font-size="10" font-family="'Segoe UI', sans-serif" text-anchor="middle">May 30</text><text x="808" y="426" fill="#81a1c1" font-size="10" font-family="'Segoe UI', sans-serif" text-anchor="middle">Jun 4</text>
  </g>

  <g class="cpd-legend">
    
    <circle cx="30" cy="442" r="5" fill="#a3be8c"/>
    <text x="40" y="446" fill="#d8dee9" font-size="11" font-family="'Segoe UI', sans-serif">Additions</text>
    <circle cx="124" cy="442" r="5" fill="#bf616a"/>
    <text x="134" y="446" fill="#d8dee9" font-size="11" font-family="'Segoe UI', sans-serif">Deletions</text>
    <text x="816" y="446" fill="#81a1c1" font-size="10" font-family="'Segoe UI', sans-serif" text-anchor="end">Last 31 days · +630,452 / -240,683 lines</text>
  </g>

  <a href="https://github.com/mpge/code-per-day" target="_blank">
    <text x="420" y="452" fill="#81a1c1" font-size="10" font-family="'Segoe UI', sans-serif" text-anchor="middle" opacity="0.6">Get your own - github.com/mpge/code-per-day</text>
  </a>
</svg>