<svg width="840" height="460" viewBox="0 0 840 460" xmlns="http://www.w3.org/2000/svg">
  
    <style>
      @keyframes fadeInUp {
        from { opacity: 0; transform: translateY(12px); }
        to   { opacity: 1; transform: translateY(0); }
      }
      @keyframes growBar {
        from { transform: scaleY(0); }
        to   { transform: scaleY(1); }
      }
      .cpd-header  { animation: fadeInUp 0.5s ease both; }
      .cpd-stats   { animation: fadeInUp 0.5s ease 0.15s both; }
      .cpd-chart   { animation: fadeInUp 0.5s ease 0.3s both; }
      .cpd-legend  { animation: fadeInUp 0.5s ease 0.45s both; }
    </style>

  <rect width="840" height="460" rx="12" fill="#020024" stroke="#1a1a5e" stroke-width="1"/>

  <g class="cpd-header">
    <a href="https://github.com/mpge/code-per-day" target="_blank">
      <text x="24" y="44" fill="#e0e0ff" font-size="18" font-family="'Segoe UI', sans-serif" font-weight="700">Code Per Day</text>
    </a>
    <text x="816" y="44" fill="#6060a0" font-size="13" font-family="'Segoe UI', sans-serif" text-anchor="end" font-weight="500">@mpge</text>
  </g>

  <g class="cpd-stats">
    
    <rect x="24" y="60" width="190" height="68" rx="8" fill="#010018" stroke="#1a1a5e" stroke-width="1"/>
    <text x="119" y="78" fill="#6060a0" font-size="11" font-family="'Segoe UI', sans-serif" text-anchor="middle" font-weight="500">Today</text>
    <text x="119" y="100" fill="#00d4aa" font-size="16" font-family="'Segoe UI Mono', 'Cascadia Code', monospace" text-anchor="middle" font-weight="700">+781</text>
    <text x="119" y="118" fill="#ff4477" font-size="14" font-family="'Segoe UI Mono', 'Cascadia Code', monospace" text-anchor="middle" font-weight="600">-229</text>
    <rect x="222" y="60" width="190" height="68" rx="8" fill="#010018" stroke="#1a1a5e" stroke-width="1"/>
    <text x="317" y="78" fill="#6060a0" font-size="11" font-family="'Segoe UI', sans-serif" text-anchor="middle" font-weight="500">30d Avg</text>
    <text x="317" y="100" fill="#00d4aa" font-size="16" font-family="'Segoe UI Mono', 'Cascadia Code', monospace" text-anchor="middle" font-weight="700">+32,450</text>
    <text x="317" y="118" fill="#ff4477" font-size="14" font-family="'Segoe UI Mono', 'Cascadia Code', monospace" text-anchor="middle" font-weight="600">-2,840</text>
    <rect x="420" y="60" width="190" height="68" rx="8" fill="#010018" stroke="#1a1a5e" stroke-width="1"/>
    <text x="515" y="78" fill="#6060a0" font-size="11" font-family="'Segoe UI', sans-serif" text-anchor="middle" font-weight="500">Year Avg</text>
    <text x="515" y="100" fill="#00d4aa" font-size="16" font-family="'Segoe UI Mono', 'Cascadia Code', monospace" text-anchor="middle" font-weight="700">+24,364</text>
    <text x="515" y="118" fill="#ff4477" font-size="14" font-family="'Segoe UI Mono', 'Cascadia Code', monospace" text-anchor="middle" font-weight="600">-6,595</text>
    <rect x="618" y="60" width="190" height="68" rx="8" fill="#010018" stroke="#1a1a5e" stroke-width="1"/>
    <text x="713" y="78" fill="#6060a0" font-size="11" font-family="'Segoe UI', sans-serif" text-anchor="middle" font-weight="500">Streak</text>
    <text x="713" y="104" fill="#4488ff" font-size="20" font-family="'Segoe UI Mono', 'Cascadia Code', monospace" text-anchor="middle" font-weight="700">171</text>
    <text x="713" y="120" fill="#6060a0" font-size="11" font-family="'Segoe UI', sans-serif" text-anchor="middle">days</text>
  </g>

  <g class="cpd-chart">
    <line x1="72" y1="148" x2="808" y2="148" stroke="#101050" stroke-width="1" stroke-dasharray="4,4"/><line x1="72" y1="213.5" x2="808" y2="213.5" stroke="#101050" stroke-width="1" stroke-dasharray="4,4"/><line x1="72" y1="279" x2="808" y2="279" stroke="#101050" stroke-width="1" stroke-dasharray="4,4"/><line x1="72" y1="344.5" x2="808" y2="344.5" stroke="#101050" stroke-width="1" stroke-dasharray="4,4"/><line x1="72" y1="410" x2="808" y2="410" stroke="#101050" stroke-width="1" stroke-dasharray="4,4"/><line x1="72" y1="279" x2="808" y2="279" stroke="#1a1a5e" stroke-width="1.5"/><text x="64" y="162" fill="#6060a0" font-size="10" font-family="'Segoe UI', sans-serif" text-anchor="end">+20,545</text><text x="64" y="406" fill="#6060a0" font-size="10" font-family="'Segoe UI', sans-serif" text-anchor="end">-20,545</text><text x="64" y="283" fill="#6060a0" font-size="10" font-family="'Segoe UI', sans-serif" text-anchor="end">0</text><path d="M 72 279 L 72 279 L 96.53333333333333 248.66312971525917 L 121.06666666666666 193.89656850815282 L 145.60000000000002 237.54373326843515 L 170.13333333333333 251.65500121684107 L 194.66666666666669 278.97055244585056 L 219.20000000000002 158 L 243.73333333333335 158 L 268.26666666666665 265.9076174251643 L 292.8 158 L 317.33333333333337 158 L 341.8666666666667 211.96558773424192 L 366.40000000000003 264.0111949379411 L 390.93333333333334 197.17702604039914 L 415.4666666666667 228.21474811389632 L 440 158 L 464.53333333333336 243.01508882939888 L 489.0666666666667 259.15823801411534 L 513.6 158 L 538.1333333333334 231.32440983207593 L 562.6666666666667 170.39742029690922 L 587.2 158 L 611.7333333333333 271.325967388659 L 636.2666666666667 208.57911900705767 L 660.8000000000001 190.19795570698466 L 685.3333333333334 258.8637624726211 L 709.8666666666667 227.68469213920662 L 734.4000000000001 255.0885860306644 L 758.9333333333334 250.61844731078122 L 783.4666666666667 276.220150888294 L 808 274.40029204185936 L 808 279 Z" fill="#00d4aa" opacity="0.15"/><path d="M 72 279 L 72 279 L 96.53333333333333 248.66312971525917 L 121.06666666666666 193.89656850815282 L 145.60000000000002 237.54373326843515 L 170.13333333333333 251.65500121684107 L 194.66666666666669 278.97055244585056 L 219.20000000000002 158 L 243.73333333333335 158 L 268.26666666666665 265.9076174251643 L 292.8 158 L 317.33333333333337 158 L 341.8666666666667 211.96558773424192 L 366.40000000000003 264.0111949379411 L 390.93333333333334 197.17702604039914 L 415.4666666666667 228.21474811389632 L 440 158 L 464.53333333333336 243.01508882939888 L 489.0666666666667 259.15823801411534 L 513.6 158 L 538.1333333333334 231.32440983207593 L 562.6666666666667 170.39742029690922 L 587.2 158 L 611.7333333333333 271.325967388659 L 636.2666666666667 208.57911900705767 L 660.8000000000001 190.19795570698466 L 685.3333333333334 258.8637624726211 L 709.8666666666667 227.68469213920662 L 734.4000000000001 255.0885860306644 L 758.9333333333334 250.61844731078122 L 783.4666666666667 276.220150888294 L 808 274.40029204185936" fill="none" stroke="#00d4aa" stroke-width="2"/><path d="M 72 279 L 72 279 L 96.53333333333333 279.67140423460694 L 121.06666666666666 283.8588464346556 L 145.60000000000002 290.74957410562183 L 170.13333333333333 279.3651496714529 L 194.66666666666669 279 L 219.20000000000002 282.2510099780969 L 243.73333333333335 308.0647359454855 L 268.26666666666665 279.4888293988805 L 292.8 286.31477245071795 L 317.33333333333337 284.21221708444875 L 341.8666666666667 310.1201752251156 L 366.40000000000003 282.1862253589681 L 390.93333333333334 306.4333414456072 L 415.4666666666667 288.44088586030665 L 440 327.05251886103673 L 464.53333333333336 295.785105865174 L 489.0666666666667 286.50912630810416 L 513.6 289.88381601362863 L 538.1333333333334 283.5879289364809 L 562.6666666666667 306.3508882939888 L 587.2 400 L 611.7333333333333 282.038987588221 L 636.2666666666667 285.39600876125576 L 660.8000000000001 295.29038695546365 L 685.3333333333334 279.565393039669 L 709.8666666666667 298.5767339985398 L 734.4000000000001 284.6892674616695 L 758.9333333333334 282.1214407398394 L 783.4666666666667 279.5712825504989 L 808 280.3486979800438 L 808 279 Z" fill="#ff4477" opacity="0.15"/><path d="M 72 279 L 72 279 L 96.53333333333333 279.67140423460694 L 121.06666666666666 283.8588464346556 L 145.60000000000002 290.74957410562183 L 170.13333333333333 279.3651496714529 L 194.66666666666669 279 L 219.20000000000002 282.2510099780969 L 243.73333333333335 308.0647359454855 L 268.26666666666665 279.4888293988805 L 292.8 286.31477245071795 L 317.33333333333337 284.21221708444875 L 341.8666666666667 310.1201752251156 L 366.40000000000003 282.1862253589681 L 390.93333333333334 306.4333414456072 L 415.4666666666667 288.44088586030665 L 440 327.05251886103673 L 464.53333333333336 295.785105865174 L 489.0666666666667 286.50912630810416 L 513.6 289.88381601362863 L 538.1333333333334 283.5879289364809 L 562.6666666666667 306.3508882939888 L 587.2 400 L 611.7333333333333 282.038987588221 L 636.2666666666667 285.39600876125576 L 660.8000000000001 295.29038695546365 L 685.3333333333334 279.565393039669 L 709.8666666666667 298.5767339985398 L 734.4000000000001 284.6892674616695 L 758.9333333333334 282.1214407398394 L 783.4666666666667 279.5712825504989 L 808 280.3486979800438" fill="none" stroke="#ff4477" stroke-width="2"/><text x="72" y="426" fill="#6060a0" font-size="10" font-family="'Segoe UI', sans-serif" text-anchor="middle">Apr 17</text><text x="194.66666666666669" y="426" fill="#6060a0" font-size="10" font-family="'Segoe UI', sans-serif" text-anchor="middle">Apr 22</text><text x="317.33333333333337" y="426" fill="#6060a0" font-size="10" font-family="'Segoe UI', sans-serif" text-anchor="middle">Apr 27</text><text x="440" y="426" fill="#6060a0" font-size="10" font-family="'Segoe UI', sans-serif" text-anchor="middle">May 2</text><text x="562.6666666666667" y="426" fill="#6060a0" font-size="10" font-family="'Segoe UI', sans-serif" text-anchor="middle">May 7</text><text x="685.3333333333334" y="426" fill="#6060a0" font-size="10" font-family="'Segoe UI', sans-serif" text-anchor="middle">May 12</text><text x="808" y="426" fill="#6060a0" font-size="10" font-family="'Segoe UI', sans-serif" text-anchor="middle">May 17</text>
  </g>

  <g class="cpd-legend">
    
    <circle cx="30" cy="442" r="5" fill="#00d4aa"/>
    <text x="40" y="446" fill="#a0a0d0" font-size="11" font-family="'Segoe UI', sans-serif">Additions</text>
    <circle cx="124" cy="442" r="5" fill="#ff4477"/>
    <text x="134" y="446" fill="#a0a0d0" font-size="11" font-family="'Segoe UI', sans-serif">Deletions</text>
    <text x="816" y="446" fill="#6060a0" font-size="10" font-family="'Segoe UI', sans-serif" text-anchor="end">Last 31 days · +1,005,957 / -88,039 lines</text>
  </g>

  <a href="https://github.com/mpge/code-per-day" target="_blank">
    <text x="420" y="452" fill="#6060a0" font-size="10" font-family="'Segoe UI', sans-serif" text-anchor="middle" opacity="0.6">Get your own - github.com/mpge/code-per-day</text>
  </a>
</svg>