<svg width="840" height="460" viewBox="0 0 840 460" xmlns="http://www.w3.org/2000/svg">
  
    <style>
      @keyframes fadeInUp {
        from { opacity: 0; transform: translateY(12px); }
        to   { opacity: 1; transform: translateY(0); }
      }
      @keyframes growBar {
        from { transform: scaleY(0); }
        to   { transform: scaleY(1); }
      }
      .cpd-header  { animation: fadeInUp 0.5s ease both; }
      .cpd-stats   { animation: fadeInUp 0.5s ease 0.15s both; }
      .cpd-chart   { animation: fadeInUp 0.5s ease 0.3s both; }
      .cpd-legend  { animation: fadeInUp 0.5s ease 0.45s both; }
    </style>

  <rect width="840" height="460" rx="12" fill="#0d1117" stroke="#30363d" stroke-width="1"/>

  <g class="cpd-header">
    <a href="https://github.com/mpge/code-per-day" target="_blank">
      <text x="24" y="44" fill="#f0f6fc" font-size="18" font-family="'Segoe UI', sans-serif" font-weight="700">Code Per Day</text>
    </a>
    <text x="816" y="44" fill="#484f58" font-size="13" font-family="'Segoe UI', sans-serif" text-anchor="end" font-weight="500">@mpge</text>
  </g>

  <g class="cpd-stats">
    
    <rect x="24" y="60" width="190" height="68" rx="8" fill="#010409" stroke="#30363d" stroke-width="1"/>
    <text x="119" y="78" fill="#484f58" font-size="11" font-family="'Segoe UI', sans-serif" text-anchor="middle" font-weight="500">Today</text>
    <text x="119" y="100" fill="#3fb950" font-size="16" font-family="'Segoe UI Mono', 'Cascadia Code', monospace" text-anchor="middle" font-weight="700">+0</text>
    <text x="119" y="118" fill="#f85149" font-size="14" font-family="'Segoe UI Mono', 'Cascadia Code', monospace" text-anchor="middle" font-weight="600">+0</text>
    <rect x="222" y="60" width="190" height="68" rx="8" fill="#010409" stroke="#30363d" stroke-width="1"/>
    <text x="317" y="78" fill="#484f58" font-size="11" font-family="'Segoe UI', sans-serif" text-anchor="middle" font-weight="500">30d Avg</text>
    <text x="317" y="100" fill="#3fb950" font-size="16" font-family="'Segoe UI Mono', 'Cascadia Code', monospace" text-anchor="middle" font-weight="700">+8,346</text>
    <text x="317" y="118" fill="#f85149" font-size="14" font-family="'Segoe UI Mono', 'Cascadia Code', monospace" text-anchor="middle" font-weight="600">-4,261</text>
    <rect x="420" y="60" width="190" height="68" rx="8" fill="#010409" stroke="#30363d" stroke-width="1"/>
    <text x="515" y="78" fill="#484f58" font-size="11" font-family="'Segoe UI', sans-serif" text-anchor="middle" font-weight="500">Year Avg</text>
    <text x="515" y="100" fill="#3fb950" font-size="16" font-family="'Segoe UI Mono', 'Cascadia Code', monospace" text-anchor="middle" font-weight="700">+25,552</text>
    <text x="515" y="118" fill="#f85149" font-size="14" font-family="'Segoe UI Mono', 'Cascadia Code', monospace" text-anchor="middle" font-weight="600">-7,094</text>
    <rect x="618" y="60" width="190" height="68" rx="8" fill="#010409" stroke="#30363d" stroke-width="1"/>
    <text x="713" y="78" fill="#484f58" font-size="11" font-family="'Segoe UI', sans-serif" text-anchor="middle" font-weight="500">Streak</text>
    <text x="713" y="104" fill="#2f81f7" font-size="20" font-family="'Segoe UI Mono', 'Cascadia Code', monospace" text-anchor="middle" font-weight="700">205</text>
    <text x="713" y="120" fill="#484f58" font-size="11" font-family="'Segoe UI', sans-serif" text-anchor="middle">days</text>
  </g>

  <g class="cpd-chart">
    <line x1="72" y1="148" x2="808" y2="148" stroke="#21262d" stroke-width="1" stroke-dasharray="4,4"/><line x1="72" y1="213.5" x2="808" y2="213.5" stroke="#21262d" stroke-width="1" stroke-dasharray="4,4"/><line x1="72" y1="279" x2="808" y2="279" stroke="#21262d" stroke-width="1" stroke-dasharray="4,4"/><line x1="72" y1="344.5" x2="808" y2="344.5" stroke="#21262d" stroke-width="1" stroke-dasharray="4,4"/><line x1="72" y1="410" x2="808" y2="410" stroke="#21262d" stroke-width="1" stroke-dasharray="4,4"/><line x1="72" y1="279" x2="808" y2="279" stroke="#30363d" stroke-width="1.5"/><text x="64" y="162" fill="#484f58" font-size="10" font-family="'Segoe UI', sans-serif" text-anchor="end">+21,120</text><text x="64" y="406" fill="#484f58" font-size="10" font-family="'Segoe UI', sans-serif" text-anchor="end">-21,120</text><text x="64" y="283" fill="#484f58" font-size="10" font-family="'Segoe UI', sans-serif" text-anchor="end">0</text><path d="M 72 279 L 72 251.8953125 L 96.53333333333333 206.2109375 L 121.06666666666666 203.19166666666666 L 145.60000000000002 251.94114583333334 L 170.13333333333333 254.8 L 194.66666666666669 259.1828125 L 219.20000000000002 158.95677083333334 L 243.73333333333335 212.24374999999998 L 268.26666666666665 228.846875 L 292.8 158 L 317.33333333333337 173.02760416666666 L 341.8666666666667 158 L 366.40000000000003 165.19583333333333 L 390.93333333333334 241.69166666666666 L 415.4666666666667 197.8578125 L 440 277.9 L 464.53333333333336 279 L 489.0666666666667 268.59583333333336 L 513.6 279 L 538.1333333333334 254.67395833333333 L 562.6666666666667 279 L 587.2 278.5703125 L 611.7333333333333 276.71979166666665 L 636.2666666666667 252.27916666666667 L 660.8000000000001 274.88645833333334 L 685.3333333333334 279 L 709.8666666666667 270.8130208333333 L 734.4000000000001 250.80104166666666 L 758.9333333333334 247.07708333333332 L 783.4666666666667 261.4057291666667 L 808 279 L 808 279 Z" fill="#3fb950" opacity="0.15"/><path d="M 72 279 L 72 251.8953125 L 96.53333333333333 206.2109375 L 121.06666666666666 203.19166666666666 L 145.60000000000002 251.94114583333334 L 170.13333333333333 254.8 L 194.66666666666669 259.1828125 L 219.20000000000002 158.95677083333334 L 243.73333333333335 212.24374999999998 L 268.26666666666665 228.846875 L 292.8 158 L 317.33333333333337 173.02760416666666 L 341.8666666666667 158 L 366.40000000000003 165.19583333333333 L 390.93333333333334 241.69166666666666 L 415.4666666666667 197.8578125 L 440 277.9 L 464.53333333333336 279 L 489.0666666666667 268.59583333333336 L 513.6 279 L 538.1333333333334 254.67395833333333 L 562.6666666666667 279 L 587.2 278.5703125 L 611.7333333333333 276.71979166666665 L 636.2666666666667 252.27916666666667 L 660.8000000000001 274.88645833333334 L 685.3333333333334 279 L 709.8666666666667 270.8130208333333 L 734.4000000000001 250.80104166666666 L 758.9333333333334 247.07708333333332 L 783.4666666666667 261.4057291666667 L 808 279" fill="none" stroke="#3fb950" stroke-width="2"/><path d="M 72 279 L 72 299.865625 L 96.53333333333333 310.1723958333333 L 121.06666666666666 301.584375 L 145.60000000000002 283.8984375 L 170.13333333333333 286.7973958333333 L 194.66666666666669 288.53333333333336 L 219.20000000000002 305.434375 L 243.73333333333335 308.83177083333334 L 268.26666666666665 283.0963541666667 L 292.8 356.653125 L 317.33333333333337 400 L 341.8666666666667 400 L 366.40000000000003 310.18385416666666 L 390.93333333333334 284.76927083333334 L 415.4666666666667 290.56145833333335 L 440 279.34375 L 464.53333333333336 279 L 489.0666666666667 279.0630208333333 L 513.6 279 L 538.1333333333334 279.46979166666665 L 562.6666666666667 279 L 587.2 279.50989583333336 L 611.7333333333333 280.203125 L 636.2666666666667 304.99322916666665 L 660.8000000000001 279.171875 L 685.3333333333334 279 L 709.8666666666667 281.028125 L 734.4000000000001 281.96770833333335 L 758.9333333333334 284.5515625 L 783.4666666666667 279.6359375 L 808 279 L 808 279 Z" fill="#f85149" opacity="0.15"/><path d="M 72 279 L 72 299.865625 L 96.53333333333333 310.1723958333333 L 121.06666666666666 301.584375 L 145.60000000000002 283.8984375 L 170.13333333333333 286.7973958333333 L 194.66666666666669 288.53333333333336 L 219.20000000000002 305.434375 L 243.73333333333335 308.83177083333334 L 268.26666666666665 283.0963541666667 L 292.8 356.653125 L 317.33333333333337 400 L 341.8666666666667 400 L 366.40000000000003 310.18385416666666 L 390.93333333333334 284.76927083333334 L 415.4666666666667 290.56145833333335 L 440 279.34375 L 464.53333333333336 279 L 489.0666666666667 279.0630208333333 L 513.6 279 L 538.1333333333334 279.46979166666665 L 562.6666666666667 279 L 587.2 279.50989583333336 L 611.7333333333333 280.203125 L 636.2666666666667 304.99322916666665 L 660.8000000000001 279.171875 L 685.3333333333334 279 L 709.8666666666667 281.028125 L 734.4000000000001 281.96770833333335 L 758.9333333333334 284.5515625 L 783.4666666666667 279.6359375 L 808 279" fill="none" stroke="#f85149" stroke-width="2"/><text x="72" y="426" fill="#484f58" font-size="10" font-family="'Segoe UI', sans-serif" text-anchor="middle">May 22</text><text x="194.66666666666669" y="426" fill="#484f58" font-size="10" font-family="'Segoe UI', sans-serif" text-anchor="middle">May 27</text><text x="317.33333333333337" y="426" fill="#484f58" font-size="10" font-family="'Segoe UI', sans-serif" text-anchor="middle">Jun 1</text><text x="440" y="426" fill="#484f58" font-size="10" font-family="'Segoe UI', sans-serif" text-anchor="middle">Jun 6</text><text x="562.6666666666667" y="426" fill="#484f58" font-size="10" font-family="'Segoe UI', sans-serif" text-anchor="middle">Jun 11</text><text x="685.3333333333334" y="426" fill="#484f58" font-size="10" font-family="'Segoe UI', sans-serif" text-anchor="middle">Jun 16</text><text x="808" y="426" fill="#484f58" font-size="10" font-family="'Segoe UI', sans-serif" text-anchor="middle">Jun 21</text>
  </g>

  <g class="cpd-legend">
    
    <circle cx="30" cy="442" r="5" fill="#3fb950"/>
    <text x="40" y="446" fill="#7d8590" font-size="11" font-family="'Segoe UI', sans-serif">Additions</text>
    <circle cx="124" cy="442" r="5" fill="#f85149"/>
    <text x="134" y="446" fill="#7d8590" font-size="11" font-family="'Segoe UI', sans-serif">Deletions</text>
    <text x="816" y="446" fill="#484f58" font-size="10" font-family="'Segoe UI', sans-serif" text-anchor="end">Last 31 days · +258,718 / -132,077 lines</text>
  </g>

  <a href="https://github.com/mpge/code-per-day" target="_blank">
    <text x="420" y="452" fill="#484f58" font-size="10" font-family="'Segoe UI', sans-serif" text-anchor="middle" opacity="0.6">Get your own - github.com/mpge/code-per-day</text>
  </a>
</svg>