<svg width="840" height="460" viewBox="0 0 840 460" xmlns="http://www.w3.org/2000/svg">
  
    <style>
      @keyframes fadeInUp {
        from { opacity: 0; transform: translateY(12px); }
        to   { opacity: 1; transform: translateY(0); }
      }
      @keyframes growBar {
        from { transform: scaleY(0); }
        to   { transform: scaleY(1); }
      }
      .cpd-header  { animation: fadeInUp 0.5s ease both; }
      .cpd-stats   { animation: fadeInUp 0.5s ease 0.15s both; }
      .cpd-chart   { animation: fadeInUp 0.5s ease 0.3s both; }
      .cpd-legend  { animation: fadeInUp 0.5s ease 0.45s both; }
    </style>

  <rect width="840" height="460" rx="12" fill="#0d1117" stroke="#30363d" stroke-width="1"/>

  <g class="cpd-header">
    <a href="https://github.com/mpge/code-per-day" target="_blank">
      <text x="24" y="44" fill="#e6edf3" font-size="18" font-family="'Segoe UI', sans-serif" font-weight="700">Code Per Day</text>
    </a>
    <text x="816" y="44" fill="#6e7681" font-size="13" font-family="'Segoe UI', sans-serif" text-anchor="end" font-weight="500">@mpge</text>
  </g>

  <g class="cpd-stats">
    
    <rect x="24" y="60" width="190" height="68" rx="8" fill="#0d1117" stroke="#30363d" stroke-width="1"/>
    <text x="119" y="78" fill="#6e7681" font-size="11" font-family="'Segoe UI', sans-serif" text-anchor="middle" font-weight="500">Today</text>
    <text x="119" y="100" fill="#3fb950" font-size="16" font-family="'Segoe UI Mono', 'Cascadia Code', monospace" text-anchor="middle" font-weight="700">+23,671</text>
    <text x="119" y="118" fill="#f85149" font-size="14" font-family="'Segoe UI Mono', 'Cascadia Code', monospace" text-anchor="middle" font-weight="600">-8,714</text>
    <rect x="222" y="60" width="190" height="68" rx="8" fill="#0d1117" stroke="#30363d" stroke-width="1"/>
    <text x="317" y="78" fill="#6e7681" font-size="11" font-family="'Segoe UI', sans-serif" text-anchor="middle" font-weight="500">30d Avg</text>
    <text x="317" y="100" fill="#3fb950" font-size="16" font-family="'Segoe UI Mono', 'Cascadia Code', monospace" text-anchor="middle" font-weight="700">+40,463</text>
    <text x="317" y="118" fill="#f85149" font-size="14" font-family="'Segoe UI Mono', 'Cascadia Code', monospace" text-anchor="middle" font-weight="600">-4,898</text>
    <rect x="420" y="60" width="190" height="68" rx="8" fill="#0d1117" stroke="#30363d" stroke-width="1"/>
    <text x="515" y="78" fill="#6e7681" font-size="11" font-family="'Segoe UI', sans-serif" text-anchor="middle" font-weight="500">Year Avg</text>
    <text x="515" y="100" fill="#3fb950" font-size="16" font-family="'Segoe UI Mono', 'Cascadia Code', monospace" text-anchor="middle" font-weight="700">+24,965</text>
    <text x="515" y="118" fill="#f85149" font-size="14" font-family="'Segoe UI Mono', 'Cascadia Code', monospace" text-anchor="middle" font-weight="600">-6,754</text>
    <rect x="618" y="60" width="190" height="68" rx="8" fill="#0d1117" stroke="#30363d" stroke-width="1"/>
    <text x="713" y="78" fill="#6e7681" font-size="11" font-family="'Segoe UI', sans-serif" text-anchor="middle" font-weight="500">Streak</text>
    <text x="713" y="104" fill="#58a6ff" font-size="20" font-family="'Segoe UI Mono', 'Cascadia Code', monospace" text-anchor="middle" font-weight="700">174</text>
    <text x="713" y="120" fill="#6e7681" font-size="11" font-family="'Segoe UI', sans-serif" text-anchor="middle">days</text>
  </g>

  <g class="cpd-chart">
    <line x1="72" y1="148" x2="808" y2="148" stroke="#21262d" stroke-width="1" stroke-dasharray="4,4"/><line x1="72" y1="213.5" x2="808" y2="213.5" stroke="#21262d" stroke-width="1" stroke-dasharray="4,4"/><line x1="72" y1="279" x2="808" y2="279" stroke="#21262d" stroke-width="1" stroke-dasharray="4,4"/><line x1="72" y1="344.5" x2="808" y2="344.5" stroke="#21262d" stroke-width="1" stroke-dasharray="4,4"/><line x1="72" y1="410" x2="808" y2="410" stroke="#21262d" stroke-width="1" stroke-dasharray="4,4"/><line x1="72" y1="279" x2="808" y2="279" stroke="#30363d" stroke-width="1.5"/><text x="64" y="162" fill="#6e7681" font-size="10" font-family="'Segoe UI', sans-serif" text-anchor="end">+32,820</text><text x="64" y="406" fill="#6e7681" font-size="10" font-family="'Segoe UI', sans-serif" text-anchor="end">-32,820</text><text x="64" y="283" fill="#6e7681" font-size="10" font-family="'Segoe UI', sans-serif" text-anchor="end">0</text><path d="M 72 279 L 72 253.04878123095673 L 96.53333333333333 261.88229737964656 L 121.06666666666666 278.9815661182206 L 145.60000000000002 183.3797684338818 L 170.13333333333333 158 L 194.66666666666669 270.8042961608775 L 219.20000000000002 177.2670932358318 L 243.73333333333335 158 L 268.26666666666665 237.03711151736746 L 292.8 269.617154174284 L 317.33333333333337 227.77961608775138 L 341.8666666666667 247.20892748324192 L 366.40000000000003 158 L 390.93333333333334 256.47379646556976 L 415.4666666666667 266.57925045703837 L 440 196.1397014015844 L 464.53333333333336 249.15554539914686 L 489.0666666666667 211.01584399756246 L 513.6 158 L 538.1333333333334 274.1961304082876 L 562.6666666666667 234.91721511273613 L 587.2 223.4107861060329 L 611.7333333333333 266.39491163924436 L 636.2666666666667 246.87711761121267 L 660.8000000000001 264.0316879951249 L 685.3333333333334 261.23342474101156 L 709.8666666666667 277.25984156002437 L 734.4000000000001 158 L 758.9333333333334 158 L 783.4666666666667 158 L 808 191.73031687995126 L 808 279 Z" fill="#3fb950" opacity="0.15"/><path d="M 72 279 L 72 253.04878123095673 L 96.53333333333333 261.88229737964656 L 121.06666666666666 278.9815661182206 L 145.60000000000002 183.3797684338818 L 170.13333333333333 158 L 194.66666666666669 270.8042961608775 L 219.20000000000002 177.2670932358318 L 243.73333333333335 158 L 268.26666666666665 237.03711151736746 L 292.8 269.617154174284 L 317.33333333333337 227.77961608775138 L 341.8666666666667 247.20892748324192 L 366.40000000000003 158 L 390.93333333333334 256.47379646556976 L 415.4666666666667 266.57925045703837 L 440 196.1397014015844 L 464.53333333333336 249.15554539914686 L 489.0666666666667 211.01584399756246 L 513.6 158 L 538.1333333333334 274.1961304082876 L 562.6666666666667 234.91721511273613 L 587.2 223.4107861060329 L 611.7333333333333 266.39491163924436 L 636.2666666666667 246.87711761121267 L 660.8000000000001 264.0316879951249 L 685.3333333333334 261.23342474101156 L 709.8666666666667 277.25984156002437 L 734.4000000000001 158 L 758.9333333333334 158 L 783.4666666666667 158 L 808 191.73031687995126" fill="none" stroke="#3fb950" stroke-width="2"/><path d="M 72 279 L 72 286.35511882998173 L 96.53333333333333 279.2285801340646 L 121.06666666666666 279 L 145.60000000000002 281.03510054844605 L 170.13333333333333 297.19424131627056 L 194.66666666666669 279.3060024375381 L 219.20000000000002 283.5789762340037 L 243.73333333333335 282.2627970749543 L 268.26666666666665 298.4809262644729 L 292.8 280.99454600853136 L 317.33333333333337 296.17300426569165 L 341.8666666666667 284.9099024984765 L 366.40000000000003 309.0804082876295 L 390.93333333333334 289.5073126142596 L 415.4666666666667 283.7006398537477 L 440 285.81316270566725 L 464.53333333333336 281.87199878123096 L 489.0666666666667 296.12138939670933 L 513.6 400 L 538.1333333333334 280.90237659963435 L 562.6666666666667 283.0038391224863 L 587.2 289.1976234003656 L 611.7333333333333 279.3539305301645 L 636.2666666666667 291.25484460694696 L 660.8000000000001 282.56142595978065 L 685.3333333333334 280.9539914686167 L 709.8666666666667 279.3576173065204 L 734.4000000000001 283.8075563680683 L 758.9333333333334 288.7441499085923 L 783.4666666666667 400 L 808 311.1265691651432 L 808 279 Z" fill="#f85149" opacity="0.15"/><path d="M 72 279 L 72 286.35511882998173 L 96.53333333333333 279.2285801340646 L 121.06666666666666 279 L 145.60000000000002 281.03510054844605 L 170.13333333333333 297.19424131627056 L 194.66666666666669 279.3060024375381 L 219.20000000000002 283.5789762340037 L 243.73333333333335 282.2627970749543 L 268.26666666666665 298.4809262644729 L 292.8 280.99454600853136 L 317.33333333333337 296.17300426569165 L 341.8666666666667 284.9099024984765 L 366.40000000000003 309.0804082876295 L 390.93333333333334 289.5073126142596 L 415.4666666666667 283.7006398537477 L 440 285.81316270566725 L 464.53333333333336 281.87199878123096 L 489.0666666666667 296.12138939670933 L 513.6 400 L 538.1333333333334 280.90237659963435 L 562.6666666666667 283.0038391224863 L 587.2 289.1976234003656 L 611.7333333333333 279.3539305301645 L 636.2666666666667 291.25484460694696 L 660.8000000000001 282.56142595978065 L 685.3333333333334 280.9539914686167 L 709.8666666666667 279.3576173065204 L 734.4000000000001 283.8075563680683 L 758.9333333333334 288.7441499085923 L 783.4666666666667 400 L 808 311.1265691651432" fill="none" stroke="#f85149" stroke-width="2"/><text x="72" y="426" fill="#6e7681" font-size="10" font-family="'Segoe UI', sans-serif" text-anchor="middle">Apr 20</text><text x="194.66666666666669" y="426" fill="#6e7681" font-size="10" font-family="'Segoe UI', sans-serif" text-anchor="middle">Apr 25</text><text x="317.33333333333337" y="426" fill="#6e7681" font-size="10" font-family="'Segoe UI', sans-serif" text-anchor="middle">Apr 30</text><text x="440" y="426" fill="#6e7681" font-size="10" font-family="'Segoe UI', sans-serif" text-anchor="middle">May 5</text><text x="562.6666666666667" y="426" fill="#6e7681" font-size="10" font-family="'Segoe UI', sans-serif" text-anchor="middle">May 10</text><text x="685.3333333333334" y="426" fill="#6e7681" font-size="10" font-family="'Segoe UI', sans-serif" text-anchor="middle">May 15</text><text x="808" y="426" fill="#6e7681" font-size="10" font-family="'Segoe UI', sans-serif" text-anchor="middle">May 20</text>
  </g>

  <g class="cpd-legend">
    
    <circle cx="30" cy="442" r="5" fill="#3fb950"/>
    <text x="40" y="446" fill="#8b949e" font-size="11" font-family="'Segoe UI', sans-serif">Additions</text>
    <circle cx="124" cy="442" r="5" fill="#f85149"/>
    <text x="134" y="446" fill="#8b949e" font-size="11" font-family="'Segoe UI', sans-serif">Deletions</text>
    <text x="816" y="446" fill="#6e7681" font-size="10" font-family="'Segoe UI', sans-serif" text-anchor="end">Last 31 days · +1,254,338 / -151,834 lines</text>
  </g>

  <a href="https://github.com/mpge/code-per-day" target="_blank">
    <text x="420" y="452" fill="#6e7681" font-size="10" font-family="'Segoe UI', sans-serif" text-anchor="middle" opacity="0.6">Get your own - github.com/mpge/code-per-day</text>
  </a>
</svg>