<svg width="840" height="460" viewBox="0 0 840 460" xmlns="http://www.w3.org/2000/svg">
  
    <style>
      @keyframes fadeInUp {
        from { opacity: 0; transform: translateY(12px); }
        to   { opacity: 1; transform: translateY(0); }
      }
      @keyframes growBar {
        from { transform: scaleY(0); }
        to   { transform: scaleY(1); }
      }
      .cpd-header  { animation: fadeInUp 0.5s ease both; }
      .cpd-stats   { animation: fadeInUp 0.5s ease 0.15s both; }
      .cpd-chart   { animation: fadeInUp 0.5s ease 0.3s both; }
      .cpd-legend  { animation: fadeInUp 0.5s ease 0.45s both; }
    </style>

  <rect width="840" height="460" rx="12" fill="transparent" />

  <g class="cpd-header">
    <a href="https://github.com/mpge/code-per-day" target="_blank">
      <text x="24" y="44" fill="#e6edf3" font-size="18" font-family="'Segoe UI', sans-serif" font-weight="700">Code Per Day</text>
    </a>
    <text x="816" y="44" fill="#6e7681" font-size="13" font-family="'Segoe UI', sans-serif" text-anchor="end" font-weight="500">@mpge</text>
  </g>

  <g class="cpd-stats">
    
    <rect x="24" y="60" width="190" height="68" rx="8" fill="rgba(13,17,23,0.6)" stroke="#30363d" stroke-width="1"/>
    <text x="119" y="78" fill="#6e7681" font-size="11" font-family="'Segoe UI', sans-serif" text-anchor="middle" font-weight="500">Today</text>
    <text x="119" y="100" fill="#3fb950" font-size="16" font-family="'Segoe UI Mono', 'Cascadia Code', monospace" text-anchor="middle" font-weight="700">+38,070</text>
    <text x="119" y="118" fill="#f85149" font-size="14" font-family="'Segoe UI Mono', 'Cascadia Code', monospace" text-anchor="middle" font-weight="600">-5,456</text>
    <rect x="222" y="60" width="190" height="68" rx="8" fill="rgba(13,17,23,0.6)" stroke="#30363d" stroke-width="1"/>
    <text x="317" y="78" fill="#6e7681" font-size="11" font-family="'Segoe UI', sans-serif" text-anchor="middle" font-weight="500">30d Avg</text>
    <text x="317" y="100" fill="#3fb950" font-size="16" font-family="'Segoe UI Mono', 'Cascadia Code', monospace" text-anchor="middle" font-weight="700">+9,574</text>
    <text x="317" y="118" fill="#f85149" font-size="14" font-family="'Segoe UI Mono', 'Cascadia Code', monospace" text-anchor="middle" font-weight="600">-4,437</text>
    <rect x="420" y="60" width="190" height="68" rx="8" fill="rgba(13,17,23,0.6)" stroke="#30363d" stroke-width="1"/>
    <text x="515" y="78" fill="#6e7681" font-size="11" font-family="'Segoe UI', sans-serif" text-anchor="middle" font-weight="500">Year Avg</text>
    <text x="515" y="100" fill="#3fb950" font-size="16" font-family="'Segoe UI Mono', 'Cascadia Code', monospace" text-anchor="middle" font-weight="700">+25,656</text>
    <text x="515" y="118" fill="#f85149" font-size="14" font-family="'Segoe UI Mono', 'Cascadia Code', monospace" text-anchor="middle" font-weight="600">-7,108</text>
    <rect x="618" y="60" width="190" height="68" rx="8" fill="rgba(13,17,23,0.6)" stroke="#30363d" stroke-width="1"/>
    <text x="713" y="78" fill="#6e7681" font-size="11" font-family="'Segoe UI', sans-serif" text-anchor="middle" font-weight="500">Streak</text>
    <text x="713" y="104" fill="#58a6ff" font-size="20" font-family="'Segoe UI Mono', 'Cascadia Code', monospace" text-anchor="middle" font-weight="700">206</text>
    <text x="713" y="120" fill="#6e7681" font-size="11" font-family="'Segoe UI', sans-serif" text-anchor="middle">days</text>
  </g>

  <g class="cpd-chart">
    <line x1="72" y1="148" x2="808" y2="148" stroke="rgba(33,38,45,0.6)" stroke-width="1" stroke-dasharray="4,4"/><line x1="72" y1="213.5" x2="808" y2="213.5" stroke="rgba(33,38,45,0.6)" stroke-width="1" stroke-dasharray="4,4"/><line x1="72" y1="279" x2="808" y2="279" stroke="rgba(33,38,45,0.6)" stroke-width="1" stroke-dasharray="4,4"/><line x1="72" y1="344.5" x2="808" y2="344.5" stroke="rgba(33,38,45,0.6)" stroke-width="1" stroke-dasharray="4,4"/><line x1="72" y1="410" x2="808" y2="410" stroke="rgba(33,38,45,0.6)" stroke-width="1" stroke-dasharray="4,4"/><line x1="72" y1="279" x2="808" y2="279" stroke="#30363d" stroke-width="1.5"/><text x="64" y="162" fill="#6e7681" font-size="10" font-family="'Segoe UI', sans-serif" text-anchor="end">+21,230</text><text x="64" y="406" fill="#6e7681" font-size="10" font-family="'Segoe UI', sans-serif" text-anchor="end">-21,230</text><text x="64" y="283" fill="#6e7681" font-size="10" font-family="'Segoe UI', sans-serif" text-anchor="end">0</text><path d="M 72 279 L 72 252.03575129533678 L 96.53333333333333 206.5880829015544 L 121.06666666666666 203.58445595854923 L 145.60000000000002 252.08134715025906 L 170.13333333333333 254.92538860103627 L 194.66666666666669 259.28549222797926 L 219.20000000000002 159.57875647668396 L 243.73333333333335 212.58963730569948 L 268.26666666666665 229.10673575129533 L 292.8 158 L 317.33333333333337 173.57668393782382 L 341.8666666666667 158 L 366.40000000000003 165.78549222797926 L 390.93333333333334 241.88497409326425 L 415.4666666666667 198.27823834196892 L 440 277.90569948186527 L 464.53333333333336 279 L 489.0666666666667 268.6497409326425 L 513.6 279 L 538.1333333333334 254.8 L 562.6666666666667 279 L 587.2 278.57253886010363 L 611.7333333333333 276.73160621761656 L 636.2666666666667 252.4176165803109 L 660.8000000000001 274.90777202072536 L 685.3333333333334 279 L 709.8666666666667 270.85544041450777 L 734.4000000000001 250.94715025906737 L 758.9333333333334 247.24248704663214 L 783.4666666666667 261.49689119170984 L 808 158 L 808 279 Z" fill="#3fb950" opacity="0.15"/><path d="M 72 279 L 72 252.03575129533678 L 96.53333333333333 206.5880829015544 L 121.06666666666666 203.58445595854923 L 145.60000000000002 252.08134715025906 L 170.13333333333333 254.92538860103627 L 194.66666666666669 259.28549222797926 L 219.20000000000002 159.57875647668396 L 243.73333333333335 212.58963730569948 L 268.26666666666665 229.10673575129533 L 292.8 158 L 317.33333333333337 173.57668393782382 L 341.8666666666667 158 L 366.40000000000003 165.78549222797926 L 390.93333333333334 241.88497409326425 L 415.4666666666667 198.27823834196892 L 440 277.90569948186527 L 464.53333333333336 279 L 489.0666666666667 268.6497409326425 L 513.6 279 L 538.1333333333334 254.8 L 562.6666666666667 279 L 587.2 278.57253886010363 L 611.7333333333333 276.73160621761656 L 636.2666666666667 252.4176165803109 L 660.8000000000001 274.90777202072536 L 685.3333333333334 279 L 709.8666666666667 270.85544041450777 L 734.4000000000001 250.94715025906737 L 758.9333333333334 247.24248704663214 L 783.4666666666667 261.49689119170984 L 808 158" fill="none" stroke="#3fb950" stroke-width="2"/><path d="M 72 279 L 72 299.7575129533679 L 96.53333333333333 310.01088082901555 L 121.06666666666666 301.46735751295336 L 145.60000000000002 283.8730569948186 L 170.13333333333333 286.75699481865286 L 194.66666666666669 288.4839378238342 L 219.20000000000002 305.2974093264249 L 243.73333333333335 308.6772020725389 L 268.26666666666665 283.07512953367876 L 292.8 356.2507772020725 L 317.33333333333337 400 L 341.8666666666667 400 L 366.40000000000003 310.02227979274613 L 390.93333333333334 284.73937823834194 L 415.4666666666667 290.50155440414505 L 440 279.3419689119171 L 464.53333333333336 279 L 489.0666666666667 279.06269430051816 L 513.6 279 L 538.1333333333334 279.46735751295336 L 562.6666666666667 279 L 587.2 279.50725388601035 L 611.7333333333333 280.1968911917098 L 636.2666666666667 304.85854922279793 L 660.8000000000001 279.17098445595855 L 685.3333333333334 279 L 709.8666666666667 281.01761658031086 L 734.4000000000001 281.9523316062176 L 758.9333333333334 284.5227979274611 L 783.4666666666667 279.6326424870466 L 808 310.0963730569948 L 808 279 Z" fill="#f85149" opacity="0.15"/><path d="M 72 279 L 72 299.7575129533679 L 96.53333333333333 310.01088082901555 L 121.06666666666666 301.46735751295336 L 145.60000000000002 283.8730569948186 L 170.13333333333333 286.75699481865286 L 194.66666666666669 288.4839378238342 L 219.20000000000002 305.2974093264249 L 243.73333333333335 308.6772020725389 L 268.26666666666665 283.07512953367876 L 292.8 356.2507772020725 L 317.33333333333337 400 L 341.8666666666667 400 L 366.40000000000003 310.02227979274613 L 390.93333333333334 284.73937823834194 L 415.4666666666667 290.50155440414505 L 440 279.3419689119171 L 464.53333333333336 279 L 489.0666666666667 279.06269430051816 L 513.6 279 L 538.1333333333334 279.46735751295336 L 562.6666666666667 279 L 587.2 279.50725388601035 L 611.7333333333333 280.1968911917098 L 636.2666666666667 304.85854922279793 L 660.8000000000001 279.17098445595855 L 685.3333333333334 279 L 709.8666666666667 281.01761658031086 L 734.4000000000001 281.9523316062176 L 758.9333333333334 284.5227979274611 L 783.4666666666667 279.6326424870466 L 808 310.0963730569948" fill="none" stroke="#f85149" stroke-width="2"/><text x="72" y="426" fill="#6e7681" font-size="10" font-family="'Segoe UI', sans-serif" text-anchor="middle">May 22</text><text x="194.66666666666669" y="426" fill="#6e7681" font-size="10" font-family="'Segoe UI', sans-serif" text-anchor="middle">May 27</text><text x="317.33333333333337" y="426" fill="#6e7681" font-size="10" font-family="'Segoe UI', sans-serif" text-anchor="middle">Jun 1</text><text x="440" y="426" fill="#6e7681" font-size="10" font-family="'Segoe UI', sans-serif" text-anchor="middle">Jun 6</text><text x="562.6666666666667" y="426" fill="#6e7681" font-size="10" font-family="'Segoe UI', sans-serif" text-anchor="middle">Jun 11</text><text x="685.3333333333334" y="426" fill="#6e7681" font-size="10" font-family="'Segoe UI', sans-serif" text-anchor="middle">Jun 16</text><text x="808" y="426" fill="#6e7681" font-size="10" font-family="'Segoe UI', sans-serif" text-anchor="middle">Jun 21</text>
  </g>

  <g class="cpd-legend">
    
    <circle cx="30" cy="442" r="5" fill="#3fb950"/>
    <text x="40" y="446" fill="#8b949e" font-size="11" font-family="'Segoe UI', sans-serif">Additions</text>
    <circle cx="124" cy="442" r="5" fill="#f85149"/>
    <text x="134" y="446" fill="#8b949e" font-size="11" font-family="'Segoe UI', sans-serif">Deletions</text>
    <text x="816" y="446" fill="#6e7681" font-size="10" font-family="'Segoe UI', sans-serif" text-anchor="end">Last 31 days · +296,788 / -137,533 lines</text>
  </g>

  <a href="https://github.com/mpge/code-per-day" target="_blank">
    <text x="420" y="452" fill="#6e7681" font-size="10" font-family="'Segoe UI', sans-serif" text-anchor="middle" opacity="0.6">Get your own - github.com/mpge/code-per-day</text>
  </a>
</svg>