<svg width="840" height="460" viewBox="0 0 840 460" xmlns="http://www.w3.org/2000/svg">
  
    <style>
      @keyframes fadeInUp {
        from { opacity: 0; transform: translateY(12px); }
        to   { opacity: 1; transform: translateY(0); }
      }
      @keyframes growBar {
        from { transform: scaleY(0); }
        to   { transform: scaleY(1); }
      }
      .cpd-header  { animation: fadeInUp 0.5s ease both; }
      .cpd-stats   { animation: fadeInUp 0.5s ease 0.15s both; }
      .cpd-chart   { animation: fadeInUp 0.5s ease 0.3s both; }
      .cpd-legend  { animation: fadeInUp 0.5s ease 0.45s both; }
    </style>

  <rect width="840" height="460" rx="12" fill="#141321" stroke="#2d2b55" stroke-width="1"/>

  <g class="cpd-header">
    <a href="https://github.com/mpge/code-per-day" target="_blank">
      <text x="24" y="44" fill="#ff7edb" font-size="18" font-family="'Segoe UI', sans-serif" font-weight="700">Code Per Day</text>
    </a>
    <text x="816" y="44" fill="#544d8a" font-size="13" font-family="'Segoe UI', sans-serif" text-anchor="end" font-weight="500">@mpge</text>
  </g>

  <g class="cpd-stats">
    
    <rect x="24" y="60" width="190" height="68" rx="8" fill="#0f0e1a" stroke="#2d2b55" stroke-width="1"/>
    <text x="119" y="78" fill="#544d8a" font-size="11" font-family="'Segoe UI', sans-serif" text-anchor="middle" font-weight="500">Today</text>
    <text x="119" y="100" fill="#fad000" font-size="16" font-family="'Segoe UI Mono', 'Cascadia Code', monospace" text-anchor="middle" font-weight="700">+621</text>
    <text x="119" y="118" fill="#ff628c" font-size="14" font-family="'Segoe UI Mono', 'Cascadia Code', monospace" text-anchor="middle" font-weight="600">-160</text>
    <rect x="222" y="60" width="190" height="68" rx="8" fill="#0f0e1a" stroke="#2d2b55" stroke-width="1"/>
    <text x="317" y="78" fill="#544d8a" font-size="11" font-family="'Segoe UI', sans-serif" text-anchor="middle" font-weight="500">30d Avg</text>
    <text x="317" y="100" fill="#fad000" font-size="16" font-family="'Segoe UI Mono', 'Cascadia Code', monospace" text-anchor="middle" font-weight="700">+7,632</text>
    <text x="317" y="118" fill="#ff628c" font-size="14" font-family="'Segoe UI Mono', 'Cascadia Code', monospace" text-anchor="middle" font-weight="600">-628</text>
    <rect x="420" y="60" width="190" height="68" rx="8" fill="#0f0e1a" stroke="#2d2b55" stroke-width="1"/>
    <text x="515" y="78" fill="#544d8a" font-size="11" font-family="'Segoe UI', sans-serif" text-anchor="middle" font-weight="500">Year Avg</text>
    <text x="515" y="100" fill="#fad000" font-size="16" font-family="'Segoe UI Mono', 'Cascadia Code', monospace" text-anchor="middle" font-weight="700">+25,998</text>
    <text x="515" y="118" fill="#ff628c" font-size="14" font-family="'Segoe UI Mono', 'Cascadia Code', monospace" text-anchor="middle" font-weight="600">-7,074</text>
    <rect x="618" y="60" width="190" height="68" rx="8" fill="#0f0e1a" stroke="#2d2b55" stroke-width="1"/>
    <text x="713" y="78" fill="#544d8a" font-size="11" font-family="'Segoe UI', sans-serif" text-anchor="middle" font-weight="500">Streak</text>
    <text x="713" y="104" fill="#ff7edb" font-size="20" font-family="'Segoe UI Mono', 'Cascadia Code', monospace" text-anchor="middle" font-weight="700">236</text>
    <text x="713" y="120" fill="#544d8a" font-size="11" font-family="'Segoe UI', sans-serif" text-anchor="middle">days</text>
  </g>

  <g class="cpd-chart">
    <line x1="72" y1="148" x2="808" y2="148" stroke="#252340" stroke-width="1" stroke-dasharray="4,4"/><line x1="72" y1="213.5" x2="808" y2="213.5" stroke="#252340" stroke-width="1" stroke-dasharray="4,4"/><line x1="72" y1="279" x2="808" y2="279" stroke="#252340" stroke-width="1" stroke-dasharray="4,4"/><line x1="72" y1="344.5" x2="808" y2="344.5" stroke="#252340" stroke-width="1" stroke-dasharray="4,4"/><line x1="72" y1="410" x2="808" y2="410" stroke="#252340" stroke-width="1" stroke-dasharray="4,4"/><line x1="72" y1="279" x2="808" y2="279" stroke="#2d2b55" stroke-width="1.5"/><text x="64" y="162" fill="#544d8a" font-size="10" font-family="'Segoe UI', sans-serif" text-anchor="end">+4,931</text><text x="64" y="406" fill="#544d8a" font-size="10" font-family="'Segoe UI', sans-serif" text-anchor="end">-4,931</text><text x="64" y="283" fill="#544d8a" font-size="10" font-family="'Segoe UI', sans-serif" text-anchor="end">0</text><path d="M 72 279 L 72 158 L 96.53333333333333 158 L 121.06666666666666 158 L 145.60000000000002 158 L 170.13333333333333 158 L 194.66666666666669 233.9225309267897 L 219.20000000000002 244.20421821131617 L 243.73333333333335 279 L 268.26666666666665 158 L 292.8 200.9180693571284 L 317.33333333333337 216.9172581626445 L 341.8666666666667 270.90225106469273 L 366.40000000000003 279 L 390.93333333333334 279 L 415.4666666666667 262.0438045021294 L 440 279 L 464.53333333333336 246.24092476171163 L 489.0666666666667 266.1172176029203 L 513.6 279 L 538.1333333333334 279 L 562.6666666666667 242.75643885621577 L 587.2 275.61366862705336 L 611.7333333333333 279 L 636.2666666666667 278.8527682011762 L 660.8000000000001 228.57310890285947 L 685.3333333333334 277.1596025147029 L 709.8666666666667 279 L 734.4000000000001 279 L 758.9333333333334 277.2086797809775 L 783.4666666666667 273.3561143784222 L 808 263.76150882174 L 808 279 Z" fill="#fad000" opacity="0.15"/><path d="M 72 279 L 72 158 L 96.53333333333333 158 L 121.06666666666666 158 L 145.60000000000002 158 L 170.13333333333333 158 L 194.66666666666669 233.9225309267897 L 219.20000000000002 244.20421821131617 L 243.73333333333335 279 L 268.26666666666665 158 L 292.8 200.9180693571284 L 317.33333333333337 216.9172581626445 L 341.8666666666667 270.90225106469273 L 366.40000000000003 279 L 390.93333333333334 279 L 415.4666666666667 262.0438045021294 L 440 279 L 464.53333333333336 246.24092476171163 L 489.0666666666667 266.1172176029203 L 513.6 279 L 538.1333333333334 279 L 562.6666666666667 242.75643885621577 L 587.2 275.61366862705336 L 611.7333333333333 279 L 636.2666666666667 278.8527682011762 L 660.8000000000001 228.57310890285947 L 685.3333333333334 277.1596025147029 L 709.8666666666667 279 L 734.4000000000001 279 L 758.9333333333334 277.2086797809775 L 783.4666666666667 273.3561143784222 L 808 263.76150882174" fill="none" stroke="#fad000" stroke-width="2"/><path d="M 72 279 L 72 400 L 96.53333333333333 290.23869397688094 L 121.06666666666666 283.78503346177246 L 145.60000000000002 306.6795781788684 L 170.13333333333333 280.668627053336 L 194.66666666666669 283.1224903670655 L 219.20000000000002 281.0121679172582 L 243.73333333333335 279 L 268.26666666666665 400 L 292.8 295.1954978706145 L 317.33333333333337 295.9561954978706 L 341.8666666666667 279 L 366.40000000000003 279 L 390.93333333333334 279 L 415.4666666666667 282.5335631717704 L 440 279 L 464.53333333333336 279.9324680592172 L 489.0666666666667 291.53924153315756 L 513.6 279 L 538.1333333333334 279 L 562.6666666666667 303.8085581018049 L 587.2 279.66254309470696 L 611.7333333333333 279 L 636.2666666666667 279 L 660.8000000000001 282.7053336037315 L 685.3333333333334 279.1717704319611 L 709.8666666666667 279 L 734.4000000000001 279 L 758.9333333333334 279.1226931656865 L 783.4666666666667 280.00608395862906 L 808 282.9261813019671 L 808 279 Z" fill="#ff628c" opacity="0.15"/><path d="M 72 279 L 72 400 L 96.53333333333333 290.23869397688094 L 121.06666666666666 283.78503346177246 L 145.60000000000002 306.6795781788684 L 170.13333333333333 280.668627053336 L 194.66666666666669 283.1224903670655 L 219.20000000000002 281.0121679172582 L 243.73333333333335 279 L 268.26666666666665 400 L 292.8 295.1954978706145 L 317.33333333333337 295.9561954978706 L 341.8666666666667 279 L 366.40000000000003 279 L 390.93333333333334 279 L 415.4666666666667 282.5335631717704 L 440 279 L 464.53333333333336 279.9324680592172 L 489.0666666666667 291.53924153315756 L 513.6 279 L 538.1333333333334 279 L 562.6666666666667 303.8085581018049 L 587.2 279.66254309470696 L 611.7333333333333 279 L 636.2666666666667 279 L 660.8000000000001 282.7053336037315 L 685.3333333333334 279.1717704319611 L 709.8666666666667 279 L 734.4000000000001 279 L 758.9333333333334 279.1226931656865 L 783.4666666666667 280.00608395862906 L 808 282.9261813019671" fill="none" stroke="#ff628c" stroke-width="2"/><text x="72" y="426" fill="#544d8a" font-size="10" font-family="'Segoe UI', sans-serif" text-anchor="middle">Jun 21</text><text x="194.66666666666669" y="426" fill="#544d8a" font-size="10" font-family="'Segoe UI', sans-serif" text-anchor="middle">Jun 26</text><text x="317.33333333333337" y="426" fill="#544d8a" font-size="10" font-family="'Segoe UI', sans-serif" text-anchor="middle">Jul 1</text><text x="440" y="426" fill="#544d8a" font-size="10" font-family="'Segoe UI', sans-serif" text-anchor="middle">Jul 6</text><text x="562.6666666666667" y="426" fill="#544d8a" font-size="10" font-family="'Segoe UI', sans-serif" text-anchor="middle">Jul 11</text><text x="685.3333333333334" y="426" fill="#544d8a" font-size="10" font-family="'Segoe UI', sans-serif" text-anchor="middle">Jul 16</text><text x="808" y="426" fill="#544d8a" font-size="10" font-family="'Segoe UI', sans-serif" text-anchor="middle">Jul 21</text>
  </g>

  <g class="cpd-legend">
    
    <circle cx="30" cy="442" r="5" fill="#fad000"/>
    <text x="40" y="446" fill="#a599e9" font-size="11" font-family="'Segoe UI', sans-serif">Additions</text>
    <circle cx="124" cy="442" r="5" fill="#ff628c"/>
    <text x="134" y="446" fill="#a599e9" font-size="11" font-family="'Segoe UI', sans-serif">Deletions</text>
    <text x="816" y="446" fill="#544d8a" font-size="10" font-family="'Segoe UI', sans-serif" text-anchor="end">Last 31 days · +236,606 / -19,463 lines</text>
  </g>

  <a href="https://github.com/mpge/code-per-day" target="_blank">
    <text x="420" y="452" fill="#544d8a" font-size="10" font-family="'Segoe UI', sans-serif" text-anchor="middle" opacity="0.6">Get your own - github.com/mpge/code-per-day</text>
  </a>
</svg>