<svg width="840" height="460" viewBox="0 0 840 460" xmlns="http://www.w3.org/2000/svg">
  
    <style>
      @keyframes fadeInUp {
        from { opacity: 0; transform: translateY(12px); }
        to   { opacity: 1; transform: translateY(0); }
      }
      @keyframes growBar {
        from { transform: scaleY(0); }
        to   { transform: scaleY(1); }
      }
      .cpd-header  { animation: fadeInUp 0.5s ease both; }
      .cpd-stats   { animation: fadeInUp 0.5s ease 0.15s both; }
      .cpd-chart   { animation: fadeInUp 0.5s ease 0.3s both; }
      .cpd-legend  { animation: fadeInUp 0.5s ease 0.45s both; }
    </style>

  <rect width="840" height="460" rx="12" fill="#1a1028" stroke="#3d2660" stroke-width="1"/>

  <g class="cpd-header">
    <a href="https://github.com/mpge/code-per-day" target="_blank">
      <text x="24" y="44" fill="#f0d0ff" font-size="18" font-family="'Segoe UI', sans-serif" font-weight="700">Code Per Day</text>
    </a>
    <text x="816" y="44" fill="#7a5a8e" font-size="13" font-family="'Segoe UI', sans-serif" text-anchor="end" font-weight="500">@mpge</text>
  </g>

  <g class="cpd-stats">
    
    <rect x="24" y="60" width="190" height="68" rx="8" fill="#160e22" stroke="#3d2660" stroke-width="1"/>
    <text x="119" y="78" fill="#7a5a8e" font-size="11" font-family="'Segoe UI', sans-serif" text-anchor="middle" font-weight="500">Today</text>
    <text x="119" y="100" fill="#ffb86c" font-size="16" font-family="'Segoe UI Mono', 'Cascadia Code', monospace" text-anchor="middle" font-weight="700">+0</text>
    <text x="119" y="118" fill="#ff79c6" font-size="14" font-family="'Segoe UI Mono', 'Cascadia Code', monospace" text-anchor="middle" font-weight="600">+0</text>
    <rect x="222" y="60" width="190" height="68" rx="8" fill="#160e22" stroke="#3d2660" stroke-width="1"/>
    <text x="317" y="78" fill="#7a5a8e" font-size="11" font-family="'Segoe UI', sans-serif" text-anchor="middle" font-weight="500">30d Avg</text>
    <text x="317" y="100" fill="#ffb86c" font-size="16" font-family="'Segoe UI Mono', 'Cascadia Code', monospace" text-anchor="middle" font-weight="700">+11,215</text>
    <text x="317" y="118" fill="#ff79c6" font-size="14" font-family="'Segoe UI Mono', 'Cascadia Code', monospace" text-anchor="middle" font-weight="600">-2,147</text>
    <rect x="420" y="60" width="190" height="68" rx="8" fill="#160e22" stroke="#3d2660" stroke-width="1"/>
    <text x="515" y="78" fill="#7a5a8e" font-size="11" font-family="'Segoe UI', sans-serif" text-anchor="middle" font-weight="500">Year Avg</text>
    <text x="515" y="100" fill="#ffb86c" font-size="16" font-family="'Segoe UI Mono', 'Cascadia Code', monospace" text-anchor="middle" font-weight="700">+26,143</text>
    <text x="515" y="118" fill="#ff79c6" font-size="14" font-family="'Segoe UI Mono', 'Cascadia Code', monospace" text-anchor="middle" font-weight="600">-7,145</text>
    <rect x="618" y="60" width="190" height="68" rx="8" fill="#160e22" stroke="#3d2660" stroke-width="1"/>
    <text x="713" y="78" fill="#7a5a8e" font-size="11" font-family="'Segoe UI', sans-serif" text-anchor="middle" font-weight="500">Streak</text>
    <text x="713" y="104" fill="#ff79c6" font-size="20" font-family="'Segoe UI Mono', 'Cascadia Code', monospace" text-anchor="middle" font-weight="700">216</text>
    <text x="713" y="120" fill="#7a5a8e" font-size="11" font-family="'Segoe UI', sans-serif" text-anchor="middle">days</text>
  </g>

  <g class="cpd-chart">
    <line x1="72" y1="148" x2="808" y2="148" stroke="#2d1c44" stroke-width="1" stroke-dasharray="4,4"/><line x1="72" y1="213.5" x2="808" y2="213.5" stroke="#2d1c44" stroke-width="1" stroke-dasharray="4,4"/><line x1="72" y1="279" x2="808" y2="279" stroke="#2d1c44" stroke-width="1" stroke-dasharray="4,4"/><line x1="72" y1="344.5" x2="808" y2="344.5" stroke="#2d1c44" stroke-width="1" stroke-dasharray="4,4"/><line x1="72" y1="410" x2="808" y2="410" stroke="#2d1c44" stroke-width="1" stroke-dasharray="4,4"/><line x1="72" y1="279" x2="808" y2="279" stroke="#3d2660" stroke-width="1.5"/><text x="64" y="162" fill="#7a5a8e" font-size="10" font-family="'Segoe UI', sans-serif" text-anchor="end">+13,579</text><text x="64" y="406" fill="#7a5a8e" font-size="10" font-family="'Segoe UI', sans-serif" text-anchor="end">-13,579</text><text x="64" y="283" fill="#7a5a8e" font-size="10" font-family="'Segoe UI', sans-serif" text-anchor="end">0</text><path d="M 72 279 L 72 158 L 96.53333333333333 158 L 121.06666666666666 220.97275204359673 L 145.60000000000002 158 L 170.13333333333333 277.2891229103763 L 194.66666666666669 279 L 219.20000000000002 262.817954193976 L 243.73333333333335 279 L 268.26666666666665 241.16466602842624 L 292.8 279 L 317.33333333333337 278.33168863686575 L 341.8666666666667 275.4534943663009 L 366.40000000000003 237.43994403122468 L 390.93333333333334 272.6020325502614 L 415.4666666666667 279 L 440 266.26644082774874 L 464.53333333333336 235.14095294204287 L 489.0666666666667 229.34892112821268 L 513.6 251.6348773841962 L 538.1333333333334 158 L 562.6666666666667 202.80359378452022 L 587.2 158 L 611.7333333333333 214.29854923042933 L 636.2666666666667 217.01634877384197 L 660.8000000000001 262.6308270122984 L 685.3333333333334 266.35554900949995 L 709.8666666666667 238.71419103026733 L 734.4000000000001 158 L 758.9333333333334 250.6457765667575 L 783.4666666666667 256.4556300169379 L 808 279 L 808 279 Z" fill="#ffb86c" opacity="0.15"/><path d="M 72 279 L 72 158 L 96.53333333333333 158 L 121.06666666666666 220.97275204359673 L 145.60000000000002 158 L 170.13333333333333 277.2891229103763 L 194.66666666666669 279 L 219.20000000000002 262.817954193976 L 243.73333333333335 279 L 268.26666666666665 241.16466602842624 L 292.8 279 L 317.33333333333337 278.33168863686575 L 341.8666666666667 275.4534943663009 L 366.40000000000003 237.43994403122468 L 390.93333333333334 272.6020325502614 L 415.4666666666667 279 L 440 266.26644082774874 L 464.53333333333336 235.14095294204287 L 489.0666666666667 229.34892112821268 L 513.6 251.6348773841962 L 538.1333333333334 158 L 562.6666666666667 202.80359378452022 L 587.2 158 L 611.7333333333333 214.29854923042933 L 636.2666666666667 217.01634877384197 L 660.8000000000001 262.6308270122984 L 685.3333333333334 266.35554900949995 L 709.8666666666667 238.71419103026733 L 734.4000000000001 158 L 758.9333333333334 250.6457765667575 L 783.4666666666667 256.4556300169379 L 808 279" fill="none" stroke="#ffb86c" stroke-width="2"/><path d="M 72 279 L 72 400 L 96.53333333333333 327.5015833271964 L 121.06666666666666 287.97319390234924 L 145.60000000000002 296.9820310773989 L 170.13333333333333 279.5346490905074 L 194.66666666666669 279 L 219.20000000000002 279.09801899992635 L 243.73333333333335 279 L 268.26666666666665 279.7306870903601 L 292.8 279 L 317.33333333333337 279.79306281758596 L 341.8666666666667 280.8712718167759 L 366.40000000000003 319.42838206053466 L 390.93333333333334 279.2673245452537 L 415.4666666666667 279 L 440 282.1544296339937 L 464.53333333333336 283.6158038147139 L 489.0666666666667 287.63458281169454 L 513.6 279.98910081743867 L 538.1333333333334 329.2926577803962 L 562.6666666666667 286.9662714485603 L 587.2 302.90772516385596 L 611.7333333333333 289.0514029015391 L 636.2666666666667 279.6059356359084 L 660.8000000000001 280.4970174534207 L 685.3333333333334 279.7663303630606 L 709.8666666666667 281.53958317991015 L 734.4000000000001 352.7281095809706 L 758.9333333333334 284.8811399955814 L 783.4666666666667 285.15737535901025 L 808 279 L 808 279 Z" fill="#ff79c6" opacity="0.15"/><path d="M 72 279 L 72 400 L 96.53333333333333 327.5015833271964 L 121.06666666666666 287.97319390234924 L 145.60000000000002 296.9820310773989 L 170.13333333333333 279.5346490905074 L 194.66666666666669 279 L 219.20000000000002 279.09801899992635 L 243.73333333333335 279 L 268.26666666666665 279.7306870903601 L 292.8 279 L 317.33333333333337 279.79306281758596 L 341.8666666666667 280.8712718167759 L 366.40000000000003 319.42838206053466 L 390.93333333333334 279.2673245452537 L 415.4666666666667 279 L 440 282.1544296339937 L 464.53333333333336 283.6158038147139 L 489.0666666666667 287.63458281169454 L 513.6 279.98910081743867 L 538.1333333333334 329.2926577803962 L 562.6666666666667 286.9662714485603 L 587.2 302.90772516385596 L 611.7333333333333 289.0514029015391 L 636.2666666666667 279.6059356359084 L 660.8000000000001 280.4970174534207 L 685.3333333333334 279.7663303630606 L 709.8666666666667 281.53958317991015 L 734.4000000000001 352.7281095809706 L 758.9333333333334 284.8811399955814 L 783.4666666666667 285.15737535901025 L 808 279" fill="none" stroke="#ff79c6" stroke-width="2"/><text x="72" y="426" fill="#7a5a8e" font-size="10" font-family="'Segoe UI', sans-serif" text-anchor="middle">Jun 2</text><text x="194.66666666666669" y="426" fill="#7a5a8e" font-size="10" font-family="'Segoe UI', sans-serif" text-anchor="middle">Jun 7</text><text x="317.33333333333337" y="426" fill="#7a5a8e" font-size="10" font-family="'Segoe UI', sans-serif" text-anchor="middle">Jun 12</text><text x="440" y="426" fill="#7a5a8e" font-size="10" font-family="'Segoe UI', sans-serif" text-anchor="middle">Jun 17</text><text x="562.6666666666667" y="426" fill="#7a5a8e" font-size="10" font-family="'Segoe UI', sans-serif" text-anchor="middle">Jun 22</text><text x="685.3333333333334" y="426" fill="#7a5a8e" font-size="10" font-family="'Segoe UI', sans-serif" text-anchor="middle">Jun 27</text><text x="808" y="426" fill="#7a5a8e" font-size="10" font-family="'Segoe UI', sans-serif" text-anchor="middle">Jul 2</text>
  </g>

  <g class="cpd-legend">
    
    <circle cx="30" cy="442" r="5" fill="#ffb86c"/>
    <text x="40" y="446" fill="#c4a0d8" font-size="11" font-family="'Segoe UI', sans-serif">Additions</text>
    <circle cx="124" cy="442" r="5" fill="#ff79c6"/>
    <text x="134" y="446" fill="#c4a0d8" font-size="11" font-family="'Segoe UI', sans-serif">Deletions</text>
    <text x="816" y="446" fill="#7a5a8e" font-size="10" font-family="'Segoe UI', sans-serif" text-anchor="end">Last 31 days · +347,658 / -66,542 lines</text>
  </g>

  <a href="https://github.com/mpge/code-per-day" target="_blank">
    <text x="420" y="452" fill="#7a5a8e" font-size="10" font-family="'Segoe UI', sans-serif" text-anchor="middle" opacity="0.6">Get your own - github.com/mpge/code-per-day</text>
  </a>
</svg>