<svg width="840" height="460" viewBox="0 0 840 460" xmlns="http://www.w3.org/2000/svg">
  
    <style>
      @keyframes fadeInUp {
        from { opacity: 0; transform: translateY(12px); }
        to   { opacity: 1; transform: translateY(0); }
      }
      @keyframes growBar {
        from { transform: scaleY(0); }
        to   { transform: scaleY(1); }
      }
      .cpd-header  { animation: fadeInUp 0.5s ease both; }
      .cpd-stats   { animation: fadeInUp 0.5s ease 0.15s both; }
      .cpd-chart   { animation: fadeInUp 0.5s ease 0.3s both; }
      .cpd-legend  { animation: fadeInUp 0.5s ease 0.45s both; }
    </style>

  <rect width="840" height="460" rx="12" fill="#282a36" stroke="#44475a" stroke-width="1"/>

  <g class="cpd-header">
    <a href="https://github.com/mpge/code-per-day" target="_blank">
      <text x="24" y="44" fill="#f8f8f2" font-size="18" font-family="'Segoe UI', sans-serif" font-weight="700">Code Per Day</text>
    </a>
    <text x="816" y="44" fill="#6272a4" font-size="13" font-family="'Segoe UI', sans-serif" text-anchor="end" font-weight="500">@mpge</text>
  </g>

  <g class="cpd-stats">
    
    <rect x="24" y="60" width="190" height="68" rx="8" fill="#21222c" stroke="#44475a" stroke-width="1"/>
    <text x="119" y="78" fill="#6272a4" font-size="11" font-family="'Segoe UI', sans-serif" text-anchor="middle" font-weight="500">Today</text>
    <text x="119" y="100" fill="#50fa7b" font-size="16" font-family="'Segoe UI Mono', 'Cascadia Code', monospace" text-anchor="middle" font-weight="700">+398</text>
    <text x="119" y="118" fill="#ff5555" font-size="14" font-family="'Segoe UI Mono', 'Cascadia Code', monospace" text-anchor="middle" font-weight="600">-210</text>
    <rect x="222" y="60" width="190" height="68" rx="8" fill="#21222c" stroke="#44475a" stroke-width="1"/>
    <text x="317" y="78" fill="#6272a4" font-size="11" font-family="'Segoe UI', sans-serif" text-anchor="middle" font-weight="500">30d Avg</text>
    <text x="317" y="100" fill="#50fa7b" font-size="16" font-family="'Segoe UI Mono', 'Cascadia Code', monospace" text-anchor="middle" font-weight="700">+16,626</text>
    <text x="317" y="118" fill="#ff5555" font-size="14" font-family="'Segoe UI Mono', 'Cascadia Code', monospace" text-anchor="middle" font-weight="600">-6,210</text>
    <rect x="420" y="60" width="190" height="68" rx="8" fill="#21222c" stroke="#44475a" stroke-width="1"/>
    <text x="515" y="78" fill="#6272a4" font-size="11" font-family="'Segoe UI', sans-serif" text-anchor="middle" font-weight="500">Year Avg</text>
    <text x="515" y="100" fill="#50fa7b" font-size="16" font-family="'Segoe UI Mono', 'Cascadia Code', monospace" text-anchor="middle" font-weight="700">+25,497</text>
    <text x="515" y="118" fill="#ff5555" font-size="14" font-family="'Segoe UI Mono', 'Cascadia Code', monospace" text-anchor="middle" font-weight="600">-7,076</text>
    <rect x="618" y="60" width="190" height="68" rx="8" fill="#21222c" stroke="#44475a" stroke-width="1"/>
    <text x="713" y="78" fill="#6272a4" font-size="11" font-family="'Segoe UI', sans-serif" text-anchor="middle" font-weight="500">Streak</text>
    <text x="713" y="104" fill="#8be9fd" font-size="20" font-family="'Segoe UI Mono', 'Cascadia Code', monospace" text-anchor="middle" font-weight="700">197</text>
    <text x="713" y="120" fill="#6272a4" font-size="11" font-family="'Segoe UI', sans-serif" text-anchor="middle">days</text>
  </g>

  <g class="cpd-chart">
    <line x1="72" y1="148" x2="808" y2="148" stroke="#383a4a" stroke-width="1" stroke-dasharray="4,4"/><line x1="72" y1="213.5" x2="808" y2="213.5" stroke="#383a4a" stroke-width="1" stroke-dasharray="4,4"/><line x1="72" y1="279" x2="808" y2="279" stroke="#383a4a" stroke-width="1" stroke-dasharray="4,4"/><line x1="72" y1="344.5" x2="808" y2="344.5" stroke="#383a4a" stroke-width="1" stroke-dasharray="4,4"/><line x1="72" y1="410" x2="808" y2="410" stroke="#383a4a" stroke-width="1" stroke-dasharray="4,4"/><line x1="72" y1="279" x2="808" y2="279" stroke="#44475a" stroke-width="1.5"/><text x="64" y="162" fill="#6272a4" font-size="10" font-family="'Segoe UI', sans-serif" text-anchor="end">+32,603</text><text x="64" y="406" fill="#6272a4" font-size="10" font-family="'Segoe UI', sans-serif" text-anchor="end">-32,603</text><text x="64" y="283" fill="#6272a4" font-size="10" font-family="'Segoe UI', sans-serif" text-anchor="end">0</text><path d="M 72 279 L 72 263.9320614667362 L 96.53333333333333 261.11517345029597 L 121.06666666666666 277.24825936263534 L 145.60000000000002 158 L 170.13333333333333 158 L 194.66666666666669 158 L 219.20000000000002 197.1877741312149 L 243.73333333333335 276.80290157347486 L 268.26666666666665 261.44176916234704 L 292.8 231.84774407263134 L 317.33333333333337 229.8918811152348 L 341.8666666666667 261.47145968162437 L 366.40000000000003 263.3234058215502 L 390.93333333333334 266.1625617274484 L 415.4666666666667 201.23681869766585 L 440 235.7557586725148 L 464.53333333333336 246.51114928074105 L 489.0666666666667 158 L 513.6 210.35180811581756 L 538.1333333333334 158 L 562.6666666666667 205.27844063429745 L 587.2 254.83191730822318 L 611.7333333333333 226.4366469343312 L 636.2666666666667 278.2874275373432 L 660.8000000000001 279 L 685.3333333333334 272.26025212403766 L 709.8666666666667 279 L 734.4000000000001 263.2417568935374 L 758.9333333333334 279 L 783.4666666666667 278.7216513817747 L 808 277.522896665951 L 808 279 Z" fill="#50fa7b" opacity="0.15"/><path d="M 72 279 L 72 263.9320614667362 L 96.53333333333333 261.11517345029597 L 121.06666666666666 277.24825936263534 L 145.60000000000002 158 L 170.13333333333333 158 L 194.66666666666669 158 L 219.20000000000002 197.1877741312149 L 243.73333333333335 276.80290157347486 L 268.26666666666665 261.44176916234704 L 292.8 231.84774407263134 L 317.33333333333337 229.8918811152348 L 341.8666666666667 261.47145968162437 L 366.40000000000003 263.3234058215502 L 390.93333333333334 266.1625617274484 L 415.4666666666667 201.23681869766585 L 440 235.7557586725148 L 464.53333333333336 246.51114928074105 L 489.0666666666667 158 L 513.6 210.35180811581756 L 538.1333333333334 158 L 562.6666666666667 205.27844063429745 L 587.2 254.83191730822318 L 611.7333333333333 226.4366469343312 L 636.2666666666667 278.2874275373432 L 660.8000000000001 279 L 685.3333333333334 272.26025212403766 L 709.8666666666667 279 L 734.4000000000001 263.2417568935374 L 758.9333333333334 279 L 783.4666666666667 278.7216513817747 L 808 277.522896665951" fill="none" stroke="#50fa7b" stroke-width="2"/><path d="M 72 279 L 72 282.5851302027421 L 96.53333333333333 280.9669969021256 L 121.06666666666666 279.35999754623805 L 145.60000000000002 283.8395546422108 L 170.13333333333333 288.80900530626013 L 194.66666666666669 400 L 219.20000000000002 311.3292641781431 L 243.73333333333335 280.45483544459097 L 268.26666666666665 292.51660890102136 L 292.8 299.1932644235193 L 317.33333333333337 293.63000337392265 L 341.8666666666667 282.1731742477686 L 366.40000000000003 284.0510995920621 L 390.93333333333334 285.17562800969233 L 415.4666666666667 296.1240069932215 L 440 298.32481673465634 L 464.53333333333336 281.6535901604147 L 489.0666666666667 329.30316228567926 L 513.6 400 L 538.1333333333334 392.2767536729749 L 562.6666666666667 299.20068705333864 L 587.2 282.7372941140386 L 611.7333333333333 286.48943348771587 L 636.2666666666667 279.22267889458027 L 660.8000000000001 279 L 685.3333333333334 279.0408244640064 L 709.8666666666667 279 L 734.4000000000001 279.304327822593 L 758.9333333333334 279 L 783.4666666666667 279.3303070269607 L 808 279.7793761310309 L 808 279 Z" fill="#ff5555" opacity="0.15"/><path d="M 72 279 L 72 282.5851302027421 L 96.53333333333333 280.9669969021256 L 121.06666666666666 279.35999754623805 L 145.60000000000002 283.8395546422108 L 170.13333333333333 288.80900530626013 L 194.66666666666669 400 L 219.20000000000002 311.3292641781431 L 243.73333333333335 280.45483544459097 L 268.26666666666665 292.51660890102136 L 292.8 299.1932644235193 L 317.33333333333337 293.63000337392265 L 341.8666666666667 282.1731742477686 L 366.40000000000003 284.0510995920621 L 390.93333333333334 285.17562800969233 L 415.4666666666667 296.1240069932215 L 440 298.32481673465634 L 464.53333333333336 281.6535901604147 L 489.0666666666667 329.30316228567926 L 513.6 400 L 538.1333333333334 392.2767536729749 L 562.6666666666667 299.20068705333864 L 587.2 282.7372941140386 L 611.7333333333333 286.48943348771587 L 636.2666666666667 279.22267889458027 L 660.8000000000001 279 L 685.3333333333334 279.0408244640064 L 709.8666666666667 279 L 734.4000000000001 279.304327822593 L 758.9333333333334 279 L 783.4666666666667 279.3303070269607 L 808 279.7793761310309" fill="none" stroke="#ff5555" stroke-width="2"/><text x="72" y="426" fill="#6272a4" font-size="10" font-family="'Segoe UI', sans-serif" text-anchor="middle">May 14</text><text x="194.66666666666669" y="426" fill="#6272a4" font-size="10" font-family="'Segoe UI', sans-serif" text-anchor="middle">May 19</text><text x="317.33333333333337" y="426" fill="#6272a4" font-size="10" font-family="'Segoe UI', sans-serif" text-anchor="middle">May 24</text><text x="440" y="426" fill="#6272a4" font-size="10" font-family="'Segoe UI', sans-serif" text-anchor="middle">May 29</text><text x="562.6666666666667" y="426" fill="#6272a4" font-size="10" font-family="'Segoe UI', sans-serif" text-anchor="middle">Jun 3</text><text x="685.3333333333334" y="426" fill="#6272a4" font-size="10" font-family="'Segoe UI', sans-serif" text-anchor="middle">Jun 8</text><text x="808" y="426" fill="#6272a4" font-size="10" font-family="'Segoe UI', sans-serif" text-anchor="middle">Jun 13</text>
  </g>

  <g class="cpd-legend">
    
    <circle cx="30" cy="442" r="5" fill="#50fa7b"/>
    <text x="40" y="446" fill="#bd93f9" font-size="11" font-family="'Segoe UI', sans-serif">Additions</text>
    <circle cx="124" cy="442" r="5" fill="#ff5555"/>
    <text x="134" y="446" fill="#bd93f9" font-size="11" font-family="'Segoe UI', sans-serif">Deletions</text>
    <text x="816" y="446" fill="#6272a4" font-size="10" font-family="'Segoe UI', sans-serif" text-anchor="end">Last 31 days · +515,421 / -192,503 lines</text>
  </g>

  <a href="https://github.com/mpge/code-per-day" target="_blank">
    <text x="420" y="452" fill="#6272a4" font-size="10" font-family="'Segoe UI', sans-serif" text-anchor="middle" opacity="0.6">Get your own - github.com/mpge/code-per-day</text>
  </a>
</svg>