<svg width="840" height="460" viewBox="0 0 840 460" xmlns="http://www.w3.org/2000/svg">
  
    <style>
      @keyframes fadeInUp {
        from { opacity: 0; transform: translateY(12px); }
        to   { opacity: 1; transform: translateY(0); }
      }
      @keyframes growBar {
        from { transform: scaleY(0); }
        to   { transform: scaleY(1); }
      }
      .cpd-header  { animation: fadeInUp 0.5s ease both; }
      .cpd-stats   { animation: fadeInUp 0.5s ease 0.15s both; }
      .cpd-chart   { animation: fadeInUp 0.5s ease 0.3s both; }
      .cpd-legend  { animation: fadeInUp 0.5s ease 0.45s both; }
    </style>

  <rect width="840" height="460" rx="12" fill="#2e3440" stroke="#4c566a" stroke-width="1"/>

  <g class="cpd-header">
    <a href="https://github.com/mpge/code-per-day" target="_blank">
      <text x="24" y="44" fill="#eceff4" font-size="18" font-family="'Segoe UI', sans-serif" font-weight="700">Code Per Day</text>
    </a>
    <text x="816" y="44" fill="#81a1c1" font-size="13" font-family="'Segoe UI', sans-serif" text-anchor="end" font-weight="500">@mpge</text>
  </g>

  <g class="cpd-stats">
    
    <rect x="24" y="60" width="190" height="68" rx="8" fill="#2e3440" stroke="#4c566a" stroke-width="1"/>
    <text x="119" y="78" fill="#81a1c1" font-size="11" font-family="'Segoe UI', sans-serif" text-anchor="middle" font-weight="500">Today</text>
    <text x="119" y="100" fill="#a3be8c" font-size="16" font-family="'Segoe UI Mono', 'Cascadia Code', monospace" text-anchor="middle" font-weight="700">+6,118</text>
    <text x="119" y="118" fill="#bf616a" font-size="14" font-family="'Segoe UI Mono', 'Cascadia Code', monospace" text-anchor="middle" font-weight="600">-236</text>
    <rect x="222" y="60" width="190" height="68" rx="8" fill="#2e3440" stroke="#4c566a" stroke-width="1"/>
    <text x="317" y="78" fill="#81a1c1" font-size="11" font-family="'Segoe UI', sans-serif" text-anchor="middle" font-weight="500">30d Avg</text>
    <text x="317" y="100" fill="#a3be8c" font-size="16" font-family="'Segoe UI Mono', 'Cascadia Code', monospace" text-anchor="middle" font-weight="700">+40,402</text>
    <text x="317" y="118" fill="#bf616a" font-size="14" font-family="'Segoe UI Mono', 'Cascadia Code', monospace" text-anchor="middle" font-weight="600">-4,969</text>
    <rect x="420" y="60" width="190" height="68" rx="8" fill="#2e3440" stroke="#4c566a" stroke-width="1"/>
    <text x="515" y="78" fill="#81a1c1" font-size="11" font-family="'Segoe UI', sans-serif" text-anchor="middle" font-weight="500">Year Avg</text>
    <text x="515" y="100" fill="#a3be8c" font-size="16" font-family="'Segoe UI Mono', 'Cascadia Code', monospace" text-anchor="middle" font-weight="700">+24,967</text>
    <text x="515" y="118" fill="#bf616a" font-size="14" font-family="'Segoe UI Mono', 'Cascadia Code', monospace" text-anchor="middle" font-weight="600">-6,761</text>
    <rect x="618" y="60" width="190" height="68" rx="8" fill="#2e3440" stroke="#4c566a" stroke-width="1"/>
    <text x="713" y="78" fill="#81a1c1" font-size="11" font-family="'Segoe UI', sans-serif" text-anchor="middle" font-weight="500">Streak</text>
    <text x="713" y="104" fill="#88c0d0" font-size="20" font-family="'Segoe UI Mono', 'Cascadia Code', monospace" text-anchor="middle" font-weight="700">176</text>
    <text x="713" y="120" fill="#81a1c1" font-size="11" font-family="'Segoe UI', sans-serif" text-anchor="middle">days</text>
  </g>

  <g class="cpd-chart">
    <line x1="72" y1="148" x2="808" y2="148" stroke="#434c5e" stroke-width="1" stroke-dasharray="4,4"/><line x1="72" y1="213.5" x2="808" y2="213.5" stroke="#434c5e" stroke-width="1" stroke-dasharray="4,4"/><line x1="72" y1="279" x2="808" y2="279" stroke="#434c5e" stroke-width="1" stroke-dasharray="4,4"/><line x1="72" y1="344.5" x2="808" y2="344.5" stroke="#434c5e" stroke-width="1" stroke-dasharray="4,4"/><line x1="72" y1="410" x2="808" y2="410" stroke="#434c5e" stroke-width="1" stroke-dasharray="4,4"/><line x1="72" y1="279" x2="808" y2="279" stroke="#4c566a" stroke-width="1.5"/><text x="64" y="162" fill="#81a1c1" font-size="10" font-family="'Segoe UI', sans-serif" text-anchor="end">+32,870</text><text x="64" y="406" fill="#81a1c1" font-size="10" font-family="'Segoe UI', sans-serif" text-anchor="end">-32,870</text><text x="64" y="283" fill="#81a1c1" font-size="10" font-family="'Segoe UI', sans-serif" text-anchor="end">0</text><path d="M 72 279 L 72 183.52522056586554 L 96.53333333333333 158 L 121.06666666666666 270.81676300578033 L 145.60000000000002 177.42184362640705 L 170.13333333333333 158 L 194.66666666666669 237.10094310921812 L 219.20000000000002 269.6314268329784 L 243.73333333333335 227.85752966230604 L 268.26666666666665 247.25728627928203 L 292.8 158 L 317.33333333333337 256.5080620626711 L 341.8666666666667 266.5981442044417 L 366.40000000000003 196.2657438393672 L 390.93333333333334 249.20094310921814 L 415.4666666666667 211.1192576817767 L 440 158 L 464.53333333333336 274.2034377852145 L 489.0666666666667 234.98427137207182 L 513.6 223.49534529966536 L 538.1333333333334 266.41408579251595 L 562.6666666666667 246.92598113781565 L 587.2 264.0544569516276 L 611.7333333333333 261.26045025859446 L 636.2666666666667 277.2624885914207 L 660.8000000000001 158 L 685.3333333333334 158 L 709.8666666666667 158 L 734.4000000000001 197.85232735016734 L 758.9333333333334 276.8207484027989 L 783.4666666666667 261.58439306358383 L 808 256.478612716763 L 808 279 Z" fill="#a3be8c" opacity="0.15"/><path d="M 72 279 L 72 183.52522056586554 L 96.53333333333333 158 L 121.06666666666666 270.81676300578033 L 145.60000000000002 177.42184362640705 L 170.13333333333333 158 L 194.66666666666669 237.10094310921812 L 219.20000000000002 269.6314268329784 L 243.73333333333335 227.85752966230604 L 268.26666666666665 247.25728627928203 L 292.8 158 L 317.33333333333337 256.5080620626711 L 341.8666666666667 266.5981442044417 L 366.40000000000003 196.2657438393672 L 390.93333333333334 249.20094310921814 L 415.4666666666667 211.1192576817767 L 440 158 L 464.53333333333336 274.2034377852145 L 489.0666666666667 234.98427137207182 L 513.6 223.49534529966536 L 538.1333333333334 266.41408579251595 L 562.6666666666667 246.92598113781565 L 587.2 264.0544569516276 L 611.7333333333333 261.26045025859446 L 636.2666666666667 277.2624885914207 L 660.8000000000001 158 L 685.3333333333334 158 L 709.8666666666667 158 L 734.4000000000001 197.85232735016734 L 758.9333333333334 276.8207484027989 L 783.4666666666667 261.58439306358383 L 808 256.478612716763" fill="none" stroke="#a3be8c" stroke-width="2"/><path d="M 72 279 L 72 281.0320048676605 L 96.53333333333333 297.16656525707333 L 121.06666666666666 279.3055369637968 L 145.60000000000002 283.5720109522361 L 170.13333333333333 282.2578338910861 L 194.66666666666669 298.4512929723152 L 219.20000000000002 280.9915120170368 L 243.73333333333335 296.14688165500456 L 268.26666666666665 284.9009126863401 L 292.8 309.03465165804687 L 317.33333333333337 289.4913294797688 L 341.8666666666667 283.6934895041071 L 366.40000000000003 285.8027989047764 L 390.93333333333334 281.86763005780347 L 415.4666666666667 296.0953452996653 L 440 400 L 464.53333333333336 280.89948281107394 L 489.0666666666667 282.9977487070277 L 513.6 289.1821113477335 L 538.1333333333334 279.3533921508975 L 562.6666666666667 291.2362032248251 L 587.2 282.55600851840586 L 611.7333333333333 280.9510191664131 L 636.2666666666667 279.35707331913596 L 660.8000000000001 283.80024338302405 L 685.3333333333334 288.7293276543961 L 709.8666666666667 400 L 734.4000000000001 311.06665652570734 L 758.9333333333334 280.443017949498 L 783.4666666666667 292.4068147246729 L 808 279.86875570428964 L 808 279 Z" fill="#bf616a" opacity="0.15"/><path d="M 72 279 L 72 281.0320048676605 L 96.53333333333333 297.16656525707333 L 121.06666666666666 279.3055369637968 L 145.60000000000002 283.5720109522361 L 170.13333333333333 282.2578338910861 L 194.66666666666669 298.4512929723152 L 219.20000000000002 280.9915120170368 L 243.73333333333335 296.14688165500456 L 268.26666666666665 284.9009126863401 L 292.8 309.03465165804687 L 317.33333333333337 289.4913294797688 L 341.8666666666667 283.6934895041071 L 366.40000000000003 285.8027989047764 L 390.93333333333334 281.86763005780347 L 415.4666666666667 296.0953452996653 L 440 400 L 464.53333333333336 280.89948281107394 L 489.0666666666667 282.9977487070277 L 513.6 289.1821113477335 L 538.1333333333334 279.3533921508975 L 562.6666666666667 291.2362032248251 L 587.2 282.55600851840586 L 611.7333333333333 280.9510191664131 L 636.2666666666667 279.35707331913596 L 660.8000000000001 283.80024338302405 L 685.3333333333334 288.7293276543961 L 709.8666666666667 400 L 734.4000000000001 311.06665652570734 L 758.9333333333334 280.443017949498 L 783.4666666666667 292.4068147246729 L 808 279.86875570428964" fill="none" stroke="#bf616a" stroke-width="2"/><text x="72" y="426" fill="#81a1c1" font-size="10" font-family="'Segoe UI', sans-serif" text-anchor="middle">Apr 23</text><text x="194.66666666666669" y="426" fill="#81a1c1" font-size="10" font-family="'Segoe UI', sans-serif" text-anchor="middle">Apr 28</text><text x="317.33333333333337" y="426" fill="#81a1c1" font-size="10" font-family="'Segoe UI', sans-serif" text-anchor="middle">May 3</text><text x="440" y="426" fill="#81a1c1" font-size="10" font-family="'Segoe UI', sans-serif" text-anchor="middle">May 8</text><text x="562.6666666666667" y="426" fill="#81a1c1" font-size="10" font-family="'Segoe UI', sans-serif" text-anchor="middle">May 13</text><text x="685.3333333333334" y="426" fill="#81a1c1" font-size="10" font-family="'Segoe UI', sans-serif" text-anchor="middle">May 18</text><text x="808" y="426" fill="#81a1c1" font-size="10" font-family="'Segoe UI', sans-serif" text-anchor="middle">May 23</text>
  </g>

  <g class="cpd-legend">
    
    <circle cx="30" cy="442" r="5" fill="#a3be8c"/>
    <text x="40" y="446" fill="#d8dee9" font-size="11" font-family="'Segoe UI', sans-serif">Additions</text>
    <circle cx="124" cy="442" r="5" fill="#bf616a"/>
    <text x="134" y="446" fill="#d8dee9" font-size="11" font-family="'Segoe UI', sans-serif">Deletions</text>
    <text x="816" y="446" fill="#81a1c1" font-size="10" font-family="'Segoe UI', sans-serif" text-anchor="end">Last 31 days · +1,252,465 / -154,044 lines</text>
  </g>

  <a href="https://github.com/mpge/code-per-day" target="_blank">
    <text x="420" y="452" fill="#81a1c1" font-size="10" font-family="'Segoe UI', sans-serif" text-anchor="middle" opacity="0.6">Get your own - github.com/mpge/code-per-day</text>
  </a>
</svg>