<svg width="840" height="460" viewBox="0 0 840 460" xmlns="http://www.w3.org/2000/svg">
  
    <style>
      @keyframes fadeInUp {
        from { opacity: 0; transform: translateY(12px); }
        to   { opacity: 1; transform: translateY(0); }
      }
      @keyframes growBar {
        from { transform: scaleY(0); }
        to   { transform: scaleY(1); }
      }
      .cpd-header  { animation: fadeInUp 0.5s ease both; }
      .cpd-stats   { animation: fadeInUp 0.5s ease 0.15s both; }
      .cpd-chart   { animation: fadeInUp 0.5s ease 0.3s both; }
      .cpd-legend  { animation: fadeInUp 0.5s ease 0.45s both; }
    </style>

  <rect width="840" height="460" rx="12" fill="#0d1117" stroke="#30363d" stroke-width="1"/>

  <g class="cpd-header">
    <a href="https://github.com/mpge/code-per-day" target="_blank">
      <text x="24" y="44" fill="#e6edf3" font-size="18" font-family="'Segoe UI', sans-serif" font-weight="700">Code Per Day</text>
    </a>
    <text x="816" y="44" fill="#6e7681" font-size="13" font-family="'Segoe UI', sans-serif" text-anchor="end" font-weight="500">@mpge</text>
  </g>

  <g class="cpd-stats">
    
    <rect x="24" y="60" width="190" height="68" rx="8" fill="#0d1117" stroke="#30363d" stroke-width="1"/>
    <text x="119" y="78" fill="#6e7681" font-size="11" font-family="'Segoe UI', sans-serif" text-anchor="middle" font-weight="500">Today</text>
    <text x="119" y="100" fill="#3fb950" font-size="16" font-family="'Segoe UI Mono', 'Cascadia Code', monospace" text-anchor="middle" font-weight="700">+0</text>
    <text x="119" y="118" fill="#f85149" font-size="14" font-family="'Segoe UI Mono', 'Cascadia Code', monospace" text-anchor="middle" font-weight="600">+0</text>
    <rect x="222" y="60" width="190" height="68" rx="8" fill="#0d1117" stroke="#30363d" stroke-width="1"/>
    <text x="317" y="78" fill="#6e7681" font-size="11" font-family="'Segoe UI', sans-serif" text-anchor="middle" font-weight="500">30d Avg</text>
    <text x="317" y="100" fill="#3fb950" font-size="16" font-family="'Segoe UI Mono', 'Cascadia Code', monospace" text-anchor="middle" font-weight="700">+9,727</text>
    <text x="317" y="118" fill="#f85149" font-size="14" font-family="'Segoe UI Mono', 'Cascadia Code', monospace" text-anchor="middle" font-weight="600">-1,162</text>
    <rect x="420" y="60" width="190" height="68" rx="8" fill="#0d1117" stroke="#30363d" stroke-width="1"/>
    <text x="515" y="78" fill="#6e7681" font-size="11" font-family="'Segoe UI', sans-serif" text-anchor="middle" font-weight="500">Year Avg</text>
    <text x="515" y="100" fill="#3fb950" font-size="16" font-family="'Segoe UI Mono', 'Cascadia Code', monospace" text-anchor="middle" font-weight="700">+26,144</text>
    <text x="515" y="118" fill="#f85149" font-size="14" font-family="'Segoe UI Mono', 'Cascadia Code', monospace" text-anchor="middle" font-weight="600">-7,145</text>
    <rect x="618" y="60" width="190" height="68" rx="8" fill="#0d1117" stroke="#30363d" stroke-width="1"/>
    <text x="713" y="78" fill="#6e7681" font-size="11" font-family="'Segoe UI', sans-serif" text-anchor="middle" font-weight="500">Streak</text>
    <text x="713" y="104" fill="#58a6ff" font-size="20" font-family="'Segoe UI Mono', 'Cascadia Code', monospace" text-anchor="middle" font-weight="700">217</text>
    <text x="713" y="120" fill="#6e7681" font-size="11" font-family="'Segoe UI', sans-serif" text-anchor="middle">days</text>
  </g>

  <g class="cpd-chart">
    <line x1="72" y1="148" x2="808" y2="148" stroke="#21262d" stroke-width="1" stroke-dasharray="4,4"/><line x1="72" y1="213.5" x2="808" y2="213.5" stroke="#21262d" stroke-width="1" stroke-dasharray="4,4"/><line x1="72" y1="279" x2="808" y2="279" stroke="#21262d" stroke-width="1" stroke-dasharray="4,4"/><line x1="72" y1="344.5" x2="808" y2="344.5" stroke="#21262d" stroke-width="1" stroke-dasharray="4,4"/><line x1="72" y1="410" x2="808" y2="410" stroke="#21262d" stroke-width="1" stroke-dasharray="4,4"/><line x1="72" y1="279" x2="808" y2="279" stroke="#30363d" stroke-width="1.5"/><text x="64" y="162" fill="#6e7681" font-size="10" font-family="'Segoe UI', sans-serif" text-anchor="end">+13,180</text><text x="64" y="406" fill="#6e7681" font-size="10" font-family="'Segoe UI', sans-serif" text-anchor="end">-13,180</text><text x="64" y="283" fill="#6e7681" font-size="10" font-family="'Segoe UI', sans-serif" text-anchor="end">0</text><path d="M 72 279 L 72 158 L 96.53333333333333 219.21608497723824 L 121.06666666666666 158 L 145.60000000000002 277.2373292867982 L 170.13333333333333 279 L 194.66666666666669 262.32807283763276 L 219.20000000000002 279 L 243.73333333333335 240.01927162367224 L 268.26666666666665 279 L 292.8 278.31145675265554 L 317.33333333333337 275.3461305007587 L 341.8666666666667 236.18179059180576 L 366.40000000000003 272.4083459787557 L 390.93333333333334 279 L 415.4666666666667 265.8809559939302 L 440 233.81320182094083 L 464.53333333333336 227.84582701062214 L 489.0666666666667 250.8064491654021 L 513.6 158 L 538.1333333333334 200.49688922610017 L 562.6666666666667 158 L 587.2 212.3398330804249 L 611.7333333333333 215.13990895295902 L 636.2666666666667 262.1352807283763 L 660.8000000000001 265.9727617602428 L 685.3333333333334 237.49461305007588 L 709.8666666666667 158 L 734.4000000000001 249.7874051593323 L 758.9333333333334 255.7731411229135 L 783.4666666666667 275.9704097116844 L 808 279 L 808 279 Z" fill="#3fb950" opacity="0.15"/><path d="M 72 279 L 72 158 L 96.53333333333333 219.21608497723824 L 121.06666666666666 158 L 145.60000000000002 277.2373292867982 L 170.13333333333333 279 L 194.66666666666669 262.32807283763276 L 219.20000000000002 279 L 243.73333333333335 240.01927162367224 L 268.26666666666665 279 L 292.8 278.31145675265554 L 317.33333333333337 275.3461305007587 L 341.8666666666667 236.18179059180576 L 366.40000000000003 272.4083459787557 L 390.93333333333334 279 L 415.4666666666667 265.8809559939302 L 440 233.81320182094083 L 464.53333333333336 227.84582701062214 L 489.0666666666667 250.8064491654021 L 513.6 158 L 538.1333333333334 200.49688922610017 L 562.6666666666667 158 L 587.2 212.3398330804249 L 611.7333333333333 215.13990895295902 L 636.2666666666667 262.1352807283763 L 660.8000000000001 265.9727617602428 L 685.3333333333334 237.49461305007588 L 709.8666666666667 158 L 734.4000000000001 249.7874051593323 L 758.9333333333334 255.7731411229135 L 783.4666666666667 275.9704097116844 L 808 279" fill="none" stroke="#3fb950" stroke-width="2"/><path d="M 72 279 L 72 328.9698786039454 L 96.53333333333333 288.2448406676783 L 121.06666666666666 297.52640364188164 L 145.60000000000002 279.55083459787556 L 170.13333333333333 279 L 194.66666666666669 279.1009863429438 L 219.20000000000002 279 L 243.73333333333335 279.7528072837633 L 268.26666666666665 279 L 292.8 279.8170713201821 L 317.33333333333337 280.9279210925645 L 341.8666666666667 320.65227617602426 L 366.40000000000003 279.2754172989378 L 390.93333333333334 279 L 415.4666666666667 282.2499241274659 L 440 283.7555386949924 L 464.53333333333336 287.89597875569046 L 489.0666666666667 280.0190440060698 L 513.6 330.8151745068285 L 538.1333333333334 287.20743550834595 L 562.6666666666667 303.6314871016692 L 587.2 289.3556904400607 L 611.7333333333333 279.62427921092564 L 636.2666666666667 280.5423368740516 L 660.8000000000001 279.78952959028834 L 685.3333333333334 281.61646433990893 L 709.8666666666667 354.960091047041 L 734.4000000000001 285.05918057663126 L 758.9333333333334 285.3437784522003 L 783.4666666666667 279 L 808 279 L 808 279 Z" fill="#f85149" opacity="0.15"/><path d="M 72 279 L 72 328.9698786039454 L 96.53333333333333 288.2448406676783 L 121.06666666666666 297.52640364188164 L 145.60000000000002 279.55083459787556 L 170.13333333333333 279 L 194.66666666666669 279.1009863429438 L 219.20000000000002 279 L 243.73333333333335 279.7528072837633 L 268.26666666666665 279 L 292.8 279.8170713201821 L 317.33333333333337 280.9279210925645 L 341.8666666666667 320.65227617602426 L 366.40000000000003 279.2754172989378 L 390.93333333333334 279 L 415.4666666666667 282.2499241274659 L 440 283.7555386949924 L 464.53333333333336 287.89597875569046 L 489.0666666666667 280.0190440060698 L 513.6 330.8151745068285 L 538.1333333333334 287.20743550834595 L 562.6666666666667 303.6314871016692 L 587.2 289.3556904400607 L 611.7333333333333 279.62427921092564 L 636.2666666666667 280.5423368740516 L 660.8000000000001 279.78952959028834 L 685.3333333333334 281.61646433990893 L 709.8666666666667 354.960091047041 L 734.4000000000001 285.05918057663126 L 758.9333333333334 285.3437784522003 L 783.4666666666667 279 L 808 279" fill="none" stroke="#f85149" stroke-width="2"/><text x="72" y="426" fill="#6e7681" font-size="10" font-family="'Segoe UI', sans-serif" text-anchor="middle">Jun 3</text><text x="194.66666666666669" y="426" fill="#6e7681" font-size="10" font-family="'Segoe UI', sans-serif" text-anchor="middle">Jun 8</text><text x="317.33333333333337" y="426" fill="#6e7681" font-size="10" font-family="'Segoe UI', sans-serif" text-anchor="middle">Jun 13</text><text x="440" y="426" fill="#6e7681" font-size="10" font-family="'Segoe UI', sans-serif" text-anchor="middle">Jun 18</text><text x="562.6666666666667" y="426" fill="#6e7681" font-size="10" font-family="'Segoe UI', sans-serif" text-anchor="middle">Jun 23</text><text x="685.3333333333334" y="426" fill="#6e7681" font-size="10" font-family="'Segoe UI', sans-serif" text-anchor="middle">Jun 28</text><text x="808" y="426" fill="#6e7681" font-size="10" font-family="'Segoe UI', sans-serif" text-anchor="middle">Jul 3</text>
  </g>

  <g class="cpd-legend">
    
    <circle cx="30" cy="442" r="5" fill="#3fb950"/>
    <text x="40" y="446" fill="#8b949e" font-size="11" font-family="'Segoe UI', sans-serif">Additions</text>
    <circle cx="124" cy="442" r="5" fill="#f85149"/>
    <text x="134" y="446" fill="#8b949e" font-size="11" font-family="'Segoe UI', sans-serif">Deletions</text>
    <text x="816" y="446" fill="#6e7681" font-size="10" font-family="'Segoe UI', sans-serif" text-anchor="end">Last 31 days · +301,544 / -36,020 lines</text>
  </g>

  <a href="https://github.com/mpge/code-per-day" target="_blank">
    <text x="420" y="452" fill="#6e7681" font-size="10" font-family="'Segoe UI', sans-serif" text-anchor="middle" opacity="0.6">Get your own - github.com/mpge/code-per-day</text>
  </a>
</svg>