<svg width="840" height="460" viewBox="0 0 840 460" xmlns="http://www.w3.org/2000/svg">
  
    <style>
      @keyframes fadeInUp {
        from { opacity: 0; transform: translateY(12px); }
        to   { opacity: 1; transform: translateY(0); }
      }
      @keyframes growBar {
        from { transform: scaleY(0); }
        to   { transform: scaleY(1); }
      }
      .cpd-header  { animation: fadeInUp 0.5s ease both; }
      .cpd-stats   { animation: fadeInUp 0.5s ease 0.15s both; }
      .cpd-chart   { animation: fadeInUp 0.5s ease 0.3s both; }
      .cpd-legend  { animation: fadeInUp 0.5s ease 0.45s both; }
    </style>

  <rect width="840" height="460" rx="12" fill="#1a1b26" stroke="#414868" stroke-width="1"/>

  <g class="cpd-header">
    <a href="https://github.com/mpge/code-per-day" target="_blank">
      <text x="24" y="44" fill="#c0caf5" font-size="18" font-family="'Segoe UI', sans-serif" font-weight="700">Code Per Day</text>
    </a>
    <text x="816" y="44" fill="#565f89" font-size="13" font-family="'Segoe UI', sans-serif" text-anchor="end" font-weight="500">@mpge</text>
  </g>

  <g class="cpd-stats">
    
    <rect x="24" y="60" width="190" height="68" rx="8" fill="#16161e" stroke="#414868" stroke-width="1"/>
    <text x="119" y="78" fill="#565f89" font-size="11" font-family="'Segoe UI', sans-serif" text-anchor="middle" font-weight="500">Today</text>
    <text x="119" y="100" fill="#9ece6a" font-size="16" font-family="'Segoe UI Mono', 'Cascadia Code', monospace" text-anchor="middle" font-weight="700">+7,913</text>
    <text x="119" y="118" fill="#f7768e" font-size="14" font-family="'Segoe UI Mono', 'Cascadia Code', monospace" text-anchor="middle" font-weight="600">-2,123</text>
    <rect x="222" y="60" width="190" height="68" rx="8" fill="#16161e" stroke="#414868" stroke-width="1"/>
    <text x="317" y="78" fill="#565f89" font-size="11" font-family="'Segoe UI', sans-serif" text-anchor="middle" font-weight="500">30d Avg</text>
    <text x="317" y="100" fill="#9ece6a" font-size="16" font-family="'Segoe UI Mono', 'Cascadia Code', monospace" text-anchor="middle" font-weight="700">+172,103</text>
    <text x="317" y="118" fill="#f7768e" font-size="14" font-family="'Segoe UI Mono', 'Cascadia Code', monospace" text-anchor="middle" font-weight="600">-2,914</text>
    <rect x="420" y="60" width="190" height="68" rx="8" fill="#16161e" stroke="#414868" stroke-width="1"/>
    <text x="515" y="78" fill="#565f89" font-size="11" font-family="'Segoe UI', sans-serif" text-anchor="middle" font-weight="500">Year Avg</text>
    <text x="515" y="100" fill="#9ece6a" font-size="16" font-family="'Segoe UI Mono', 'Cascadia Code', monospace" text-anchor="middle" font-weight="700">+24,286</text>
    <text x="515" y="118" fill="#f7768e" font-size="14" font-family="'Segoe UI Mono', 'Cascadia Code', monospace" text-anchor="middle" font-weight="600">-6,579</text>
    <rect x="618" y="60" width="190" height="68" rx="8" fill="#16161e" stroke="#414868" stroke-width="1"/>
    <text x="713" y="78" fill="#565f89" font-size="11" font-family="'Segoe UI', sans-serif" text-anchor="middle" font-weight="500">Streak</text>
    <text x="713" y="104" fill="#7aa2f7" font-size="20" font-family="'Segoe UI Mono', 'Cascadia Code', monospace" text-anchor="middle" font-weight="700">164</text>
    <text x="713" y="120" fill="#565f89" font-size="11" font-family="'Segoe UI', sans-serif" text-anchor="middle">days</text>
  </g>

  <g class="cpd-chart">
    <line x1="72" y1="148" x2="808" y2="148" stroke="#292e42" stroke-width="1" stroke-dasharray="4,4"/><line x1="72" y1="213.5" x2="808" y2="213.5" stroke="#292e42" stroke-width="1" stroke-dasharray="4,4"/><line x1="72" y1="279" x2="808" y2="279" stroke="#292e42" stroke-width="1" stroke-dasharray="4,4"/><line x1="72" y1="344.5" x2="808" y2="344.5" stroke="#292e42" stroke-width="1" stroke-dasharray="4,4"/><line x1="72" y1="410" x2="808" y2="410" stroke="#292e42" stroke-width="1" stroke-dasharray="4,4"/><line x1="72" y1="279" x2="808" y2="279" stroke="#414868" stroke-width="1.5"/><text x="64" y="162" fill="#565f89" font-size="10" font-family="'Segoe UI', sans-serif" text-anchor="end">+23,215</text><text x="64" y="406" fill="#565f89" font-size="10" font-family="'Segoe UI', sans-serif" text-anchor="end">-23,215</text><text x="64" y="283" fill="#565f89" font-size="10" font-family="'Segoe UI', sans-serif" text-anchor="end">0</text><path d="M 72 279 L 72 244.94382942063322 L 96.53333333333333 158 L 121.06666666666666 237.93349127719148 L 145.60000000000002 278.7498169287099 L 170.13333333333333 279 L 194.66666666666669 278.72375619211715 L 219.20000000000002 279 L 243.73333333333335 252.15222916217962 L 268.26666666666665 203.68447124703857 L 292.8 242.31169502476848 L 317.33333333333337 254.8 L 341.8666666666667 278.97393926340726 L 366.40000000000003 158 L 390.93333333333334 158 L 415.4666666666667 267.41339651087657 L 440 158 L 464.53333333333336 158 L 489.0666666666667 219.6753392203317 L 513.6 265.7350850743054 L 538.1333333333334 206.5876373034676 L 562.6666666666667 234.0556536721947 L 587.2 158 L 611.7333333333333 247.15377988369588 L 636.2666666666667 261.4402756838251 L 660.8000000000001 161.8569890157226 L 685.3333333333334 236.80766745638596 L 709.8666666666667 182.88800344604783 L 734.4000000000001 158 L 758.9333333333334 272.2085720439371 L 783.4666666666667 216.67835451216885 L 808 237.75627826836097 L 808 279 Z" fill="#9ece6a" opacity="0.15"/><path d="M 72 279 L 72 244.94382942063322 L 96.53333333333333 158 L 121.06666666666666 237.93349127719148 L 145.60000000000002 278.7498169287099 L 170.13333333333333 279 L 194.66666666666669 278.72375619211715 L 219.20000000000002 279 L 243.73333333333335 252.15222916217962 L 268.26666666666665 203.68447124703857 L 292.8 242.31169502476848 L 317.33333333333337 254.8 L 341.8666666666667 278.97393926340726 L 366.40000000000003 158 L 390.93333333333334 158 L 415.4666666666667 267.41339651087657 L 440 158 L 464.53333333333336 158 L 489.0666666666667 219.6753392203317 L 513.6 265.7350850743054 L 538.1333333333334 206.5876373034676 L 562.6666666666667 234.0556536721947 L 587.2 158 L 611.7333333333333 247.15377988369588 L 636.2666666666667 261.4402756838251 L 660.8000000000001 161.8569890157226 L 685.3333333333334 236.80766745638596 L 709.8666666666667 182.88800344604783 L 734.4000000000001 158 L 758.9333333333334 272.2085720439371 L 783.4666666666667 216.67835451216885 L 808 237.75627826836097" fill="none" stroke="#9ece6a" stroke-width="2"/><path d="M 72 279 L 72 289.59629549860006 L 96.53333333333333 283.8785698901572 L 121.06666666666666 280.53237131165196 L 145.60000000000002 304.35188455739825 L 170.13333333333333 279 L 194.66666666666669 279.2345466293345 L 219.20000000000002 279 L 243.73333333333335 279.594184794314 L 268.26666666666665 283.30002153779884 L 292.8 289.39823390049537 L 317.33333333333337 279.3231531337497 L 341.8666666666667 279 L 366.40000000000003 281.8771053198363 L 390.93333333333334 304.7219470170149 L 415.4666666666667 279.4326082274392 L 440 285.4734869696317 L 464.53333333333336 283.6127503769115 L 489.0666666666667 306.54098643118675 L 513.6 281.8197716993323 L 538.1333333333334 303.27818220977815 L 562.6666666666667 287.35507215162613 L 587.2 321.5259099720009 L 611.7333333333333 293.85461985785054 L 636.2666666666667 285.64548783114367 L 660.8000000000001 288.6320482446694 L 685.3333333333334 283.0602627611458 L 709.8666666666667 303.20521214731855 L 734.4000000000001 400 L 758.9333333333334 281.6894680163687 L 783.4666666666667 284.66039198793885 L 808 290.06538875726903 L 808 279 Z" fill="#f7768e" opacity="0.15"/><path d="M 72 279 L 72 289.59629549860006 L 96.53333333333333 283.8785698901572 L 121.06666666666666 280.53237131165196 L 145.60000000000002 304.35188455739825 L 170.13333333333333 279 L 194.66666666666669 279.2345466293345 L 219.20000000000002 279 L 243.73333333333335 279.594184794314 L 268.26666666666665 283.30002153779884 L 292.8 289.39823390049537 L 317.33333333333337 279.3231531337497 L 341.8666666666667 279 L 366.40000000000003 281.8771053198363 L 390.93333333333334 304.7219470170149 L 415.4666666666667 279.4326082274392 L 440 285.4734869696317 L 464.53333333333336 283.6127503769115 L 489.0666666666667 306.54098643118675 L 513.6 281.8197716993323 L 538.1333333333334 303.27818220977815 L 562.6666666666667 287.35507215162613 L 587.2 321.5259099720009 L 611.7333333333333 293.85461985785054 L 636.2666666666667 285.64548783114367 L 660.8000000000001 288.6320482446694 L 685.3333333333334 283.0602627611458 L 709.8666666666667 303.20521214731855 L 734.4000000000001 400 L 758.9333333333334 281.6894680163687 L 783.4666666666667 284.66039198793885 L 808 290.06538875726903" fill="none" stroke="#f7768e" stroke-width="2"/><text x="72" y="426" fill="#565f89" font-size="10" font-family="'Segoe UI', sans-serif" text-anchor="middle">Apr 11</text><text x="194.66666666666669" y="426" fill="#565f89" font-size="10" font-family="'Segoe UI', sans-serif" text-anchor="middle">Apr 16</text><text x="317.33333333333337" y="426" fill="#565f89" font-size="10" font-family="'Segoe UI', sans-serif" text-anchor="middle">Apr 21</text><text x="440" y="426" fill="#565f89" font-size="10" font-family="'Segoe UI', sans-serif" text-anchor="middle">Apr 26</text><text x="562.6666666666667" y="426" fill="#565f89" font-size="10" font-family="'Segoe UI', sans-serif" text-anchor="middle">May 1</text><text x="685.3333333333334" y="426" fill="#565f89" font-size="10" font-family="'Segoe UI', sans-serif" text-anchor="middle">May 6</text><text x="808" y="426" fill="#565f89" font-size="10" font-family="'Segoe UI', sans-serif" text-anchor="middle">May 11</text>
  </g>

  <g class="cpd-legend">
    
    <circle cx="30" cy="442" r="5" fill="#9ece6a"/>
    <text x="40" y="446" fill="#a9b1d6" font-size="11" font-family="'Segoe UI', sans-serif">Additions</text>
    <circle cx="124" cy="442" r="5" fill="#f7768e"/>
    <text x="134" y="446" fill="#a9b1d6" font-size="11" font-family="'Segoe UI', sans-serif">Deletions</text>
    <text x="816" y="446" fill="#565f89" font-size="10" font-family="'Segoe UI', sans-serif" text-anchor="end">Last 31 days · +5,335,200 / -90,326 lines</text>
  </g>

  <a href="https://github.com/mpge/code-per-day" target="_blank">
    <text x="420" y="452" fill="#565f89" font-size="10" font-family="'Segoe UI', sans-serif" text-anchor="middle" opacity="0.6">Get your own - github.com/mpge/code-per-day</text>
  </a>
</svg>