<svg width="840" height="460" viewBox="0 0 840 460" xmlns="http://www.w3.org/2000/svg">
  
    <style>
      @keyframes fadeInUp {
        from { opacity: 0; transform: translateY(12px); }
        to   { opacity: 1; transform: translateY(0); }
      }
      @keyframes growBar {
        from { transform: scaleY(0); }
        to   { transform: scaleY(1); }
      }
      .cpd-header  { animation: fadeInUp 0.5s ease both; }
      .cpd-stats   { animation: fadeInUp 0.5s ease 0.15s both; }
      .cpd-chart   { animation: fadeInUp 0.5s ease 0.3s both; }
      .cpd-legend  { animation: fadeInUp 0.5s ease 0.45s both; }
    </style>

  <!-- Background -->
  <rect width="840" height="460" rx="12" fill="#0b1929" stroke="#1d3461" stroke-width="1"/>

  <!-- Header -->
  <g class="cpd-header">
    <a href="https://github.com/mpge/code-per-day" target="_blank">
      <text x="24" y="44" fill="#ccd6f6" font-size="18" font-family="'Segoe UI', sans-serif" font-weight="700">Code Per Day</text>
    </a>
    <text x="816" y="44" fill="#495670" font-size="13" font-family="'Segoe UI', sans-serif" text-anchor="end" font-weight="500">@mpge</text>
  </g>

  <!-- Stats Cards -->
  <g class="cpd-stats">
    
    <rect x="24" y="60" width="190" height="68" rx="8" fill="#0a1628" stroke="#1d3461" stroke-width="1"/>
    <text x="119" y="78" fill="#495670" font-size="11" font-family="'Segoe UI', sans-serif" text-anchor="middle" font-weight="500">Today</text>
    <text x="119" y="100" fill="#64ffda" font-size="16" font-family="'Segoe UI Mono', 'Cascadia Code', monospace" text-anchor="middle" font-weight="700">+2,839</text>
    <text x="119" y="118" fill="#ff6b6b" font-size="14" font-family="'Segoe UI Mono', 'Cascadia Code', monospace" text-anchor="middle" font-weight="600">-891</text>
    <rect x="222" y="60" width="190" height="68" rx="8" fill="#0a1628" stroke="#1d3461" stroke-width="1"/>
    <text x="317" y="78" fill="#495670" font-size="11" font-family="'Segoe UI', sans-serif" text-anchor="middle" font-weight="500">30d Avg</text>
    <text x="317" y="100" fill="#64ffda" font-size="16" font-family="'Segoe UI Mono', 'Cascadia Code', monospace" text-anchor="middle" font-weight="700">+235,425</text>
    <text x="317" y="118" fill="#ff6b6b" font-size="14" font-family="'Segoe UI Mono', 'Cascadia Code', monospace" text-anchor="middle" font-weight="600">-57,332</text>
    <rect x="420" y="60" width="190" height="68" rx="8" fill="#0a1628" stroke="#1d3461" stroke-width="1"/>
    <text x="515" y="78" fill="#495670" font-size="11" font-family="'Segoe UI', sans-serif" text-anchor="middle" font-weight="500">Year Avg</text>
    <text x="515" y="100" fill="#64ffda" font-size="16" font-family="'Segoe UI Mono', 'Cascadia Code', monospace" text-anchor="middle" font-weight="700">+23,936</text>
    <text x="515" y="118" fill="#ff6b6b" font-size="14" font-family="'Segoe UI Mono', 'Cascadia Code', monospace" text-anchor="middle" font-weight="600">-6,442</text>
        <rect x="618" y="60" width="190" height="68" rx="8" fill="#0a1628" stroke="#1d3461" stroke-width="1"/>
        <text x="713" y="78" fill="#495670" font-size="11" font-family="'Segoe UI', sans-serif" text-anchor="middle" font-weight="500">Streak</text>
        <text x="713" y="104" fill="#64ffda" font-size="20" font-family="'Segoe UI Mono', 'Cascadia Code', monospace" text-anchor="middle" font-weight="700">156</text>
        <text x="713" y="120" fill="#495670" font-size="11" font-family="'Segoe UI', sans-serif" text-anchor="middle">days</text>
  </g>

  <!-- Chart -->
  <g class="cpd-chart">
    <line x1="72" y1="148" x2="808" y2="148" stroke="#152a4a" stroke-width="1" stroke-dasharray="4,4"/><line x1="72" y1="213.5" x2="808" y2="213.5" stroke="#152a4a" stroke-width="1" stroke-dasharray="4,4"/><line x1="72" y1="279" x2="808" y2="279" stroke="#152a4a" stroke-width="1" stroke-dasharray="4,4"/><line x1="72" y1="344.5" x2="808" y2="344.5" stroke="#152a4a" stroke-width="1" stroke-dasharray="4,4"/><line x1="72" y1="410" x2="808" y2="410" stroke="#152a4a" stroke-width="1" stroke-dasharray="4,4"/><line x1="72" y1="279" x2="808" y2="279" stroke="#1d3461" stroke-width="1.5"/><text x="64" y="162" fill="#495670" font-size="10" font-family="'Segoe UI', sans-serif" text-anchor="end">+43,684</text><text x="64" y="406" fill="#495670" font-size="10" font-family="'Segoe UI', sans-serif" text-anchor="end">-43,684</text><text x="64" y="283" fill="#495670" font-size="10" font-family="'Segoe UI', sans-serif" text-anchor="end">0</text><path d="M 72 279 L 72 279 L 96.53333333333333 228.85939932240638 L 121.06666666666666 158 L 145.60000000000002 158 L 170.13333333333333 173.2039419467082 L 194.66666666666669 158 L 219.20000000000002 158 L 243.73333333333335 243.82513048255655 L 268.26666666666665 260.90152000732536 L 292.8 158 L 317.33333333333337 257.17601410127276 L 341.8666666666667 278.86704514238625 L 366.40000000000003 279 L 390.93333333333334 278.85319567805146 L 415.4666666666667 279 L 440 264.73228184232215 L 464.53333333333336 238.97504807252085 L 489.0666666666667 259.5027241095138 L 513.6 266.13938741873454 L 538.1333333333334 278.9861505356652 L 562.6666666666667 207.16005860269206 L 587.2 158 L 611.7333333333333 272.8425281567622 L 636.2666666666667 202.56757622928302 L 660.8000000000001 165.35406556176173 L 685.3333333333334 247.4730793883344 L 709.8666666666667 271.95062265360315 L 734.4000000000001 240.51787839941397 L 758.9333333333334 255.1152138082593 L 783.4666666666667 158 L 808 271.1362741507188 L 808 279 Z" fill="#64ffda" opacity="0.15"/><path d="M 72 279 L 72 279 L 96.53333333333333 228.85939932240638 L 121.06666666666666 158 L 145.60000000000002 158 L 170.13333333333333 173.2039419467082 L 194.66666666666669 158 L 219.20000000000002 158 L 243.73333333333335 243.82513048255655 L 268.26666666666665 260.90152000732536 L 292.8 158 L 317.33333333333337 257.17601410127276 L 341.8666666666667 278.86704514238625 L 366.40000000000003 279 L 390.93333333333334 278.85319567805146 L 415.4666666666667 279 L 440 264.73228184232215 L 464.53333333333336 238.97504807252085 L 489.0666666666667 259.5027241095138 L 513.6 266.13938741873454 L 538.1333333333334 278.9861505356652 L 562.6666666666667 207.16005860269206 L 587.2 158 L 611.7333333333333 272.8425281567622 L 636.2666666666667 202.56757622928302 L 660.8000000000001 165.35406556176173 L 685.3333333333334 247.4730793883344 L 709.8666666666667 271.95062265360315 L 734.4000000000001 240.51787839941397 L 758.9333333333334 255.1152138082593 L 783.4666666666667 158 L 808 271.1362741507188" fill="none" stroke="#64ffda" stroke-width="2"/><path d="M 72 279 L 72 279 L 96.53333333333333 279.11079571467815 L 121.06666666666666 400 L 145.60000000000002 298.5471339620914 L 170.13333333333333 328.88023074809996 L 194.66666666666669 290.6307801483381 L 219.20000000000002 313.25526508561484 L 243.73333333333335 284.74752769892865 L 268.26666666666665 284.6311921985166 L 292.8 281.59261972346854 L 317.33333333333337 279.81434850288434 L 341.8666666666667 292.4727589048622 L 366.40000000000003 279 L 390.93333333333334 279.12464517901293 L 415.4666666666667 279 L 440 279.3157677868327 L 464.53333333333336 281.2851616152367 L 489.0666666666667 284.52593626957236 L 513.6 279.1717333577511 L 538.1333333333334 279 L 562.6666666666667 280.5289808625584 L 587.2 292.6694212984159 L 611.7333333333333 279.2299011079571 L 636.2666666666667 282.44020694075635 L 660.8000000000001 281.4513551872539 L 685.3333333333334 293.6361139089827 L 709.8666666666667 280.4985120410219 L 734.4000000000001 291.90216097426975 L 758.9333333333334 283.4401382657266 L 783.4666666666667 301.5995559014742 L 808 281.4679745444556 L 808 279 Z" fill="#ff6b6b" opacity="0.15"/><path d="M 72 279 L 72 279 L 96.53333333333333 279.11079571467815 L 121.06666666666666 400 L 145.60000000000002 298.5471339620914 L 170.13333333333333 328.88023074809996 L 194.66666666666669 290.6307801483381 L 219.20000000000002 313.25526508561484 L 243.73333333333335 284.74752769892865 L 268.26666666666665 284.6311921985166 L 292.8 281.59261972346854 L 317.33333333333337 279.81434850288434 L 341.8666666666667 292.4727589048622 L 366.40000000000003 279 L 390.93333333333334 279.12464517901293 L 415.4666666666667 279 L 440 279.3157677868327 L 464.53333333333336 281.2851616152367 L 489.0666666666667 284.52593626957236 L 513.6 279.1717333577511 L 538.1333333333334 279 L 562.6666666666667 280.5289808625584 L 587.2 292.6694212984159 L 611.7333333333333 279.2299011079571 L 636.2666666666667 282.44020694075635 L 660.8000000000001 281.4513551872539 L 685.3333333333334 293.6361139089827 L 709.8666666666667 280.4985120410219 L 734.4000000000001 291.90216097426975 L 758.9333333333334 283.4401382657266 L 783.4666666666667 301.5995559014742 L 808 281.4679745444556" fill="none" stroke="#ff6b6b" stroke-width="2"/><text x="72" y="426" fill="#495670" font-size="10" font-family="'Segoe UI', sans-serif" text-anchor="middle">Apr 3</text><text x="194.66666666666669" y="426" fill="#495670" font-size="10" font-family="'Segoe UI', sans-serif" text-anchor="middle">Apr 8</text><text x="317.33333333333337" y="426" fill="#495670" font-size="10" font-family="'Segoe UI', sans-serif" text-anchor="middle">Apr 13</text><text x="440" y="426" fill="#495670" font-size="10" font-family="'Segoe UI', sans-serif" text-anchor="middle">Apr 18</text><text x="562.6666666666667" y="426" fill="#495670" font-size="10" font-family="'Segoe UI', sans-serif" text-anchor="middle">Apr 23</text><text x="685.3333333333334" y="426" fill="#495670" font-size="10" font-family="'Segoe UI', sans-serif" text-anchor="middle">Apr 28</text><text x="808" y="426" fill="#495670" font-size="10" font-family="'Segoe UI', sans-serif" text-anchor="middle">May 3</text>
  </g>

  <!-- Legend -->
  <g class="cpd-legend">
    <circle cx="30" cy="442" r="5" fill="#64ffda"/>
    <text x="40" y="446" fill="#8892b0" font-size="11" font-family="'Segoe UI', sans-serif">Additions</text>
    <circle cx="124" cy="442" r="5" fill="#ff6b6b"/>
    <text x="134" y="446" fill="#8892b0" font-size="11" font-family="'Segoe UI', sans-serif">Deletions</text>
    <text x="816" y="446" fill="#495670" font-size="10" font-family="'Segoe UI', sans-serif" text-anchor="end">Last 31 days · +7,298,176 / -1,777,280 lines</text>
  </g>

  <!-- Get your own -->
  <a href="https://github.com/mpge/code-per-day" target="_blank">
    <text x="420" y="452" fill="#495670" font-size="10" font-family="'Segoe UI', sans-serif" text-anchor="middle" opacity="0.6">Get your own — github.com/mpge/code-per-day</text>
  </a>
</svg>