<svg width="840" height="460" viewBox="0 0 840 460" xmlns="http://www.w3.org/2000/svg">
  
    <style>
      @keyframes fadeInUp {
        from { opacity: 0; transform: translateY(12px); }
        to   { opacity: 1; transform: translateY(0); }
      }
      @keyframes growBar {
        from { transform: scaleY(0); }
        to   { transform: scaleY(1); }
      }
      .cpd-header  { animation: fadeInUp 0.5s ease both; }
      .cpd-stats   { animation: fadeInUp 0.5s ease 0.15s both; }
      .cpd-chart   { animation: fadeInUp 0.5s ease 0.3s both; }
      .cpd-legend  { animation: fadeInUp 0.5s ease 0.45s both; }
    </style>

  <rect width="840" height="460" rx="12" fill="#1a1b26" stroke="#414868" stroke-width="1"/>

  <g class="cpd-header">
    <a href="https://github.com/mpge/code-per-day" target="_blank">
      <text x="24" y="44" fill="#c0caf5" font-size="18" font-family="'Segoe UI', sans-serif" font-weight="700">Code Per Day</text>
    </a>
    <text x="816" y="44" fill="#565f89" font-size="13" font-family="'Segoe UI', sans-serif" text-anchor="end" font-weight="500">@mpge</text>
  </g>

  <g class="cpd-stats">
    
    <rect x="24" y="60" width="190" height="68" rx="8" fill="#16161e" stroke="#414868" stroke-width="1"/>
    <text x="119" y="78" fill="#565f89" font-size="11" font-family="'Segoe UI', sans-serif" text-anchor="middle" font-weight="500">Today</text>
    <text x="119" y="100" fill="#9ece6a" font-size="16" font-family="'Segoe UI Mono', 'Cascadia Code', monospace" text-anchor="middle" font-weight="700">+3,470</text>
    <text x="119" y="118" fill="#f7768e" font-size="14" font-family="'Segoe UI Mono', 'Cascadia Code', monospace" text-anchor="middle" font-weight="600">-231</text>
    <rect x="222" y="60" width="190" height="68" rx="8" fill="#16161e" stroke="#414868" stroke-width="1"/>
    <text x="317" y="78" fill="#565f89" font-size="11" font-family="'Segoe UI', sans-serif" text-anchor="middle" font-weight="500">30d Avg</text>
    <text x="317" y="100" fill="#9ece6a" font-size="16" font-family="'Segoe UI Mono', 'Cascadia Code', monospace" text-anchor="middle" font-weight="700">+171,984</text>
    <text x="317" y="118" fill="#f7768e" font-size="14" font-family="'Segoe UI Mono', 'Cascadia Code', monospace" text-anchor="middle" font-weight="600">-2,885</text>
    <rect x="420" y="60" width="190" height="68" rx="8" fill="#16161e" stroke="#414868" stroke-width="1"/>
    <text x="515" y="78" fill="#565f89" font-size="11" font-family="'Segoe UI', sans-serif" text-anchor="middle" font-weight="500">Year Avg</text>
    <text x="515" y="100" fill="#9ece6a" font-size="16" font-family="'Segoe UI Mono', 'Cascadia Code', monospace" text-anchor="middle" font-weight="700">+24,241</text>
    <text x="515" y="118" fill="#f7768e" font-size="14" font-family="'Segoe UI Mono', 'Cascadia Code', monospace" text-anchor="middle" font-weight="600">-6,571</text>
    <rect x="618" y="60" width="190" height="68" rx="8" fill="#16161e" stroke="#414868" stroke-width="1"/>
    <text x="713" y="78" fill="#565f89" font-size="11" font-family="'Segoe UI', sans-serif" text-anchor="middle" font-weight="500">Streak</text>
    <text x="713" y="104" fill="#7aa2f7" font-size="20" font-family="'Segoe UI Mono', 'Cascadia Code', monospace" text-anchor="middle" font-weight="700">164</text>
    <text x="713" y="120" fill="#565f89" font-size="11" font-family="'Segoe UI', sans-serif" text-anchor="middle">days</text>
  </g>

  <g class="cpd-chart">
    <line x1="72" y1="148" x2="808" y2="148" stroke="#292e42" stroke-width="1" stroke-dasharray="4,4"/><line x1="72" y1="213.5" x2="808" y2="213.5" stroke="#292e42" stroke-width="1" stroke-dasharray="4,4"/><line x1="72" y1="279" x2="808" y2="279" stroke="#292e42" stroke-width="1" stroke-dasharray="4,4"/><line x1="72" y1="344.5" x2="808" y2="344.5" stroke="#292e42" stroke-width="1" stroke-dasharray="4,4"/><line x1="72" y1="410" x2="808" y2="410" stroke="#292e42" stroke-width="1" stroke-dasharray="4,4"/><line x1="72" y1="279" x2="808" y2="279" stroke="#414868" stroke-width="1.5"/><text x="64" y="162" fill="#565f89" font-size="10" font-family="'Segoe UI', sans-serif" text-anchor="end">+20,230</text><text x="64" y="406" fill="#565f89" font-size="10" font-family="'Segoe UI', sans-serif" text-anchor="end">-20,230</text><text x="64" y="283" fill="#565f89" font-size="10" font-family="'Segoe UI', sans-serif" text-anchor="end">0</text><path d="M 72 279 L 72 203.04453781512603 L 96.53333333333333 239.9187345526446 L 121.06666666666666 158 L 145.60000000000002 231.87399901136925 L 170.13333333333333 278.71290163124075 L 194.66666666666669 279 L 219.20000000000002 278.68299555116164 L 243.73333333333335 279 L 268.26666666666665 248.190756302521 L 292.8 192.57142857142856 L 317.33333333333337 236.89822046465645 L 341.8666666666667 251.2292140385566 L 366.40000000000003 278.9700939199209 L 390.93333333333334 158 L 415.4666666666667 158 L 440 265.7037567968364 L 464.53333333333336 158 L 489.0666666666667 158 L 513.6 210.92179930795848 L 538.1333333333334 263.777805239743 L 562.6666666666667 195.90296589223925 L 587.2 227.4239742956006 L 611.7333333333333 158 L 636.2666666666667 242.45477014335145 L 660.8000000000001 258.84928324270885 L 685.3333333333334 158 L 709.8666666666667 230.58205635195253 L 734.4000000000001 168.70637666831436 L 758.9333333333334 158 L 783.4666666666667 271.206475531389 L 808 258.24518042511124 L 808 279 Z" fill="#9ece6a" opacity="0.15"/><path d="M 72 279 L 72 203.04453781512603 L 96.53333333333333 239.9187345526446 L 121.06666666666666 158 L 145.60000000000002 231.87399901136925 L 170.13333333333333 278.71290163124075 L 194.66666666666669 279 L 219.20000000000002 278.68299555116164 L 243.73333333333335 279 L 268.26666666666665 248.190756302521 L 292.8 192.57142857142856 L 317.33333333333337 236.89822046465645 L 341.8666666666667 251.2292140385566 L 366.40000000000003 278.9700939199209 L 390.93333333333334 158 L 415.4666666666667 158 L 440 265.7037567968364 L 464.53333333333336 158 L 489.0666666666667 158 L 513.6 210.92179930795848 L 538.1333333333334 263.777805239743 L 562.6666666666667 195.90296589223925 L 587.2 227.4239742956006 L 611.7333333333333 158 L 636.2666666666667 242.45477014335145 L 660.8000000000001 258.84928324270885 L 685.3333333333334 158 L 709.8666666666667 230.58205635195253 L 734.4000000000001 168.70637666831436 L 758.9333333333334 158 L 783.4666666666667 271.206475531389 L 808 258.24518042511124" fill="none" stroke="#9ece6a" stroke-width="2"/><path d="M 72 279 L 72 291.4110232328225 L 96.53333333333333 291.1598121601582 L 121.06666666666666 284.5984181908057 L 145.60000000000002 280.7584775086505 L 170.13333333333333 308.0926347009392 L 194.66666666666669 279 L 219.20000000000002 279.2691547207118 L 243.73333333333335 279 L 268.26666666666665 279.6818586258033 L 292.8 283.93450321304994 L 317.33333333333337 290.93252595155707 L 341.8666666666667 279.3708353929807 L 366.40000000000003 279 L 390.93333333333334 282.3016312407316 L 415.4666666666667 308.51730103806227 L 440 279.4964409293129 L 464.53333333333336 286.4286702916461 L 489.0666666666667 284.29337617399904 L 513.6 310.60474542758277 L 538.1333333333334 282.2358378645576 L 562.6666666666667 306.86050420168067 L 587.2 288.5878892733564 L 611.7333333333333 327.8007414730598 L 636.2666666666667 296.0464656450816 L 660.8000000000001 286.62605042016804 L 685.3333333333334 290.05328719723184 L 709.8666666666667 283.6593672763223 L 734.4000000000001 306.7767671774592 L 758.9333333333334 400 L 783.4666666666667 282.08630746416213 L 808 280.381660899654 L 808 279 Z" fill="#f7768e" opacity="0.15"/><path d="M 72 279 L 72 291.4110232328225 L 96.53333333333333 291.1598121601582 L 121.06666666666666 284.5984181908057 L 145.60000000000002 280.7584775086505 L 170.13333333333333 308.0926347009392 L 194.66666666666669 279 L 219.20000000000002 279.2691547207118 L 243.73333333333335 279 L 268.26666666666665 279.6818586258033 L 292.8 283.93450321304994 L 317.33333333333337 290.93252595155707 L 341.8666666666667 279.3708353929807 L 366.40000000000003 279 L 390.93333333333334 282.3016312407316 L 415.4666666666667 308.51730103806227 L 440 279.4964409293129 L 464.53333333333336 286.4286702916461 L 489.0666666666667 284.29337617399904 L 513.6 310.60474542758277 L 538.1333333333334 282.2358378645576 L 562.6666666666667 306.86050420168067 L 587.2 288.5878892733564 L 611.7333333333333 327.8007414730598 L 636.2666666666667 296.0464656450816 L 660.8000000000001 286.62605042016804 L 685.3333333333334 290.05328719723184 L 709.8666666666667 283.6593672763223 L 734.4000000000001 306.7767671774592 L 758.9333333333334 400 L 783.4666666666667 282.08630746416213 L 808 280.381660899654" fill="none" stroke="#f7768e" stroke-width="2"/><text x="72" y="426" fill="#565f89" font-size="10" font-family="'Segoe UI', sans-serif" text-anchor="middle">Apr 10</text><text x="194.66666666666669" y="426" fill="#565f89" font-size="10" font-family="'Segoe UI', sans-serif" text-anchor="middle">Apr 15</text><text x="317.33333333333337" y="426" fill="#565f89" font-size="10" font-family="'Segoe UI', sans-serif" text-anchor="middle">Apr 20</text><text x="440" y="426" fill="#565f89" font-size="10" font-family="'Segoe UI', sans-serif" text-anchor="middle">Apr 25</text><text x="562.6666666666667" y="426" fill="#565f89" font-size="10" font-family="'Segoe UI', sans-serif" text-anchor="middle">Apr 30</text><text x="685.3333333333334" y="426" fill="#565f89" font-size="10" font-family="'Segoe UI', sans-serif" text-anchor="middle">May 5</text><text x="808" y="426" fill="#565f89" font-size="10" font-family="'Segoe UI', sans-serif" text-anchor="middle">May 10</text>
  </g>

  <g class="cpd-legend">
    
    <circle cx="30" cy="442" r="5" fill="#9ece6a"/>
    <text x="40" y="446" fill="#a9b1d6" font-size="11" font-family="'Segoe UI', sans-serif">Additions</text>
    <circle cx="124" cy="442" r="5" fill="#f7768e"/>
    <text x="134" y="446" fill="#a9b1d6" font-size="11" font-family="'Segoe UI', sans-serif">Deletions</text>
    <text x="816" y="446" fill="#565f89" font-size="10" font-family="'Segoe UI', sans-serif" text-anchor="end">Last 31 days · +5,331,499 / -89,423 lines</text>
  </g>

  <a href="https://github.com/mpge/code-per-day" target="_blank">
    <text x="420" y="452" fill="#565f89" font-size="10" font-family="'Segoe UI', sans-serif" text-anchor="middle" opacity="0.6">Get your own - github.com/mpge/code-per-day</text>
  </a>
</svg>