<svg width="840" height="460" viewBox="0 0 840 460" xmlns="http://www.w3.org/2000/svg">
  
    <style>
      @keyframes fadeInUp {
        from { opacity: 0; transform: translateY(12px); }
        to   { opacity: 1; transform: translateY(0); }
      }
      @keyframes growBar {
        from { transform: scaleY(0); }
        to   { transform: scaleY(1); }
      }
      .cpd-header  { animation: fadeInUp 0.5s ease both; }
      .cpd-stats   { animation: fadeInUp 0.5s ease 0.15s both; }
      .cpd-chart   { animation: fadeInUp 0.5s ease 0.3s both; }
      .cpd-legend  { animation: fadeInUp 0.5s ease 0.45s both; }
    </style>

  <rect width="840" height="460" rx="12" fill="#0b1a0b" stroke="#1e3a1e" stroke-width="1"/>

  <g class="cpd-header">
    <a href="https://github.com/mpge/code-per-day" target="_blank">
      <text x="24" y="44" fill="#c8e6c8" font-size="18" font-family="'Segoe UI', sans-serif" font-weight="700">Code Per Day</text>
    </a>
    <text x="816" y="44" fill="#5a7a5a" font-size="13" font-family="'Segoe UI', sans-serif" text-anchor="end" font-weight="500">@mpge</text>
  </g>

  <g class="cpd-stats">
    
    <rect x="24" y="60" width="190" height="68" rx="8" fill="#091409" stroke="#1e3a1e" stroke-width="1"/>
    <text x="119" y="78" fill="#5a7a5a" font-size="11" font-family="'Segoe UI', sans-serif" text-anchor="middle" font-weight="500">Today</text>
    <text x="119" y="100" fill="#66ff66" font-size="16" font-family="'Segoe UI Mono', 'Cascadia Code', monospace" text-anchor="middle" font-weight="700">+10,280</text>
    <text x="119" y="118" fill="#ff8a65" font-size="14" font-family="'Segoe UI Mono', 'Cascadia Code', monospace" text-anchor="middle" font-weight="600">-7,689</text>
    <rect x="222" y="60" width="190" height="68" rx="8" fill="#091409" stroke="#1e3a1e" stroke-width="1"/>
    <text x="317" y="78" fill="#5a7a5a" font-size="11" font-family="'Segoe UI', sans-serif" text-anchor="middle" font-weight="500">30d Avg</text>
    <text x="317" y="100" fill="#66ff66" font-size="16" font-family="'Segoe UI Mono', 'Cascadia Code', monospace" text-anchor="middle" font-weight="700">+40,031</text>
    <text x="317" y="118" fill="#ff8a65" font-size="14" font-family="'Segoe UI Mono', 'Cascadia Code', monospace" text-anchor="middle" font-weight="600">-4,865</text>
    <rect x="420" y="60" width="190" height="68" rx="8" fill="#091409" stroke="#1e3a1e" stroke-width="1"/>
    <text x="515" y="78" fill="#5a7a5a" font-size="11" font-family="'Segoe UI', sans-serif" text-anchor="middle" font-weight="500">Year Avg</text>
    <text x="515" y="100" fill="#66ff66" font-size="16" font-family="'Segoe UI Mono', 'Cascadia Code', monospace" text-anchor="middle" font-weight="700">+24,969</text>
    <text x="515" y="118" fill="#ff8a65" font-size="14" font-family="'Segoe UI Mono', 'Cascadia Code', monospace" text-anchor="middle" font-weight="600">-6,753</text>
    <rect x="618" y="60" width="190" height="68" rx="8" fill="#091409" stroke="#1e3a1e" stroke-width="1"/>
    <text x="713" y="78" fill="#5a7a5a" font-size="11" font-family="'Segoe UI', sans-serif" text-anchor="middle" font-weight="500">Streak</text>
    <text x="713" y="104" fill="#66ff66" font-size="20" font-family="'Segoe UI Mono', 'Cascadia Code', monospace" text-anchor="middle" font-weight="700">174</text>
    <text x="713" y="120" fill="#5a7a5a" font-size="11" font-family="'Segoe UI', sans-serif" text-anchor="middle">days</text>
  </g>

  <g class="cpd-chart">
    <line x1="72" y1="148" x2="808" y2="148" stroke="#1a2e1a" stroke-width="1" stroke-dasharray="4,4"/><line x1="72" y1="213.5" x2="808" y2="213.5" stroke="#1a2e1a" stroke-width="1" stroke-dasharray="4,4"/><line x1="72" y1="279" x2="808" y2="279" stroke="#1a2e1a" stroke-width="1" stroke-dasharray="4,4"/><line x1="72" y1="344.5" x2="808" y2="344.5" stroke="#1a2e1a" stroke-width="1" stroke-dasharray="4,4"/><line x1="72" y1="410" x2="808" y2="410" stroke="#1a2e1a" stroke-width="1" stroke-dasharray="4,4"/><line x1="72" y1="279" x2="808" y2="279" stroke="#1e3a1e" stroke-width="1.5"/><text x="64" y="162" fill="#5a7a5a" font-size="10" font-family="'Segoe UI', sans-serif" text-anchor="end">+27,980</text><text x="64" y="406" fill="#5a7a5a" font-size="10" font-family="'Segoe UI', sans-serif" text-anchor="end">-27,980</text><text x="64" y="283" fill="#5a7a5a" font-size="10" font-family="'Segoe UI', sans-serif" text-anchor="end">0</text><path d="M 72 279 L 72 248.55972122944962 L 96.53333333333333 258.92126518942104 L 121.06666666666666 278.97837741243745 L 145.60000000000002 166.83931379556827 L 170.13333333333333 158 L 194.66666666666669 269.38659756969264 L 219.20000000000002 159.66926375982845 L 243.73333333333335 158 L 268.26666666666665 229.7783416726233 L 292.8 267.9941029306648 L 317.33333333333337 218.91947819871336 L 341.8666666666667 241.70968548963546 L 366.40000000000003 158 L 390.93333333333334 252.5771979985704 L 415.4666666666667 264.4307005003574 L 440 181.8064689063617 L 464.53333333333336 243.99303073624017 L 489.0666666666667 199.25589706933525 L 513.6 158 L 538.1333333333334 273.36515368120087 L 562.6666666666667 227.29174410293066 L 587.2 213.79492494639027 L 611.7333333333333 264.21447462473196 L 636.2666666666667 241.32047891350965 L 660.8000000000001 261.4424588992137 L 685.3333333333334 258.16015010721947 L 709.8666666666667 276.9588277340958 L 734.4000000000001 158 L 758.9333333333334 158 L 783.4666666666667 158 L 808 234.54395997140816 L 808 279 Z" fill="#66ff66" opacity="0.15"/><path d="M 72 279 L 72 248.55972122944962 L 96.53333333333333 258.92126518942104 L 121.06666666666666 278.97837741243745 L 145.60000000000002 166.83931379556827 L 170.13333333333333 158 L 194.66666666666669 269.38659756969264 L 219.20000000000002 159.66926375982845 L 243.73333333333335 158 L 268.26666666666665 229.7783416726233 L 292.8 267.9941029306648 L 317.33333333333337 218.91947819871336 L 341.8666666666667 241.70968548963546 L 366.40000000000003 158 L 390.93333333333334 252.5771979985704 L 415.4666666666667 264.4307005003574 L 440 181.8064689063617 L 464.53333333333336 243.99303073624017 L 489.0666666666667 199.25589706933525 L 513.6 158 L 538.1333333333334 273.36515368120087 L 562.6666666666667 227.29174410293066 L 587.2 213.79492494639027 L 611.7333333333333 264.21447462473196 L 636.2666666666667 241.32047891350965 L 660.8000000000001 261.4424588992137 L 685.3333333333334 258.16015010721947 L 709.8666666666667 276.9588277340958 L 734.4000000000001 158 L 758.9333333333334 158 L 783.4666666666667 158 L 808 234.54395997140816" fill="none" stroke="#66ff66" stroke-width="2"/><path d="M 72 279 L 72 287.62741243745535 L 96.53333333333333 279.26812008577554 L 121.06666666666666 279 L 145.60000000000002 281.38713366690496 L 170.13333333333333 300.3414939242316 L 194.66666666666669 279.35893495353827 L 219.20000000000002 284.3710507505361 L 243.73333333333335 282.8271979985704 L 268.26666666666665 301.8507505360972 L 292.8 281.3395639742673 L 317.33333333333337 299.1436025732666 L 341.8666666666667 285.93220157255183 L 366.40000000000003 314.2837383845604 L 390.93333333333334 291.32487491065046 L 415.4666666666667 284.5137598284489 L 440 286.9917083631165 L 464.53333333333336 282.3687991422445 L 489.0666666666667 299.0830593280915 L 513.6 400 L 538.1333333333334 281.2314510364546 L 562.6666666666667 283.6964260185847 L 587.2 290.9616154395997 L 611.7333333333333 279.4151536812009 L 636.2666666666667 293.3746962115797 L 660.8000000000001 283.17748391708363 L 685.3333333333334 281.29199428162974 L 709.8666666666667 279.41947819871336 L 734.4000000000001 284.6391708363117 L 758.9333333333334 290.4296997855611 L 783.4666666666667 400 L 808 312.2512151536812 L 808 279 Z" fill="#ff8a65" opacity="0.15"/><path d="M 72 279 L 72 287.62741243745535 L 96.53333333333333 279.26812008577554 L 121.06666666666666 279 L 145.60000000000002 281.38713366690496 L 170.13333333333333 300.3414939242316 L 194.66666666666669 279.35893495353827 L 219.20000000000002 284.3710507505361 L 243.73333333333335 282.8271979985704 L 268.26666666666665 301.8507505360972 L 292.8 281.3395639742673 L 317.33333333333337 299.1436025732666 L 341.8666666666667 285.93220157255183 L 366.40000000000003 314.2837383845604 L 390.93333333333334 291.32487491065046 L 415.4666666666667 284.5137598284489 L 440 286.9917083631165 L 464.53333333333336 282.3687991422445 L 489.0666666666667 299.0830593280915 L 513.6 400 L 538.1333333333334 281.2314510364546 L 562.6666666666667 283.6964260185847 L 587.2 290.9616154395997 L 611.7333333333333 279.4151536812009 L 636.2666666666667 293.3746962115797 L 660.8000000000001 283.17748391708363 L 685.3333333333334 281.29199428162974 L 709.8666666666667 279.41947819871336 L 734.4000000000001 284.6391708363117 L 758.9333333333334 290.4296997855611 L 783.4666666666667 400 L 808 312.2512151536812" fill="none" stroke="#ff8a65" stroke-width="2"/><text x="72" y="426" fill="#5a7a5a" font-size="10" font-family="'Segoe UI', sans-serif" text-anchor="middle">Apr 20</text><text x="194.66666666666669" y="426" fill="#5a7a5a" font-size="10" font-family="'Segoe UI', sans-serif" text-anchor="middle">Apr 25</text><text x="317.33333333333337" y="426" fill="#5a7a5a" font-size="10" font-family="'Segoe UI', sans-serif" text-anchor="middle">Apr 30</text><text x="440" y="426" fill="#5a7a5a" font-size="10" font-family="'Segoe UI', sans-serif" text-anchor="middle">May 5</text><text x="562.6666666666667" y="426" fill="#5a7a5a" font-size="10" font-family="'Segoe UI', sans-serif" text-anchor="middle">May 10</text><text x="685.3333333333334" y="426" fill="#5a7a5a" font-size="10" font-family="'Segoe UI', sans-serif" text-anchor="middle">May 15</text><text x="808" y="426" fill="#5a7a5a" font-size="10" font-family="'Segoe UI', sans-serif" text-anchor="middle">May 20</text>
  </g>

  <g class="cpd-legend">
    
    <circle cx="30" cy="442" r="5" fill="#66ff66"/>
    <text x="40" y="446" fill="#8ab88a" font-size="11" font-family="'Segoe UI', sans-serif">Additions</text>
    <circle cx="124" cy="442" r="5" fill="#ff8a65"/>
    <text x="134" y="446" fill="#8ab88a" font-size="11" font-family="'Segoe UI', sans-serif">Deletions</text>
    <text x="816" y="446" fill="#5a7a5a" font-size="10" font-family="'Segoe UI', sans-serif" text-anchor="end">Last 31 days · +1,240,947 / -150,809 lines</text>
  </g>

  <a href="https://github.com/mpge/code-per-day" target="_blank">
    <text x="420" y="452" fill="#5a7a5a" font-size="10" font-family="'Segoe UI', sans-serif" text-anchor="middle" opacity="0.6">Get your own - github.com/mpge/code-per-day</text>
  </a>
</svg>