<svg width="840" height="460" viewBox="0 0 840 460" xmlns="http://www.w3.org/2000/svg">
  
    <style>
      @keyframes fadeInUp {
        from { opacity: 0; transform: translateY(12px); }
        to   { opacity: 1; transform: translateY(0); }
      }
      @keyframes growBar {
        from { transform: scaleY(0); }
        to   { transform: scaleY(1); }
      }
      .cpd-header  { animation: fadeInUp 0.5s ease both; }
      .cpd-stats   { animation: fadeInUp 0.5s ease 0.15s both; }
      .cpd-chart   { animation: fadeInUp 0.5s ease 0.3s both; }
      .cpd-legend  { animation: fadeInUp 0.5s ease 0.45s both; }
    </style>

  <rect width="840" height="460" rx="12" fill="transparent" />

  <g class="cpd-header">
    <a href="https://github.com/mpge/code-per-day" target="_blank">
      <text x="24" y="44" fill="#e6edf3" font-size="18" font-family="'Segoe UI', sans-serif" font-weight="700">Code Per Day</text>
    </a>
    <text x="816" y="44" fill="#6e7681" font-size="13" font-family="'Segoe UI', sans-serif" text-anchor="end" font-weight="500">@mpge</text>
  </g>

  <g class="cpd-stats">
    
    <rect x="24" y="60" width="190" height="68" rx="8" fill="rgba(13,17,23,0.6)" stroke="#30363d" stroke-width="1"/>
    <text x="119" y="78" fill="#6e7681" font-size="11" font-family="'Segoe UI', sans-serif" text-anchor="middle" font-weight="500">Today</text>
    <text x="119" y="100" fill="#3fb950" font-size="16" font-family="'Segoe UI Mono', 'Cascadia Code', monospace" text-anchor="middle" font-weight="700">+2,589</text>
    <text x="119" y="118" fill="#f85149" font-size="14" font-family="'Segoe UI Mono', 'Cascadia Code', monospace" text-anchor="middle" font-weight="600">-35</text>
    <rect x="222" y="60" width="190" height="68" rx="8" fill="rgba(13,17,23,0.6)" stroke="#30363d" stroke-width="1"/>
    <text x="317" y="78" fill="#6e7681" font-size="11" font-family="'Segoe UI', sans-serif" text-anchor="middle" font-weight="500">30d Avg</text>
    <text x="317" y="100" fill="#3fb950" font-size="16" font-family="'Segoe UI Mono', 'Cascadia Code', monospace" text-anchor="middle" font-weight="700">+32,183</text>
    <text x="317" y="118" fill="#f85149" font-size="14" font-family="'Segoe UI Mono', 'Cascadia Code', monospace" text-anchor="middle" font-weight="600">-2,843</text>
    <rect x="420" y="60" width="190" height="68" rx="8" fill="rgba(13,17,23,0.6)" stroke="#30363d" stroke-width="1"/>
    <text x="515" y="78" fill="#6e7681" font-size="11" font-family="'Segoe UI', sans-serif" text-anchor="middle" font-weight="500">Year Avg</text>
    <text x="515" y="100" fill="#3fb950" font-size="16" font-family="'Segoe UI Mono', 'Cascadia Code', monospace" text-anchor="middle" font-weight="700">+24,322</text>
    <text x="515" y="118" fill="#f85149" font-size="14" font-family="'Segoe UI Mono', 'Cascadia Code', monospace" text-anchor="middle" font-weight="600">-6,582</text>
    <rect x="618" y="60" width="190" height="68" rx="8" fill="rgba(13,17,23,0.6)" stroke="#30363d" stroke-width="1"/>
    <text x="713" y="78" fill="#6e7681" font-size="11" font-family="'Segoe UI', sans-serif" text-anchor="middle" font-weight="500">Streak</text>
    <text x="713" y="104" fill="#58a6ff" font-size="20" font-family="'Segoe UI Mono', 'Cascadia Code', monospace" text-anchor="middle" font-weight="700">166</text>
    <text x="713" y="120" fill="#6e7681" font-size="11" font-family="'Segoe UI', sans-serif" text-anchor="middle">days</text>
  </g>

  <g class="cpd-chart">
    <line x1="72" y1="148" x2="808" y2="148" stroke="rgba(33,38,45,0.6)" stroke-width="1" stroke-dasharray="4,4"/><line x1="72" y1="213.5" x2="808" y2="213.5" stroke="rgba(33,38,45,0.6)" stroke-width="1" stroke-dasharray="4,4"/><line x1="72" y1="279" x2="808" y2="279" stroke="rgba(33,38,45,0.6)" stroke-width="1" stroke-dasharray="4,4"/><line x1="72" y1="344.5" x2="808" y2="344.5" stroke="rgba(33,38,45,0.6)" stroke-width="1" stroke-dasharray="4,4"/><line x1="72" y1="410" x2="808" y2="410" stroke="rgba(33,38,45,0.6)" stroke-width="1" stroke-dasharray="4,4"/><line x1="72" y1="279" x2="808" y2="279" stroke="#30363d" stroke-width="1.5"/><text x="64" y="162" fill="#6e7681" font-size="10" font-family="'Segoe UI', sans-serif" text-anchor="end">+20,320</text><text x="64" y="406" fill="#6e7681" font-size="10" font-family="'Segoe UI', sans-serif" text-anchor="end">-20,320</text><text x="64" y="283" fill="#6e7681" font-size="10" font-family="'Segoe UI', sans-serif" text-anchor="end">0</text><path d="M 72 279 L 72 232.08272637795275 L 96.53333333333333 278.71417322834645 L 121.06666666666666 279 L 145.60000000000002 278.6843996062992 L 170.13333333333333 279 L 194.66666666666669 248.32721456692914 L 219.20000000000002 192.9542322834646 L 243.73333333333335 237.08469488188976 L 268.26666666666665 251.35221456692915 L 292.8 278.97022637795277 L 317.33333333333337 158 L 341.8666666666667 158 L 366.40000000000003 265.7626476377953 L 390.93333333333334 158 L 415.4666666666667 158 L 440 211.22332677165355 L 464.53333333333336 263.84522637795277 L 489.0666666666667 196.27101377952755 L 513.6 227.65241141732284 L 538.1333333333334 158 L 562.6666666666667 242.6166338582677 L 587.2 258.93853346456694 L 611.7333333333333 158 L 636.2666666666667 230.79650590551182 L 660.8000000000001 169.1948818897638 L 685.3333333333334 158 L 709.8666666666667 271.2409940944882 L 734.4000000000001 207.79936023622048 L 758.9333333333334 189.2146653543307 L 783.4666666666667 258.6407972440945 L 808 263.583218503937 L 808 279 Z" fill="#3fb950" opacity="0.15"/><path d="M 72 279 L 72 232.08272637795275 L 96.53333333333333 278.71417322834645 L 121.06666666666666 279 L 145.60000000000002 278.6843996062992 L 170.13333333333333 279 L 194.66666666666669 248.32721456692914 L 219.20000000000002 192.9542322834646 L 243.73333333333335 237.08469488188976 L 268.26666666666665 251.35221456692915 L 292.8 278.97022637795277 L 317.33333333333337 158 L 341.8666666666667 158 L 366.40000000000003 265.7626476377953 L 390.93333333333334 158 L 415.4666666666667 158 L 440 211.22332677165355 L 464.53333333333336 263.84522637795277 L 489.0666666666667 196.27101377952755 L 513.6 227.65241141732284 L 538.1333333333334 158 L 562.6666666666667 242.6166338582677 L 587.2 258.93853346456694 L 611.7333333333333 158 L 636.2666666666667 230.79650590551182 L 660.8000000000001 169.1948818897638 L 685.3333333333334 158 L 709.8666666666667 271.2409940944882 L 734.4000000000001 207.79936023622048 L 758.9333333333334 189.2146653543307 L 783.4666666666667 258.6407972440945 L 808 263.583218503937" fill="none" stroke="#3fb950" stroke-width="2"/><path d="M 72 279 L 72 280.75068897637794 L 96.53333333333333 307.96377952755904 L 121.06666666666666 279 L 145.60000000000002 279.2679625984252 L 170.13333333333333 279 L 194.66666666666669 279.67883858267714 L 219.20000000000002 283.91264763779526 L 243.73333333333335 290.87967519685037 L 268.26666666666665 279.3691929133858 L 292.8 279 L 317.33333333333337 282.2870078740157 L 341.8666666666667 308.3865649606299 L 366.40000000000003 279.4942421259843 L 390.93333333333334 286.39576771653543 L 415.4666666666667 284.2699311023622 L 440 310.4647637795276 L 464.53333333333336 282.22150590551183 L 489.0666666666667 306.7371062992126 L 513.6 288.54542322834646 L 538.1333333333334 327.5845964566929 L 562.6666666666667 295.9709645669291 L 587.2 286.59227362204723 L 611.7333333333333 290.0043307086614 L 636.2666666666667 283.63873031496064 L 660.8000000000001 306.65374015748034 L 685.3333333333334 400 L 709.8666666666667 282.07263779527557 L 734.4000000000001 285.4668307086614 L 758.9333333333334 295.4707677165354 L 783.4666666666667 279.5716535433071 L 808 279.2084153543307 L 808 279 Z" fill="#f85149" opacity="0.15"/><path d="M 72 279 L 72 280.75068897637794 L 96.53333333333333 307.96377952755904 L 121.06666666666666 279 L 145.60000000000002 279.2679625984252 L 170.13333333333333 279 L 194.66666666666669 279.67883858267714 L 219.20000000000002 283.91264763779526 L 243.73333333333335 290.87967519685037 L 268.26666666666665 279.3691929133858 L 292.8 279 L 317.33333333333337 282.2870078740157 L 341.8666666666667 308.3865649606299 L 366.40000000000003 279.4942421259843 L 390.93333333333334 286.39576771653543 L 415.4666666666667 284.2699311023622 L 440 310.4647637795276 L 464.53333333333336 282.22150590551183 L 489.0666666666667 306.7371062992126 L 513.6 288.54542322834646 L 538.1333333333334 327.5845964566929 L 562.6666666666667 295.9709645669291 L 587.2 286.59227362204723 L 611.7333333333333 290.0043307086614 L 636.2666666666667 283.63873031496064 L 660.8000000000001 306.65374015748034 L 685.3333333333334 400 L 709.8666666666667 282.07263779527557 L 734.4000000000001 285.4668307086614 L 758.9333333333334 295.4707677165354 L 783.4666666666667 279.5716535433071 L 808 279.2084153543307" fill="none" stroke="#f85149" stroke-width="2"/><text x="72" y="426" fill="#6e7681" font-size="10" font-family="'Segoe UI', sans-serif" text-anchor="middle">Apr 13</text><text x="194.66666666666669" y="426" fill="#6e7681" font-size="10" font-family="'Segoe UI', sans-serif" text-anchor="middle">Apr 18</text><text x="317.33333333333337" y="426" fill="#6e7681" font-size="10" font-family="'Segoe UI', sans-serif" text-anchor="middle">Apr 23</text><text x="440" y="426" fill="#6e7681" font-size="10" font-family="'Segoe UI', sans-serif" text-anchor="middle">Apr 28</text><text x="562.6666666666667" y="426" fill="#6e7681" font-size="10" font-family="'Segoe UI', sans-serif" text-anchor="middle">May 3</text><text x="685.3333333333334" y="426" fill="#6e7681" font-size="10" font-family="'Segoe UI', sans-serif" text-anchor="middle">May 8</text><text x="808" y="426" fill="#6e7681" font-size="10" font-family="'Segoe UI', sans-serif" text-anchor="middle">May 13</text>
  </g>

  <g class="cpd-legend">
    
    <circle cx="30" cy="442" r="5" fill="#3fb950"/>
    <text x="40" y="446" fill="#8b949e" font-size="11" font-family="'Segoe UI', sans-serif">Additions</text>
    <circle cx="124" cy="442" r="5" fill="#f85149"/>
    <text x="134" y="446" fill="#8b949e" font-size="11" font-family="'Segoe UI', sans-serif">Deletions</text>
    <text x="816" y="446" fill="#6e7681" font-size="10" font-family="'Segoe UI', sans-serif" text-anchor="end">Last 31 days · +997,681 / -88,131 lines</text>
  </g>

  <a href="https://github.com/mpge/code-per-day" target="_blank">
    <text x="420" y="452" fill="#6e7681" font-size="10" font-family="'Segoe UI', sans-serif" text-anchor="middle" opacity="0.6">Get your own - github.com/mpge/code-per-day</text>
  </a>
</svg>