<svg width="840" height="460" viewBox="0 0 840 460" xmlns="http://www.w3.org/2000/svg">
  
    <style>
      @keyframes fadeInUp {
        from { opacity: 0; transform: translateY(12px); }
        to   { opacity: 1; transform: translateY(0); }
      }
      @keyframes growBar {
        from { transform: scaleY(0); }
        to   { transform: scaleY(1); }
      }
      .cpd-header  { animation: fadeInUp 0.5s ease both; }
      .cpd-stats   { animation: fadeInUp 0.5s ease 0.15s both; }
      .cpd-chart   { animation: fadeInUp 0.5s ease 0.3s both; }
      .cpd-legend  { animation: fadeInUp 0.5s ease 0.45s both; }
    </style>

  <!-- Background -->
  <rect width="840" height="460" rx="12" fill="#020024" stroke="#1a1a5e" stroke-width="1"/>

  <!-- Header -->
  <g class="cpd-header">
    <a href="https://github.com/mpge/code-per-day" target="_blank">
      <text x="24" y="44" fill="#e0e0ff" font-size="18" font-family="'Segoe UI', sans-serif" font-weight="700">Code Per Day</text>
    </a>
    <text x="816" y="44" fill="#6060a0" font-size="13" font-family="'Segoe UI', sans-serif" text-anchor="end" font-weight="500">@mpge</text>
  </g>

  <!-- Stats Cards -->
  <g class="cpd-stats">
    
    <rect x="24" y="60" width="190" height="68" rx="8" fill="#010018" stroke="#1a1a5e" stroke-width="1"/>
    <text x="119" y="78" fill="#6060a0" font-size="11" font-family="'Segoe UI', sans-serif" text-anchor="middle" font-weight="500">Today</text>
    <text x="119" y="100" fill="#00d4aa" font-size="16" font-family="'Segoe UI Mono', 'Cascadia Code', monospace" text-anchor="middle" font-weight="700">+0</text>
    <text x="119" y="118" fill="#ff4477" font-size="14" font-family="'Segoe UI Mono', 'Cascadia Code', monospace" text-anchor="middle" font-weight="600">+0</text>
    <rect x="222" y="60" width="190" height="68" rx="8" fill="#010018" stroke="#1a1a5e" stroke-width="1"/>
    <text x="317" y="78" fill="#6060a0" font-size="11" font-family="'Segoe UI', sans-serif" text-anchor="middle" font-weight="500">30d Avg</text>
    <text x="317" y="100" fill="#00d4aa" font-size="16" font-family="'Segoe UI Mono', 'Cascadia Code', monospace" text-anchor="middle" font-weight="700">+78,973</text>
    <text x="317" y="118" fill="#ff4477" font-size="14" font-family="'Segoe UI Mono', 'Cascadia Code', monospace" text-anchor="middle" font-weight="600">-71,586</text>
    <rect x="420" y="60" width="190" height="68" rx="8" fill="#010018" stroke="#1a1a5e" stroke-width="1"/>
    <text x="515" y="78" fill="#6060a0" font-size="11" font-family="'Segoe UI', sans-serif" text-anchor="middle" font-weight="500">Year Avg</text>
    <text x="515" y="100" fill="#00d4aa" font-size="16" font-family="'Segoe UI Mono', 'Cascadia Code', monospace" text-anchor="middle" font-weight="700">+8,101</text>
    <text x="515" y="118" fill="#ff4477" font-size="14" font-family="'Segoe UI Mono', 'Cascadia Code', monospace" text-anchor="middle" font-weight="600">-6,167</text>
        <rect x="618" y="60" width="190" height="68" rx="8" fill="#010018" stroke="#1a1a5e" stroke-width="1"/>
        <text x="713" y="78" fill="#6060a0" font-size="11" font-family="'Segoe UI', sans-serif" text-anchor="middle" font-weight="500">Streak</text>
        <text x="713" y="104" fill="#4488ff" font-size="20" font-family="'Segoe UI Mono', 'Cascadia Code', monospace" text-anchor="middle" font-weight="700">130</text>
        <text x="713" y="120" fill="#6060a0" font-size="11" font-family="'Segoe UI', sans-serif" text-anchor="middle">days</text>
  </g>

  <!-- Chart -->
  <g class="cpd-chart">
    <line x1="72" y1="148" x2="808" y2="148" stroke="#101050" stroke-width="1" stroke-dasharray="4,4"/><line x1="72" y1="213.5" x2="808" y2="213.5" stroke="#101050" stroke-width="1" stroke-dasharray="4,4"/><line x1="72" y1="279" x2="808" y2="279" stroke="#101050" stroke-width="1" stroke-dasharray="4,4"/><line x1="72" y1="344.5" x2="808" y2="344.5" stroke="#101050" stroke-width="1" stroke-dasharray="4,4"/><line x1="72" y1="410" x2="808" y2="410" stroke="#101050" stroke-width="1" stroke-dasharray="4,4"/><line x1="72" y1="279" x2="808" y2="279" stroke="#1a1a5e" stroke-width="1.5"/><text x="64" y="162" fill="#6060a0" font-size="10" font-family="'Segoe UI', sans-serif" text-anchor="end">+44,957</text><text x="64" y="406" fill="#6060a0" font-size="10" font-family="'Segoe UI', sans-serif" text-anchor="end">-44,957</text><text x="64" y="283" fill="#6060a0" font-size="10" font-family="'Segoe UI', sans-serif" text-anchor="end">0</text><path d="M 72 279 L 72 215.95522388059703 L 96.53333333333333 279 L 121.06666666666666 279 L 145.60000000000002 222.56006850990946 L 170.13333333333333 212.523611450942 L 194.66666666666669 279 L 219.20000000000002 279 L 243.73333333333335 242.0327868852459 L 268.26666666666665 279 L 292.8 252.87129924149744 L 317.33333333333337 158 L 341.8666666666667 279 L 366.40000000000003 273.09762662099337 L 390.93333333333334 252.12038169806704 L 415.4666666666667 261.80694886224614 L 440 277.2855395155371 L 464.53333333333336 274.8712992414974 L 489.0666666666667 279 L 513.6 279 L 538.1333333333334 279 L 562.6666666666667 279 L 587.2 256.43479324688036 L 611.7333333333333 277.44971862001466 L 636.2666666666667 279 L 660.8000000000001 274.9681918277465 L 685.3333333333334 279 L 709.8666666666667 279 L 734.4000000000001 230.27917788108635 L 758.9333333333334 158 L 783.4666666666667 158 L 808 279 L 808 279 Z" fill="#00d4aa" opacity="0.15"/><path d="M 72 279 L 72 215.95522388059703 L 96.53333333333333 279 L 121.06666666666666 279 L 145.60000000000002 222.56006850990946 L 170.13333333333333 212.523611450942 L 194.66666666666669 279 L 219.20000000000002 279 L 243.73333333333335 242.0327868852459 L 268.26666666666665 279 L 292.8 252.87129924149744 L 317.33333333333337 158 L 341.8666666666667 279 L 366.40000000000003 273.09762662099337 L 390.93333333333334 252.12038169806704 L 415.4666666666667 261.80694886224614 L 440 277.2855395155371 L 464.53333333333336 274.8712992414974 L 489.0666666666667 279 L 513.6 279 L 538.1333333333334 279 L 562.6666666666667 279 L 587.2 256.43479324688036 L 611.7333333333333 277.44971862001466 L 636.2666666666667 279 L 660.8000000000001 274.9681918277465 L 685.3333333333334 279 L 709.8666666666667 279 L 734.4000000000001 230.27917788108635 L 758.9333333333334 158 L 783.4666666666667 158 L 808 279" fill="none" stroke="#00d4aa" stroke-width="2"/><path d="M 72 279 L 72 279.39564472718376 L 96.53333333333333 279 L 121.06666666666666 279 L 145.60000000000002 285.29801810619034 L 170.13333333333333 280.61756789821385 L 194.66666666666669 279 L 219.20000000000002 279 L 243.73333333333335 279.3660386591632 L 268.26666666666665 279 L 292.8 279.0915096647908 L 317.33333333333337 400 L 341.8666666666667 279 L 366.40000000000003 279.0026914607291 L 390.93333333333334 281.62148275018353 L 415.4666666666667 279.5356006850991 L 440 279.0699779789577 L 464.53333333333336 279.1991680939565 L 489.0666666666667 279 L 513.6 279 L 538.1333333333334 279 L 562.6666666666667 279 L 587.2 279.457548323954 L 611.7333333333333 279 L 636.2666666666667 279 L 660.8000000000001 280.53144115488135 L 685.3333333333334 279 L 709.8666666666667 279 L 734.4000000000001 279.10765842916567 L 758.9333333333334 400 L 783.4666666666667 297.9936383655493 L 808 279 L 808 279 Z" fill="#ff4477" opacity="0.15"/><path d="M 72 279 L 72 279.39564472718376 L 96.53333333333333 279 L 121.06666666666666 279 L 145.60000000000002 285.29801810619034 L 170.13333333333333 280.61756789821385 L 194.66666666666669 279 L 219.20000000000002 279 L 243.73333333333335 279.3660386591632 L 268.26666666666665 279 L 292.8 279.0915096647908 L 317.33333333333337 400 L 341.8666666666667 279 L 366.40000000000003 279.0026914607291 L 390.93333333333334 281.62148275018353 L 415.4666666666667 279.5356006850991 L 440 279.0699779789577 L 464.53333333333336 279.1991680939565 L 489.0666666666667 279 L 513.6 279 L 538.1333333333334 279 L 562.6666666666667 279 L 587.2 279.457548323954 L 611.7333333333333 279 L 636.2666666666667 279 L 660.8000000000001 280.53144115488135 L 685.3333333333334 279 L 709.8666666666667 279 L 734.4000000000001 279.10765842916567 L 758.9333333333334 400 L 783.4666666666667 297.9936383655493 L 808 279" fill="none" stroke="#ff4477" stroke-width="2"/><text x="72" y="426" fill="#6060a0" font-size="10" font-family="'Segoe UI', sans-serif" text-anchor="middle">Mar 8</text><text x="194.66666666666669" y="426" fill="#6060a0" font-size="10" font-family="'Segoe UI', sans-serif" text-anchor="middle">Mar 13</text><text x="317.33333333333337" y="426" fill="#6060a0" font-size="10" font-family="'Segoe UI', sans-serif" text-anchor="middle">Mar 18</text><text x="440" y="426" fill="#6060a0" font-size="10" font-family="'Segoe UI', sans-serif" text-anchor="middle">Mar 23</text><text x="562.6666666666667" y="426" fill="#6060a0" font-size="10" font-family="'Segoe UI', sans-serif" text-anchor="middle">Mar 28</text><text x="685.3333333333334" y="426" fill="#6060a0" font-size="10" font-family="'Segoe UI', sans-serif" text-anchor="middle">Apr 2</text><text x="808" y="426" fill="#6060a0" font-size="10" font-family="'Segoe UI', sans-serif" text-anchor="middle">Apr 7</text>
  </g>

  <!-- Legend -->
  <g class="cpd-legend">
    <circle cx="30" cy="442" r="5" fill="#00d4aa"/>
    <text x="40" y="446" fill="#a0a0d0" font-size="11" font-family="'Segoe UI', sans-serif">Additions</text>
    <circle cx="124" cy="442" r="5" fill="#ff4477"/>
    <text x="134" y="446" fill="#a0a0d0" font-size="11" font-family="'Segoe UI', sans-serif">Deletions</text>
    <text x="816" y="446" fill="#6060a0" font-size="10" font-family="'Segoe UI', sans-serif" text-anchor="end">Last 31 days · +2,448,162 / -2,219,160 lines</text>
  </g>

  <!-- Get your own -->
  <a href="https://github.com/mpge/code-per-day" target="_blank">
    <text x="420" y="452" fill="#6060a0" font-size="10" font-family="'Segoe UI', sans-serif" text-anchor="middle" opacity="0.6">Get your own — github.com/mpge/code-per-day</text>
  </a>
</svg>