<svg width="840" height="460" viewBox="0 0 840 460" xmlns="http://www.w3.org/2000/svg">
  
    <style>
      @keyframes fadeInUp {
        from { opacity: 0; transform: translateY(12px); }
        to   { opacity: 1; transform: translateY(0); }
      }
      @keyframes growBar {
        from { transform: scaleY(0); }
        to   { transform: scaleY(1); }
      }
      .cpd-header  { animation: fadeInUp 0.5s ease both; }
      .cpd-stats   { animation: fadeInUp 0.5s ease 0.15s both; }
      .cpd-chart   { animation: fadeInUp 0.5s ease 0.3s both; }
      .cpd-legend  { animation: fadeInUp 0.5s ease 0.45s both; }
    </style>

  <rect width="840" height="460" rx="12" fill="#2e3440" stroke="#4c566a" stroke-width="1"/>

  <g class="cpd-header">
    <a href="https://github.com/mpge/code-per-day" target="_blank">
      <text x="24" y="44" fill="#eceff4" font-size="18" font-family="'Segoe UI', sans-serif" font-weight="700">Code Per Day</text>
    </a>
    <text x="816" y="44" fill="#81a1c1" font-size="13" font-family="'Segoe UI', sans-serif" text-anchor="end" font-weight="500">@mpge</text>
  </g>

  <g class="cpd-stats">
    
    <rect x="24" y="60" width="190" height="68" rx="8" fill="#2e3440" stroke="#4c566a" stroke-width="1"/>
    <text x="119" y="78" fill="#81a1c1" font-size="11" font-family="'Segoe UI', sans-serif" text-anchor="middle" font-weight="500">Today</text>
    <text x="119" y="100" fill="#a3be8c" font-size="16" font-family="'Segoe UI Mono', 'Cascadia Code', monospace" text-anchor="middle" font-weight="700">+2,938</text>
    <text x="119" y="118" fill="#bf616a" font-size="14" font-family="'Segoe UI Mono', 'Cascadia Code', monospace" text-anchor="middle" font-weight="600">-1,630</text>
    <rect x="222" y="60" width="190" height="68" rx="8" fill="#2e3440" stroke="#4c566a" stroke-width="1"/>
    <text x="317" y="78" fill="#81a1c1" font-size="11" font-family="'Segoe UI', sans-serif" text-anchor="middle" font-weight="500">30d Avg</text>
    <text x="317" y="100" fill="#a3be8c" font-size="16" font-family="'Segoe UI Mono', 'Cascadia Code', monospace" text-anchor="middle" font-weight="700">+37,492</text>
    <text x="317" y="118" fill="#bf616a" font-size="14" font-family="'Segoe UI Mono', 'Cascadia Code', monospace" text-anchor="middle" font-weight="600">-3,009</text>
    <rect x="420" y="60" width="190" height="68" rx="8" fill="#2e3440" stroke="#4c566a" stroke-width="1"/>
    <text x="515" y="78" fill="#81a1c1" font-size="11" font-family="'Segoe UI', sans-serif" text-anchor="middle" font-weight="500">Year Avg</text>
    <text x="515" y="100" fill="#a3be8c" font-size="16" font-family="'Segoe UI Mono', 'Cascadia Code', monospace" text-anchor="middle" font-weight="700">+24,715</text>
    <text x="515" y="118" fill="#bf616a" font-size="14" font-family="'Segoe UI Mono', 'Cascadia Code', monospace" text-anchor="middle" font-weight="600">-6,594</text>
    <rect x="618" y="60" width="190" height="68" rx="8" fill="#2e3440" stroke="#4c566a" stroke-width="1"/>
    <text x="713" y="78" fill="#81a1c1" font-size="11" font-family="'Segoe UI', sans-serif" text-anchor="middle" font-weight="500">Streak</text>
    <text x="713" y="104" fill="#88c0d0" font-size="20" font-family="'Segoe UI Mono', 'Cascadia Code', monospace" text-anchor="middle" font-weight="700">172</text>
    <text x="713" y="120" fill="#81a1c1" font-size="11" font-family="'Segoe UI', sans-serif" text-anchor="middle">days</text>
  </g>

  <g class="cpd-chart">
    <line x1="72" y1="148" x2="808" y2="148" stroke="#434c5e" stroke-width="1" stroke-dasharray="4,4"/><line x1="72" y1="213.5" x2="808" y2="213.5" stroke="#434c5e" stroke-width="1" stroke-dasharray="4,4"/><line x1="72" y1="279" x2="808" y2="279" stroke="#434c5e" stroke-width="1" stroke-dasharray="4,4"/><line x1="72" y1="344.5" x2="808" y2="344.5" stroke="#434c5e" stroke-width="1" stroke-dasharray="4,4"/><line x1="72" y1="410" x2="808" y2="410" stroke="#434c5e" stroke-width="1" stroke-dasharray="4,4"/><line x1="72" y1="279" x2="808" y2="279" stroke="#4c566a" stroke-width="1.5"/><text x="64" y="162" fill="#81a1c1" font-size="10" font-family="'Segoe UI', sans-serif" text-anchor="end">+26,592</text><text x="64" y="406" fill="#81a1c1" font-size="10" font-family="'Segoe UI', sans-serif" text-anchor="end">-26,592</text><text x="64" y="283" fill="#81a1c1" font-size="10" font-family="'Segoe UI', sans-serif" text-anchor="end">0</text><path d="M 72 279 L 72 213.24902226233453 L 96.53333333333333 246.97085589651022 L 121.06666666666666 257.8732325511432 L 145.60000000000002 278.9772487966306 L 170.13333333333333 160.9849578820698 L 194.66666666666669 158 L 219.20000000000002 268.88481498194943 L 243.73333333333335 158 L 268.26666666666665 158 L 292.8 227.2091606498195 L 317.33333333333337 267.4196374849579 L 341.8666666666667 215.78350631768953 L 366.40000000000003 239.7632746690734 L 390.93333333333334 158 L 415.4666666666667 251.19802948255114 L 440 263.6702391696751 L 464.53333333333336 176.73334085439228 L 489.0666666666667 242.1658017448857 L 513.6 195.09356197352588 L 538.1333333333334 158 L 562.6666666666667 273.07103640192537 L 587.2 224.59277226233453 L 611.7333333333333 210.3914711191336 L 636.2666666666667 263.44272713598076 L 660.8000000000001 239.35375300842358 L 685.3333333333334 260.52602286401924 L 709.8666666666667 257.0723901925391 L 734.4000000000001 276.85228640192537 L 758.9333333333334 158 L 783.4666666666667 158 L 808 265.6313929001203 L 808 279 Z" fill="#a3be8c" opacity="0.15"/><path d="M 72 279 L 72 213.24902226233453 L 96.53333333333333 246.97085589651022 L 121.06666666666666 257.8732325511432 L 145.60000000000002 278.9772487966306 L 170.13333333333333 160.9849578820698 L 194.66666666666669 158 L 219.20000000000002 268.88481498194943 L 243.73333333333335 158 L 268.26666666666665 158 L 292.8 227.2091606498195 L 317.33333333333337 267.4196374849579 L 341.8666666666667 215.78350631768953 L 366.40000000000003 239.7632746690734 L 390.93333333333334 158 L 415.4666666666667 251.19802948255114 L 440 263.6702391696751 L 464.53333333333336 176.73334085439228 L 489.0666666666667 242.1658017448857 L 513.6 195.09356197352588 L 538.1333333333334 158 L 562.6666666666667 273.07103640192537 L 587.2 224.59277226233453 L 611.7333333333333 210.3914711191336 L 636.2666666666667 263.44272713598076 L 660.8000000000001 239.35375300842358 L 685.3333333333334 260.52602286401924 L 709.8666666666667 257.0723901925391 L 734.4000000000001 276.85228640192537 L 758.9333333333334 158 L 783.4666666666667 158 L 808 265.6313929001203" fill="none" stroke="#a3be8c" stroke-width="2"/><path d="M 72 279 L 72 282.7539485559567 L 96.53333333333333 288.0777301444043 L 121.06666666666666 279.282114921781 L 145.60000000000002 279 L 170.13333333333333 281.5117328519856 L 194.66666666666669 301.4554377256318 L 219.20000000000002 279.37766997593263 L 243.73333333333335 284.65139891696754 L 268.26666666666665 283.0269629963899 L 292.8 303.0434717208183 L 317.33333333333337 281.4616802045728 L 341.8666666666667 300.1950210589651 L 366.40000000000003 286.2940358002407 L 390.93333333333334 316.1254136582431 L 415.4666666666667 291.96818592057764 L 440 284.8015568592058 L 464.53333333333336 287.40884476534296 L 489.0666666666667 282.5446374849579 L 513.6 300.1313176895307 L 538.1333333333334 400 L 562.6666666666667 281.34792418772565 L 587.2 283.94156137184115 L 611.7333333333333 291.5859657039711 L 636.2666666666667 279.43682310469313 L 660.8000000000001 294.125 L 685.3333333333334 283.39553249097474 L 709.8666666666667 281.41162755716005 L 734.4000000000001 279.441373345367 L 758.9333333333334 284.93351383874847 L 783.4666666666667 291.02628610108303 L 808 286.41689229843564 L 808 279 Z" fill="#bf616a" opacity="0.15"/><path d="M 72 279 L 72 282.7539485559567 L 96.53333333333333 288.0777301444043 L 121.06666666666666 279.282114921781 L 145.60000000000002 279 L 170.13333333333333 281.5117328519856 L 194.66666666666669 301.4554377256318 L 219.20000000000002 279.37766997593263 L 243.73333333333335 284.65139891696754 L 268.26666666666665 283.0269629963899 L 292.8 303.0434717208183 L 317.33333333333337 281.4616802045728 L 341.8666666666667 300.1950210589651 L 366.40000000000003 286.2940358002407 L 390.93333333333334 316.1254136582431 L 415.4666666666667 291.96818592057764 L 440 284.8015568592058 L 464.53333333333336 287.40884476534296 L 489.0666666666667 282.5446374849579 L 513.6 300.1313176895307 L 538.1333333333334 400 L 562.6666666666667 281.34792418772565 L 587.2 283.94156137184115 L 611.7333333333333 291.5859657039711 L 636.2666666666667 279.43682310469313 L 660.8000000000001 294.125 L 685.3333333333334 283.39553249097474 L 709.8666666666667 281.41162755716005 L 734.4000000000001 279.441373345367 L 758.9333333333334 284.93351383874847 L 783.4666666666667 291.02628610108303 L 808 286.41689229843564" fill="none" stroke="#bf616a" stroke-width="2"/><text x="72" y="426" fill="#81a1c1" font-size="10" font-family="'Segoe UI', sans-serif" text-anchor="middle">Apr 19</text><text x="194.66666666666669" y="426" fill="#81a1c1" font-size="10" font-family="'Segoe UI', sans-serif" text-anchor="middle">Apr 24</text><text x="317.33333333333337" y="426" fill="#81a1c1" font-size="10" font-family="'Segoe UI', sans-serif" text-anchor="middle">Apr 29</text><text x="440" y="426" fill="#81a1c1" font-size="10" font-family="'Segoe UI', sans-serif" text-anchor="middle">May 4</text><text x="562.6666666666667" y="426" fill="#81a1c1" font-size="10" font-family="'Segoe UI', sans-serif" text-anchor="middle">May 9</text><text x="685.3333333333334" y="426" fill="#81a1c1" font-size="10" font-family="'Segoe UI', sans-serif" text-anchor="middle">May 14</text><text x="808" y="426" fill="#81a1c1" font-size="10" font-family="'Segoe UI', sans-serif" text-anchor="middle">May 19</text>
  </g>

  <g class="cpd-legend">
    
    <circle cx="30" cy="442" r="5" fill="#a3be8c"/>
    <text x="40" y="446" fill="#d8dee9" font-size="11" font-family="'Segoe UI', sans-serif">Additions</text>
    <circle cx="124" cy="442" r="5" fill="#bf616a"/>
    <text x="134" y="446" fill="#d8dee9" font-size="11" font-family="'Segoe UI', sans-serif">Deletions</text>
    <text x="816" y="446" fill="#81a1c1" font-size="10" font-family="'Segoe UI', sans-serif" text-anchor="end">Last 31 days · +1,162,261 / -93,273 lines</text>
  </g>

  <a href="https://github.com/mpge/code-per-day" target="_blank">
    <text x="420" y="452" fill="#81a1c1" font-size="10" font-family="'Segoe UI', sans-serif" text-anchor="middle" opacity="0.6">Get your own - github.com/mpge/code-per-day</text>
  </a>
</svg>