<svg width="840" height="460" viewBox="0 0 840 460" xmlns="http://www.w3.org/2000/svg">
  
    <style>
      @keyframes fadeInUp {
        from { opacity: 0; transform: translateY(12px); }
        to   { opacity: 1; transform: translateY(0); }
      }
      @keyframes growBar {
        from { transform: scaleY(0); }
        to   { transform: scaleY(1); }
      }
      .cpd-header  { animation: fadeInUp 0.5s ease both; }
      .cpd-stats   { animation: fadeInUp 0.5s ease 0.15s both; }
      .cpd-chart   { animation: fadeInUp 0.5s ease 0.3s both; }
      .cpd-legend  { animation: fadeInUp 0.5s ease 0.45s both; }
    </style>

  <rect width="840" height="460" rx="12" fill="#0b1a0b" stroke="#1e3a1e" stroke-width="1"/>

  <g class="cpd-header">
    <a href="https://github.com/mpge/code-per-day" target="_blank">
      <text x="24" y="44" fill="#c8e6c8" font-size="18" font-family="'Segoe UI', sans-serif" font-weight="700">Code Per Day</text>
    </a>
    <text x="816" y="44" fill="#5a7a5a" font-size="13" font-family="'Segoe UI', sans-serif" text-anchor="end" font-weight="500">@mpge</text>
  </g>

  <g class="cpd-stats">
    
    <rect x="24" y="60" width="190" height="68" rx="8" fill="#091409" stroke="#1e3a1e" stroke-width="1"/>
    <text x="119" y="78" fill="#5a7a5a" font-size="11" font-family="'Segoe UI', sans-serif" text-anchor="middle" font-weight="500">Today</text>
    <text x="119" y="100" fill="#66ff66" font-size="16" font-family="'Segoe UI Mono', 'Cascadia Code', monospace" text-anchor="middle" font-weight="700">+0</text>
    <text x="119" y="118" fill="#ff8a65" font-size="14" font-family="'Segoe UI Mono', 'Cascadia Code', monospace" text-anchor="middle" font-weight="600">+0</text>
    <rect x="222" y="60" width="190" height="68" rx="8" fill="#091409" stroke="#1e3a1e" stroke-width="1"/>
    <text x="317" y="78" fill="#5a7a5a" font-size="11" font-family="'Segoe UI', sans-serif" text-anchor="middle" font-weight="500">30d Avg</text>
    <text x="317" y="100" fill="#66ff66" font-size="16" font-family="'Segoe UI Mono', 'Cascadia Code', monospace" text-anchor="middle" font-weight="700">+2,962</text>
    <text x="317" y="118" fill="#ff8a65" font-size="14" font-family="'Segoe UI Mono', 'Cascadia Code', monospace" text-anchor="middle" font-weight="600">-680</text>
    <rect x="420" y="60" width="190" height="68" rx="8" fill="#091409" stroke="#1e3a1e" stroke-width="1"/>
    <text x="515" y="78" fill="#5a7a5a" font-size="11" font-family="'Segoe UI', sans-serif" text-anchor="middle" font-weight="500">Year Avg</text>
    <text x="515" y="100" fill="#66ff66" font-size="16" font-family="'Segoe UI Mono', 'Cascadia Code', monospace" text-anchor="middle" font-weight="700">+26,316</text>
    <text x="515" y="118" fill="#ff8a65" font-size="14" font-family="'Segoe UI Mono', 'Cascadia Code', monospace" text-anchor="middle" font-weight="600">-7,192</text>
    <rect x="618" y="60" width="190" height="68" rx="8" fill="#091409" stroke="#1e3a1e" stroke-width="1"/>
    <text x="713" y="78" fill="#5a7a5a" font-size="11" font-family="'Segoe UI', sans-serif" text-anchor="middle" font-weight="500">Streak</text>
    <text x="713" y="104" fill="#66ff66" font-size="20" font-family="'Segoe UI Mono', 'Cascadia Code', monospace" text-anchor="middle" font-weight="700">252</text>
    <text x="713" y="120" fill="#5a7a5a" font-size="11" font-family="'Segoe UI', sans-serif" text-anchor="middle">days</text>
  </g>

  <g class="cpd-chart">
    <line x1="72" y1="148" x2="808" y2="148" stroke="#1a2e1a" stroke-width="1" stroke-dasharray="4,4"/><line x1="72" y1="213.5" x2="808" y2="213.5" stroke="#1a2e1a" stroke-width="1" stroke-dasharray="4,4"/><line x1="72" y1="279" x2="808" y2="279" stroke="#1a2e1a" stroke-width="1" stroke-dasharray="4,4"/><line x1="72" y1="344.5" x2="808" y2="344.5" stroke="#1a2e1a" stroke-width="1" stroke-dasharray="4,4"/><line x1="72" y1="410" x2="808" y2="410" stroke="#1a2e1a" stroke-width="1" stroke-dasharray="4,4"/><line x1="72" y1="279" x2="808" y2="279" stroke="#1e3a1e" stroke-width="1.5"/><text x="64" y="162" fill="#5a7a5a" font-size="10" font-family="'Segoe UI', sans-serif" text-anchor="end">+8,256</text><text x="64" y="406" fill="#5a7a5a" font-size="10" font-family="'Segoe UI', sans-serif" text-anchor="end">-8,256</text><text x="64" y="283" fill="#5a7a5a" font-size="10" font-family="'Segoe UI', sans-serif" text-anchor="end">0</text><path d="M 72 279 L 72 251.4027374031008 L 96.53333333333333 279 L 121.06666666666666 279 L 145.60000000000002 158 L 170.13333333333333 183.22298934108528 L 194.66666666666669 269.8546511627907 L 219.20000000000002 278.91206395348837 L 243.73333333333335 229.0816375968992 L 268.26666666666665 273.15225290697674 L 292.8 279 L 317.33333333333337 279 L 341.8666666666667 277.93011143410854 L 366.40000000000003 275.62911821705427 L 390.93333333333334 215.0998062015504 L 415.4666666666667 240.9236918604651 L 440 268.09593023255815 L 464.53333333333336 175.04493701550388 L 489.0666666666667 262.2335271317829 L 513.6 158 L 538.1333333333334 273.797117248062 L 562.6666666666667 268.49164244186045 L 587.2 267.59762596899225 L 611.7333333333333 235.0173207364341 L 636.2666666666667 158 L 660.8000000000001 158 L 685.3333333333334 158 L 709.8666666666667 275.453246124031 L 734.4000000000001 250.99236918604652 L 758.9333333333334 279 L 783.4666666666667 279 L 808 279 L 808 279 Z" fill="#66ff66" opacity="0.15"/><path d="M 72 279 L 72 251.4027374031008 L 96.53333333333333 279 L 121.06666666666666 279 L 145.60000000000002 158 L 170.13333333333333 183.22298934108528 L 194.66666666666669 269.8546511627907 L 219.20000000000002 278.91206395348837 L 243.73333333333335 229.0816375968992 L 268.26666666666665 273.15225290697674 L 292.8 279 L 317.33333333333337 279 L 341.8666666666667 277.93011143410854 L 366.40000000000003 275.62911821705427 L 390.93333333333334 215.0998062015504 L 415.4666666666667 240.9236918604651 L 440 268.09593023255815 L 464.53333333333336 175.04493701550388 L 489.0666666666667 262.2335271317829 L 513.6 158 L 538.1333333333334 273.797117248062 L 562.6666666666667 268.49164244186045 L 587.2 267.59762596899225 L 611.7333333333333 235.0173207364341 L 636.2666666666667 158 L 660.8000000000001 158 L 685.3333333333334 158 L 709.8666666666667 275.453246124031 L 734.4000000000001 250.99236918604652 L 758.9333333333334 279 L 783.4666666666667 279 L 808 279" fill="none" stroke="#66ff66" stroke-width="2"/><path d="M 72 279 L 72 306.14292635658916 L 96.53333333333333 279 L 121.06666666666666 279 L 145.60000000000002 346.1684835271318 L 170.13333333333333 366.68689437984494 L 194.66666666666669 283.015746124031 L 219.20000000000002 279 L 243.73333333333335 284.0856346899225 L 268.26666666666665 282.48812984496124 L 292.8 279 L 317.33333333333337 279 L 341.8666666666667 279.07328003875966 L 366.40000000000003 279.60089631782944 L 390.93333333333334 282.70796996124034 L 415.4666666666667 286.0495397286822 L 440 281.5354893410853 L 464.53333333333336 283.1769622093023 L 489.0666666666667 279.83539244186045 L 513.6 357.7613856589147 L 538.1333333333334 279.67417635658916 L 562.6666666666667 279.9966085271318 L 587.2 280.7733769379845 L 611.7333333333333 286.88493217054264 L 636.2666666666667 279.41036821705427 L 660.8000000000001 279.7767684108527 L 685.3333333333334 281.98982558139534 L 709.8666666666667 279.98195251937983 L 734.4000000000001 279 L 758.9333333333334 279 L 783.4666666666667 279 L 808 279 L 808 279 Z" fill="#ff8a65" opacity="0.15"/><path d="M 72 279 L 72 306.14292635658916 L 96.53333333333333 279 L 121.06666666666666 279 L 145.60000000000002 346.1684835271318 L 170.13333333333333 366.68689437984494 L 194.66666666666669 283.015746124031 L 219.20000000000002 279 L 243.73333333333335 284.0856346899225 L 268.26666666666665 282.48812984496124 L 292.8 279 L 317.33333333333337 279 L 341.8666666666667 279.07328003875966 L 366.40000000000003 279.60089631782944 L 390.93333333333334 282.70796996124034 L 415.4666666666667 286.0495397286822 L 440 281.5354893410853 L 464.53333333333336 283.1769622093023 L 489.0666666666667 279.83539244186045 L 513.6 357.7613856589147 L 538.1333333333334 279.67417635658916 L 562.6666666666667 279.9966085271318 L 587.2 280.7733769379845 L 611.7333333333333 286.88493217054264 L 636.2666666666667 279.41036821705427 L 660.8000000000001 279.7767684108527 L 685.3333333333334 281.98982558139534 L 709.8666666666667 279.98195251937983 L 734.4000000000001 279 L 758.9333333333334 279 L 783.4666666666667 279 L 808 279" fill="none" stroke="#ff8a65" stroke-width="2"/><text x="72" y="426" fill="#5a7a5a" font-size="10" font-family="'Segoe UI', sans-serif" text-anchor="middle">Jul 8</text><text x="194.66666666666669" y="426" fill="#5a7a5a" font-size="10" font-family="'Segoe UI', sans-serif" text-anchor="middle">Jul 13</text><text x="317.33333333333337" y="426" fill="#5a7a5a" font-size="10" font-family="'Segoe UI', sans-serif" text-anchor="middle">Jul 18</text><text x="440" y="426" fill="#5a7a5a" font-size="10" font-family="'Segoe UI', sans-serif" text-anchor="middle">Jul 23</text><text x="562.6666666666667" y="426" fill="#5a7a5a" font-size="10" font-family="'Segoe UI', sans-serif" text-anchor="middle">Jul 28</text><text x="685.3333333333334" y="426" fill="#5a7a5a" font-size="10" font-family="'Segoe UI', sans-serif" text-anchor="middle">Aug 2</text><text x="808" y="426" fill="#5a7a5a" font-size="10" font-family="'Segoe UI', sans-serif" text-anchor="middle">Aug 7</text>
  </g>

  <g class="cpd-legend">
    
    <circle cx="30" cy="442" r="5" fill="#66ff66"/>
    <text x="40" y="446" fill="#8ab88a" font-size="11" font-family="'Segoe UI', sans-serif">Additions</text>
    <circle cx="124" cy="442" r="5" fill="#ff8a65"/>
    <text x="134" y="446" fill="#8ab88a" font-size="11" font-family="'Segoe UI', sans-serif">Deletions</text>
    <text x="816" y="446" fill="#5a7a5a" font-size="10" font-family="'Segoe UI', sans-serif" text-anchor="end">Last 31 days · +91,831 / -21,071 lines</text>
  </g>

  <a href="https://github.com/mpge/code-per-day" target="_blank">
    <text x="420" y="452" fill="#5a7a5a" font-size="10" font-family="'Segoe UI', sans-serif" text-anchor="middle" opacity="0.6">Get your own - github.com/mpge/code-per-day</text>
  </a>
</svg>