<svg width="840" height="460" viewBox="0 0 840 460" xmlns="http://www.w3.org/2000/svg">
  
    <style>
      @keyframes fadeInUp {
        from { opacity: 0; transform: translateY(12px); }
        to   { opacity: 1; transform: translateY(0); }
      }
      @keyframes growBar {
        from { transform: scaleY(0); }
        to   { transform: scaleY(1); }
      }
      .cpd-header  { animation: fadeInUp 0.5s ease both; }
      .cpd-stats   { animation: fadeInUp 0.5s ease 0.15s both; }
      .cpd-chart   { animation: fadeInUp 0.5s ease 0.3s both; }
      .cpd-legend  { animation: fadeInUp 0.5s ease 0.45s both; }
    </style>

  <rect width="840" height="460" rx="12" fill="transparent" />

  <g class="cpd-header">
    <a href="https://github.com/mpge/code-per-day" target="_blank">
      <text x="24" y="44" fill="#e6edf3" font-size="18" font-family="'Segoe UI', sans-serif" font-weight="700">Code Per Day</text>
    </a>
    <text x="816" y="44" fill="#6e7681" font-size="13" font-family="'Segoe UI', sans-serif" text-anchor="end" font-weight="500">@mpge</text>
  </g>

  <g class="cpd-stats">
    
    <rect x="24" y="60" width="190" height="68" rx="8" fill="rgba(13,17,23,0.6)" stroke="#30363d" stroke-width="1"/>
    <text x="119" y="78" fill="#6e7681" font-size="11" font-family="'Segoe UI', sans-serif" text-anchor="middle" font-weight="500">Today</text>
    <text x="119" y="100" fill="#3fb950" font-size="16" font-family="'Segoe UI Mono', 'Cascadia Code', monospace" text-anchor="middle" font-weight="700">+236</text>
    <text x="119" y="118" fill="#f85149" font-size="14" font-family="'Segoe UI Mono', 'Cascadia Code', monospace" text-anchor="middle" font-weight="600">-113</text>
    <rect x="222" y="60" width="190" height="68" rx="8" fill="rgba(13,17,23,0.6)" stroke="#30363d" stroke-width="1"/>
    <text x="317" y="78" fill="#6e7681" font-size="11" font-family="'Segoe UI', sans-serif" text-anchor="middle" font-weight="500">30d Avg</text>
    <text x="317" y="100" fill="#3fb950" font-size="16" font-family="'Segoe UI Mono', 'Cascadia Code', monospace" text-anchor="middle" font-weight="700">+15,278</text>
    <text x="317" y="118" fill="#f85149" font-size="14" font-family="'Segoe UI Mono', 'Cascadia Code', monospace" text-anchor="middle" font-weight="600">-6,267</text>
    <rect x="420" y="60" width="190" height="68" rx="8" fill="rgba(13,17,23,0.6)" stroke="#30363d" stroke-width="1"/>
    <text x="515" y="78" fill="#6e7681" font-size="11" font-family="'Segoe UI', sans-serif" text-anchor="middle" font-weight="500">Year Avg</text>
    <text x="515" y="100" fill="#3fb950" font-size="16" font-family="'Segoe UI Mono', 'Cascadia Code', monospace" text-anchor="middle" font-weight="700">+25,511</text>
    <text x="515" y="118" fill="#f85149" font-size="14" font-family="'Segoe UI Mono', 'Cascadia Code', monospace" text-anchor="middle" font-weight="600">-7,089</text>
    <rect x="618" y="60" width="190" height="68" rx="8" fill="rgba(13,17,23,0.6)" stroke="#30363d" stroke-width="1"/>
    <text x="713" y="78" fill="#6e7681" font-size="11" font-family="'Segoe UI', sans-serif" text-anchor="middle" font-weight="500">Streak</text>
    <text x="713" y="104" fill="#58a6ff" font-size="20" font-family="'Segoe UI Mono', 'Cascadia Code', monospace" text-anchor="middle" font-weight="700">202</text>
    <text x="713" y="120" fill="#6e7681" font-size="11" font-family="'Segoe UI', sans-serif" text-anchor="middle">days</text>
  </g>

  <g class="cpd-chart">
    <line x1="72" y1="148" x2="808" y2="148" stroke="rgba(33,38,45,0.6)" stroke-width="1" stroke-dasharray="4,4"/><line x1="72" y1="213.5" x2="808" y2="213.5" stroke="rgba(33,38,45,0.6)" stroke-width="1" stroke-dasharray="4,4"/><line x1="72" y1="279" x2="808" y2="279" stroke="rgba(33,38,45,0.6)" stroke-width="1" stroke-dasharray="4,4"/><line x1="72" y1="344.5" x2="808" y2="344.5" stroke="rgba(33,38,45,0.6)" stroke-width="1" stroke-dasharray="4,4"/><line x1="72" y1="410" x2="808" y2="410" stroke="rgba(33,38,45,0.6)" stroke-width="1" stroke-dasharray="4,4"/><line x1="72" y1="279" x2="808" y2="279" stroke="#30363d" stroke-width="1.5"/><text x="64" y="162" fill="#6e7681" font-size="10" font-family="'Segoe UI', sans-serif" text-anchor="end">+32,008</text><text x="64" y="406" fill="#6e7681" font-size="10" font-family="'Segoe UI', sans-serif" text-anchor="end">-32,008</text><text x="64" y="283" fill="#6e7681" font-size="10" font-family="'Segoe UI', sans-serif" text-anchor="end">0</text><path d="M 72 279 L 72 158 L 96.53333333333333 158 L 121.06666666666666 195.6669582604349 L 145.60000000000002 276.7620594851287 L 170.13333333333333 261.1153774056486 L 194.66666666666669 230.97122594351413 L 219.20000000000002 228.97900524868783 L 243.73333333333335 261.14561984503877 L 268.26666666666665 263.03199200199947 L 292.8 265.9239252686828 L 317.33333333333337 199.7912709322669 L 341.8666666666667 234.95188702824294 L 366.40000000000003 245.90721069732567 L 390.93333333333334 158 L 415.4666666666667 209.07569982504373 L 440 158 L 464.53333333333336 203.90802299425144 L 489.0666666666667 254.3826543364159 L 513.6 225.45954136465883 L 538.1333333333334 278.27418145463633 L 562.6666666666667 279 L 587.2 272.1349662584354 L 611.7333333333333 279 L 636.2666666666667 262.9488252936766 L 660.8000000000001 279 L 685.3333333333334 278.7164771307173 L 709.8666666666667 277.4954386403399 L 734.4000000000001 261.3686578355411 L 758.9333333333334 276.2857410647338 L 783.4666666666667 279 L 808 278.1078480379905 L 808 279 Z" fill="#3fb950" opacity="0.15"/><path d="M 72 279 L 72 158 L 96.53333333333333 158 L 121.06666666666666 195.6669582604349 L 145.60000000000002 276.7620594851287 L 170.13333333333333 261.1153774056486 L 194.66666666666669 230.97122594351413 L 219.20000000000002 228.97900524868783 L 243.73333333333335 261.14561984503877 L 268.26666666666665 263.03199200199947 L 292.8 265.9239252686828 L 317.33333333333337 199.7912709322669 L 341.8666666666667 234.95188702824294 L 366.40000000000003 245.90721069732567 L 390.93333333333334 158 L 415.4666666666667 209.07569982504373 L 440 158 L 464.53333333333336 203.90802299425144 L 489.0666666666667 254.3826543364159 L 513.6 225.45954136465883 L 538.1333333333334 278.27418145463633 L 562.6666666666667 279 L 587.2 272.1349662584354 L 611.7333333333333 279 L 636.2666666666667 262.9488252936766 L 660.8000000000001 279 L 685.3333333333334 278.7164771307173 L 709.8666666666667 277.4954386403399 L 734.4000000000001 261.3686578355411 L 758.9333333333334 276.2857410647338 L 783.4666666666667 279 L 808 278.1078480379905" fill="none" stroke="#3fb950" stroke-width="2"/><path d="M 72 279 L 72 288.9913459135216 L 96.53333333333333 400 L 121.06666666666666 311.93023619095226 L 145.60000000000002 280.48187953011745 L 170.13333333333333 292.7678705323669 L 194.66666666666669 299.56863909022746 L 219.20000000000002 293.90196200949765 L 243.73333333333335 282.23216070982255 L 268.26666666666665 284.1449950012497 L 292.8 285.29042739315173 L 317.33333333333337 296.44232691827045 L 341.8666666666667 298.6840477380655 L 366.40000000000003 281.70291802049485 L 390.93333333333334 330.23825293676583 L 415.4666666666667 400 L 440 394.38246688327916 L 464.53333333333336 299.576199700075 L 489.0666666666667 282.80676705823544 L 513.6 286.62865533616593 L 538.1333333333334 279.22681829542614 L 562.6666666666667 279 L 587.2 279.04158335416145 L 611.7333333333333 279 L 636.2666666666667 279.3099850037491 L 660.8000000000001 279 L 685.3333333333334 279.3364471382154 L 709.8666666666667 279.7938640339915 L 734.4000000000001 296.1512434391402 L 758.9333333333334 279.11340914771307 L 783.4666666666667 279 L 808 279.4271744563859 L 808 279 Z" fill="#f85149" opacity="0.15"/><path d="M 72 279 L 72 288.9913459135216 L 96.53333333333333 400 L 121.06666666666666 311.93023619095226 L 145.60000000000002 280.48187953011745 L 170.13333333333333 292.7678705323669 L 194.66666666666669 299.56863909022746 L 219.20000000000002 293.90196200949765 L 243.73333333333335 282.23216070982255 L 268.26666666666665 284.1449950012497 L 292.8 285.29042739315173 L 317.33333333333337 296.44232691827045 L 341.8666666666667 298.6840477380655 L 366.40000000000003 281.70291802049485 L 390.93333333333334 330.23825293676583 L 415.4666666666667 400 L 440 394.38246688327916 L 464.53333333333336 299.576199700075 L 489.0666666666667 282.80676705823544 L 513.6 286.62865533616593 L 538.1333333333334 279.22681829542614 L 562.6666666666667 279 L 587.2 279.04158335416145 L 611.7333333333333 279 L 636.2666666666667 279.3099850037491 L 660.8000000000001 279 L 685.3333333333334 279.3364471382154 L 709.8666666666667 279.7938640339915 L 734.4000000000001 296.1512434391402 L 758.9333333333334 279.11340914771307 L 783.4666666666667 279 L 808 279.4271744563859" fill="none" stroke="#f85149" stroke-width="2"/><text x="72" y="426" fill="#6e7681" font-size="10" font-family="'Segoe UI', sans-serif" text-anchor="middle">May 18</text><text x="194.66666666666669" y="426" fill="#6e7681" font-size="10" font-family="'Segoe UI', sans-serif" text-anchor="middle">May 23</text><text x="317.33333333333337" y="426" fill="#6e7681" font-size="10" font-family="'Segoe UI', sans-serif" text-anchor="middle">May 28</text><text x="440" y="426" fill="#6e7681" font-size="10" font-family="'Segoe UI', sans-serif" text-anchor="middle">Jun 2</text><text x="562.6666666666667" y="426" fill="#6e7681" font-size="10" font-family="'Segoe UI', sans-serif" text-anchor="middle">Jun 7</text><text x="685.3333333333334" y="426" fill="#6e7681" font-size="10" font-family="'Segoe UI', sans-serif" text-anchor="middle">Jun 12</text><text x="808" y="426" fill="#6e7681" font-size="10" font-family="'Segoe UI', sans-serif" text-anchor="middle">Jun 17</text>
  </g>

  <g class="cpd-legend">
    
    <circle cx="30" cy="442" r="5" fill="#3fb950"/>
    <text x="40" y="446" fill="#8b949e" font-size="11" font-family="'Segoe UI', sans-serif">Additions</text>
    <circle cx="124" cy="442" r="5" fill="#f85149"/>
    <text x="134" y="446" fill="#8b949e" font-size="11" font-family="'Segoe UI', sans-serif">Deletions</text>
    <text x="816" y="446" fill="#6e7681" font-size="10" font-family="'Segoe UI', sans-serif" text-anchor="end">Last 31 days · +473,609 / -194,286 lines</text>
  </g>

  <a href="https://github.com/mpge/code-per-day" target="_blank">
    <text x="420" y="452" fill="#6e7681" font-size="10" font-family="'Segoe UI', sans-serif" text-anchor="middle" opacity="0.6">Get your own - github.com/mpge/code-per-day</text>
  </a>
</svg>