<svg width="840" height="460" viewBox="0 0 840 460" xmlns="http://www.w3.org/2000/svg">
  
    <style>
      @keyframes fadeInUp {
        from { opacity: 0; transform: translateY(12px); }
        to   { opacity: 1; transform: translateY(0); }
      }
      @keyframes growBar {
        from { transform: scaleY(0); }
        to   { transform: scaleY(1); }
      }
      .cpd-header  { animation: fadeInUp 0.5s ease both; }
      .cpd-stats   { animation: fadeInUp 0.5s ease 0.15s both; }
      .cpd-chart   { animation: fadeInUp 0.5s ease 0.3s both; }
      .cpd-legend  { animation: fadeInUp 0.5s ease 0.45s both; }
    </style>

  <rect width="840" height="460" rx="12" fill="#141321" stroke="#2d2b55" stroke-width="1"/>

  <g class="cpd-header">
    <a href="https://github.com/mpge/code-per-day" target="_blank">
      <text x="24" y="44" fill="#ff7edb" font-size="18" font-family="'Segoe UI', sans-serif" font-weight="700">Code Per Day</text>
    </a>
    <text x="816" y="44" fill="#544d8a" font-size="13" font-family="'Segoe UI', sans-serif" text-anchor="end" font-weight="500">@mpge</text>
  </g>

  <g class="cpd-stats">
    
    <rect x="24" y="60" width="190" height="68" rx="8" fill="#0f0e1a" stroke="#2d2b55" stroke-width="1"/>
    <text x="119" y="78" fill="#544d8a" font-size="11" font-family="'Segoe UI', sans-serif" text-anchor="middle" font-weight="500">Today</text>
    <text x="119" y="100" fill="#fad000" font-size="16" font-family="'Segoe UI Mono', 'Cascadia Code', monospace" text-anchor="middle" font-weight="700">+68,974</text>
    <text x="119" y="118" fill="#ff628c" font-size="14" font-family="'Segoe UI Mono', 'Cascadia Code', monospace" text-anchor="middle" font-weight="600">-37,134</text>
    <rect x="222" y="60" width="190" height="68" rx="8" fill="#0f0e1a" stroke="#2d2b55" stroke-width="1"/>
    <text x="317" y="78" fill="#544d8a" font-size="11" font-family="'Segoe UI', sans-serif" text-anchor="middle" font-weight="500">30d Avg</text>
    <text x="317" y="100" fill="#fad000" font-size="16" font-family="'Segoe UI Mono', 'Cascadia Code', monospace" text-anchor="middle" font-weight="700">+39,622</text>
    <text x="317" y="118" fill="#ff628c" font-size="14" font-family="'Segoe UI Mono', 'Cascadia Code', monospace" text-anchor="middle" font-weight="600">-4,154</text>
    <rect x="420" y="60" width="190" height="68" rx="8" fill="#0f0e1a" stroke="#2d2b55" stroke-width="1"/>
    <text x="515" y="78" fill="#544d8a" font-size="11" font-family="'Segoe UI', sans-serif" text-anchor="middle" font-weight="500">Year Avg</text>
    <text x="515" y="100" fill="#fad000" font-size="16" font-family="'Segoe UI Mono', 'Cascadia Code', monospace" text-anchor="middle" font-weight="700">+24,894</text>
    <text x="515" y="118" fill="#ff628c" font-size="14" font-family="'Segoe UI Mono', 'Cascadia Code', monospace" text-anchor="middle" font-weight="600">-6,691</text>
    <rect x="618" y="60" width="190" height="68" rx="8" fill="#0f0e1a" stroke="#2d2b55" stroke-width="1"/>
    <text x="713" y="78" fill="#544d8a" font-size="11" font-family="'Segoe UI', sans-serif" text-anchor="middle" font-weight="500">Streak</text>
    <text x="713" y="104" fill="#ff7edb" font-size="20" font-family="'Segoe UI Mono', 'Cascadia Code', monospace" text-anchor="middle" font-weight="700">173</text>
    <text x="713" y="120" fill="#544d8a" font-size="11" font-family="'Segoe UI', sans-serif" text-anchor="middle">days</text>
  </g>

  <g class="cpd-chart">
    <line x1="72" y1="148" x2="808" y2="148" stroke="#252340" stroke-width="1" stroke-dasharray="4,4"/><line x1="72" y1="213.5" x2="808" y2="213.5" stroke="#252340" stroke-width="1" stroke-dasharray="4,4"/><line x1="72" y1="279" x2="808" y2="279" stroke="#252340" stroke-width="1" stroke-dasharray="4,4"/><line x1="72" y1="344.5" x2="808" y2="344.5" stroke="#252340" stroke-width="1" stroke-dasharray="4,4"/><line x1="72" y1="410" x2="808" y2="410" stroke="#252340" stroke-width="1" stroke-dasharray="4,4"/><line x1="72" y1="279" x2="808" y2="279" stroke="#2d2b55" stroke-width="1.5"/><text x="64" y="162" fill="#544d8a" font-size="10" font-family="'Segoe UI', sans-serif" text-anchor="end">+32,870</text><text x="64" y="406" fill="#544d8a" font-size="10" font-family="'Segoe UI', sans-serif" text-anchor="end">-32,870</text><text x="64" y="283" fill="#544d8a" font-size="10" font-family="'Segoe UI', sans-serif" text-anchor="end">0</text><path d="M 72 279 L 72 225.807118953453 L 96.53333333333333 253.08825676909035 L 121.06666666666666 261.90833586857315 L 145.60000000000002 278.9815941588074 L 170.13333333333333 183.52522056586554 L 194.66666666666669 158 L 219.20000000000002 270.81676300578033 L 243.73333333333335 177.42184362640705 L 268.26666666666665 158 L 292.8 237.10094310921812 L 317.33333333333337 269.6314268329784 L 341.8666666666667 227.85752966230604 L 366.40000000000003 247.25728627928203 L 390.93333333333334 158 L 415.4666666666667 256.5080620626711 L 440 266.5981442044417 L 464.53333333333336 196.2657438393672 L 489.0666666666667 249.20094310921814 L 513.6 211.1192576817767 L 538.1333333333334 158 L 562.6666666666667 274.2034377852145 L 587.2 234.98427137207182 L 611.7333333333333 223.49534529966536 L 636.2666666666667 266.41408579251595 L 660.8000000000001 246.92598113781565 L 685.3333333333334 264.0544569516276 L 709.8666666666667 261.26045025859446 L 734.4000000000001 277.2624885914207 L 758.9333333333334 158 L 783.4666666666667 158 L 808 158 L 808 279 Z" fill="#fad000" opacity="0.15"/><path d="M 72 279 L 72 225.807118953453 L 96.53333333333333 253.08825676909035 L 121.06666666666666 261.90833586857315 L 145.60000000000002 278.9815941588074 L 170.13333333333333 183.52522056586554 L 194.66666666666669 158 L 219.20000000000002 270.81676300578033 L 243.73333333333335 177.42184362640705 L 268.26666666666665 158 L 292.8 237.10094310921812 L 317.33333333333337 269.6314268329784 L 341.8666666666667 227.85752966230604 L 366.40000000000003 247.25728627928203 L 390.93333333333334 158 L 415.4666666666667 256.5080620626711 L 440 266.5981442044417 L 464.53333333333336 196.2657438393672 L 489.0666666666667 249.20094310921814 L 513.6 211.1192576817767 L 538.1333333333334 158 L 562.6666666666667 274.2034377852145 L 587.2 234.98427137207182 L 611.7333333333333 223.49534529966536 L 636.2666666666667 266.41408579251595 L 660.8000000000001 246.92598113781565 L 685.3333333333334 264.0544569516276 L 709.8666666666667 261.26045025859446 L 734.4000000000001 277.2624885914207 L 758.9333333333334 158 L 783.4666666666667 158 L 808 158" fill="none" stroke="#fad000" stroke-width="2"/><path d="M 72 279 L 72 282.0369637967752 L 96.53333333333333 286.34393063583815 L 121.06666666666666 279.22823243078795 L 145.60000000000002 279 L 170.13333333333333 281.0320048676605 L 194.66666666666669 297.16656525707333 L 219.20000000000002 279.3055369637968 L 243.73333333333335 283.5720109522361 L 268.26666666666665 282.2578338910861 L 292.8 298.4512929723152 L 317.33333333333337 280.9915120170368 L 341.8666666666667 296.14688165500456 L 366.40000000000003 284.9009126863401 L 390.93333333333334 309.03465165804687 L 415.4666666666667 289.4913294797688 L 440 283.6934895041071 L 464.53333333333336 285.8027989047764 L 489.0666666666667 281.86763005780347 L 513.6 296.0953452996653 L 538.1333333333334 400 L 562.6666666666667 280.89948281107394 L 587.2 282.9977487070277 L 611.7333333333333 289.1821113477335 L 636.2666666666667 279.3533921508975 L 660.8000000000001 291.2362032248251 L 685.3333333333334 282.55600851840586 L 709.8666666666667 280.9510191664131 L 734.4000000000001 279.35707331913596 L 758.9333333333334 283.80024338302405 L 783.4666666666667 288.7293276543961 L 808 400 L 808 279 Z" fill="#ff628c" opacity="0.15"/><path d="M 72 279 L 72 282.0369637967752 L 96.53333333333333 286.34393063583815 L 121.06666666666666 279.22823243078795 L 145.60000000000002 279 L 170.13333333333333 281.0320048676605 L 194.66666666666669 297.16656525707333 L 219.20000000000002 279.3055369637968 L 243.73333333333335 283.5720109522361 L 268.26666666666665 282.2578338910861 L 292.8 298.4512929723152 L 317.33333333333337 280.9915120170368 L 341.8666666666667 296.14688165500456 L 366.40000000000003 284.9009126863401 L 390.93333333333334 309.03465165804687 L 415.4666666666667 289.4913294797688 L 440 283.6934895041071 L 464.53333333333336 285.8027989047764 L 489.0666666666667 281.86763005780347 L 513.6 296.0953452996653 L 538.1333333333334 400 L 562.6666666666667 280.89948281107394 L 587.2 282.9977487070277 L 611.7333333333333 289.1821113477335 L 636.2666666666667 279.3533921508975 L 660.8000000000001 291.2362032248251 L 685.3333333333334 282.55600851840586 L 709.8666666666667 280.9510191664131 L 734.4000000000001 279.35707331913596 L 758.9333333333334 283.80024338302405 L 783.4666666666667 288.7293276543961 L 808 400" fill="none" stroke="#ff628c" stroke-width="2"/><text x="72" y="426" fill="#544d8a" font-size="10" font-family="'Segoe UI', sans-serif" text-anchor="middle">Apr 19</text><text x="194.66666666666669" y="426" fill="#544d8a" font-size="10" font-family="'Segoe UI', sans-serif" text-anchor="middle">Apr 24</text><text x="317.33333333333337" y="426" fill="#544d8a" font-size="10" font-family="'Segoe UI', sans-serif" text-anchor="middle">Apr 29</text><text x="440" y="426" fill="#544d8a" font-size="10" font-family="'Segoe UI', sans-serif" text-anchor="middle">May 4</text><text x="562.6666666666667" y="426" fill="#544d8a" font-size="10" font-family="'Segoe UI', sans-serif" text-anchor="middle">May 9</text><text x="685.3333333333334" y="426" fill="#544d8a" font-size="10" font-family="'Segoe UI', sans-serif" text-anchor="middle">May 14</text><text x="808" y="426" fill="#544d8a" font-size="10" font-family="'Segoe UI', sans-serif" text-anchor="middle">May 19</text>
  </g>

  <g class="cpd-legend">
    
    <circle cx="30" cy="442" r="5" fill="#fad000"/>
    <text x="40" y="446" fill="#a599e9" font-size="11" font-family="'Segoe UI', sans-serif">Additions</text>
    <circle cx="124" cy="442" r="5" fill="#ff628c"/>
    <text x="134" y="446" fill="#a599e9" font-size="11" font-family="'Segoe UI', sans-serif">Deletions</text>
    <text x="816" y="446" fill="#544d8a" font-size="10" font-family="'Segoe UI', sans-serif" text-anchor="end">Last 31 days · +1,228,297 / -128,777 lines</text>
  </g>

  <a href="https://github.com/mpge/code-per-day" target="_blank">
    <text x="420" y="452" fill="#544d8a" font-size="10" font-family="'Segoe UI', sans-serif" text-anchor="middle" opacity="0.6">Get your own - github.com/mpge/code-per-day</text>
  </a>
</svg>