<svg width="840" height="460" viewBox="0 0 840 460" xmlns="http://www.w3.org/2000/svg">
  
    <style>
      @keyframes fadeInUp {
        from { opacity: 0; transform: translateY(12px); }
        to   { opacity: 1; transform: translateY(0); }
      }
      @keyframes growBar {
        from { transform: scaleY(0); }
        to   { transform: scaleY(1); }
      }
      .cpd-header  { animation: fadeInUp 0.5s ease both; }
      .cpd-stats   { animation: fadeInUp 0.5s ease 0.15s both; }
      .cpd-chart   { animation: fadeInUp 0.5s ease 0.3s both; }
      .cpd-legend  { animation: fadeInUp 0.5s ease 0.45s both; }
    </style>

  <!-- Background -->
  <rect width="840" height="460" rx="12" fill="#0b1a0b" stroke="#1e3a1e" stroke-width="1"/>

  <!-- Header -->
  <g class="cpd-header">
    <a href="https://github.com/mpge/code-per-day" target="_blank">
      <text x="24" y="44" fill="#c8e6c8" font-size="18" font-family="'Segoe UI', sans-serif" font-weight="700">Code Per Day</text>
    </a>
    <text x="816" y="44" fill="#5a7a5a" font-size="13" font-family="'Segoe UI', sans-serif" text-anchor="end" font-weight="500">@mpge</text>
  </g>

  <!-- Stats Cards -->
  <g class="cpd-stats">
    
    <rect x="24" y="60" width="190" height="68" rx="8" fill="#091409" stroke="#1e3a1e" stroke-width="1"/>
    <text x="119" y="78" fill="#5a7a5a" font-size="11" font-family="'Segoe UI', sans-serif" text-anchor="middle" font-weight="500">Today</text>
    <text x="119" y="100" fill="#66ff66" font-size="16" font-family="'Segoe UI Mono', 'Cascadia Code', monospace" text-anchor="middle" font-weight="700">+2,839</text>
    <text x="119" y="118" fill="#ff8a65" font-size="14" font-family="'Segoe UI Mono', 'Cascadia Code', monospace" text-anchor="middle" font-weight="600">-896</text>
    <rect x="222" y="60" width="190" height="68" rx="8" fill="#091409" stroke="#1e3a1e" stroke-width="1"/>
    <text x="317" y="78" fill="#5a7a5a" font-size="11" font-family="'Segoe UI', sans-serif" text-anchor="middle" font-weight="500">30d Avg</text>
    <text x="317" y="100" fill="#66ff66" font-size="16" font-family="'Segoe UI Mono', 'Cascadia Code', monospace" text-anchor="middle" font-weight="700">+235,425</text>
    <text x="317" y="118" fill="#ff8a65" font-size="14" font-family="'Segoe UI Mono', 'Cascadia Code', monospace" text-anchor="middle" font-weight="600">-57,332</text>
    <rect x="420" y="60" width="190" height="68" rx="8" fill="#091409" stroke="#1e3a1e" stroke-width="1"/>
    <text x="515" y="78" fill="#5a7a5a" font-size="11" font-family="'Segoe UI', sans-serif" text-anchor="middle" font-weight="500">Year Avg</text>
    <text x="515" y="100" fill="#66ff66" font-size="16" font-family="'Segoe UI Mono', 'Cascadia Code', monospace" text-anchor="middle" font-weight="700">+23,936</text>
    <text x="515" y="118" fill="#ff8a65" font-size="14" font-family="'Segoe UI Mono', 'Cascadia Code', monospace" text-anchor="middle" font-weight="600">-6,442</text>
        <rect x="618" y="60" width="190" height="68" rx="8" fill="#091409" stroke="#1e3a1e" stroke-width="1"/>
        <text x="713" y="78" fill="#5a7a5a" font-size="11" font-family="'Segoe UI', sans-serif" text-anchor="middle" font-weight="500">Streak</text>
        <text x="713" y="104" fill="#66ff66" font-size="20" font-family="'Segoe UI Mono', 'Cascadia Code', monospace" text-anchor="middle" font-weight="700">157</text>
        <text x="713" y="120" fill="#5a7a5a" font-size="11" font-family="'Segoe UI', sans-serif" text-anchor="middle">days</text>
  </g>

  <!-- Chart -->
  <g class="cpd-chart">
    <line x1="72" y1="148" x2="808" y2="148" stroke="#1a2e1a" stroke-width="1" stroke-dasharray="4,4"/><line x1="72" y1="213.5" x2="808" y2="213.5" stroke="#1a2e1a" stroke-width="1" stroke-dasharray="4,4"/><line x1="72" y1="279" x2="808" y2="279" stroke="#1a2e1a" stroke-width="1" stroke-dasharray="4,4"/><line x1="72" y1="344.5" x2="808" y2="344.5" stroke="#1a2e1a" stroke-width="1" stroke-dasharray="4,4"/><line x1="72" y1="410" x2="808" y2="410" stroke="#1a2e1a" stroke-width="1" stroke-dasharray="4,4"/><line x1="72" y1="279" x2="808" y2="279" stroke="#1e3a1e" stroke-width="1.5"/><text x="64" y="162" fill="#5a7a5a" font-size="10" font-family="'Segoe UI', sans-serif" text-anchor="end">+43,676</text><text x="64" y="406" fill="#5a7a5a" font-size="10" font-family="'Segoe UI', sans-serif" text-anchor="end">-43,676</text><text x="64" y="283" fill="#5a7a5a" font-size="10" font-family="'Segoe UI', sans-serif" text-anchor="end">0</text><path d="M 72 279 L 72 279 L 96.53333333333333 228.8502152211741 L 121.06666666666666 158 L 145.60000000000002 158 L 170.13333333333333 173.18456360472572 L 194.66666666666669 158 L 219.20000000000002 158 L 243.73333333333335 243.8186876087554 L 268.26666666666665 260.8982049638245 L 292.8 158 L 317.33333333333337 257.17201666819307 L 341.8666666666667 278.8670207894496 L 366.40000000000003 279 L 390.93333333333334 278.85316878835056 L 415.4666666666667 279 L 440 264.7296684678084 L 464.53333333333336 238.96771682388498 L 489.0666666666667 259.4991528528254 L 513.6 266.137031779467 L 538.1333333333334 278.986147998901 L 562.6666666666667 207.1468998992582 L 587.2 158 L 611.7333333333333 272.84140031138384 L 636.2666666666667 202.5535763348292 L 660.8000000000001 165.33324938181153 L 685.3333333333334 247.46730469823245 L 709.8666666666667 271.9493314406081 L 734.4000000000001 240.51082974631376 L 758.9333333333334 255.1108389046616 L 783.4666666666667 158 L 808 271.1348337759868 L 808 279 Z" fill="#66ff66" opacity="0.15"/><path d="M 72 279 L 72 279 L 96.53333333333333 228.8502152211741 L 121.06666666666666 158 L 145.60000000000002 158 L 170.13333333333333 173.18456360472572 L 194.66666666666669 158 L 219.20000000000002 158 L 243.73333333333335 243.8186876087554 L 268.26666666666665 260.8982049638245 L 292.8 158 L 317.33333333333337 257.17201666819307 L 341.8666666666667 278.8670207894496 L 366.40000000000003 279 L 390.93333333333334 278.85316878835056 L 415.4666666666667 279 L 440 264.7296684678084 L 464.53333333333336 238.96771682388498 L 489.0666666666667 259.4991528528254 L 513.6 266.137031779467 L 538.1333333333334 278.986147998901 L 562.6666666666667 207.1468998992582 L 587.2 158 L 611.7333333333333 272.84140031138384 L 636.2666666666667 202.5535763348292 L 660.8000000000001 165.33324938181153 L 685.3333333333334 247.46730469823245 L 709.8666666666667 271.9493314406081 L 734.4000000000001 240.51082974631376 L 758.9333333333334 255.1108389046616 L 783.4666666666667 158 L 808 271.1348337759868" fill="none" stroke="#66ff66" stroke-width="2"/><path d="M 72 279 L 72 279 L 96.53333333333333 279.110816008792 L 121.06666666666666 400 L 145.60000000000002 298.55071435113103 L 170.13333333333333 328.88936715816465 L 194.66666666666669 290.63291052294164 L 219.20000000000002 313.2615395182709 L 243.73333333333335 284.74858045608573 L 268.26666666666665 284.63222364685413 L 292.8 281.59309460573314 L 317.33333333333337 279.8144976646213 L 341.8666666666667 292.4752266691089 L 366.40000000000003 279 L 390.93333333333334 279.124668009891 L 415.4666666666667 279 L 440 279.31582562505724 L 464.53333333333336 281.28558018133526 L 489.0666666666667 284.5269484385017 L 513.6 279.17176481362765 L 538.1333333333334 279 L 562.6666666666667 280.5292609213298 L 587.2 292.6719250847147 L 611.7333333333333 279.2299432182434 L 636.2666666666667 282.44083707299205 L 660.8000000000001 281.45180419452333 L 685.3333333333334 293.63879476142506 L 709.8666666666667 280.49878651891197 L 734.4000000000001 291.90452422383004 L 758.9333333333334 283.44095155234 L 783.4666666666667 301.603695393351 L 808 281.4822785969411 L 808 279 Z" fill="#ff8a65" opacity="0.15"/><path d="M 72 279 L 72 279 L 96.53333333333333 279.110816008792 L 121.06666666666666 400 L 145.60000000000002 298.55071435113103 L 170.13333333333333 328.88936715816465 L 194.66666666666669 290.63291052294164 L 219.20000000000002 313.2615395182709 L 243.73333333333335 284.74858045608573 L 268.26666666666665 284.63222364685413 L 292.8 281.59309460573314 L 317.33333333333337 279.8144976646213 L 341.8666666666667 292.4752266691089 L 366.40000000000003 279 L 390.93333333333334 279.124668009891 L 415.4666666666667 279 L 440 279.31582562505724 L 464.53333333333336 281.28558018133526 L 489.0666666666667 284.5269484385017 L 513.6 279.17176481362765 L 538.1333333333334 279 L 562.6666666666667 280.5292609213298 L 587.2 292.6719250847147 L 611.7333333333333 279.2299432182434 L 636.2666666666667 282.44083707299205 L 660.8000000000001 281.45180419452333 L 685.3333333333334 293.63879476142506 L 709.8666666666667 280.49878651891197 L 734.4000000000001 291.90452422383004 L 758.9333333333334 283.44095155234 L 783.4666666666667 301.603695393351 L 808 281.4822785969411" fill="none" stroke="#ff8a65" stroke-width="2"/><text x="72" y="426" fill="#5a7a5a" font-size="10" font-family="'Segoe UI', sans-serif" text-anchor="middle">Apr 3</text><text x="194.66666666666669" y="426" fill="#5a7a5a" font-size="10" font-family="'Segoe UI', sans-serif" text-anchor="middle">Apr 8</text><text x="317.33333333333337" y="426" fill="#5a7a5a" font-size="10" font-family="'Segoe UI', sans-serif" text-anchor="middle">Apr 13</text><text x="440" y="426" fill="#5a7a5a" font-size="10" font-family="'Segoe UI', sans-serif" text-anchor="middle">Apr 18</text><text x="562.6666666666667" y="426" fill="#5a7a5a" font-size="10" font-family="'Segoe UI', sans-serif" text-anchor="middle">Apr 23</text><text x="685.3333333333334" y="426" fill="#5a7a5a" font-size="10" font-family="'Segoe UI', sans-serif" text-anchor="middle">Apr 28</text><text x="808" y="426" fill="#5a7a5a" font-size="10" font-family="'Segoe UI', sans-serif" text-anchor="middle">May 3</text>
  </g>

  <!-- Legend -->
  <g class="cpd-legend">
    <circle cx="30" cy="442" r="5" fill="#66ff66"/>
    <text x="40" y="446" fill="#8ab88a" font-size="11" font-family="'Segoe UI', sans-serif">Additions</text>
    <circle cx="124" cy="442" r="5" fill="#ff8a65"/>
    <text x="134" y="446" fill="#8ab88a" font-size="11" font-family="'Segoe UI', sans-serif">Deletions</text>
    <text x="816" y="446" fill="#5a7a5a" font-size="10" font-family="'Segoe UI', sans-serif" text-anchor="end">Last 31 days · +7,298,176 / -1,777,285 lines</text>
  </g>

  <!-- Get your own -->
  <a href="https://github.com/mpge/code-per-day" target="_blank">
    <text x="420" y="452" fill="#5a7a5a" font-size="10" font-family="'Segoe UI', sans-serif" text-anchor="middle" opacity="0.6">Get your own — github.com/mpge/code-per-day</text>
  </a>
</svg>