<svg width="840" height="460" viewBox="0 0 840 460" xmlns="http://www.w3.org/2000/svg">
  
    <style>
      @keyframes fadeInUp {
        from { opacity: 0; transform: translateY(12px); }
        to   { opacity: 1; transform: translateY(0); }
      }
      @keyframes growBar {
        from { transform: scaleY(0); }
        to   { transform: scaleY(1); }
      }
      .cpd-header  { animation: fadeInUp 0.5s ease both; }
      .cpd-stats   { animation: fadeInUp 0.5s ease 0.15s both; }
      .cpd-chart   { animation: fadeInUp 0.5s ease 0.3s both; }
      .cpd-legend  { animation: fadeInUp 0.5s ease 0.45s both; }
    </style>

  <!-- Background -->
  <rect width="840" height="460" rx="12" fill="#0b1929" stroke="#1d3461" stroke-width="1"/>

  <!-- Header -->
  <g class="cpd-header">
    <a href="https://github.com/mpge/code-per-day" target="_blank">
      <text x="24" y="44" fill="#ccd6f6" font-size="18" font-family="'Segoe UI', sans-serif" font-weight="700">Code Per Day</text>
    </a>
    <text x="816" y="44" fill="#495670" font-size="13" font-family="'Segoe UI', sans-serif" text-anchor="end" font-weight="500">@mpge</text>
  </g>

  <!-- Stats Cards -->
  <g class="cpd-stats">
    
    <rect x="24" y="60" width="190" height="68" rx="8" fill="#0a1628" stroke="#1d3461" stroke-width="1"/>
    <text x="119" y="78" fill="#495670" font-size="11" font-family="'Segoe UI', sans-serif" text-anchor="middle" font-weight="500">Today</text>
    <text x="119" y="100" fill="#64ffda" font-size="16" font-family="'Segoe UI Mono', 'Cascadia Code', monospace" text-anchor="middle" font-weight="700">+58</text>
    <text x="119" y="118" fill="#ff6b6b" font-size="14" font-family="'Segoe UI Mono', 'Cascadia Code', monospace" text-anchor="middle" font-weight="600">-4</text>
    <rect x="222" y="60" width="190" height="68" rx="8" fill="#0a1628" stroke="#1d3461" stroke-width="1"/>
    <text x="317" y="78" fill="#495670" font-size="11" font-family="'Segoe UI', sans-serif" text-anchor="middle" font-weight="500">30d Avg</text>
    <text x="317" y="100" fill="#64ffda" font-size="16" font-family="'Segoe UI Mono', 'Cascadia Code', monospace" text-anchor="middle" font-weight="700">+208,474</text>
    <text x="317" y="118" fill="#ff6b6b" font-size="14" font-family="'Segoe UI Mono', 'Cascadia Code', monospace" text-anchor="middle" font-weight="600">-56,245</text>
    <rect x="420" y="60" width="190" height="68" rx="8" fill="#0a1628" stroke="#1d3461" stroke-width="1"/>
    <text x="515" y="78" fill="#495670" font-size="11" font-family="'Segoe UI', sans-serif" text-anchor="middle" font-weight="500">Year Avg</text>
    <text x="515" y="100" fill="#64ffda" font-size="16" font-family="'Segoe UI Mono', 'Cascadia Code', monospace" text-anchor="middle" font-weight="700">+20,716</text>
    <text x="515" y="118" fill="#ff6b6b" font-size="14" font-family="'Segoe UI Mono', 'Cascadia Code', monospace" text-anchor="middle" font-weight="600">-6,279</text>
        <rect x="618" y="60" width="190" height="68" rx="8" fill="#0a1628" stroke="#1d3461" stroke-width="1"/>
        <text x="713" y="78" fill="#495670" font-size="11" font-family="'Segoe UI', sans-serif" text-anchor="middle" font-weight="500">Streak</text>
        <text x="713" y="104" fill="#64ffda" font-size="20" font-family="'Segoe UI Mono', 'Cascadia Code', monospace" text-anchor="middle" font-weight="700">142</text>
        <text x="713" y="120" fill="#495670" font-size="11" font-family="'Segoe UI', sans-serif" text-anchor="middle">days</text>
  </g>

  <!-- Chart -->
  <g class="cpd-chart">
    <line x1="72" y1="148" x2="808" y2="148" stroke="#152a4a" stroke-width="1" stroke-dasharray="4,4"/><line x1="72" y1="213.5" x2="808" y2="213.5" stroke="#152a4a" stroke-width="1" stroke-dasharray="4,4"/><line x1="72" y1="279" x2="808" y2="279" stroke="#152a4a" stroke-width="1" stroke-dasharray="4,4"/><line x1="72" y1="344.5" x2="808" y2="344.5" stroke="#152a4a" stroke-width="1" stroke-dasharray="4,4"/><line x1="72" y1="410" x2="808" y2="410" stroke="#152a4a" stroke-width="1" stroke-dasharray="4,4"/><line x1="72" y1="279" x2="808" y2="279" stroke="#1d3461" stroke-width="1.5"/><text x="64" y="162" fill="#495670" font-size="10" font-family="'Segoe UI', sans-serif" text-anchor="end">+30,727</text><text x="64" y="406" fill="#495670" font-size="10" font-family="'Segoe UI', sans-serif" text-anchor="end">-30,727</text><text x="64" y="283" fill="#495670" font-size="10" font-family="'Segoe UI', sans-serif" text-anchor="end">0</text><path d="M 72 279 L 72 279 L 96.53333333333333 270.3641748299541 L 121.06666666666666 239.67214501903862 L 145.60000000000002 253.84466430175416 L 170.13333333333333 276.49155465876913 L 194.66666666666669 272.9592540762196 L 219.20000000000002 279 L 243.73333333333335 279 L 268.26666666666665 279 L 292.8 279 L 317.33333333333337 245.9846063722459 L 341.8666666666667 276.73176685000163 L 366.40000000000003 279 L 390.93333333333334 273.1010186480945 L 415.4666666666667 279 L 440 279 L 464.53333333333336 207.71604777557198 L 489.0666666666667 158 L 513.6 158 L 538.1333333333334 158 L 562.6666666666667 158 L 587.2 158 L 611.7333333333333 253.87616753994857 L 636.2666666666667 279 L 660.8000000000001 158 L 685.3333333333334 256.08927002310674 L 709.8666666666667 278.81098057083346 L 734.4000000000001 279 L 758.9333333333334 278.79129104696193 L 783.4666666666667 279 L 808 278.77160152309045 L 808 279 Z" fill="#64ffda" opacity="0.15"/><path d="M 72 279 L 72 279 L 96.53333333333333 270.3641748299541 L 121.06666666666666 239.67214501903862 L 145.60000000000002 253.84466430175416 L 170.13333333333333 276.49155465876913 L 194.66666666666669 272.9592540762196 L 219.20000000000002 279 L 243.73333333333335 279 L 268.26666666666665 279 L 292.8 279 L 317.33333333333337 245.9846063722459 L 341.8666666666667 276.73176685000163 L 366.40000000000003 279 L 390.93333333333334 273.1010186480945 L 415.4666666666667 279 L 440 279 L 464.53333333333336 207.71604777557198 L 489.0666666666667 158 L 513.6 158 L 538.1333333333334 158 L 562.6666666666667 158 L 587.2 158 L 611.7333333333333 253.87616753994857 L 636.2666666666667 279 L 660.8000000000001 158 L 685.3333333333334 256.08927002310674 L 709.8666666666667 278.81098057083346 L 734.4000000000001 279 L 758.9333333333334 278.79129104696193 L 783.4666666666667 279 L 808 278.77160152309045" fill="none" stroke="#64ffda" stroke-width="2"/><path d="M 72 279 L 72 279 L 96.53333333333333 279.0039379047743 L 121.06666666666666 282.8355192501709 L 145.60000000000002 279.78364305008625 L 170.13333333333333 279.1023855241319 L 194.66666666666669 279.2914049532984 L 219.20000000000002 279 L 243.73333333333335 279 L 268.26666666666665 279 L 292.8 279 L 317.33333333333337 279.6694438116315 L 341.8666666666667 279 L 366.40000000000003 279 L 390.93333333333334 281.24066781657825 L 415.4666666666667 279 L 440 279 L 464.53333333333336 279.1575161909721 L 489.0666666666667 400 L 513.6 306.7897939922544 L 538.1333333333334 349.15377355420316 L 562.6666666666667 295.53526214729715 L 587.2 327.6094965339929 L 611.7333333333333 284.359488397826 L 636.2666666666667 279 L 660.8000000000001 279.35047352491296 L 685.3333333333334 279.8899664789924 L 709.8666666666667 298.15396882220847 L 734.4000000000001 279 L 758.9333333333334 279.17720571484364 L 783.4666666666667 279 L 808 279.0157516190972 L 808 279 Z" fill="#ff6b6b" opacity="0.15"/><path d="M 72 279 L 72 279 L 96.53333333333333 279.0039379047743 L 121.06666666666666 282.8355192501709 L 145.60000000000002 279.78364305008625 L 170.13333333333333 279.1023855241319 L 194.66666666666669 279.2914049532984 L 219.20000000000002 279 L 243.73333333333335 279 L 268.26666666666665 279 L 292.8 279 L 317.33333333333337 279.6694438116315 L 341.8666666666667 279 L 366.40000000000003 279 L 390.93333333333334 281.24066781657825 L 415.4666666666667 279 L 440 279 L 464.53333333333336 279.1575161909721 L 489.0666666666667 400 L 513.6 306.7897939922544 L 538.1333333333334 349.15377355420316 L 562.6666666666667 295.53526214729715 L 587.2 327.6094965339929 L 611.7333333333333 284.359488397826 L 636.2666666666667 279 L 660.8000000000001 279.35047352491296 L 685.3333333333334 279.8899664789924 L 709.8666666666667 298.15396882220847 L 734.4000000000001 279 L 758.9333333333334 279.17720571484364 L 783.4666666666667 279 L 808 279.0157516190972" fill="none" stroke="#ff6b6b" stroke-width="2"/><text x="72" y="426" fill="#495670" font-size="10" font-family="'Segoe UI', sans-serif" text-anchor="middle">Mar 19</text><text x="194.66666666666669" y="426" fill="#495670" font-size="10" font-family="'Segoe UI', sans-serif" text-anchor="middle">Mar 24</text><text x="317.33333333333337" y="426" fill="#495670" font-size="10" font-family="'Segoe UI', sans-serif" text-anchor="middle">Mar 29</text><text x="440" y="426" fill="#495670" font-size="10" font-family="'Segoe UI', sans-serif" text-anchor="middle">Apr 3</text><text x="562.6666666666667" y="426" fill="#495670" font-size="10" font-family="'Segoe UI', sans-serif" text-anchor="middle">Apr 8</text><text x="685.3333333333334" y="426" fill="#495670" font-size="10" font-family="'Segoe UI', sans-serif" text-anchor="middle">Apr 13</text><text x="808" y="426" fill="#495670" font-size="10" font-family="'Segoe UI', sans-serif" text-anchor="middle">Apr 18</text>
  </g>

  <!-- Legend -->
  <g class="cpd-legend">
    <circle cx="30" cy="442" r="5" fill="#64ffda"/>
    <text x="40" y="446" fill="#8892b0" font-size="11" font-family="'Segoe UI', sans-serif">Additions</text>
    <circle cx="124" cy="442" r="5" fill="#ff6b6b"/>
    <text x="134" y="446" fill="#8892b0" font-size="11" font-family="'Segoe UI', sans-serif">Deletions</text>
    <text x="816" y="446" fill="#495670" font-size="10" font-family="'Segoe UI', sans-serif" text-anchor="end">Last 31 days · +6,462,697 / -1,743,583 lines</text>
  </g>

  <!-- Get your own -->
  <a href="https://github.com/mpge/code-per-day" target="_blank">
    <text x="420" y="452" fill="#495670" font-size="10" font-family="'Segoe UI', sans-serif" text-anchor="middle" opacity="0.6">Get your own — github.com/mpge/code-per-day</text>
  </a>
</svg>