<svg width="840" height="460" viewBox="0 0 840 460" xmlns="http://www.w3.org/2000/svg">
  
    <style>
      @keyframes fadeInUp {
        from { opacity: 0; transform: translateY(12px); }
        to   { opacity: 1; transform: translateY(0); }
      }
      @keyframes growBar {
        from { transform: scaleY(0); }
        to   { transform: scaleY(1); }
      }
      .cpd-header  { animation: fadeInUp 0.5s ease both; }
      .cpd-stats   { animation: fadeInUp 0.5s ease 0.15s both; }
      .cpd-chart   { animation: fadeInUp 0.5s ease 0.3s both; }
      .cpd-legend  { animation: fadeInUp 0.5s ease 0.45s both; }
    </style>

  <!-- Background -->
  <rect width="840" height="460" rx="12" fill="#0d1117" stroke="#30363d" stroke-width="1"/>

  <!-- Header -->
  <g class="cpd-header">
    <a href="https://github.com/mpge/code-per-day" target="_blank">
      <text x="24" y="44" fill="#f0f6fc" font-size="18" font-family="'Segoe UI', sans-serif" font-weight="700">Code Per Day</text>
    </a>
    <text x="816" y="44" fill="#484f58" font-size="13" font-family="'Segoe UI', sans-serif" text-anchor="end" font-weight="500">@mpge</text>
  </g>

  <!-- Stats Cards -->
  <g class="cpd-stats">
    
    <rect x="24" y="60" width="190" height="68" rx="8" fill="#010409" stroke="#30363d" stroke-width="1"/>
    <text x="119" y="78" fill="#484f58" font-size="11" font-family="'Segoe UI', sans-serif" text-anchor="middle" font-weight="500">Today</text>
    <text x="119" y="100" fill="#3fb950" font-size="16" font-family="'Segoe UI Mono', 'Cascadia Code', monospace" text-anchor="middle" font-weight="700">+8,240</text>
    <text x="119" y="118" fill="#f85149" font-size="14" font-family="'Segoe UI Mono', 'Cascadia Code', monospace" text-anchor="middle" font-weight="600">-1,601</text>
    <rect x="222" y="60" width="190" height="68" rx="8" fill="#010409" stroke="#30363d" stroke-width="1"/>
    <text x="317" y="78" fill="#484f58" font-size="11" font-family="'Segoe UI', sans-serif" text-anchor="middle" font-weight="500">30d Avg</text>
    <text x="317" y="100" fill="#3fb950" font-size="16" font-family="'Segoe UI Mono', 'Cascadia Code', monospace" text-anchor="middle" font-weight="700">+216,202</text>
    <text x="317" y="118" fill="#f85149" font-size="14" font-family="'Segoe UI Mono', 'Cascadia Code', monospace" text-anchor="middle" font-weight="600">-57,058</text>
    <rect x="420" y="60" width="190" height="68" rx="8" fill="#010409" stroke="#30363d" stroke-width="1"/>
    <text x="515" y="78" fill="#484f58" font-size="11" font-family="'Segoe UI', sans-serif" text-anchor="middle" font-weight="500">Year Avg</text>
    <text x="515" y="100" fill="#3fb950" font-size="16" font-family="'Segoe UI Mono', 'Cascadia Code', monospace" text-anchor="middle" font-weight="700">+22,303</text>
    <text x="515" y="118" fill="#f85149" font-size="14" font-family="'Segoe UI Mono', 'Cascadia Code', monospace" text-anchor="middle" font-weight="600">-6,417</text>
        <rect x="618" y="60" width="190" height="68" rx="8" fill="#010409" stroke="#30363d" stroke-width="1"/>
        <text x="713" y="78" fill="#484f58" font-size="11" font-family="'Segoe UI', sans-serif" text-anchor="middle" font-weight="500">Streak</text>
        <text x="713" y="104" fill="#2f81f7" font-size="20" font-family="'Segoe UI Mono', 'Cascadia Code', monospace" text-anchor="middle" font-weight="700">155</text>
        <text x="713" y="120" fill="#484f58" font-size="11" font-family="'Segoe UI', sans-serif" text-anchor="middle">days</text>
  </g>

  <!-- Chart -->
  <g class="cpd-chart">
    <line x1="72" y1="148" x2="808" y2="148" stroke="#21262d" stroke-width="1" stroke-dasharray="4,4"/><line x1="72" y1="213.5" x2="808" y2="213.5" stroke="#21262d" stroke-width="1" stroke-dasharray="4,4"/><line x1="72" y1="279" x2="808" y2="279" stroke="#21262d" stroke-width="1" stroke-dasharray="4,4"/><line x1="72" y1="344.5" x2="808" y2="344.5" stroke="#21262d" stroke-width="1" stroke-dasharray="4,4"/><line x1="72" y1="410" x2="808" y2="410" stroke="#21262d" stroke-width="1" stroke-dasharray="4,4"/><line x1="72" y1="279" x2="808" y2="279" stroke="#30363d" stroke-width="1.5"/><text x="64" y="162" fill="#484f58" font-size="10" font-family="'Segoe UI', sans-serif" text-anchor="end">+34,798</text><text x="64" y="406" fill="#484f58" font-size="10" font-family="'Segoe UI', sans-serif" text-anchor="end">-34,798</text><text x="64" y="283" fill="#484f58" font-size="10" font-family="'Segoe UI', sans-serif" text-anchor="end">0</text><path d="M 72 279 L 72 273.7911374216909 L 96.53333333333333 279 L 121.06666666666666 279 L 145.60000000000002 216.05552043220874 L 170.13333333333333 158 L 194.66666666666669 158 L 219.20000000000002 158 L 243.73333333333335 158 L 268.26666666666665 158 L 292.8 234.84289326972814 L 317.33333333333337 256.27990114374387 L 341.8666666666667 158 L 366.40000000000003 251.60305189953445 L 390.93333333333334 278.83309385596874 L 415.4666666666667 279 L 440 278.8157077992988 L 464.53333333333336 279 L 489.0666666666667 261.08888441864474 L 513.6 228.7542962239209 L 538.1333333333334 254.52390942008162 L 562.6666666666667 262.85530777630896 L 587.2 278.9826139433301 L 611.7333333333333 188.81504684177253 L 636.2666666666667 158 L 660.8000000000001 271.270159204552 L 685.3333333333334 183.04983045002587 L 709.8666666666667 158 L 734.4000000000001 239.422380596586 L 758.9333333333334 270.1504971550089 L 783.4666666666667 230.69110293695041 L 808 250.34777860796598 L 808 279 Z" fill="#3fb950" opacity="0.15"/><path d="M 72 279 L 72 273.7911374216909 L 96.53333333333333 279 L 121.06666666666666 279 L 145.60000000000002 216.05552043220874 L 170.13333333333333 158 L 194.66666666666669 158 L 219.20000000000002 158 L 243.73333333333335 158 L 268.26666666666665 158 L 292.8 234.84289326972814 L 317.33333333333337 256.27990114374387 L 341.8666666666667 158 L 366.40000000000003 251.60305189953445 L 390.93333333333334 278.83309385596874 L 415.4666666666667 279 L 440 278.8157077992988 L 464.53333333333336 279 L 489.0666666666667 261.08888441864474 L 513.6 228.7542962239209 L 538.1333333333334 254.52390942008162 L 562.6666666666667 262.85530777630896 L 587.2 278.9826139433301 L 611.7333333333333 188.81504684177253 L 636.2666666666667 158 L 660.8000000000001 271.270159204552 L 685.3333333333334 183.04983045002587 L 709.8666666666667 158 L 734.4000000000001 239.422380596586 L 758.9333333333334 270.1504971550089 L 783.4666666666667 230.69110293695041 L 808 250.34777860796598" fill="none" stroke="#3fb950" stroke-width="2"/><path d="M 72 279 L 72 280.9785332490373 L 96.53333333333333 279 L 121.06666666666666 279 L 145.60000000000002 279.13908845335936 L 170.13333333333333 400 L 194.66666666666669 303.5386803839301 L 219.20000000000002 341.6176217023967 L 243.73333333333335 293.6008103914018 L 268.26666666666665 322.0026725673889 L 292.8 286.2152135180183 L 317.33333333333337 286.0691706419909 L 341.8666666666667 282.25466980860966 L 366.40000000000003 280.0223001321915 L 390.93333333333334 295.9131559285016 L 415.4666666666667 279 L 440 279.1564745100293 L 464.53333333333336 279 L 489.0666666666667 279.39640209207425 L 513.6 281.8686993505374 L 538.1333333333334 285.9370366112995 L 562.6666666666667 279.21558710270705 L 587.2 279 L 611.7333333333333 280.91942065635953 L 636.2666666666667 296.16003793321454 L 660.8000000000001 279.28860854072076 L 685.3333333333334 283.318696476809 L 709.8666666666667 282.0773320305765 L 734.4000000000001 297.3735846887752 L 758.9333333333334 280.8811713316857 L 783.4666666666667 295.1968503937008 L 808 284.56701534570954 L 808 279 Z" fill="#f85149" opacity="0.15"/><path d="M 72 279 L 72 280.9785332490373 L 96.53333333333333 279 L 121.06666666666666 279 L 145.60000000000002 279.13908845335936 L 170.13333333333333 400 L 194.66666666666669 303.5386803839301 L 219.20000000000002 341.6176217023967 L 243.73333333333335 293.6008103914018 L 268.26666666666665 322.0026725673889 L 292.8 286.2152135180183 L 317.33333333333337 286.0691706419909 L 341.8666666666667 282.25466980860966 L 366.40000000000003 280.0223001321915 L 390.93333333333334 295.9131559285016 L 415.4666666666667 279 L 440 279.1564745100293 L 464.53333333333336 279 L 489.0666666666667 279.39640209207425 L 513.6 281.8686993505374 L 538.1333333333334 285.9370366112995 L 562.6666666666667 279.21558710270705 L 587.2 279 L 611.7333333333333 280.91942065635953 L 636.2666666666667 296.16003793321454 L 660.8000000000001 279.28860854072076 L 685.3333333333334 283.318696476809 L 709.8666666666667 282.0773320305765 L 734.4000000000001 297.3735846887752 L 758.9333333333334 280.8811713316857 L 783.4666666666667 295.1968503937008 L 808 284.56701534570954" fill="none" stroke="#f85149" stroke-width="2"/><text x="72" y="426" fill="#484f58" font-size="10" font-family="'Segoe UI', sans-serif" text-anchor="middle">Apr 1</text><text x="194.66666666666669" y="426" fill="#484f58" font-size="10" font-family="'Segoe UI', sans-serif" text-anchor="middle">Apr 6</text><text x="317.33333333333337" y="426" fill="#484f58" font-size="10" font-family="'Segoe UI', sans-serif" text-anchor="middle">Apr 11</text><text x="440" y="426" fill="#484f58" font-size="10" font-family="'Segoe UI', sans-serif" text-anchor="middle">Apr 16</text><text x="562.6666666666667" y="426" fill="#484f58" font-size="10" font-family="'Segoe UI', sans-serif" text-anchor="middle">Apr 21</text><text x="685.3333333333334" y="426" fill="#484f58" font-size="10" font-family="'Segoe UI', sans-serif" text-anchor="middle">Apr 26</text><text x="808" y="426" fill="#484f58" font-size="10" font-family="'Segoe UI', sans-serif" text-anchor="middle">May 1</text>
  </g>

  <!-- Legend -->
  <g class="cpd-legend">
    <circle cx="30" cy="442" r="5" fill="#3fb950"/>
    <text x="40" y="446" fill="#7d8590" font-size="11" font-family="'Segoe UI', sans-serif">Additions</text>
    <circle cx="124" cy="442" r="5" fill="#f85149"/>
    <text x="134" y="446" fill="#7d8590" font-size="11" font-family="'Segoe UI', sans-serif">Deletions</text>
    <text x="816" y="446" fill="#484f58" font-size="10" font-family="'Segoe UI', sans-serif" text-anchor="end">Last 31 days · +6,702,248 / -1,768,797 lines</text>
  </g>

  <!-- Get your own -->
  <a href="https://github.com/mpge/code-per-day" target="_blank">
    <text x="420" y="452" fill="#484f58" font-size="10" font-family="'Segoe UI', sans-serif" text-anchor="middle" opacity="0.6">Get your own — github.com/mpge/code-per-day</text>
  </a>
</svg>