<svg width="840" height="460" viewBox="0 0 840 460" xmlns="http://www.w3.org/2000/svg">
  
    <style>
      @keyframes fadeInUp {
        from { opacity: 0; transform: translateY(12px); }
        to   { opacity: 1; transform: translateY(0); }
      }
      @keyframes growBar {
        from { transform: scaleY(0); }
        to   { transform: scaleY(1); }
      }
      .cpd-header  { animation: fadeInUp 0.5s ease both; }
      .cpd-stats   { animation: fadeInUp 0.5s ease 0.15s both; }
      .cpd-chart   { animation: fadeInUp 0.5s ease 0.3s both; }
      .cpd-legend  { animation: fadeInUp 0.5s ease 0.45s both; }
    </style>

  <!-- Background -->
  <rect width="840" height="460" rx="12" fill="#282a36" stroke="#44475a" stroke-width="1"/>

  <!-- Header -->
  <g class="cpd-header">
    <a href="https://github.com/mpge/code-per-day" target="_blank">
      <text x="24" y="44" fill="#f8f8f2" font-size="18" font-family="'Segoe UI', sans-serif" font-weight="700">Code Per Day</text>
    </a>
    <text x="816" y="44" fill="#6272a4" font-size="13" font-family="'Segoe UI', sans-serif" text-anchor="end" font-weight="500">@mpge</text>
  </g>

  <!-- Stats Cards -->
  <g class="cpd-stats">
    
    <rect x="24" y="60" width="190" height="68" rx="8" fill="#21222c" stroke="#44475a" stroke-width="1"/>
    <text x="119" y="78" fill="#6272a4" font-size="11" font-family="'Segoe UI', sans-serif" text-anchor="middle" font-weight="500">Today</text>
    <text x="119" y="100" fill="#50fa7b" font-size="16" font-family="'Segoe UI Mono', 'Cascadia Code', monospace" text-anchor="middle" font-weight="700">+5</text>
    <text x="119" y="118" fill="#ff5555" font-size="14" font-family="'Segoe UI Mono', 'Cascadia Code', monospace" text-anchor="middle" font-weight="600">+0</text>
    <rect x="222" y="60" width="190" height="68" rx="8" fill="#21222c" stroke="#44475a" stroke-width="1"/>
    <text x="317" y="78" fill="#6272a4" font-size="11" font-family="'Segoe UI', sans-serif" text-anchor="middle" font-weight="500">30d Avg</text>
    <text x="317" y="100" fill="#50fa7b" font-size="16" font-family="'Segoe UI Mono', 'Cascadia Code', monospace" text-anchor="middle" font-weight="700">+210,469</text>
    <text x="317" y="118" fill="#ff5555" font-size="14" font-family="'Segoe UI Mono', 'Cascadia Code', monospace" text-anchor="middle" font-weight="600">-56,528</text>
    <rect x="420" y="60" width="190" height="68" rx="8" fill="#21222c" stroke="#44475a" stroke-width="1"/>
    <text x="515" y="78" fill="#6272a4" font-size="11" font-family="'Segoe UI', sans-serif" text-anchor="middle" font-weight="500">Year Avg</text>
    <text x="515" y="100" fill="#50fa7b" font-size="16" font-family="'Segoe UI Mono', 'Cascadia Code', monospace" text-anchor="middle" font-weight="700">+21,703</text>
    <text x="515" y="118" fill="#ff5555" font-size="14" font-family="'Segoe UI Mono', 'Cascadia Code', monospace" text-anchor="middle" font-weight="600">-6,363</text>
        <rect x="618" y="60" width="190" height="68" rx="8" fill="#21222c" stroke="#44475a" stroke-width="1"/>
        <text x="713" y="78" fill="#6272a4" font-size="11" font-family="'Segoe UI', sans-serif" text-anchor="middle" font-weight="500">Streak</text>
        <text x="713" y="104" fill="#8be9fd" font-size="20" font-family="'Segoe UI Mono', 'Cascadia Code', monospace" text-anchor="middle" font-weight="700">145</text>
        <text x="713" y="120" fill="#6272a4" font-size="11" font-family="'Segoe UI', sans-serif" text-anchor="middle">days</text>
  </g>

  <!-- Chart -->
  <g class="cpd-chart">
    <line x1="72" y1="148" x2="808" y2="148" stroke="#383a4a" stroke-width="1" stroke-dasharray="4,4"/><line x1="72" y1="213.5" x2="808" y2="213.5" stroke="#383a4a" stroke-width="1" stroke-dasharray="4,4"/><line x1="72" y1="279" x2="808" y2="279" stroke="#383a4a" stroke-width="1" stroke-dasharray="4,4"/><line x1="72" y1="344.5" x2="808" y2="344.5" stroke="#383a4a" stroke-width="1" stroke-dasharray="4,4"/><line x1="72" y1="410" x2="808" y2="410" stroke="#383a4a" stroke-width="1" stroke-dasharray="4,4"/><line x1="72" y1="279" x2="808" y2="279" stroke="#44475a" stroke-width="1.5"/><text x="64" y="162" fill="#6272a4" font-size="10" font-family="'Segoe UI', sans-serif" text-anchor="end">+35,870</text><text x="64" y="406" fill="#6272a4" font-size="10" font-family="'Segoe UI', sans-serif" text-anchor="end">-35,870</text><text x="64" y="283" fill="#6272a4" font-size="10" font-family="'Segoe UI', sans-serif" text-anchor="end">0</text><path d="M 72 279 L 72 226.73083356565377 L 96.53333333333333 273.4172010036242 L 121.06666666666666 225.99545581265681 L 145.60000000000002 279 L 170.13333333333333 278.8043490381935 L 194.66666666666669 279 L 219.20000000000002 250.71831614162252 L 243.73333333333335 277.05698355171455 L 268.26666666666665 279 L 292.8 273.94680791747976 L 317.33333333333337 279 L 341.8666666666667 279 L 366.40000000000003 217.936660161695 L 390.93333333333334 158 L 415.4666666666667 158 L 440 158 L 464.53333333333336 158 L 489.0666666666667 158 L 513.6 236.16255924170616 L 538.1333333333334 256.9589071647616 L 562.6666666666667 158 L 587.2 252.42182882631727 L 611.7333333333333 278.8380819626429 L 636.2666666666667 279 L 660.8000000000001 278.8212155004182 L 685.3333333333334 279 L 709.8666666666667 261.62417061611376 L 734.4000000000001 230.2559241706161 L 758.9333333333334 255.2553944800669 L 783.4666666666667 263.3378031781433 L 808 278.9831335377753 L 808 279 Z" fill="#50fa7b" opacity="0.15"/><path d="M 72 279 L 72 226.73083356565377 L 96.53333333333333 273.4172010036242 L 121.06666666666666 225.99545581265681 L 145.60000000000002 279 L 170.13333333333333 278.8043490381935 L 194.66666666666669 279 L 219.20000000000002 250.71831614162252 L 243.73333333333335 277.05698355171455 L 268.26666666666665 279 L 292.8 273.94680791747976 L 317.33333333333337 279 L 341.8666666666667 279 L 366.40000000000003 217.936660161695 L 390.93333333333334 158 L 415.4666666666667 158 L 440 158 L 464.53333333333336 158 L 489.0666666666667 158 L 513.6 236.16255924170616 L 538.1333333333334 256.9589071647616 L 562.6666666666667 158 L 587.2 252.42182882631727 L 611.7333333333333 278.8380819626429 L 636.2666666666667 279 L 660.8000000000001 278.8212155004182 L 685.3333333333334 279 L 709.8666666666667 261.62417061611376 L 734.4000000000001 230.2559241706161 L 758.9333333333334 255.2553944800669 L 783.4666666666667 263.3378031781433 L 808 278.9831335377753" fill="none" stroke="#50fa7b" stroke-width="2"/><path d="M 72 279 L 72 279.1484248675774 L 96.53333333333333 279.3879286311681 L 121.06666666666666 289.03554502369667 L 145.60000000000002 279 L 170.13333333333333 279.1248118204628 L 194.66666666666669 279 L 219.20000000000002 279.5734597156398 L 243.73333333333335 279 L 268.26666666666665 279 L 292.8 280.9194034011709 L 317.33333333333337 279 L 341.8666666666667 279 L 366.40000000000003 279.1349316977976 L 390.93333333333334 400 L 415.4666666666667 302.805324783942 L 440 339.7462503484806 L 464.53333333333336 293.1644549763033 L 489.0666666666667 320.71750766657374 L 513.6 285.99958182325065 L 538.1333333333334 285.85790354056314 L 562.6666666666667 282.1574017284639 L 587.2 279.9917479788124 L 611.7333333333333 295.4076944521885 L 636.2666666666667 279 L 660.8000000000001 279.1517981600223 L 685.3333333333334 279 L 709.8666666666667 279.38455533872315 L 734.4000000000001 281.78296626707555 L 758.9333333333334 285.7297184276554 L 783.4666666666667 279.2091441315863 L 808 279 L 808 279 Z" fill="#ff5555" opacity="0.15"/><path d="M 72 279 L 72 279.1484248675774 L 96.53333333333333 279.3879286311681 L 121.06666666666666 289.03554502369667 L 145.60000000000002 279 L 170.13333333333333 279.1248118204628 L 194.66666666666669 279 L 219.20000000000002 279.5734597156398 L 243.73333333333335 279 L 268.26666666666665 279 L 292.8 280.9194034011709 L 317.33333333333337 279 L 341.8666666666667 279 L 366.40000000000003 279.1349316977976 L 390.93333333333334 400 L 415.4666666666667 302.805324783942 L 440 339.7462503484806 L 464.53333333333336 293.1644549763033 L 489.0666666666667 320.71750766657374 L 513.6 285.99958182325065 L 538.1333333333334 285.85790354056314 L 562.6666666666667 282.1574017284639 L 587.2 279.9917479788124 L 611.7333333333333 295.4076944521885 L 636.2666666666667 279 L 660.8000000000001 279.1517981600223 L 685.3333333333334 279 L 709.8666666666667 279.38455533872315 L 734.4000000000001 281.78296626707555 L 758.9333333333334 285.7297184276554 L 783.4666666666667 279.2091441315863 L 808 279" fill="none" stroke="#ff5555" stroke-width="2"/><text x="72" y="426" fill="#6272a4" font-size="10" font-family="'Segoe UI', sans-serif" text-anchor="middle">Mar 23</text><text x="194.66666666666669" y="426" fill="#6272a4" font-size="10" font-family="'Segoe UI', sans-serif" text-anchor="middle">Mar 28</text><text x="317.33333333333337" y="426" fill="#6272a4" font-size="10" font-family="'Segoe UI', sans-serif" text-anchor="middle">Apr 2</text><text x="440" y="426" fill="#6272a4" font-size="10" font-family="'Segoe UI', sans-serif" text-anchor="middle">Apr 7</text><text x="562.6666666666667" y="426" fill="#6272a4" font-size="10" font-family="'Segoe UI', sans-serif" text-anchor="middle">Apr 12</text><text x="685.3333333333334" y="426" fill="#6272a4" font-size="10" font-family="'Segoe UI', sans-serif" text-anchor="middle">Apr 17</text><text x="808" y="426" fill="#6272a4" font-size="10" font-family="'Segoe UI', sans-serif" text-anchor="middle">Apr 22</text>
  </g>

  <!-- Legend -->
  <g class="cpd-legend">
    <circle cx="30" cy="442" r="5" fill="#50fa7b"/>
    <text x="40" y="446" fill="#bd93f9" font-size="11" font-family="'Segoe UI', sans-serif">Additions</text>
    <circle cx="124" cy="442" r="5" fill="#ff5555"/>
    <text x="134" y="446" fill="#bd93f9" font-size="11" font-family="'Segoe UI', sans-serif">Deletions</text>
    <text x="816" y="446" fill="#6272a4" font-size="10" font-family="'Segoe UI', sans-serif" text-anchor="end">Last 31 days · +6,524,542 / -1,752,357 lines</text>
  </g>

  <!-- Get your own -->
  <a href="https://github.com/mpge/code-per-day" target="_blank">
    <text x="420" y="452" fill="#6272a4" font-size="10" font-family="'Segoe UI', sans-serif" text-anchor="middle" opacity="0.6">Get your own — github.com/mpge/code-per-day</text>
  </a>
</svg>