<svg width="840" height="460" viewBox="0 0 840 460" xmlns="http://www.w3.org/2000/svg">
  
    <style>
      @keyframes fadeInUp {
        from { opacity: 0; transform: translateY(12px); }
        to   { opacity: 1; transform: translateY(0); }
      }
      @keyframes growBar {
        from { transform: scaleY(0); }
        to   { transform: scaleY(1); }
      }
      .cpd-header  { animation: fadeInUp 0.5s ease both; }
      .cpd-stats   { animation: fadeInUp 0.5s ease 0.15s both; }
      .cpd-chart   { animation: fadeInUp 0.5s ease 0.3s both; }
      .cpd-legend  { animation: fadeInUp 0.5s ease 0.45s both; }
    </style>

  <rect width="840" height="460" rx="12" fill="#0d1117" stroke="#30363d" stroke-width="1"/>

  <g class="cpd-header">
    <a href="https://github.com/mpge/code-per-day" target="_blank">
      <text x="24" y="44" fill="#e6edf3" font-size="18" font-family="'Segoe UI', sans-serif" font-weight="700">Code Per Day</text>
    </a>
    <text x="816" y="44" fill="#6e7681" font-size="13" font-family="'Segoe UI', sans-serif" text-anchor="end" font-weight="500">@mpge</text>
  </g>

  <g class="cpd-stats">
    
    <rect x="24" y="60" width="190" height="68" rx="8" fill="#0d1117" stroke="#30363d" stroke-width="1"/>
    <text x="119" y="78" fill="#6e7681" font-size="11" font-family="'Segoe UI', sans-serif" text-anchor="middle" font-weight="500">Today</text>
    <text x="119" y="100" fill="#3fb950" font-size="16" font-family="'Segoe UI Mono', 'Cascadia Code', monospace" text-anchor="middle" font-weight="700">+0</text>
    <text x="119" y="118" fill="#f85149" font-size="14" font-family="'Segoe UI Mono', 'Cascadia Code', monospace" text-anchor="middle" font-weight="600">+0</text>
    <rect x="222" y="60" width="190" height="68" rx="8" fill="#0d1117" stroke="#30363d" stroke-width="1"/>
    <text x="317" y="78" fill="#6e7681" font-size="11" font-family="'Segoe UI', sans-serif" text-anchor="middle" font-weight="500">30d Avg</text>
    <text x="317" y="100" fill="#3fb950" font-size="16" font-family="'Segoe UI Mono', 'Cascadia Code', monospace" text-anchor="middle" font-weight="700">+8,352</text>
    <text x="317" y="118" fill="#f85149" font-size="14" font-family="'Segoe UI Mono', 'Cascadia Code', monospace" text-anchor="middle" font-weight="600">-969</text>
    <rect x="420" y="60" width="190" height="68" rx="8" fill="#0d1117" stroke="#30363d" stroke-width="1"/>
    <text x="515" y="78" fill="#6e7681" font-size="11" font-family="'Segoe UI', sans-serif" text-anchor="middle" font-weight="500">Year Avg</text>
    <text x="515" y="100" fill="#3fb950" font-size="16" font-family="'Segoe UI Mono', 'Cascadia Code', monospace" text-anchor="middle" font-weight="700">+26,156</text>
    <text x="515" y="118" fill="#f85149" font-size="14" font-family="'Segoe UI Mono', 'Cascadia Code', monospace" text-anchor="middle" font-weight="600">-7,152</text>
    <rect x="618" y="60" width="190" height="68" rx="8" fill="#0d1117" stroke="#30363d" stroke-width="1"/>
    <text x="713" y="78" fill="#6e7681" font-size="11" font-family="'Segoe UI', sans-serif" text-anchor="middle" font-weight="500">Streak</text>
    <text x="713" y="104" fill="#58a6ff" font-size="20" font-family="'Segoe UI Mono', 'Cascadia Code', monospace" text-anchor="middle" font-weight="700">225</text>
    <text x="713" y="120" fill="#6e7681" font-size="11" font-family="'Segoe UI', sans-serif" text-anchor="middle">days</text>
  </g>

  <g class="cpd-chart">
    <line x1="72" y1="148" x2="808" y2="148" stroke="#21262d" stroke-width="1" stroke-dasharray="4,4"/><line x1="72" y1="213.5" x2="808" y2="213.5" stroke="#21262d" stroke-width="1" stroke-dasharray="4,4"/><line x1="72" y1="279" x2="808" y2="279" stroke="#21262d" stroke-width="1" stroke-dasharray="4,4"/><line x1="72" y1="344.5" x2="808" y2="344.5" stroke="#21262d" stroke-width="1" stroke-dasharray="4,4"/><line x1="72" y1="410" x2="808" y2="410" stroke="#21262d" stroke-width="1" stroke-dasharray="4,4"/><line x1="72" y1="279" x2="808" y2="279" stroke="#30363d" stroke-width="1.5"/><text x="64" y="162" fill="#6e7681" font-size="10" font-family="'Segoe UI', sans-serif" text-anchor="end">+10,915</text><text x="64" y="406" fill="#6e7681" font-size="10" font-family="'Segoe UI', sans-serif" text-anchor="end">-10,915</text><text x="64" y="283" fill="#6e7681" font-size="10" font-family="'Segoe UI', sans-serif" text-anchor="end">0</text><path d="M 72 279 L 72 279 L 96.53333333333333 278.16857535501606 L 121.06666666666666 274.5879065506184 L 145.60000000000002 227.29647274393037 L 170.13333333333333 271.04049473202014 L 194.66666666666669 279 L 219.20000000000002 263.15858909757213 L 243.73333333333335 224.43637196518551 L 268.26666666666665 217.23069170865782 L 292.8 244.95593220338984 L 317.33333333333337 158 L 341.8666666666667 184.20650480989462 L 366.40000000000003 158 L 390.93333333333334 198.50700870361885 L 415.4666666666667 201.88813559322034 L 440 258.6356390288594 L 464.53333333333336 263.26944571690336 L 489.0666666666667 228.88172240036647 L 513.6 158 L 538.1333333333334 243.72542372881355 L 562.6666666666667 250.95327530920753 L 587.2 275.34173156207055 L 611.7333333333333 279 L 636.2666666666667 276.1398992212552 L 660.8000000000001 271.3398076042144 L 685.3333333333334 279 L 709.8666666666667 264.2006413192854 L 734.4000000000001 258.1256985799359 L 758.9333333333334 279 L 783.4666666666667 279 L 808 279 L 808 279 Z" fill="#3fb950" opacity="0.15"/><path d="M 72 279 L 72 279 L 96.53333333333333 278.16857535501606 L 121.06666666666666 274.5879065506184 L 145.60000000000002 227.29647274393037 L 170.13333333333333 271.04049473202014 L 194.66666666666669 279 L 219.20000000000002 263.15858909757213 L 243.73333333333335 224.43637196518551 L 268.26666666666665 217.23069170865782 L 292.8 244.95593220338984 L 317.33333333333337 158 L 341.8666666666667 184.20650480989462 L 366.40000000000003 158 L 390.93333333333334 198.50700870361885 L 415.4666666666667 201.88813559322034 L 440 258.6356390288594 L 464.53333333333336 263.26944571690336 L 489.0666666666667 228.88172240036647 L 513.6 158 L 538.1333333333334 243.72542372881355 L 562.6666666666667 250.95327530920753 L 587.2 275.34173156207055 L 611.7333333333333 279 L 636.2666666666667 276.1398992212552 L 660.8000000000001 271.3398076042144 L 685.3333333333334 279 L 709.8666666666667 264.2006413192854 L 734.4000000000001 258.1256985799359 L 758.9333333333334 279 L 783.4666666666667 279 L 808 279" fill="none" stroke="#3fb950" stroke-width="2"/><path d="M 72 279 L 72 279 L 96.53333333333333 279.98662391204766 L 121.06666666666666 281.3279890059551 L 145.60000000000002 329.29564819056344 L 170.13333333333333 279.3325698579936 L 194.66666666666669 279 L 219.20000000000002 282.92432432432435 L 243.73333333333335 284.74237288135595 L 268.26666666666665 289.7420064131928 L 292.8 280.23050847457625 L 317.33333333333337 341.5674759505268 L 341.8666666666667 288.9105817682089 L 366.40000000000003 308.7428309665598 L 390.93333333333334 291.50462666055887 L 415.4666666666667 279.75382501145214 L 440 280.8623912047641 L 464.53333333333336 279.9533669262483 L 489.0666666666667 282.1594136509391 L 513.6 370.7227668346312 L 538.1333333333334 286.3165368758589 L 562.6666666666667 286.6601923957856 L 587.2 279 L 611.7333333333333 279 L 636.2666666666667 280.6850206138342 L 660.8000000000001 280.5963353183692 L 685.3333333333334 279 L 709.8666666666667 284.287860742098 L 734.4000000000001 299.5306459001374 L 758.9333333333334 279 L 783.4666666666667 279 L 808 279 L 808 279 Z" fill="#f85149" opacity="0.15"/><path d="M 72 279 L 72 279 L 96.53333333333333 279.98662391204766 L 121.06666666666666 281.3279890059551 L 145.60000000000002 329.29564819056344 L 170.13333333333333 279.3325698579936 L 194.66666666666669 279 L 219.20000000000002 282.92432432432435 L 243.73333333333335 284.74237288135595 L 268.26666666666665 289.7420064131928 L 292.8 280.23050847457625 L 317.33333333333337 341.5674759505268 L 341.8666666666667 288.9105817682089 L 366.40000000000003 308.7428309665598 L 390.93333333333334 291.50462666055887 L 415.4666666666667 279.75382501145214 L 440 280.8623912047641 L 464.53333333333336 279.9533669262483 L 489.0666666666667 282.1594136509391 L 513.6 370.7227668346312 L 538.1333333333334 286.3165368758589 L 562.6666666666667 286.6601923957856 L 587.2 279 L 611.7333333333333 279 L 636.2666666666667 280.6850206138342 L 660.8000000000001 280.5963353183692 L 685.3333333333334 279 L 709.8666666666667 284.287860742098 L 734.4000000000001 299.5306459001374 L 758.9333333333334 279 L 783.4666666666667 279 L 808 279" fill="none" stroke="#f85149" stroke-width="2"/><text x="72" y="426" fill="#6e7681" font-size="10" font-family="'Segoe UI', sans-serif" text-anchor="middle">Jun 11</text><text x="194.66666666666669" y="426" fill="#6e7681" font-size="10" font-family="'Segoe UI', sans-serif" text-anchor="middle">Jun 16</text><text x="317.33333333333337" y="426" fill="#6e7681" font-size="10" font-family="'Segoe UI', sans-serif" text-anchor="middle">Jun 21</text><text x="440" y="426" fill="#6e7681" font-size="10" font-family="'Segoe UI', sans-serif" text-anchor="middle">Jun 26</text><text x="562.6666666666667" y="426" fill="#6e7681" font-size="10" font-family="'Segoe UI', sans-serif" text-anchor="middle">Jul 1</text><text x="685.3333333333334" y="426" fill="#6e7681" font-size="10" font-family="'Segoe UI', sans-serif" text-anchor="middle">Jul 6</text><text x="808" y="426" fill="#6e7681" font-size="10" font-family="'Segoe UI', sans-serif" text-anchor="middle">Jul 11</text>
  </g>

  <g class="cpd-legend">
    
    <circle cx="30" cy="442" r="5" fill="#3fb950"/>
    <text x="40" y="446" fill="#8b949e" font-size="11" font-family="'Segoe UI', sans-serif">Additions</text>
    <circle cx="124" cy="442" r="5" fill="#f85149"/>
    <text x="134" y="446" fill="#8b949e" font-size="11" font-family="'Segoe UI', sans-serif">Deletions</text>
    <text x="816" y="446" fill="#6e7681" font-size="10" font-family="'Segoe UI', sans-serif" text-anchor="end">Last 31 days · +258,918 / -30,024 lines</text>
  </g>

  <a href="https://github.com/mpge/code-per-day" target="_blank">
    <text x="420" y="452" fill="#6e7681" font-size="10" font-family="'Segoe UI', sans-serif" text-anchor="middle" opacity="0.6">Get your own - github.com/mpge/code-per-day</text>
  </a>
</svg>