<svg width="840" height="460" viewBox="0 0 840 460" xmlns="http://www.w3.org/2000/svg">
  
    <style>
      @keyframes fadeInUp {
        from { opacity: 0; transform: translateY(12px); }
        to   { opacity: 1; transform: translateY(0); }
      }
      @keyframes growBar {
        from { transform: scaleY(0); }
        to   { transform: scaleY(1); }
      }
      .cpd-header  { animation: fadeInUp 0.5s ease both; }
      .cpd-stats   { animation: fadeInUp 0.5s ease 0.15s both; }
      .cpd-chart   { animation: fadeInUp 0.5s ease 0.3s both; }
      .cpd-legend  { animation: fadeInUp 0.5s ease 0.45s both; }
    </style>

  <rect width="840" height="460" rx="12" fill="#2e3440" stroke="#4c566a" stroke-width="1"/>

  <g class="cpd-header">
    <a href="https://github.com/mpge/code-per-day" target="_blank">
      <text x="24" y="44" fill="#eceff4" font-size="18" font-family="'Segoe UI', sans-serif" font-weight="700">Code Per Day</text>
    </a>
    <text x="816" y="44" fill="#81a1c1" font-size="13" font-family="'Segoe UI', sans-serif" text-anchor="end" font-weight="500">@mpge</text>
  </g>

  <g class="cpd-stats">
    
    <rect x="24" y="60" width="190" height="68" rx="8" fill="#2e3440" stroke="#4c566a" stroke-width="1"/>
    <text x="119" y="78" fill="#81a1c1" font-size="11" font-family="'Segoe UI', sans-serif" text-anchor="middle" font-weight="500">Today</text>
    <text x="119" y="100" fill="#a3be8c" font-size="16" font-family="'Segoe UI Mono', 'Cascadia Code', monospace" text-anchor="middle" font-weight="700">+0</text>
    <text x="119" y="118" fill="#bf616a" font-size="14" font-family="'Segoe UI Mono', 'Cascadia Code', monospace" text-anchor="middle" font-weight="600">+0</text>
    <rect x="222" y="60" width="190" height="68" rx="8" fill="#2e3440" stroke="#4c566a" stroke-width="1"/>
    <text x="317" y="78" fill="#81a1c1" font-size="11" font-family="'Segoe UI', sans-serif" text-anchor="middle" font-weight="500">30d Avg</text>
    <text x="317" y="100" fill="#a3be8c" font-size="16" font-family="'Segoe UI Mono', 'Cascadia Code', monospace" text-anchor="middle" font-weight="700">+15,526</text>
    <text x="317" y="118" fill="#bf616a" font-size="14" font-family="'Segoe UI Mono', 'Cascadia Code', monospace" text-anchor="middle" font-weight="600">-6,016</text>
    <rect x="420" y="60" width="190" height="68" rx="8" fill="#2e3440" stroke="#4c566a" stroke-width="1"/>
    <text x="515" y="78" fill="#81a1c1" font-size="11" font-family="'Segoe UI', sans-serif" text-anchor="middle" font-weight="500">Year Avg</text>
    <text x="515" y="100" fill="#a3be8c" font-size="16" font-family="'Segoe UI Mono', 'Cascadia Code', monospace" text-anchor="middle" font-weight="700">+25,319</text>
    <text x="515" y="118" fill="#bf616a" font-size="14" font-family="'Segoe UI Mono', 'Cascadia Code', monospace" text-anchor="middle" font-weight="600">-7,046</text>
    <rect x="618" y="60" width="190" height="68" rx="8" fill="#2e3440" stroke="#4c566a" stroke-width="1"/>
    <text x="713" y="78" fill="#81a1c1" font-size="11" font-family="'Segoe UI', sans-serif" text-anchor="middle" font-weight="500">Streak</text>
    <text x="713" y="104" fill="#88c0d0" font-size="20" font-family="'Segoe UI Mono', 'Cascadia Code', monospace" text-anchor="middle" font-weight="700">201</text>
    <text x="713" y="120" fill="#81a1c1" font-size="11" font-family="'Segoe UI', sans-serif" text-anchor="middle">days</text>
  </g>

  <g class="cpd-chart">
    <line x1="72" y1="148" x2="808" y2="148" stroke="#434c5e" stroke-width="1" stroke-dasharray="4,4"/><line x1="72" y1="213.5" x2="808" y2="213.5" stroke="#434c5e" stroke-width="1" stroke-dasharray="4,4"/><line x1="72" y1="279" x2="808" y2="279" stroke="#434c5e" stroke-width="1" stroke-dasharray="4,4"/><line x1="72" y1="344.5" x2="808" y2="344.5" stroke="#434c5e" stroke-width="1" stroke-dasharray="4,4"/><line x1="72" y1="410" x2="808" y2="410" stroke="#434c5e" stroke-width="1" stroke-dasharray="4,4"/><line x1="72" y1="279" x2="808" y2="279" stroke="#4c566a" stroke-width="1.5"/><text x="64" y="162" fill="#81a1c1" font-size="10" font-family="'Segoe UI', sans-serif" text-anchor="end">+34,697</text><text x="64" y="406" fill="#81a1c1" font-size="10" font-family="'Segoe UI', sans-serif" text-anchor="end">-34,697</text><text x="64" y="283" fill="#81a1c1" font-size="10" font-family="'Segoe UI', sans-serif" text-anchor="end">0</text><path d="M 72 279 L 72 158 L 96.53333333333333 158 L 121.06666666666666 158 L 145.60000000000002 202.1252269648673 L 170.13333333333333 276.9354987462893 L 194.66666666666669 262.5014266363086 L 219.20000000000002 234.69343170879327 L 243.73333333333335 271.40110095973716 L 268.26666666666665 279 L 292.8 274.70709283223334 L 317.33333333333337 269.155258379687 L 341.8666666666667 205.92990748479696 L 366.40000000000003 238.3655935671672 L 390.93333333333334 248.47188517739286 L 415.4666666666667 158 L 440 214.49479782113727 L 464.53333333333336 158 L 489.0666666666667 209.72761333832898 L 513.6 256.29048620918235 L 538.1333333333334 229.6088999048909 L 562.6666666666667 278.33043202582354 L 587.2 279 L 611.7333333333333 272.6670029109145 L 636.2666666666667 279 L 660.8000000000001 264.1927832377439 L 685.3333333333334 279 L 709.8666666666667 278.7384500100873 L 734.4000000000001 277.61204138686344 L 758.9333333333334 262.7350779606306 L 783.4666666666667 276.496094763236 L 808 279 L 808 279 Z" fill="#a3be8c" opacity="0.15"/><path d="M 72 279 L 72 158 L 96.53333333333333 158 L 121.06666666666666 158 L 145.60000000000002 202.1252269648673 L 170.13333333333333 276.9354987462893 L 194.66666666666669 262.5014266363086 L 219.20000000000002 234.69343170879327 L 243.73333333333335 271.40110095973716 L 268.26666666666665 279 L 292.8 274.70709283223334 L 317.33333333333337 269.155258379687 L 341.8666666666667 205.92990748479696 L 366.40000000000003 238.3655935671672 L 390.93333333333334 248.47188517739286 L 415.4666666666667 158 L 440 214.49479782113727 L 464.53333333333336 158 L 489.0666666666667 209.72761333832898 L 513.6 256.29048620918235 L 538.1333333333334 229.6088999048909 L 562.6666666666667 278.33043202582354 L 587.2 279 L 611.7333333333333 272.6670029109145 L 636.2666666666667 279 L 660.8000000000001 264.1927832377439 L 685.3333333333334 279 L 709.8666666666667 278.7384500100873 L 734.4000000000001 277.61204138686344 L 758.9333333333334 262.7350779606306 L 783.4666666666667 276.496094763236 L 808 279" fill="none" stroke="#a3be8c" stroke-width="2"/><path d="M 72 279 L 72 283.54748249128164 L 96.53333333333333 280.6425339366516 L 121.06666666666666 400 L 145.60000000000002 309.3781594950572 L 170.13333333333333 280.3670346139436 L 194.66666666666669 291.70086751015936 L 219.20000000000002 297.91180793728563 L 243.73333333333335 280.6529959362481 L 268.26666666666665 279 L 292.8 279.4289419834568 L 317.33333333333337 280.6529959362481 L 341.8666666666667 295.0905553794276 L 366.40000000000003 297.15854396633716 L 390.93333333333334 281.49344323716747 L 415.4666666666667 326.2673141770182 L 440 400 L 464.53333333333336 385.3008905669078 L 489.0666666666667 297.98155460126236 L 513.6 282.51174453122746 L 538.1333333333334 286.0374383952503 L 562.6666666666667 279.20923999193013 L 587.2 279 L 611.7333333333333 279.0383606651872 L 636.2666666666667 279 L 660.8000000000001 279.2859613223045 L 685.3333333333334 279 L 709.8666666666667 279.3103726546964 L 734.4000000000001 279.7323399717555 L 758.9333333333334 294.8220307231173 L 783.4666666666667 279.1046199959651 L 808 279 L 808 279 Z" fill="#bf616a" opacity="0.15"/><path d="M 72 279 L 72 283.54748249128164 L 96.53333333333333 280.6425339366516 L 121.06666666666666 400 L 145.60000000000002 309.3781594950572 L 170.13333333333333 280.3670346139436 L 194.66666666666669 291.70086751015936 L 219.20000000000002 297.91180793728563 L 243.73333333333335 280.6529959362481 L 268.26666666666665 279 L 292.8 279.4289419834568 L 317.33333333333337 280.6529959362481 L 341.8666666666667 295.0905553794276 L 366.40000000000003 297.15854396633716 L 390.93333333333334 281.49344323716747 L 415.4666666666667 326.2673141770182 L 440 400 L 464.53333333333336 385.3008905669078 L 489.0666666666667 297.98155460126236 L 513.6 282.51174453122746 L 538.1333333333334 286.0374383952503 L 562.6666666666667 279.20923999193013 L 587.2 279 L 611.7333333333333 279.0383606651872 L 636.2666666666667 279 L 660.8000000000001 279.2859613223045 L 685.3333333333334 279 L 709.8666666666667 279.3103726546964 L 734.4000000000001 279.7323399717555 L 758.9333333333334 294.8220307231173 L 783.4666666666667 279.1046199959651 L 808 279" fill="none" stroke="#bf616a" stroke-width="2"/><text x="72" y="426" fill="#81a1c1" font-size="10" font-family="'Segoe UI', sans-serif" text-anchor="middle">May 17</text><text x="194.66666666666669" y="426" fill="#81a1c1" font-size="10" font-family="'Segoe UI', sans-serif" text-anchor="middle">May 22</text><text x="317.33333333333337" y="426" fill="#81a1c1" font-size="10" font-family="'Segoe UI', sans-serif" text-anchor="middle">May 27</text><text x="440" y="426" fill="#81a1c1" font-size="10" font-family="'Segoe UI', sans-serif" text-anchor="middle">Jun 1</text><text x="562.6666666666667" y="426" fill="#81a1c1" font-size="10" font-family="'Segoe UI', sans-serif" text-anchor="middle">Jun 6</text><text x="685.3333333333334" y="426" fill="#81a1c1" font-size="10" font-family="'Segoe UI', sans-serif" text-anchor="middle">Jun 11</text><text x="808" y="426" fill="#81a1c1" font-size="10" font-family="'Segoe UI', sans-serif" text-anchor="middle">Jun 16</text>
  </g>

  <g class="cpd-legend">
    
    <circle cx="30" cy="442" r="5" fill="#a3be8c"/>
    <text x="40" y="446" fill="#d8dee9" font-size="11" font-family="'Segoe UI', sans-serif">Additions</text>
    <circle cx="124" cy="442" r="5" fill="#bf616a"/>
    <text x="134" y="446" fill="#d8dee9" font-size="11" font-family="'Segoe UI', sans-serif">Deletions</text>
    <text x="816" y="446" fill="#81a1c1" font-size="10" font-family="'Segoe UI', sans-serif" text-anchor="end">Last 31 days · +481,298 / -186,496 lines</text>
  </g>

  <a href="https://github.com/mpge/code-per-day" target="_blank">
    <text x="420" y="452" fill="#81a1c1" font-size="10" font-family="'Segoe UI', sans-serif" text-anchor="middle" opacity="0.6">Get your own - github.com/mpge/code-per-day</text>
  </a>
</svg>