<svg width="840" height="460" viewBox="0 0 840 460" xmlns="http://www.w3.org/2000/svg">
  
    <style>
      @keyframes fadeInUp {
        from { opacity: 0; transform: translateY(12px); }
        to   { opacity: 1; transform: translateY(0); }
      }
      @keyframes growBar {
        from { transform: scaleY(0); }
        to   { transform: scaleY(1); }
      }
      .cpd-header  { animation: fadeInUp 0.5s ease both; }
      .cpd-stats   { animation: fadeInUp 0.5s ease 0.15s both; }
      .cpd-chart   { animation: fadeInUp 0.5s ease 0.3s both; }
      .cpd-legend  { animation: fadeInUp 0.5s ease 0.45s both; }
    </style>

  <rect width="840" height="460" rx="12" fill="#0d1117" stroke="#30363d" stroke-width="1"/>

  <g class="cpd-header">
    <a href="https://github.com/mpge/code-per-day" target="_blank">
      <text x="24" y="44" fill="#e6edf3" font-size="18" font-family="'Segoe UI', sans-serif" font-weight="700">Code Per Day</text>
    </a>
    <text x="816" y="44" fill="#6e7681" font-size="13" font-family="'Segoe UI', sans-serif" text-anchor="end" font-weight="500">@mpge</text>
  </g>

  <g class="cpd-stats">
    
    <rect x="24" y="60" width="190" height="68" rx="8" fill="#0d1117" stroke="#30363d" stroke-width="1"/>
    <text x="119" y="78" fill="#6e7681" font-size="11" font-family="'Segoe UI', sans-serif" text-anchor="middle" font-weight="500">Today</text>
    <text x="119" y="100" fill="#3fb950" font-size="16" font-family="'Segoe UI Mono', 'Cascadia Code', monospace" text-anchor="middle" font-weight="700">+763</text>
    <text x="119" y="118" fill="#f85149" font-size="14" font-family="'Segoe UI Mono', 'Cascadia Code', monospace" text-anchor="middle" font-weight="600">-25</text>
    <rect x="222" y="60" width="190" height="68" rx="8" fill="#0d1117" stroke="#30363d" stroke-width="1"/>
    <text x="317" y="78" fill="#6e7681" font-size="11" font-family="'Segoe UI', sans-serif" text-anchor="middle" font-weight="500">30d Avg</text>
    <text x="317" y="100" fill="#3fb950" font-size="16" font-family="'Segoe UI Mono', 'Cascadia Code', monospace" text-anchor="middle" font-weight="700">+172,148</text>
    <text x="317" y="118" fill="#f85149" font-size="14" font-family="'Segoe UI Mono', 'Cascadia Code', monospace" text-anchor="middle" font-weight="600">-2,870</text>
    <rect x="420" y="60" width="190" height="68" rx="8" fill="#0d1117" stroke="#30363d" stroke-width="1"/>
    <text x="515" y="78" fill="#6e7681" font-size="11" font-family="'Segoe UI', sans-serif" text-anchor="middle" font-weight="500">Year Avg</text>
    <text x="515" y="100" fill="#3fb950" font-size="16" font-family="'Segoe UI Mono', 'Cascadia Code', monospace" text-anchor="middle" font-weight="700">+24,308</text>
    <text x="515" y="118" fill="#f85149" font-size="14" font-family="'Segoe UI Mono', 'Cascadia Code', monospace" text-anchor="middle" font-weight="600">-6,581</text>
    <rect x="618" y="60" width="190" height="68" rx="8" fill="#0d1117" stroke="#30363d" stroke-width="1"/>
    <text x="713" y="78" fill="#6e7681" font-size="11" font-family="'Segoe UI', sans-serif" text-anchor="middle" font-weight="500">Streak</text>
    <text x="713" y="104" fill="#58a6ff" font-size="20" font-family="'Segoe UI Mono', 'Cascadia Code', monospace" text-anchor="middle" font-weight="700">165</text>
    <text x="713" y="120" fill="#6e7681" font-size="11" font-family="'Segoe UI', sans-serif" text-anchor="middle">days</text>
  </g>

  <g class="cpd-chart">
    <line x1="72" y1="148" x2="808" y2="148" stroke="#21262d" stroke-width="1" stroke-dasharray="4,4"/><line x1="72" y1="213.5" x2="808" y2="213.5" stroke="#21262d" stroke-width="1" stroke-dasharray="4,4"/><line x1="72" y1="279" x2="808" y2="279" stroke="#21262d" stroke-width="1" stroke-dasharray="4,4"/><line x1="72" y1="344.5" x2="808" y2="344.5" stroke="#21262d" stroke-width="1" stroke-dasharray="4,4"/><line x1="72" y1="410" x2="808" y2="410" stroke="#21262d" stroke-width="1" stroke-dasharray="4,4"/><line x1="72" y1="279" x2="808" y2="279" stroke="#30363d" stroke-width="1.5"/><text x="64" y="162" fill="#6e7681" font-size="10" font-family="'Segoe UI', sans-serif" text-anchor="end">+27,218</text><text x="64" y="406" fill="#6e7681" font-size="10" font-family="'Segoe UI', sans-serif" text-anchor="end">-27,218</text><text x="64" y="283" fill="#6e7681" font-size="10" font-family="'Segoe UI', sans-serif" text-anchor="end">0</text><path d="M 72 279 L 72 158 L 96.53333333333333 243.9732162539496 L 121.06666666666666 278.78661180101403 L 145.60000000000002 279 L 170.13333333333333 278.7643838636197 L 194.66666666666669 279 L 219.20000000000002 256.1007788963186 L 243.73333333333335 214.76126093026676 L 268.26666666666665 247.70750973620397 L 292.8 258.35913733558675 L 317.33333333333337 278.97777206260565 L 341.8666666666667 163.69924314791683 L 366.40000000000003 158 L 390.93333333333334 269.1174590344625 L 415.4666666666667 158 L 440 158 L 464.53333333333336 228.40032331545302 L 489.0666666666667 267.685979866265 L 513.6 217.2374531559997 L 538.1333333333334 240.66569916966714 L 562.6666666666667 158 L 587.2 251.8374605040782 L 611.7333333333333 264.02281578367257 L 636.2666666666667 179.08542141230066 L 660.8000000000001 243.01296935851275 L 685.3333333333334 197.02336688955836 L 709.8666666666667 158 L 734.4000000000001 273.2073995150268 L 758.9333333333334 225.8441105151003 L 783.4666666666667 211.9694319935337 L 808 275.6080167536189 L 808 279 Z" fill="#3fb950" opacity="0.15"/><path d="M 72 279 L 72 158 L 96.53333333333333 243.9732162539496 L 121.06666666666666 278.78661180101403 L 145.60000000000002 279 L 170.13333333333333 278.7643838636197 L 194.66666666666669 279 L 219.20000000000002 256.1007788963186 L 243.73333333333335 214.76126093026676 L 268.26666666666665 247.70750973620397 L 292.8 258.35913733558675 L 317.33333333333337 278.97777206260565 L 341.8666666666667 163.69924314791683 L 366.40000000000003 158 L 390.93333333333334 269.1174590344625 L 415.4666666666667 158 L 440 158 L 464.53333333333336 228.40032331545302 L 489.0666666666667 267.685979866265 L 513.6 217.2374531559997 L 538.1333333333334 240.66569916966714 L 562.6666666666667 158 L 587.2 251.8374605040782 L 611.7333333333333 264.02281578367257 L 636.2666666666667 179.08542141230066 L 660.8000000000001 243.01296935851275 L 685.3333333333334 197.02336688955836 L 709.8666666666667 158 L 734.4000000000001 273.2073995150268 L 758.9333333333334 225.8441105151003 L 783.4666666666667 211.9694319935337 L 808 275.6080167536189" fill="none" stroke="#3fb950" stroke-width="2"/><path d="M 72 279 L 72 283.1610698802263 L 96.53333333333333 280.307002718789 L 121.06666666666666 300.62333749724445 L 145.60000000000002 279 L 170.13333333333333 279.20005143654936 L 194.66666666666669 279 L 219.20000000000002 279.50679697259164 L 243.73333333333335 282.6676096700713 L 268.26666666666665 287.8689470203542 L 292.8 279.2756264236902 L 317.33333333333337 279 L 341.8666666666667 281.4539642883386 L 366.40000000000003 300.93897420824453 L 390.93333333333334 279.3689837607466 L 415.4666666666667 284.5214196487618 L 440 282.93434491880373 L 464.53333333333336 302.49048423837166 L 489.0666666666667 281.405062826071 L 513.6 299.70754647659635 L 538.1333333333334 286.12627672863545 L 562.6666666666667 315.2715482401352 L 587.2 291.6699243147917 L 611.7333333333333 284.6681240355647 L 636.2666666666667 287.21544566095963 L 660.8000000000001 282.46311264604304 L 685.3333333333334 299.6453082518921 L 709.8666666666667 400 L 734.4000000000001 281.29392313909915 L 758.9333333333334 283.8279080020575 L 783.4666666666667 291.29649496656623 L 808 279.11113968697185 L 808 279 Z" fill="#f85149" opacity="0.15"/><path d="M 72 279 L 72 283.1610698802263 L 96.53333333333333 280.307002718789 L 121.06666666666666 300.62333749724445 L 145.60000000000002 279 L 170.13333333333333 279.20005143654936 L 194.66666666666669 279 L 219.20000000000002 279.50679697259164 L 243.73333333333335 282.6676096700713 L 268.26666666666665 287.8689470203542 L 292.8 279.2756264236902 L 317.33333333333337 279 L 341.8666666666667 281.4539642883386 L 366.40000000000003 300.93897420824453 L 390.93333333333334 279.3689837607466 L 415.4666666666667 284.5214196487618 L 440 282.93434491880373 L 464.53333333333336 302.49048423837166 L 489.0666666666667 281.405062826071 L 513.6 299.70754647659635 L 538.1333333333334 286.12627672863545 L 562.6666666666667 315.2715482401352 L 587.2 291.6699243147917 L 611.7333333333333 284.6681240355647 L 636.2666666666667 287.21544566095963 L 660.8000000000001 282.46311264604304 L 685.3333333333334 299.6453082518921 L 709.8666666666667 400 L 734.4000000000001 281.29392313909915 L 758.9333333333334 283.8279080020575 L 783.4666666666667 291.29649496656623 L 808 279.11113968697185" fill="none" stroke="#f85149" stroke-width="2"/><text x="72" y="426" fill="#6e7681" font-size="10" font-family="'Segoe UI', sans-serif" text-anchor="middle">Apr 12</text><text x="194.66666666666669" y="426" fill="#6e7681" font-size="10" font-family="'Segoe UI', sans-serif" text-anchor="middle">Apr 17</text><text x="317.33333333333337" y="426" fill="#6e7681" font-size="10" font-family="'Segoe UI', sans-serif" text-anchor="middle">Apr 22</text><text x="440" y="426" fill="#6e7681" font-size="10" font-family="'Segoe UI', sans-serif" text-anchor="middle">Apr 27</text><text x="562.6666666666667" y="426" fill="#6e7681" font-size="10" font-family="'Segoe UI', sans-serif" text-anchor="middle">May 2</text><text x="685.3333333333334" y="426" fill="#6e7681" font-size="10" font-family="'Segoe UI', sans-serif" text-anchor="middle">May 7</text><text x="808" y="426" fill="#6e7681" font-size="10" font-family="'Segoe UI', sans-serif" text-anchor="middle">May 12</text>
  </g>

  <g class="cpd-legend">
    
    <circle cx="30" cy="442" r="5" fill="#3fb950"/>
    <text x="40" y="446" fill="#8b949e" font-size="11" font-family="'Segoe UI', sans-serif">Additions</text>
    <circle cx="124" cy="442" r="5" fill="#f85149"/>
    <text x="134" y="446" fill="#8b949e" font-size="11" font-family="'Segoe UI', sans-serif">Deletions</text>
    <text x="816" y="446" fill="#6e7681" font-size="10" font-family="'Segoe UI', sans-serif" text-anchor="end">Last 31 days · +5,336,594 / -88,961 lines</text>
  </g>

  <a href="https://github.com/mpge/code-per-day" target="_blank">
    <text x="420" y="452" fill="#6e7681" font-size="10" font-family="'Segoe UI', sans-serif" text-anchor="middle" opacity="0.6">Get your own - github.com/mpge/code-per-day</text>
  </a>
</svg>