<svg width="840" height="460" viewBox="0 0 840 460" xmlns="http://www.w3.org/2000/svg">
  
    <style>
      @keyframes fadeInUp {
        from { opacity: 0; transform: translateY(12px); }
        to   { opacity: 1; transform: translateY(0); }
      }
      @keyframes growBar {
        from { transform: scaleY(0); }
        to   { transform: scaleY(1); }
      }
      .cpd-header  { animation: fadeInUp 0.5s ease both; }
      .cpd-stats   { animation: fadeInUp 0.5s ease 0.15s both; }
      .cpd-chart   { animation: fadeInUp 0.5s ease 0.3s both; }
      .cpd-legend  { animation: fadeInUp 0.5s ease 0.45s both; }
    </style>

  <!-- Background -->
  <rect width="840" height="460" rx="12" fill="#1a1b26" stroke="#414868" stroke-width="1"/>

  <!-- Header -->
  <g class="cpd-header">
    <a href="https://github.com/mpge/code-per-day" target="_blank">
      <text x="24" y="44" fill="#c0caf5" font-size="18" font-family="'Segoe UI', sans-serif" font-weight="700">Code Per Day</text>
    </a>
    <text x="816" y="44" fill="#565f89" font-size="13" font-family="'Segoe UI', sans-serif" text-anchor="end" font-weight="500">@mpge</text>
  </g>

  <!-- Stats Cards -->
  <g class="cpd-stats">
    
    <rect x="24" y="60" width="190" height="68" rx="8" fill="#16161e" stroke="#414868" stroke-width="1"/>
    <text x="119" y="78" fill="#565f89" font-size="11" font-family="'Segoe UI', sans-serif" text-anchor="middle" font-weight="500">Today</text>
    <text x="119" y="100" fill="#9ece6a" font-size="16" font-family="'Segoe UI Mono', 'Cascadia Code', monospace" text-anchor="middle" font-weight="700">+275,136</text>
    <text x="119" y="118" fill="#f7768e" font-size="14" font-family="'Segoe UI Mono', 'Cascadia Code', monospace" text-anchor="middle" font-weight="600">-5,996</text>
    <rect x="222" y="60" width="190" height="68" rx="8" fill="#16161e" stroke="#414868" stroke-width="1"/>
    <text x="317" y="78" fill="#565f89" font-size="11" font-family="'Segoe UI', sans-serif" text-anchor="middle" font-weight="500">30d Avg</text>
    <text x="317" y="100" fill="#9ece6a" font-size="16" font-family="'Segoe UI Mono', 'Cascadia Code', monospace" text-anchor="middle" font-weight="700">+225,041</text>
    <text x="317" y="118" fill="#f7768e" font-size="14" font-family="'Segoe UI Mono', 'Cascadia Code', monospace" text-anchor="middle" font-weight="600">-57,233</text>
    <rect x="420" y="60" width="190" height="68" rx="8" fill="#16161e" stroke="#414868" stroke-width="1"/>
    <text x="515" y="78" fill="#565f89" font-size="11" font-family="'Segoe UI', sans-serif" text-anchor="middle" font-weight="500">Year Avg</text>
    <text x="515" y="100" fill="#9ece6a" font-size="16" font-family="'Segoe UI Mono', 'Cascadia Code', monospace" text-anchor="middle" font-weight="700">+23,056</text>
    <text x="515" y="118" fill="#f7768e" font-size="14" font-family="'Segoe UI Mono', 'Cascadia Code', monospace" text-anchor="middle" font-weight="600">-6,434</text>
        <rect x="618" y="60" width="190" height="68" rx="8" fill="#16161e" stroke="#414868" stroke-width="1"/>
        <text x="713" y="78" fill="#565f89" font-size="11" font-family="'Segoe UI', sans-serif" text-anchor="middle" font-weight="500">Streak</text>
        <text x="713" y="104" fill="#7aa2f7" font-size="20" font-family="'Segoe UI Mono', 'Cascadia Code', monospace" text-anchor="middle" font-weight="700">156</text>
        <text x="713" y="120" fill="#565f89" font-size="11" font-family="'Segoe UI', sans-serif" text-anchor="middle">days</text>
  </g>

  <!-- Chart -->
  <g class="cpd-chart">
    <line x1="72" y1="148" x2="808" y2="148" stroke="#292e42" stroke-width="1" stroke-dasharray="4,4"/><line x1="72" y1="213.5" x2="808" y2="213.5" stroke="#292e42" stroke-width="1" stroke-dasharray="4,4"/><line x1="72" y1="279" x2="808" y2="279" stroke="#292e42" stroke-width="1" stroke-dasharray="4,4"/><line x1="72" y1="344.5" x2="808" y2="344.5" stroke="#292e42" stroke-width="1" stroke-dasharray="4,4"/><line x1="72" y1="410" x2="808" y2="410" stroke="#292e42" stroke-width="1" stroke-dasharray="4,4"/><line x1="72" y1="279" x2="808" y2="279" stroke="#414868" stroke-width="1.5"/><text x="64" y="162" fill="#565f89" font-size="10" font-family="'Segoe UI', sans-serif" text-anchor="end">+43,616</text><text x="64" y="406" fill="#565f89" font-size="10" font-family="'Segoe UI', sans-serif" text-anchor="end">-43,616</text><text x="64" y="283" fill="#565f89" font-size="10" font-family="'Segoe UI', sans-serif" text-anchor="end">0</text><path d="M 72 279 L 72 279 L 96.53333333333333 279 L 121.06666666666666 228.7812270726339 L 145.60000000000002 158 L 170.13333333333333 158 L 194.66666666666669 173.0389994497432 L 219.20000000000002 158 L 243.73333333333335 158 L 268.26666666666665 243.7702907190022 L 292.8 260.8733033749083 L 317.33333333333337 158 L 341.8666666666667 257.1419891782832 L 366.40000000000003 278.8668378576669 L 390.93333333333334 279 L 415.4666666666667 278.85296680117386 L 440 279 L 464.53333333333336 264.7100376008804 L 489.0666666666667 238.91264673514306 L 513.6 259.47232666911225 L 538.1333333333334 266.1193369405723 L 562.6666666666667 278.98612894350697 L 587.2 207.04805575935436 L 611.7333333333333 158 L 636.2666666666667 272.83292828319884 L 660.8000000000001 202.44841342626557 L 685.3333333333334 165.17688462949377 L 709.8666666666667 247.4239269992663 L 734.4000000000001 271.9396322450477 L 758.9333333333334 240.45788242846663 L 783.4666666666667 255.07797597212033 L 808 158 L 808 279 Z" fill="#9ece6a" opacity="0.15"/><path d="M 72 279 L 72 279 L 96.53333333333333 279 L 121.06666666666666 228.7812270726339 L 145.60000000000002 158 L 170.13333333333333 158 L 194.66666666666669 173.0389994497432 L 219.20000000000002 158 L 243.73333333333335 158 L 268.26666666666665 243.7702907190022 L 292.8 260.8733033749083 L 317.33333333333337 158 L 341.8666666666667 257.1419891782832 L 366.40000000000003 278.8668378576669 L 390.93333333333334 279 L 415.4666666666667 278.85296680117386 L 440 279 L 464.53333333333336 264.7100376008804 L 489.0666666666667 238.91264673514306 L 513.6 259.47232666911225 L 538.1333333333334 266.1193369405723 L 562.6666666666667 278.98612894350697 L 587.2 207.04805575935436 L 611.7333333333333 158 L 636.2666666666667 272.83292828319884 L 660.8000000000001 202.44841342626557 L 685.3333333333334 165.17688462949377 L 709.8666666666667 247.4239269992663 L 734.4000000000001 271.9396322450477 L 758.9333333333334 240.45788242846663 L 783.4666666666667 255.07797597212033 L 808 158" fill="none" stroke="#9ece6a" stroke-width="2"/><path d="M 72 279 L 72 279 L 96.53333333333333 279 L 121.06666666666666 279.11096845194425 L 145.60000000000002 400 L 170.13333333333333 298.5776091342627 L 194.66666666666669 328.95799706529715 L 219.20000000000002 290.6489132428467 L 243.73333333333335 313.3086711298606 L 268.26666666666665 284.7564884446075 L 292.8 284.63997157006605 L 317.33333333333337 281.59666177549525 L 341.8666666666667 279.8156181217902 L 366.40000000000003 292.49376375641964 L 390.93333333333334 279 L 415.4666666666667 279.1248395084373 L 440 279 L 464.53333333333336 279.3162600880411 L 489.0666666666667 281.28872432134995 L 513.6 284.534551540719 L 538.1333333333334 279.17200110051357 L 562.6666666666667 279 L 587.2 280.5313646368305 L 611.7333333333333 292.6907327586207 L 636.2666666666667 279.2302595377843 L 660.8000000000001 282.4455704328687 L 685.3333333333334 281.4551769992663 L 709.8666666666667 293.6589325018342 L 734.4000000000001 280.5008483125458 L 758.9333333333334 291.9222762289068 L 783.4666666666667 283.4470607116655 L 808 295.63417094644166 L 808 279 Z" fill="#f7768e" opacity="0.15"/><path d="M 72 279 L 72 279 L 96.53333333333333 279 L 121.06666666666666 279.11096845194425 L 145.60000000000002 400 L 170.13333333333333 298.5776091342627 L 194.66666666666669 328.95799706529715 L 219.20000000000002 290.6489132428467 L 243.73333333333335 313.3086711298606 L 268.26666666666665 284.7564884446075 L 292.8 284.63997157006605 L 317.33333333333337 281.59666177549525 L 341.8666666666667 279.8156181217902 L 366.40000000000003 292.49376375641964 L 390.93333333333334 279 L 415.4666666666667 279.1248395084373 L 440 279 L 464.53333333333336 279.3162600880411 L 489.0666666666667 281.28872432134995 L 513.6 284.534551540719 L 538.1333333333334 279.17200110051357 L 562.6666666666667 279 L 587.2 280.5313646368305 L 611.7333333333333 292.6907327586207 L 636.2666666666667 279.2302595377843 L 660.8000000000001 282.4455704328687 L 685.3333333333334 281.4551769992663 L 709.8666666666667 293.6589325018342 L 734.4000000000001 280.5008483125458 L 758.9333333333334 291.9222762289068 L 783.4666666666667 283.4470607116655 L 808 295.63417094644166" fill="none" stroke="#f7768e" stroke-width="2"/><text x="72" y="426" fill="#565f89" font-size="10" font-family="'Segoe UI', sans-serif" text-anchor="middle">Apr 2</text><text x="194.66666666666669" y="426" fill="#565f89" font-size="10" font-family="'Segoe UI', sans-serif" text-anchor="middle">Apr 7</text><text x="317.33333333333337" y="426" fill="#565f89" font-size="10" font-family="'Segoe UI', sans-serif" text-anchor="middle">Apr 12</text><text x="440" y="426" fill="#565f89" font-size="10" font-family="'Segoe UI', sans-serif" text-anchor="middle">Apr 17</text><text x="562.6666666666667" y="426" fill="#565f89" font-size="10" font-family="'Segoe UI', sans-serif" text-anchor="middle">Apr 22</text><text x="685.3333333333334" y="426" fill="#565f89" font-size="10" font-family="'Segoe UI', sans-serif" text-anchor="middle">Apr 27</text><text x="808" y="426" fill="#565f89" font-size="10" font-family="'Segoe UI', sans-serif" text-anchor="middle">May 2</text>
  </g>

  <!-- Legend -->
  <g class="cpd-legend">
    <circle cx="30" cy="442" r="5" fill="#9ece6a"/>
    <text x="40" y="446" fill="#a9b1d6" font-size="11" font-family="'Segoe UI', sans-serif">Additions</text>
    <circle cx="124" cy="442" r="5" fill="#f7768e"/>
    <text x="134" y="446" fill="#a9b1d6" font-size="11" font-family="'Segoe UI', sans-serif">Deletions</text>
    <text x="816" y="446" fill="#565f89" font-size="10" font-family="'Segoe UI', sans-serif" text-anchor="end">Last 31 days · +6,976,269 / -1,774,226 lines</text>
  </g>

  <!-- Get your own -->
  <a href="https://github.com/mpge/code-per-day" target="_blank">
    <text x="420" y="452" fill="#565f89" font-size="10" font-family="'Segoe UI', sans-serif" text-anchor="middle" opacity="0.6">Get your own — github.com/mpge/code-per-day</text>
  </a>
</svg>