<svg width="840" height="460" viewBox="0 0 840 460" xmlns="http://www.w3.org/2000/svg">
  
    <style>
      @keyframes fadeInUp {
        from { opacity: 0; transform: translateY(12px); }
        to   { opacity: 1; transform: translateY(0); }
      }
      @keyframes growBar {
        from { transform: scaleY(0); }
        to   { transform: scaleY(1); }
      }
      .cpd-header  { animation: fadeInUp 0.5s ease both; }
      .cpd-stats   { animation: fadeInUp 0.5s ease 0.15s both; }
      .cpd-chart   { animation: fadeInUp 0.5s ease 0.3s both; }
      .cpd-legend  { animation: fadeInUp 0.5s ease 0.45s both; }
    </style>

  <rect width="840" height="460" rx="12" fill="#2e3440" stroke="#4c566a" stroke-width="1"/>

  <g class="cpd-header">
    <a href="https://github.com/mpge/code-per-day" target="_blank">
      <text x="24" y="44" fill="#eceff4" font-size="18" font-family="'Segoe UI', sans-serif" font-weight="700">Code Per Day</text>
    </a>
    <text x="816" y="44" fill="#81a1c1" font-size="13" font-family="'Segoe UI', sans-serif" text-anchor="end" font-weight="500">@mpge</text>
  </g>

  <g class="cpd-stats">
    
    <rect x="24" y="60" width="190" height="68" rx="8" fill="#2e3440" stroke="#4c566a" stroke-width="1"/>
    <text x="119" y="78" fill="#81a1c1" font-size="11" font-family="'Segoe UI', sans-serif" text-anchor="middle" font-weight="500">Today</text>
    <text x="119" y="100" fill="#a3be8c" font-size="16" font-family="'Segoe UI Mono', 'Cascadia Code', monospace" text-anchor="middle" font-weight="700">+0</text>
    <text x="119" y="118" fill="#bf616a" font-size="14" font-family="'Segoe UI Mono', 'Cascadia Code', monospace" text-anchor="middle" font-weight="600">+0</text>
    <rect x="222" y="60" width="190" height="68" rx="8" fill="#2e3440" stroke="#4c566a" stroke-width="1"/>
    <text x="317" y="78" fill="#81a1c1" font-size="11" font-family="'Segoe UI', sans-serif" text-anchor="middle" font-weight="500">30d Avg</text>
    <text x="317" y="100" fill="#a3be8c" font-size="16" font-family="'Segoe UI Mono', 'Cascadia Code', monospace" text-anchor="middle" font-weight="700">+8,697</text>
    <text x="317" y="118" fill="#bf616a" font-size="14" font-family="'Segoe UI Mono', 'Cascadia Code', monospace" text-anchor="middle" font-weight="600">-1,116</text>
    <rect x="420" y="60" width="190" height="68" rx="8" fill="#2e3440" stroke="#4c566a" stroke-width="1"/>
    <text x="515" y="78" fill="#81a1c1" font-size="11" font-family="'Segoe UI', sans-serif" text-anchor="middle" font-weight="500">Year Avg</text>
    <text x="515" y="100" fill="#a3be8c" font-size="16" font-family="'Segoe UI Mono', 'Cascadia Code', monospace" text-anchor="middle" font-weight="700">+26,162</text>
    <text x="515" y="118" fill="#bf616a" font-size="14" font-family="'Segoe UI Mono', 'Cascadia Code', monospace" text-anchor="middle" font-weight="600">-7,164</text>
    <rect x="618" y="60" width="190" height="68" rx="8" fill="#2e3440" stroke="#4c566a" stroke-width="1"/>
    <text x="713" y="78" fill="#81a1c1" font-size="11" font-family="'Segoe UI', sans-serif" text-anchor="middle" font-weight="500">Streak</text>
    <text x="713" y="104" fill="#88c0d0" font-size="20" font-family="'Segoe UI Mono', 'Cascadia Code', monospace" text-anchor="middle" font-weight="700">226</text>
    <text x="713" y="120" fill="#81a1c1" font-size="11" font-family="'Segoe UI', sans-serif" text-anchor="middle">days</text>
  </g>

  <g class="cpd-chart">
    <line x1="72" y1="148" x2="808" y2="148" stroke="#434c5e" stroke-width="1" stroke-dasharray="4,4"/><line x1="72" y1="213.5" x2="808" y2="213.5" stroke="#434c5e" stroke-width="1" stroke-dasharray="4,4"/><line x1="72" y1="279" x2="808" y2="279" stroke="#434c5e" stroke-width="1" stroke-dasharray="4,4"/><line x1="72" y1="344.5" x2="808" y2="344.5" stroke="#434c5e" stroke-width="1" stroke-dasharray="4,4"/><line x1="72" y1="410" x2="808" y2="410" stroke="#434c5e" stroke-width="1" stroke-dasharray="4,4"/><line x1="72" y1="279" x2="808" y2="279" stroke="#4c566a" stroke-width="1.5"/><text x="64" y="162" fill="#81a1c1" font-size="10" font-family="'Segoe UI', sans-serif" text-anchor="end">+10,963</text><text x="64" y="406" fill="#81a1c1" font-size="10" font-family="'Segoe UI', sans-serif" text-anchor="end">-10,963</text><text x="64" y="283" fill="#81a1c1" font-size="10" font-family="'Segoe UI', sans-serif" text-anchor="end">0</text><path d="M 72 279 L 72 278.17221563440665 L 96.53333333333333 274.6072242999179 L 121.06666666666666 227.52284958496762 L 145.60000000000002 271.0753443400529 L 170.13333333333333 279 L 194.66666666666669 263.22794855422785 L 219.20000000000002 224.67527136732645 L 243.73333333333335 217.50114019885066 L 268.26666666666665 245.10498951017058 L 292.8 158 L 317.33333333333337 184.62154519748245 L 341.8666666666667 158 L 366.40000000000003 198.85943628568822 L 390.93333333333334 202.22575937243454 L 415.4666666666667 258.7248016054 L 440 263.3383198029736 L 464.53333333333336 229.1011584420323 L 489.0666666666667 158 L 513.6 243.8798686490924 L 538.1333333333334 251.07607406731734 L 562.6666666666667 275.3577487913892 L 587.2 279 L 611.7333333333333 276.15242178235883 L 636.2666666666667 271.3733467116665 L 660.8000000000001 279 L 685.3333333333334 264.2654382924382 L 709.8666666666667 258.21709386116936 L 734.4000000000001 279 L 758.9333333333334 279 L 783.4666666666667 160.94691234151236 L 808 279 L 808 279 Z" fill="#a3be8c" opacity="0.15"/><path d="M 72 279 L 72 278.17221563440665 L 96.53333333333333 274.6072242999179 L 121.06666666666666 227.52284958496762 L 145.60000000000002 271.0753443400529 L 170.13333333333333 279 L 194.66666666666669 263.22794855422785 L 219.20000000000002 224.67527136732645 L 243.73333333333335 217.50114019885066 L 268.26666666666665 245.10498951017058 L 292.8 158 L 317.33333333333337 184.62154519748245 L 341.8666666666667 158 L 366.40000000000003 198.85943628568822 L 390.93333333333334 202.22575937243454 L 415.4666666666667 258.7248016054 L 440 263.3383198029736 L 464.53333333333336 229.1011584420323 L 489.0666666666667 158 L 513.6 243.8798686490924 L 538.1333333333334 251.07607406731734 L 562.6666666666667 275.3577487913892 L 587.2 279 L 611.7333333333333 276.15242178235883 L 636.2666666666667 271.3733467116665 L 660.8000000000001 279 L 685.3333333333334 264.2654382924382 L 709.8666666666667 258.21709386116936 L 734.4000000000001 279 L 758.9333333333334 279 L 783.4666666666667 160.94691234151236 L 808 279" fill="none" stroke="#a3be8c" stroke-width="2"/><path d="M 72 279 L 72 279.9823041138375 L 96.53333333333333 281.3177962236614 L 121.06666666666666 329.07543555596095 L 145.60000000000002 279.33111374623735 L 170.13333333333333 279 L 194.66666666666669 282.9071422056007 L 219.20000000000002 284.7172306850315 L 243.73333333333335 289.6949740034662 L 268.26666666666665 280.22512086107815 L 292.8 341.2935327921189 L 317.33333333333337 288.86718963787285 L 341.8666666666667 308.61260603849314 L 366.40000000000003 291.44987685852414 L 390.93333333333334 279.7505244914713 L 415.4666666666667 280.8542369789291 L 440 279.94919273921374 L 464.53333333333336 282.1455805892548 L 489.0666666666667 370.3211712122594 L 513.6 286.2845024172216 L 538.1333333333334 286.6266532883335 L 562.6666666666667 279 L 587.2 279 L 611.7333333333333 280.6776429809359 L 636.2666666666667 280.58934598193923 L 660.8000000000001 279 L 685.3333333333334 284.26470856517375 L 709.8666666666667 299.4407552677187 L 734.4000000000001 279 L 758.9333333333334 279 L 783.4666666666667 329.5831433001915 L 808 279 L 808 279 Z" fill="#bf616a" opacity="0.15"/><path d="M 72 279 L 72 279.9823041138375 L 96.53333333333333 281.3177962236614 L 121.06666666666666 329.07543555596095 L 145.60000000000002 279.33111374623735 L 170.13333333333333 279 L 194.66666666666669 282.9071422056007 L 219.20000000000002 284.7172306850315 L 243.73333333333335 289.6949740034662 L 268.26666666666665 280.22512086107815 L 292.8 341.2935327921189 L 317.33333333333337 288.86718963787285 L 341.8666666666667 308.61260603849314 L 366.40000000000003 291.44987685852414 L 390.93333333333334 279.7505244914713 L 415.4666666666667 280.8542369789291 L 440 279.94919273921374 L 464.53333333333336 282.1455805892548 L 489.0666666666667 370.3211712122594 L 513.6 286.2845024172216 L 538.1333333333334 286.6266532883335 L 562.6666666666667 279 L 587.2 279 L 611.7333333333333 280.6776429809359 L 636.2666666666667 280.58934598193923 L 660.8000000000001 279 L 685.3333333333334 284.26470856517375 L 709.8666666666667 299.4407552677187 L 734.4000000000001 279 L 758.9333333333334 279 L 783.4666666666667 329.5831433001915 L 808 279" fill="none" stroke="#bf616a" stroke-width="2"/><text x="72" y="426" fill="#81a1c1" font-size="10" font-family="'Segoe UI', sans-serif" text-anchor="middle">Jun 12</text><text x="194.66666666666669" y="426" fill="#81a1c1" font-size="10" font-family="'Segoe UI', sans-serif" text-anchor="middle">Jun 17</text><text x="317.33333333333337" y="426" fill="#81a1c1" font-size="10" font-family="'Segoe UI', sans-serif" text-anchor="middle">Jun 22</text><text x="440" y="426" fill="#81a1c1" font-size="10" font-family="'Segoe UI', sans-serif" text-anchor="middle">Jun 27</text><text x="562.6666666666667" y="426" fill="#81a1c1" font-size="10" font-family="'Segoe UI', sans-serif" text-anchor="middle">Jul 2</text><text x="685.3333333333334" y="426" fill="#81a1c1" font-size="10" font-family="'Segoe UI', sans-serif" text-anchor="middle">Jul 7</text><text x="808" y="426" fill="#81a1c1" font-size="10" font-family="'Segoe UI', sans-serif" text-anchor="middle">Jul 12</text>
  </g>

  <g class="cpd-legend">
    
    <circle cx="30" cy="442" r="5" fill="#a3be8c"/>
    <text x="40" y="446" fill="#d8dee9" font-size="11" font-family="'Segoe UI', sans-serif">Additions</text>
    <circle cx="124" cy="442" r="5" fill="#bf616a"/>
    <text x="134" y="446" fill="#d8dee9" font-size="11" font-family="'Segoe UI', sans-serif">Deletions</text>
    <text x="816" y="446" fill="#81a1c1" font-size="10" font-family="'Segoe UI', sans-serif" text-anchor="end">Last 31 days · +269,614 / -34,607 lines</text>
  </g>

  <a href="https://github.com/mpge/code-per-day" target="_blank">
    <text x="420" y="452" fill="#81a1c1" font-size="10" font-family="'Segoe UI', sans-serif" text-anchor="middle" opacity="0.6">Get your own - github.com/mpge/code-per-day</text>
  </a>
</svg>