<svg width="840" height="460" viewBox="0 0 840 460" xmlns="http://www.w3.org/2000/svg">
  
    <style>
      @keyframes fadeInUp {
        from { opacity: 0; transform: translateY(12px); }
        to   { opacity: 1; transform: translateY(0); }
      }
      @keyframes growBar {
        from { transform: scaleY(0); }
        to   { transform: scaleY(1); }
      }
      .cpd-header  { animation: fadeInUp 0.5s ease both; }
      .cpd-stats   { animation: fadeInUp 0.5s ease 0.15s both; }
      .cpd-chart   { animation: fadeInUp 0.5s ease 0.3s both; }
      .cpd-legend  { animation: fadeInUp 0.5s ease 0.45s both; }
    </style>

  <!-- Background -->
  <rect width="840" height="460" rx="12" fill="#0d1117" stroke="#30363d" stroke-width="1"/>

  <!-- Header -->
  <g class="cpd-header">
    <a href="https://github.com/mpge/code-per-day" target="_blank">
      <text x="24" y="44" fill="#f0f6fc" font-size="18" font-family="'Segoe UI', sans-serif" font-weight="700">Code Per Day</text>
    </a>
    <text x="816" y="44" fill="#484f58" font-size="13" font-family="'Segoe UI', sans-serif" text-anchor="end" font-weight="500">@mpge</text>
  </g>

  <!-- Stats Cards -->
  <g class="cpd-stats">
    
    <rect x="24" y="60" width="190" height="68" rx="8" fill="#010409" stroke="#30363d" stroke-width="1"/>
    <text x="119" y="78" fill="#484f58" font-size="11" font-family="'Segoe UI', sans-serif" text-anchor="middle" font-weight="500">Today</text>
    <text x="119" y="100" fill="#3fb950" font-size="16" font-family="'Segoe UI Mono', 'Cascadia Code', monospace" text-anchor="middle" font-weight="700">+6,485</text>
    <text x="119" y="118" fill="#f85149" font-size="14" font-family="'Segoe UI Mono', 'Cascadia Code', monospace" text-anchor="middle" font-weight="600">-5,512</text>
    <rect x="222" y="60" width="190" height="68" rx="8" fill="#010409" stroke="#30363d" stroke-width="1"/>
    <text x="317" y="78" fill="#484f58" font-size="11" font-family="'Segoe UI', sans-serif" text-anchor="middle" font-weight="500">30d Avg</text>
    <text x="317" y="100" fill="#3fb950" font-size="16" font-family="'Segoe UI Mono', 'Cascadia Code', monospace" text-anchor="middle" font-weight="700">+216,375</text>
    <text x="317" y="118" fill="#f85149" font-size="14" font-family="'Segoe UI Mono', 'Cascadia Code', monospace" text-anchor="middle" font-weight="600">-57,217</text>
    <rect x="420" y="60" width="190" height="68" rx="8" fill="#010409" stroke="#30363d" stroke-width="1"/>
    <text x="515" y="78" fill="#484f58" font-size="11" font-family="'Segoe UI', sans-serif" text-anchor="middle" font-weight="500">Year Avg</text>
    <text x="515" y="100" fill="#3fb950" font-size="16" font-family="'Segoe UI Mono', 'Cascadia Code', monospace" text-anchor="middle" font-weight="700">+22,322</text>
    <text x="515" y="118" fill="#f85149" font-size="14" font-family="'Segoe UI Mono', 'Cascadia Code', monospace" text-anchor="middle" font-weight="600">-6,432</text>
        <rect x="618" y="60" width="190" height="68" rx="8" fill="#010409" stroke="#30363d" stroke-width="1"/>
        <text x="713" y="78" fill="#484f58" font-size="11" font-family="'Segoe UI', sans-serif" text-anchor="middle" font-weight="500">Streak</text>
        <text x="713" y="104" fill="#2f81f7" font-size="20" font-family="'Segoe UI Mono', 'Cascadia Code', monospace" text-anchor="middle" font-weight="700">155</text>
        <text x="713" y="120" fill="#484f58" font-size="11" font-family="'Segoe UI', sans-serif" text-anchor="middle">days</text>
  </g>

  <!-- Chart -->
  <g class="cpd-chart">
    <line x1="72" y1="148" x2="808" y2="148" stroke="#21262d" stroke-width="1" stroke-dasharray="4,4"/><line x1="72" y1="213.5" x2="808" y2="213.5" stroke="#21262d" stroke-width="1" stroke-dasharray="4,4"/><line x1="72" y1="279" x2="808" y2="279" stroke="#21262d" stroke-width="1" stroke-dasharray="4,4"/><line x1="72" y1="344.5" x2="808" y2="344.5" stroke="#21262d" stroke-width="1" stroke-dasharray="4,4"/><line x1="72" y1="410" x2="808" y2="410" stroke="#21262d" stroke-width="1" stroke-dasharray="4,4"/><line x1="72" y1="279" x2="808" y2="279" stroke="#30363d" stroke-width="1.5"/><text x="64" y="162" fill="#484f58" font-size="10" font-family="'Segoe UI', sans-serif" text-anchor="end">+34,721</text><text x="64" y="406" fill="#484f58" font-size="10" font-family="'Segoe UI', sans-serif" text-anchor="end">-34,721</text><text x="64" y="283" fill="#484f58" font-size="10" font-family="'Segoe UI', sans-serif" text-anchor="end">0</text><path d="M 72 279 L 72 279 L 96.53333333333333 279 L 121.06666666666666 215.9159298407304 L 145.60000000000002 158 L 170.13333333333333 158 L 194.66666666666669 158 L 219.20000000000002 158 L 243.73333333333335 158 L 268.26666666666665 234.7449670228392 L 292.8 256.2295152789378 L 317.33333333333337 158 L 341.8666666666667 251.54229428875897 L 366.40000000000003 278.8327237118747 L 390.93333333333334 279 L 415.4666666666667 278.81529909852827 L 440 279 L 464.53333333333336 261.0491633305492 L 489.0666666666667 228.6428674289335 L 513.6 254.46962933095244 L 538.1333333333334 262.8195040465424 L 562.6666666666667 278.9825753866536 L 587.2 188.61504564960688 L 611.7333333333333 158 L 636.2666666666667 271.2530169061951 L 660.8000000000001 182.83704386394402 L 685.3333333333334 158 L 709.8666666666667 239.33461017827827 L 734.4000000000001 270.1308718066876 L 758.9333333333334 230.5839693557213 L 783.4666666666667 248.94951182281616 L 808 256.40027648973245 L 808 279 Z" fill="#3fb950" opacity="0.15"/><path d="M 72 279 L 72 279 L 96.53333333333333 279 L 121.06666666666666 215.9159298407304 L 145.60000000000002 158 L 170.13333333333333 158 L 194.66666666666669 158 L 219.20000000000002 158 L 243.73333333333335 158 L 268.26666666666665 234.7449670228392 L 292.8 256.2295152789378 L 317.33333333333337 158 L 341.8666666666667 251.54229428875897 L 366.40000000000003 278.8327237118747 L 390.93333333333334 279 L 415.4666666666667 278.81529909852827 L 440 279 L 464.53333333333336 261.0491633305492 L 489.0666666666667 228.6428674289335 L 513.6 254.46962933095244 L 538.1333333333334 262.8195040465424 L 562.6666666666667 278.9825753866536 L 587.2 188.61504564960688 L 611.7333333333333 158 L 636.2666666666667 271.2530169061951 L 660.8000000000001 182.83704386394402 L 685.3333333333334 158 L 709.8666666666667 239.33461017827827 L 734.4000000000001 270.1308718066876 L 758.9333333333334 230.5839693557213 L 783.4666666666667 248.94951182281616 L 808 256.40027648973245" fill="none" stroke="#3fb950" stroke-width="2"/><path d="M 72 279 L 72 279 L 96.53333333333333 279 L 121.06666666666666 279.13939690677114 L 145.60000000000002 400 L 170.13333333333333 303.59309927709455 L 194.66666666666669 341.75648742835745 L 219.20000000000002 293.6331902882981 L 243.73333333333335 322.0980386509605 L 268.26666666666665 286.2312145387518 L 292.8 286.0848477866421 L 317.33333333333337 282.2618876184442 L 341.8666666666667 280.0245672647677 L 366.40000000000003 295.950663863368 L 390.93333333333334 279 L 415.4666666666667 279.1568215201175 L 440 279 L 464.53333333333336 279.3972811842977 L 489.0666666666667 281.8750612021543 L 513.6 285.95242072520955 L 538.1333333333334 279.2160652054952 L 562.6666666666667 279 L 587.2 280.92367731344143 L 611.7333333333333 296.1980933728867 L 636.2666666666667 279.28924858155005 L 660.8000000000001 283.3282739552432 L 685.3333333333334 282.08415656231097 L 709.8666666666667 297.41433138446473 L 734.4000000000001 280.88534316407936 L 758.9333333333334 295.23276979349674 L 783.4666666666667 284.58633103885256 L 808 298.2088937530601 L 808 279 Z" fill="#f85149" opacity="0.15"/><path d="M 72 279 L 72 279 L 96.53333333333333 279 L 121.06666666666666 279.13939690677114 L 145.60000000000002 400 L 170.13333333333333 303.59309927709455 L 194.66666666666669 341.75648742835745 L 219.20000000000002 293.6331902882981 L 243.73333333333335 322.0980386509605 L 268.26666666666665 286.2312145387518 L 292.8 286.0848477866421 L 317.33333333333337 282.2618876184442 L 341.8666666666667 280.0245672647677 L 366.40000000000003 295.950663863368 L 390.93333333333334 279 L 415.4666666666667 279.1568215201175 L 440 279 L 464.53333333333336 279.3972811842977 L 489.0666666666667 281.8750612021543 L 513.6 285.95242072520955 L 538.1333333333334 279.2160652054952 L 562.6666666666667 279 L 587.2 280.92367731344143 L 611.7333333333333 296.1980933728867 L 636.2666666666667 279.28924858155005 L 660.8000000000001 283.3282739552432 L 685.3333333333334 282.08415656231097 L 709.8666666666667 297.41433138446473 L 734.4000000000001 280.88534316407936 L 758.9333333333334 295.23276979349674 L 783.4666666666667 284.58633103885256 L 808 298.2088937530601" fill="none" stroke="#f85149" stroke-width="2"/><text x="72" y="426" fill="#484f58" font-size="10" font-family="'Segoe UI', sans-serif" text-anchor="middle">Apr 2</text><text x="194.66666666666669" y="426" fill="#484f58" font-size="10" font-family="'Segoe UI', sans-serif" text-anchor="middle">Apr 7</text><text x="317.33333333333337" y="426" fill="#484f58" font-size="10" font-family="'Segoe UI', sans-serif" text-anchor="middle">Apr 12</text><text x="440" y="426" fill="#484f58" font-size="10" font-family="'Segoe UI', sans-serif" text-anchor="middle">Apr 17</text><text x="562.6666666666667" y="426" fill="#484f58" font-size="10" font-family="'Segoe UI', sans-serif" text-anchor="middle">Apr 22</text><text x="685.3333333333334" y="426" fill="#484f58" font-size="10" font-family="'Segoe UI', sans-serif" text-anchor="middle">Apr 27</text><text x="808" y="426" fill="#484f58" font-size="10" font-family="'Segoe UI', sans-serif" text-anchor="middle">May 2</text>
  </g>

  <!-- Legend -->
  <g class="cpd-legend">
    <circle cx="30" cy="442" r="5" fill="#3fb950"/>
    <text x="40" y="446" fill="#7d8590" font-size="11" font-family="'Segoe UI', sans-serif">Additions</text>
    <circle cx="124" cy="442" r="5" fill="#f85149"/>
    <text x="134" y="446" fill="#7d8590" font-size="11" font-family="'Segoe UI', sans-serif">Deletions</text>
    <text x="816" y="446" fill="#484f58" font-size="10" font-family="'Segoe UI', sans-serif" text-anchor="end">Last 31 days · +6,707,618 / -1,773,742 lines</text>
  </g>

  <!-- Get your own -->
  <a href="https://github.com/mpge/code-per-day" target="_blank">
    <text x="420" y="452" fill="#484f58" font-size="10" font-family="'Segoe UI', sans-serif" text-anchor="middle" opacity="0.6">Get your own — github.com/mpge/code-per-day</text>
  </a>
</svg>